<svg width="342" height="198" viewBox="0 0 342 198" fill="none" xmlns="http://www.w3.org/2000/svg">
<path d="M22.864 34.632L19.624 25.056C19.384 24.448 19.128 23.736 18.856 22.92C18.584 22.088 18.312 21.192 18.04 20.232C17.8 21.208 17.544 22.112 17.272 22.944C17 23.776 16.744 24.496 16.504 25.104L13.288 34.632H22.864ZM35.752 48H29.464C28.76 48 28.192 47.84 27.76 47.52C27.328 47.184 27 46.76 26.776 46.248L24.712 40.152H11.416L9.352 46.248C9.176 46.696 8.856 47.104 8.392 47.472C7.944 47.824 7.384 48 6.712 48H0.376L13.912 13.032H22.216L35.752 48ZM59.581 41.52V48H38.509V13.032H46.621V41.52H59.581ZM84.7998 41.52V48H63.7278V13.032H71.8398V41.52H84.7998ZM23.704 78.136C23.464 78.52 23.208 78.808 22.936 79C22.68 79.192 22.344 79.288 21.928 79.288C21.56 79.288 21.16 79.176 20.728 78.952C20.312 78.712 19.832 78.448 19.288 78.16C18.76 77.872 18.152 77.616 17.464 77.392C16.776 77.152 15.992 77.032 15.112 77.032C13.592 77.032 12.456 77.36 11.704 78.016C10.968 78.656 10.6 79.528 10.6 80.632C10.6 81.336 10.824 81.92 11.272 82.384C11.72 82.848 12.304 83.248 13.024 83.584C13.76 83.92 14.592 84.232 15.52 84.52C16.464 84.792 17.424 85.104 18.4 85.456C19.376 85.792 20.328 86.192 21.256 86.656C22.2 87.12 23.032 87.712 23.752 88.432C24.488 89.152 25.08 90.032 25.528 91.072C25.976 92.096 26.2 93.336 26.2 94.792C26.2 96.408 25.92 97.92 25.36 99.328C24.8 100.736 23.984 101.968 22.912 103.024C21.856 104.064 20.544 104.888 18.976 105.496C17.424 106.088 15.656 106.384 13.672 106.384C12.584 106.384 11.472 106.272 10.336 106.048C9.216 105.824 8.128 105.512 7.072 105.112C6.016 104.696 5.024 104.208 4.096 103.648C3.168 103.088 2.36 102.464 1.672 101.776L4.072 97.984C4.264 97.712 4.512 97.488 4.816 97.312C5.136 97.12 5.48 97.024 5.848 97.024C6.328 97.024 6.808 97.176 7.288 97.48C7.784 97.784 8.336 98.12 8.944 98.488C9.568 98.856 10.28 99.192 11.08 99.496C11.88 99.8 12.824 99.952 13.912 99.952C15.384 99.952 16.528 99.632 17.344 98.992C18.16 98.336 18.568 97.304 18.568 95.896C18.568 95.08 18.344 94.416 17.896 93.904C17.448 93.392 16.856 92.968 16.12 92.632C15.4 92.296 14.576 92 13.648 91.744C12.72 91.488 11.768 91.208 10.792 90.904C9.816 90.584 8.864 90.2 7.936 89.752C7.008 89.288 6.176 88.688 5.44 87.952C4.72 87.2 4.136 86.272 3.688 85.168C3.24 84.048 3.016 82.672 3.016 81.04C3.016 79.728 3.28 78.448 3.808 77.2C4.336 75.952 5.112 74.84 6.136 73.864C7.16 72.888 8.416 72.112 9.904 71.536C11.392 70.944 13.096 70.648 15.016 70.648C16.088 70.648 17.128 70.736 18.136 70.912C19.16 71.072 20.128 71.32 21.04 71.656C21.952 71.976 22.8 72.368 23.584 72.832C24.384 73.28 25.096 73.792 25.72 74.368L23.704 78.136ZM78.3209 71.032L67.5209 106H60.1769L53.6009 84.328C53.4729 83.992 53.3529 83.624 53.2409 83.224C53.1289 82.808 53.0169 82.376 52.9049 81.928C52.7929 82.376 52.6809 82.808 52.5689 83.224C52.4569 83.624 52.3369 83.992 52.2089 84.328L45.5369 106H38.1929L27.3929 71.032H34.2089C34.9129 71.032 35.4969 71.192 35.9609 71.512C36.4409 71.832 36.7529 72.256 36.8969 72.784L41.6969 91.024C41.8409 91.6 41.9849 92.232 42.1289 92.92C42.2729 93.592 42.4169 94.296 42.5609 95.032C42.8489 93.528 43.2009 92.192 43.6169 91.024L49.2809 72.784C49.4249 72.336 49.7289 71.936 50.1929 71.584C50.6729 71.216 51.2489 71.032 51.9209 71.032H54.3209C55.0249 71.032 55.5929 71.2 56.0249 71.536C56.4569 71.856 56.7849 72.272 57.0089 72.784L62.6249 91.024C63.0409 92.144 63.3929 93.416 63.6809 94.84C63.8089 94.12 63.9369 93.448 64.0649 92.824C64.2089 92.184 64.3529 91.584 64.4969 91.024L69.2969 72.784C69.4249 72.32 69.7289 71.912 70.2089 71.56C70.6889 71.208 71.2649 71.032 71.9369 71.032H78.3209ZM89.9815 106H81.8215V71.032H89.9815V106ZM136.04 71.032V106H128.888V85.888C128.888 85.424 128.896 84.92 128.912 84.376C128.944 83.832 128.992 83.28 129.056 82.72L119.768 100.696C119.48 101.256 119.088 101.68 118.592 101.968C118.112 102.256 117.56 102.4 116.936 102.4H115.832C115.208 102.4 114.648 102.256 114.152 101.968C113.672 101.68 113.288 101.256 113 100.696L103.712 82.672C103.76 83.248 103.8 83.816 103.832 84.376C103.864 84.92 103.88 85.424 103.88 85.888V106H96.7278V71.032H102.92C103.272 71.032 103.576 71.04 103.832 71.056C104.104 71.072 104.344 71.12 104.552 71.2C104.76 71.28 104.944 71.408 105.104 71.584C105.28 71.744 105.448 71.976 105.608 72.28L114.608 90.016C114.928 90.624 115.232 91.256 115.52 91.912C115.824 92.568 116.112 93.24 116.384 93.928C116.656 93.224 116.936 92.536 117.224 91.864C117.528 91.192 117.848 90.552 118.184 89.944L127.16 72.28C127.32 71.976 127.48 71.744 127.64 71.584C127.816 71.408 128.008 71.28 128.216 71.2C128.424 71.12 128.656 71.072 128.912 71.056C129.184 71.04 129.496 71.032 129.848 71.032H136.04ZM154.182 87.472C155.286 87.472 156.222 87.336 156.99 87.064C157.774 86.776 158.414 86.384 158.91 85.888C159.406 85.392 159.766 84.816 159.99 84.16C160.214 83.488 160.326 82.768 160.326 82C160.326 80.464 159.822 79.264 158.814 78.4C157.822 77.536 156.278 77.104 154.182 77.104H150.918V87.472H154.182ZM171.414 106H164.07C162.71 106 161.734 105.488 161.142 104.464L155.334 94.312C155.062 93.88 154.758 93.568 154.422 93.376C154.086 93.168 153.606 93.064 152.982 93.064H150.918V106H142.806V71.032H154.182C156.71 71.032 158.862 71.296 160.638 71.824C162.43 72.336 163.886 73.056 165.006 73.984C166.142 74.912 166.966 76.008 167.478 77.272C167.99 78.536 168.246 79.912 168.246 81.4C168.246 82.536 168.094 83.608 167.79 84.616C167.486 85.624 167.038 86.56 166.446 87.424C165.854 88.272 165.118 89.032 164.238 89.704C163.374 90.376 162.374 90.928 161.238 91.36C161.766 91.632 162.262 91.976 162.726 92.392C163.19 92.792 163.606 93.272 163.974 93.832L171.414 106ZM182.513 106H174.353V71.032H182.513V106ZM206.059 87.88H218.491V102.64C216.699 103.952 214.787 104.904 212.755 105.496C210.739 106.088 208.627 106.384 206.419 106.384C203.539 106.384 200.915 105.936 198.547 105.04C196.195 104.128 194.179 102.88 192.499 101.296C190.819 99.696 189.523 97.808 188.611 95.632C187.699 93.44 187.243 91.064 187.243 88.504C187.243 85.896 187.675 83.504 188.539 81.328C189.403 79.136 190.635 77.248 192.235 75.664C193.851 74.08 195.795 72.848 198.067 71.968C200.355 71.088 202.907 70.648 205.723 70.648C207.179 70.648 208.547 70.768 209.827 71.008C211.107 71.248 212.283 71.576 213.355 71.992C214.443 72.408 215.435 72.904 216.331 73.48C217.227 74.056 218.027 74.68 218.731 75.352L216.379 78.928C216.011 79.488 215.531 79.832 214.939 79.96C214.363 80.088 213.739 79.944 213.067 79.528C212.427 79.144 211.819 78.816 211.243 78.544C210.683 78.256 210.107 78.024 209.515 77.848C208.923 77.672 208.299 77.544 207.643 77.464C206.987 77.384 206.251 77.344 205.435 77.344C203.915 77.344 202.547 77.616 201.331 78.16C200.115 78.688 199.075 79.44 198.211 80.416C197.363 81.392 196.707 82.568 196.243 83.944C195.779 85.304 195.547 86.824 195.547 88.504C195.547 90.36 195.803 92.008 196.315 93.448C196.827 94.888 197.547 96.104 198.475 97.096C199.419 98.088 200.539 98.848 201.835 99.376C203.147 99.888 204.595 100.144 206.179 100.144C207.155 100.144 208.035 100.048 208.819 99.856C209.619 99.664 210.395 99.408 211.147 99.088V93.784H207.691C207.179 93.784 206.779 93.648 206.491 93.376C206.203 93.104 206.059 92.76 206.059 92.344V87.88ZM254.475 71.032V106H246.315V91.216H232.107V106H223.947V71.032H232.107V85.648H246.315V71.032H254.475ZM286.387 77.464H276.547V106H268.435V77.464H258.595V71.032H286.387V77.464Z" fill="#1E1E1E"/>
<path d="M117.083 34.632L113.843 25.056C113.603 24.448 113.347 23.736 113.075 22.92C112.803 22.088 112.531 21.192 112.259 20.232C112.019 21.208 111.763 22.112 111.491 22.944C111.219 23.776 110.963 24.496 110.723 25.104L107.507 34.632H117.083ZM129.971 48H123.683C122.979 48 122.411 47.84 121.979 47.52C121.547 47.184 121.219 46.76 120.995 46.248L118.931 40.152H105.635L103.571 46.248C103.395 46.696 103.075 47.104 102.611 47.472C102.163 47.824 101.603 48 100.931 48H94.5947L108.131 13.032H116.435L129.971 48ZM146.552 41.88C147.624 41.88 148.496 41.744 149.168 41.472C149.856 41.2 150.392 40.848 150.776 40.416C151.16 39.984 151.424 39.496 151.568 38.952C151.712 38.408 151.784 37.856 151.784 37.296C151.784 36.656 151.696 36.08 151.52 35.568C151.36 35.056 151.072 34.624 150.656 34.272C150.256 33.92 149.72 33.648 149.048 33.456C148.376 33.264 147.528 33.168 146.504 33.168H140.84V41.88H146.552ZM140.84 19.104V27.744H145.064C145.96 27.744 146.768 27.68 147.488 27.552C148.208 27.424 148.816 27.2 149.312 26.88C149.824 26.56 150.208 26.12 150.464 25.56C150.736 25 150.872 24.296 150.872 23.448C150.872 22.616 150.768 21.928 150.56 21.384C150.352 20.824 150.032 20.376 149.6 20.04C149.168 19.704 148.616 19.464 147.944 19.32C147.288 19.176 146.504 19.104 145.592 19.104H140.84ZM145.592 13.032C148.008 13.032 150.064 13.256 151.76 13.704C153.456 14.152 154.84 14.784 155.912 15.6C156.984 16.416 157.76 17.408 158.24 18.576C158.736 19.744 158.984 21.048 158.984 22.488C158.984 23.272 158.872 24.032 158.648 24.768C158.424 25.488 158.072 26.168 157.592 26.808C157.112 27.432 156.496 28.008 155.744 28.536C154.992 29.064 154.088 29.52 153.032 29.904C155.336 30.464 157.04 31.368 158.144 32.616C159.248 33.864 159.8 35.48 159.8 37.464C159.8 38.952 159.512 40.336 158.936 41.616C158.36 42.896 157.512 44.016 156.392 44.976C155.288 45.92 153.92 46.664 152.288 47.208C150.656 47.736 148.792 48 146.696 48H132.728V13.032H145.592ZM199.204 30.504C199.204 33.032 198.764 35.384 197.884 37.56C197.02 39.736 195.796 41.632 194.212 43.248C192.628 44.848 190.716 46.104 188.476 47.016C186.252 47.928 183.78 48.384 181.06 48.384C178.34 48.384 175.86 47.928 173.62 47.016C171.38 46.104 169.46 44.848 167.86 43.248C166.276 41.632 165.044 39.736 164.164 37.56C163.3 35.384 162.868 33.032 162.868 30.504C162.868 27.976 163.3 25.624 164.164 23.448C165.044 21.272 166.276 19.384 167.86 17.784C169.46 16.184 171.38 14.928 173.62 14.016C175.86 13.104 178.34 12.648 181.06 12.648C183.78 12.648 186.252 13.112 188.476 14.04C190.716 14.952 192.628 16.208 194.212 17.808C195.796 19.408 197.02 21.296 197.884 23.472C198.764 25.648 199.204 27.992 199.204 30.504ZM190.9 30.504C190.9 28.776 190.676 27.224 190.228 25.848C189.78 24.456 189.132 23.28 188.284 22.32C187.452 21.36 186.428 20.624 185.212 20.112C183.996 19.6 182.612 19.344 181.06 19.344C179.492 19.344 178.092 19.6 176.86 20.112C175.644 20.624 174.612 21.36 173.764 22.32C172.932 23.28 172.292 24.456 171.844 25.848C171.396 27.224 171.172 28.776 171.172 30.504C171.172 32.248 171.396 33.816 171.844 35.208C172.292 36.584 172.932 37.752 173.764 38.712C174.612 39.672 175.644 40.408 176.86 40.92C178.092 41.416 179.492 41.664 181.06 41.664C182.612 41.664 183.996 41.416 185.212 40.92C186.428 40.408 187.452 39.672 188.284 38.712C189.132 37.752 189.78 36.584 190.228 35.208C190.676 33.816 190.9 32.248 190.9 30.504ZM218.57 41.592C219.658 41.592 220.626 41.416 221.474 41.064C222.338 40.696 223.066 40.176 223.658 39.504C224.25 38.832 224.698 38.016 225.002 37.056C225.322 36.08 225.482 34.976 225.482 33.744V13.032H233.594V33.744C233.594 35.888 233.242 37.856 232.538 39.648C231.85 41.44 230.858 42.984 229.562 44.28C228.266 45.576 226.69 46.584 224.834 47.304C222.978 48.024 220.89 48.384 218.57 48.384C216.234 48.384 214.138 48.024 212.282 47.304C210.426 46.584 208.85 45.576 207.554 44.28C206.258 42.984 205.266 41.44 204.578 39.648C203.89 37.856 203.546 35.888 203.546 33.744V13.032H211.658V33.72C211.658 34.952 211.81 36.056 212.114 37.032C212.434 37.992 212.89 38.816 213.482 39.504C214.074 40.176 214.794 40.696 215.642 41.064C216.506 41.416 217.482 41.592 218.57 41.592ZM265.059 19.464H255.219V48H247.107V19.464H237.267V13.032H265.059V19.464Z" fill="#F0D402"/>
<rect x="174" y="105" width="8" height="93" fill="#F0D402"/>
</svg>
