<svg width="361" height="122" viewBox="0 0 361 122" fill="none" xmlns="http://www.w3.org/2000/svg">
<path d="M26.952 38.952C27.144 38.952 27.336 38.992 27.528 39.072C27.72 39.136 27.904 39.256 28.08 39.432L31.296 42.816C29.888 44.656 28.12 46.048 25.992 46.992C23.88 47.92 21.376 48.384 18.48 48.384C15.824 48.384 13.44 47.936 11.328 47.04C9.232 46.128 7.448 44.88 5.976 43.296C4.52 41.696 3.4 39.808 2.616 37.632C1.832 35.44 1.44 33.064 1.44 30.504C1.44 27.896 1.864 25.504 2.712 23.328C3.56 21.136 4.752 19.248 6.288 17.664C7.824 16.08 9.664 14.848 11.808 13.968C13.952 13.088 16.312 12.648 18.888 12.648C20.2 12.648 21.432 12.768 22.584 13.008C23.752 13.232 24.84 13.552 25.848 13.968C26.856 14.368 27.784 14.856 28.632 15.432C29.48 16.008 30.232 16.632 30.888 17.304L28.152 20.976C27.976 21.2 27.768 21.408 27.528 21.6C27.288 21.776 26.952 21.864 26.52 21.864C26.232 21.864 25.96 21.8 25.704 21.672C25.448 21.544 25.176 21.392 24.888 21.216C24.6 21.024 24.28 20.824 23.928 20.616C23.592 20.392 23.184 20.192 22.704 20.016C22.24 19.824 21.688 19.664 21.048 19.536C20.424 19.408 19.688 19.344 18.84 19.344C17.496 19.344 16.264 19.592 15.144 20.088C14.04 20.584 13.08 21.312 12.264 22.272C11.464 23.216 10.84 24.384 10.392 25.776C9.96 27.152 9.744 28.728 9.744 30.504C9.744 32.296 9.984 33.888 10.464 35.28C10.96 36.672 11.624 37.848 12.456 38.808C13.304 39.752 14.288 40.472 15.408 40.968C16.528 41.464 17.728 41.712 19.008 41.712C19.744 41.712 20.416 41.68 21.024 41.616C21.632 41.536 22.2 41.416 22.728 41.256C23.256 41.08 23.752 40.856 24.216 40.584C24.68 40.296 25.152 39.936 25.632 39.504C25.824 39.344 26.032 39.216 26.256 39.12C26.48 39.008 26.712 38.952 26.952 38.952ZM68.3603 30.504C68.3603 33.032 67.9203 35.384 67.0403 37.56C66.1763 39.736 64.9523 41.632 63.3683 43.248C61.7843 44.848 59.8723 46.104 57.6323 47.016C55.4083 47.928 52.9363 48.384 50.2163 48.384C47.4963 48.384 45.0163 47.928 42.7762 47.016C40.5363 46.104 38.6163 44.848 37.0163 43.248C35.4323 41.632 34.2003 39.736 33.3203 37.56C32.4563 35.384 32.0243 33.032 32.0243 30.504C32.0243 27.976 32.4563 25.624 33.3203 23.448C34.2003 21.272 35.4323 19.384 37.0163 17.784C38.6163 16.184 40.5363 14.928 42.7762 14.016C45.0163 13.104 47.4963 12.648 50.2163 12.648C52.9363 12.648 55.4083 13.112 57.6323 14.04C59.8723 14.952 61.7843 16.208 63.3683 17.808C64.9523 19.408 66.1763 21.296 67.0403 23.472C67.9203 25.648 68.3603 27.992 68.3603 30.504ZM60.0563 30.504C60.0563 28.776 59.8323 27.224 59.3843 25.848C58.9363 24.456 58.2883 23.28 57.4403 22.32C56.6083 21.36 55.5843 20.624 54.3683 20.112C53.1523 19.6 51.7683 19.344 50.2163 19.344C48.6483 19.344 47.2483 19.6 46.0163 20.112C44.8003 20.624 43.7683 21.36 42.9203 22.32C42.0883 23.28 41.4483 24.456 41.0003 25.848C40.5523 27.224 40.3283 28.776 40.3283 30.504C40.3283 32.248 40.5523 33.816 41.0003 35.208C41.4483 36.584 42.0883 37.752 42.9203 38.712C43.7683 39.672 44.8003 40.408 46.0163 40.92C47.2483 41.416 48.6483 41.664 50.2163 41.664C51.7683 41.664 53.1523 41.416 54.3683 40.92C55.5843 40.408 56.6083 39.672 57.4403 38.712C58.2883 37.752 58.9363 36.584 59.3843 35.208C59.8323 33.816 60.0563 32.248 60.0563 30.504ZM103.662 13.032V48H99.438C98.814 48 98.286 47.904 97.854 47.712C97.438 47.504 97.022 47.152 96.606 46.656L80.118 25.8C80.182 26.424 80.222 27.032 80.238 27.624C80.27 28.2 80.286 28.744 80.286 29.256V48H73.134V13.032H77.406C77.758 13.032 78.054 13.048 78.294 13.08C78.534 13.112 78.75 13.176 78.942 13.272C79.134 13.352 79.318 13.472 79.494 13.632C79.67 13.792 79.87 14.008 80.094 14.28L96.726 35.28C96.646 34.608 96.59 33.96 96.558 33.336C96.526 32.696 96.51 32.096 96.51 31.536V13.032H103.662ZM135.575 19.464H125.735V48H117.623V19.464H107.783V13.032H135.575V19.464ZM154.755 34.632L151.515 25.056C151.275 24.448 151.019 23.736 150.747 22.92C150.475 22.088 150.203 21.192 149.931 20.232C149.691 21.208 149.435 22.112 149.163 22.944C148.891 23.776 148.635 24.496 148.395 25.104L145.179 34.632H154.755ZM167.643 48H161.355C160.651 48 160.083 47.84 159.651 47.52C159.219 47.184 158.891 46.76 158.667 46.248L156.603 40.152H143.307L141.243 46.248C141.067 46.696 140.747 47.104 140.283 47.472C139.835 47.824 139.275 48 138.603 48H132.267L145.803 13.032H154.107L167.643 48ZM192.796 38.952C192.988 38.952 193.18 38.992 193.372 39.072C193.564 39.136 193.748 39.256 193.924 39.432L197.14 42.816C195.732 44.656 193.964 46.048 191.836 46.992C189.724 47.92 187.22 48.384 184.324 48.384C181.668 48.384 179.284 47.936 177.172 47.04C175.076 46.128 173.292 44.88 171.82 43.296C170.364 41.696 169.244 39.808 168.46 37.632C167.676 35.44 167.284 33.064 167.284 30.504C167.284 27.896 167.708 25.504 168.556 23.328C169.404 21.136 170.596 19.248 172.132 17.664C173.668 16.08 175.508 14.848 177.652 13.968C179.796 13.088 182.156 12.648 184.732 12.648C186.044 12.648 187.276 12.768 188.428 13.008C189.596 13.232 190.684 13.552 191.692 13.968C192.7 14.368 193.628 14.856 194.476 15.432C195.324 16.008 196.076 16.632 196.732 17.304L193.996 20.976C193.82 21.2 193.612 21.408 193.372 21.6C193.132 21.776 192.796 21.864 192.364 21.864C192.076 21.864 191.804 21.8 191.548 21.672C191.292 21.544 191.02 21.392 190.732 21.216C190.444 21.024 190.124 20.824 189.772 20.616C189.436 20.392 189.028 20.192 188.548 20.016C188.084 19.824 187.532 19.664 186.892 19.536C186.268 19.408 185.532 19.344 184.684 19.344C183.34 19.344 182.108 19.592 180.988 20.088C179.884 20.584 178.924 21.312 178.108 22.272C177.308 23.216 176.684 24.384 176.236 25.776C175.804 27.152 175.588 28.728 175.588 30.504C175.588 32.296 175.828 33.888 176.308 35.28C176.804 36.672 177.468 37.848 178.3 38.808C179.148 39.752 180.132 40.472 181.252 40.968C182.372 41.464 183.572 41.712 184.852 41.712C185.588 41.712 186.26 41.68 186.868 41.616C187.476 41.536 188.044 41.416 188.572 41.256C189.1 41.08 189.596 40.856 190.06 40.584C190.524 40.296 190.996 39.936 191.476 39.504C191.668 39.344 191.876 39.216 192.1 39.12C192.324 39.008 192.556 38.952 192.796 38.952ZM225.809 19.464H215.969V48H207.857V19.464H198.017V13.032H225.809V19.464Z" fill="#1E1E1E"/>
<path d="M254.179 41.592C255.267 41.592 256.235 41.416 257.083 41.064C257.947 40.696 258.675 40.176 259.267 39.504C259.859 38.832 260.307 38.016 260.611 37.056C260.931 36.08 261.091 34.976 261.091 33.744V13.032H269.203V33.744C269.203 35.888 268.851 37.856 268.147 39.648C267.459 41.44 266.467 42.984 265.171 44.28C263.875 45.576 262.299 46.584 260.443 47.304C258.587 48.024 256.499 48.384 254.179 48.384C251.843 48.384 249.747 48.024 247.891 47.304C246.035 46.584 244.459 45.576 243.163 44.28C241.867 42.984 240.875 41.44 240.187 39.648C239.499 37.856 239.155 35.888 239.155 33.744V13.032H247.267V33.72C247.267 34.952 247.419 36.056 247.723 37.032C248.043 37.992 248.499 38.816 249.091 39.504C249.683 40.176 250.403 40.696 251.251 41.064C252.115 41.416 253.091 41.592 254.179 41.592ZM294.86 20.136C294.62 20.52 294.364 20.808 294.092 21C293.836 21.192 293.5 21.288 293.084 21.288C292.716 21.288 292.316 21.176 291.884 20.952C291.468 20.712 290.988 20.448 290.444 20.16C289.916 19.872 289.308 19.616 288.62 19.392C287.932 19.152 287.148 19.032 286.268 19.032C284.748 19.032 283.612 19.36 282.86 20.016C282.124 20.656 281.756 21.528 281.756 22.632C281.756 23.336 281.98 23.92 282.428 24.384C282.876 24.848 283.46 25.248 284.18 25.584C284.916 25.92 285.748 26.232 286.676 26.52C287.62 26.792 288.58 27.104 289.556 27.456C290.532 27.792 291.484 28.192 292.412 28.656C293.356 29.12 294.188 29.712 294.908 30.432C295.644 31.152 296.236 32.032 296.684 33.072C297.132 34.096 297.356 35.336 297.356 36.792C297.356 38.408 297.076 39.92 296.516 41.328C295.956 42.736 295.14 43.968 294.068 45.024C293.012 46.064 291.7 46.888 290.132 47.496C288.58 48.088 286.812 48.384 284.828 48.384C283.74 48.384 282.628 48.272 281.492 48.048C280.372 47.824 279.284 47.512 278.228 47.112C277.172 46.696 276.18 46.208 275.252 45.648C274.324 45.088 273.516 44.464 272.828 43.776L275.228 39.984C275.42 39.712 275.668 39.488 275.972 39.312C276.292 39.12 276.636 39.024 277.004 39.024C277.484 39.024 277.964 39.176 278.444 39.48C278.94 39.784 279.492 40.12 280.1 40.488C280.724 40.856 281.436 41.192 282.236 41.496C283.036 41.8 283.98 41.952 285.068 41.952C286.54 41.952 287.684 41.632 288.5 40.992C289.316 40.336 289.724 39.304 289.724 37.896C289.724 37.08 289.5 36.416 289.052 35.904C288.604 35.392 288.012 34.968 287.276 34.632C286.556 34.296 285.732 34 284.804 33.744C283.876 33.488 282.924 33.208 281.948 32.904C280.972 32.584 280.02 32.2 279.092 31.752C278.164 31.288 277.332 30.688 276.596 29.952C275.876 29.2 275.292 28.272 274.844 27.168C274.396 26.048 274.172 24.672 274.172 23.04C274.172 21.728 274.436 20.448 274.964 19.2C275.492 17.952 276.268 16.84 277.292 15.864C278.316 14.888 279.572 14.112 281.06 13.536C282.548 12.944 284.252 12.648 286.172 12.648C287.244 12.648 288.284 12.736 289.292 12.912C290.316 13.072 291.284 13.32 292.196 13.656C293.108 13.976 293.956 14.368 294.74 14.832C295.54 15.28 296.252 15.792 296.876 16.368L294.86 20.136Z" fill="#F0D402"/>
<rect x="46" y="29" width="8" height="93" fill="#F0D402"/>
</svg>
