<svg width="152" height="53" viewBox="0 0 152 53" fill="none" xmlns="http://www.w3.org/2000/svg">
<path d="M147.391 5.2461C144.199 1.91223 139.185 0 133.637 0C128.088 0 123.076 1.91223 119.882 5.24277C115.27 10.0383 115.27 15.8952 115.27 22.6781V53H124.201V22.6781C124.201 16.7995 124.201 12.915 126.618 10.4388C128.215 8.7919 130.707 7.88417 133.637 7.88417C136.567 7.88417 139.058 8.7919 140.659 10.4421C143.073 12.9134 143.073 16.7979 143.073 22.6764V52.9983H152.004V22.6781C152.004 15.8952 152.004 10.0383 147.393 5.24444L147.391 5.2461Z" fill="#FFE202"/>
<path d="M133.635 22.336C131.138 22.336 129.115 24.1998 129.115 26.5008C129.115 28.8018 131.14 30.6657 133.635 30.6657C136.13 30.6657 138.155 28.8018 138.155 26.5008C138.155 24.1998 136.13 22.336 133.635 22.336Z" fill="#FFE202"/>
<path d="M84.0843 1.13465C61.1741 1.13465 57.634 15.161 57.634 23.1336H66.4454C66.4454 17.0632 71.4124 8.91704 84.0825 8.91704H95.5738V1.13465H84.0825H84.0843Z" fill="#FFE202"/>
<path d="M81.0675 27.0682C81.0675 24.7972 79.0702 22.9567 76.6057 22.9567C74.1412 22.9567 72.1439 24.7972 72.1439 27.0682C72.1439 29.3391 74.1412 31.1779 76.6057 31.1779C79.0702 31.1779 81.0675 29.3375 81.0675 27.0682Z" fill="#FFE202"/>
<path d="M69.1272 45.2193H57.6359V53.0017H69.1272C92.0374 53.0017 95.5775 35.0408 95.5775 27.0682H86.7661C86.7661 33.1386 81.7991 45.2193 69.129 45.2193H69.1272Z" fill="#FFE202"/>
<path d="M36.2431 17.8758C36.2431 12.8349 34.1987 8.2813 30.6332 5.38126C25.5032 1.19139 19.2361 1.19139 11.9802 1.19139H0V9.30416H11.9802C18.2691 9.30416 22.4249 9.30416 25.0741 11.5C26.836 12.9501 27.8084 15.216 27.8084 17.8758C27.8084 20.5356 26.8378 22.8015 25.0705 24.2549C22.4249 26.4474 18.2691 26.4474 11.9802 26.4474H8.80409V14.1665H0V44.8889V53.0017H11.9802C19.2361 53.0017 25.5032 53.0017 30.6314 48.8135C34.1987 45.9134 36.2431 41.3581 36.2431 36.3173C36.2431 32.8933 35.2779 29.7112 33.5486 27.1082C35.2761 24.4968 36.2431 21.3065 36.2431 17.8775V17.8758ZM25.0705 42.6947C22.4249 44.8872 18.2691 44.8872 11.9802 44.8872H8.80409V34.5602H11.9802C17.6245 34.5602 22.6603 34.5335 27.037 32.5612C27.535 33.6708 27.8066 34.9356 27.8066 36.3156C27.8066 38.977 26.836 41.2413 25.0687 42.6947H25.0705Z" fill="#FFE202"/>
<path d="M21.2587 17.8758C21.2587 15.6082 19.2632 13.7694 16.8024 13.7694C14.3415 13.7694 12.346 15.6082 12.346 17.8758C12.346 20.1434 14.3415 21.9822 16.8024 21.9822C19.2632 21.9822 21.2587 20.1434 21.2587 17.8758Z" fill="#FFE202"/>
</svg>
