<svg width="460" height="192" viewBox="0 0 460 192" fill="none" xmlns="http://www.w3.org/2000/svg">
<path d="M15.72 30.192C17.832 30.192 19.352 29.688 20.28 28.68C21.208 27.672 21.672 26.264 21.672 24.456C21.672 23.656 21.552 22.928 21.312 22.272C21.072 21.616 20.704 21.056 20.208 20.592C19.728 20.112 19.112 19.744 18.36 19.488C17.624 19.232 16.744 19.104 15.72 19.104H11.496V30.192H15.72ZM15.72 13.032C18.184 13.032 20.296 13.328 22.056 13.92C23.832 14.496 25.288 15.296 26.424 16.32C27.576 17.344 28.424 18.552 28.968 19.944C29.512 21.336 29.784 22.84 29.784 24.456C29.784 26.2 29.504 27.8 28.944 29.256C28.384 30.712 27.528 31.96 26.376 33C25.224 34.04 23.76 34.856 21.984 35.448C20.224 36.024 18.136 36.312 15.72 36.312H11.496V48H3.384V13.032H15.72ZM45.2756 29.472C46.3796 29.472 47.3156 29.336 48.0836 29.064C48.8676 28.776 49.5076 28.384 50.0036 27.888C50.4996 27.392 50.8596 26.816 51.0836 26.16C51.3076 25.488 51.4196 24.768 51.4196 24C51.4196 22.464 50.9156 21.264 49.9076 20.4C48.9156 19.536 47.3716 19.104 45.2756 19.104H42.0116V29.472H45.2756ZM62.5076 48H55.1636C53.8036 48 52.8276 47.488 52.2356 46.464L46.4276 36.312C46.1556 35.88 45.8516 35.568 45.5156 35.376C45.1796 35.168 44.6996 35.064 44.0756 35.064H42.0116V48H33.8996V13.032H45.2756C47.8036 13.032 49.9556 13.296 51.7316 13.824C53.5236 14.336 54.9796 15.056 56.0996 15.984C57.2356 16.912 58.0596 18.008 58.5716 19.272C59.0836 20.536 59.3396 21.912 59.3396 23.4C59.3396 24.536 59.1876 25.608 58.8836 26.616C58.5796 27.624 58.1316 28.56 57.5396 29.424C56.9476 30.272 56.2116 31.032 55.3316 31.704C54.4676 32.376 53.4676 32.928 52.3316 33.36C52.8596 33.632 53.3556 33.976 53.8196 34.392C54.2836 34.792 54.6996 35.272 55.0676 35.832L62.5076 48ZM73.6065 48H65.4465V13.032H73.6065V48ZM103.921 38.952C104.113 38.952 104.305 38.992 104.497 39.072C104.689 39.136 104.873 39.256 105.049 39.432L108.265 42.816C106.857 44.656 105.089 46.048 102.961 46.992C100.849 47.92 98.3448 48.384 95.4488 48.384C92.7928 48.384 90.4088 47.936 88.2968 47.04C86.2008 46.128 84.4168 44.88 82.9448 43.296C81.4888 41.696 80.3688 39.808 79.5848 37.632C78.8008 35.44 78.4088 33.064 78.4088 30.504C78.4088 27.896 78.8328 25.504 79.6808 23.328C80.5288 21.136 81.7208 19.248 83.2568 17.664C84.7928 16.08 86.6328 14.848 88.7768 13.968C90.9208 13.088 93.2808 12.648 95.8568 12.648C97.1688 12.648 98.4008 12.768 99.5528 13.008C100.721 13.232 101.809 13.552 102.817 13.968C103.825 14.368 104.753 14.856 105.601 15.432C106.449 16.008 107.201 16.632 107.857 17.304L105.121 20.976C104.945 21.2 104.737 21.408 104.497 21.6C104.257 21.776 103.921 21.864 103.489 21.864C103.201 21.864 102.929 21.8 102.673 21.672C102.417 21.544 102.145 21.392 101.857 21.216C101.569 21.024 101.249 20.824 100.897 20.616C100.561 20.392 100.153 20.192 99.6728 20.016C99.2088 19.824 98.6568 19.664 98.0168 19.536C97.3928 19.408 96.6568 19.344 95.8088 19.344C94.4648 19.344 93.2328 19.592 92.1128 20.088C91.0088 20.584 90.0488 21.312 89.2328 22.272C88.4328 23.216 87.8088 24.384 87.3608 25.776C86.9288 27.152 86.7128 28.728 86.7128 30.504C86.7128 32.296 86.9528 33.888 87.4328 35.28C87.9288 36.672 88.5928 37.848 89.4248 38.808C90.2728 39.752 91.2568 40.472 92.3768 40.968C93.4968 41.464 94.6968 41.712 95.9768 41.712C96.7128 41.712 97.3848 41.68 97.9928 41.616C98.6008 41.536 99.1688 41.416 99.6968 41.256C100.225 41.08 100.721 40.856 101.185 40.584C101.649 40.296 102.121 39.936 102.601 39.504C102.793 39.344 103.001 39.216 103.225 39.12C103.449 39.008 103.681 38.952 103.921 38.952ZM119.966 19.272V27.432H130.958V33.432H119.966V41.76H134.318V48H111.806V13.032H134.318V19.272H119.966ZM158.642 20.136C158.402 20.52 158.146 20.808 157.874 21C157.618 21.192 157.282 21.288 156.866 21.288C156.498 21.288 156.098 21.176 155.666 20.952C155.25 20.712 154.77 20.448 154.226 20.16C153.698 19.872 153.09 19.616 152.402 19.392C151.714 19.152 150.93 19.032 150.049 19.032C148.53 19.032 147.394 19.36 146.642 20.016C145.906 20.656 145.538 21.528 145.538 22.632C145.538 23.336 145.762 23.92 146.21 24.384C146.658 24.848 147.242 25.248 147.962 25.584C148.698 25.92 149.53 26.232 150.458 26.52C151.402 26.792 152.362 27.104 153.338 27.456C154.314 27.792 155.266 28.192 156.194 28.656C157.138 29.12 157.97 29.712 158.69 30.432C159.426 31.152 160.018 32.032 160.466 33.072C160.914 34.096 161.138 35.336 161.138 36.792C161.138 38.408 160.858 39.92 160.298 41.328C159.738 42.736 158.922 43.968 157.85 45.024C156.794 46.064 155.482 46.888 153.914 47.496C152.362 48.088 150.594 48.384 148.609 48.384C147.522 48.384 146.41 48.272 145.274 48.048C144.154 47.824 143.066 47.512 142.01 47.112C140.954 46.696 139.962 46.208 139.034 45.648C138.106 45.088 137.298 44.464 136.61 43.776L139.01 39.984C139.202 39.712 139.45 39.488 139.754 39.312C140.074 39.12 140.418 39.024 140.786 39.024C141.266 39.024 141.746 39.176 142.226 39.48C142.722 39.784 143.274 40.12 143.882 40.488C144.506 40.856 145.218 41.192 146.018 41.496C146.818 41.8 147.762 41.952 148.85 41.952C150.322 41.952 151.466 41.632 152.282 40.992C153.098 40.336 153.506 39.304 153.506 37.896C153.506 37.08 153.282 36.416 152.834 35.904C152.386 35.392 151.794 34.968 151.058 34.632C150.338 34.296 149.514 34 148.586 33.744C147.658 33.488 146.706 33.208 145.73 32.904C144.754 32.584 143.802 32.2 142.874 31.752C141.946 31.288 141.114 30.688 140.378 29.952C139.658 29.2 139.074 28.272 138.626 27.168C138.178 26.048 137.954 24.672 137.954 23.04C137.954 21.728 138.218 20.448 138.746 19.2C139.274 17.952 140.05 16.84 141.074 15.864C142.098 14.888 143.354 14.112 144.842 13.536C146.33 12.944 148.034 12.648 149.954 12.648C151.026 12.648 152.066 12.736 153.074 12.912C154.098 13.072 155.066 13.32 155.978 13.656C156.89 13.976 157.738 14.368 158.522 14.832C159.322 15.28 160.034 15.792 160.658 16.368L158.642 20.136ZM42.696 71.032V106H35.544V85.888C35.544 85.424 35.552 84.92 35.568 84.376C35.6 83.832 35.648 83.28 35.712 82.72L26.424 100.696C26.136 101.256 25.744 101.68 25.248 101.968C24.768 102.256 24.216 102.4 23.592 102.4H22.488C21.864 102.4 21.304 102.256 20.808 101.968C20.328 101.68 19.944 101.256 19.656 100.696L10.368 82.672C10.416 83.248 10.456 83.816 10.488 84.376C10.52 84.92 10.536 85.424 10.536 85.888V106H3.384V71.032H9.576C9.928 71.032 10.232 71.04 10.488 71.056C10.76 71.072 11 71.12 11.208 71.2C11.416 71.28 11.6 71.408 11.76 71.584C11.936 71.744 12.104 71.976 12.264 72.28L21.264 90.016C21.584 90.624 21.888 91.256 22.176 91.912C22.48 92.568 22.768 93.24 23.04 93.928C23.312 93.224 23.592 92.536 23.88 91.864C24.184 91.192 24.504 90.552 24.84 89.944L33.816 72.28C33.976 71.976 34.136 71.744 34.296 71.584C34.472 71.408 34.664 71.28 34.872 71.2C35.08 71.12 35.312 71.072 35.568 71.056C35.84 71.04 36.152 71.032 36.504 71.032H42.696ZM67.9421 92.632L64.7021 83.056C64.4621 82.448 64.2061 81.736 63.9341 80.92C63.6621 80.088 63.3901 79.192 63.1181 78.232C62.8781 79.208 62.6221 80.112 62.3501 80.944C62.0781 81.776 61.8221 82.496 61.5821 83.104L58.3661 92.632H67.9421ZM80.8301 106H74.5421C73.8381 106 73.2701 105.84 72.8381 105.52C72.4061 105.184 72.0781 104.76 71.8541 104.248L69.7901 98.152H56.4941L54.4301 104.248C54.2541 104.696 53.9341 105.104 53.4701 105.472C53.0221 105.824 52.4621 106 51.7901 106H45.4541L58.9901 71.032H67.2941L80.8301 106ZM91.6991 85.192H92.9951C94.1951 85.192 95.0591 84.816 95.5871 84.064L103.459 72.64C103.923 72.032 104.419 71.616 104.947 71.392C105.491 71.152 106.163 71.032 106.963 71.032H114.019L103.651 85.168C102.915 86.144 102.123 86.848 101.275 87.28C101.883 87.504 102.435 87.816 102.931 88.216C103.427 88.616 103.891 89.136 104.323 89.776L114.883 106H107.635C107.171 106 106.771 105.968 106.435 105.904C106.115 105.84 105.835 105.744 105.595 105.616C105.355 105.488 105.147 105.336 104.971 105.16C104.795 104.968 104.627 104.752 104.467 104.512L96.5471 92.344C96.2591 91.896 95.8911 91.584 95.4431 91.408C95.0111 91.216 94.4191 91.12 93.6671 91.12H91.6991V106H83.5871V71.032H91.6991V85.192ZM125.638 77.272V85.432H136.63V91.432H125.638V99.76H139.99V106H117.478V71.032H139.99V77.272H125.638ZM170.839 92.704V106H162.727V92.704L150.055 71.032H157.207C157.911 71.032 158.463 71.2 158.863 71.536C159.279 71.856 159.623 72.272 159.895 72.784L164.839 82.96C165.255 83.76 165.631 84.512 165.967 85.216C166.303 85.904 166.599 86.584 166.855 87.256C167.095 86.568 167.367 85.88 167.671 85.192C167.991 84.488 168.359 83.744 168.775 82.96L173.671 72.784C173.783 72.576 173.919 72.368 174.079 72.16C174.239 71.952 174.423 71.768 174.631 71.608C174.855 71.432 175.103 71.296 175.375 71.2C175.663 71.088 175.975 71.032 176.311 71.032H183.511L170.839 92.704ZM218.36 88.504C218.36 91.032 217.92 93.384 217.04 95.56C216.176 97.736 214.952 99.632 213.368 101.248C211.784 102.848 209.872 104.104 207.632 105.016C205.408 105.928 202.936 106.384 200.216 106.384C197.496 106.384 195.016 105.928 192.776 105.016C190.536 104.104 188.616 102.848 187.016 101.248C185.432 99.632 184.2 97.736 183.32 95.56C182.456 93.384 182.024 91.032 182.024 88.504C182.024 85.976 182.456 83.624 183.32 81.448C184.2 79.272 185.432 77.384 187.016 75.784C188.616 74.184 190.536 72.928 192.776 72.016C195.016 71.104 197.496 70.648 200.216 70.648C202.936 70.648 205.408 71.112 207.632 72.04C209.872 72.952 211.784 74.208 213.368 75.808C214.952 77.408 216.176 79.296 217.04 81.472C217.92 83.648 218.36 85.992 218.36 88.504ZM210.056 88.504C210.056 86.776 209.832 85.224 209.384 83.848C208.936 82.456 208.288 81.28 207.44 80.32C206.608 79.36 205.584 78.624 204.368 78.112C203.152 77.6 201.768 77.344 200.216 77.344C198.648 77.344 197.248 77.6 196.016 78.112C194.8 78.624 193.768 79.36 192.92 80.32C192.088 81.28 191.448 82.456 191 83.848C190.552 85.224 190.328 86.776 190.328 88.504C190.328 90.248 190.552 91.816 191 93.208C191.448 94.584 192.088 95.752 192.92 96.712C193.768 97.672 194.8 98.408 196.016 98.92C197.248 99.416 198.648 99.664 200.216 99.664C201.768 99.664 203.152 99.416 204.368 98.92C205.584 98.408 206.608 97.672 207.44 96.712C208.288 95.752 208.936 94.584 209.384 93.208C209.832 91.816 210.056 90.248 210.056 88.504ZM237.726 99.592C238.814 99.592 239.782 99.416 240.63 99.064C241.494 98.696 242.222 98.176 242.814 97.504C243.406 96.832 243.854 96.016 244.158 95.056C244.478 94.08 244.638 92.976 244.638 91.744V71.032H252.75V91.744C252.75 93.888 252.398 95.856 251.694 97.648C251.006 99.44 250.014 100.984 248.718 102.28C247.422 103.576 245.846 104.584 243.99 105.304C242.134 106.024 240.046 106.384 237.726 106.384C235.39 106.384 233.294 106.024 231.438 105.304C229.582 104.584 228.006 103.576 226.71 102.28C225.414 100.984 224.422 99.44 223.734 97.648C223.046 95.856 222.702 93.888 222.702 91.744V71.032H230.814V91.72C230.814 92.952 230.966 94.056 231.27 95.032C231.59 95.992 232.046 96.816 232.638 97.504C233.23 98.176 233.95 98.696 234.798 99.064C235.662 99.416 236.638 99.592 237.726 99.592Z" fill="#1E1E1E"/>
<path d="M202.137 19.464H192.297V48H184.185V19.464H174.345V13.032H202.137V19.464ZM236.787 13.032V48H228.627V33.216H214.419V48H206.259V13.032H214.419V27.648H228.627V13.032H236.787ZM262.052 34.632L258.812 25.056C258.572 24.448 258.316 23.736 258.044 22.92C257.772 22.088 257.5 21.192 257.228 20.232C256.988 21.208 256.732 22.112 256.46 22.944C256.188 23.776 255.932 24.496 255.692 25.104L252.476 34.632H262.052ZM274.94 48H268.652C267.948 48 267.38 47.84 266.948 47.52C266.516 47.184 266.188 46.76 265.964 46.248L263.9 40.152H250.604L248.54 46.248C248.364 46.696 248.044 47.104 247.58 47.472C247.132 47.824 246.572 48 245.9 48H239.563L253.1 13.032H261.404L274.94 48ZM299.403 19.464H289.563V48H281.451V19.464H271.611V13.032H299.403V19.464ZM289.517 78.136C289.277 78.52 289.021 78.808 288.749 79C288.493 79.192 288.157 79.288 287.741 79.288C287.373 79.288 286.973 79.176 286.541 78.952C286.125 78.712 285.645 78.448 285.101 78.16C284.573 77.872 283.965 77.616 283.277 77.392C282.589 77.152 281.805 77.032 280.924 77.032C279.405 77.032 278.269 77.36 277.517 78.016C276.781 78.656 276.413 79.528 276.413 80.632C276.413 81.336 276.637 81.92 277.085 82.384C277.533 82.848 278.117 83.248 278.837 83.584C279.573 83.92 280.405 84.232 281.333 84.52C282.277 84.792 283.237 85.104 284.213 85.456C285.189 85.792 286.141 86.192 287.069 86.656C288.013 87.12 288.845 87.712 289.565 88.432C290.301 89.152 290.893 90.032 291.341 91.072C291.789 92.096 292.013 93.336 292.013 94.792C292.013 96.408 291.733 97.92 291.173 99.328C290.613 100.736 289.797 101.968 288.725 103.024C287.669 104.064 286.357 104.888 284.789 105.496C283.237 106.088 281.469 106.384 279.484 106.384C278.397 106.384 277.285 106.272 276.149 106.048C275.029 105.824 273.941 105.512 272.885 105.112C271.829 104.696 270.837 104.208 269.909 103.648C268.981 103.088 268.173 102.464 267.485 101.776L269.885 97.984C270.077 97.712 270.325 97.488 270.629 97.312C270.949 97.12 271.293 97.024 271.661 97.024C272.141 97.024 272.621 97.176 273.101 97.48C273.597 97.784 274.149 98.12 274.757 98.488C275.381 98.856 276.093 99.192 276.893 99.496C277.693 99.8 278.637 99.952 279.725 99.952C281.197 99.952 282.341 99.632 283.157 98.992C283.973 98.336 284.381 97.304 284.381 95.896C284.381 95.08 284.157 94.416 283.709 93.904C283.261 93.392 282.669 92.968 281.933 92.632C281.213 92.296 280.389 92 279.461 91.744C278.533 91.488 277.581 91.208 276.605 90.904C275.629 90.584 274.677 90.2 273.749 89.752C272.821 89.288 271.989 88.688 271.253 87.952C270.533 87.2 269.949 86.272 269.501 85.168C269.053 84.048 268.829 82.672 268.829 81.04C268.829 79.728 269.093 78.448 269.621 77.2C270.149 75.952 270.925 74.84 271.949 73.864C272.973 72.888 274.229 72.112 275.717 71.536C277.205 70.944 278.909 70.648 280.829 70.648C281.901 70.648 282.941 70.736 283.949 70.912C284.973 71.072 285.941 71.32 286.853 71.656C287.765 71.976 288.613 72.368 289.397 72.832C290.197 73.28 290.909 73.792 291.533 74.368L289.517 78.136ZM344.133 71.032L333.333 106H325.989L319.413 84.328C319.285 83.992 319.165 83.624 319.053 83.224C318.941 82.808 318.829 82.376 318.717 81.928C318.605 82.376 318.493 82.808 318.381 83.224C318.269 83.624 318.149 83.992 318.021 84.328L311.349 106H304.005L293.205 71.032H300.021C300.725 71.032 301.309 71.192 301.773 71.512C302.253 71.832 302.565 72.256 302.709 72.784L307.509 91.024C307.653 91.6 307.797 92.232 307.941 92.92C308.085 93.592 308.229 94.296 308.373 95.032C308.661 93.528 309.013 92.192 309.429 91.024L315.093 72.784C315.237 72.336 315.541 71.936 316.005 71.584C316.485 71.216 317.061 71.032 317.733 71.032H320.133C320.837 71.032 321.405 71.2 321.837 71.536C322.269 71.856 322.597 72.272 322.821 72.784L328.437 91.024C328.853 92.144 329.205 93.416 329.493 94.84C329.621 94.12 329.749 93.448 329.877 92.824C330.021 92.184 330.165 91.584 330.309 91.024L335.109 72.784C335.237 72.32 335.541 71.912 336.021 71.56C336.501 71.208 337.077 71.032 337.749 71.032H344.133ZM355.794 106H347.634V71.032H355.794V106ZM401.852 71.032V106H394.7V85.888C394.7 85.424 394.708 84.92 394.724 84.376C394.756 83.832 394.804 83.28 394.868 82.72L385.58 100.696C385.292 101.256 384.9 101.68 384.404 101.968C383.924 102.256 383.372 102.4 382.748 102.4H381.644C381.02 102.4 380.46 102.256 379.964 101.968C379.484 101.68 379.1 101.256 378.812 100.696L369.524 82.672C369.572 83.248 369.612 83.816 369.644 84.376C369.676 84.92 369.692 85.424 369.692 85.888V106H362.54V71.032H368.732C369.084 71.032 369.388 71.04 369.644 71.056C369.916 71.072 370.156 71.12 370.364 71.2C370.572 71.28 370.756 71.408 370.916 71.584C371.092 71.744 371.26 71.976 371.42 72.28L380.42 90.016C380.74 90.624 381.044 91.256 381.332 91.912C381.636 92.568 381.924 93.24 382.196 93.928C382.468 93.224 382.748 92.536 383.036 91.864C383.34 91.192 383.66 90.552 383.996 89.944L392.972 72.28C393.132 71.976 393.292 71.744 393.452 71.584C393.628 71.408 393.82 71.28 394.028 71.2C394.236 71.12 394.468 71.072 394.724 71.056C394.996 71.04 395.308 71.032 395.66 71.032H401.852Z" fill="#F0D402"/>
<rect x="163" y="99" width="8" height="93" fill="#F0D402"/>
</svg>
