<svg width="525" height="97" viewBox="0 0 525 97" fill="none" xmlns="http://www.w3.org/2000/svg">
<path d="M22.344 19.608C22.152 19.944 21.944 20.192 21.72 20.352C21.512 20.496 21.248 20.568 20.928 20.568C20.592 20.568 20.224 20.448 19.824 20.208C19.44 19.952 18.976 19.672 18.432 19.368C17.888 19.064 17.248 18.792 16.512 18.552C15.792 18.296 14.936 18.168 13.944 18.168C13.048 18.168 12.264 18.28 11.592 18.504C10.92 18.712 10.352 19.008 9.888 19.392C9.44 19.776 9.104 20.24 8.88 20.784C8.656 21.312 8.544 21.896 8.544 22.536C8.544 23.352 8.768 24.032 9.216 24.576C9.68 25.12 10.288 25.584 11.04 25.968C11.792 26.352 12.648 26.696 13.608 27C14.568 27.304 15.552 27.632 16.56 27.984C17.568 28.32 18.552 28.72 19.512 29.184C20.472 29.632 21.328 30.208 22.08 30.912C22.832 31.6 23.432 32.448 23.88 33.456C24.344 34.464 24.576 35.688 24.576 37.128C24.576 38.696 24.304 40.168 23.76 41.544C23.232 42.904 22.448 44.096 21.408 45.12C20.384 46.128 19.128 46.928 17.64 47.52C16.152 48.096 14.448 48.384 12.528 48.384C11.424 48.384 10.336 48.272 9.264 48.048C8.192 47.84 7.16 47.536 6.168 47.136C5.192 46.736 4.272 46.256 3.408 45.696C2.544 45.136 1.776 44.512 1.104 43.824L3 40.728C3.16 40.504 3.368 40.32 3.624 40.176C3.88 40.016 4.152 39.936 4.44 39.936C4.84 39.936 5.272 40.104 5.736 40.44C6.2 40.76 6.752 41.12 7.392 41.52C8.032 41.92 8.776 42.288 9.624 42.624C10.488 42.944 11.52 43.104 12.72 43.104C14.56 43.104 15.984 42.672 16.992 41.808C18 40.928 18.504 39.672 18.504 38.04C18.504 37.128 18.272 36.384 17.808 35.808C17.36 35.232 16.76 34.752 16.008 34.368C15.256 33.968 14.4 33.632 13.44 33.36C12.48 33.088 11.504 32.792 10.512 32.472C9.52 32.152 8.544 31.768 7.584 31.32C6.624 30.872 5.768 30.288 5.016 29.568C4.264 28.848 3.656 27.952 3.192 26.88C2.744 25.792 2.52 24.456 2.52 22.872C2.52 21.608 2.768 20.376 3.264 19.176C3.776 17.976 4.512 16.912 5.472 15.984C6.432 15.056 7.616 14.312 9.024 13.752C10.432 13.192 12.048 12.912 13.872 12.912C15.92 12.912 17.808 13.232 19.536 13.872C21.264 14.512 22.736 15.408 23.952 16.56L22.344 19.608ZM76.1494 13.296L65.3734 48H59.5414L51.9574 24.288C51.7494 23.712 51.5574 23.008 51.3814 22.176C51.2854 22.576 51.1894 22.952 51.0934 23.304C50.9974 23.656 50.8934 23.984 50.7814 24.288L43.1254 48H37.2694L26.5174 13.296H31.9174C32.4774 13.296 32.9414 13.432 33.3094 13.704C33.6934 13.96 33.9494 14.312 34.0774 14.76L39.9814 35.52C40.1094 36.032 40.2294 36.592 40.3414 37.2C40.4694 37.792 40.5974 38.416 40.7254 39.072C40.8534 38.4 40.9894 37.768 41.1334 37.176C41.2934 36.584 41.4614 36.032 41.6374 35.52L48.4534 14.76C48.5814 14.392 48.8294 14.056 49.1974 13.752C49.5814 13.448 50.0454 13.296 50.5894 13.296H52.4854C53.0454 13.296 53.5014 13.432 53.8534 13.704C54.2054 13.976 54.4694 14.328 54.6454 14.76L61.4374 35.52C61.7734 36.512 62.0774 37.656 62.3494 38.952C62.5574 37.688 62.7894 36.544 63.0454 35.52L68.9494 14.76C69.0454 14.36 69.2854 14.016 69.6694 13.728C70.0694 13.44 70.5414 13.296 71.0854 13.296H76.1494ZM86.8909 48H80.4109V13.296H86.8909V48ZM132.293 13.296V48H126.605V25.584C126.605 24.688 126.653 23.72 126.749 22.68L116.261 42.384C115.765 43.328 115.005 43.8 113.981 43.8H113.069C112.045 43.8 111.285 43.328 110.789 42.384L100.181 22.608C100.229 23.136 100.269 23.656 100.301 24.168C100.333 24.68 100.349 25.152 100.349 25.584V48H94.6609V13.296H99.5329C99.8209 13.296 100.069 13.304 100.277 13.32C100.485 13.336 100.669 13.376 100.829 13.44C101.005 13.504 101.157 13.608 101.285 13.752C101.429 13.896 101.565 14.088 101.693 14.328L112.085 33.6C112.357 34.112 112.605 34.64 112.829 35.184C113.069 35.728 113.301 36.288 113.525 36.864C113.749 36.272 113.981 35.704 114.221 35.16C114.461 34.6 114.717 34.064 114.989 33.552L125.237 14.328C125.365 14.088 125.501 13.896 125.645 13.752C125.789 13.608 125.941 13.504 126.101 13.44C126.277 13.376 126.469 13.336 126.677 13.32C126.885 13.304 127.133 13.296 127.421 13.296H132.293ZM315.731 34.896L311.507 23.352C311.299 22.84 311.083 22.232 310.859 21.528C310.635 20.824 310.411 20.064 310.187 19.248C309.979 20.064 309.763 20.832 309.539 21.552C309.315 22.256 309.099 22.872 308.891 23.4L304.691 34.896H315.731ZM327.131 48H322.139C321.579 48 321.123 47.864 320.771 47.592C320.419 47.304 320.155 46.952 319.979 46.536L317.387 39.456H303.011L300.419 46.536C300.291 46.904 300.043 47.24 299.675 47.544C299.307 47.848 298.851 48 298.307 48H293.267L306.923 13.296H313.499L327.131 48ZM351.588 18.6H341.124V48H334.668V18.6H324.204V13.296H351.588V18.6ZM395.604 13.296V48H389.124V32.832H372.828V48H366.348V13.296H372.828V28.224H389.124V13.296H395.604ZM436.429 30.648C436.429 33.192 436.005 35.552 435.157 37.728C434.325 39.888 433.141 41.76 431.605 43.344C430.069 44.928 428.221 46.168 426.061 47.064C423.901 47.944 421.501 48.384 418.861 48.384C416.237 48.384 413.845 47.944 411.685 47.064C409.525 46.168 407.669 44.928 406.117 43.344C404.581 41.76 403.389 39.888 402.541 37.728C401.693 35.552 401.269 33.192 401.269 30.648C401.269 28.104 401.693 25.752 402.541 23.592C403.389 21.416 404.581 19.536 406.117 17.952C407.669 16.368 409.525 15.136 411.685 14.256C413.845 13.36 416.237 12.912 418.861 12.912C420.621 12.912 422.277 13.12 423.829 13.536C425.381 13.936 426.805 14.512 428.101 15.264C429.397 16 430.557 16.904 431.581 17.976C432.621 19.032 433.501 20.216 434.221 21.528C434.941 22.84 435.485 24.264 435.853 25.8C436.237 27.336 436.429 28.952 436.429 30.648ZM429.829 30.648C429.829 28.744 429.573 27.04 429.061 25.536C428.549 24.016 427.821 22.728 426.877 21.672C425.933 20.616 424.781 19.808 423.421 19.248C422.077 18.688 420.557 18.408 418.861 18.408C417.165 18.408 415.637 18.688 414.277 19.248C412.933 19.808 411.781 20.616 410.821 21.672C409.877 22.728 409.149 24.016 408.637 25.536C408.125 27.04 407.869 28.744 407.869 30.648C407.869 32.552 408.125 34.264 408.637 35.784C409.149 37.288 409.877 38.568 410.821 39.624C411.781 40.664 412.933 41.464 414.277 42.024C415.637 42.584 417.165 42.864 418.861 42.864C420.557 42.864 422.077 42.584 423.421 42.024C424.781 41.464 425.933 40.664 426.877 39.624C427.821 38.568 428.549 37.288 429.061 35.784C429.573 34.264 429.829 32.552 429.829 30.648ZM479.73 13.296V48H474.042V25.584C474.042 24.688 474.09 23.72 474.186 22.68L463.698 42.384C463.202 43.328 462.442 43.8 461.418 43.8H460.506C459.482 43.8 458.722 43.328 458.226 42.384L447.618 22.608C447.666 23.136 447.706 23.656 447.738 24.168C447.77 24.68 447.786 25.152 447.786 25.584V48H442.098V13.296H446.97C447.258 13.296 447.506 13.304 447.714 13.32C447.922 13.336 448.106 13.376 448.266 13.44C448.442 13.504 448.594 13.608 448.722 13.752C448.866 13.896 449.002 14.088 449.13 14.328L459.522 33.6C459.794 34.112 460.042 34.64 460.266 35.184C460.506 35.728 460.738 36.288 460.962 36.864C461.186 36.272 461.418 35.704 461.658 35.16C461.898 34.6 462.154 34.064 462.426 33.552L472.674 14.328C472.802 14.088 472.938 13.896 473.082 13.752C473.226 13.608 473.378 13.504 473.538 13.44C473.714 13.376 473.906 13.336 474.114 13.32C474.322 13.304 474.57 13.296 474.858 13.296H479.73ZM493.953 18.432V28.056H506.097V33.024H493.953V42.84H509.361V48H487.473V13.296H509.361V18.432H493.953Z" fill="#1E1E1E"/>
<path d="M150.524 29.808C151.74 29.808 152.796 29.656 153.692 29.352C154.604 29.048 155.348 28.632 155.924 28.104C156.516 27.56 156.956 26.92 157.244 26.184C157.532 25.448 157.676 24.64 157.676 23.76C157.676 22 157.092 20.648 155.924 19.704C154.772 18.76 153.004 18.288 150.62 18.288H146.492V29.808H150.524ZM167.132 48H161.3C160.196 48 159.396 47.568 158.9 46.704L151.604 35.592C151.332 35.176 151.028 34.88 150.692 34.704C150.372 34.528 149.892 34.44 149.252 34.44H146.492V48H140.036V13.296H150.62C152.972 13.296 154.988 13.544 156.668 14.04C158.364 14.52 159.748 15.2 160.82 16.08C161.908 16.96 162.708 18.016 163.22 19.248C163.732 20.464 163.988 21.808 163.988 23.28C163.988 24.448 163.812 25.552 163.46 26.592C163.124 27.632 162.628 28.576 161.972 29.424C161.332 30.272 160.532 31.016 159.572 31.656C158.628 32.296 157.548 32.8 156.332 33.168C156.748 33.408 157.132 33.696 157.484 34.032C157.836 34.352 158.156 34.736 158.444 35.184L167.132 48ZM177.36 48H170.88V13.296H177.36V48ZM213.738 30.6V44.64C211.978 45.936 210.098 46.888 208.098 47.496C206.114 48.088 203.986 48.384 201.714 48.384C198.882 48.384 196.314 47.944 194.01 47.064C191.722 46.184 189.762 44.96 188.13 43.392C186.514 41.824 185.266 39.952 184.386 37.776C183.506 35.6 183.066 33.224 183.066 30.648C183.066 28.04 183.49 25.648 184.338 23.472C185.186 21.296 186.386 19.424 187.938 17.856C189.506 16.288 191.402 15.072 193.626 14.208C195.85 13.344 198.346 12.912 201.114 12.912C202.522 12.912 203.834 13.024 205.05 13.248C206.282 13.472 207.418 13.784 208.458 14.184C209.514 14.568 210.474 15.04 211.338 15.6C212.202 16.16 212.994 16.776 213.714 17.448L211.866 20.376C211.578 20.84 211.202 21.128 210.738 21.24C210.274 21.336 209.77 21.216 209.226 20.88C208.698 20.576 208.17 20.272 207.642 19.968C207.114 19.664 206.522 19.4 205.866 19.176C205.226 18.952 204.498 18.768 203.682 18.624C202.882 18.48 201.954 18.408 200.898 18.408C199.186 18.408 197.634 18.696 196.242 19.272C194.866 19.848 193.69 20.672 192.714 21.744C191.738 22.816 190.986 24.104 190.458 25.608C189.93 27.112 189.666 28.792 189.666 30.648C189.666 32.632 189.946 34.408 190.506 35.976C191.082 37.528 191.882 38.848 192.906 39.936C193.946 41.008 195.194 41.832 196.65 42.408C198.106 42.968 199.73 43.248 201.522 43.248C202.802 43.248 203.946 43.112 204.954 42.84C205.962 42.568 206.946 42.2 207.906 41.736V35.448H203.538C203.122 35.448 202.794 35.336 202.554 35.112C202.33 34.872 202.218 34.584 202.218 34.248V30.6H213.738ZM249.214 13.296V48H242.734V32.832H226.438V48H219.958V13.296H226.438V28.224H242.734V13.296H249.214ZM281.182 18.6H270.718V48H264.262V18.6H253.798V13.296H281.182V18.6Z" fill="#F0D402"/>
<rect x="415" y="32" width="6" height="65" fill="#FFE202"/>
</svg>
