<svg width="585" height="190" viewBox="0 0 585 190" fill="none" xmlns="http://www.w3.org/2000/svg">
<path d="M21.136 34.704V48H13.024V34.704L0.352 13.032H7.504C8.208 13.032 8.76 13.2 9.16 13.536C9.576 13.856 9.92 14.272 10.192 14.784L15.136 24.96C15.552 25.76 15.928 26.512 16.264 27.216C16.6 27.904 16.896 28.584 17.152 29.256C17.392 28.568 17.664 27.88 17.968 27.192C18.288 26.488 18.656 25.744 19.072 24.96L23.968 14.784C24.08 14.576 24.216 14.368 24.376 14.16C24.536 13.952 24.72 13.768 24.928 13.608C25.152 13.432 25.4 13.296 25.672 13.2C25.96 13.088 26.272 13.032 26.608 13.032H33.808L21.136 34.704ZM68.6571 30.504C68.6571 33.032 68.2171 35.384 67.3371 37.56C66.4731 39.736 65.2491 41.632 63.6651 43.248C62.0811 44.848 60.1691 46.104 57.9291 47.016C55.7051 47.928 53.2331 48.384 50.5131 48.384C47.7931 48.384 45.3131 47.928 43.0731 47.016C40.8331 46.104 38.9131 44.848 37.3131 43.248C35.7291 41.632 34.4971 39.736 33.6171 37.56C32.7531 35.384 32.3211 33.032 32.3211 30.504C32.3211 27.976 32.7531 25.624 33.6171 23.448C34.4971 21.272 35.7291 19.384 37.3131 17.784C38.9131 16.184 40.8331 14.928 43.0731 14.016C45.3131 13.104 47.7931 12.648 50.5131 12.648C53.2331 12.648 55.7051 13.112 57.9291 14.04C60.1691 14.952 62.0811 16.208 63.6651 17.808C65.2491 19.408 66.4731 21.296 67.3371 23.472C68.2171 25.648 68.6571 27.992 68.6571 30.504ZM60.3531 30.504C60.3531 28.776 60.1291 27.224 59.6811 25.848C59.2331 24.456 58.5851 23.28 57.7371 22.32C56.9051 21.36 55.8811 20.624 54.6651 20.112C53.4491 19.6 52.0651 19.344 50.5131 19.344C48.9451 19.344 47.5451 19.6 46.3131 20.112C45.0971 20.624 44.0651 21.36 43.2171 22.32C42.3851 23.28 41.7451 24.456 41.2971 25.848C40.8491 27.224 40.6251 28.776 40.6251 30.504C40.6251 32.248 40.8491 33.816 41.2971 35.208C41.7451 36.584 42.3851 37.752 43.2171 38.712C44.0651 39.672 45.0971 40.408 46.3131 40.92C47.5451 41.416 48.9451 41.664 50.5131 41.664C52.0651 41.664 53.4491 41.416 54.6651 40.92C55.8811 40.408 56.9051 39.672 57.7371 38.712C58.5851 37.752 59.2331 36.584 59.6811 35.208C60.1291 33.816 60.3531 32.248 60.3531 30.504ZM88.0229 41.592C89.1109 41.592 90.0789 41.416 90.9269 41.064C91.7909 40.696 92.5189 40.176 93.1109 39.504C93.7029 38.832 94.1509 38.016 94.4549 37.056C94.7749 36.08 94.9349 34.976 94.9349 33.744V13.032H103.047V33.744C103.047 35.888 102.695 37.856 101.991 39.648C101.303 41.44 100.311 42.984 99.0149 44.28C97.7189 45.576 96.1429 46.584 94.2869 47.304C92.4309 48.024 90.3429 48.384 88.0229 48.384C85.6869 48.384 83.5909 48.024 81.7349 47.304C79.8789 46.584 78.3029 45.576 77.0069 44.28C75.7109 42.984 74.7189 41.44 74.0309 39.648C73.3429 37.856 72.9989 35.888 72.9989 33.744V13.032H81.1109V33.72C81.1109 34.952 81.2629 36.056 81.5669 37.032C81.8869 37.992 82.3429 38.816 82.9349 39.504C83.5269 40.176 84.2469 40.696 85.0949 41.064C85.9589 41.416 86.9349 41.592 88.0229 41.592ZM120.76 29.472C121.864 29.472 122.8 29.336 123.568 29.064C124.352 28.776 124.992 28.384 125.488 27.888C125.984 27.392 126.344 26.816 126.568 26.16C126.792 25.488 126.904 24.768 126.904 24C126.904 22.464 126.4 21.264 125.392 20.4C124.4 19.536 122.856 19.104 120.76 19.104H117.496V29.472H120.76ZM137.992 48H130.648C129.288 48 128.312 47.488 127.72 46.464L121.912 36.312C121.64 35.88 121.336 35.568 121 35.376C120.664 35.168 120.184 35.064 119.56 35.064H117.496V48H109.384V13.032H120.76C123.288 13.032 125.44 13.296 127.216 13.824C129.008 14.336 130.464 15.056 131.584 15.984C132.72 16.912 133.544 18.008 134.056 19.272C134.568 20.536 134.824 21.912 134.824 23.4C134.824 24.536 134.672 25.608 134.368 26.616C134.064 27.624 133.616 28.56 133.024 29.424C132.432 30.272 131.696 31.032 130.816 31.704C129.952 32.376 128.952 32.928 127.816 33.36C128.344 33.632 128.84 33.976 129.304 34.392C129.768 34.792 130.184 35.272 130.552 35.832L137.992 48ZM18.856 93.328C18.856 95.28 18.608 97.056 18.112 98.656C17.632 100.256 16.896 101.632 15.904 102.784C14.928 103.92 13.696 104.808 12.208 105.448C10.72 106.072 8.968 106.384 6.952 106.384C6.04 106.384 5.136 106.336 4.24 106.24C3.36 106.144 2.44 105.984 1.48 105.76L1.912 101.032C1.96 100.616 2.128 100.28 2.416 100.024C2.704 99.768 3.112 99.64 3.64 99.64C3.912 99.64 4.248 99.688 4.648 99.784C5.048 99.864 5.528 99.904 6.088 99.904C6.872 99.904 7.552 99.8 8.128 99.592C8.72 99.368 9.208 99.008 9.592 98.512C9.976 98 10.264 97.336 10.456 96.52C10.648 95.704 10.744 94.696 10.744 93.496V71.032H18.856V93.328ZM59.6103 88.504C59.6103 91.032 59.1703 93.384 58.2903 95.56C57.4263 97.736 56.2023 99.632 54.6183 101.248C53.0343 102.848 51.1223 104.104 48.8823 105.016C46.6583 105.928 44.1863 106.384 41.4663 106.384C38.7463 106.384 36.2663 105.928 34.0262 105.016C31.7863 104.104 29.8663 102.848 28.2663 101.248C26.6823 99.632 25.4503 97.736 24.5703 95.56C23.7063 93.384 23.2743 91.032 23.2743 88.504C23.2743 85.976 23.7063 83.624 24.5703 81.448C25.4503 79.272 26.6823 77.384 28.2663 75.784C29.8663 74.184 31.7863 72.928 34.0262 72.016C36.2663 71.104 38.7463 70.648 41.4663 70.648C44.1863 70.648 46.6583 71.112 48.8823 72.04C51.1223 72.952 53.0343 74.208 54.6183 75.808C56.2023 77.408 57.4263 79.296 58.2903 81.472C59.1703 83.648 59.6103 85.992 59.6103 88.504ZM51.3063 88.504C51.3063 86.776 51.0823 85.224 50.6343 83.848C50.1863 82.456 49.5383 81.28 48.6903 80.32C47.8583 79.36 46.8343 78.624 45.6183 78.112C44.4023 77.6 43.0183 77.344 41.4663 77.344C39.8983 77.344 38.4983 77.6 37.2663 78.112C36.0503 78.624 35.0183 79.36 34.1703 80.32C33.3383 81.28 32.6983 82.456 32.2503 83.848C31.8023 85.224 31.5783 86.776 31.5783 88.504C31.5783 90.248 31.8023 91.816 32.2503 93.208C32.6983 94.584 33.3383 95.752 34.1703 96.712C35.0183 97.672 36.0503 98.408 37.2663 98.92C38.4983 99.416 39.8983 99.664 41.4663 99.664C43.0183 99.664 44.4023 99.416 45.6183 98.92C46.8343 98.408 47.8583 97.672 48.6903 96.712C49.5383 95.752 50.1863 94.584 50.6343 93.208C51.0823 91.816 51.3063 90.248 51.3063 88.504ZM78.976 99.592C80.064 99.592 81.032 99.416 81.88 99.064C82.744 98.696 83.472 98.176 84.064 97.504C84.656 96.832 85.104 96.016 85.408 95.056C85.728 94.08 85.888 92.976 85.888 91.744V71.032H94V91.744C94 93.888 93.648 95.856 92.944 97.648C92.256 99.44 91.264 100.984 89.968 102.28C88.672 103.576 87.096 104.584 85.24 105.304C83.384 106.024 81.296 106.384 78.976 106.384C76.64 106.384 74.544 106.024 72.688 105.304C70.832 104.584 69.256 103.576 67.96 102.28C66.664 100.984 65.672 99.44 64.984 97.648C64.296 95.856 63.952 93.888 63.952 91.744V71.032H72.064V91.72C72.064 92.952 72.216 94.056 72.52 95.032C72.84 95.992 73.296 96.816 73.888 97.504C74.48 98.176 75.2 98.696 76.048 99.064C76.912 99.416 77.888 99.592 78.976 99.592ZM111.713 87.472C112.817 87.472 113.753 87.336 114.521 87.064C115.305 86.776 115.945 86.384 116.441 85.888C116.937 85.392 117.297 84.816 117.521 84.16C117.745 83.488 117.857 82.768 117.857 82C117.857 80.464 117.353 79.264 116.345 78.4C115.353 77.536 113.809 77.104 111.713 77.104H108.449V87.472H111.713ZM128.945 106H121.601C120.241 106 119.265 105.488 118.673 104.464L112.865 94.312C112.593 93.88 112.289 93.568 111.953 93.376C111.617 93.168 111.137 93.064 110.513 93.064H108.449V106H100.337V71.032H111.713C114.241 71.032 116.393 71.296 118.169 71.824C119.961 72.336 121.417 73.056 122.537 73.984C123.673 74.912 124.497 76.008 125.009 77.272C125.521 78.536 125.777 79.912 125.777 81.4C125.777 82.536 125.625 83.608 125.321 84.616C125.017 85.624 124.569 86.56 123.977 87.424C123.385 88.272 122.649 89.032 121.769 89.704C120.905 90.376 119.905 90.928 118.769 91.36C119.297 91.632 119.793 91.976 120.257 92.392C120.721 92.792 121.137 93.272 121.505 93.832L128.945 106ZM162.412 71.032V106H158.188C157.564 106 157.036 105.904 156.604 105.712C156.188 105.504 155.772 105.152 155.356 104.656L138.868 83.8C138.932 84.424 138.972 85.032 138.988 85.624C139.02 86.2 139.036 86.744 139.036 87.256V106H131.884V71.032H136.156C136.508 71.032 136.804 71.048 137.044 71.08C137.284 71.112 137.5 71.176 137.692 71.272C137.884 71.352 138.068 71.472 138.244 71.632C138.42 71.792 138.62 72.008 138.844 72.28L155.476 93.28C155.396 92.608 155.34 91.96 155.308 91.336C155.276 90.696 155.26 90.096 155.26 89.536V71.032H162.412ZM177.357 77.272V85.432H188.349V91.432H177.357V99.76H191.708V106H169.197V71.032H191.708V77.272H177.357ZM213.464 92.704V106H205.352V92.704L192.68 71.032H199.832C200.536 71.032 201.088 71.2 201.488 71.536C201.904 71.856 202.248 72.272 202.52 72.784L207.464 82.96C207.88 83.76 208.256 84.512 208.592 85.216C208.928 85.904 209.224 86.584 209.48 87.256C209.72 86.568 209.992 85.88 210.296 85.192C210.616 84.488 210.984 83.744 211.4 82.96L216.296 72.784C216.408 72.576 216.544 72.368 216.704 72.16C216.864 71.952 217.048 71.768 217.256 71.608C217.48 71.432 217.728 71.296 218 71.2C218.288 71.088 218.6 71.032 218.936 71.032H226.136L213.464 92.704Z" fill="#1E1E1E"/>
<path d="M171.36 20.136C171.12 20.52 170.864 20.808 170.592 21C170.336 21.192 170 21.288 169.584 21.288C169.216 21.288 168.816 21.176 168.384 20.952C167.968 20.712 167.488 20.448 166.944 20.16C166.416 19.872 165.808 19.616 165.12 19.392C164.432 19.152 163.648 19.032 162.768 19.032C161.248 19.032 160.112 19.36 159.36 20.016C158.624 20.656 158.256 21.528 158.256 22.632C158.256 23.336 158.48 23.92 158.928 24.384C159.376 24.848 159.96 25.248 160.68 25.584C161.416 25.92 162.248 26.232 163.176 26.52C164.12 26.792 165.08 27.104 166.056 27.456C167.032 27.792 167.984 28.192 168.912 28.656C169.856 29.12 170.688 29.712 171.408 30.432C172.144 31.152 172.736 32.032 173.184 33.072C173.632 34.096 173.856 35.336 173.856 36.792C173.856 38.408 173.576 39.92 173.016 41.328C172.456 42.736 171.64 43.968 170.568 45.024C169.512 46.064 168.2 46.888 166.632 47.496C165.08 48.088 163.312 48.384 161.328 48.384C160.24 48.384 159.128 48.272 157.992 48.048C156.872 47.824 155.784 47.512 154.728 47.112C153.672 46.696 152.68 46.208 151.752 45.648C150.824 45.088 150.016 44.464 149.328 43.776L151.728 39.984C151.92 39.712 152.168 39.488 152.472 39.312C152.792 39.12 153.136 39.024 153.504 39.024C153.984 39.024 154.464 39.176 154.944 39.48C155.44 39.784 155.992 40.12 156.6 40.488C157.224 40.856 157.936 41.192 158.736 41.496C159.536 41.8 160.48 41.952 161.568 41.952C163.04 41.952 164.184 41.632 165 40.992C165.816 40.336 166.224 39.304 166.224 37.896C166.224 37.08 166 36.416 165.552 35.904C165.104 35.392 164.512 34.968 163.776 34.632C163.056 34.296 162.232 34 161.304 33.744C160.376 33.488 159.424 33.208 158.448 32.904C157.472 32.584 156.52 32.2 155.592 31.752C154.664 31.288 153.832 30.688 153.096 29.952C152.376 29.2 151.792 28.272 151.344 27.168C150.896 26.048 150.672 24.672 150.672 23.04C150.672 21.728 150.936 20.448 151.464 19.2C151.992 17.952 152.768 16.84 153.792 15.864C154.816 14.888 156.072 14.112 157.56 13.536C159.048 12.944 160.752 12.648 162.672 12.648C163.744 12.648 164.784 12.736 165.792 12.912C166.816 13.072 167.784 13.32 168.696 13.656C169.608 13.976 170.456 14.368 171.24 14.832C172.04 15.28 172.752 15.792 173.376 16.368L171.36 20.136ZM225.977 13.032L215.177 48H207.833L201.257 26.328C201.129 25.992 201.009 25.624 200.897 25.224C200.785 24.808 200.673 24.376 200.561 23.928C200.449 24.376 200.337 24.808 200.225 25.224C200.113 25.624 199.993 25.992 199.865 26.328L193.193 48H185.849L175.049 13.032H181.865C182.569 13.032 183.153 13.192 183.617 13.512C184.097 13.832 184.409 14.256 184.553 14.784L189.353 33.024C189.497 33.6 189.641 34.232 189.785 34.92C189.929 35.592 190.073 36.296 190.217 37.032C190.505 35.528 190.857 34.192 191.273 33.024L196.937 14.784C197.081 14.336 197.385 13.936 197.849 13.584C198.329 13.216 198.905 13.032 199.577 13.032H201.977C202.681 13.032 203.249 13.2 203.681 13.536C204.113 13.856 204.441 14.272 204.665 14.784L210.281 33.024C210.697 34.144 211.049 35.416 211.337 36.84C211.465 36.12 211.593 35.448 211.721 34.824C211.865 34.184 212.009 33.584 212.153 33.024L216.953 14.784C217.081 14.32 217.385 13.912 217.865 13.56C218.345 13.208 218.921 13.032 219.593 13.032H225.977ZM237.638 48H229.478V13.032H237.638V48ZM283.696 13.032V48H276.544V27.888C276.544 27.424 276.552 26.92 276.568 26.376C276.6 25.832 276.648 25.28 276.712 24.72L267.424 42.696C267.136 43.256 266.744 43.68 266.248 43.968C265.768 44.256 265.216 44.4 264.592 44.4H263.488C262.864 44.4 262.304 44.256 261.808 43.968C261.328 43.68 260.944 43.256 260.656 42.696L251.368 24.672C251.416 25.248 251.456 25.816 251.488 26.376C251.52 26.92 251.536 27.424 251.536 27.888V48H244.384V13.032H250.576C250.928 13.032 251.232 13.04 251.488 13.056C251.76 13.072 252 13.12 252.208 13.2C252.416 13.28 252.6 13.408 252.76 13.584C252.936 13.744 253.104 13.976 253.264 14.28L262.264 32.016C262.584 32.624 262.888 33.256 263.176 33.912C263.48 34.568 263.768 35.24 264.04 35.928C264.312 35.224 264.592 34.536 264.88 33.864C265.184 33.192 265.504 32.552 265.84 31.944L274.816 14.28C274.976 13.976 275.136 13.744 275.296 13.584C275.472 13.408 275.664 13.28 275.872 13.2C276.08 13.12 276.312 13.072 276.568 13.056C276.84 13.04 277.152 13.032 277.504 13.032H283.696ZM301.838 29.472C302.942 29.472 303.878 29.336 304.646 29.064C305.43 28.776 306.07 28.384 306.566 27.888C307.062 27.392 307.422 26.816 307.646 26.16C307.87 25.488 307.982 24.768 307.982 24C307.982 22.464 307.478 21.264 306.47 20.4C305.478 19.536 303.934 19.104 301.838 19.104H298.574V29.472H301.838ZM319.07 48H311.726C310.366 48 309.39 47.488 308.798 46.464L302.99 36.312C302.718 35.88 302.414 35.568 302.078 35.376C301.742 35.168 301.262 35.064 300.638 35.064H298.574V48H290.462V13.032H301.838C304.366 13.032 306.518 13.296 308.294 13.824C310.086 14.336 311.542 15.056 312.662 15.984C313.798 16.912 314.622 18.008 315.134 19.272C315.646 20.536 315.902 21.912 315.902 23.4C315.902 24.536 315.75 25.608 315.446 26.616C315.142 27.624 314.694 28.56 314.102 29.424C313.51 30.272 312.774 31.032 311.894 31.704C311.03 32.376 310.03 32.928 308.894 33.36C309.422 33.632 309.918 33.976 310.382 34.392C310.846 34.792 311.262 35.272 311.63 35.832L319.07 48ZM330.169 48H322.009V13.032H330.169V48ZM353.715 29.88H366.147V44.64C364.355 45.952 362.443 46.904 360.411 47.496C358.395 48.088 356.283 48.384 354.075 48.384C351.195 48.384 348.571 47.936 346.203 47.04C343.851 46.128 341.835 44.88 340.155 43.296C338.475 41.696 337.179 39.808 336.267 37.632C335.355 35.44 334.899 33.064 334.899 30.504C334.899 27.896 335.331 25.504 336.195 23.328C337.059 21.136 338.291 19.248 339.891 17.664C341.507 16.08 343.451 14.848 345.723 13.968C348.011 13.088 350.563 12.648 353.379 12.648C354.835 12.648 356.203 12.768 357.483 13.008C358.763 13.248 359.939 13.576 361.011 13.992C362.099 14.408 363.091 14.904 363.987 15.48C364.883 16.056 365.683 16.68 366.387 17.352L364.035 20.928C363.667 21.488 363.187 21.832 362.595 21.96C362.019 22.088 361.395 21.944 360.723 21.528C360.083 21.144 359.475 20.816 358.899 20.544C358.339 20.256 357.763 20.024 357.171 19.848C356.579 19.672 355.955 19.544 355.299 19.464C354.643 19.384 353.907 19.344 353.091 19.344C351.571 19.344 350.203 19.616 348.987 20.16C347.771 20.688 346.731 21.44 345.867 22.416C345.019 23.392 344.363 24.568 343.899 25.944C343.435 27.304 343.203 28.824 343.203 30.504C343.203 32.36 343.459 34.008 343.971 35.448C344.483 36.888 345.203 38.104 346.131 39.096C347.075 40.088 348.195 40.848 349.491 41.376C350.803 41.888 352.251 42.144 353.835 42.144C354.811 42.144 355.691 42.048 356.475 41.856C357.275 41.664 358.051 41.408 358.803 41.088V35.784H355.347C354.835 35.784 354.435 35.648 354.147 35.376C353.859 35.104 353.715 34.76 353.715 34.344V29.88ZM402.131 13.032V48H393.971V33.216H379.763V48H371.603V13.032H379.763V27.648H393.971V13.032H402.131ZM434.043 19.464H424.203V48H416.091V19.464H406.251V13.032H434.043V19.464ZM259.298 78.136C259.058 78.52 258.802 78.808 258.53 79C258.274 79.192 257.938 79.288 257.522 79.288C257.154 79.288 256.754 79.176 256.322 78.952C255.906 78.712 255.426 78.448 254.882 78.16C254.354 77.872 253.746 77.616 253.058 77.392C252.37 77.152 251.586 77.032 250.706 77.032C249.186 77.032 248.05 77.36 247.298 78.016C246.562 78.656 246.194 79.528 246.194 80.632C246.194 81.336 246.418 81.92 246.866 82.384C247.314 82.848 247.898 83.248 248.618 83.584C249.354 83.92 250.186 84.232 251.114 84.52C252.058 84.792 253.018 85.104 253.994 85.456C254.97 85.792 255.922 86.192 256.85 86.656C257.794 87.12 258.626 87.712 259.346 88.432C260.082 89.152 260.674 90.032 261.122 91.072C261.57 92.096 261.794 93.336 261.794 94.792C261.794 96.408 261.514 97.92 260.954 99.328C260.394 100.736 259.578 101.968 258.506 103.024C257.45 104.064 256.138 104.888 254.57 105.496C253.018 106.088 251.25 106.384 249.266 106.384C248.178 106.384 247.066 106.272 245.93 106.048C244.81 105.824 243.722 105.512 242.666 105.112C241.61 104.696 240.618 104.208 239.69 103.648C238.762 103.088 237.954 102.464 237.266 101.776L239.666 97.984C239.858 97.712 240.106 97.488 240.41 97.312C240.73 97.12 241.074 97.024 241.442 97.024C241.922 97.024 242.402 97.176 242.882 97.48C243.378 97.784 243.93 98.12 244.538 98.488C245.162 98.856 245.874 99.192 246.674 99.496C247.474 99.8 248.418 99.952 249.506 99.952C250.978 99.952 252.122 99.632 252.938 98.992C253.754 98.336 254.162 97.304 254.162 95.896C254.162 95.08 253.938 94.416 253.49 93.904C253.042 93.392 252.45 92.968 251.714 92.632C250.994 92.296 250.17 92 249.242 91.744C248.314 91.488 247.362 91.208 246.386 90.904C245.41 90.584 244.458 90.2 243.53 89.752C242.602 89.288 241.77 88.688 241.034 87.952C240.314 87.2 239.73 86.272 239.282 85.168C238.834 84.048 238.61 82.672 238.61 81.04C238.61 79.728 238.874 78.448 239.402 77.2C239.93 75.952 240.706 74.84 241.73 73.864C242.754 72.888 244.01 72.112 245.498 71.536C246.986 70.944 248.69 70.648 250.61 70.648C251.682 70.648 252.722 70.736 253.73 70.912C254.754 71.072 255.722 71.32 256.634 71.656C257.546 71.976 258.394 72.368 259.178 72.832C259.978 73.28 260.69 73.792 261.314 74.368L259.298 78.136ZM291.684 77.464H281.844V106H273.732V77.464H263.892V71.032H291.684V77.464ZM310.864 92.632L307.624 83.056C307.384 82.448 307.128 81.736 306.856 80.92C306.584 80.088 306.312 79.192 306.04 78.232C305.8 79.208 305.544 80.112 305.272 80.944C305 81.776 304.744 82.496 304.504 83.104L301.288 92.632H310.864ZM323.752 106H317.464C316.76 106 316.192 105.84 315.76 105.52C315.328 105.184 315 104.76 314.776 104.248L312.712 98.152H299.416L297.352 104.248C297.176 104.696 296.856 105.104 296.392 105.472C295.944 105.824 295.384 106 294.712 106H288.376L301.912 71.032H310.216L323.752 106ZM337.885 87.472C338.989 87.472 339.925 87.336 340.693 87.064C341.477 86.776 342.117 86.384 342.613 85.888C343.109 85.392 343.469 84.816 343.693 84.16C343.917 83.488 344.029 82.768 344.029 82C344.029 80.464 343.525 79.264 342.517 78.4C341.525 77.536 339.981 77.104 337.885 77.104H334.621V87.472H337.885ZM355.117 106H347.773C346.413 106 345.437 105.488 344.845 104.464L339.037 94.312C338.765 93.88 338.461 93.568 338.125 93.376C337.789 93.168 337.309 93.064 336.685 93.064H334.621V106H326.509V71.032H337.885C340.413 71.032 342.565 71.296 344.341 71.824C346.133 72.336 347.589 73.056 348.709 73.984C349.845 74.912 350.669 76.008 351.181 77.272C351.693 78.536 351.949 79.912 351.949 81.4C351.949 82.536 351.797 83.608 351.493 84.616C351.189 85.624 350.741 86.56 350.149 87.424C349.557 88.272 348.821 89.032 347.941 89.704C347.077 90.376 346.077 90.928 344.941 91.36C345.469 91.632 345.965 91.976 346.429 92.392C346.893 92.792 347.309 93.272 347.677 93.832L355.117 106ZM382.481 77.464H372.641V106H364.529V77.464H354.689V71.032H382.481V77.464ZM405.923 78.136C405.683 78.52 405.427 78.808 405.155 79C404.899 79.192 404.563 79.288 404.147 79.288C403.779 79.288 403.379 79.176 402.947 78.952C402.531 78.712 402.051 78.448 401.507 78.16C400.979 77.872 400.371 77.616 399.683 77.392C398.995 77.152 398.211 77.032 397.331 77.032C395.811 77.032 394.675 77.36 393.923 78.016C393.187 78.656 392.819 79.528 392.819 80.632C392.819 81.336 393.043 81.92 393.491 82.384C393.939 82.848 394.523 83.248 395.243 83.584C395.979 83.92 396.811 84.232 397.739 84.52C398.683 84.792 399.643 85.104 400.619 85.456C401.595 85.792 402.547 86.192 403.475 86.656C404.419 87.12 405.251 87.712 405.971 88.432C406.707 89.152 407.299 90.032 407.747 91.072C408.195 92.096 408.419 93.336 408.419 94.792C408.419 96.408 408.139 97.92 407.579 99.328C407.019 100.736 406.203 101.968 405.131 103.024C404.075 104.064 402.763 104.888 401.195 105.496C399.643 106.088 397.875 106.384 395.891 106.384C394.803 106.384 393.691 106.272 392.555 106.048C391.435 105.824 390.347 105.512 389.291 105.112C388.235 104.696 387.243 104.208 386.315 103.648C385.387 103.088 384.579 102.464 383.891 101.776L386.291 97.984C386.483 97.712 386.731 97.488 387.035 97.312C387.355 97.12 387.699 97.024 388.067 97.024C388.547 97.024 389.027 97.176 389.507 97.48C390.003 97.784 390.555 98.12 391.163 98.488C391.787 98.856 392.499 99.192 393.299 99.496C394.099 99.8 395.043 99.952 396.131 99.952C397.603 99.952 398.747 99.632 399.563 98.992C400.379 98.336 400.787 97.304 400.787 95.896C400.787 95.08 400.563 94.416 400.115 93.904C399.667 93.392 399.075 92.968 398.339 92.632C397.619 92.296 396.795 92 395.867 91.744C394.939 91.488 393.987 91.208 393.011 90.904C392.035 90.584 391.083 90.2 390.155 89.752C389.227 89.288 388.395 88.688 387.659 87.952C386.939 87.2 386.355 86.272 385.907 85.168C385.459 84.048 385.235 82.672 385.235 81.04C385.235 79.728 385.499 78.448 386.027 77.2C386.555 75.952 387.331 74.84 388.355 73.864C389.379 72.888 390.635 72.112 392.123 71.536C393.611 70.944 395.315 70.648 397.235 70.648C398.307 70.648 399.347 70.736 400.355 70.912C401.379 71.072 402.347 71.32 403.259 71.656C404.171 71.976 405.019 72.368 405.803 72.832C406.603 73.28 407.315 73.792 407.939 74.368L405.923 78.136ZM454.818 71.032V106H446.658V91.216H432.45V106H424.29V71.032H432.45V85.648H446.658V71.032H454.818ZM469.763 77.272V85.432H480.755V91.432H469.763V99.76H484.115V106H461.603V71.032H484.115V77.272H469.763ZM500.494 87.472C501.598 87.472 502.534 87.336 503.302 87.064C504.086 86.776 504.726 86.384 505.222 85.888C505.718 85.392 506.078 84.816 506.302 84.16C506.526 83.488 506.638 82.768 506.638 82C506.638 80.464 506.134 79.264 505.126 78.4C504.134 77.536 502.59 77.104 500.494 77.104H497.23V87.472H500.494ZM517.726 106H510.382C509.022 106 508.046 105.488 507.454 104.464L501.646 94.312C501.374 93.88 501.07 93.568 500.734 93.376C500.398 93.168 499.918 93.064 499.294 93.064H497.23V106H489.118V71.032H500.494C503.022 71.032 505.174 71.296 506.95 71.824C508.742 72.336 510.198 73.056 511.318 73.984C512.454 74.912 513.278 76.008 513.79 77.272C514.302 78.536 514.558 79.912 514.558 81.4C514.558 82.536 514.406 83.608 514.102 84.616C513.798 85.624 513.35 86.56 512.758 87.424C512.166 88.272 511.43 89.032 510.55 89.704C509.686 90.376 508.686 90.928 507.55 91.36C508.078 91.632 508.574 91.976 509.038 92.392C509.502 92.792 509.918 93.272 510.286 93.832L517.726 106ZM528.825 77.272V85.432H539.817V91.432H528.825V99.76H543.177V106H520.665V71.032H543.177V77.272H528.825Z" fill="#F0D402"/>
<rect x="205" y="97" width="9" height="93" fill="#F0D402"/>
</svg>
