<svg width="16" height="11" viewBox="0 0 16 11" fill="none" xmlns="http://www.w3.org/2000/svg">
<path d="M15.9662 9.39773C15.86 9.13225 15.5945 8.97296 15.2759 9.07915L13.8954 9.55702C12.4618 10.0349 10.869 9.87559 9.54154 9.23844L9.64774 9.13225C10.5504 8.22961 10.5504 6.74291 9.64774 5.84027L5.66551 1.85805C4.97526 1.0616 3.70095 1.0616 2.9576 1.80495L0.621359 4.14119C0.46207 4.30048 0.355878 4.51287 0.355878 4.77835C0.355878 5.04383 0.46207 5.25621 0.621359 5.4155C0.939937 5.73408 1.4178 5.78718 1.73638 5.5217L4.3381 3.82261L5.8248 5.30931L4.4443 6.68981C3.59475 6.63672 2.69212 6.74291 1.84258 7.00839L0.46207 7.48626C0.196589 7.59245 0.0372997 7.85793 0.143492 8.17651C0.249685 8.44199 0.515167 8.60128 0.833745 8.49509L2.21425 8.01722C4.12572 7.38007 6.24957 7.80484 7.73627 9.18534C8.95748 10.3004 10.5504 10.8844 12.1964 10.8844C12.8866 10.8844 13.63 10.7782 14.3202 10.5658L15.7007 10.088C15.9131 9.98179 16.0724 9.66321 15.9662 9.39773Z" fill="#FFE202"/>
<path d="M11.7716 5.30963C13.2583 5.30963 14.4265 4.14151 14.4265 2.65482C14.4265 1.16812 13.2583 0 11.7716 0C10.2849 0 9.11682 1.16812 9.11682 2.65482C9.11682 4.14151 10.2849 5.30963 11.7716 5.30963Z" fill="#FFE202"/>
</svg>
