<svg width="297" height="297" viewBox="0 0 297 297" fill="none" xmlns="http://www.w3.org/2000/svg">
<path d="M297 0H0V297H297V0Z" fill="white"/>
<path fill-rule="evenodd" clip-rule="evenodd" d="M119.067 225.987C160.549 237.653 180.734 192.886 216.277 196.291C235.733 198.156 274.515 207.605 274.428 138.771C274.211 94.3307 233.25 83.2027 191.011 105.993C178.582 110.854 168.769 109.347 158.114 104.518C147.46 99.6882 133.757 78.1272 107.931 73.6916C30.2126 60.3436 -36.2857 182.3 119.067 225.987Z" fill="#64FCD9"/>
<path fill-rule="evenodd" clip-rule="evenodd" d="M217.645 114.186C218.423 113.807 219.82 114.541 219.01 115.722C217.216 118.337 224.153 123.561 221.926 118.957C221.688 118.465 220.467 115.062 222.194 116.819C223.922 118.576 226.331 126.341 224.773 129.017C223.406 131.365 219.788 132.482 214.849 132.613L214.627 132.619L214.521 132.625C211.61 132.76 209.402 130.959 207.978 127.45L207.909 127.279C206.466 123.606 206.862 120.661 209.195 118.676C209.237 118.64 209.283 118.608 209.33 118.579L209.404 118.54L217.645 114.186Z" fill="white"/>
<path fill-rule="evenodd" clip-rule="evenodd" d="M60.3603 45.4467C60.0209 44.9652 59.4705 44.6876 58.8828 44.7592C58.2809 44.8325 57.7776 45.2511 57.5946 45.8284L57.5455 45.9829C57.5087 46.0965 57.4647 46.2272 57.4129 46.3741C57.2652 46.7931 57.0862 47.2584 56.8747 47.7585C56.2736 49.181 55.5335 50.6006 54.65 51.9209C52.744 54.7705 50.4476 56.7541 47.7556 57.518C47.3347 57.6372 47.0903 58.0751 47.2099 58.4961C47.2705 58.7095 51.202 60.6745 55.2159 60.1791C59.1089 59.6987 63.0879 56.7636 63.12 56.564L63.1691 56.1478L63.183 56.0084C63.4618 52.9846 62.9327 49.5687 60.8965 46.2597C60.727 45.9849 60.5484 45.714 60.3603 45.4467Z" fill="#E7EAEE"/>
<path fill-rule="evenodd" clip-rule="evenodd" d="M68.4621 46.3257L68.4415 46.4857C68.1591 48.533 67.3691 51.3838 65.9396 53.5345C64.1801 56.1821 61.6968 58.2069 59.2012 59.5121C55.6008 61.3943 51.6824 61.7388 47.8237 59.2935L47.6535 59.1838C45.6259 57.8576 44.0871 57.2192 41.976 57.7459C39.8645 58.273 38.8393 59.8107 37.9279 61.2375L37.8862 61.2977C37.74 61.4929 37.5264 61.6279 37.2855 61.6754L33.2826 62.3094L34.7403 64.1203C35.179 64.6696 35.4909 65.0652 35.6759 65.3075L37.2781 67.4186C42.0532 73.6814 47.1921 79.661 57.2133 77.5911L57.5531 77.5182C60.2078 76.9278 62.4338 78.513 65.2264 80.849L65.8231 81.3515C66.5617 81.9768 68.7951 83.9453 69.7091 84.8933L70.0077 85.2065L70.2833 85.5032C70.3407 85.5657 70.3953 85.6259 70.4472 85.6833L70.7323 86.0045L70.9074 85.7982C72.7975 83.5224 73.9815 80.0562 74.5945 77.1971C74.8258 76.1168 74.9588 75.0824 75.0143 74.1281L75.021 74.0037C75.0353 73.7245 75.0416 73.481 75.0428 73.2778V73.1266L74.7573 73.2105C71.4523 74.1479 67.7334 74.2409 64.1049 73.8223C63.2285 73.7214 72.8438 65.9332 70.8701 55.8475C70.4203 53.5491 70.1348 50.4758 69.3491 48.3896C69.1012 47.7315 68.8446 47.13 68.59 46.5922L68.4621 46.3257Z" fill="white"/>
<path fill-rule="evenodd" clip-rule="evenodd" d="M218.063 115.43L209.837 119.429C207.865 121.107 207.529 123.602 208.831 126.915C209.287 128.078 210.43 130.847 210.43 129.759C210.43 129.42 218.063 124.43 219.528 124.918C220.882 125.369 218.449 121.3 217.768 119.429L218.063 115.328L218.289 114.919" fill="#E7EAEE"/>
<path fill-rule="evenodd" clip-rule="evenodd" d="M207.087 118.432C207.634 118.432 204.536 119.889 204.696 122.576C204.855 125.263 206.955 130.216 206.445 130.411C205.934 130.606 204.966 129.162 204.77 128.652C203.556 125.474 203.326 124.177 203.369 122.324C203.426 119.897 204.702 118.432 207.087 118.432Z" fill="#E7EAEE"/>
<path d="M220.874 125.925C222.055 125.925 223.012 123.762 223.012 121.094C223.012 118.426 222.055 116.263 220.874 116.263C219.693 116.263 218.735 118.426 218.735 121.094C218.735 123.762 219.693 125.925 220.874 125.925Z" fill="#E7EAEE"/>
<path fill-rule="evenodd" clip-rule="evenodd" d="M71.5045 172.028C71.5045 163.646 72.4359 160.001 82.4365 155.427C102.933 147.142 102.933 146.823 142.201 131.641C152.586 127.647 174.479 137.215 183.999 133.205C190.346 130.532 196.281 128.547 201.524 125.896C202.032 129.211 205.315 134.825 206.47 135.79C200.33 137.079 194.39 139.071 188.652 141.768C176.245 147.598 183.597 146.01 163.946 164.541C162.281 166.111 156.161 169.692 147.313 173.422C147.313 173.422 129.493 171.029 122.346 168.056C115.072 165.031 104.051 155.427 104.051 155.427C104.051 155.427 91.1964 163.813 83.8067 167.582C80.3476 169.347 71.5045 172.028 71.5045 172.028Z" fill="white"/>
<path fill-rule="evenodd" clip-rule="evenodd" d="M71.5045 167.672C71.5045 165.705 71.2966 164.331 71.5045 162.813C72.1821 157.861 74.8377 155.328 82.4912 151.827C102.988 143.542 102.933 142.467 142.201 127.285C152.586 123.291 174.478 132.859 183.999 128.849C190.346 126.176 196.281 124.191 201.524 121.54C201.539 121.635 200.993 126.166 200.993 126.166C200.993 126.166 188.049 133.001 179.486 134.451C170.388 135.991 157.892 128.849 145.414 132.361C126.412 137.711 82.6238 154.523 77.4437 158.737C73.3737 162.047 71.5045 167.672 71.5045 167.672Z" fill="#E7EAEE"/>
<path fill-rule="evenodd" clip-rule="evenodd" d="M60.3603 45.4467C60.0209 44.9652 59.4705 44.6876 58.8828 44.7592C58.2809 44.8325 57.7776 45.2511 57.5946 45.8284L57.5455 45.9829C57.5087 46.0965 57.4647 46.2272 57.4129 46.3741C57.2652 46.7931 57.0862 47.2584 56.8747 47.7585C56.2736 49.181 55.5335 50.6006 54.65 51.9209C52.744 54.7705 50.4476 56.7541 47.7556 57.518C47.3347 57.6372 47.0903 58.0751 47.2099 58.4961C47.3291 58.9166 53.8699 55.9359 55.9667 52.8016C56.9103 51.3907 57.696 49.8843 58.3336 48.3755C58.526 47.9201 58.6935 47.4912 58.8369 47.0956L58.907 46.9004C58.9628 46.7412 59.0111 46.5983 59.0523 46.4719C59.0626 46.382 59.0721 46.352 59.0812 46.3817C63.6182 49.4855 61.8346 57.1889 62.2706 57.2265C62.6864 57.2621 63.0551 56.9695 63.12 56.564L63.1691 56.1478L63.183 56.0084C63.4618 52.9846 62.9327 49.5687 60.8965 46.2597C60.727 45.9849 60.5484 45.714 60.3603 45.4467Z" fill="#E7EAEE"/>
<path fill-rule="evenodd" clip-rule="evenodd" d="M69.8081 45.4234L69.9079 45.602L70.0298 45.8309C70.1035 45.9718 70.1859 46.1354 70.2757 46.3203C70.587 46.9606 70.901 47.6853 71.202 48.4844C72.0494 50.7337 72.6414 53.1612 72.8438 55.6905C73.1182 59.1226 72.6228 62.3615 71.3679 65.3081L71.2606 65.5556C70.2413 67.8576 68.7563 69.9667 66.8286 71.8587L66.6373 72.0437L66.7997 72.0516C69.576 72.1684 72.3215 71.9197 74.7347 71.1503C75.2523 70.9852 75.8166 71.0703 76.2625 71.3804C76.7076 71.69 76.984 72.1882 77.0117 72.7295L77.018 72.8975L77.022 73.1196V73.2051C77.022 73.5148 77.0129 73.8625 76.9907 74.2431C76.9301 75.2944 76.7844 76.4286 76.5306 77.6126C75.8134 80.9576 74.3799 84.0904 72.0368 86.7301C71.7255 87.0806 71.2883 87.2905 70.823 87.3154L70.7157 87.3178C70.2191 87.3087 69.7653 87.1032 69.443 86.7527L69.2069 86.4783L69.0913 86.3468L68.8454 86.074L68.5761 85.7829C68.4823 85.6835 68.3848 85.5809 68.2839 85.4764C67.4238 84.5842 66.4741 83.6999 65.4655 82.8862C62.6706 80.6305 59.9742 79.357 57.6715 79.4952C53.9051 79.7213 50.7858 79.5455 47.8918 78.7333C44.1508 77.6839 41.2129 75.6243 39.2689 72.3454L39.16 72.1585C38.1535 70.4034 36.667 68.3815 34.9135 66.2771C34.3717 65.6265 33.8372 65.0079 33.3277 64.4361L33.1109 64.1938C32.7639 63.8077 32.4795 63.5 32.3603 63.3748C31.9203 62.9111 31.7674 62.2458 31.9596 61.6376L31.9878 61.5552C32.199 60.987 32.6902 60.5656 33.2888 60.4472L36.4989 59.8128L36.5363 59.759C37.6849 58.1263 39.3249 56.7434 41.5036 56.1862C43.7758 55.6053 46.1669 56.1106 48.5749 57.6384L48.7428 57.7465C51.9952 59.8738 55.2186 59.7562 58.2837 58.154C60.4728 57.0091 62.5597 55.0652 64.1405 52.6864C65.6109 50.4743 66.4844 48.1098 66.547 46.2435C66.5728 45.4638 67.1109 44.7941 67.8673 44.6033C68.6244 44.4116 69.4164 44.747 69.8081 45.4234ZM68.4621 46.3262L68.4415 46.4862C68.1595 48.5336 67.3691 51.3844 65.9399 53.535C64.1801 56.1827 61.6968 58.2074 59.2012 59.5127C55.6012 61.3948 51.6824 61.7394 47.8237 59.2941L47.6535 59.1844C45.6259 57.8582 44.0871 57.2198 41.976 57.7465C39.8649 58.2736 38.8393 59.8112 37.928 61.238L37.8862 61.2982C37.7401 61.4934 37.5264 61.6285 37.2855 61.676L33.2826 62.31L34.7403 64.1209C35.1791 64.6702 35.4909 65.0658 35.6759 65.3081L37.2782 67.4192C42.0532 73.6819 47.1921 79.6615 57.2133 77.5916L57.5531 77.5188C60.2078 76.9283 62.4338 78.5135 65.2263 80.8495L65.8231 81.3521C66.5617 81.9773 68.7951 83.9459 69.7091 84.8939L70.0077 85.2071L70.2833 85.5037C70.3407 85.5663 70.3953 85.6265 70.4476 85.6839L70.7323 86.0051L70.9074 85.7987C72.7975 83.5229 73.9815 80.0567 74.5945 77.1976C74.8262 76.1173 74.9588 75.083 75.0143 74.1286L75.021 74.0043C75.0353 73.7251 75.0416 73.4816 75.0428 73.2784V73.1271L74.7573 73.2111C71.4523 74.1484 67.7334 74.2415 64.1049 73.8229C63.2285 73.7219 72.8438 65.9338 70.8701 55.8481C70.4203 53.5497 70.1348 50.4763 69.3491 48.3902C69.1016 47.732 68.8446 47.1305 68.59 46.5928L68.4621 46.3262Z" fill="#E7EAEE"/>
<path fill-rule="evenodd" clip-rule="evenodd" d="M43.362 64.1519C44.1263 64.1519 44.748 63.5302 44.748 62.7659C44.748 62.0016 44.1263 61.3799 43.362 61.3799C42.5977 61.3799 41.976 62.0016 41.976 62.7659C41.976 63.5302 42.5977 64.1519 43.362 64.1519Z" fill="#00160A"/>
<path d="M44.55 69.6958C45.7529 69.6958 46.728 68.898 46.728 67.9138C46.728 66.9297 45.7529 66.1318 44.55 66.1318C43.3471 66.1318 42.372 66.9297 42.372 67.9138C42.372 68.898 43.3471 69.6958 44.55 69.6958Z" fill="#FFB61D"/>
<path d="M44.55 69.6958C45.7529 69.6958 46.728 68.898 46.728 67.9138C46.728 66.9297 45.7529 66.1318 44.55 66.1318C43.3471 66.1318 42.372 66.9297 42.372 67.9138C42.372 68.898 43.3471 69.6958 44.55 69.6958Z" fill="#FFB61D"/>
<path fill-rule="evenodd" clip-rule="evenodd" d="M69.8081 45.4234L69.9079 45.602L70.0298 45.8309C70.1035 45.9718 70.1858 46.1354 70.2757 46.3203C70.587 46.9606 70.901 47.6853 71.202 48.4844C72.0494 50.7337 72.6414 53.1612 72.8438 55.6905C73.1182 59.1226 72.6228 62.3615 71.3679 65.3081L71.2606 65.5556C70.2413 67.8576 68.7563 69.9667 66.8282 71.8587L66.6373 72.0437L66.7997 72.0516C69.576 72.1684 72.3211 71.9197 74.7347 71.1503C75.2523 70.9852 75.8166 71.0703 76.2625 71.3804C76.7076 71.6901 76.984 72.1882 77.0117 72.7295L77.018 72.8975L77.022 73.1196V73.2051C77.022 73.5148 77.0129 73.8625 76.9907 74.2431C76.9297 75.2944 76.784 76.4286 76.5306 77.6126C75.8134 80.9576 74.3799 84.0904 72.0368 86.7301C71.7255 87.0806 71.2879 87.2905 70.823 87.3154L70.7157 87.3178C70.2187 87.3087 69.7653 87.1032 69.4429 86.7527L69.2069 86.4783L69.0913 86.3468L68.8454 86.074L68.5757 85.7829C68.4823 85.6835 68.3848 85.5809 68.2839 85.4764C67.4234 84.5842 66.4741 83.6999 65.4655 82.8862C62.6702 80.6305 59.9742 79.357 57.6715 79.4952C53.9047 79.7213 50.7858 79.5455 47.8918 78.7333C44.1504 77.6839 41.2129 75.6243 39.2689 72.3454L39.1599 72.1585C38.1534 70.4034 36.6669 68.3815 34.9135 66.2771C34.3716 65.6265 33.8371 65.0079 33.3276 64.4361L33.1109 64.1938C32.7638 63.8077 32.4794 63.5 32.3603 63.3748C31.9203 62.9111 31.7673 62.2458 31.9595 61.6376L31.9878 61.5552C32.199 60.987 32.6902 60.5656 33.2888 60.4472L36.4989 59.8128L36.5363 59.759C37.6849 58.1263 39.3249 56.7434 41.5032 56.1863C43.6475 55.6378 45.898 56.0572 48.1682 57.3901C50.6828 56.547 52.8422 54.6236 54.65 51.9209C55.5335 50.6003 56.2736 49.1806 56.8747 47.7586C57.0862 47.258 57.2652 46.7931 57.4129 46.3738C57.4647 46.2272 57.5087 46.0966 57.5459 45.9825L57.5946 45.8281C57.7776 45.2507 58.2809 44.8321 58.8828 44.7593C59.4705 44.6872 60.0209 44.9648 60.3603 45.4467C60.5488 45.7136 60.7274 45.9849 60.8965 46.2597C62.4769 48.8282 63.1497 51.4612 63.2412 53.9251C63.5556 53.5279 63.8562 53.1141 64.1405 52.6864C65.6105 50.4743 66.4844 48.1098 66.5466 46.2435C66.5727 45.4638 67.1109 44.7941 67.8673 44.6033C68.6244 44.4116 69.4164 44.747 69.8081 45.4234ZM58.2837 58.154C55.3065 59.7103 52.1797 59.8659 49.0224 57.9239C51.1481 56.941 54.5589 54.906 55.9667 52.8016C56.9103 51.3907 57.696 49.8839 58.3336 48.3752C58.526 47.9201 58.6935 47.4913 58.8373 47.0953L58.907 46.9004C58.9628 46.7409 59.0111 46.5979 59.0523 46.472C59.0626 46.3817 59.0721 46.3516 59.0812 46.3813C62.0972 48.4448 62.3201 52.5403 62.2587 55.0656C61.0466 56.3593 59.6863 57.4206 58.2837 58.154ZM59.2012 59.5127C60.4094 58.8806 61.6144 58.0803 62.7363 57.122C62.8226 57.0721 62.8987 57.0056 62.9604 56.9272C64.0692 55.9494 65.0889 54.8149 65.9395 53.535C67.3691 51.3844 68.1591 48.5336 68.4415 46.4862L68.4621 46.3262L68.59 46.5928C68.8446 47.1305 69.1012 47.732 69.3491 48.3902C69.896 49.8419 70.2005 51.7716 70.4868 53.5857V53.5861C70.6115 54.3785 70.7331 55.1491 70.8701 55.8481C72.3829 63.5784 67.0875 69.9587 64.9262 72.5628C64.2676 73.3564 63.9001 73.7991 64.1049 73.8229C67.7334 74.2415 71.4523 74.1484 74.7573 73.2111L75.0428 73.1271V73.2784C75.0416 73.4816 75.0353 73.7251 75.021 74.0043L75.0143 74.1286C74.9588 75.083 74.8258 76.1173 74.5945 77.1976C73.9815 80.0567 72.7975 83.5229 70.9074 85.7987L70.7323 86.0051L70.4472 85.6839C70.3953 85.6265 70.3407 85.5663 70.2833 85.5037L70.0076 85.2071L69.7091 84.8939C68.7951 83.9459 66.5617 81.9773 65.8231 81.3521L65.2263 80.8495C62.4338 78.5135 60.2078 76.9283 57.5531 77.5188L57.2133 77.5916C47.1921 79.6615 42.0532 73.6819 37.2781 67.4192L35.6759 65.3081C35.4909 65.0658 35.179 64.6702 34.7403 64.1209L33.2826 62.31L37.2855 61.676C37.5263 61.6285 37.74 61.4934 37.8861 61.2982L37.9279 61.238C38.8393 59.8112 39.8645 58.2736 41.976 57.7465C44.0871 57.2198 45.6259 57.8582 47.6534 59.1844L47.8237 59.2941C51.6824 61.7394 55.6008 61.3948 59.2012 59.5127ZM217.645 114.185C218.423 113.806 219.82 114.54 219.009 115.721C217.783 117.509 219.146 121.661 219.976 124.189V124.19V124.19C220.36 125.36 220.629 126.182 220.476 126.262C219.991 126.515 219.393 126.328 219.14 125.843C217.769 123.219 216.981 121.135 216.785 119.551C216.687 118.763 216.665 118.001 216.72 117.265L216.728 117.181L210.388 120.262L210.308 120.336C208.877 121.678 208.247 123.237 209.294 125.998L209.356 126.158C210.493 129.053 212.418 131.129 214.42 131.043L214.577 131.035C219.026 130.946 221.686 129.607 222.635 127.976C223.829 125.926 224.153 123.56 221.926 118.957C221.688 118.465 220.467 115.061 222.194 116.818C223.922 118.575 226.331 126.34 224.773 129.016C223.472 131.249 220.135 132.369 215.562 132.587C215.588 132.703 215.594 132.827 215.576 132.952C215.143 135.892 213.801 137.741 211.557 138.276C209.841 138.685 207.997 138.143 206.308 136.837C200.373 138.112 194.628 140.054 189.073 142.665L188.25 143.054C185.415 144.408 183.79 145.316 182.603 146.198C181.907 146.715 181.332 147.246 180.714 147.928L180.614 148.041C180.314 148.389 179.66 149.187 178.917 150.095L178.916 150.097L178.915 150.098L178.914 150.098L178.914 150.099L178.912 150.102L178.91 150.104C177.921 151.312 176.774 152.713 176.089 153.506L175.758 153.887C172.97 157.082 169.456 160.707 164.626 165.262L164.49 165.386C162.679 167.004 157.867 169.74 151.866 172.499C168.427 171.91 180.369 165.589 187.806 153.525C188.133 152.994 188.864 152.894 189.322 153.318C202.11 165.161 216.927 170.642 233.83 169.786C250.779 168.928 263.216 164.523 271.181 156.614C271.569 156.229 272.196 156.231 272.581 156.619C272.966 157.007 272.964 157.634 272.576 158.019C264.221 166.316 246.482 172.541 229.086 173.422C212.169 174.279 202.075 167.308 189.168 155.851L188.852 155.569L188.74 155.743C180.565 168.131 162.805 177.166 145.083 177.294L144.527 177.296C126.399 177.296 115.944 168.518 103.714 156.521L103.619 156.427L103.575 156.465L103.256 156.733L102.791 157.124L102.507 157.363C91.0471 167.007 82.4963 174.203 69.6334 176.042L69.2232 176.099C54.7205 179.033 32.7249 171.217 29.3448 167.386C26.2478 163.876 29.8601 166.058 30.8518 166.657H30.8519C30.9425 166.711 31.0112 166.753 31.051 166.776C40.6498 172.271 51.7172 174.364 64.9959 172.553C66.8282 172.303 68.6494 171.972 70.4587 171.56L70.4377 171.365C69.858 165.859 69.8544 163.452 70.69 160.689C71.8261 156.932 74.585 154.077 79.5477 151.807L80.9143 151.203C87.0444 148.501 91.9128 146.473 96.9626 144.502L97.3324 144.358C97.8987 144.138 98.4725 143.916 99.0582 143.692L99.632 143.473C99.8395 143.399 102.545 142.327 106.657 140.697C116.142 136.936 133.113 130.208 144.184 125.927C146.579 125.006 149.479 124.7 153.036 124.884L153.343 124.901C156.007 125.058 158.628 125.419 162.924 126.163L166.699 126.824C170.914 127.553 172.957 127.841 175.342 128.011C176.091 128.065 176.804 128.131 177.481 128.194C179.988 128.427 182.007 128.614 183.615 127.937C185.041 127.336 186.439 126.756 187.809 126.188L187.81 126.188L187.82 126.183H187.821C192.314 124.319 196.505 122.581 200.395 120.647C200.662 118.917 201.343 117.64 202.411 116.799C204.059 115.502 206.391 115.48 208.414 116.267C208.923 116.465 209.176 117.039 208.978 117.548C208.913 117.713 208.502 117.637 207.919 117.53C206.7 117.305 204.734 116.942 203.636 118.355C202.416 119.926 202.01 122.334 203.091 127.074C203.875 130.509 208.953 136.35 211.098 136.35C213.489 136.35 214.048 134.028 214.365 132.712L214.385 132.629C211.541 132.703 209.38 130.903 207.978 127.449L207.909 127.278C206.466 123.605 206.862 120.661 209.195 118.675C209.237 118.639 209.283 118.607 209.33 118.579L209.404 118.539L217.645 114.185ZM204.481 135.047C204.381 134.926 204.282 134.802 204.184 134.675C204.146 134.635 204.111 134.595 204.08 134.558C203.99 134.448 203.898 134.337 203.803 134.224C203.036 133.302 202.147 132.234 201.451 130.694L201.35 130.47C200.233 127.968 200.1 125.158 200.168 122.841L200.179 122.572L200.12 122.602C195.506 124.886 190.487 127.176 185.063 129.474L184.383 129.762C182.061 130.74 179.16 131.431 175.485 131.193L175.201 131.174C172.69 130.995 170.578 130.695 166.15 129.926L162.844 129.346C153.523 127.733 148.859 127.481 145.016 128.918C145.016 128.918 87.7013 150.478 80.3607 153.612C75.8966 155.654 74.3819 157.576 72.5357 160.689C71.5806 162.3 71.6772 166.743 71.7445 169.828V169.829C71.7556 170.346 71.7659 170.825 71.7706 171.247C82.6076 168.537 93.0247 162.902 103.029 154.331C103.423 153.994 104.012 154.018 104.377 154.387C105.186 155.205 106.009 155.996 106.846 156.758L148.118 139.515C148.232 139.468 148.348 139.443 148.464 139.439C148.775 139.292 149.11 139.171 149.47 139.075C153.069 138.119 155.943 139.675 157.928 143.507L161.526 140.883C162.057 140.496 162.81 140.723 163.038 141.339C166.321 150.211 165.364 156.291 159.959 159.224C154.507 162.182 149.766 159.743 146.07 152.349C145.882 151.974 145.956 151.541 146.215 151.248C145.334 147.669 145.171 144.817 145.77 142.752L109.61 159.139C115.017 163.529 120.954 166.84 127.426 169.073C127.574 168.931 127.735 168.809 127.892 168.723C133.343 165.737 146.774 162.249 150.092 161.387C150.379 161.313 150.59 161.258 150.714 161.224C152.271 160.807 150.676 162.262 150.206 162.479L150.146 162.504L130.543 170.053C136.375 171.714 142.619 172.544 149.279 172.544C149.658 172.544 150.034 172.541 150.408 172.535L150.847 172.25H150.847L150.847 172.25L150.848 172.25C155.04 169.525 162.05 164.969 163.267 163.821L163.835 163.284C167.871 159.368 170.874 155.611 173.497 152.331C176.373 148.733 178.79 145.71 181.607 143.681C183.797 142.104 184.591 141.744 186.456 140.897C186.955 140.671 187.531 140.41 188.23 140.081C193.178 137.756 198.797 136.41 204.071 135.145L204.481 135.047ZM149.979 140.989C152.83 140.231 154.966 141.57 156.594 145.31L152.388 148.644L152.384 148.646L148.037 150.361L147.929 149.884C146.739 144.489 147.514 141.644 149.979 140.989ZM156.594 145.31L152.391 148.643C152.476 148.61 152.563 148.589 152.649 148.579C152.729 148.571 152.808 148.572 152.886 148.583C153.071 148.608 153.246 148.684 153.39 148.805C153.485 148.884 153.566 148.981 153.627 149.095C154.619 150.881 155.386 151.307 156.164 150.87C156.989 150.408 157.248 148.67 156.645 145.565L156.594 145.31ZM102.064 185.959C102.524 185.663 105.698 184.115 102.872 187.025C100.045 189.936 78.0342 202.283 66.1526 202.967C54.7007 203.626 44.533 198.843 35.6865 192.584L35.3933 192.375L35.3348 192.45C34.9432 192.946 34.5409 193.397 34.1274 193.801L33.9494 193.972C33.2001 194.675 31.9033 195.472 30.0295 196.397C29.5393 196.639 27.8072 196.862 28.7035 195.948C29.5998 195.034 31.5616 193.718 32.7041 192.963C33.4508 192.47 33.6866 191.893 33.9205 191.321C34.0446 191.018 34.1681 190.716 34.3669 190.428C34.6863 189.966 35.3256 189.862 35.775 190.199C44.4961 196.735 54.6836 200.219 66.1526 199.559C77.6687 198.896 89.5625 194.003 102.064 185.959ZM169.8 192.271C170.201 191.901 170.201 189.255 169.8 189.626C165.351 193.731 156.039 197.341 144.547 198.002C133.041 198.664 123.995 196.855 117.391 192.609C116.931 192.313 114.654 191.531 116.022 192.906C117.391 194.281 132.769 201.455 144.661 200.771L145.017 200.75C156.734 200.034 164.995 196.704 169.8 192.271ZM161.677 143.444L161.617 143.266L158.637 145.441L158.691 145.748C159.291 149.254 158.882 151.545 157.22 152.547L157.133 152.597C155.4 153.569 153.769 152.882 152.405 150.886L152.345 150.797L148.337 152.416L148.43 152.584C151.493 158.112 154.889 159.65 158.885 157.553L159.014 157.484C163.027 155.306 164.016 150.862 161.816 143.875L161.677 143.444ZM44.748 62.7658C44.748 63.5301 44.1263 64.1518 43.362 64.1518C42.5977 64.1518 41.976 63.5301 41.976 62.7658C41.976 62.0015 42.5977 61.3798 43.362 61.3798C44.1263 61.3798 44.748 62.0015 44.748 62.7658Z" fill="#00160A"/>
</svg>
