<svg width="863" height="745" viewBox="0 0 863 745" fill="none" xmlns="http://www.w3.org/2000/svg">
<path d="M0 0H763C818.228 0 863 44.7715 863 100V645C863 700.228 818.228 745 763 745H0V0Z" fill="#E6FAFF"/>
<path d="M-2 0L376.762 144.215C430.579 164.706 456.013 226.302 432.331 278.794L248.562 686.124C232.394 721.962 196.726 745 157.409 745H-2V0Z" fill="#67E3FF"/>
<path d="M112.352 296.808C113.568 296.808 114.624 296.656 115.52 296.352C116.432 296.048 117.176 295.632 117.752 295.104C118.344 294.56 118.784 293.92 119.072 293.184C119.36 292.448 119.504 291.64 119.504 290.76C119.504 289 118.92 287.648 117.752 286.704C116.6 285.76 114.832 285.288 112.448 285.288H108.32V296.808H112.352ZM128.96 315H123.128C122.024 315 121.224 314.568 120.728 313.704L113.432 302.592C113.16 302.176 112.856 301.88 112.52 301.704C112.2 301.528 111.72 301.44 111.08 301.44H108.32V315H101.864V280.296H112.448C114.8 280.296 116.816 280.544 118.496 281.04C120.192 281.52 121.576 282.2 122.648 283.08C123.736 283.96 124.536 285.016 125.048 286.248C125.56 287.464 125.816 288.808 125.816 290.28C125.816 291.448 125.64 292.552 125.288 293.592C124.952 294.632 124.456 295.576 123.8 296.424C123.16 297.272 122.36 298.016 121.4 298.656C120.456 299.296 119.376 299.8 118.16 300.168C118.576 300.408 118.96 300.696 119.312 301.032C119.664 301.352 119.984 301.736 120.272 302.184L128.96 315ZM146.042 299.856C146.042 299.088 145.93 298.368 145.706 297.696C145.498 297.008 145.178 296.408 144.746 295.896C144.314 295.384 143.762 294.984 143.09 294.696C142.434 294.392 141.666 294.24 140.786 294.24C139.074 294.24 137.722 294.728 136.73 295.704C135.754 296.68 135.13 298.064 134.858 299.856H146.042ZM134.738 303.432C134.834 304.696 135.058 305.792 135.41 306.72C135.762 307.632 136.226 308.392 136.802 309C137.378 309.592 138.058 310.04 138.842 310.344C139.642 310.632 140.522 310.776 141.482 310.776C142.442 310.776 143.266 310.664 143.954 310.44C144.658 310.216 145.266 309.968 145.778 309.696C146.306 309.424 146.762 309.176 147.146 308.952C147.546 308.728 147.93 308.616 148.298 308.616C148.794 308.616 149.162 308.8 149.402 309.168L151.106 311.328C150.45 312.096 149.714 312.744 148.898 313.272C148.082 313.784 147.226 314.2 146.33 314.52C145.45 314.824 144.546 315.04 143.618 315.168C142.706 315.296 141.818 315.36 140.954 315.36C139.242 315.36 137.65 315.08 136.178 314.52C134.706 313.944 133.426 313.104 132.338 312C131.25 310.88 130.394 309.504 129.77 307.872C129.146 306.224 128.834 304.32 128.834 302.16C128.834 300.48 129.106 298.904 129.65 297.432C130.194 295.944 130.97 294.656 131.978 293.568C133.002 292.464 134.242 291.592 135.698 290.952C137.17 290.312 138.826 289.992 140.666 289.992C142.218 289.992 143.65 290.24 144.962 290.736C146.274 291.232 147.402 291.96 148.346 292.92C149.29 293.864 150.026 295.032 150.554 296.424C151.098 297.8 151.37 299.376 151.37 301.152C151.37 302.048 151.274 302.656 151.082 302.976C150.89 303.28 150.522 303.432 149.978 303.432H134.738ZM171.275 296.664C170.619 295.848 169.891 295.272 169.091 294.936C168.291 294.6 167.435 294.432 166.523 294.432C165.627 294.432 164.819 294.6 164.099 294.936C163.379 295.272 162.763 295.784 162.251 296.472C161.739 297.144 161.347 298.008 161.075 299.064C160.803 300.104 160.667 301.336 160.667 302.76C160.667 304.2 160.779 305.424 161.003 306.432C161.243 307.424 161.579 308.24 162.011 308.88C162.443 309.504 162.971 309.96 163.595 310.248C164.219 310.52 164.915 310.656 165.683 310.656C166.915 310.656 167.963 310.4 168.827 309.888C169.691 309.376 170.507 308.648 171.275 307.704V296.664ZM177.203 290.376V323.04H171.275V311.88C170.299 312.92 169.195 313.76 167.963 314.4C166.731 315.04 165.299 315.36 163.667 315.36C162.323 315.36 161.091 315.08 159.971 314.52C158.851 313.96 157.883 313.152 157.067 312.096C156.267 311.024 155.643 309.704 155.195 308.136C154.763 306.568 154.547 304.776 154.547 302.76C154.547 300.936 154.795 299.24 155.291 297.672C155.787 296.104 156.499 294.744 157.427 293.592C158.355 292.44 159.467 291.544 160.763 290.904C162.059 290.248 163.515 289.92 165.131 289.92C166.667 289.92 167.955 290.184 168.995 290.712C170.035 291.24 170.963 291.952 171.779 292.848L172.091 291.456C172.299 290.736 172.795 290.376 173.579 290.376H177.203ZM204.269 290.376V315H200.645C199.861 315 199.365 314.64 199.157 313.92L198.749 311.952C197.741 312.976 196.629 313.808 195.413 314.448C194.197 315.072 192.765 315.384 191.117 315.384C189.773 315.384 188.581 315.16 187.541 314.712C186.517 314.248 185.653 313.6 184.949 312.768C184.245 311.936 183.709 310.952 183.341 309.816C182.989 308.664 182.813 307.4 182.813 306.024V290.376H188.741V306.024C188.741 307.528 189.085 308.696 189.773 309.528C190.477 310.344 191.525 310.752 192.917 310.752C193.941 310.752 194.901 310.528 195.797 310.08C196.693 309.616 197.541 308.984 198.341 308.184V290.376H204.269ZM226.011 299.856C226.011 299.088 225.899 298.368 225.675 297.696C225.467 297.008 225.147 296.408 224.715 295.896C224.283 295.384 223.731 294.984 223.059 294.696C222.403 294.392 221.635 294.24 220.755 294.24C219.043 294.24 217.691 294.728 216.699 295.704C215.723 296.68 215.099 298.064 214.827 299.856H226.011ZM214.707 303.432C214.803 304.696 215.027 305.792 215.379 306.72C215.731 307.632 216.195 308.392 216.771 309C217.347 309.592 218.027 310.04 218.811 310.344C219.611 310.632 220.491 310.776 221.451 310.776C222.411 310.776 223.235 310.664 223.923 310.44C224.627 310.216 225.235 309.968 225.747 309.696C226.275 309.424 226.731 309.176 227.115 308.952C227.515 308.728 227.899 308.616 228.267 308.616C228.763 308.616 229.131 308.8 229.371 309.168L231.075 311.328C230.419 312.096 229.683 312.744 228.867 313.272C228.051 313.784 227.195 314.2 226.299 314.52C225.419 314.824 224.515 315.04 223.587 315.168C222.675 315.296 221.787 315.36 220.923 315.36C219.211 315.36 217.619 315.08 216.147 314.52C214.675 313.944 213.395 313.104 212.307 312C211.219 310.88 210.363 309.504 209.739 307.872C209.115 306.224 208.803 304.32 208.803 302.16C208.803 300.48 209.075 298.904 209.619 297.432C210.163 295.944 210.939 294.656 211.947 293.568C212.971 292.464 214.211 291.592 215.667 290.952C217.139 290.312 218.795 289.992 220.635 289.992C222.187 289.992 223.619 290.24 224.931 290.736C226.243 291.232 227.371 291.96 228.315 292.92C229.259 293.864 229.995 295.032 230.523 296.424C231.067 297.8 231.339 299.376 231.339 301.152C231.339 302.048 231.243 302.656 231.051 302.976C230.859 303.28 230.491 303.432 229.947 303.432H214.707ZM250.811 295.176C250.651 295.432 250.483 295.616 250.307 295.728C250.131 295.824 249.907 295.872 249.635 295.872C249.347 295.872 249.035 295.792 248.699 295.632C248.379 295.472 248.003 295.296 247.571 295.104C247.139 294.896 246.643 294.712 246.083 294.552C245.539 294.392 244.891 294.312 244.139 294.312C242.971 294.312 242.051 294.56 241.379 295.056C240.723 295.552 240.395 296.2 240.395 297C240.395 297.528 240.563 297.976 240.899 298.344C241.251 298.696 241.707 299.008 242.267 299.28C242.843 299.552 243.491 299.8 244.211 300.024C244.931 300.232 245.659 300.464 246.395 300.72C247.147 300.976 247.883 301.272 248.603 301.608C249.323 301.928 249.963 302.344 250.523 302.856C251.099 303.352 251.555 303.952 251.891 304.656C252.243 305.36 252.419 306.208 252.419 307.2C252.419 308.384 252.203 309.48 251.771 310.488C251.355 311.48 250.731 312.344 249.899 313.08C249.067 313.8 248.035 314.368 246.803 314.784C245.587 315.184 244.179 315.384 242.579 315.384C241.731 315.384 240.899 315.304 240.083 315.144C239.283 315 238.507 314.792 237.755 314.52C237.019 314.248 236.331 313.928 235.691 313.56C235.067 313.192 234.515 312.792 234.035 312.36L235.403 310.104C235.579 309.832 235.787 309.624 236.027 309.48C236.267 309.336 236.571 309.264 236.939 309.264C237.307 309.264 237.651 309.368 237.971 309.576C238.307 309.784 238.691 310.008 239.123 310.248C239.555 310.488 240.059 310.712 240.635 310.92C241.227 311.128 241.971 311.232 242.867 311.232C243.571 311.232 244.171 311.152 244.667 310.992C245.179 310.816 245.595 310.592 245.915 310.32C246.251 310.048 246.491 309.736 246.635 309.384C246.795 309.016 246.875 308.64 246.875 308.256C246.875 307.68 246.699 307.208 246.347 306.84C246.011 306.472 245.555 306.152 244.979 305.88C244.419 305.608 243.771 305.368 243.035 305.16C242.315 304.936 241.571 304.696 240.803 304.44C240.051 304.184 239.307 303.888 238.571 303.552C237.851 303.2 237.203 302.76 236.627 302.232C236.067 301.704 235.611 301.056 235.259 300.288C234.923 299.52 234.755 298.592 234.755 297.504C234.755 296.496 234.955 295.536 235.355 294.624C235.755 293.712 236.339 292.92 237.107 292.248C237.891 291.56 238.859 291.016 240.011 290.616C241.179 290.2 242.523 289.992 244.043 289.992C245.739 289.992 247.283 290.272 248.675 290.832C250.067 291.392 251.227 292.128 252.155 293.04L250.811 295.176ZM265.089 315.384C262.945 315.384 261.297 314.784 260.145 313.584C259.009 312.368 258.441 310.696 258.441 308.568V294.816H255.921C255.601 294.816 255.329 294.712 255.105 294.504C254.881 294.296 254.769 293.984 254.769 293.568V291.216L258.729 290.568L259.977 283.848C260.057 283.528 260.209 283.28 260.433 283.104C260.657 282.928 260.945 282.84 261.297 282.84H264.369V290.592H270.945V294.816H264.369V308.16C264.369 308.928 264.553 309.528 264.921 309.96C265.305 310.392 265.825 310.608 266.481 310.608C266.849 310.608 267.153 310.568 267.393 310.488C267.649 310.392 267.865 310.296 268.041 310.2C268.233 310.104 268.401 310.016 268.545 309.936C268.689 309.84 268.833 309.792 268.977 309.792C269.153 309.792 269.297 309.84 269.409 309.936C269.521 310.016 269.641 310.144 269.769 310.32L271.545 313.2C270.681 313.92 269.689 314.464 268.569 314.832C267.449 315.2 266.289 315.384 265.089 315.384ZM299.42 304.488C297.708 304.568 296.268 304.72 295.1 304.944C293.932 305.152 292.996 305.424 292.292 305.76C291.588 306.096 291.084 306.488 290.78 306.936C290.476 307.384 290.324 307.872 290.324 308.4C290.324 309.44 290.628 310.184 291.236 310.632C291.86 311.08 292.668 311.304 293.66 311.304C294.876 311.304 295.924 311.088 296.804 310.656C297.7 310.208 298.572 309.536 299.42 308.64V304.488ZM285.836 293.808C288.668 291.216 292.076 289.92 296.06 289.92C297.5 289.92 298.788 290.16 299.924 290.64C301.06 291.104 302.02 291.76 302.804 292.608C303.588 293.44 304.18 294.44 304.58 295.608C304.996 296.776 305.204 298.056 305.204 299.448V315H302.516C301.956 315 301.524 314.92 301.22 314.76C300.916 314.584 300.676 314.24 300.5 313.728L299.972 311.952C299.348 312.512 298.74 313.008 298.148 313.44C297.556 313.856 296.94 314.208 296.3 314.496C295.66 314.784 294.972 315 294.236 315.144C293.516 315.304 292.716 315.384 291.836 315.384C290.796 315.384 289.836 315.248 288.956 314.976C288.076 314.688 287.316 314.264 286.676 313.704C286.036 313.144 285.54 312.448 285.188 311.616C284.836 310.784 284.66 309.816 284.66 308.712C284.66 308.088 284.764 307.472 284.972 306.864C285.18 306.24 285.516 305.648 285.98 305.088C286.46 304.528 287.076 304 287.828 303.504C288.58 303.008 289.5 302.576 290.588 302.208C291.692 301.84 292.972 301.544 294.428 301.32C295.884 301.08 297.548 300.936 299.42 300.888V299.448C299.42 297.8 299.068 296.584 298.364 295.8C297.66 295 296.644 294.6 295.316 294.6C294.356 294.6 293.556 294.712 292.916 294.936C292.292 295.16 291.74 295.416 291.26 295.704C290.78 295.976 290.34 296.224 289.94 296.448C289.556 296.672 289.124 296.784 288.644 296.784C288.228 296.784 287.876 296.68 287.588 296.472C287.3 296.248 287.068 295.992 286.892 295.704L285.836 293.808ZM118.568 343.584C118.392 343.808 118.216 343.984 118.04 344.112C117.88 344.24 117.64 344.304 117.32 344.304C117.016 344.304 116.72 344.216 116.432 344.04C116.144 343.848 115.8 343.64 115.4 343.416C115 343.176 114.52 342.968 113.96 342.792C113.416 342.6 112.736 342.504 111.92 342.504C110.88 342.504 109.968 342.696 109.184 343.08C108.4 343.448 107.744 343.984 107.216 344.688C106.704 345.392 106.32 346.248 106.064 347.256C105.808 348.248 105.68 349.376 105.68 350.64C105.68 351.952 105.816 353.12 106.088 354.144C106.376 355.168 106.784 356.032 107.312 356.736C107.84 357.424 108.48 357.952 109.232 358.32C109.984 358.672 110.832 358.848 111.776 358.848C112.72 358.848 113.48 358.736 114.056 358.512C114.648 358.272 115.144 358.016 115.544 357.744C115.944 357.456 116.288 357.2 116.576 356.976C116.88 356.736 117.216 356.616 117.584 356.616C118.064 356.616 118.424 356.8 118.664 357.168L120.368 359.328C119.712 360.096 119 360.744 118.232 361.272C117.464 361.784 116.664 362.2 115.832 362.52C115.016 362.824 114.168 363.04 113.288 363.168C112.424 363.296 111.56 363.36 110.696 363.36C109.176 363.36 107.744 363.08 106.4 362.52C105.056 361.944 103.88 361.112 102.872 360.024C101.864 358.936 101.064 357.608 100.472 356.04C99.896 354.456 99.608 352.656 99.608 350.64C99.608 348.832 99.864 347.16 100.376 345.624C100.904 344.072 101.672 342.736 102.68 341.616C103.688 340.48 104.936 339.592 106.424 338.952C107.912 338.312 109.624 337.992 111.56 337.992C113.4 337.992 115.008 338.288 116.384 338.88C117.776 339.472 119.024 340.32 120.128 341.424L118.568 343.584ZM137.092 352.488C135.38 352.568 133.94 352.72 132.772 352.944C131.604 353.152 130.668 353.424 129.964 353.76C129.26 354.096 128.756 354.488 128.452 354.936C128.148 355.384 127.996 355.872 127.996 356.4C127.996 357.44 128.3 358.184 128.908 358.632C129.532 359.08 130.34 359.304 131.332 359.304C132.548 359.304 133.596 359.088 134.476 358.656C135.372 358.208 136.244 357.536 137.092 356.64V352.488ZM123.508 341.808C126.34 339.216 129.748 337.92 133.732 337.92C135.172 337.92 136.46 338.16 137.596 338.64C138.732 339.104 139.692 339.76 140.476 340.608C141.26 341.44 141.852 342.44 142.252 343.608C142.668 344.776 142.876 346.056 142.876 347.448V363H140.188C139.628 363 139.196 362.92 138.892 362.76C138.588 362.584 138.348 362.24 138.172 361.728L137.644 359.952C137.02 360.512 136.412 361.008 135.82 361.44C135.228 361.856 134.612 362.208 133.972 362.496C133.332 362.784 132.644 363 131.908 363.144C131.188 363.304 130.388 363.384 129.508 363.384C128.468 363.384 127.508 363.248 126.628 362.976C125.748 362.688 124.988 362.264 124.348 361.704C123.708 361.144 123.212 360.448 122.86 359.616C122.508 358.784 122.332 357.816 122.332 356.712C122.332 356.088 122.436 355.472 122.644 354.864C122.852 354.24 123.188 353.648 123.652 353.088C124.132 352.528 124.748 352 125.5 351.504C126.252 351.008 127.172 350.576 128.26 350.208C129.364 349.84 130.644 349.544 132.1 349.32C133.556 349.08 135.22 348.936 137.092 348.888V347.448C137.092 345.8 136.74 344.584 136.036 343.8C135.332 343 134.316 342.6 132.988 342.6C132.028 342.6 131.228 342.712 130.588 342.936C129.964 343.16 129.412 343.416 128.932 343.704C128.452 343.976 128.012 344.224 127.612 344.448C127.228 344.672 126.796 344.784 126.316 344.784C125.9 344.784 125.548 344.68 125.26 344.472C124.972 344.248 124.74 343.992 124.564 343.704L123.508 341.808ZM154.459 327.336V363H148.531V327.336H154.459ZM166.366 327.336V363H160.438V327.336H166.366ZM189.872 356.616C190.544 357.432 191.272 358.008 192.056 358.344C192.856 358.68 193.696 358.848 194.576 358.848C195.488 358.848 196.304 358.688 197.024 358.368C197.76 358.032 198.384 357.52 198.896 356.832C199.408 356.128 199.8 355.24 200.072 354.168C200.344 353.08 200.48 351.784 200.48 350.28C200.48 347.576 200.032 345.624 199.136 344.424C198.24 343.208 196.952 342.6 195.272 342.6C194.136 342.6 193.144 342.864 192.296 343.392C191.448 343.904 190.64 344.632 189.872 345.576V356.616ZM189.872 341.4C190.864 340.36 191.96 339.536 193.16 338.928C194.376 338.304 195.76 337.992 197.312 337.992C198.736 337.992 200.016 338.272 201.152 338.832C202.304 339.392 203.28 340.2 204.08 341.256C204.896 342.296 205.52 343.56 205.952 345.048C206.384 346.536 206.6 348.208 206.6 350.064C206.6 352.064 206.352 353.88 205.856 355.512C205.36 357.144 204.648 358.544 203.72 359.712C202.808 360.864 201.704 361.76 200.408 362.4C199.112 363.04 197.672 363.36 196.088 363.36C195.32 363.36 194.624 363.28 194 363.12C193.376 362.976 192.8 362.768 192.272 362.496C191.744 362.224 191.256 361.896 190.808 361.512C190.376 361.112 189.96 360.672 189.56 360.192L189.296 361.848C189.2 362.264 189.032 362.56 188.792 362.736C188.568 362.912 188.256 363 187.856 363H183.944V327.336H189.872V341.4ZM224.186 352.488C222.474 352.568 221.034 352.72 219.866 352.944C218.698 353.152 217.762 353.424 217.058 353.76C216.354 354.096 215.85 354.488 215.546 354.936C215.242 355.384 215.09 355.872 215.09 356.4C215.09 357.44 215.394 358.184 216.002 358.632C216.626 359.08 217.434 359.304 218.426 359.304C219.642 359.304 220.69 359.088 221.57 358.656C222.466 358.208 223.338 357.536 224.186 356.64V352.488ZM210.602 341.808C213.434 339.216 216.842 337.92 220.826 337.92C222.266 337.92 223.554 338.16 224.69 338.64C225.826 339.104 226.786 339.76 227.57 340.608C228.354 341.44 228.946 342.44 229.346 343.608C229.762 344.776 229.97 346.056 229.97 347.448V363H227.282C226.722 363 226.29 362.92 225.986 362.76C225.682 362.584 225.442 362.24 225.266 361.728L224.738 359.952C224.114 360.512 223.506 361.008 222.914 361.44C222.322 361.856 221.706 362.208 221.066 362.496C220.426 362.784 219.738 363 219.002 363.144C218.282 363.304 217.482 363.384 216.602 363.384C215.562 363.384 214.602 363.248 213.722 362.976C212.842 362.688 212.082 362.264 211.442 361.704C210.802 361.144 210.306 360.448 209.954 359.616C209.602 358.784 209.426 357.816 209.426 356.712C209.426 356.088 209.53 355.472 209.738 354.864C209.946 354.24 210.282 353.648 210.746 353.088C211.226 352.528 211.842 352 212.594 351.504C213.346 351.008 214.266 350.576 215.354 350.208C216.458 349.84 217.738 349.544 219.194 349.32C220.65 349.08 222.314 348.936 224.186 348.888V347.448C224.186 345.8 223.834 344.584 223.13 343.8C222.426 343 221.41 342.6 220.082 342.6C219.122 342.6 218.322 342.712 217.682 342.936C217.058 343.16 216.506 343.416 216.026 343.704C215.546 343.976 215.106 344.224 214.706 344.448C214.322 344.672 213.89 344.784 213.41 344.784C212.994 344.784 212.642 344.68 212.354 344.472C212.066 344.248 211.834 343.992 211.658 343.704L210.602 341.808ZM253.193 343.584C253.017 343.808 252.841 343.984 252.665 344.112C252.505 344.24 252.265 344.304 251.945 344.304C251.641 344.304 251.345 344.216 251.057 344.04C250.769 343.848 250.425 343.64 250.025 343.416C249.625 343.176 249.145 342.968 248.585 342.792C248.041 342.6 247.361 342.504 246.545 342.504C245.505 342.504 244.593 342.696 243.809 343.08C243.025 343.448 242.369 343.984 241.841 344.688C241.329 345.392 240.945 346.248 240.689 347.256C240.433 348.248 240.305 349.376 240.305 350.64C240.305 351.952 240.441 353.12 240.713 354.144C241.001 355.168 241.409 356.032 241.937 356.736C242.465 357.424 243.105 357.952 243.857 358.32C244.609 358.672 245.457 358.848 246.401 358.848C247.345 358.848 248.105 358.736 248.681 358.512C249.273 358.272 249.769 358.016 250.169 357.744C250.569 357.456 250.913 357.2 251.201 356.976C251.505 356.736 251.841 356.616 252.209 356.616C252.689 356.616 253.049 356.8 253.289 357.168L254.993 359.328C254.337 360.096 253.625 360.744 252.857 361.272C252.089 361.784 251.289 362.2 250.457 362.52C249.641 362.824 248.793 363.04 247.913 363.168C247.049 363.296 246.185 363.36 245.321 363.36C243.801 363.36 242.369 363.08 241.025 362.52C239.681 361.944 238.505 361.112 237.497 360.024C236.489 358.936 235.689 357.608 235.097 356.04C234.521 354.456 234.233 352.656 234.233 350.64C234.233 348.832 234.489 347.16 235.001 345.624C235.529 344.072 236.297 342.736 237.305 341.616C238.313 340.48 239.561 339.592 241.049 338.952C242.537 338.312 244.249 337.992 246.185 337.992C248.025 337.992 249.633 338.288 251.009 338.88C252.401 339.472 253.649 340.32 254.753 341.424L253.193 343.584ZM264.637 327.336V347.76H265.741C266.141 347.76 266.453 347.712 266.677 347.616C266.917 347.504 267.157 347.288 267.397 346.968L273.517 339.408C273.773 339.072 274.053 338.816 274.357 338.64C274.677 338.464 275.085 338.376 275.581 338.376H281.005L273.349 347.52C272.805 348.24 272.213 348.792 271.573 349.176C271.909 349.416 272.205 349.696 272.461 350.016C272.733 350.336 272.989 350.68 273.229 351.048L281.437 363H276.085C275.621 363 275.221 362.928 274.885 362.784C274.549 362.624 274.269 362.344 274.045 361.944L267.757 352.608C267.533 352.24 267.301 352 267.061 351.888C266.821 351.776 266.461 351.72 265.981 351.72H264.637V363H258.709V327.336H264.637Z" fill="#061014"/>
</svg>
