<svg width="234" height="235" viewBox="0 0 234 235" fill="none" xmlns="http://www.w3.org/2000/svg">
<path d="M3.8999 232.762C3.89713 232.553 3.92568 232.341 3.99352 232.132C4.91952 229.189 5.88044 226.315 6.8433 223.586C7.16591 222.67 8.08068 222.231 8.88593 222.602C9.69115 222.973 10.079 224.017 9.75641 224.934C8.80604 227.617 7.86289 230.45 6.9494 233.35C6.65572 234.278 5.75977 234.758 4.94195 234.423C4.30819 234.163 3.91211 233.486 3.9025 232.762L3.8999 232.762ZM9.86993 215.95C9.86653 215.694 9.91271 215.431 10.0114 215.182C11.1557 212.332 12.3509 209.568 13.5585 206.958C13.9628 206.086 14.913 205.754 15.6776 206.218C16.4449 206.682 16.7365 207.766 16.3348 208.636C15.1525 211.185 13.9854 213.893 12.8637 216.68C12.5043 217.576 11.5731 217.967 10.7831 217.554C10.2142 217.254 9.87617 216.618 9.86731 215.95L9.86993 215.95ZM17.3205 199.948C17.3162 199.62 17.3902 199.285 17.5536 198.985C18.9986 196.322 20.5128 193.753 22.0606 191.354C22.5731 190.56 23.5542 190.389 24.2551 190.976C24.9534 191.563 25.1042 192.681 24.5943 193.475C23.0978 195.799 21.627 198.287 20.228 200.869C19.7736 201.707 18.8067 201.967 18.0701 201.443C17.5975 201.11 17.3309 200.535 17.3231 199.942L17.3205 199.948ZM26.744 185.389C26.7383 184.96 26.8685 184.526 27.1386 184.179C28.9438 181.86 30.8497 179.644 32.8101 177.588C33.4473 176.921 34.4392 176.97 35.0268 177.696C35.6145 178.424 35.5772 179.554 34.94 180.222C33.0596 182.196 31.2258 184.328 29.49 186.557C28.9166 187.295 27.9235 187.359 27.2741 186.703C26.9294 186.355 26.7504 185.872 26.744 185.386L26.744 185.389ZM38.4188 173.152C38.4114 172.598 38.6291 172.049 39.048 171.695C41.1765 169.89 43.4394 168.161 45.7773 166.562C46.5185 166.054 47.4846 166.328 47.9327 167.177C48.3807 168.024 48.1442 169.124 47.4003 169.632C45.1506 171.173 42.9731 172.832 40.9274 174.571C40.2343 175.158 39.2514 174.995 38.7308 174.2C38.5253 173.887 38.4236 173.519 38.4188 173.155L38.4188 173.152ZM52.0123 163.805C52.0034 163.135 52.327 162.486 52.8904 162.175C55.2088 160.886 57.6925 159.637 60.2714 158.461C61.0747 158.096 61.9881 158.54 62.3141 159.456C62.6375 160.373 62.2512 161.416 61.4479 161.781C58.9393 162.926 56.5257 164.139 54.2748 165.391C53.4959 165.822 52.5573 165.452 52.1741 164.563C52.0688 164.317 52.0157 164.059 52.0123 163.802L52.0123 163.805ZM66.762 157.021C66.7519 156.267 67.1662 155.558 67.8272 155.305C70.2524 154.376 72.7591 153.484 75.4907 152.58C76.3213 152.304 77.1943 152.853 77.4396 153.8C77.6824 154.748 77.2091 155.741 76.3758 156.014C73.7223 156.89 71.187 157.794 68.8372 158.693C68.0176 159.008 67.1243 158.504 66.8477 157.566C66.7929 157.385 66.7669 157.2 66.7645 157.015L66.762 157.021ZM82.0466 151.927C82.0359 151.122 82.5047 150.386 83.2186 150.176C85.6284 149.468 88.1663 148.751 90.9808 147.99C91.8225 147.761 92.6699 148.355 92.8736 149.318C93.0747 150.278 92.5592 151.242 91.7148 151.471C88.9186 152.229 86.3989 152.936 84.01 153.642C83.1711 153.888 82.3135 153.312 82.0941 152.355C82.0609 152.213 82.0459 152.07 82.044 151.927L82.0466 151.927ZM97.5442 147.706C97.5333 146.88 98.0281 146.131 98.7631 145.943C100.984 145.371 103.387 144.763 106.549 143.97C107.396 143.759 108.233 144.368 108.422 145.335C108.61 146.301 108.078 147.253 107.231 147.464C104.074 148.254 101.676 148.861 99.4607 149.43C98.6162 149.647 97.7738 149.041 97.5806 148.078C97.5554 147.953 97.5432 147.828 97.5416 147.703L97.5442 147.706ZM113.109 143.791C113.098 142.959 113.598 142.21 114.338 142.025C116.877 141.389 119.468 140.74 122.114 140.07C122.958 139.856 123.798 140.462 123.991 141.428C124.182 142.392 123.653 143.347 122.806 143.564C120.158 144.237 117.562 144.885 115.02 145.521C114.173 145.732 113.336 145.123 113.148 144.157C113.125 144.035 113.113 143.913 113.111 143.794L113.109 143.791ZM128.665 139.834C128.654 139.012 129.146 138.263 129.878 138.071C132.581 137.365 135.117 136.693 137.627 136.013C138.468 135.784 139.316 136.378 139.519 137.341C139.721 138.301 139.205 139.265 138.361 139.494C135.841 140.177 133.3 140.852 130.586 141.558C129.742 141.778 128.9 141.178 128.704 140.215C128.679 140.087 128.664 139.962 128.662 139.834L128.665 139.834ZM144.151 135.545C144.141 134.761 144.589 134.033 145.281 133.807C147.786 132.98 150.279 132.023 152.692 130.963C153.501 130.606 154.409 131.065 154.725 131.988C155.041 132.911 154.641 133.945 153.832 134.301C151.336 135.402 148.755 136.393 146.164 137.244C145.333 137.517 144.46 136.971 144.218 136.021C144.176 135.863 144.156 135.703 144.154 135.545L144.151 135.545ZM158.977 129.013C158.968 128.346 159.289 127.7 159.85 127.386C162.174 126.082 164.479 124.639 166.703 123.101C167.442 122.587 168.408 122.858 168.861 123.704C169.311 124.548 169.08 125.648 168.339 126.161C166.035 127.757 163.649 129.249 161.245 130.599C160.469 131.035 159.528 130.669 159.142 129.783C159.034 129.537 158.981 129.276 158.977 129.016L158.977 129.013ZM172.565 119.613C172.557 119.055 172.78 118.501 173.204 118.147C175.282 116.414 177.341 114.541 179.324 112.583C179.977 111.937 180.969 112.019 181.539 112.769C182.108 113.515 182.04 114.646 181.384 115.292C179.337 117.314 177.21 119.247 175.063 121.04C174.365 121.622 173.382 121.447 172.869 120.649C172.669 120.336 172.57 119.976 172.565 119.616L172.565 119.613ZM184.592 107.75C184.586 107.288 184.737 106.824 185.044 106.471C186.849 104.39 188.632 102.175 190.349 99.89C190.912 99.1403 191.902 99.0556 192.562 99.6997C193.222 100.344 193.299 101.473 192.737 102.222C190.974 104.571 189.136 106.849 187.282 108.99C186.674 109.693 185.68 109.697 185.061 109.002C184.756 108.657 184.598 108.206 184.592 107.753L184.592 107.75ZM194.939 93.9924C194.934 93.6109 195.036 93.2279 195.249 92.9002C196.79 90.5486 198.308 88.0751 199.762 85.5488C200.238 84.7257 201.21 84.4982 201.934 85.0401C202.661 85.5849 202.861 86.6941 202.388 87.5172C200.9 90.1035 199.344 92.6342 197.765 95.0429C197.247 95.8338 196.263 95.9929 195.57 95.4C195.163 95.0536 194.946 94.5259 194.939 93.9894L194.939 93.9924ZM203.69 78.8223C203.686 78.5093 203.753 78.1925 203.9 77.9014C205.195 75.3563 206.465 72.6983 207.677 70.0053C208.071 69.1267 209.018 68.7832 209.788 69.238C210.56 69.6928 210.865 70.7708 210.468 71.6465C209.231 74.3935 207.936 77.1055 206.616 79.7016C206.182 80.5539 205.221 80.8439 204.472 80.3471C203.976 80.0198 203.696 79.4303 203.688 78.8223L203.69 78.8223ZM210.977 62.6641C210.973 62.4078 211.017 62.1479 211.118 61.8991C212.191 59.2079 213.242 56.4217 214.236 53.6153C214.561 52.7018 215.473 52.2605 216.278 52.6343C217.081 53.0082 217.471 54.0493 217.146 54.9658C216.135 57.8201 215.069 60.6543 213.976 63.3904C213.616 64.2895 212.688 64.6833 211.898 64.2705C211.326 63.9741 210.986 63.3347 210.977 62.6641ZM216.957 45.8138C216.954 45.6052 216.983 45.3931 217.048 45.1866C217.926 42.3907 218.774 39.5117 219.573 36.6305C219.835 35.691 220.715 35.1695 221.543 35.4715C222.368 35.7706 222.826 36.7781 222.566 37.7205C221.755 40.6437 220.894 43.5675 220.004 46.4023C219.713 47.3303 218.814 47.8132 217.999 47.4782C217.365 47.2184 216.966 46.541 216.957 45.8168L216.957 45.8138ZM221.766 28.4752C221.764 28.3083 221.783 28.1382 221.822 27.9707C222.522 25.0937 223.189 22.1516 223.806 19.2221C224.008 18.2625 224.856 17.6729 225.698 17.9092C226.541 18.1424 227.061 19.1103 226.857 20.0699C226.232 23.0383 225.555 26.0223 224.846 28.9381C224.615 29.8891 223.751 30.4431 222.914 30.177C222.225 29.9566 221.774 29.2502 221.764 28.4782L221.766 28.4752ZM225.496 10.7843C225.495 10.6562 225.506 10.5279 225.528 10.3964C226.061 7.42326 226.55 4.43282 226.982 1.50872C227.126 0.535014 227.936 -0.119627 228.79 0.0478822C229.645 0.215391 230.223 1.14077 230.079 2.11448C229.642 5.08038 229.146 8.10966 228.603 11.1247C228.43 12.0928 227.601 12.7119 226.751 12.5116C226.017 12.3365 225.507 11.604 225.496 10.7843Z" fill="#01D0FF"/>
</svg>
