<svg width="168" height="254" viewBox="0 0 168 254" fill="none" xmlns="http://www.w3.org/2000/svg">
<path d="M2.07461 253.897C2.26448 253.856 2.451 253.787 2.62724 253.682C5.10711 252.231 7.518 250.764 9.79598 249.324C10.5613 248.842 10.7712 247.919 10.2692 247.264C9.76718 246.609 8.74001 246.472 7.9747 246.955C5.73488 248.374 3.3584 249.817 0.913979 251.247C0.132239 251.705 -0.119124 252.619 0.352842 253.293C0.718882 253.816 1.41493 254.036 2.0741 253.895L2.07461 253.897ZM16.1028 244.995C16.3361 244.945 16.5652 244.848 16.7706 244.707C19.1217 243.078 21.3845 241.42 23.5042 239.783C24.2132 239.235 24.3188 238.302 23.7408 237.703C23.1623 237.102 22.1186 237.061 21.4119 237.606C19.3413 239.208 17.1245 240.828 14.8258 242.424C14.0866 242.936 13.9232 243.863 14.4601 244.496C14.8487 244.951 15.4957 245.127 16.1033 244.997L16.1028 244.995ZM29.0926 234.914C29.391 234.85 29.6797 234.713 29.9186 234.503C32.0384 232.639 34.0582 230.731 35.9174 228.828C36.5324 228.198 36.486 227.271 35.8094 226.755C35.1333 226.242 34.0871 226.336 33.4716 226.964C31.6702 228.804 29.7149 230.656 27.6593 232.461C26.9925 233.047 26.955 233.98 27.5817 234.541C27.9814 234.902 28.5578 235.025 29.0976 234.91L29.0926 234.914ZM40.3673 223.338C40.7579 223.254 41.125 223.046 41.3838 222.729C43.1175 220.609 44.737 218.418 46.1998 216.211C46.6744 215.494 46.4257 214.602 45.6466 214.218C44.8648 213.835 43.8469 214.102 43.3723 214.819C41.967 216.937 40.4093 219.044 38.7434 221.083C38.1916 221.757 38.3377 222.673 39.0665 223.127C39.4523 223.369 39.9279 223.432 40.37 223.337L40.3673 223.338ZM49.0723 210.196C49.5769 210.088 50.0298 209.776 50.2652 209.322C51.4657 207.014 52.5698 204.6 53.5404 202.144C53.8487 201.366 53.4022 200.544 52.5392 200.312C51.6789 200.08 50.7292 200.522 50.4214 201.304C49.4851 203.667 48.4267 205.99 47.2698 208.208C46.8791 208.96 47.2288 209.82 48.0571 210.129C48.3836 210.251 48.7387 210.267 49.0696 210.196L49.0723 210.196ZM54.7607 195.907C55.371 195.776 55.8927 195.348 56.0597 194.772C56.7527 192.398 57.3759 189.882 57.9131 187.294C58.0796 186.489 57.4891 185.75 56.5902 185.643C55.6918 185.539 54.8252 186.106 54.6586 186.911C54.1349 189.429 53.5306 191.873 52.857 194.178C52.6263 194.975 53.154 195.752 54.0397 195.916C54.2845 195.961 54.5301 195.956 54.7634 195.906L54.7607 195.907ZM57.8857 181.097C58.572 180.95 59.1302 180.427 59.2242 179.774C59.5693 177.377 59.8634 174.914 60.1222 172.244C60.2023 171.432 59.5249 170.752 58.6145 170.725C57.7047 170.7 56.9009 171.336 56.824 172.15C56.5745 174.743 56.275 177.235 55.9424 179.556C55.8251 180.366 56.4658 181.074 57.3741 181.132C57.5497 181.144 57.7224 181.129 57.8906 181.093L57.8857 181.097ZM59.368 166.15C60.1004 165.993 60.6725 165.415 60.7156 164.723C60.8635 162.386 60.9921 159.931 61.105 157.215C61.1396 156.403 60.4266 155.755 59.5107 155.769C58.5982 155.785 57.8296 156.453 57.7954 157.268C57.6817 159.966 57.5578 162.403 57.4085 164.72C57.3571 165.534 58.0559 166.194 58.9693 166.196C59.1056 166.196 59.2383 166.18 59.3685 166.153L59.368 166.15ZM60.0139 151.19C60.7653 151.03 61.3431 150.425 61.3632 149.718C61.426 147.581 61.4832 145.271 61.5532 142.233C61.5706 141.419 60.846 140.784 59.9305 140.813C59.015 140.842 58.2603 141.521 58.243 142.335C58.1746 145.368 58.1164 147.673 58.0554 149.805C58.0321 150.617 58.755 151.258 59.6687 151.234C59.7872 151.231 59.9032 151.216 60.0171 151.192L60.0139 151.19ZM60.3682 136.233C61.1251 136.071 61.7019 135.462 61.7183 134.75C61.7736 132.311 61.8296 129.822 61.894 127.278C61.9146 126.466 61.1922 125.828 60.2757 125.852C59.3624 125.878 58.6045 126.556 58.5817 127.371C58.5151 129.918 58.4601 132.412 58.4053 134.853C58.388 135.667 59.1125 136.302 60.028 136.273C60.1433 136.269 60.2565 136.254 60.365 136.231L60.3682 136.233ZM60.7621 121.275C61.5108 121.115 62.0891 120.512 62.1124 119.807C62.1983 117.204 62.2866 114.76 62.3882 112.338C62.4228 111.526 61.7098 110.878 60.794 110.892C59.8814 110.908 59.1128 111.576 59.0787 112.391C58.9764 114.823 58.8864 117.272 58.8026 119.884C58.7766 120.697 59.494 121.339 60.4083 121.318C60.5295 121.314 60.646 121.302 60.7626 121.277L60.7621 121.275ZM61.4724 106.311C62.1858 106.158 62.7537 105.601 62.8172 104.924C63.0522 102.476 63.4086 100.013 63.875 97.5999C64.0324 96.7912 63.4293 96.0603 62.527 95.9642C61.6247 95.8681 60.7688 96.445 60.6114 97.2538C60.1258 99.7502 59.7568 102.302 59.5169 104.833C59.4395 105.644 60.1142 106.325 61.0267 106.349C61.1781 106.354 61.3281 106.339 61.4719 106.309L61.4724 106.311ZM64.3526 91.4839C64.9602 91.3539 65.4797 90.9288 65.6499 90.354C66.3555 87.9725 67.1916 85.578 68.1302 83.2388C68.4445 82.4613 68.0006 81.6391 67.1394 81.4021C66.2813 81.1669 65.3306 81.6046 65.0168 82.3845C64.0423 84.8086 63.1785 87.2863 62.4479 89.7504C62.2112 90.5462 62.7368 91.326 63.6202 91.4935C63.8656 91.5407 64.1139 91.5349 64.3499 91.4844L64.3526 91.4839ZM70.0908 77.1893C70.5981 77.0808 71.0554 76.7637 71.2898 76.3048C72.4353 74.0585 73.7113 71.7992 75.0806 69.5922C75.5331 68.8649 75.2546 67.9798 74.4574 67.617C73.6629 67.2536 72.651 67.5498 72.1989 68.2796C70.7853 70.5583 69.4682 72.8912 68.2821 75.2135C67.8979 75.9686 68.2585 76.8261 69.088 77.1272C69.4135 77.2445 69.7599 77.2601 70.0881 77.1899L70.0908 77.1893ZM78.3841 63.8038C78.8045 63.7139 79.1946 63.4809 79.4518 63.1293C80.9689 61.0577 82.6122 58.979 84.3332 56.946C84.8979 56.2794 84.7713 55.3619 84.0513 54.8954C83.3313 54.4288 82.291 54.5915 81.7264 55.2581C79.9575 57.3462 78.2679 59.4871 76.7061 61.6156C76.1934 62.3134 76.3938 63.2176 77.1518 63.6362C77.5274 63.8425 77.969 63.8926 78.3813 63.8044L78.3841 63.8038ZM88.7417 51.5543C89.0889 51.48 89.4154 51.308 89.6691 51.0469C91.4863 49.1603 93.4189 47.269 95.4124 45.4245C96.0616 44.822 96.0682 43.891 95.4278 43.3451C94.7842 42.7974 93.7364 42.8445 93.0868 43.4446C91.0456 45.3317 89.0691 47.2698 87.2078 49.2032C86.5966 49.8374 86.6543 50.7646 87.3348 51.272C87.7328 51.5707 88.2561 51.6582 88.7444 51.5537L88.7417 51.5543ZM100.709 40.4633C100.994 40.4024 101.268 40.2765 101.502 40.082C103.545 38.3788 105.696 36.6751 107.891 35.0168C108.607 34.4772 108.724 33.545 108.153 32.9394C107.582 32.3313 106.541 32.2773 105.828 32.8187C103.589 34.5112 101.395 36.2493 99.3101 37.9861C98.6257 38.5562 98.5601 39.4899 99.1649 40.0684C99.5638 40.4516 100.156 40.5841 100.71 40.4657L100.709 40.4633ZM113.874 30.4994C114.107 30.4495 114.334 30.3561 114.539 30.2126C116.761 28.6807 119.073 27.1493 121.415 25.6663C122.177 25.1818 122.391 24.2614 121.886 23.6067C121.382 22.9544 120.357 22.8147 119.592 23.2998C117.21 24.8088 114.857 26.3638 112.599 27.9235C111.857 28.4361 111.69 29.3615 112.227 29.9944C112.614 30.4525 113.264 30.63 113.874 30.4994ZM127.935 21.5799C128.125 21.5393 128.312 21.4695 128.486 21.3675C130.842 19.9911 133.281 18.6247 135.731 17.303C136.53 16.8705 136.822 15.9631 136.378 15.273C135.937 14.5847 134.929 14.3767 134.127 14.8074C131.641 16.1492 129.165 17.5362 126.775 18.932C125.993 19.3885 125.74 20.305 126.211 20.9768C126.577 21.4992 127.274 21.7215 127.933 21.5805L127.935 21.5799ZM142.68 13.6233C142.832 13.5908 142.983 13.5387 143.127 13.468C145.594 12.2375 148.126 11.0229 150.658 9.85583C151.487 9.47408 151.848 8.58191 151.46 7.86477C151.076 7.14706 150.09 6.87428 149.262 7.25841C146.696 8.44014 144.128 9.67246 141.628 10.92C140.812 11.3263 140.487 12.2258 140.9 12.9324C141.242 13.5123 141.976 13.7766 142.678 13.6263L142.68 13.6233ZM157.967 6.57519C158.084 6.55024 158.198 6.51337 158.313 6.46638C160.901 5.36693 163.514 4.30453 166.079 3.30734C166.933 2.97514 167.36 2.10358 167.033 1.36118C166.705 0.618772 165.747 0.285417 164.893 0.61762C162.291 1.6277 159.644 2.7048 157.02 3.82191C156.177 4.17917 155.785 5.06046 156.142 5.79171C156.452 6.42328 157.221 6.73475 157.967 6.57519Z" fill="#01D0FF"/>
</svg>
