<svg width="22" height="90" viewBox="0 0 22 90" fill="none" xmlns="http://www.w3.org/2000/svg">
<path d="M3.51654 89.0754C3.47986 89.0314 3.44928 88.9812 3.4275 88.9248C3.116 88.1368 2.82374 87.3572 2.55716 86.6085C2.46744 86.3572 2.58677 86.1054 2.82273 86.0452C3.05869 85.985 3.32208 86.1407 3.4118 86.3921C3.67328 87.129 3.96207 87.8965 4.26899 88.6734C4.36687 88.9222 4.25873 89.1796 4.0263 89.2496C3.84613 89.3038 3.64444 89.2278 3.5171 89.075L3.51654 89.0754ZM1.88194 84.4558C1.83688 84.4017 1.80125 84.3376 1.77927 84.2675C1.53036 83.4614 1.30713 82.6649 1.11336 81.8992C1.04862 81.6431 1.19399 81.4079 1.43736 81.3746C1.68129 81.3408 1.93107 81.5217 1.99584 81.7768C2.18465 82.5253 2.404 83.3048 2.64687 84.0935C2.7252 84.3469 2.59417 84.5914 2.35418 84.64C2.181 84.6745 1.99878 84.5972 1.88139 84.4563L1.88194 84.4558ZM0.703204 79.7527C0.645559 79.6835 0.603424 79.5992 0.586341 79.5069C0.433884 78.6887 0.312543 77.8787 0.227699 77.099C0.19973 76.8409 0.379471 76.6347 0.630536 76.6387C0.881049 76.6431 1.10679 76.8557 1.13532 77.1133C1.2181 77.8681 1.33466 78.6533 1.48291 79.4462C1.53088 79.7036 1.36962 79.9264 1.12183 79.9421C0.963297 79.9526 0.806995 79.8761 0.702708 79.7509L0.703204 79.7527ZM0.195092 75.0162C0.119629 74.9256 0.0723366 74.8105 0.0700205 74.6899C0.0539364 73.8827 0.0771678 73.0801 0.139735 72.3023C0.160239 72.0497 0.380421 71.8887 0.631309 71.9418C0.88272 71.9956 1.07029 72.2432 1.04979 72.4958C0.990182 73.2424 0.967734 74.0145 0.982998 74.7903C0.988316 75.047 0.787499 75.2324 0.535419 75.2047C0.401833 75.1903 0.279987 75.1181 0.194566 75.0155L0.195092 75.0162ZM0.569022 70.3857C0.471548 70.2687 0.423112 70.114 0.451207 69.9659C0.593088 69.2126 0.776739 68.4522 0.998905 67.7066C1.06923 67.47 1.32264 67.3612 1.56522 67.465C1.80726 67.5681 1.94713 67.8437 1.87625 68.0807C1.66289 68.7988 1.4854 69.5295 1.34965 70.2543C1.3034 70.4996 1.06552 70.6349 0.81693 70.5553C0.718884 70.524 0.633479 70.463 0.569545 70.3863L0.569022 70.3857ZM1.85229 66.0398C1.73438 65.8982 1.69128 65.704 1.75759 65.54C2.02929 64.864 2.3431 64.1678 2.68987 63.4708C2.79805 63.2538 3.06974 63.1905 3.2979 63.3297C3.5255 63.4694 3.62343 63.7586 3.51526 63.9756C3.17814 64.6539 2.87295 65.3301 2.60931 65.9867C2.51763 66.2133 2.25352 66.2969 2.01794 66.1735C1.95292 66.1392 1.89684 66.0932 1.85177 66.0391L1.85229 66.0398ZM3.82564 62.0408C3.69305 61.8816 3.65879 61.6587 3.756 61.4903C4.11263 60.8724 4.49319 60.2485 4.91964 59.5831C5.04905 59.3805 5.33026 59.3466 5.54655 59.5063C5.76229 59.6665 5.83309 59.9603 5.7026 60.1627C5.28799 60.8087 4.90346 61.4402 4.55759 62.0384C4.4372 62.2474 4.15945 62.2944 3.9381 62.1421C3.8951 62.1129 3.85763 62.0781 3.82514 62.0391L3.82564 62.0408ZM6.20534 58.3096C6.06385 58.1397 6.03645 57.9015 6.15256 57.7333C6.54411 57.1652 6.96166 56.5734 7.43037 55.9239C7.57038 55.7295 7.85393 55.7096 8.06401 55.8799C8.27301 56.05 8.32975 56.3448 8.18919 56.5396C7.72381 57.1852 7.30856 57.772 6.9209 58.3358C6.78459 58.5335 6.50198 58.559 6.28964 58.3928C6.25786 58.3681 6.22994 58.3402 6.20479 58.31L6.20534 58.3096ZM8.78162 54.7279C8.63645 54.5537 8.61248 54.3083 8.73668 54.1409C9.11152 53.6347 9.51923 53.0893 10.0566 52.3731C10.2009 52.1815 10.4848 52.1666 10.6921 52.3403C10.8994 52.5139 10.9508 52.8089 10.8065 53.0005C10.2697 53.7152 9.86308 54.2596 9.48881 54.7643C9.34615 54.9567 9.06162 54.9731 8.85374 54.801C8.82677 54.7787 8.80255 54.7542 8.78054 54.7277L8.78162 54.7279ZM11.4251 51.2C11.2789 51.0245 11.256 50.7782 11.3819 50.6105C11.8135 50.0356 12.2542 49.449 12.7027 48.8484C12.8459 48.6566 13.1299 48.6406 13.3383 48.8133C13.5456 48.9859 13.598 49.2811 13.4548 49.4739C13.0062 50.0757 12.5645 50.6632 12.1323 51.2386C11.988 51.4301 11.704 51.445 11.4967 51.2714C11.4708 51.2493 11.4471 51.2253 11.4262 51.2002L11.4251 51.2ZM14.0596 47.6647C13.915 47.4911 13.8904 47.2462 14.0136 47.0786C14.468 46.4603 14.8928 45.8783 15.3106 45.299C15.4506 45.1046 15.7341 45.0847 15.9442 45.2549C16.1532 45.425 16.21 45.7198 16.0694 45.9147C15.65 46.4964 15.2245 47.08 14.7679 47.7001C14.6258 47.8931 14.3423 47.9109 14.1339 47.7392C14.1064 47.7163 14.0816 47.6922 14.0591 47.6651L14.0596 47.6647ZM16.6216 44.0704C16.4838 43.905 16.4536 43.6723 16.5621 43.504C16.9536 42.8944 17.3199 42.2589 17.6513 41.6152C17.7621 41.3993 18.0353 41.34 18.2623 41.4823C18.4893 41.6246 18.5829 41.9143 18.4721 42.1303C18.1299 42.7969 17.7506 43.4549 17.345 44.0847C17.2151 44.2868 16.9344 44.3213 16.7182 44.1605C16.6821 44.134 16.6499 44.1033 16.6222 44.0699L16.6216 44.0704ZM18.655 40.112C18.5376 39.9711 18.4944 39.7779 18.5597 39.6138C18.8299 38.9337 19.0721 38.2268 19.2805 37.514C19.3492 37.2766 19.6021 37.1672 19.8452 37.2694C20.0873 37.3714 20.2283 37.6461 20.159 37.884C19.9435 38.623 19.6925 39.3542 19.4131 40.058C19.323 40.2854 19.0589 40.3701 18.8233 40.2478C18.7577 40.214 18.7011 40.1674 18.6555 40.1126L18.655 40.112ZM19.9277 35.7557C19.8297 35.6381 19.7813 35.4812 19.8105 35.3322C19.9539 34.6032 20.0694 33.8474 20.1537 33.0866C20.1812 32.8357 20.4071 32.6816 20.6583 32.743C20.909 32.8037 21.09 33.0568 21.0619 33.3082C20.9749 34.0937 20.8555 34.874 20.7077 35.6281C20.6593 35.873 20.4193 36.0058 20.1719 35.9242C20.0749 35.892 19.9916 35.8324 19.9282 35.7563L19.9277 35.7557ZM20.4416 31.1439C20.3604 31.0464 20.3122 30.9213 20.3166 30.793C20.3419 30.0367 20.3392 29.2557 20.3101 28.4711C20.3005 28.2138 20.4971 28.0244 20.7493 28.0477C21.0015 28.071 21.2133 28.2983 21.2229 28.5557C21.2531 29.3617 21.2552 30.1656 21.2299 30.9433C21.2218 31.1983 21.0105 31.3712 20.7582 31.3298C20.6334 31.3091 20.5218 31.2402 20.4421 31.1446L20.4416 31.1439ZM20.2692 26.4187C20.2021 26.3382 20.1576 26.2388 20.1463 26.1321C20.0682 25.3638 19.9642 24.5735 19.8375 23.7828C19.7965 23.525 19.9647 23.3082 20.2128 23.2986C20.4621 23.2891 20.6968 23.4911 20.7382 23.7485C20.8682 24.5577 20.9739 25.3669 21.0537 26.154C21.0801 26.4124 20.8977 26.6165 20.6472 26.6099C20.5004 26.6065 20.363 26.5313 20.2686 26.4181L20.2692 26.4187ZM19.5119 21.6682C19.4568 21.6021 19.4162 21.523 19.3974 21.4353C19.2333 20.6683 19.0444 19.8816 18.8371 19.0974C18.7691 18.8418 18.9118 18.6046 19.1547 18.5685C19.3982 18.5319 19.6497 18.7092 19.7166 18.9646C19.9278 19.7647 20.1207 20.5674 20.2881 21.3497C20.3431 21.6065 20.1882 21.8347 19.9423 21.8583C19.7799 21.8743 19.6182 21.797 19.5113 21.6686L19.5119 21.6682ZM18.2711 16.9602C18.2261 16.9061 18.1904 16.8431 18.169 16.7725C17.9324 16.0126 17.6746 15.2364 17.401 14.4658C17.3124 14.2146 17.4306 13.9626 17.6671 13.9031C17.903 13.844 18.1665 13.9986 18.2556 14.2504C18.5337 15.0343 18.7966 15.8234 19.0366 16.5963C19.1155 16.8503 18.9855 17.095 18.7455 17.1436C18.5723 17.1792 18.389 17.1017 18.2711 16.9602V16.9602ZM16.6319 12.3305C16.5952 12.2865 16.5646 12.2363 16.5428 12.181C16.2465 11.4325 15.9295 10.6715 15.6014 9.9186C15.4948 9.6728 15.5923 9.40936 15.8212 9.33058C16.049 9.25163 16.321 9.38735 16.4287 9.63331C16.7613 10.3973 17.0835 11.1701 17.3838 11.929C17.4822 12.1773 17.3741 12.4358 17.1422 12.5054C16.962 12.5596 16.7598 12.484 16.6324 12.3312L16.6319 12.3305ZM14.6586 7.7992C14.6292 7.76397 14.6037 7.72444 14.5832 7.68185C14.2347 6.94705 13.8681 6.20392 13.493 5.47205C13.3701 5.23242 13.4489 4.96003 13.6695 4.86465C13.8897 4.76865 14.1681 4.88515 14.2905 5.12524C14.6707 5.86667 15.0425 6.62044 15.3956 7.36526C15.5109 7.60806 15.4225 7.87565 15.1977 7.96382C15.0128 8.03585 14.7943 7.96321 14.6585 7.80029L14.6586 7.7992ZM12.3939 3.37945C12.3714 3.3524 12.3516 3.32305 12.3335 3.29123C11.9329 2.56464 11.5198 1.84208 11.1061 1.14348C10.9684 0.910821 11.028 0.631034 11.2393 0.518888C11.4507 0.406742 11.7339 0.504322 11.8716 0.736979C12.2916 1.44531 12.7098 2.17742 13.1155 2.91466C13.2461 3.15112 13.1764 3.42658 12.9604 3.53088C12.7734 3.62062 12.538 3.55243 12.3939 3.37945V3.37945Z" fill="#01D0FF"/>
</svg>
