<svg width="168" height="255" viewBox="0 0 168 255" fill="none" xmlns="http://www.w3.org/2000/svg">
<path d="M165.925 254.185C165.735 254.145 165.549 254.075 165.373 253.97C162.893 252.52 160.482 251.052 158.204 249.613C157.438 249.13 157.229 248.208 157.731 247.553C158.233 246.897 159.26 246.761 160.025 247.243C162.265 248.662 164.641 250.105 167.086 251.535C167.868 251.994 168.119 252.907 167.647 253.582C167.281 254.104 166.585 254.324 165.926 254.183L165.925 254.185ZM151.897 245.283C151.664 245.233 151.435 245.137 151.229 244.995C148.878 243.366 146.615 241.708 144.496 240.071C143.787 239.523 143.681 238.591 144.259 237.992C144.837 237.39 145.881 237.349 146.588 237.894C148.658 239.496 150.875 241.117 153.174 242.712C153.913 243.224 154.077 244.152 153.54 244.784C153.151 245.24 152.504 245.415 151.896 245.285L151.897 245.283ZM138.907 235.202C138.609 235.138 138.32 235.002 138.081 234.791C135.961 232.927 133.942 231.019 132.082 229.116C131.467 228.486 131.514 227.559 132.19 227.043C132.866 226.53 133.913 226.624 134.528 227.252C136.33 229.093 138.285 230.944 140.34 232.75C141.007 233.336 141.045 234.268 140.418 234.83C140.018 235.19 139.442 235.314 138.902 235.198L138.907 235.202ZM127.632 223.626C127.242 223.543 126.875 223.334 126.616 223.017C124.882 220.897 123.263 218.706 121.8 216.499C121.325 215.782 121.574 214.891 122.353 214.507C123.135 214.123 124.153 214.391 124.627 215.108C126.033 217.225 127.59 219.333 129.256 221.371C129.808 222.045 129.662 222.961 128.933 223.416C128.547 223.657 128.072 223.72 127.63 223.625L127.632 223.626ZM118.927 210.484C118.423 210.376 117.97 210.065 117.735 209.611C116.534 207.303 115.43 204.888 114.459 202.433C114.151 201.654 114.598 200.832 115.461 200.601C116.321 200.368 117.271 200.811 117.578 201.592C118.515 203.956 119.573 206.278 120.73 208.497C121.121 209.248 120.771 210.108 119.943 210.417C119.616 210.539 119.261 210.555 118.93 210.484L118.927 210.484ZM113.239 196.195C112.629 196.065 112.107 195.636 111.94 195.06C111.247 192.686 110.624 190.17 110.087 187.583C109.92 186.777 110.511 186.039 111.41 185.932C112.308 185.827 113.175 186.394 113.341 187.2C113.865 189.717 114.469 192.161 115.143 194.466C115.374 195.263 114.846 196.04 113.96 196.205C113.715 196.25 113.47 196.244 113.236 196.194L113.239 196.195ZM110.114 181.385C109.428 181.239 108.87 180.715 108.776 180.062C108.431 177.666 108.136 175.203 107.878 172.533C107.797 171.721 108.475 171.041 109.385 171.013C110.295 170.989 111.099 171.624 111.176 172.438C111.425 175.031 111.725 177.523 112.057 179.845C112.175 180.655 111.534 181.363 110.626 181.42C110.45 181.432 110.277 181.418 110.109 181.382L110.114 181.385ZM108.632 166.438C107.899 166.282 107.327 165.703 107.284 165.011C107.136 162.674 107.008 160.219 106.895 157.503C106.86 156.691 107.573 156.043 108.489 156.057C109.402 156.073 110.17 156.741 110.204 157.556C110.318 160.254 110.442 162.691 110.591 165.008C110.643 165.822 109.944 166.482 109.03 166.484C108.894 166.485 108.761 166.469 108.631 166.441L108.632 166.438ZM107.986 151.479C107.234 151.318 106.657 150.713 106.637 150.006C106.574 147.869 106.517 145.559 106.447 142.521C106.429 141.707 107.154 141.072 108.069 141.101C108.985 141.13 109.739 141.81 109.757 142.623C109.825 145.656 109.883 147.962 109.944 150.093C109.968 150.906 109.245 151.546 108.331 151.523C108.213 151.52 108.097 151.505 107.983 151.48L107.986 151.479ZM107.632 136.521C106.875 136.359 106.298 135.75 106.281 135.039C106.226 132.599 106.17 130.11 106.106 127.567C106.085 126.755 106.808 126.117 107.724 126.141C108.637 126.167 109.395 126.845 109.418 127.66C109.485 130.206 109.54 132.7 109.594 135.142C109.612 135.955 108.887 136.591 107.972 136.562C107.856 136.557 107.743 136.543 107.635 136.52L107.632 136.521ZM107.238 121.563C106.489 121.403 105.911 120.801 105.887 120.095C105.801 117.492 105.713 115.049 105.612 112.627C105.577 111.814 106.29 111.167 107.206 111.181C108.118 111.197 108.887 111.864 108.921 112.679C109.023 115.111 109.113 117.56 109.197 120.173C109.223 120.986 108.506 121.627 107.591 121.606C107.47 121.603 107.354 121.59 107.237 121.565L107.238 121.563ZM106.527 106.599C105.814 106.447 105.246 105.889 105.183 105.213C104.948 102.765 104.591 100.301 104.125 97.8883C103.967 97.0795 104.57 96.3487 105.473 96.2526C106.375 96.1565 107.231 96.7333 107.388 97.5421C107.874 100.039 108.243 102.59 108.483 105.121C108.56 105.933 107.886 106.613 106.973 106.637C106.822 106.642 106.672 106.628 106.528 106.597L106.527 106.599ZM103.647 91.7722C103.04 91.6422 102.52 91.2171 102.35 90.6424C101.644 88.2608 100.808 85.8663 99.8695 83.5272C99.5553 82.7496 99.9991 81.9274 100.86 81.6904C101.718 81.4553 102.669 81.8929 102.983 82.6728C103.957 85.0969 104.821 87.5746 105.552 90.0387C105.789 90.8346 105.263 91.6144 104.38 91.7818C104.134 91.829 103.886 91.8233 103.65 91.7728L103.647 91.7722ZM97.9089 77.4777C97.4017 77.3692 96.9443 77.052 96.7099 76.5931C95.5645 74.3468 94.2885 72.0875 92.9191 69.8805C92.4666 69.1532 92.7451 68.2682 93.5424 67.9054C94.3369 67.542 95.3488 67.8382 95.8008 68.5679C97.2145 70.8467 98.5316 73.1795 99.7176 75.5019C100.102 76.257 99.7413 77.1145 98.9118 77.4155C98.5863 77.5328 98.2399 77.5485 97.9116 77.4783L97.9089 77.4777ZM89.6157 64.0921C89.1952 64.0022 88.8051 63.7692 88.548 63.4176C87.0308 61.346 85.3875 59.2673 83.6665 57.2344C83.1019 56.5678 83.2285 55.6503 83.9485 55.1837C84.6685 54.7171 85.7087 54.8798 86.2734 55.5464C88.0423 57.6345 89.7319 59.7754 91.2936 61.9039C91.8063 62.6018 91.606 63.506 90.8479 63.9245C90.4724 64.1308 90.0307 64.1809 89.6184 64.0927L89.6157 64.0921ZM79.2581 51.8426C78.9109 51.7684 78.5844 51.5963 78.3307 51.3352C76.5134 49.4486 74.5809 47.5573 72.5874 45.7128C71.9382 45.1104 71.9315 44.1793 72.572 43.6334C73.2156 43.0857 74.2633 43.1329 74.913 43.7329C76.9542 45.62 78.9307 47.5581 80.7919 49.4915C81.4032 50.1257 81.3454 51.0529 80.6649 51.5604C80.267 51.859 79.7436 51.9465 79.2554 51.8421L79.2581 51.8426ZM67.2907 40.7517C67.0059 40.6907 66.732 40.5649 66.4982 40.3703C64.4549 38.6671 62.3039 36.9634 60.1092 35.3051C59.3928 34.7656 59.2758 33.8333 59.8467 33.2277C60.418 32.6197 61.4589 32.5657 62.1721 33.107C64.4105 34.7996 66.6052 36.5376 68.6897 38.2745C69.3741 38.8446 69.4397 39.7783 68.8349 40.3567C68.436 40.7399 67.8436 40.8724 67.2902 40.754L67.2907 40.7517ZM54.1257 30.7877C53.8924 30.7378 53.6656 30.6445 53.4606 30.5009C51.2392 28.969 48.9268 27.4376 46.5844 25.9546C45.8223 25.4701 45.6092 24.5497 46.1139 23.895C46.6181 23.2427 47.6431 23.1031 48.4079 23.5882C50.7902 25.0972 53.1429 26.6521 55.401 28.2118C56.143 28.7244 56.3096 29.6498 55.7727 30.2827C55.3862 30.7409 54.7361 30.9183 54.1257 30.7877ZM40.0643 21.8683C39.8744 21.8276 39.6879 21.7578 39.5139 21.6558C37.1573 20.2794 34.7192 18.913 32.2688 17.5914C31.4702 17.1588 31.1778 16.2514 31.6219 15.5613C32.0629 14.8731 33.0711 14.6651 33.873 15.0958C36.3589 16.4375 38.8351 17.8245 41.2244 19.2204C42.0066 19.6768 42.2602 20.5934 41.7888 21.2651C41.4227 21.7875 40.7262 22.0098 40.067 21.8688L40.0643 21.8683ZM25.3193 13.9116C25.1674 13.8791 25.0168 13.827 24.873 13.7564C22.4061 12.5259 19.8735 11.3112 17.342 10.1442C16.5128 9.76241 16.1519 8.87024 16.5394 8.1531C16.9242 7.43539 17.9094 7.16261 18.7381 7.54674C21.3033 8.72847 23.8719 9.96079 26.3721 11.2084C27.1876 11.6146 27.5129 12.5141 27.0993 13.2207C26.7579 13.8006 26.0241 14.0649 25.3215 13.9146L25.3193 13.9116ZM10.0328 6.86352C9.91616 6.83857 9.80205 6.8017 9.68725 6.75471C7.09896 5.65526 4.48579 4.59286 1.92118 3.59567C1.06721 3.26347 0.639601 2.39191 0.967251 1.64951C1.2949 0.907102 2.2532 0.573748 3.10717 0.90595C5.70875 1.91603 8.35566 2.99313 10.9799 4.11024C11.8229 4.4675 12.2144 5.34879 11.8579 6.08004C11.5481 6.71161 10.7788 7.02308 10.0328 6.86352Z" fill="#01D0FF"/>
</svg>
