<svg width="22" height="90" viewBox="0 0 22 90" fill="none" xmlns="http://www.w3.org/2000/svg">
<path d="M4.18195 89.2012C4.14527 89.1571 4.11468 89.107 4.0929 89.0505C3.78141 88.2625 3.48915 87.483 3.22256 86.7343C3.13285 86.4829 3.25217 86.2311 3.48814 86.1709C3.72409 86.1108 3.98749 86.2664 4.0772 86.5178C4.33868 87.2548 4.62748 88.0223 4.93439 88.7992C5.03228 89.048 4.92414 89.3054 4.69171 89.3754C4.51153 89.4296 4.30985 89.3536 4.1825 89.2007L4.18195 89.2012ZM2.54735 84.5815C2.50228 84.5274 2.46665 84.4634 2.44468 84.3932C2.19577 83.5872 1.97254 82.7906 1.77877 82.0249C1.71402 81.7688 1.85939 81.5337 2.10277 81.5003C2.3467 81.4666 2.59648 81.6474 2.66125 81.9025C2.85006 82.651 3.0694 83.4305 3.31228 84.2192C3.3906 84.4726 3.25957 84.7171 3.01959 84.7657C2.8464 84.8002 2.66419 84.7229 2.5468 84.582L2.54735 84.5815ZM1.36861 79.8784C1.31096 79.8092 1.26883 79.725 1.25175 79.6326C1.09929 78.8144 0.977949 78.0044 0.893106 77.2247C0.865136 76.9667 1.04488 76.7605 1.29594 76.7644C1.54645 76.7688 1.7722 76.9815 1.80072 77.239C1.8835 77.9938 2.00007 78.779 2.14831 79.572C2.19628 79.8293 2.03502 80.0521 1.78723 80.0678C1.6287 80.0784 1.4724 80.0019 1.36811 79.8767L1.36861 79.8784ZM0.860499 75.1419C0.785034 75.0513 0.737741 74.9362 0.735425 74.8156C0.719343 74.0085 0.742573 73.2059 0.805141 72.428C0.825643 72.1755 1.04583 72.0144 1.29671 72.0675C1.54812 72.1213 1.7357 72.3689 1.7152 72.6215C1.65559 73.3681 1.63314 74.1402 1.6484 74.916C1.65372 75.1727 1.4529 75.3581 1.20082 75.3305C1.06724 75.316 0.945394 75.2438 0.859972 75.1413L0.860499 75.1419ZM1.23443 70.5114C1.13695 70.3944 1.08852 70.2397 1.11661 70.0916C1.25849 69.3383 1.44215 68.5779 1.66431 67.8323C1.73464 67.5958 1.98805 67.487 2.23062 67.5907C2.47267 67.6938 2.61254 67.9695 2.54166 68.2065C2.3283 68.9245 2.1508 69.6553 2.01505 70.38C1.96881 70.6253 1.73093 70.7606 1.48234 70.681C1.38429 70.6498 1.29888 70.5888 1.23495 70.512L1.23443 70.5114ZM2.5177 66.1655C2.39979 66.024 2.35669 65.8297 2.42299 65.6658C2.69469 64.9897 3.0085 64.2935 3.35528 63.5965C3.46345 63.3796 3.73514 63.3163 3.9633 63.4555C4.19091 63.5951 4.28884 63.8844 4.18066 64.1013C3.84355 64.7796 3.53836 65.4559 3.27472 66.1124C3.18304 66.339 2.91893 66.4227 2.68334 66.2992C2.61832 66.265 2.56224 66.219 2.51717 66.1649L2.5177 66.1655ZM4.49104 62.1665C4.35846 62.0074 4.32419 61.7844 4.4214 61.616C4.77804 60.9982 5.15859 60.3742 5.58504 59.7089C5.71446 59.5062 5.99566 59.4723 6.21195 59.632C6.42769 59.7922 6.4985 60.086 6.368 60.2885C5.9534 60.9344 5.56887 61.5659 5.223 62.1641C5.1026 62.3731 4.82485 62.4202 4.60351 62.2678C4.5605 62.2386 4.52304 62.2038 4.49055 62.1648L4.49104 62.1665ZM6.87075 58.4353C6.72925 58.2655 6.70186 58.0272 6.81797 57.8591C7.20952 57.291 7.62707 56.6991 8.09577 56.0497C8.23578 55.8552 8.51933 55.8354 8.72941 56.0056C8.93842 56.1757 8.99515 56.4705 8.85459 56.6654C8.38922 57.311 7.97396 57.8977 7.58631 58.4615C7.45 58.6593 7.16739 58.6848 6.95504 58.5185C6.92326 58.4939 6.89535 58.466 6.87019 58.4358L6.87075 58.4353ZM9.44702 54.8536C9.30186 54.6794 9.27789 54.434 9.40208 54.2666C9.77693 53.7604 10.1846 53.2151 10.722 52.4988C10.8663 52.3073 11.1502 52.2924 11.3575 52.466C11.5648 52.6396 11.6162 52.9347 11.4719 53.1263C10.9351 53.8409 10.5285 54.3853 10.1542 54.89C10.0116 55.0824 9.72702 55.0989 9.51915 54.9268C9.49217 54.9045 9.46795 54.8799 9.44594 54.8535L9.44702 54.8536ZM12.0905 51.3257C11.9443 51.1502 11.9214 50.904 12.0473 50.7363C12.479 50.1614 12.9196 49.5748 13.3681 48.9741C13.5113 48.7823 13.7953 48.7663 14.0037 48.9391C14.211 49.1116 14.2634 49.4068 14.1202 49.5997C13.6716 50.2014 13.2299 50.7889 12.7977 51.3643C12.6534 51.5559 12.3694 51.5708 12.1621 51.3971C12.1362 51.375 12.1126 51.3511 12.0916 51.3259L12.0905 51.3257ZM14.725 47.7904C14.5804 47.6168 14.5559 47.3719 14.679 47.2043C15.1334 46.586 15.5582 46.004 15.976 45.4247C16.116 45.2303 16.3996 45.2104 16.6096 45.3807C16.8186 45.5507 16.8754 45.8455 16.7348 46.0404C16.3154 46.6222 15.8899 47.2057 15.4333 47.8259C15.2912 48.0189 15.0077 48.0366 14.7993 47.865C14.7718 47.8421 14.747 47.8179 14.7245 47.7909L14.725 47.7904ZM17.287 44.1961C17.1492 44.0307 17.119 43.798 17.2275 43.6298C17.619 43.0201 17.9853 42.3847 18.3167 41.741C18.4275 41.525 18.7007 41.4658 18.9277 41.6081C19.1547 41.7504 19.2483 42.04 19.1375 42.256C18.7953 42.9226 18.416 43.5806 18.0105 44.2105C17.8805 44.4125 17.5998 44.447 17.3836 44.2862C17.3475 44.2598 17.3154 44.229 17.2876 44.1957L17.287 44.1961ZM19.3204 40.2377C19.203 40.0968 19.1598 39.9036 19.2251 39.7395C19.4953 39.0594 19.7375 38.3525 19.9459 37.6397C20.0146 37.4024 20.2675 37.2929 20.5106 37.3951C20.7527 37.4972 20.8937 37.7719 20.8244 38.0097C20.6089 38.7487 20.3579 39.4799 20.0785 40.1837C19.9884 40.4111 19.7243 40.4959 19.4887 40.3735C19.4231 40.3397 19.3665 40.2931 19.3209 40.2384L19.3204 40.2377ZM20.5931 35.8814C20.4951 35.7638 20.4467 35.607 20.4759 35.458C20.6193 34.7289 20.7348 33.9731 20.8191 33.2124C20.8466 32.9614 21.0725 32.8073 21.3237 32.8687C21.5744 32.9294 21.7554 33.1826 21.7273 33.434C21.6403 34.2194 21.5209 34.9998 21.3731 35.7538C21.3247 35.9987 21.0847 36.1315 20.8373 36.0499C20.7403 36.0177 20.657 35.9582 20.5936 35.8821L20.5931 35.8814ZM21.107 31.2697C21.0258 31.1722 20.9777 31.0471 20.982 30.9188C21.0073 30.1624 21.0046 29.3814 20.9755 28.5968C20.9659 28.3395 21.1625 28.1502 21.4147 28.1734C21.6669 28.1967 21.8787 28.4241 21.8883 28.6814C21.9185 29.4875 21.9206 30.2913 21.8953 31.069C21.8872 31.3241 21.6759 31.4969 21.4236 31.4556C21.2988 31.4348 21.1872 31.3659 21.1075 31.2703L21.107 31.2697ZM20.9346 26.5444C20.8675 26.4639 20.823 26.3646 20.8117 26.2578C20.7336 25.4896 20.6296 24.6992 20.5029 23.9086C20.462 23.6507 20.6301 23.4339 20.8783 23.4243C21.1275 23.4149 21.3622 23.6168 21.4036 23.8743C21.5336 24.6835 21.6393 25.4927 21.7191 26.2798C21.7455 26.5381 21.5631 26.7423 21.3126 26.7357C21.1658 26.7322 21.0284 26.657 20.934 26.5438L20.9346 26.5444ZM20.1773 21.7939C20.1222 21.7278 20.0816 21.6488 20.0628 21.5611C19.8987 20.7941 19.7098 20.0073 19.5025 19.2231C19.4345 18.9675 19.5772 18.7303 19.8201 18.6942C20.0636 18.6576 20.3151 18.8349 20.382 19.0903C20.5932 19.8905 20.7861 20.6932 20.9535 21.4754C21.0085 21.7323 20.8536 21.9604 20.6078 21.9841C20.4453 22.0001 20.2836 21.9227 20.1767 21.7944L20.1773 21.7939ZM18.9365 17.0859C18.8915 17.0318 18.8558 16.9688 18.8344 16.8982C18.5978 16.1384 18.34 15.3621 18.0664 14.5915C17.9778 14.3403 18.096 14.0884 18.3325 14.0288C18.5685 13.9697 18.8319 14.1243 18.921 14.3761C19.1991 15.16 19.462 15.9491 19.702 16.7221C19.7809 16.9761 19.6509 17.2207 19.4109 17.2693C19.2377 17.3049 19.0544 17.2275 18.9365 17.0859ZM17.2973 12.4563C17.2606 12.4122 17.2301 12.3621 17.2082 12.3067C16.9119 11.5582 16.5949 10.7972 16.2668 10.0443C16.1602 9.79853 16.2577 9.5351 16.4866 9.45632C16.7144 9.37736 16.9864 9.51308 17.0941 9.75905C17.4267 10.5231 17.7489 11.2958 18.0492 12.0547C18.1476 12.3031 18.0395 12.5616 17.8076 12.6311C17.6274 12.6853 17.4252 12.6098 17.2978 12.4569L17.2973 12.4563ZM15.324 7.92493C15.2946 7.8897 15.2692 7.85017 15.2486 7.80759C14.9001 7.07278 14.5335 6.32965 14.1584 5.59778C14.0355 5.35815 14.1143 5.08577 14.3349 4.99039C14.5551 4.89438 14.8335 5.01088 14.9559 5.25097C15.3361 5.9924 15.7079 6.74617 16.061 7.49099C16.1763 7.73379 16.0879 8.00139 15.8631 8.08956C15.6782 8.16158 15.4597 8.08894 15.3239 7.92602L15.324 7.92493ZM13.0593 3.50518C13.0368 3.47813 13.017 3.44878 12.9989 3.41697C12.5983 2.69037 12.1852 1.96781 11.7715 1.26921C11.6338 1.03655 11.6934 0.756766 11.9047 0.64462C12.1161 0.532474 12.3993 0.630054 12.5371 0.862711C12.957 1.57104 13.3752 2.30315 13.7809 3.0404C13.9115 3.27685 13.8418 3.55231 13.6258 3.65662C13.4388 3.74635 13.2034 3.67817 13.0593 3.50518Z" fill="#01D0FF"/>
</svg>
