<svg width="96" height="96" viewBox="0 0 96 96" fill="none" xmlns="http://www.w3.org/2000/svg">
<path d="M50.8488 2.09869C50.8342 2.08108 50.8206 2.06254 50.8076 2.04246C50.3936 1.39847 50.145 1.04179 50.143 1.03819C49.9877 0.81589 50.0231 0.529572 50.222 0.397974C50.4209 0.266375 50.7085 0.340049 50.8627 0.562179C50.8732 0.576938 51.1238 0.937219 51.5513 1.60192C51.6978 1.8294 51.65 2.11322 51.4444 2.23447C51.2568 2.34598 51.0029 2.28363 50.8488 2.09869Z" fill="#01D0FF"/>
<path d="M44.5165 92.0754C44.4799 92.0314 44.4493 91.9812 44.4275 91.9248C44.116 91.1368 43.8237 90.3572 43.5572 89.6085C43.4674 89.3572 43.5868 89.1054 43.8227 89.0452C44.0587 88.985 44.3221 89.1407 44.4118 89.3921C44.6733 90.129 44.9621 90.8965 45.269 91.6734C45.3669 91.9222 45.2587 92.1796 45.0263 92.2496C44.8461 92.3038 44.6444 92.2278 44.5171 92.075L44.5165 92.0754ZM42.8819 87.4558C42.8369 87.4017 42.8012 87.3376 42.7793 87.2675C42.5304 86.4614 42.3071 85.6649 42.1134 84.8992C42.0486 84.6431 42.194 84.4079 42.4374 84.3746C42.6813 84.3408 42.9311 84.5217 42.9958 84.7768C43.1847 85.5253 43.404 86.3048 43.6469 87.0935C43.7252 87.3469 43.5942 87.5914 43.3542 87.64C43.181 87.6745 42.9988 87.5972 42.8814 87.4563L42.8819 87.4558ZM41.7032 82.7527C41.6456 82.6835 41.6034 82.5992 41.5863 82.5069C41.4339 81.6887 41.3125 80.8787 41.2277 80.099C41.1997 79.8409 41.3795 79.6347 41.6305 79.6387C41.881 79.6431 42.1068 79.8557 42.1353 80.1133C42.2181 80.8681 42.3347 81.6533 42.4829 82.4462C42.5309 82.7036 42.3696 82.9264 42.1218 82.9421C41.9633 82.9526 41.807 82.8761 41.7027 82.7509L41.7032 82.7527ZM41.1951 78.0162C41.1196 77.9256 41.0723 77.8105 41.07 77.6899C41.0539 76.8827 41.0772 76.0801 41.1397 75.3023C41.1602 75.0497 41.3804 74.8887 41.6313 74.9418C41.8827 74.9956 42.0703 75.2432 42.0498 75.4958C41.9902 76.2423 41.9677 77.0145 41.983 77.7903C41.9883 78.047 41.7875 78.2324 41.5354 78.2047C41.4018 78.1903 41.28 78.1181 41.1946 78.0155L41.1951 78.0162ZM41.569 73.3857C41.4715 73.2687 41.4231 73.114 41.4512 72.9659C41.5931 72.2126 41.7767 71.4522 41.9989 70.7066C42.0692 70.47 42.3226 70.3612 42.5652 70.465C42.8073 70.5681 42.9471 70.8437 42.8763 71.0807C42.6629 71.7988 42.4854 72.5295 42.3496 73.2543C42.3034 73.4996 42.0655 73.6349 41.8169 73.5553C41.7189 73.524 41.6335 73.463 41.5695 73.3863L41.569 73.3857ZM42.8523 69.0398C42.7344 68.8982 42.6913 68.704 42.7576 68.54C43.0293 67.864 43.3431 67.1678 43.6899 66.4708C43.798 66.2538 44.0697 66.1905 44.2979 66.3297C44.5255 66.4694 44.6234 66.7586 44.5153 66.9756C44.1781 67.6539 43.873 68.3301 43.6093 68.9867C43.5176 69.2133 43.2535 69.2969 43.0179 69.1735C42.9529 69.1392 42.8968 69.0932 42.8518 69.0391L42.8523 69.0398ZM44.8256 65.0408C44.6931 64.8816 44.6588 64.6587 44.756 64.4903C45.1126 63.8724 45.4932 63.2485 45.9196 62.5831C46.0491 62.3805 46.3303 62.3466 46.5465 62.5063C46.7623 62.6665 46.8331 62.9603 46.7026 63.1627C46.288 63.8086 45.9035 64.4402 45.5576 65.0384C45.4372 65.2474 45.1594 65.2944 44.9381 65.1421C44.8951 65.1129 44.8576 65.0781 44.8251 65.0391L44.8256 65.0408ZM47.2053 61.3096C47.0638 61.1397 47.0365 60.9015 47.1526 60.7333C47.5441 60.1653 47.9617 59.5734 48.4304 58.9239C48.5704 58.7295 48.8539 58.7096 49.064 58.8799C49.273 59.0499 49.3297 59.3448 49.1892 59.5396C48.7238 60.1852 48.3086 60.772 47.9209 61.3358C47.7846 61.5335 47.502 61.559 47.2896 61.3928C47.2579 61.3681 47.2299 61.3402 47.2048 61.31L47.2053 61.3096ZM49.7816 57.7279C49.6365 57.5537 49.6125 57.3083 49.7367 57.1409C50.1115 56.6347 50.5192 56.0893 51.0566 55.3731C51.2009 55.1815 51.4848 55.1666 51.6921 55.3403C51.8994 55.5139 51.9508 55.8089 51.8065 56.0005C51.2697 56.7152 50.8631 57.2596 50.4888 57.7643C50.3462 57.9567 50.0616 57.9731 49.8537 57.801C49.8268 57.7788 49.8025 57.7542 49.7805 57.7277L49.7816 57.7279ZM52.4251 54.2C52.2789 54.0245 52.256 53.7782 52.3819 53.6105C52.8135 53.0356 53.2542 52.449 53.7027 51.8484C53.8459 51.6566 54.1299 51.6406 54.3383 51.8133C54.5456 51.9859 54.598 52.2811 54.4548 52.4739C54.0062 53.0757 53.5645 53.6632 53.1323 54.2386C52.988 54.4301 52.704 54.445 52.4967 54.2714C52.4708 54.2493 52.4471 54.2253 52.4262 54.2002L52.4251 54.2ZM55.0596 50.6647C54.915 50.4911 54.8905 50.2462 55.0136 50.0786C55.468 49.4603 55.8928 48.8783 56.3106 48.299C56.4506 48.1046 56.7341 48.0847 56.9442 48.2549C57.1532 48.425 57.21 48.7198 57.0694 48.9147C56.65 49.4964 56.2245 50.08 55.7679 50.7001C55.6258 50.8931 55.3423 50.9109 55.1339 50.7392C55.1064 50.7163 55.0816 50.6922 55.0591 50.6652L55.0596 50.6647ZM57.6216 47.0704C57.4838 46.905 57.4536 46.6723 57.5621 46.504C57.9536 45.8944 58.3199 45.2589 58.6513 44.6152C58.7621 44.3993 59.0353 44.34 59.2623 44.4823C59.4893 44.6246 59.5829 44.9143 59.4721 45.1303C59.1299 45.7969 58.7506 46.4549 58.345 47.0847C58.2151 47.2868 57.9344 47.3213 57.7182 47.1605C57.6821 47.134 57.6499 47.1033 57.6222 47.0699L57.6216 47.0704ZM59.655 43.112C59.5376 42.9711 59.4944 42.7779 59.5597 42.6138C59.8299 41.9337 60.0721 41.2268 60.2805 40.514C60.3492 40.2766 60.6021 40.1672 60.8452 40.2694C61.0873 40.3714 61.2283 40.6461 61.159 40.884C60.9435 41.623 60.6925 42.3542 60.4131 43.058C60.323 43.2854 60.0589 43.3701 59.8233 43.2478C59.7577 43.214 59.7011 43.1673 59.6555 43.1126L59.655 43.112ZM60.9277 38.7557C60.8297 38.6381 60.7813 38.4812 60.8105 38.3322C60.9539 37.6032 61.0694 36.8474 61.1537 36.0866C61.1812 35.8357 61.4071 35.6816 61.6583 35.743C61.909 35.8037 62.09 36.0568 62.0619 36.3082C61.9749 37.0937 61.8555 37.874 61.7077 38.6281C61.6593 38.873 61.4193 39.0058 61.1719 38.9242C61.0749 38.892 60.9916 38.8324 60.9282 38.7563L60.9277 38.7557ZM61.4416 34.1439C61.3604 34.0464 61.3122 33.9213 61.3166 33.793C61.3419 33.0367 61.3392 32.2557 61.3101 31.4711C61.3005 31.2138 61.4971 31.0244 61.7493 31.0477C62.0015 31.071 62.2133 31.2983 62.2229 31.5557C62.2531 32.3617 62.2552 33.1656 62.2299 33.9433C62.2218 34.1983 62.0105 34.3712 61.7582 34.3298C61.6334 34.3091 61.5218 34.2402 61.4421 34.1446L61.4416 34.1439ZM61.2692 29.4187C61.2021 29.3382 61.1576 29.2388 61.1463 29.1321C61.0682 28.3638 60.9642 27.5735 60.8375 26.7828C60.7965 26.525 60.9647 26.3082 61.2128 26.2986C61.4621 26.2891 61.6968 26.4911 61.7382 26.7485C61.8682 27.5577 61.9739 28.3669 62.0537 29.154C62.0801 29.4124 61.8977 29.6165 61.6472 29.6099C61.5004 29.6065 61.363 29.5313 61.2686 29.4181L61.2692 29.4187ZM60.5119 24.6682C60.4568 24.6021 60.4162 24.523 60.3974 24.4353C60.2333 23.6683 60.0444 22.8816 59.8371 22.0974C59.7691 21.8418 59.9118 21.6046 60.1547 21.5685C60.3982 21.5319 60.6497 21.7092 60.7166 21.9646C60.9278 22.7647 61.1207 23.5674 61.2881 24.3497C61.3431 24.6065 61.1882 24.8347 60.9423 24.8583C60.7799 24.8743 60.6182 24.797 60.5113 24.6686L60.5119 24.6682ZM59.2711 19.9602C59.2261 19.9061 59.1904 19.8431 59.169 19.7725C58.9324 19.0126 58.6746 18.2364 58.401 17.4658C58.3124 17.2146 58.4306 16.9626 58.6671 16.9031C58.903 16.844 59.1665 16.9986 59.2556 17.2504C59.5337 18.0343 59.7966 18.8234 60.0366 19.5963C60.1155 19.8503 59.9855 20.095 59.7455 20.1436C59.5723 20.1792 59.389 20.1017 59.2711 19.9602ZM57.6319 15.3305C57.5952 15.2865 57.5646 15.2363 57.5428 15.181C57.2465 14.4325 56.9295 13.6715 56.6014 12.9186C56.4948 12.6728 56.5923 12.4094 56.8212 12.3306C57.049 12.2516 57.321 12.3873 57.4287 12.6333C57.7613 13.3973 58.0835 14.1701 58.3838 14.929C58.4822 15.1773 58.3741 15.4358 58.1422 15.5054C57.962 15.5596 57.7598 15.484 57.6324 15.3312L57.6319 15.3305ZM55.6586 10.7992C55.6292 10.764 55.6037 10.7244 55.5832 10.6819C55.2347 9.94705 54.8681 9.20392 54.493 8.47205C54.3701 8.23242 54.4489 7.96003 54.6695 7.86465C54.8897 7.76865 55.1681 7.88515 55.2905 8.12524C55.6707 8.86667 56.0425 9.62044 56.3956 10.3653C56.5109 10.6081 56.4225 10.8757 56.1977 10.9638C56.0128 11.0358 55.7943 10.9632 55.6585 10.8003L55.6586 10.7992ZM53.3939 6.37945C53.3714 6.3524 53.3516 6.32305 53.3335 6.29123C52.9329 5.56464 52.5198 4.84208 52.1061 4.14348C51.9684 3.91082 52.028 3.63103 52.2393 3.51889C52.4507 3.40674 52.7339 3.50432 52.8716 3.73698C53.2916 4.44531 53.7098 5.17742 54.1155 5.91466C54.2461 6.15112 54.1764 6.42658 53.9604 6.53088C53.7734 6.62062 53.538 6.55243 53.3939 6.37945Z" fill="#01D0FF"/>
<path d="M45.9722 95.533C45.9402 95.4947 45.9127 95.4515 45.8912 95.4033C45.7247 95.0284 45.5599 94.6521 45.4024 94.2846C45.2963 94.0383 45.3965 93.7759 45.6253 93.6982C45.8542 93.6205 46.1256 93.7577 46.2317 94.004C46.3876 94.3674 46.5504 94.739 46.7149 95.1104C46.8237 95.3554 46.7278 95.6197 46.5005 95.7003C46.3173 95.7655 46.1042 95.6916 45.9716 95.5324L45.9722 95.533Z" fill="#01D0FF"/>
</svg>
