<svg width="240" height="262" viewBox="0 0 240 262" fill="none" xmlns="http://www.w3.org/2000/svg">
<path d="M7.76717 6.3073C7.76828 6.22385 7.76416 6.14033 7.75485 6.05375C7.44901 3.28336 7.33397 1.7049 7.33155 1.68996C7.26093 0.705302 6.50429 -0.023156 5.6401 0.0607619C4.77591 0.14468 4.13147 1.01253 4.20475 1.99424C4.2091 2.05988 4.32657 3.65327 4.64167 6.51322C4.74898 7.49241 5.53486 8.18548 6.39441 8.05679C7.18055 7.94202 7.75554 7.18355 7.76717 6.3073Z" fill="#01D0FF"/>
<path d="M231.984 246.223C231.987 246.014 231.958 245.802 231.891 245.592C230.965 242.65 230.004 239.775 229.041 237.047C228.718 236.13 227.803 235.692 226.998 236.063C226.193 236.434 225.805 237.478 226.128 238.394C227.078 241.078 228.021 243.91 228.935 246.811C229.228 247.739 230.124 248.219 230.942 247.884C231.576 247.624 231.972 246.947 231.982 246.222L231.984 246.223ZM226.014 229.411C226.018 229.155 225.971 228.892 225.873 228.643C224.728 225.793 223.533 223.029 222.325 220.419C221.921 219.546 220.971 219.215 220.206 219.679C219.439 220.142 219.148 221.227 219.549 222.096C220.732 224.646 221.899 227.353 223.02 230.14C223.38 231.036 224.311 231.427 225.101 231.015C225.67 230.715 226.008 230.079 226.017 229.411L226.014 229.411ZM218.563 213.409C218.568 213.081 218.494 212.746 218.33 212.446C216.885 209.782 215.371 207.214 213.823 204.814C213.311 204.02 212.33 203.849 211.629 204.436C210.931 205.023 210.78 206.142 211.29 206.936C212.786 209.26 214.257 211.748 215.656 214.33C216.11 215.168 217.077 215.428 217.814 214.904C218.287 214.571 218.553 213.996 218.561 213.403L218.563 213.409ZM209.14 198.85C209.146 198.421 209.015 197.987 208.745 197.64C206.94 195.321 205.034 193.105 203.074 191.049C202.437 190.381 201.445 190.431 200.857 191.156C200.27 191.885 200.307 193.015 200.944 193.682C202.824 195.657 204.658 197.789 206.394 200.018C206.967 200.756 207.96 200.819 208.61 200.163C208.955 199.816 209.134 199.333 209.14 198.847L209.14 198.85ZM197.465 186.613C197.473 186.059 197.255 185.51 196.836 185.156C194.708 183.351 192.445 181.622 190.107 180.023C189.366 179.515 188.399 179.788 187.951 180.638C187.503 181.485 187.74 182.585 188.484 183.092C190.733 184.634 192.911 186.293 194.957 188.031C195.65 188.619 196.633 188.456 197.153 187.661C197.359 187.348 197.46 186.979 197.465 186.616L197.465 186.613ZM183.872 177.266C183.881 176.595 183.557 175.947 182.994 175.636C180.675 174.347 178.191 173.098 175.613 171.922C174.809 171.556 173.896 172 173.57 172.917C173.246 173.834 173.633 174.876 174.436 175.242C176.945 176.387 179.358 177.6 181.609 178.852C182.388 179.282 183.327 178.913 183.71 178.024C183.815 177.778 183.868 177.519 183.872 177.263L183.872 177.266ZM169.122 170.482C169.132 169.728 168.718 169.019 168.057 168.766C165.632 167.836 163.125 166.945 160.393 166.041C159.563 165.765 158.69 166.313 158.444 167.261C158.202 168.209 158.675 169.202 159.508 169.475C162.162 170.351 164.697 171.255 167.047 172.154C167.866 172.469 168.76 171.965 169.036 171.027C169.091 170.845 169.117 170.661 169.12 170.476L169.122 170.482ZM153.837 165.387C153.848 164.583 153.379 163.846 152.665 163.637C150.256 162.928 147.718 162.212 144.903 161.45C144.062 161.221 143.214 161.815 143.01 162.779C142.809 163.739 143.325 164.702 144.169 164.931C146.965 165.69 149.485 166.397 151.874 167.102C152.713 167.349 153.571 166.773 153.79 165.816C153.823 165.673 153.838 165.531 153.84 165.388L153.837 165.387ZM138.34 161.166C138.351 160.341 137.856 159.592 137.121 159.403C134.9 158.831 132.497 158.224 129.335 157.431C128.488 157.22 127.651 157.829 127.463 158.795C127.274 159.762 127.806 160.714 128.653 160.925C131.81 161.715 134.208 162.322 136.423 162.891C137.268 163.108 138.11 162.502 138.303 161.539C138.329 161.414 138.341 161.289 138.342 161.163L138.34 161.166ZM122.775 157.251C122.786 156.42 122.286 155.671 121.546 155.485C119.007 154.849 116.416 154.201 113.77 153.531C112.926 153.317 112.086 153.923 111.893 154.889C111.702 155.852 112.231 156.807 113.078 157.024C115.726 157.697 118.323 158.346 120.864 158.982C121.711 159.193 122.548 158.584 122.736 157.618C122.759 157.496 122.771 157.374 122.773 157.254L122.775 157.251ZM107.219 153.295C107.23 152.472 106.738 151.723 106.006 151.532C103.303 150.825 100.767 150.154 98.2574 149.474C97.4157 149.245 96.5682 149.839 96.3645 150.802C96.1635 151.762 96.679 152.726 97.5233 152.954C100.043 153.638 102.584 154.312 105.298 155.019C106.142 155.239 106.984 154.639 107.18 153.676C107.205 153.548 107.22 153.423 107.222 153.295L107.219 153.295ZM91.733 149.005C91.7434 148.221 91.2954 147.494 90.6027 147.267C88.0977 146.441 85.6048 145.484 83.1919 144.423C82.3832 144.067 81.4748 144.526 81.1592 145.449C80.8435 146.372 81.243 147.405 82.0517 147.762C84.5478 148.862 87.1291 149.853 89.7201 150.705C90.5508 150.978 91.4238 150.432 91.6665 149.481C91.7079 149.324 91.7283 149.163 91.7304 149.005L91.733 149.005ZM76.9068 142.474C76.9157 141.806 76.5947 141.161 76.034 140.847C73.7105 139.543 71.4046 138.099 69.181 136.561C68.4425 136.048 67.4764 136.318 67.0232 137.165C66.5726 138.008 66.8038 139.108 67.545 139.622C69.8489 141.218 72.2352 142.71 74.6392 144.06C75.4154 144.496 76.3565 144.13 76.7423 143.244C76.8502 142.998 76.9033 142.736 76.9068 142.477L76.9068 142.474ZM63.3192 133.073C63.3266 132.516 63.1038 131.962 62.6796 131.607C60.6024 129.875 58.5428 128.002 56.5602 126.044C55.9071 125.397 54.9148 125.48 54.3451 126.229C53.7755 126.976 53.8442 128.107 54.4999 128.753C56.5471 130.775 58.6739 132.708 60.8208 134.501C61.5193 135.083 62.5024 134.908 63.0151 134.11C63.2154 133.796 63.3144 133.437 63.3191 133.076L63.3192 133.073ZM51.2916 121.21C51.2977 120.748 51.147 120.284 50.8404 119.932C49.0347 117.851 47.2516 115.636 45.5349 113.351C44.9721 112.601 43.982 112.516 43.3222 113.16C42.6624 113.804 42.5847 114.933 43.1475 115.683C44.9104 118.032 46.7476 120.31 48.6022 122.451C49.2101 123.153 50.2039 123.158 50.8225 122.462C51.1279 122.117 51.2856 121.666 51.2916 121.213L51.2916 121.21ZM40.9447 107.453C40.9498 107.072 40.8477 106.689 40.6349 106.361C39.0943 104.009 37.5762 101.536 36.1216 99.0095C35.6461 98.1864 34.6736 97.9589 33.9498 98.5008C33.2233 99.0456 33.0229 100.155 33.4958 100.978C34.9836 103.564 36.5402 106.095 38.1193 108.504C38.6371 109.294 39.6209 109.454 40.314 108.861C40.7214 108.514 40.9377 107.987 40.9448 107.45L40.9447 107.453ZM32.1937 92.283C32.1978 91.97 32.1314 91.6532 31.9836 91.3621C30.6888 88.817 29.419 86.159 28.2072 83.466C27.8135 82.5874 26.8661 82.2439 26.0963 82.6987C25.324 83.1535 25.0194 84.2315 25.4157 85.1072C26.653 87.8542 27.9482 90.5662 29.2685 93.1623C29.7018 94.0146 30.663 94.3046 31.4124 93.8078C31.9084 93.4805 32.1882 92.891 32.1963 92.283L32.1937 92.283ZM24.9073 76.1248C24.9107 75.8685 24.8671 75.6086 24.7658 75.3598C23.6926 72.6686 22.6416 69.8824 21.6484 67.076C21.3231 66.1625 20.411 65.7211 19.6057 66.095C18.803 66.4689 18.4126 67.51 18.7378 68.4265C19.7487 71.2808 20.8147 74.115 21.9083 76.8511C22.2677 77.7502 23.1962 78.144 23.9863 77.7312C24.5577 77.4348 24.8984 76.7954 24.9073 76.1248ZM18.9273 59.2745C18.9301 59.0659 18.9015 58.8538 18.8363 58.6473C17.958 55.8514 17.1096 52.9724 16.3109 50.0912C16.0488 49.1517 15.1691 48.6302 14.3412 48.9322C13.516 49.2313 13.058 50.2388 13.3175 51.1812C14.1287 54.1044 14.9896 57.0282 15.8804 59.863C16.1715 60.791 17.07 61.2739 17.8852 60.9389C18.519 60.6791 18.9177 60.0017 18.9273 59.2775L18.9273 59.2745ZM14.1177 41.9359C14.1199 41.769 14.1012 41.5989 14.0616 41.4314C13.3622 38.5544 12.6952 35.6123 12.0776 32.6827C11.8759 31.7232 11.0285 31.1336 10.1858 31.3699C9.34315 31.6031 8.82292 32.571 9.02726 33.5306C9.65216 36.499 10.3292 39.483 11.0384 42.3988C11.269 43.3498 12.1326 43.9038 12.9705 43.6377C13.6586 43.4173 14.11 42.7109 14.1202 41.9389L14.1177 41.9359ZM10.3876 24.245C10.3893 24.1169 10.3779 23.9885 10.3561 23.8571C9.82285 20.884 9.33424 17.8935 8.90229 14.9694C8.7583 13.9957 7.94837 13.3411 7.09354 13.5086C6.2387 13.6761 5.66149 14.6015 5.80549 15.5752C6.24211 18.5411 6.73805 21.5704 7.28125 24.5854C7.45409 25.5535 8.28279 26.1726 9.13283 25.9722C9.86746 25.7972 10.3767 25.0647 10.3876 24.245Z" fill="#01D0FF"/>
<path d="M235.801 259.341C235.803 259.16 235.782 258.975 235.732 258.789C235.344 257.347 234.947 255.905 234.55 254.505C234.285 253.565 233.4 253.053 232.574 253.358C231.749 253.663 231.296 254.673 231.561 255.613C231.953 256.998 232.345 258.422 232.732 259.849C232.986 260.792 233.863 261.319 234.691 261.026C235.358 260.79 235.791 260.093 235.801 259.338L235.801 259.341Z" fill="#01D0FF"/>
</svg>
