<svg width="327" height="121" viewBox="0 0 327 121" fill="none" xmlns="http://www.w3.org/2000/svg">
<g clip-path="url(#clip0_486_2530)">
<path fill-rule="evenodd" clip-rule="evenodd" d="M143.615 80.766C139.849 66.2177 115.146 71.4827 106.887 60.2195C88.9528 41.8729 57.2509 60.3235 64.2492 84.8944C67.7896 97.8058 94.1953 119.333 107.416 120.87C115.61 122.594 116.491 106.667 123.879 98.9943C132.137 90.4194 146.331 89.4743 143.615 80.7652V80.766Z" fill="#AAC2CA"/>
<path fill-rule="evenodd" clip-rule="evenodd" d="M183.801 51.0589C182.943 17.7013 148.668 17.8799 143.318 50.7642C141.469 62.1321 183.134 84.363 183.801 51.0589Z" fill="#E4848E"/>
<path fill-rule="evenodd" clip-rule="evenodd" d="M307.487 23.5331C306.056 19.4001 291.502 33.4533 288.537 36.5982C284.214 41.4155 277.099 44.161 274.143 49.8909C272.488 55.1694 278.841 60.0259 283.555 57.0829C288.57 51.6748 310.021 32.3108 307.487 23.5324V23.5331Z" fill="#AAC2CA"/>
<path fill-rule="evenodd" clip-rule="evenodd" d="M164.914 74.5131C165.029 71.4586 151.424 66.4687 150.628 69.1411C149.877 71.4608 152.193 75.8794 156.514 76.9707C159.489 77.7221 164.897 76.0196 164.914 74.5131Z" fill="#9ED4D2"/>
<path fill-rule="evenodd" clip-rule="evenodd" d="M92.566 72.5643C92.9944 61.1949 42.3589 42.6214 39.3947 52.5702C36.5994 61.204 45.2186 77.6514 61.3023 81.7135C72.374 84.5095 92.5039 78.1729 92.566 72.5651V72.5643Z" fill="#9ED4D2"/>
<path fill-rule="evenodd" clip-rule="evenodd" d="M183.029 68.3799C183.144 65.3254 170.645 70.9935 169.849 73.6667C169.215 75.6246 174.452 77.0942 177.901 75.7452C181.35 74.3962 183.009 70.2278 183.029 68.3799Z" fill="#9ED4D2"/>
<path fill-rule="evenodd" clip-rule="evenodd" d="M219.566 33.1847C219.566 33.1847 201.173 38.9583 201.688 51.0588C202.204 63.16 213.313 62.2639 236.002 43.9979C258.69 25.7327 295.214 21.1596 291.762 13.5772C288.311 5.99487 219.565 33.184 219.565 33.184L219.566 33.1847Z" fill="#F9C8BC"/>
<path d="M326.024 8.56784C325.094 7.74939 323.694 6.81939 322.683 6.18332C322.182 5.8683 321.664 5.55403 321.223 5.2993C320.789 5.04834 320.6 4.94961 320.491 4.90665C320.447 4.88103 320.366 4.83129 320.286 4.78306C314.99 1.58159 311.163 0.87543 308.885 0.846038C308.876 0.846038 308.867 0.846038 308.857 0.846038C306.859 0.911605 305.042 1.13318 303.439 1.32837C302.159 1.48437 300.951 1.63133 299.796 1.68635C298.616 1.74212 297.301 1.63058 296.03 1.52281C294.497 1.39318 293.05 1.27034 292.049 1.47608C291.346 1.62078 288.757 2.65402 284.242 4.46879C278.659 6.71238 271.712 9.50386 269.553 9.95378C267.13 10.4587 262.094 12.6307 258.295 14.3641C257.012 14.9497 255.809 15.6694 254.698 16.5135C253.399 16.9679 252.418 17.3493 252.036 17.5784C251.308 18.0155 249.036 19.9915 246.632 22.0844C244.543 23.9029 241.946 26.1631 241.464 26.4088C241.284 26.4676 241.06 26.5881 240.7 26.7826C239.034 27.6809 234.608 30.0662 227.461 29.6773C223.18 29.4444 217.857 30.7671 211.641 33.6098C207.626 35.4457 204.517 37.3584 203.765 37.8317C202.432 37.736 200.27 37.592 197.977 37.8618C195.043 38.207 192.807 39.1385 191.33 40.6315C187.842 44.157 186.886 46.283 185.563 49.2252C185.377 49.6397 185.184 50.0686 184.975 50.5215C184.947 50.5818 184.919 50.6413 184.891 50.7024C184.87 50.4085 184.854 50.2193 184.849 50.162C184.829 49.8508 184.432 44.316 182.155 38.7971C180.794 35.4977 179.04 32.9014 176.94 31.0806C174.282 28.7744 171.08 27.7178 167.424 27.9394C161.911 28.274 157.585 29.7851 154.568 32.4311C152.044 34.6453 150.972 37.176 150.332 38.6886C150.266 38.8446 150.204 38.9908 150.145 39.1257C149.757 40.015 149.277 42.1553 148.979 44.836C148.875 43.2556 148.764 42.2563 148.328 41.6459C147.16 40.009 143.867 41.7725 143.645 41.8938C143.192 42.1056 139.449 43.1426 136.684 41.4786C135.193 40.581 133.953 39.2614 132.859 38.097C131.716 36.8798 130.728 35.8285 129.653 35.4351C127.036 34.478 124.505 34.481 122.132 35.4427C121.783 35.5843 121.386 35.7057 120.953 35.8104C119.511 34.7877 111.84 29.5447 105.293 29.0036C99.3566 28.5129 91.7442 25.891 88.7466 24.7869C88.667 24.7575 88.6086 24.7364 88.5722 24.7229C85.1781 23.4997 81.4678 20.7014 80.2032 19.7021C78.6172 18.3689 76.5058 17.0576 74.0889 15.9588C72.2755 15.1336 68.2596 13.6677 63.8329 12.119C63.6487 11.9359 63.4705 11.7625 63.3 11.6005C59.1977 7.69889 46.8273 3.69103 43.9851 2.908C41.4446 2.20787 37.8299 2.23274 34.3341 2.25685C33.153 2.26514 31.9309 2.27343 30.7777 2.25309C28.8999 2.22068 27.3389 1.70745 25.6869 1.16407C23.4959 0.444348 21.2306 -0.300249 18.1852 0.12179C12.9882 0.843024 5.76479 5.08602 5.45927 5.26614C5.44486 5.27518 5.43046 5.28423 5.41605 5.29402C5.36299 5.33171 4.09539 6.23607 2.80354 7.30926C0.342655 9.35464 0.00528721 10.1633 -1.96944e-05 10.6848C-0.00608473 11.3013 0.258502 11.6419 0.48215 11.8183C1.23346 12.4122 2.58823 12.0866 4.63821 11.5937C5.9005 11.29 7.97019 10.3736 9.97165 9.48653C11.9109 8.62738 13.9162 7.73959 14.6781 7.64915C15.1618 7.59187 16.1459 7.70869 17.2383 7.85339C17.2247 7.87374 17.2118 7.89484 17.1981 7.91594C16.0147 9.77668 14.6046 10.2816 13.6296 10.3773C12.4189 10.4957 11.2203 10.9267 10.1635 11.6231C8.18322 12.9276 7.22647 14.0355 7.2386 15.01C7.24315 15.3838 7.39174 15.9196 8.07405 16.3462C8.61157 16.6823 9.24991 16.8225 9.94057 16.8225C11.6517 16.8225 13.6842 15.9626 15.2968 15.0974C16.3725 14.5201 17.1928 14.2676 18.2239 14.1983C19.7038 14.0981 21.4846 14.0566 23.4754 14.5065C23.8735 14.597 24.2768 14.6369 24.6809 14.6369C27.8188 14.6369 30.962 12.2132 31.3547 11.8997C31.6117 11.749 33.5934 10.6434 35.2287 11.3277C37.1695 12.1393 40.7623 15.2323 40.7957 15.2609C47.7568 21.3488 53.1016 22.942 53.7961 23.1304C63.0058 27.7751 64.6828 29.7029 66.6236 31.9337C67.6895 33.1591 68.8972 34.5481 71.4809 36.4849C78.5831 41.8109 94.5341 48.7045 95.2036 48.9931L109.638 55.3802C110.378 56.3728 111.379 57.6472 112.565 58.9871C113.915 60.5102 115.228 61.811 116.5 62.8865C116.487 64.1993 116.845 65.4285 117.063 66.0503C117.697 67.8635 119.988 71.4463 122.278 73.1669C122.324 73.2015 124.166 74.0886 124.37 74.9146C124.41 75.0743 124.407 75.2386 124.36 75.409C124.243 75.84 123.868 76.1543 123.425 76.2304C122.706 76.3533 121.137 76.5236 117.715 76.6675C114.239 76.8137 109.337 76.914 103.148 76.9675C92.7161 77.0564 78.483 77.0127 60.8459 76.8379C30.8126 76.5394 0.917316 75.9546 0.619372 75.9486L0.595112 77.1544C0.899121 77.1604 31.3668 77.7566 61.6988 78.0527C79.5156 78.2268 93.801 78.2645 104.158 78.165C123.933 77.9751 124.24 77.6096 124.834 76.9479C125.677 76.0081 125.681 75.1595 125.548 74.6237C125.241 73.3922 123.921 72.6167 123.246 72.2927C123.007 72.1781 122.784 72.0342 122.583 71.8616C120.646 70.1938 118.74 67.1732 118.209 65.6553C118.101 65.3479 117.893 64.6862 117.784 63.9061C119.317 65.0419 120.785 65.8332 122.179 66.2711C123.636 66.7285 125.363 67.085 127.248 67.3269C127.372 67.9396 127.492 68.6194 127.603 69.3776C128.342 74.4066 129.041 79.1568 129.995 82.1405C130.133 82.5731 130.285 83.084 130.461 83.6764C131.435 86.9502 133.064 92.4292 135.929 95.9329C137.183 97.465 138.419 98.1689 139.606 98.0272C141.032 97.8561 141.797 96.5132 141.937 96.2419L144.612 92.2521C145.186 91.6137 145.756 91.3145 146.353 91.3372C147.661 91.3876 148.85 92.9635 149.24 93.4813C149.307 93.5694 149.397 93.6953 149.502 93.8415C150.463 95.1777 153.015 98.7274 156.621 100.369C157.494 100.766 158.322 100.965 159.097 100.965C159.71 100.965 160.29 100.841 160.835 100.593C162.31 99.9204 163.057 98.5133 163.246 97.8637C163.515 96.9367 163.929 94.3751 164.006 93.3381C164.099 92.084 163.815 91.0689 162.955 89.5925C162.644 89.0582 161.841 88.2608 160.731 87.1575C158.469 84.9094 155.05 81.5127 153.084 77.6495C150.696 72.9589 150.216 68.8809 150.012 67.1393C149.997 67.0179 149.984 66.9094 149.972 66.8122C154.178 69.7476 158.209 69.153 158.742 69.058C159.096 69.0482 162.074 69.0362 163.156 71.1652C163.244 71.3378 163.319 71.5059 163.382 71.6671C161.56 70.9384 159.259 70.7236 158.683 70.7153H158.633C154.213 70.6497 152.485 71.0205 152.26 72.0816C151.89 73.8203 154.46 74.8558 155.256 75.1316L155.305 75.149C157.806 76.0322 160.828 75.5846 162.923 75.054C163.609 74.8799 164.161 74.4458 164.49 73.8791C165.191 74.9824 164.87 75.9003 163.831 78.4288C163.24 79.866 162.939 80.7975 163.046 81.5994C163.189 82.6733 164.06 83.2506 164.894 83.6741C165.319 83.8904 165.738 83.9809 166.143 83.9809C167.716 83.9809 169.082 82.6092 169.816 81.8722C169.875 81.8119 169.931 81.7561 169.982 81.7064C170.398 81.9001 171.361 82.7969 171.647 84.1037C172.048 85.9283 170.975 87.737 168.545 89.3355C168.528 89.3468 168.51 89.3596 168.494 89.3732C167.301 90.3514 167.1 91.2769 167.141 91.882C167.185 92.5174 167.519 93.0856 168.036 93.4029C168.078 93.4285 168.124 93.4587 168.176 93.4911C168.958 93.9907 170.791 95.1604 174.549 94.5665L175.06 94.4859C178.386 93.9568 179.507 93.7782 185.222 94.4542C186.323 94.5846 187.362 94.6502 188.341 94.6494C193.24 94.6494 196.611 93.011 198.597 89.6829C200.819 85.9607 203.248 81.6144 203.959 77.1303C204.317 74.8739 204.261 72.5195 203.803 70.5005C203.684 69.976 203.54 69.4808 203.372 69.0173C209.596 67.3066 211.676 64.7578 213.693 62.2866C214.297 61.5465 214.867 60.8479 215.549 60.1719C217.771 57.9675 225.035 55.1805 232.059 52.4847C234.83 51.4213 237.448 50.4167 239.792 49.4378C248.205 45.925 259.454 37.1625 259.567 37.0743C259.573 37.0698 259.579 37.0645 259.585 37.0592C260.229 36.5143 275.386 23.6655 278.412 20.195C281.263 16.9242 292.568 12.015 293.094 11.7874C293.256 11.7339 295.341 11.0955 298.53 12.5101C298.948 12.6955 299.331 12.8711 299.703 13.0407C302.482 14.3113 304.164 15.08 308.344 14.4161C309.5 14.4297 311.862 15.438 313.948 16.3288C315.861 17.1458 317.513 17.8512 318.463 17.9281C319.927 18.0471 322.375 18.2453 322.758 16.4479C323.111 14.7922 320.525 13.7544 319.723 13.4755C318.99 13.2201 316.613 12.0677 315.452 10.6147C314.501 9.42397 311.938 8.05009 310.314 7.26706C310.821 7.19998 311.22 7.14346 311.452 7.10954C311.486 7.10502 311.514 7.09824 311.548 7.08769C311.608 7.0696 313.029 6.65359 314.62 7.81043C316.61 9.25893 321.918 11.3887 323.556 11.8439C325.048 12.2584 326.328 11.9502 326.817 11.0586C327.23 10.3027 326.935 9.37273 326.024 8.57236V8.56784ZM253.74 18.9409C254.229 18.4586 254.745 18.0079 255.285 17.5882C259.044 16.2896 265.588 14.3061 267.842 13.6903C268.466 13.52 268.682 13.5909 268.72 13.6082C268.786 13.7627 268.634 14.346 268.354 14.8464C266.642 17.0584 263.352 19.1994 258.836 21.0398C255.706 22.315 252.828 23.1139 251.385 23.4786C250.741 23.6414 250.083 23.4176 249.895 23.1854C249.849 23.1282 249.841 23.0995 249.882 23.0196C249.929 22.927 250.335 22.2931 253.74 18.9417V18.9409ZM151.258 39.6065C151.319 39.4678 151.382 39.3179 151.45 39.1574C152.725 36.1458 155.379 29.8785 167.498 29.1437C167.794 29.1256 168.086 29.1166 168.374 29.1166C173.992 29.1166 178.244 32.5155 181.022 39.2312C183.247 44.6099 183.636 50.1914 183.639 50.2472C183.639 50.2509 183.639 50.2547 183.64 50.2585C183.642 50.2886 183.726 51.2925 183.793 52.7432C181.346 56.8031 177.132 61.1546 171.712 62.4237C165.685 63.8353 158.768 64.7442 153.166 60.7816C151.08 59.3059 149.924 55.4533 149.911 49.9352C149.9 45.2988 150.701 40.8847 151.259 39.6058L151.258 39.6065ZM73.5832 17.0561C75.7818 18.0562 77.5952 19.1761 78.9705 20.2613C79.0016 20.2877 79.1456 20.4075 79.3822 20.5967C80.9045 21.8726 81.8067 23.0784 82.0007 23.9572C82.0849 24.3385 82.1364 24.8457 81.9037 25.0967C81.4913 25.5413 80.1903 25.3657 79.4132 25.261C79.2669 25.2414 79.1289 25.2225 79.0023 25.2082C75.8781 24.8435 70.6007 19.2432 66.7479 15.1539C66.3992 14.7839 66.0565 14.4199 65.7222 14.0672C69.1785 15.2956 72.1337 16.3959 73.5847 17.0561H73.5832ZM54.2873 22.0241C54.2479 22.0037 54.2054 21.9887 54.1622 21.9774C54.1084 21.9638 48.6643 20.5349 41.594 14.3513C41.4408 14.2186 37.8185 11.1008 35.6995 10.2145C35.1582 9.9877 34.6017 9.90027 34.0658 9.90027C32.3084 9.90027 30.7686 10.8393 30.6845 10.8913C30.6625 10.9049 30.6413 10.9199 30.6216 10.9365C30.5837 10.9674 26.787 14.0174 23.7438 13.3293C21.5998 12.844 19.7083 12.8877 18.1405 12.9932C16.9366 13.0746 15.9457 13.3761 14.7198 14.0347C11.9625 15.5149 9.77605 15.9852 8.71922 15.3242C8.45312 15.1577 8.4516 15.0393 8.45085 14.9949C8.44933 14.8622 8.55698 14.1267 10.8329 12.6269C11.7252 12.0391 12.7335 11.6759 13.7479 11.5764C14.9912 11.4543 16.7774 10.8325 18.2224 8.55955C18.3406 8.3734 18.465 8.1978 18.5931 8.03275C20.7507 8.31009 23.0039 8.52337 24.2684 7.97096C25.3245 7.50973 25.8939 6.89853 25.9598 6.15317C26.0288 5.37692 25.4906 4.72653 25.0076 4.40473C24.4777 4.05127 23.3526 4.12211 22.477 4.306C21.615 4.48688 19.6787 5.06266 18.098 6.75156C18.0162 6.74101 17.9358 6.72971 17.8562 6.71916C16.4499 6.53075 15.2361 6.36872 14.5333 6.45162C13.5887 6.56315 11.6835 7.40723 9.47659 8.3847C7.52441 9.24913 5.50627 10.1437 4.35164 10.421C3.48283 10.6298 2.66177 10.8273 2.06058 10.9019C1.37219 10.9878 1.23725 10.8747 1.23649 10.8747C1.23649 10.8747 1.21071 10.834 1.21147 10.7044C1.22284 10.6494 1.39342 10.042 3.64734 8.17821C4.79136 7.23163 5.93158 6.40941 6.09989 6.28883C6.54567 6.02807 13.5296 1.98404 18.3505 1.31556C21.1161 0.931953 23.1502 1.60043 25.3041 2.3081C26.9697 2.856 28.6929 3.42198 30.755 3.4574C31.9233 3.47775 33.1522 3.46946 34.341 3.46117C37.7533 3.43781 41.2824 3.41369 43.6591 4.06861C46.0631 4.73106 55.4116 7.73356 60.4426 10.9426C53.627 8.59798 46.8994 6.3853 46.3944 6.21949C46.1283 6.13207 45.8372 6.23683 45.6894 6.47347C45.5415 6.70936 45.5749 7.01609 45.7713 7.2143C45.8365 7.27987 52.2753 13.8071 54.0371 15.7576C54.5769 16.3552 55.5959 17.6778 56.7755 19.2107C58.7375 21.7596 61.2227 24.9874 63.2545 27.1715C61.3857 25.8413 58.6579 24.2262 54.2851 22.0226L54.2873 22.0241ZM19.656 6.946C20.4164 6.32576 21.2086 5.95346 21.8477 5.73114C23.1214 5.28875 24.1252 5.32492 24.3465 5.41536C24.5656 5.56609 24.7726 5.8276 24.7529 6.04691C24.7294 6.30842 24.3753 6.60762 23.7817 6.86687C22.9645 7.2241 21.2875 7.12839 19.656 6.946V6.946ZM66.074 28.1693C64.0846 26.7193 60.4183 21.9563 57.7406 18.479C56.4958 16.8624 55.5132 15.5857 54.9416 14.9534C53.7309 13.6135 50.4489 10.2507 48.3898 8.15183C51.643 9.23255 57.7035 11.2598 63.1718 13.1696C63.9724 13.9729 64.8966 14.9542 65.8609 15.9776C70.064 20.4377 75.2943 25.9882 78.8591 26.405C78.9788 26.4193 79.11 26.4367 79.2487 26.4555C80.3905 26.6092 81.9537 26.8195 82.7945 25.9136C83.2653 25.4064 83.3964 24.6611 83.1842 23.6987C83.1493 23.5419 83.1015 23.3821 83.0409 23.2201C84.5837 24.2096 86.3933 25.2218 88.1567 25.8571C88.1916 25.8699 88.2477 25.8903 88.3235 25.9181C91.3674 27.0396 99.1049 29.7029 105.19 30.2056C110.427 30.6382 116.662 34.4072 119.245 36.1126C116.693 36.4329 113.524 36.3463 111.045 36.0493C107.466 35.6198 105.021 36.6643 103.35 39.3367C102.485 40.7219 102.498 42.661 103.388 45.1021C103.643 45.7992 103.973 46.5483 104.376 47.3464C104.37 47.3404 104.365 47.3344 104.359 47.3291C99.0518 41.9519 91.1673 35.3289 83.7391 34.3107C72.3452 32.7499 69.1285 30.4 66.29 28.3268L66.0732 28.1685L66.074 28.1693ZM95.6903 47.8868C95.5265 47.8159 79.1972 40.7596 72.2103 35.5203C69.7297 33.6603 68.6167 32.3806 67.5402 31.1431C67.1922 30.743 66.8526 30.3526 66.4803 29.9554C69.2816 31.939 73.0472 34.0635 83.5739 35.506C90.6624 36.4774 98.3187 42.9308 103.493 48.1739C105.511 50.2185 107.028 51.964 107.767 52.8412C107.901 53.0296 108.036 53.2195 108.174 53.4117L95.6895 47.8868H95.6903ZM109.252 52.7425C109.242 52.7259 109.23 52.7108 109.218 52.6957C109.213 52.689 109.042 52.4764 108.729 52.1041C106.673 49.1921 105.264 46.7066 104.529 44.6921C103.771 42.6166 103.721 41.0294 104.381 39.9743C105.792 37.7164 107.803 36.8761 110.901 37.2476C114.738 37.7081 119.841 37.6742 122.589 36.5603C124.674 35.7155 126.909 35.7177 129.234 36.5678C130.038 36.8618 130.934 37.8159 131.972 38.9207C133.119 40.1424 134.42 41.5268 136.055 42.5111C137.807 43.5654 139.826 43.6747 141.211 43.5805C142.706 43.4787 143.932 43.1155 144.226 42.9527C145.239 42.3935 146.997 41.8652 147.338 42.3437C147.634 42.759 147.712 44.0115 147.812 45.598C147.931 47.5099 148.095 50.1281 148.706 53.5338C149.89 60.1334 144.769 63.87 142.513 65.17C140.608 66.2681 134.142 66.8431 128.25 66.2221C127.518 63.0915 126.617 61.8058 125.797 60.9828C125.669 60.8547 125.528 60.6971 125.378 60.5298C124.368 59.4031 122.677 57.5175 119.425 58.596C118.292 58.9713 117.473 59.6564 116.99 60.6323C116.861 60.8931 116.762 61.1629 116.688 61.438C112.549 57.7376 109.3 52.8141 109.253 52.7425H109.252ZM122.542 65.1172C120.925 64.6093 119.291 63.5881 117.747 62.3408C117.794 61.9316 117.897 61.5299 118.077 61.1644C118.416 60.4793 118.982 60.0128 119.807 59.74C122.302 58.9133 123.505 60.2548 124.471 61.3325C124.632 61.5118 124.784 61.6814 124.934 61.8321C125.563 62.4622 126.313 63.5165 126.961 66.0661C125.382 65.8475 123.874 65.5355 122.542 65.1172H122.542ZM162.622 73.8813C160.69 74.3704 157.923 74.7902 155.71 74.0087L155.654 73.9891C154.55 73.6063 153.424 72.8986 153.438 72.3861C153.551 72.3092 154.016 72.0749 155.625 71.9663C156.764 71.8895 157.968 71.9068 158.615 71.9166H158.665C159.893 71.9354 162.196 72.3635 163.529 73.0621C163.387 73.4548 163.052 73.7728 162.622 73.8821L162.622 73.8813ZM214.69 59.312C213.964 60.0324 213.347 60.7891 212.749 61.5209C210.839 63.8617 208.868 66.2763 202.887 67.8922C202.375 66.8898 201.724 66.0932 200.957 65.5363C197.85 63.2829 194.189 62.3732 190.649 62.9746C188.87 63.2769 187.864 63.9114 187.657 64.861C187.406 66.0111 189.605 69.7356 196.459 70.0626C197.939 70.1335 199.686 69.8803 201.724 69.4205C201.882 69.3851 202.038 69.3489 202.191 69.3128C202.358 69.7582 202.501 70.2412 202.618 70.7598C203.044 72.6341 203.094 74.8272 202.759 76.9366C202.082 81.2097 199.717 85.4362 197.553 89.0619C195.442 92.601 191.455 93.9711 185.365 93.2507C179.482 92.555 178.32 92.7397 174.868 93.2891L174.359 93.3697C171.057 93.8913 169.554 92.9319 168.832 92.4706C168.774 92.4337 168.721 92.4005 168.674 92.3712C168.537 92.2875 168.372 92.0863 168.352 91.7946C168.321 91.3447 168.637 90.8209 169.242 90.3175C172.589 88.1048 173.085 85.8333 172.911 84.3155C172.681 82.3116 171.241 80.8827 170.34 80.548C169.787 80.3423 169.454 80.539 169.305 80.6739C169.204 80.7666 169.087 80.8834 168.952 81.0191C168.177 81.7983 166.732 83.2498 165.444 82.5949C164.516 82.1239 164.295 81.7915 164.248 81.4366C164.177 80.9068 164.465 80.065 164.953 78.8795C165.996 76.342 166.626 74.8106 165.395 73.0508C165.241 72.8308 165.042 72.631 164.81 72.4487C164.81 72.4366 164.808 72.4238 164.807 72.4117C164.757 71.8623 164.565 71.2587 164.239 70.6166C162.732 67.6525 158.807 67.8409 158.64 67.8507C158.612 67.8522 158.582 67.856 158.555 67.862C158.513 67.8703 154.363 68.645 150.237 65.5054C150.192 65.4715 150.143 65.4436 150.091 65.4232C149.761 65.2944 149.292 65.2574 148.965 65.5415C148.773 65.7081 148.575 66.0261 148.716 66.5982C148.74 66.6939 148.773 66.9765 148.808 67.2757C149.02 69.0806 149.517 73.3078 152.002 78.1899C154.056 82.2256 157.557 85.7045 159.874 88.0061C160.84 88.9655 161.675 89.7945 161.906 90.1916C162.735 91.616 162.861 92.3892 162.798 93.2439C162.72 94.2937 162.312 96.734 162.082 97.5238C161.98 97.8735 161.441 98.9851 160.331 99.4908C159.432 99.9008 158.355 99.8254 157.128 99.267C153.816 97.7597 151.401 94.4 150.491 93.1354C150.377 92.9771 150.288 92.852 150.213 92.7525C149.737 92.1209 148.287 90.1999 146.402 90.1268C145.421 90.0891 144.505 90.5443 143.678 91.4796C143.66 91.4999 143.643 91.5211 143.628 91.5429L140.909 95.5982C140.894 95.6209 140.879 95.6472 140.866 95.6721C140.861 95.6826 140.344 96.7227 139.456 96.8252C138.722 96.9096 137.829 96.3361 136.873 95.1664C134.16 91.8504 132.574 86.5161 131.626 83.329C131.448 82.7306 131.295 82.2143 131.153 81.7697C130.228 78.8795 129.537 74.1768 128.805 69.1975C128.713 68.5727 128.616 67.9962 128.514 67.4641C130.027 67.6126 131.617 67.6902 133.234 67.6902C133.523 67.6902 133.814 67.6879 134.104 67.6826C138.216 67.6118 141.672 67.0488 143.123 66.2123C144.266 65.5536 146.424 64.1051 148.037 61.8035C148.903 60.5668 149.496 59.26 149.816 57.8913C150.389 59.5071 151.235 60.8923 152.464 61.7628C155.288 63.7607 158.572 64.7676 162.5 64.8414C165.905 64.9055 169.208 64.2475 171.991 63.5964C175.362 62.8073 178.481 60.9353 181.262 58.033C182.299 56.95 183.163 55.8527 183.865 54.8436C183.921 57.6419 183.827 61.0046 183.181 62.7403C181.723 66.6517 178.564 67.8665 176.812 68.2426C176.441 68.3225 176.063 68.3971 175.698 68.4694C173.236 68.9578 170.69 69.4627 169.035 71.6671C168.159 72.8338 167.92 73.7615 168.304 74.5038C168.733 75.3336 169.834 75.724 171.757 75.724C171.86 75.724 171.966 75.7225 172.074 75.7202C178.716 75.5823 181.13 74.0569 181.978 73.1601C182.382 72.7328 182.55 72.2007 182.439 71.6995C182.329 71.1999 181.959 70.7891 181.423 70.5729C180.688 70.2767 179.177 70.1975 178.657 70.1923C175.238 70.1576 172.839 70.8796 171.525 72.3386C170.831 73.1089 170.61 73.9115 170.546 74.4428C169.655 74.3139 169.434 74.0524 169.382 73.9514C169.242 73.6801 169.475 73.096 170.007 72.3876C171.383 70.554 173.594 70.1154 175.934 69.6512C176.304 69.578 176.687 69.5019 177.066 69.4205C180.512 68.6812 183.087 66.4572 184.316 63.1585C185.184 60.832 185.154 56.1007 185.023 53.0296C185.528 52.1659 185.876 51.462 186.077 51.0242C186.289 50.566 186.483 50.1341 186.67 49.7174C187.989 46.7849 188.86 44.8473 192.194 41.4771C195.211 38.4263 201.438 38.874 203.781 39.042L203.878 39.0488C204.246 39.0752 204.615 39.134 204.975 39.2252C206.315 39.5613 211.453 39.7979 216.216 38.3886C222.112 36.644 223.698 37.7262 224.55 38.308C224.788 38.4708 225.179 39.2621 225.302 40.5116C225.375 41.2608 225.482 43.8397 223.788 45.5573C221.145 48.2365 217.017 55.8339 216.09 58.2116C215.523 58.587 215.05 58.9547 214.69 59.312V59.312ZM201.677 68.1951C201.604 68.2125 201.53 68.229 201.456 68.2456C196.832 69.2879 193.928 68.7965 192.305 68.2004C190.578 67.5658 188.744 65.5679 188.842 65.1165C188.929 64.7193 189.681 64.3629 190.854 64.1639C191.528 64.0493 192.18 63.9981 192.807 63.9981C196.208 63.9981 198.853 65.5039 200.242 66.5107C200.795 66.9117 201.277 67.4799 201.677 68.1951V68.1951ZM171.755 74.5197C171.807 74.1783 171.966 73.6575 172.427 73.1458C173.163 72.3281 174.841 71.3627 178.643 71.4003C179.331 71.4071 180.52 71.5126 180.965 71.692C181.125 71.7568 181.229 71.854 181.253 71.9596C181.276 72.0658 181.218 72.2037 181.092 72.3364C180.514 72.9476 178.477 74.3825 172.048 74.5167C171.947 74.5189 171.85 74.5197 171.756 74.5197H171.755ZM325.751 10.4776C325.608 10.7376 324.935 10.9712 323.882 10.6788C322.351 10.253 317.188 8.18197 315.335 6.83371C313.402 5.42667 311.59 5.82157 311.235 5.91879C310.187 6.06952 309.093 6.20894 308.05 6.325C303.966 4.87274 303.029 4.67076 302.662 4.67076C301.953 4.67076 301.268 5.28046 301.133 6.03033C301.03 6.6046 301.262 7.34317 302.219 7.69286C303.039 7.99281 305.641 7.80139 307.908 7.55495C307.98 7.58057 308.053 7.60695 308.127 7.63332C308.373 7.7215 308.483 7.76069 308.525 7.77501C309.032 7.95739 313.408 9.99297 314.502 11.3608C315.803 12.9894 318.357 14.2737 319.322 14.609C320.627 15.0627 321.657 15.7885 321.57 16.1939C321.428 16.8609 320.04 16.8421 318.561 16.7222C317.808 16.6612 316.089 15.9264 314.426 15.2165C312.091 14.2194 309.677 13.1869 308.28 13.2057C308.252 13.2057 308.224 13.2088 308.196 13.2133C304.346 13.832 302.963 13.1997 300.208 11.9404C299.833 11.7693 299.447 11.5922 299.022 11.4045C295.224 9.7194 292.757 10.6192 292.654 10.6577C292.645 10.6607 292.638 10.6637 292.629 10.6675C292.139 10.8777 280.578 15.8608 277.493 19.3999C274.557 22.7664 259.273 35.7313 258.806 36.1277C258.439 36.4126 247.483 44.9114 239.319 48.3201C236.991 49.2923 234.382 50.2939 231.619 51.3535C226.539 53.3032 221.337 55.2996 217.891 57.1475C219.403 54.035 222.599 48.4837 224.653 46.4013C226.044 44.9913 226.737 42.7462 226.507 40.3948C226.362 38.9102 225.886 37.7578 225.235 37.3132C223.72 36.28 221.537 35.5549 215.868 37.2326C211.738 38.455 207.226 38.3796 205.611 38.1226C209.249 35.9777 219.462 30.449 227.392 30.8809C227.948 30.911 228.489 30.9253 229.014 30.9253C235.556 30.9253 239.657 28.7142 241.276 27.8414C241.505 27.7178 241.764 27.5784 241.839 27.5535C242.298 27.4164 243.508 26.4035 247.43 22.9903C248.572 21.9962 249.794 20.9328 250.785 20.0955C250.816 20.0691 250.857 20.1136 250.829 20.1422C249.05 21.9706 248.873 22.3225 248.794 22.477C248.543 22.9752 248.6 23.508 248.948 23.9383C249.484 24.5993 250.659 24.9022 251.687 24.6422C254.794 23.8585 265.246 20.8846 269.342 15.542C269.358 15.5217 269.372 15.4998 269.385 15.478C269.618 15.0763 270.328 13.6994 269.677 12.8628C269.282 12.3556 268.557 12.2411 267.519 12.5245C266.528 12.795 264.26 13.4612 261.748 14.233C261.697 14.2488 261.669 14.1757 261.718 14.1546C264.62 12.8885 268.025 11.5018 269.8 11.1325C272.065 10.6607 279.067 7.8466 284.694 5.58568C288.278 4.14548 291.663 2.78516 292.293 2.65553C293.121 2.48521 294.483 2.60051 295.925 2.7226C297.237 2.83339 298.593 2.9487 299.852 2.88916C301.052 2.83263 302.282 2.68266 303.584 2.52364C305.236 2.32242 306.942 2.11442 308.881 2.05036C311.01 2.07975 314.603 2.75802 319.654 5.81102C319.886 5.9512 319.98 6.00848 320.068 6.03711C320.498 6.24663 323.685 8.11942 325.218 9.46844C325.662 9.85882 325.87 10.2537 325.749 10.4753L325.751 10.4776ZM305.132 6.58953C303.881 6.67093 302.948 6.67469 302.638 6.56089C302.292 6.43428 302.316 6.29938 302.327 6.24135C302.362 6.04691 302.56 5.87583 302.66 5.87583C302.819 5.88036 303.364 5.99792 305.132 6.58953V6.58953Z" fill="black"/>
</g>
<defs>
<clipPath id="clip0_486_2530">
<rect width="327" height="121" fill="white"/>
</clipPath>
</defs>
</svg>
