<svg width="95" height="166" viewBox="0 0 95 166" fill="none" xmlns="http://www.w3.org/2000/svg">
<g clip-path="url(#clip0_2401_5873)">
<path d="M0.883057 161.086H31.853V109.346H0.883057V161.086Z" fill="#B2B2B2"/>
<path d="M31.7302 161.086H62.7002V109.346H31.7302V161.086Z" fill="#D1D1D1"/>
<path d="M34.5124 60.4219L38.2424 78.2819L26.5924 79.7819C26.5924 79.7819 25.5824 61.2219 26.5924 61.1219C27.6024 61.0319 34.5124 60.4219 34.5124 60.4219Z" fill="#A8754B"/>
<path d="M23.6123 42.4766C23.6123 42.4766 35.2523 44.1166 37.3423 61.8266C37.3423 61.8266 33.6323 65.8166 28.9023 64.5866L23.6123 42.4766Z" fill="#FFD686"/>
<path d="M18.5624 41.874C18.5624 41.874 7.22245 40.754 3.23245 48.744C-0.767552 56.734 10.8924 65.054 6.89245 83.364L32.0324 82.034V65.884C32.0324 65.884 36.6124 59.204 30.1224 52.044C30.1224 52.044 29.7324 41.164 18.5624 41.874Z" fill="#FFD686"/>
<path d="M55.9622 85.949C55.9622 85.949 64.1122 82.929 66.3022 90.839C68.4922 98.739 77.5722 150.389 77.5722 150.389H70.2922L66.0122 129.859C66.0122 129.859 59.9722 123.129 58.1222 108.839L32.7222 105.809L55.9622 85.949Z" fill="#B5845B"/>
<path d="M39.3024 104.853C39.3024 104.853 43.6224 104.733 51.2924 102.293C58.9624 99.8435 64.4324 102.433 61.4124 111.073C58.3924 119.703 43.1324 159.703 43.1324 159.703L37.3524 157.973L42.3424 132.073C42.3424 132.073 43.5124 119.223 48.9324 111.693C48.9324 111.693 37.5324 112.263 33.6324 111.663C29.7524 111.073 39.3024 104.853 39.3024 104.853Z" fill="#A8754B"/>
<path d="M6.8921 83.3613C6.8921 83.3613 -2.3279 94.9513 8.7621 106.331C8.7621 106.331 14.4721 112.981 39.6421 111.941C39.6421 111.941 46.2421 89.6613 60.2821 83.6713L31.2221 79.7812L6.8921 83.3613Z" fill="#0C2C40"/>
<path d="M19.1824 12.2802C19.1824 12.2802 22.1824 0.0702032 11.7924 0.000203166C4.10245 -0.0497968 1.81245 9.14018 11.2424 15.2902L19.1824 12.2802Z" fill="#190D08"/>
<path d="M10.8923 17.5085C10.8923 17.5085 9.01231 12.7086 14.3723 10.2786C19.7323 7.84854 21.4423 13.5985 21.4423 13.5985L10.8923 17.5085Z" fill="#FD6C75"/>
<path d="M31.2525 28.4338C31.2525 28.4338 38.9925 23.8538 30.6225 14.6538C25.3925 8.90379 16.2325 9.22378 11.1325 14.9238C6.03244 20.6238 10.8425 30.6738 10.8425 30.6738L14.3125 24.9038L17.3525 20.4238L21.7025 18.6838L25.1125 18.9238L28.0025 19.2938L30.3325 20.2738L31.2525 28.4338Z" fill="#27160C"/>
<path d="M24.9304 32.1329L16.2314 31.0156L14.4708 44.7237L23.1697 45.841L24.9304 32.1329Z" fill="#B5845B"/>
<path d="M15.3223 35.0938C15.3223 35.0938 16.2623 40.0837 20.2723 41.0938C21.5223 41.4037 22.8823 41.0436 23.6423 40.0136C23.8523 39.7336 24.0023 39.4137 24.0523 39.0536C24.2423 37.6136 20.4423 35.0938 20.4423 35.0938H15.3223Z" fill="#A8754B"/>
<path d="M21.4523 38.6437L21.0023 38.5837C16.0123 37.9437 12.4823 33.3737 13.1223 28.3837L13.6323 24.4237C14.2723 19.4337 18.8423 15.9037 23.8323 16.5437L24.2823 16.6037C29.2723 17.2437 32.8023 21.8137 32.1623 26.8037L31.6523 30.7637C31.0123 35.7537 26.4423 39.2837 21.4523 38.6437Z" fill="#B5845B"/>
<path d="M14.1025 27.3939C14.1025 27.3939 20.3625 25.3539 20.2025 18.3239C20.2025 18.3239 20.6025 13.0839 15.1225 17.9339C9.64245 22.7839 14.1025 27.3939 14.1025 27.3939Z" fill="#27160C"/>
<path d="M15.4824 29.3078C15.2624 30.9878 13.7324 32.1778 12.0424 31.9578C10.3624 31.7378 9.17241 30.2078 9.39241 28.5278C9.61241 26.8478 11.1424 25.6578 12.8324 25.8778C14.5124 26.0878 15.7024 27.6278 15.4824 29.3078Z" fill="#B5845B"/>
<path d="M17.4925 23.8672L17.2125 26.0872C16.5725 29.2172 15.2525 28.2672 14.7725 26.9172L17.4925 23.8672Z" fill="#27160C"/>
<path d="M33.1225 22.7412C33.1225 22.7412 26.7325 27.5312 17.3625 20.4312C10.9025 15.5412 20.6725 13.7812 20.6725 13.7812L29.7825 15.6612L33.1225 22.7412Z" fill="#27160C"/>
<path d="M14.4824 44.7072C14.4824 44.7072 19.9524 54.4672 23.8324 51.4672C28.0224 48.2272 18.5624 41.8672 18.5624 41.8672L14.4824 44.7072Z" fill="#B5845B"/>
<path d="M16.9022 64.5938C16.9022 64.5938 20.2822 70.8236 22.5922 75.7136L47.2322 74.2936C47.2322 74.2936 52.1222 70.2936 55.9522 73.6736L52.1722 78.2136L21.3222 85.0436C20.1422 85.3036 18.9122 84.9636 18.0422 84.1436C15.3122 81.5636 9.37219 75.5536 6.49219 69.4236L16.9022 64.5938Z" fill="#B5845B"/>
<path d="M85.2923 54.9766H55.0123C54.0123 54.9766 53.1523 55.6766 52.9523 56.6466L47.2523 83.3966C46.9723 84.7066 47.9723 85.9466 49.3123 85.9466H80.1023C81.1123 85.9466 81.9823 85.2266 82.1723 84.2366L87.3723 57.4866C87.6123 56.1866 86.6123 54.9766 85.2923 54.9766Z" fill="#B2B2B2"/>
<path d="M87.0321 54.9766H56.7521C55.7521 54.9766 54.8921 55.6766 54.6921 56.6466L48.9921 83.3966C48.7121 84.7066 49.7121 85.9466 51.0521 85.9466H81.8421C82.8521 85.9466 83.7221 85.2266 83.9121 84.2366L89.1121 57.4866C89.3521 56.1866 88.3621 54.9766 87.0321 54.9766Z" fill="#D1D1D1"/>
<path d="M48.0522 83.6641H27.3622C26.7322 83.6641 26.2222 84.1741 26.2222 84.8041C26.2222 85.4341 26.7322 85.9441 27.3622 85.9441H48.4522L48.0522 83.6641Z" fill="#B2B2B2"/>
<path d="M68.2822 69.7687C68.2822 71.5887 69.7622 73.0687 71.5822 73.0687C73.4022 73.0687 74.8822 71.5887 74.8822 69.7687C74.8822 67.9487 73.4022 66.4688 71.5822 66.4688C69.7622 66.4688 68.2822 67.9387 68.2822 69.7687Z" fill="white"/>
<path d="M6.49224 44.8491C6.08224 45.0291 -7.48776 51.6991 5.86224 72.3691C5.86224 72.3691 14.3922 72.5091 19.3322 66.1591C19.3422 66.1591 17.7022 39.9291 6.49224 44.8491Z" fill="#FFD686"/>
<path d="M35.7822 156.838C35.9622 156.298 36.5522 156.098 36.9522 156.448C37.7322 157.138 39.1322 157.988 41.1922 157.778C43.3422 157.568 44.1422 156.298 44.4522 155.388C44.6122 154.908 45.0722 154.668 45.4822 154.868L58.5022 161.408C59.2922 161.808 59.9122 162.548 60.2122 163.468C60.5022 164.338 59.9222 165.268 59.1022 165.248L36.6122 164.628C35.7222 164.608 35.0522 163.738 35.1222 162.728L35.4922 157.768C35.5022 157.688 35.5122 157.608 35.5422 157.528L35.7822 156.838Z" fill="#FD6C75"/>
<path d="M68.6123 148.282C68.6523 147.712 69.1623 147.362 69.6323 147.602C70.5623 148.062 72.1323 148.512 74.0723 147.772C76.0823 147.002 76.5323 145.572 76.5923 144.612C76.6223 144.112 77.0023 143.752 77.4523 143.842L91.7323 146.752C92.6023 146.932 93.3923 147.482 93.9323 148.292C94.4423 149.052 94.1223 150.102 93.3323 150.292L71.4623 155.582C70.6023 155.792 69.7223 155.132 69.5323 154.132L68.5923 149.252C68.5723 149.172 68.5723 149.092 68.5723 149.002L68.6123 148.282Z" fill="#FD6C75"/>
</g>
<defs>
<clipPath id="clip0_2401_5873">
<rect width="95" height="166" fill="white"/>
</clipPath>
</defs>
</svg>
