<svg width="57" height="57" viewBox="0 0 57 57" fill="none" xmlns="http://www.w3.org/2000/svg">
<path d="M28.1536 0C12.609 0 0 12.6018 0 28.1536C0 43.6982 12.6018 56.3072 28.1536 56.3072C43.6982 56.3072 56.3072 43.7054 56.3072 28.1536C56.3072 12.609 43.7054 0 28.1536 0Z" fill="#003E79"/>
<g clip-path="url(#clip0_12666_114)">
<path d="M43.8895 28.5948C43.8175 28.4904 42.0943 26.0086 39.2891 23.4918C38.1505 22.4703 36.9961 21.5905 35.8411 20.8633V19.1805C36.7373 18.9112 37.3921 18.0783 37.3921 17.0952C37.3921 15.8948 36.416 14.9182 35.2161 14.9182C34.0162 14.9182 33.0401 15.8948 33.0401 17.0952C33.0401 18.0783 33.6949 18.9112 34.5911 19.1805V20.1361C34.4834 20.0786 34.3757 20.0224 34.2681 19.9676C32.3616 18.9974 30.4664 18.457 28.625 18.3569V17.2623C29.5211 16.993 30.176 16.1601 30.176 15.177C30.176 13.9766 29.1998 13 28 13C26.8001 13 25.8239 13.9766 25.8239 15.177C25.8239 16.1601 26.4788 16.993 27.375 17.2623V18.3569C25.5335 18.4571 23.6383 18.9974 21.7318 19.9676C21.6242 20.0224 21.5165 20.0786 21.4088 20.1361V19.1805C22.305 18.9112 22.9598 18.0783 22.9598 17.0952C22.9598 15.8948 21.9836 14.9182 20.7838 14.9182C19.5839 14.9182 18.6078 15.8948 18.6078 17.0952C18.6078 18.0783 19.2626 18.9112 20.1588 19.1805V20.8633C19.0038 21.5905 17.8494 22.4703 16.7108 23.4917C13.9056 26.0086 12.1823 28.4904 12.1104 28.5948C11.9632 28.8084 11.9632 29.0907 12.1104 29.3043C12.1824 29.4087 13.9056 31.8905 16.7108 34.4073C17.592 35.1979 18.4826 35.9034 19.3756 36.5191V40.8814L18.1359 41.6007C17.8373 41.774 17.7358 42.1565 17.909 42.455C18.025 42.6548 18.2346 42.7664 18.4502 42.7664C18.5567 42.7664 18.6646 42.7391 18.7633 42.6819L20.3143 41.7819C20.507 41.6701 20.6256 41.4641 20.6256 41.2413V37.3213C20.9948 37.5406 21.3637 37.7441 21.732 37.9315C23.6385 38.9017 25.5336 39.4421 27.3751 39.5422V40.7377C26.4789 41.0071 25.824 41.8399 25.824 42.8231C25.8239 44.0234 26.8001 45 28 45C29.1998 45 30.176 44.0234 30.176 42.823C30.176 41.8399 29.5211 41.007 28.625 40.7377V39.5422C30.4664 39.442 32.3616 38.9016 34.2681 37.9314C34.6363 37.744 35.0053 37.5405 35.3743 37.3213V41.2413C35.3743 41.4641 35.4929 41.6701 35.6856 41.7819L37.2367 42.6819C37.3354 42.7392 37.4433 42.7664 37.5498 42.7664C37.7653 42.7664 37.975 42.6548 38.091 42.455C38.2641 42.1564 38.1626 41.774 37.864 41.6007L36.6243 40.8814V36.5192C37.5173 35.9034 38.4079 35.1979 39.289 34.4073C42.0943 31.8905 43.8174 29.4087 43.8895 29.3043C44.0368 29.0907 44.0368 28.8084 43.8895 28.5948ZM34.2901 17.0952C34.2901 16.5841 34.7055 16.1682 35.2161 16.1682C35.7267 16.1682 36.1421 16.584 36.1421 17.0952C36.1421 17.6064 35.7267 18.0222 35.2161 18.0222C34.7055 18.0222 34.2901 17.6063 34.2901 17.0952ZM19.8578 17.0952C19.8578 16.5841 20.2731 16.1682 20.7838 16.1682C21.2944 16.1682 21.7098 16.584 21.7098 17.0952C21.7098 17.6064 21.2944 18.0222 20.7838 18.0222C20.2731 18.0222 19.8578 17.6063 19.8578 17.0952ZM27.0739 15.177C27.0739 14.6658 27.4893 14.25 28 14.25C28.5106 14.25 28.926 14.6658 28.926 15.177C28.926 15.6882 28.5106 16.1039 28 16.1039C27.4893 16.1039 27.0739 15.6881 27.0739 15.177ZM28.926 42.823C28.926 43.3341 28.5106 43.75 28 43.75C27.4893 43.75 27.0739 43.3342 27.0739 42.823C27.0739 42.3118 27.4893 41.896 28 41.896C28.5106 41.896 28.926 42.3119 28.926 42.823ZM28 38.3096C25.2956 38.3096 22.7501 37.2137 20.6255 35.8453V32.8356C20.7746 32.7907 20.917 32.7304 21.0508 32.6563C22.4076 35.2244 25.0595 36.8461 28 36.8461C29.6 36.8461 31.14 36.3668 32.4536 35.4599C33.5056 34.7336 34.3568 33.7744 34.9487 32.6561C35.0826 32.7303 35.2251 32.7907 35.3743 32.8356V35.8453C33.2498 37.2137 30.7043 38.3096 28 38.3096ZM21.3825 28.9495C21.3825 25.2846 24.3511 22.303 28 22.303C29.1061 22.303 30.1833 22.5772 31.1454 23.1003C31.0724 23.3337 31.0348 23.5783 31.0348 23.8267C31.0348 25.1631 32.1187 26.2502 33.451 26.2502C33.6426 26.2502 33.8331 26.2273 34.0182 26.1826C34.4114 27.0459 34.6173 27.9923 34.6173 28.9495C34.6173 28.9898 34.6168 29.0302 34.6161 29.0707C34.1321 29.4704 33.8232 30.0749 33.8232 30.7501C33.8232 31.0839 33.8988 31.4004 34.0336 31.6834C32.9636 34.0691 30.624 35.596 27.9998 35.596C25.3823 35.596 23.0366 34.067 21.9662 31.6831C22.1009 31.4002 22.1765 31.0839 22.1765 30.7502C22.1765 30.075 21.8676 29.4706 21.3839 29.071C21.3833 29.0304 21.3825 28.9899 21.3825 28.9495ZM35.9993 31.6771C35.4887 31.6771 35.0733 31.2613 35.0733 30.7501C35.0733 30.2389 35.4887 29.8231 35.9993 29.8231C36.51 29.8231 36.9254 30.239 36.9254 30.7501C36.9254 31.2613 36.51 31.6771 35.9993 31.6771ZM20.9266 30.7502C20.9266 31.2613 20.5111 31.6772 20.0005 31.6772C19.4899 31.6772 19.0745 31.2614 19.0745 30.7502C19.0745 30.239 19.4899 29.8232 20.0005 29.8232C20.5111 29.8232 20.9266 30.2391 20.9266 30.7502ZM38.434 33.4951C37.893 33.9796 37.2862 34.4846 36.6243 34.9775V32.8355C37.5205 32.5662 38.1754 31.7333 38.1754 30.7502C38.1754 29.5497 37.1992 28.5732 35.9993 28.5732C35.952 28.5732 35.9051 28.5749 35.8586 28.5779C35.8011 27.3554 35.4615 26.1582 34.8674 25.0942C34.7865 24.9494 34.6515 24.8427 34.4918 24.7975C34.3323 24.7523 34.1613 24.7724 34.0166 24.8534C33.8448 24.9495 33.6493 25.0002 33.451 25.0002C32.808 25.0002 32.2848 24.4738 32.2848 23.8267C32.2848 23.5994 32.3493 23.3791 32.4713 23.1897C32.6574 22.9009 32.5755 22.516 32.2879 22.328C31.0118 21.4939 29.529 21.0531 27.9999 21.0531C23.7859 21.0531 20.3353 24.3956 20.1412 28.5779C20.0946 28.5749 20.0478 28.5732 20.0005 28.5732C18.8006 28.5732 17.8245 29.5498 17.8245 30.7502C17.8245 31.7334 18.4793 32.5662 19.3755 32.8356V34.9776C18.7136 34.4847 18.1069 33.9797 17.5658 33.4952C15.4698 31.6182 13.9714 29.7181 13.3975 28.9496C13.9715 28.1811 15.4698 26.281 17.5658 24.4041C20.0185 22.2077 23.8197 19.5896 27.9998 19.5896C32.18 19.5896 35.9811 22.2077 38.4338 24.4041C40.5299 26.2811 42.0282 28.1811 42.6021 28.9496C42.0283 29.7181 40.53 31.6181 38.434 33.4951Z" fill="white"/>
<path d="M28.0001 32.9416C30.194 32.9416 31.9787 31.1508 31.9787 28.9496C31.9787 26.7483 30.194 24.9575 28.0001 24.9575C25.8063 24.9575 24.0215 26.7483 24.0215 28.9496C24.0215 31.1508 25.8063 32.9416 28.0001 32.9416ZM28.0001 26.2075C29.5047 26.2075 30.7287 27.4376 30.7287 28.9496C30.7287 30.4616 29.5047 31.6916 28.0001 31.6916C26.4955 31.6916 25.2715 30.4616 25.2715 28.9496C25.2715 27.4376 26.4955 26.2075 28.0001 26.2075Z" fill="white"/>
</g>
<defs>
<clipPath id="clip0_12666_114">
<rect width="32" height="32" fill="white" transform="translate(12 13)"/>
</clipPath>
</defs>
</svg>
