<svg width="58" height="57" viewBox="0 0 58 57" fill="none" xmlns="http://www.w3.org/2000/svg">
<path d="M28.8851 0.353516C13.3404 0.353516 0.731445 12.9553 0.731445 28.5071C0.731445 44.0518 13.3333 56.6607 28.8851 56.6607C44.4297 56.6607 57.0387 44.0589 57.0387 28.5071C57.0387 12.9625 44.4369 0.353516 28.8851 0.353516Z" fill="#003E79"/>
<g clip-path="url(#clip0_12666_114)">
<path d="M44.2093 28.2874C44.1393 28.1998 42.494 26.0761 39.7751 23.9232C38.1765 22.6571 36.537 21.6478 34.9151 20.9243C32.8672 20.0083 30.8309 19.5474 28.8589 19.5474C26.8869 19.5474 24.8857 20.0083 22.8553 20.9243C21.2333 21.6478 19.6055 22.6571 18.0069 23.9232C15.288 26.0761 13.631 28.194 13.561 28.2874C13.4677 28.404 13.4618 28.5674 13.5435 28.6899C13.6019 28.7833 15.0196 30.9129 17.6159 33.0716C19.1446 34.3377 20.7607 35.3529 22.4235 36.0822C24.5122 36.9923 26.6768 37.4533 28.8589 37.4533C30.7843 37.4533 32.7913 36.9923 34.8217 36.0763C36.4437 35.3529 38.0773 34.3435 39.6935 33.0774C42.4356 30.9245 44.1335 28.8066 44.2093 28.7191C44.3085 28.5907 44.3085 28.4157 44.2093 28.2874ZM25.8367 36.4381C25.8775 36.4089 25.9067 36.368 25.9242 36.3214L26.1226 35.8079C26.1809 35.6562 26.1051 35.4929 25.9592 35.4287C25.8075 35.3704 25.6383 35.4462 25.58 35.5921V35.5979L25.3816 36.1055C25.3524 36.1813 25.3582 36.263 25.3874 36.3389C22.2893 35.5921 19.7922 33.9643 18.0769 32.5465C16.0173 30.837 14.6929 29.1042 14.2728 28.5149C15.5272 27.0329 16.9216 25.6794 18.4386 24.4716C20.1773 23.0947 22.6044 21.5311 25.3757 20.7493C25.3407 20.8251 25.3407 20.9185 25.3757 20.9943L25.5975 21.4961C25.6441 21.6011 25.7492 21.6653 25.8658 21.6653C25.9067 21.6653 25.9475 21.6594 25.9825 21.6419C26.1284 21.5777 26.1926 21.4144 26.1342 21.2685C26.1342 21.2627 26.1342 21.2627 26.1284 21.2569L25.9067 20.7551C25.8833 20.7084 25.8425 20.6676 25.8017 20.6384C26.2976 20.5159 26.7993 20.4167 27.3069 20.3467L27.1611 21.4611C26.4376 21.6361 25.7492 21.922 25.119 22.3129L24.0222 21.4669C23.8821 21.3619 23.6896 21.3735 23.5612 21.4961L21.8517 23.2231C21.7292 23.3514 21.7176 23.544 21.8284 23.684L22.6861 24.7867C22.3127 25.4051 22.0443 26.0819 21.8809 26.7879L20.4865 26.9454C20.3115 26.9688 20.1773 27.1146 20.1773 27.2897V29.7168C20.1773 29.8977 20.3115 30.0435 20.4865 30.0669L21.9218 30.2361C22.0968 30.9128 22.371 31.5663 22.7386 32.1614L21.8284 33.3166C21.7176 33.4567 21.7292 33.655 21.8517 33.7834L23.5612 35.5046C23.6779 35.6271 23.8705 35.6446 24.0105 35.5454L25.2941 34.6469C25.8717 34.9795 26.496 35.2303 27.1436 35.3879L27.3069 36.6714C26.811 36.6189 26.3209 36.5431 25.8367 36.4381ZM29.9908 35.0378L29.8099 36.5314H27.9954L27.8087 35.0553C27.7912 34.9094 27.6803 34.7869 27.5345 34.7577C26.7993 34.6061 26.0992 34.326 25.4633 33.9351C25.3466 33.8592 25.1949 33.8651 25.0782 33.9468L23.8471 34.8044L22.5694 33.5092L23.4445 32.4006C23.5379 32.2839 23.5437 32.1206 23.4621 31.9922C23.0245 31.3388 22.7152 30.6095 22.546 29.8393C22.511 29.6935 22.3943 29.5826 22.2427 29.5651L20.8774 29.4076V27.6047L22.2076 27.453C22.3593 27.4355 22.4819 27.3247 22.511 27.173C22.6686 26.3853 22.9661 25.6268 23.4037 24.9501C23.4854 24.8275 23.4796 24.6642 23.3862 24.5475L22.5694 23.4973L23.8413 22.2137L24.8857 23.0189C25.0023 23.1122 25.1657 23.118 25.2941 23.0364C25.9767 22.5754 26.7468 22.2604 27.552 22.097C27.6979 22.062 27.8087 21.9453 27.8262 21.7936L27.9954 20.4692H29.8099L29.9733 21.8111C29.9908 21.9628 30.1016 22.0795 30.2475 22.1145C31.0585 22.2895 31.8286 22.6221 32.5113 23.0947C32.6396 23.1822 32.803 23.1764 32.9255 23.083L33.9815 22.2662L35.2593 23.5498L34.3958 24.6525C34.3083 24.7692 34.2966 24.9267 34.3725 25.0551C34.7692 25.6969 35.0492 26.4028 35.1951 27.1438C35.2243 27.2955 35.3468 27.4064 35.4985 27.4239L36.9396 27.5989V29.4076L35.4577 29.6001C35.3118 29.6176 35.1951 29.7285 35.1601 29.8685C34.9967 30.5978 34.705 31.2863 34.3024 31.9164C34.2208 32.0447 34.2266 32.2081 34.3199 32.3248L35.2535 33.5092L33.9815 34.7986L32.7738 33.8709C32.6571 33.7834 32.4938 33.7776 32.3712 33.8592C31.7236 34.2735 31.0118 34.5769 30.2592 34.7402C30.1191 34.7752 30.0083 34.8919 29.9908 35.0378ZM39.25 32.5348C37.523 33.8884 35.1251 35.4287 32.4179 36.2222C32.4121 36.2105 32.4121 36.193 32.4062 36.1813L32.1787 35.6854C32.1145 35.5396 31.9512 35.4754 31.8053 35.5337C31.7995 35.5337 31.7995 35.5337 31.7936 35.5396C31.6478 35.6037 31.5836 35.7788 31.6478 35.9246L31.852 36.3739C31.4086 36.4847 30.9535 36.5723 30.4984 36.6364L30.6559 35.3645C31.321 35.1953 31.9512 34.9269 32.5404 34.5769L33.8007 35.5396C33.9407 35.6446 34.1391 35.6329 34.2616 35.5046L35.9711 33.7834C36.0936 33.655 36.1053 33.4567 35.9944 33.3166L35.0201 32.0856C35.3585 31.5196 35.6152 30.907 35.7844 30.2652L37.3363 30.0669C37.5114 30.0435 37.6397 29.8918 37.6397 29.7168V27.2897C37.6397 27.1146 37.5055 26.9688 37.3305 26.9454L35.8252 26.7587C35.6735 26.1053 35.4285 25.481 35.0959 24.8975L36.0003 23.7365C36.1053 23.5965 36.0936 23.4039 35.9711 23.2756L34.2616 21.5544C34.1391 21.4261 33.9407 21.4144 33.8007 21.5194L32.698 22.3771C32.062 21.9745 31.3677 21.6711 30.6384 21.4844L30.4984 20.3584C31.0468 20.4342 31.5953 20.5451 32.132 20.6851C32.1087 20.7084 32.0912 20.7376 32.0795 20.7668L31.8811 21.2744C31.8228 21.4261 31.8986 21.5894 32.0445 21.6536C32.0795 21.6653 32.1204 21.6711 32.1554 21.6711C32.2721 21.6711 32.3829 21.6011 32.4237 21.4902L32.6221 20.9768C32.6396 20.9301 32.6513 20.8776 32.6396 20.8251C35.3176 21.6303 37.6456 23.1355 39.3259 24.46C40.8428 25.6619 42.2373 27.0154 43.48 28.4974C42.2023 29.9735 40.7845 31.3271 39.25 32.5348Z" fill="white"/>
<path d="M36.5836 25.1424L36.0877 25.3699C35.9418 25.4399 35.8777 25.6091 35.9418 25.755C35.9885 25.86 36.0935 25.9242 36.2102 25.9242C36.2511 25.9242 36.2919 25.9184 36.3328 25.9009L36.8287 25.6675C36.9804 25.615 37.0621 25.4516 37.0154 25.2999C36.9629 25.1482 36.7995 25.0665 36.6478 25.1132C36.6245 25.119 36.6011 25.1307 36.5836 25.1424Z" fill="white"/>
<path d="M21.8574 31.327C21.7932 31.1811 21.624 31.1169 21.4781 31.1811C21.4781 31.1811 21.4723 31.1811 21.4723 31.1869L20.9764 31.4145C20.8305 31.4845 20.7663 31.6537 20.8305 31.7996C20.8772 31.9046 20.9822 31.9688 21.0989 31.9688C21.1397 31.9688 21.1806 31.9629 21.2214 31.9454L21.7174 31.712C21.8632 31.6479 21.9274 31.4787 21.8632 31.3328C21.8574 31.3328 21.8574 31.327 21.8574 31.327Z" fill="white"/>
<path d="M20.9765 25.6678L21.4725 25.9012C21.5133 25.9187 21.5541 25.9245 21.595 25.9245C21.7058 25.9245 21.8108 25.8604 21.8575 25.7553C21.9275 25.6153 21.8692 25.4403 21.7233 25.3761C21.7233 25.3761 21.7175 25.3761 21.7175 25.3703L21.2216 25.1427C21.0874 25.0552 20.9065 25.1019 20.819 25.2361C20.7315 25.3703 20.7782 25.5511 20.9123 25.6387C20.9357 25.6503 20.9532 25.662 20.9765 25.6678Z" fill="white"/>
<path d="M36.8288 31.4147L36.3329 31.1872C36.1987 31.0996 36.0178 31.1463 35.9303 31.2805C35.8428 31.4147 35.8895 31.5956 36.0237 31.6831C36.0412 31.6948 36.0645 31.7064 36.0879 31.7123L36.5838 31.9456C36.6246 31.9631 36.6655 31.969 36.7063 31.969C36.823 31.969 36.928 31.9048 36.9747 31.7998C37.0389 31.6539 36.9747 31.4847 36.8288 31.4147Z" fill="white"/>
<path d="M34.3786 28.4276C34.3786 25.3761 31.9047 22.9023 28.8533 22.9023C25.8019 22.9023 23.3281 25.3761 23.3281 28.4276C23.3281 31.479 25.8019 33.9528 28.8533 33.9528H28.8592C31.9106 33.9469 34.3786 31.479 34.3786 28.4276ZM28.8592 33.2526C26.1928 33.2585 24.0341 31.0997 24.0283 28.4334C24.0224 25.7671 26.1812 23.6083 28.8475 23.6025C31.5138 23.5966 33.6726 25.7554 33.6784 28.4217V28.4276C33.6726 31.0881 31.5197 33.2468 28.8592 33.2526Z" fill="white"/>
<path d="M28.8585 25.7085C27.359 25.7085 26.1396 26.9279 26.1396 28.4273C26.1396 29.9268 27.359 31.1462 28.8585 31.1462C30.3579 31.1462 31.5773 29.9268 31.5773 28.4273C31.5773 26.9279 30.3579 25.7085 28.8585 25.7085ZM28.8585 30.4461C27.7441 30.4461 26.8398 29.5417 26.8398 28.4273C26.8398 27.313 27.7441 26.4086 28.8585 26.4086C29.9729 26.4086 30.8772 27.313 30.8772 28.4273C30.8772 29.5417 29.9729 30.4461 28.8585 30.4461Z" fill="white"/>
</g>
<defs>
<clipPath id="clip0_12666_114">
<rect width="30.8" height="30.8" fill="white" transform="translate(13.4854 13.1001)"/>
</clipPath>
</defs>
</svg>
