<svg width="58" height="57" viewBox="0 0 58 57" fill="none" xmlns="http://www.w3.org/2000/svg">
<path d="M28.8851 0.353516C13.3404 0.353516 0.731445 12.9553 0.731445 28.5071C0.731445 44.0518 13.3333 56.6607 28.8851 56.6607C44.4297 56.6607 57.0387 44.0589 57.0387 28.5071C57.0387 12.9625 44.4369 0.353516 28.8851 0.353516Z" fill="#003E79"/>
<g clip-path="url(#clip0_12669_177)">
<path d="M43.655 20.1842C43.7016 20.1393 43.7386 20.0855 43.764 20.0259C43.7893 19.9664 43.8023 19.9024 43.8023 19.8377C43.8023 19.773 43.7893 19.709 43.764 19.6494C43.7386 19.5899 43.7016 19.5361 43.655 19.4912C39.6696 15.7052 34.3825 13.5942 28.8855 13.5942C23.3884 13.5942 18.1013 15.7052 14.1159 19.4912C14.0693 19.5361 14.0323 19.5899 14.007 19.6494C13.9817 19.709 13.9686 19.773 13.9686 19.8377C13.9686 19.9024 13.9817 19.9664 14.007 20.0259C14.0323 20.0855 14.0693 20.1393 14.1159 20.1842C17.9616 23.8876 23.0661 25.9988 28.4042 26.0939V27.0564C28.4042 27.7516 28.5411 28.44 28.8072 29.0823C29.0732 29.7245 29.4631 30.3081 29.9547 30.7997C30.9475 31.7924 32.294 32.3502 33.698 32.3502H40.4355C41.0736 32.3502 41.6857 32.6037 42.1369 33.055C42.5882 33.5062 42.8417 34.1183 42.8417 34.7564C42.8417 35.3946 42.5882 36.0066 42.1369 36.4579C41.6857 36.9092 41.0736 37.1627 40.4355 37.1627H30.2426C30.1433 36.8818 29.9596 36.6386 29.7166 36.4663C29.4736 36.294 29.1833 36.201 28.8855 36.2002H27.254C26.9341 34.9613 26.2118 33.8637 25.2006 33.0797C24.1893 32.2958 22.9463 31.8699 21.6667 31.8689C21.5391 31.8689 21.4167 31.9196 21.3264 32.0099C21.2362 32.1001 21.1855 32.2225 21.1855 32.3502V32.8314H16.373C16.2841 32.8317 16.197 32.8566 16.1214 32.9033C16.0458 32.95 15.9846 33.0168 15.9447 33.0961L15.5837 33.7939C15.5261 33.7892 15.4681 33.7892 15.4105 33.7939C15.0776 33.7937 14.7549 33.9085 14.497 34.1189C14.239 34.3294 14.0617 34.6224 13.9951 34.9485C13.9284 35.2747 13.9765 35.6138 14.1311 35.9085C14.2858 36.2033 14.5376 36.4355 14.8438 36.566C15.1501 36.6964 15.492 36.717 15.8117 36.6243C16.1314 36.5316 16.4092 36.3313 16.5981 36.0573C16.7871 35.7832 16.8756 35.4523 16.8486 35.1206C16.8216 34.7888 16.6807 34.4765 16.45 34.2367L16.6713 33.7939H21.1855V34.2752C21.1855 34.4028 21.2362 34.5252 21.3264 34.6155C21.4167 34.7057 21.5391 34.7564 21.6667 34.7564C22.4325 34.7564 23.167 35.0606 23.7085 35.6022C24.25 36.1437 24.5542 36.8781 24.5542 37.6439C24.5542 38.4097 24.25 39.1442 23.7085 39.6857C23.167 40.2272 22.4325 40.5314 21.6667 40.5314C21.5391 40.5314 21.4167 40.5821 21.3264 40.6724C21.2362 40.7626 21.1855 40.885 21.1855 41.0127V41.4939H16.6713L16.45 41.0512C16.6807 40.8113 16.8216 40.4991 16.8486 40.1673C16.8756 39.8355 16.7871 39.5046 16.5981 39.2306C16.4092 38.9566 16.1314 38.7563 15.8117 38.6636C15.492 38.5708 15.1501 38.5915 14.8438 38.7219C14.5376 38.8523 14.2858 39.0846 14.1311 39.3793C13.9765 39.6741 13.9284 40.0132 13.9951 40.3393C14.0617 40.6654 14.239 40.9585 14.497 41.1689C14.7549 41.3793 15.0776 41.4941 15.4105 41.4939C15.4681 41.4987 15.5261 41.4987 15.5837 41.4939L15.9447 42.211C15.9872 42.2868 16.0495 42.3496 16.1249 42.3928C16.2004 42.436 16.2861 42.458 16.373 42.4564H21.1855V42.9377C21.1855 43.0653 21.2362 43.1877 21.3264 43.278C21.4167 43.3682 21.5391 43.4189 21.6667 43.4189C22.9463 43.418 24.1893 42.9921 25.2006 42.2081C26.2118 41.4242 26.9341 40.3266 27.254 39.0877H28.8855C29.1833 39.0868 29.4736 38.9939 29.7166 38.8216C29.9596 38.6493 30.1433 38.406 30.2426 38.1252H40.4355C41.3289 38.1252 42.1858 37.7703 42.8175 37.1385C43.4493 36.5067 43.8042 35.6499 43.8042 34.7564C43.8042 33.863 43.4493 33.0061 42.8175 32.3744C42.1858 31.7426 41.3289 31.3877 40.4355 31.3877H33.698C32.5492 31.3877 31.4476 30.9314 30.6353 30.1191C29.823 29.3068 29.3667 28.2051 29.3667 27.0564V26.0939C34.7048 25.9988 39.8093 23.8876 43.655 20.1842ZM35.2861 15.5642C38.0094 16.4454 40.5109 17.903 42.6203 19.8377C40.5109 21.7724 38.0094 23.2299 35.2861 24.1112C36.1303 22.8458 36.5808 21.3588 36.5808 19.8377C36.5808 18.3166 36.1303 16.8295 35.2861 15.5642ZM15.1506 19.8377C17.2601 17.903 19.7616 16.4454 22.4848 15.5642C21.6406 16.8295 21.1901 18.3166 21.1901 19.8377C21.1901 21.3588 21.6406 22.8458 22.4848 24.1112C19.7616 23.2299 17.2601 21.7724 15.1506 19.8377ZM28.8855 23.2064C28.2192 23.2064 27.5679 23.0089 27.0139 22.6387C26.4599 22.2685 26.0281 21.7424 25.7731 21.1268C25.5182 20.5113 25.4515 19.8339 25.5814 19.1805C25.7114 18.527 26.0323 17.9267 26.5034 17.4556C26.9745 16.9845 27.5748 16.6636 28.2283 16.5337C28.8817 16.4037 29.5591 16.4704 30.1746 16.7254C30.7902 16.9803 31.3163 17.4121 31.6865 17.9661C32.0566 18.5201 32.2542 19.1714 32.2542 19.8377C32.2542 20.7311 31.8993 21.588 31.2675 22.2197C30.6358 22.8515 29.7789 23.2064 28.8855 23.2064Z" fill="white"/>
</g>
<defs>
<clipPath id="clip0_12669_177">
<rect width="30.8" height="30.8" fill="white" transform="translate(13.4854 13.1001)"/>
</clipPath>
</defs>
</svg>
