<svg width="57" height="57" viewBox="0 0 57 57" fill="none" xmlns="http://www.w3.org/2000/svg">
<path d="M28.1536 0C12.609 0 0 12.6018 0 28.1536C0 43.6982 12.6018 56.3072 28.1536 56.3072C43.6982 56.3072 56.3072 43.7054 56.3072 28.1536C56.3072 12.609 43.7054 0 28.1536 0Z" fill="#003E79"/>
<path d="M16.5169 31.7096C15.883 31.7096 15.2633 31.5217 14.7362 31.1695C14.2091 30.8174 13.7982 30.3168 13.5556 29.7312C13.313 29.1455 13.2494 28.5011 13.3731 27.8794C13.4967 27.2576 13.8019 26.6865 14.2502 26.2382C14.6984 25.7899 15.2695 25.4846 15.8912 25.3609C16.5129 25.2372 17.1574 25.3007 17.7431 25.5432C18.3287 25.7858 18.8293 26.1966 19.1815 26.7237C19.5337 27.2507 19.7218 27.8704 19.7218 28.5043C19.7208 29.3541 19.3829 30.1687 18.7821 30.7696C18.1813 31.3705 17.3666 31.7085 16.5169 31.7096ZM16.5169 26.2993C16.0808 26.2993 15.6544 26.4286 15.2917 26.6708C14.9291 26.9131 14.6464 27.2575 14.4794 27.6604C14.3125 28.0634 14.2688 28.5068 14.3539 28.9345C14.4389 29.3623 14.649 29.7552 14.9573 30.0637C15.2657 30.3721 15.6587 30.5821 16.0864 30.6672C16.5142 30.7523 16.9576 30.7086 17.3605 30.5417C17.7635 30.3748 18.1079 30.0921 18.3502 29.7295C18.5925 29.3668 18.7218 28.9405 18.7218 28.5043C18.721 27.9198 18.4884 27.3595 18.0751 26.9462C17.6617 26.533 17.1014 26.3005 16.5169 26.2998V26.2993Z" fill="white"/>
<path d="M17.5821 42.774C17.4495 42.774 17.3223 42.7214 17.2285 42.6276C17.1347 42.5338 17.0821 42.4066 17.0821 42.274V36.5877C17.0821 36.5011 17.1046 36.4161 17.1474 36.3408C17.1901 36.2656 17.2517 36.2028 17.326 36.1584C17.4003 36.1141 17.4849 36.0899 17.5714 36.088C17.6579 36.0862 17.7434 36.1068 17.8196 36.1479L19.9106 37.2785L23.2106 37.4245C23.2264 37.4258 23.2424 37.4236 23.2573 37.418C23.2722 37.4124 23.2857 37.4036 23.2968 37.3922C23.3084 37.3813 23.3175 37.3682 23.3238 37.3536C23.33 37.339 23.3331 37.3233 23.3329 37.3074C23.3336 37.0714 23.2543 36.8421 23.1081 36.6569C22.9619 36.4716 22.7574 36.3413 22.5277 36.287L19.6579 35.6014C19.5583 35.5775 19.4683 35.5236 19.4002 35.447L18.2013 34.097C17.8203 33.6681 17.318 33.3652 16.7608 33.2284C16.2037 33.0916 15.6181 33.1275 15.0818 33.3312C14.5456 33.535 14.0839 33.897 13.7581 34.3692C13.4324 34.8414 13.2579 35.4015 13.2578 35.9752V42.2737C13.2578 42.4063 13.2051 42.5334 13.1114 42.6272C13.0176 42.721 12.8904 42.7737 12.7578 42.7737C12.6252 42.7737 12.498 42.721 12.4043 42.6272C12.3105 42.5334 12.2578 42.4063 12.2578 42.2737V35.9752C12.2578 35.1986 12.494 34.4403 12.935 33.8011C13.3759 33.1618 14.0009 32.6718 14.7269 32.396C15.4529 32.1202 16.2456 32.0718 16.9998 32.257C17.754 32.4423 18.434 32.8525 18.9496 33.4333L20.0439 34.6657L22.7606 35.3148C23.2092 35.4208 23.6087 35.6754 23.8943 36.0372C24.1798 36.399 24.3346 36.8468 24.3334 37.3078C24.3334 37.4587 24.3029 37.608 24.2436 37.7467C24.1843 37.8855 24.0976 38.0108 23.9885 38.1151C23.8795 38.2194 23.7505 38.3005 23.6093 38.3536C23.4681 38.4067 23.3175 38.4307 23.1668 38.424L19.7521 38.2729C19.6766 38.2695 19.6028 38.2491 19.5363 38.2132L18.0821 37.4268V42.274C18.0821 42.4066 18.0294 42.5338 17.9356 42.6276C17.8418 42.7214 17.7147 42.774 17.5821 42.774Z" fill="white"/>
<path d="M39.4826 31.7096C38.8487 31.7096 38.229 31.5216 37.7019 31.1695C37.1748 30.8173 36.764 30.3168 36.5214 29.7311C36.2788 29.1455 36.2153 28.501 36.3389 27.8793C36.4626 27.2575 36.7678 26.6864 37.216 26.2382C37.6642 25.7899 38.2353 25.4846 38.8571 25.3609C39.4788 25.2372 40.1232 25.3007 40.7089 25.5432C41.2946 25.7858 41.7952 26.1966 42.1474 26.7237C42.4996 27.2507 42.6876 27.8704 42.6876 28.5043C42.6867 29.3541 42.3487 30.1688 41.7479 30.7697C41.147 31.3706 40.3324 31.7086 39.4826 31.7096ZM39.4826 26.2993C39.0465 26.2993 38.6201 26.4286 38.2574 26.6709C37.8948 26.9132 37.6121 27.2576 37.4452 27.6605C37.2783 28.0635 37.2346 28.5068 37.3197 28.9346C37.4048 29.3624 37.6148 29.7553 37.9232 30.0637C38.2316 30.3721 38.6245 30.5821 39.0523 30.6672C39.4801 30.7523 39.9235 30.7086 40.3264 30.5417C40.7293 30.3748 41.0737 30.0921 41.316 29.7295C41.5583 29.3668 41.6876 28.9405 41.6876 28.5043C41.6868 27.9198 41.4543 27.3594 41.0409 26.9462C40.6275 26.5329 40.0671 26.3004 39.4826 26.2998V26.2993Z" fill="white"/>
<path d="M43.2421 42.7739C43.1095 42.7739 42.9823 42.7212 42.8886 42.6275C42.7948 42.5337 42.7421 42.4065 42.7421 42.2739V35.975C42.7421 35.4013 42.5676 34.8412 42.2418 34.369C41.916 33.8968 41.4543 33.5348 40.918 33.3311C40.3818 33.1273 39.7962 33.0914 39.239 33.2282C38.6819 33.3649 38.1795 33.6679 37.7985 34.0968L36.5997 35.4468C36.5316 35.5233 36.4417 35.5772 36.342 35.6012L33.4722 36.2875C33.2426 36.3418 33.038 36.4721 32.8918 36.6574C32.7456 36.8426 32.6664 37.0719 32.667 37.3079C32.667 37.3237 32.6702 37.3394 32.6764 37.354C32.6826 37.3686 32.6917 37.3817 32.7032 37.3927C32.7146 37.4036 32.7282 37.4121 32.743 37.4177C32.7579 37.4233 32.7737 37.4258 32.7895 37.425L36.0895 37.279L38.1806 36.1484C38.2568 36.1073 38.3423 36.0867 38.4288 36.0885C38.5153 36.0904 38.5999 36.1146 38.6742 36.1589C38.7485 36.2033 38.8101 36.2661 38.8528 36.3413C38.8956 36.4166 38.9181 36.5016 38.9181 36.5882V42.2742C38.9181 42.4068 38.8654 42.5339 38.7717 42.6277C38.6779 42.7215 38.5507 42.7742 38.4181 42.7742C38.2855 42.7742 38.1583 42.7215 38.0646 42.6277C37.9708 42.5339 37.9181 42.4068 37.9181 42.2742V37.4267L36.4636 38.2125C36.3971 38.2485 36.3234 38.2689 36.2479 38.2723L32.8336 38.4234C32.6829 38.4301 32.5324 38.4061 32.3911 38.353C32.2499 38.2999 32.1209 38.2188 32.0119 38.1145C31.9029 38.0101 31.8161 37.8848 31.7568 37.7461C31.6976 37.6073 31.667 37.458 31.667 37.3072C31.6658 36.8462 31.8206 36.3984 32.1062 36.0366C32.3917 35.6747 32.7913 35.4201 33.2399 35.3142L35.9565 34.665L37.0507 33.4327C37.5664 32.8521 38.2465 32.442 39.0006 32.2569C39.7547 32.0718 40.5473 32.1203 41.2733 32.3961C41.9992 32.6719 42.624 33.1619 43.065 33.8011C43.5059 34.4403 43.7421 35.1985 43.7421 35.975V42.2735C43.7422 42.3392 43.7293 42.4043 43.7042 42.465C43.6791 42.5257 43.6422 42.5809 43.5958 42.6273C43.5494 42.6738 43.4942 42.7107 43.4336 42.7358C43.3729 42.761 43.3078 42.7739 43.2421 42.7739Z" fill="white"/>
<path d="M34.616 26.8599C34.5118 26.86 34.4101 26.8274 34.3253 26.7668L30.4405 23.9909H25.2342C24.8522 23.9905 24.4859 23.8385 24.2157 23.5684C23.9455 23.2983 23.7935 22.932 23.793 22.5499V14.6672C23.7934 14.2851 23.9454 13.9188 24.2156 13.6486C24.4858 13.3784 24.8521 13.2265 25.2342 13.2261H36.9083C37.2904 13.2265 37.6568 13.3784 37.927 13.6486C38.1972 13.9188 38.3492 14.2851 38.3496 14.6672V22.5499C38.3492 22.9321 38.1972 23.2984 37.927 23.5686C37.6568 23.8388 37.2905 23.9909 36.9083 23.9913H35.116V26.3599C35.116 26.4926 35.0633 26.6197 34.9695 26.7135C34.8758 26.8073 34.7486 26.8599 34.616 26.8599ZM25.2342 14.2261C25.1173 14.2262 25.0051 14.2727 24.9224 14.3554C24.8397 14.4381 24.7931 14.5502 24.793 14.6672V22.5499C24.7931 22.6669 24.8396 22.7791 24.9223 22.8619C25.0051 22.9446 25.1172 22.9912 25.2342 22.9913H30.6003C30.7046 22.9913 30.8062 23.0239 30.891 23.0844L34.116 25.3884V23.4909C34.116 23.3583 34.1686 23.2312 34.2624 23.1374C34.3562 23.0436 34.4834 22.9909 34.616 22.9909H36.9083C37.0253 22.9908 37.1375 22.9442 37.2202 22.8615C37.3029 22.7787 37.3495 22.6666 37.3496 22.5496V14.6672C37.3494 14.5502 37.3029 14.4381 37.2202 14.3554C37.1374 14.2727 37.0253 14.2262 36.9083 14.2261H25.2342Z" fill="white"/>
<path d="M35.4924 18.2588H26.6504C26.5178 18.2588 26.3906 18.2061 26.2968 18.1123C26.2031 18.0186 26.1504 17.8914 26.1504 17.7588C26.1504 17.6262 26.2031 17.499 26.2968 17.4052C26.3906 17.3115 26.5178 17.2588 26.6504 17.2588H35.4925C35.6251 17.2588 35.7523 17.3115 35.8461 17.4052C35.9398 17.499 35.9925 17.6262 35.9925 17.7588C35.9925 17.8914 35.9398 18.0186 35.8461 18.1123C35.7523 18.2061 35.625 18.2588 35.4924 18.2588Z" fill="white"/>
<path d="M33.6695 20.543H33.1152C32.9826 20.543 32.8554 20.4903 32.7617 20.3965C32.6679 20.3028 32.6152 20.1756 32.6152 20.043C32.6152 19.9104 32.6679 19.7832 32.7617 19.6894C32.8554 19.5956 32.9826 19.543 33.1152 19.543H33.6695C33.8021 19.543 33.9293 19.5956 34.023 19.6894C34.1168 19.7832 34.1695 19.9104 34.1695 20.043C34.1695 20.1756 34.1168 20.3028 34.023 20.3965C33.9293 20.4903 33.8021 20.543 33.6695 20.543Z" fill="white"/>
<path d="M31.8479 20.543H26.6504C26.5178 20.543 26.3906 20.4903 26.2968 20.3965C26.2031 20.3028 26.1504 20.1756 26.1504 20.043C26.1504 19.9104 26.2031 19.7832 26.2968 19.6894C26.3906 19.5956 26.5178 19.543 26.6504 19.543H31.8479C31.9805 19.543 32.1077 19.5956 32.2014 19.6894C32.2952 19.7832 32.3479 19.9104 32.3479 20.043C32.3479 20.1756 32.2952 20.3028 32.2014 20.3965C32.1077 20.4903 31.9805 20.543 31.8479 20.543Z" fill="white"/>
<path d="M21.8722 28.2252C21.7396 28.2252 21.6124 28.1725 21.5186 28.0787C21.4249 27.985 21.3722 27.8578 21.3722 27.7252V25.6107H19.7831C19.423 25.6104 19.0777 25.4672 18.8231 25.2126C18.5684 24.9581 18.4252 24.6129 18.4248 24.2528V17.0698C18.4252 16.7097 18.5684 16.3645 18.8231 16.1099C19.0777 15.8554 19.423 15.7122 19.7831 15.7119H22.6416C22.7742 15.7119 22.9013 15.7646 22.9951 15.8584C23.0889 15.9521 23.1416 16.0793 23.1416 16.2119C23.1416 16.3445 23.0889 16.4717 22.9951 16.5655C22.9013 16.6592 22.7742 16.7119 22.6416 16.7119H19.7831C19.6881 16.7119 19.5971 16.7497 19.5299 16.8167C19.4627 16.8838 19.4249 16.9749 19.4248 17.0698V24.2528C19.4249 24.3477 19.4626 24.4386 19.5297 24.5057C19.5968 24.5728 19.6878 24.6106 19.7827 24.6107H21.8722C22.0048 24.6107 22.132 24.6633 22.2257 24.7571C22.3195 24.8509 22.3722 24.9781 22.3722 25.1107V26.7533L25.2404 24.7033C25.3252 24.6427 25.4268 24.6102 25.5311 24.6102H30.4214C30.554 24.6102 30.6812 24.6628 30.775 24.7566C30.8688 24.8504 30.9214 24.9776 30.9214 25.1102C30.9214 25.2428 30.8688 25.3699 30.775 25.4637C30.6812 25.5575 30.554 25.6102 30.4214 25.6102H25.6913L22.1623 28.132C22.0776 28.1925 21.9762 28.2251 21.8722 28.2252Z" fill="white"/>
<path d="M35.7309 39.7524H33.7734C33.6408 39.7524 33.5137 39.6998 33.4199 39.606C33.3261 39.5122 33.2734 39.385 33.2734 39.2524C33.2734 39.1198 33.3261 38.9927 33.4199 38.8989C33.5137 38.8051 33.6408 38.7524 33.7734 38.7524H35.7309C35.8635 38.7524 35.9907 38.8051 36.0845 38.8989C36.1783 38.9927 36.2309 39.1198 36.2309 39.2524C36.2309 39.385 36.1783 39.5122 36.0845 39.606C35.9907 39.6998 35.8635 39.7524 35.7309 39.7524Z" fill="white"/>
<path d="M32.1671 39.7524H31.6777C31.5451 39.7524 31.4179 39.6998 31.3242 39.606C31.2304 39.5122 31.1777 39.385 31.1777 39.2524C31.1777 39.1198 31.2304 38.9927 31.3242 38.8989C31.4179 38.8051 31.5451 38.7524 31.6777 38.7524H32.1671C32.2997 38.7524 32.4269 38.8051 32.5207 38.8989C32.6144 38.9927 32.6671 39.1198 32.6671 39.2524C32.6671 39.385 32.6144 39.5122 32.5207 39.606C32.4269 39.6998 32.2997 39.7524 32.1671 39.7524Z" fill="white"/>
<path d="M30.2526 39.7524H20.2686C20.1359 39.7524 20.0088 39.6998 19.915 39.606C19.8212 39.5122 19.7686 39.385 19.7686 39.2524C19.7686 39.1198 19.8212 38.9927 19.915 38.8989C20.0088 38.8051 20.1359 38.7524 20.2686 38.7524H30.2526C30.3852 38.7524 30.5123 38.8051 30.6061 38.8989C30.6999 38.9927 30.7526 39.1198 30.7526 39.2524C30.7526 39.385 30.6999 39.5122 30.6061 39.606C30.5123 39.6998 30.3852 39.7524 30.2526 39.7524Z" fill="white"/>
</svg>
