<svg width="57" height="57" viewBox="0 0 57 57" fill="none" xmlns="http://www.w3.org/2000/svg">
<path d="M28.1536 0C12.609 0 0 12.6018 0 28.1536C0 43.6982 12.6018 56.3072 28.1536 56.3072C43.6982 56.3072 56.3072 43.7054 56.3072 28.1536C56.3072 12.609 43.7054 0 28.1536 0Z" fill="#003E79"/>
<g clip-path="url(#clip0_12666_62)">
<path d="M22.0806 32.9257C21.9163 32.9257 21.7549 32.8592 21.6387 32.743C21.6099 32.7137 21.5837 32.6818 21.5613 32.6473C21.5388 32.6136 21.5193 32.5775 21.5037 32.5399C21.488 32.5023 21.4763 32.463 21.468 32.423C21.46 32.3824 21.4556 32.3419 21.4556 32.3011C21.4556 32.2599 21.46 32.2194 21.468 32.1786C21.4763 32.1388 21.488 32.0992 21.5037 32.0619C21.5193 32.0243 21.5388 31.9882 21.5613 31.9537C21.5837 31.92 21.6099 31.8873 21.6387 31.8588C21.7837 31.7137 21.9993 31.6473 22.2031 31.6881C22.2424 31.6962 22.2817 31.7081 22.3201 31.7238C22.3574 31.7394 22.3938 31.7587 22.4275 31.7814C22.4619 31.8036 22.4937 31.83 22.5225 31.8588C22.5513 31.8873 22.5774 31.92 22.6006 31.9537C22.623 31.9882 22.6426 32.0243 22.6582 32.0619C22.6738 32.0995 22.6855 32.1388 22.6936 32.1786C22.7019 32.2194 22.7056 32.2599 22.7056 32.3011C22.7056 32.3419 22.7019 32.3824 22.6936 32.423C22.6855 32.463 22.6738 32.5026 22.6582 32.5399C22.6426 32.5775 22.623 32.6136 22.6006 32.6473C22.5774 32.6818 22.5513 32.7137 22.5225 32.743C22.4937 32.7718 22.4619 32.7975 22.4275 32.8207C22.3938 32.8429 22.3574 32.8624 22.3201 32.878C22.2817 32.8937 22.2424 32.9056 22.2031 32.9137C22.1624 32.9217 22.1211 32.9257 22.0806 32.9257Z" fill="white"/>
<path d="M38.1765 39.0225C38.1233 37.8923 37.176 37.0073 36.02 37.0073H30.6306C31.0159 36.1597 30.8472 35.1426 30.1536 34.4592L26.897 31.2273L24.4207 27.2539C24.4055 27.23 24.3889 27.2068 24.3709 27.1851C23.332 25.9355 22.196 25.3281 20.8984 25.3281H12.625C12.2798 25.3281 12 25.6082 12 25.9531V31.8816C12 32.2268 12.2798 32.5066 12.625 32.5066H15.468C15.5347 32.5066 15.5986 32.4963 15.6587 32.4771H16.5657L18.2764 35.4729C18.7273 36.4658 19.4968 37.3069 20.4465 37.8435L24.5825 40.1799C25.8047 40.8704 27.1917 41.2349 28.595 41.2349H28.6174C30.3728 41.23 32.6082 41.2319 34.4041 41.2336C35.1465 41.2344 35.8098 41.2349 36.3259 41.2349C36.7861 41.2349 37.2271 41.0386 37.5674 40.6816C37.9775 40.252 38.2051 39.6318 38.1765 39.0225ZM13.25 26.5781H14.843V31.2566H13.25V26.5781ZM36.6631 39.8189C36.5579 39.929 36.4446 39.9849 36.3259 39.9849C35.8101 39.9849 35.1472 39.9844 34.4053 39.9836C32.6082 39.9819 30.3716 39.98 28.6138 39.9849C27.4219 39.9868 26.2376 39.6792 25.1973 39.0916L21.0613 36.7551C20.3335 36.344 19.7454 35.6973 19.4048 34.9343C19.3962 34.9155 19.387 34.897 19.3767 34.8792L17.4712 31.542C17.3601 31.3472 17.1528 31.2271 16.9285 31.2271H16.093V26.5781H20.8984C21.804 26.5781 22.5942 27.0149 23.3828 27.9521L25.8748 31.9502C25.9001 31.9912 25.9307 32.0293 25.9648 32.0632L29.2747 35.3481C29.6482 35.7161 29.6836 36.2976 29.3599 36.7063C29.3377 36.731 29.2886 36.7852 29.2671 36.8088C29.1155 36.9553 28.9255 37.0498 28.7173 37.0823C28.3943 37.1326 28.0757 37.0303 27.8433 36.8013C27.8416 36.7996 27.8396 36.7979 27.8379 36.7961L24.1658 33.2659C23.917 33.0266 23.5215 33.0344 23.2822 33.2832C23.043 33.532 23.0508 33.9277 23.2996 34.167L26.969 37.6948C27.4785 38.1948 28.2039 38.4275 28.9099 38.3174C29.0032 38.303 29.0947 38.2827 29.1843 38.2573H36.02C36.4993 38.2573 36.9065 38.627 36.9277 39.0813C36.9402 39.3477 36.8364 39.6372 36.6631 39.8189Z" fill="white"/>
<path d="M33.5164 29.2527C31.0271 29.2527 29.002 27.2275 29.002 24.7383C29.002 22.249 31.0271 20.2236 33.5164 20.2236C36.0059 20.2236 38.031 22.249 38.031 24.7383C38.031 27.2275 36.0059 29.2527 33.5164 29.2527ZM33.5164 21.4736C31.7163 21.4736 30.252 22.9382 30.252 24.7383C30.252 26.5383 31.7163 28.0027 33.5164 28.0027C35.3167 28.0027 36.781 26.5383 36.781 24.7383C36.781 22.9382 35.3167 21.4736 33.5164 21.4736Z" fill="white"/>
<path d="M34.5217 24.1133H34.1414V23.7329C34.1414 23.3877 33.8616 23.1079 33.5164 23.1079C33.1711 23.1079 32.8914 23.3877 32.8914 23.7329V24.1133H32.511C32.166 24.1133 31.8862 24.3931 31.8862 24.7383C31.8862 25.0835 32.166 25.3633 32.511 25.3633H32.8914V25.7437C32.8914 26.0886 33.1711 26.3687 33.5164 26.3687C33.8616 26.3687 34.1414 26.0886 34.1414 25.7437V25.3633H34.5217C34.8669 25.3633 35.1467 25.0835 35.1467 24.7383C35.1467 24.3931 34.8669 24.1133 34.5217 24.1133Z" fill="white"/>
<path d="M43.9294 22.5432C43.7704 22.2368 43.3932 22.1174 43.0868 22.2764L42.1086 22.7842C41.7758 22.4255 41.3862 22.0308 40.9467 21.6274L41.6452 20.9292C41.8893 20.6851 41.8893 20.2893 41.6452 20.0452C41.401 19.8013 41.0053 19.8013 40.7614 20.0452L39.995 20.8113C39.3825 20.3225 38.7648 19.8994 38.1464 19.5439L38.4294 18.874C38.5634 18.5562 38.4145 18.1895 38.0966 18.0552C37.7787 17.9211 37.412 18.0698 37.2778 18.3879L37.0295 18.9756C36.0553 18.5444 35.0866 18.2847 34.1413 18.2046V17.5C34.1413 17.1548 33.8615 16.875 33.5163 16.875C33.1713 16.875 32.8915 17.1548 32.8915 17.5V18.2048C31.9462 18.2849 30.9775 18.5444 30.0033 18.9756L29.755 18.3879C29.6208 18.0701 29.2543 17.9209 28.9362 18.0554C28.6181 18.1897 28.4692 18.5562 28.6034 18.8743L28.8864 19.5439C28.268 19.8994 27.6501 20.3228 27.0375 20.8115L26.2714 20.0454C26.0273 19.8013 25.6315 19.8013 25.3876 20.0454C25.1435 20.2893 25.1435 20.6851 25.3874 20.9292L26.0859 21.6277C25.6466 22.0308 25.257 22.4255 24.924 22.7844L23.946 22.2766C23.6396 22.1174 23.2624 22.2368 23.1032 22.5435C22.944 22.8496 23.0636 23.2271 23.3698 23.386L24.079 23.7542C23.7819 24.1187 23.6149 24.3525 23.5978 24.3767C23.444 24.5933 23.444 24.8835 23.5978 25.1001C23.6425 25.1633 24.7138 26.6619 26.4526 28.177C28.7958 30.219 31.2384 31.2983 33.5163 31.2983C35.7941 31.2983 38.2367 30.219 40.58 28.177C42.3185 26.6619 43.3901 25.1631 43.4347 25.1001C43.5885 24.8835 43.5885 24.5933 43.4347 24.3767C43.4176 24.3525 43.2507 24.1187 42.9535 23.7542L43.6628 23.386C43.9692 23.2268 44.0885 22.8496 43.9294 22.5432ZM33.5163 30.0483C29.4286 30.0483 25.8876 25.9888 24.8942 24.7383C25.8881 23.4873 29.4291 19.4282 33.5163 19.4282C37.6044 19.4282 41.1457 23.4885 42.1388 24.7388C41.1471 25.9895 37.6125 30.0483 33.5163 30.0483Z" fill="white"/>
</g>
<defs>
<clipPath id="clip0_12666_62">
<rect width="32" height="32" fill="white" transform="translate(12 13)"/>
</clipPath>
</defs>
</svg>
