<svg width="58" height="57" viewBox="0 0 58 57" fill="none" xmlns="http://www.w3.org/2000/svg">
<path d="M28.8851 0.353516C13.3404 0.353516 0.731445 12.9553 0.731445 28.5071C0.731445 44.0518 13.3333 56.6607 28.8851 56.6607C44.4297 56.6607 57.0387 44.0589 57.0387 28.5071C57.0387 12.9625 44.4369 0.353516 28.8851 0.353516Z" fill="#003E79"/>
<g clip-path="url(#clip0_12666_62)">
<path d="M43.6545 20.1842C43.7011 20.1393 43.7382 20.0855 43.7635 20.0259C43.7888 19.9664 43.8018 19.9024 43.8018 19.8377C43.8018 19.773 43.7888 19.709 43.7635 19.6494C43.7382 19.5899 43.7011 19.5361 43.6545 19.4912C39.6691 15.7052 34.382 13.5942 28.885 13.5942C23.388 13.5942 18.1008 15.7052 14.1154 19.4912C14.0688 19.5361 14.0318 19.5899 14.0065 19.6494C13.9812 19.709 13.9681 19.773 13.9681 19.8377C13.9681 19.9024 13.9812 19.9664 14.0065 20.0259C14.0318 20.0855 14.0688 20.1393 14.1154 20.1842C17.9611 23.8876 23.0656 25.9988 28.4037 26.0939V27.0564C28.4037 27.7516 28.5407 28.44 28.8067 29.0823C29.0727 29.7245 29.4627 30.3081 29.9542 30.7997C30.947 31.7924 32.2935 32.3502 33.6975 32.3502H40.435C41.0732 32.3502 41.6852 32.6037 42.1364 33.055C42.5877 33.5062 42.8412 34.1183 42.8412 34.7564C42.8412 35.3946 42.5877 36.0066 42.1364 36.4579C41.6852 36.9092 41.0732 37.1627 40.435 37.1627H30.2421C30.1428 36.8818 29.9591 36.6386 29.7161 36.4663C29.4732 36.294 29.1828 36.201 28.885 36.2002H27.2535C26.9336 34.9613 26.2114 33.8637 25.2001 33.0797C24.1888 32.2958 22.9458 31.8699 21.6662 31.8689C21.5386 31.8689 21.4162 31.9196 21.3259 32.0099C21.2357 32.1001 21.185 32.2225 21.185 32.3502V32.8314H16.3725C16.2836 32.8317 16.1965 32.8566 16.1209 32.9033C16.0453 32.95 15.9842 33.0168 15.9442 33.0961L15.5832 33.7939C15.5256 33.7892 15.4676 33.7892 15.41 33.7939C15.0771 33.7937 14.7544 33.9085 14.4965 34.1189C14.2385 34.3294 14.0612 34.6224 13.9946 34.9485C13.9279 35.2747 13.976 35.6138 14.1307 35.9085C14.2853 36.2033 14.5371 36.4355 14.8433 36.566C15.1496 36.6964 15.4915 36.717 15.8112 36.6243C16.1309 36.5316 16.4087 36.3313 16.5977 36.0573C16.7866 35.7832 16.8751 35.4523 16.8481 35.1206C16.8211 34.7888 16.6803 34.4765 16.4495 34.2367L16.6708 33.7939H21.185V34.2752C21.185 34.4028 21.2357 34.5252 21.3259 34.6155C21.4162 34.7057 21.5386 34.7564 21.6662 34.7564C22.432 34.7564 23.1665 35.0606 23.708 35.6022C24.2495 36.1437 24.5537 36.8781 24.5537 37.6439C24.5537 38.4097 24.2495 39.1442 23.708 39.6857C23.1665 40.2272 22.432 40.5314 21.6662 40.5314C21.5386 40.5314 21.4162 40.5821 21.3259 40.6724C21.2357 40.7626 21.185 40.885 21.185 41.0127V41.4939H16.6708L16.4495 41.0512C16.6803 40.8113 16.8211 40.4991 16.8481 40.1673C16.8751 39.8355 16.7866 39.5046 16.5977 39.2306C16.4087 38.9566 16.1309 38.7563 15.8112 38.6636C15.4915 38.5708 15.1496 38.5915 14.8433 38.7219C14.5371 38.8523 14.2853 39.0846 14.1307 39.3793C13.976 39.6741 13.9279 40.0132 13.9946 40.3393C14.0612 40.6654 14.2385 40.9585 14.4965 41.1689C14.7544 41.3793 15.0771 41.4941 15.41 41.4939C15.4676 41.4987 15.5256 41.4987 15.5832 41.4939L15.9442 42.211C15.9867 42.2868 16.049 42.3496 16.1245 42.3928C16.1999 42.436 16.2856 42.458 16.3725 42.4564H21.185V42.9377C21.185 43.0653 21.2357 43.1877 21.3259 43.278C21.4162 43.3682 21.5386 43.4189 21.6662 43.4189C22.9458 43.418 24.1888 42.9921 25.2001 42.2081C26.2114 41.4242 26.9336 40.3266 27.2535 39.0877H28.885C29.1828 39.0868 29.4732 38.9939 29.7161 38.8216C29.9591 38.6493 30.1428 38.406 30.2421 38.1252H40.435C41.3284 38.1252 42.1853 37.7703 42.817 37.1385C43.4488 36.5067 43.8037 35.6499 43.8037 34.7564C43.8037 33.863 43.4488 33.0061 42.817 32.3744C42.1853 31.7426 41.3284 31.3877 40.435 31.3877H33.6975C32.5488 31.3877 31.4471 30.9314 30.6348 30.1191C29.8226 29.3068 29.3662 28.2051 29.3662 27.0564V26.0939C34.7044 25.9988 39.8088 23.8876 43.6545 20.1842ZM35.2856 15.5642C38.0089 16.4454 40.5104 17.903 42.6198 19.8377C40.5104 21.7724 38.0089 23.2299 35.2856 24.1112C36.1298 22.8458 36.5804 21.3588 36.5804 19.8377C36.5804 18.3166 36.1298 16.8295 35.2856 15.5642ZM15.1501 19.8377C17.2596 17.903 19.7611 16.4454 22.4844 15.5642C21.6401 16.8295 21.1896 18.3166 21.1896 19.8377C21.1896 21.3588 21.6401 22.8458 22.4844 24.1112C19.7611 23.2299 17.2596 21.7724 15.1501 19.8377ZM28.885 23.2064C28.2187 23.2064 27.5674 23.0089 27.0134 22.6387C26.4594 22.2685 26.0276 21.7424 25.7727 21.1268C25.5177 20.5113 25.451 19.8339 25.581 19.1805C25.7109 18.527 26.0318 17.9267 26.5029 17.4556C26.974 16.9845 27.5743 16.6636 28.2278 16.5337C28.8812 16.4037 29.5586 16.4704 30.1741 16.7254C30.7897 16.9803 31.3158 17.4121 31.686 17.9661C32.0562 18.5201 32.2537 19.1714 32.2537 19.8377C32.2537 20.7311 31.8988 21.588 31.267 22.2197C30.6353 22.8515 29.7784 23.2064 28.885 23.2064Z" fill="white"/>
</g>
<defs>
<clipPath id="clip0_12666_62">
<rect width="30.8" height="30.8" fill="white" transform="translate(13.4849 13.1001)"/>
</clipPath>
</defs>
</svg>
