<svg width="46" height="46" viewBox="0 0 46 46" fill="none" xmlns="http://www.w3.org/2000/svg">
<g id="contact-lens_2695548 1" clip-path="url(#clip0_13024_797)">
<g id="Group">
<path id="Vector" d="M41.765 22.9998C41.765 18.3473 37.98 14.5622 33.3275 14.5622C30.6881 14.5622 28.3283 15.7808 26.7799 17.6844L18.474 17.6844C16.9256 15.7808 14.5658 14.5622 11.9264 14.5622C7.2739 14.5622 3.48889 18.3473 3.48889 22.9998C3.48889 27.6523 7.27389 31.4373 11.9264 31.4373C14.5684 31.4373 16.9302 30.2164 18.4784 28.3095H26.7755C28.3237 30.2163 30.6856 31.4373 33.3275 31.4373C37.98 31.4373 41.7651 27.6522 41.765 22.9998ZM11.9264 29.5622C8.30791 29.5622 5.36396 26.6183 5.36396 22.9998C5.36396 19.3812 8.30791 16.4373 11.9264 16.4373C15.545 16.4373 18.4889 19.3812 18.4889 22.9998C18.4889 26.6183 15.545 29.5622 11.9264 29.5622ZM19.6325 26.4345C20.1023 25.3847 20.3639 24.2223 20.3639 22.9998C20.3639 21.7752 20.1014 20.6107 19.6301 19.5595L25.624 19.5595C25.1526 20.6107 24.8901 21.7751 24.8901 22.9998C24.8901 24.2223 25.1518 25.3847 25.6216 26.4345L19.6325 26.4345ZM33.3276 29.5622C29.7089 29.5622 26.7651 26.6183 26.7651 22.9998C26.7651 19.3812 29.709 16.4372 33.3276 16.4373C36.9461 16.4373 39.89 19.3812 39.89 22.9998C39.89 26.6183 36.9462 29.5622 33.3276 29.5622Z" fill="#001529"/>
<path id="Vector_2" d="M36.3715 26.1303L34.4655 23.9647C35.7015 23.6086 36.6053 22.5038 36.6053 21.1989C36.6053 19.6072 35.2609 18.3122 33.6084 18.3122L31.6154 18.3122C31.6149 18.3122 31.6145 18.3123 31.6141 18.3123C31.6137 18.3123 31.6133 18.3122 31.6129 18.3123C31.0952 18.3123 30.6754 18.732 30.6754 19.2498L30.6754 26.7498C30.6754 27.2675 31.0952 27.6873 31.6129 27.6873C32.1307 27.6873 32.5504 27.2675 32.5504 26.7498L32.5504 24.6268L34.9641 27.3692C35.1494 27.5798 35.4082 27.6873 35.6682 27.6873C35.8882 27.6873 36.1091 27.6103 36.2873 27.4536C36.6759 27.1115 36.7137 26.519 36.3715 26.1303ZM33.6083 22.2106C33.3644 22.2106 32.9492 22.2123 32.5614 22.2142C32.5595 21.8355 32.5568 20.5833 32.5557 20.1873H33.6084C34.2166 20.1873 34.7304 20.6506 34.7304 21.199C34.7304 21.7473 34.2166 22.2106 33.6083 22.2106Z" fill="#001529"/>
<path id="Vector_3" d="M13.8647 25.8061C13.8629 25.8061 13.861 25.8061 13.8593 25.8061C13.2812 25.8093 12.6621 25.8117 12.1758 25.8123L12.1758 19.2499C12.1758 18.7321 11.7561 18.3124 11.2383 18.3124C10.7205 18.3124 10.3008 18.7321 10.3008 19.2499L10.3008 26.7435C10.3008 27.2002 10.6297 27.5904 11.0798 27.6676C11.1465 27.679 13.0178 27.6858 13.8698 27.681C14.3876 27.6781 14.8049 27.256 14.802 26.7383C14.7991 26.2223 14.38 25.8061 13.8647 25.8061Z" fill="#001529"/>
</g>
</g>
<defs>
<clipPath id="clip0_13024_797">
<rect width="32" height="32" fill="white" transform="translate(22.627 0.372559) rotate(45)"/>
</clipPath>
</defs>
</svg>
