<svg width="21" height="14" viewBox="0 0 21 14" fill="none" xmlns="http://www.w3.org/2000/svg">
<g id="IllustartorAsset 11 1" clip-path="url(#clip0_12982_1854)">
<g id="OBJECT">
<g id="Group">
<path id="Vector" d="M13.0354 13.7488L19.9482 7.7692C20.4183 7.3639 20.4183 6.64178 19.9482 6.23648L13.0354 0.254012C12.3692 -0.322543 11.3281 0.145551 11.3281 1.0218V12.981C11.3281 13.8544 12.3692 14.3225 13.0354 13.7488Z" fill="white"/>
<g id="Group_2">
<path id="Vector_2" d="M8.76679 2.22058C8.36592 2.22058 8.04004 2.54311 8.04004 2.93985C8.04004 3.33659 8.36592 3.65911 8.76679 3.65911C9.16766 3.65911 9.49354 3.33659 9.49354 2.93985C9.49354 2.54311 9.16766 2.22058 8.76679 2.22058Z" fill="white"/>
<path id="Vector_3" d="M8.76679 4.92639C8.36592 4.92639 8.04004 5.24892 8.04004 5.64566C8.04004 6.0424 8.36592 6.36492 8.76679 6.36492C9.16766 6.36492 9.49354 6.0424 9.49354 5.64566C9.49354 5.24892 9.16766 4.92639 8.76679 4.92639Z" fill="white"/>
<path id="Vector_4" d="M8.76679 9.0736C9.16816 9.0736 9.49354 8.75158 9.49354 8.35434C9.49354 7.9571 9.16816 7.63507 8.76679 7.63507C8.36542 7.63507 8.04004 7.9571 8.04004 8.35434C8.04004 8.75158 8.36542 9.0736 8.76679 9.0736Z" fill="white"/>
<path id="Vector_5" d="M8.76679 10.3437C8.36592 10.3437 8.04004 10.6662 8.04004 11.063C8.04004 11.4597 8.36592 11.7823 8.76679 11.7823C9.16766 11.7823 9.49354 11.4597 9.49354 11.063C9.49354 10.6662 9.16766 10.3437 8.76679 10.3437Z" fill="white"/>
</g>
<g id="Group_3">
<path id="Vector_6" d="M6.08808 2.22058C5.68721 2.22058 5.36133 2.54311 5.36133 2.93985C5.36133 3.33659 5.68721 3.65911 6.08808 3.65911C6.48895 3.65911 6.81483 3.33659 6.81483 2.93985C6.81483 2.54311 6.48895 2.22058 6.08808 2.22058Z" fill="white"/>
<path id="Vector_7" d="M6.08808 4.92639C5.68721 4.92639 5.36133 5.24892 5.36133 5.64566C5.36133 6.0424 5.68721 6.36492 6.08808 6.36492C6.48895 6.36492 6.81483 6.0424 6.81483 5.64566C6.81483 5.24892 6.48895 4.92639 6.08808 4.92639Z" fill="white"/>
<path id="Vector_8" d="M6.08808 7.63507C5.68721 7.63507 5.36133 7.9576 5.36133 8.35434C5.36133 8.75108 5.68721 9.0736 6.08808 9.0736C6.48895 9.0736 6.81483 8.75108 6.81483 8.35434C6.81483 7.9576 6.48895 7.63507 6.08808 7.63507Z" fill="white"/>
<path id="Vector_9" d="M6.08808 10.3437C5.68721 10.3437 5.36133 10.6662 5.36133 11.063C5.36133 11.4597 5.68721 11.7823 6.08808 11.7823C6.48895 11.7823 6.81483 11.4597 6.81483 11.063C6.81483 10.6662 6.48895 10.3437 6.08808 10.3437Z" fill="white"/>
</g>
<g id="Group_4">
<path id="Vector_10" d="M3.40839 4.92639C3.00752 4.92639 2.68164 5.24892 2.68164 5.64566C2.68164 6.0424 3.00752 6.36492 3.40839 6.36492C3.80926 6.36492 4.13514 6.0424 4.13514 5.64566C4.13514 5.24892 3.80926 4.92639 3.40839 4.92639Z" fill="white"/>
<path id="Vector_11" d="M3.40839 7.63507C3.00752 7.63507 2.68164 7.9576 2.68164 8.35434C2.68164 8.75108 3.00752 9.0736 3.40839 9.0736C3.80926 9.0736 4.13514 8.75108 4.13514 8.35434C4.13514 7.9576 3.80926 7.63507 3.40839 7.63507Z" fill="white"/>
</g>
<g id="Group_5">
<path id="Vector_12" d="M0.726751 4.92639C0.325884 4.92639 0 5.24892 0 5.64566C0 6.0424 0.325884 6.36492 0.726751 6.36492C1.12762 6.36492 1.4535 6.0424 1.4535 5.64566C1.4535 5.24892 1.12762 4.92639 0.726751 4.92639Z" fill="white"/>
<path id="Vector_13" d="M0.726751 9.0736C1.12812 9.0736 1.4535 8.75158 1.4535 8.35434C1.4535 7.9571 1.12812 7.63507 0.726751 7.63507C0.325377 7.63507 0 7.9571 0 8.35434C0 8.75158 0.325377 9.0736 0.726751 9.0736Z" fill="white"/>
</g>
</g>
</g>
</g>
<defs>
<clipPath id="clip0_12982_1854">
<rect width="20.3" height="14" fill="white"/>
</clipPath>
</defs>
</svg>
