<svg width="41" height="34" viewBox="0 0 41 34" fill="none" xmlns="http://www.w3.org/2000/svg">
<path d="M16.6423 30.7371C9.24572 30.7371 3.18818 24.6027 3.18818 16.9674C3.18818 11.812 5.99378 7.1133 10.521 4.69871C12.4339 3.71983 14.4743 3.19775 16.6423 3.19775C19.958 3.19775 23.1462 4.43768 25.633 6.72175C28.5023 9.33211 30.0964 13.0519 30.0964 16.9674C30.0964 24.5375 24.1026 30.7371 16.6423 30.7371ZM11.0311 5.74286C6.88647 7.89641 4.33593 12.2035 4.33593 16.9674C4.33593 23.9502 9.88336 29.6277 16.7061 29.6277C23.5288 29.6277 29.0762 23.9502 29.0762 16.9674C29.0762 13.3782 27.6096 9.9847 24.9953 7.57011C22.6998 5.48182 19.8305 4.37242 16.7698 4.37242C14.7932 4.37242 12.8802 4.82923 11.1586 5.74286H11.0311Z" fill="#384043" stroke="#384043" stroke-width="0.5" stroke-miterlimit="10"/>
<path d="M7.14152 17.5547C7.14152 17.5547 6.56765 17.2937 6.56765 16.9674C6.56765 13.1171 8.67185 9.59308 11.9876 7.83109C13.3904 7.11323 14.9207 6.72168 16.5148 6.72168C16.8336 6.72168 17.0886 6.98272 17.0886 7.30901C17.0886 7.63531 16.8336 7.89634 16.5148 7.89634C15.112 7.89634 13.7092 8.22264 12.4339 8.87523C9.43702 10.4414 7.58787 13.5739 7.58787 17.0326C7.58787 17.3589 7.33282 17.62 7.014 17.62L7.14152 17.5547Z" fill="#384043" stroke="#384043" stroke-miterlimit="10"/>
<path d="M27.2908 24.9291C23.5288 24.6028 20.5956 21.1441 20.5956 16.9675C20.5956 12.7909 23.5288 9.33215 27.2908 9.00586C27.4821 9.00586 27.6734 9.07112 27.8009 9.2669C29.3313 11.551 30.0964 14.2266 30.0964 16.9675C30.0964 19.7084 29.2675 22.384 27.8009 24.668C27.6734 24.7986 27.5459 24.9291 27.3546 24.9291H27.2908ZM27.0358 10.1805C23.9751 10.5721 21.6159 13.5087 21.6159 16.9675C21.6159 20.4262 23.9751 23.3629 27.0358 23.7544C28.311 21.7314 28.9487 19.3821 28.9487 16.9675C28.9487 14.5529 28.2473 12.2036 26.972 10.1805H27.0358Z" fill="#01D0FF" stroke="#01D0FF" stroke-width="0.5" stroke-miterlimit="10"/>
<path d="M28.7574 20.4263C26.972 20.4263 25.5692 18.9253 25.5692 17.1633C25.5692 15.4014 27.0358 13.9004 28.7574 13.9004C28.9487 13.9004 29.2037 13.9004 29.395 13.9004C29.5863 13.9004 29.7776 14.0962 29.8414 14.3572C30.0327 15.2708 30.0964 16.1192 30.0964 17.0328C30.0964 18.0117 29.9689 18.9906 29.7776 19.9695C29.7776 20.1653 29.5863 20.361 29.3313 20.4263C29.14 20.4263 28.9487 20.4263 28.7574 20.4263ZM28.7574 14.9445C27.6096 14.9445 26.6532 15.9234 26.6532 17.0981C26.6532 18.2727 27.6096 19.2516 28.8212 19.2516C28.9487 18.4685 29.0124 17.7507 29.0124 16.9676C29.0124 16.315 29.0124 15.5971 28.8212 14.8793L28.7574 14.9445Z" fill="#01D0FF" stroke="#01D0FF" stroke-miterlimit="10"/>
<path d="M37.3017 17.6854H32.0731C32.0731 17.6854 31.4992 17.4244 31.4992 17.0981C31.4992 16.7718 31.7543 16.5107 32.0731 16.5107H37.3017C37.3017 16.5107 37.8756 16.7718 37.8756 17.0981C37.8756 17.4244 37.6205 17.6854 37.3017 17.6854Z" fill="#384043" stroke="#384043" stroke-width="0.5" stroke-miterlimit="10"/>
<path d="M36.2177 13.117H30.9891C30.9891 13.117 30.4152 12.856 30.4152 12.5297C30.4152 12.2034 30.6703 11.9424 30.9891 11.9424H36.2177C36.2177 11.9424 36.7916 12.2034 36.7916 12.5297C36.7916 12.856 36.5365 13.117 36.2177 13.117Z" fill="#384043" stroke="#384043" stroke-width="0.5" stroke-miterlimit="10"/>
<path d="M36.2177 21.9925H30.9891C30.9891 21.9925 30.4152 21.7315 30.4152 21.4052C30.4152 21.0789 30.6703 20.8179 30.9891 20.8179H36.2177C36.2177 20.8179 36.7916 21.0789 36.7916 21.4052C36.7916 21.7315 36.5365 21.9925 36.2177 21.9925Z" fill="#384043" stroke="#384043" stroke-width="0.5" stroke-miterlimit="10"/>
</svg>
