<svg width="55" height="54" viewBox="0 0 55 54" fill="none" xmlns="http://www.w3.org/2000/svg">
<g id="Group 155">
<circle id="Ellipse 18" cx="27.5" cy="27" r="27" fill="white"/>
<g id="Group">
<path id="Vector" d="M43.0345 29.1139C40.8672 26.2196 37.9313 23.9915 34.5607 22.6828C35.1583 22.0374 35.6589 21.499 35.984 21.1535C36.0951 21.0352 36.2293 20.941 36.3784 20.8769C36.5275 20.8128 36.6882 20.7801 36.8505 20.7809H40.5329C40.6865 20.7785 40.8331 20.7158 40.9409 20.6063C41.0487 20.4968 41.1091 20.3493 41.1091 20.1956C41.1091 20.0419 41.0487 19.8944 40.9409 19.7849C40.8331 19.6754 40.6865 19.6127 40.5329 19.6104H36.8505C36.5287 19.6107 36.2104 19.6765 35.9149 19.8039C35.6194 19.9312 35.353 20.1174 35.1318 20.3511C34.7439 20.7634 34.1087 21.4475 33.3571 22.2602C31.4613 21.6671 29.4864 21.3658 27.5001 21.3667C24.4854 21.3539 21.5098 22.0481 18.8119 23.3936C16.1141 24.739 13.7693 26.6982 11.9657 29.1139C11.6634 29.5182 11.5 30.0095 11.5 30.5144C11.5 31.0193 11.6634 31.5106 11.9657 31.915C13.7781 34.3214 16.1246 36.2738 18.8205 37.6183C21.5163 38.9629 24.4876 39.6627 27.5001 39.6627C30.5126 39.6627 33.4839 38.9629 36.1797 37.6183C38.8755 36.2738 41.2221 34.3214 43.0345 31.915C43.3367 31.5106 43.5 31.0193 43.5 30.5144C43.5 30.0096 43.3367 29.5183 43.0345 29.1139ZM42.0995 31.2108C35.1266 40.8605 19.873 40.8603 12.9008 31.2106C12.7504 31.0096 12.6691 30.7653 12.6691 30.5143C12.6691 30.2633 12.7504 30.019 12.9008 29.818C14.5957 27.5477 16.7994 25.7064 19.3348 24.4419C21.8703 23.1775 24.6669 22.5251 27.5001 22.5372C29.1804 22.5372 30.8528 22.7666 32.4709 23.2193C32.0505 23.6746 31.612 24.1502 31.1721 24.6274C30.0877 23.8951 28.8086 23.5047 27.5001 23.5065C22.0362 23.4379 18.8828 30.0417 22.3616 34.2446C22.4601 34.3621 22.6008 34.4363 22.7534 34.4512C22.906 34.466 23.0584 34.4204 23.1777 34.3241C23.2971 34.2278 23.3739 34.0885 23.3916 33.9362C23.4093 33.7838 23.3665 33.6307 23.2724 33.5095C19.5121 28.7293 25.1755 22.3461 30.3709 25.4969C29.9318 25.9735 29.5028 26.4393 29.1001 26.8766C28.5507 26.6022 27.9403 26.473 27.3269 26.5012C26.7134 26.5293 26.1174 26.714 25.5955 27.0375C25.0735 27.3611 24.6431 27.8128 24.345 28.3497C24.0469 28.8866 23.8912 29.4908 23.8925 30.1049C24.0617 34.8788 30.9385 34.8788 31.1076 30.1049C31.108 29.1525 30.7305 28.2388 30.058 27.5644C31.2029 26.321 32.5482 24.8603 33.7057 23.6072C37.0516 24.8106 39.9703 26.9702 42.0994 29.818C42.2497 30.0191 42.3309 30.2634 42.3309 30.5144C42.3309 30.7655 42.2497 31.0098 42.0995 31.2108ZM26.9034 30.0866C27.6457 30.645 27.8948 29.7922 29.2614 28.4296C29.6985 28.8746 29.9572 29.4645 29.9884 30.0875C30.0197 30.7105 29.8212 31.3234 29.4308 31.8098C29.0403 32.2963 28.485 32.6226 27.8699 32.727C27.2549 32.8313 26.623 32.7064 26.094 32.3759C25.5649 32.0454 25.1755 31.5323 24.9995 30.9339C24.8235 30.3354 24.8732 29.6932 25.1391 29.1289C25.405 28.5647 25.8687 28.1176 26.4423 27.8724C27.0159 27.6271 27.6595 27.6009 28.2511 27.7986C27.513 28.6001 26.9611 29.1986 26.9009 29.2608C26.792 29.3708 26.7312 29.5195 26.7317 29.6742C26.7321 29.829 26.7939 29.9773 26.9034 30.0866Z" fill="#003E79"/>
<path id="Vector_2" d="M32.7523 27.1167C32.6106 27.1801 32.4999 27.2971 32.4445 27.4422C32.389 27.5872 32.3935 27.7482 32.4568 27.89C32.9137 28.9148 33.0419 30.056 32.8239 31.1566C32.606 32.2573 32.0524 33.2634 31.2394 34.0367C30.4264 34.81 29.3938 35.3126 28.2836 35.4752C27.1734 35.6378 26.04 35.4526 25.0394 34.945C24.9709 34.9101 24.8962 34.889 24.8196 34.8829C24.743 34.8768 24.6659 34.8859 24.5928 34.9096C24.5197 34.9334 24.452 34.9713 24.3936 35.0212C24.3351 35.0711 24.2871 35.132 24.2522 35.2005C24.2173 35.269 24.1963 35.3437 24.1903 35.4203C24.1843 35.497 24.1934 35.574 24.2172 35.6471C24.241 35.7202 24.279 35.7879 24.3289 35.8463C24.3789 35.9047 24.4399 35.9527 24.5084 35.9875C28.7725 38.2494 34.1793 34.9378 34.0976 30.1046C34.0792 29.3765 33.8637 26.6811 32.7523 27.1167Z" fill="#003E79"/>
<path id="Vector_3" d="M35.197 16.1705H41.3222C41.4754 16.1675 41.6214 16.1045 41.7287 15.9951C41.836 15.8857 41.8961 15.7385 41.8961 15.5852C41.8961 15.432 41.836 15.2848 41.7287 15.1754C41.6213 15.066 41.4754 15.003 41.3221 15H35.197C35.0438 15.003 34.8978 15.066 34.7905 15.1754C34.6832 15.2848 34.623 15.432 34.623 15.5853C34.623 15.7385 34.6832 15.8857 34.7905 15.9951C34.8978 16.1045 35.0438 16.1675 35.197 16.1705Z" fill="#003E79"/>
<path id="Vector_4" d="M36.6189 17.0684C36.4656 17.0714 36.3197 17.1343 36.2123 17.2438C36.105 17.3532 36.0449 17.5004 36.0449 17.6536C36.0449 17.8069 36.105 17.9541 36.2124 18.0635C36.3197 18.1729 36.4657 18.2359 36.6189 18.2389H39.9023C40.0576 18.2389 40.2064 18.1772 40.3162 18.0675C40.4259 17.9577 40.4876 17.8088 40.4876 17.6536C40.4876 17.4984 40.4259 17.3495 40.3162 17.2398C40.2064 17.13 40.0576 17.0684 39.9023 17.0684H36.6189Z" fill="#003E79"/>
</g>
</g>
</svg>
