<svg width="17" height="24" viewBox="0 0 17 24" fill="none" xmlns="http://www.w3.org/2000/svg">
<path d="M5.69998 13.4C5.69998 13.7714 5.55248 14.1274 5.28993 14.39C5.02737 14.6525 4.67128 14.8 4.29998 14.8C3.92867 14.8 3.57258 14.6525 3.31003 14.39C3.04748 14.1274 2.89998 13.7714 2.89998 13.4C2.89998 13.0287 3.04748 12.6727 3.31003 12.4101C3.57258 12.1475 3.92867 12 4.29998 12C4.67128 12 5.02737 12.1475 5.28993 12.4101C5.55248 12.6727 5.69998 13.0287 5.69998 13.4ZM5.69998 17.6C5.69998 17.9714 5.55248 18.3274 5.28993 18.59C5.02737 18.8526 4.67128 19 4.29998 19C3.92867 19 3.57258 18.8526 3.31003 18.59C3.04748 18.3274 2.89998 17.9714 2.89998 17.6C2.89998 17.2287 3.04748 16.8727 3.31003 16.6101C3.57258 16.3475 3.92867 16.2001 4.29998 16.2001C4.67128 16.2001 5.02737 16.3475 5.28993 16.6101C5.55248 16.8727 5.69998 17.2287 5.69998 17.6ZM12.7 14.8C13.0713 14.8 13.4274 14.6525 13.6899 14.39C13.9525 14.1274 14.1 13.7714 14.1 13.4C14.1 13.0287 13.9525 12.6727 13.6899 12.4101C13.4274 12.1475 13.0713 12 12.7 12C12.3287 12 11.9726 12.1475 11.71 12.4101C11.4475 12.6727 11.3 13.0287 11.3 13.4C11.3 13.7714 11.4475 14.1274 11.71 14.39C11.9726 14.6525 12.3287 14.8 12.7 14.8ZM14.1 17.6C14.1 17.9714 13.9525 18.3274 13.6899 18.59C13.4274 18.8526 13.0713 19 12.7 19C12.3287 19 11.9726 18.8526 11.71 18.59C11.4475 18.3274 11.3 17.9714 11.3 17.6C11.3 17.2287 11.4475 16.8727 11.71 16.6101C11.9726 16.3475 12.3287 16.2001 12.7 16.2001C13.0713 16.2001 13.4274 16.3475 13.6899 16.6101C13.9525 16.8727 14.1 17.2287 14.1 17.6ZM8.49998 14.8C8.87128 14.8 9.22737 14.6525 9.48993 14.39C9.75248 14.1274 9.89998 13.7714 9.89998 13.4C9.89998 13.0287 9.75248 12.6727 9.48993 12.4101C9.22737 12.1475 8.87128 12 8.49998 12C8.12867 12 7.77258 12.1475 7.51003 12.4101C7.24748 12.6727 7.09998 13.0287 7.09998 13.4C7.09998 13.7714 7.24748 14.1274 7.51003 14.39C7.77258 14.6525 8.12867 14.8 8.49998 14.8ZM9.89998 17.6C9.89998 17.9714 9.75248 18.3274 9.48993 18.59C9.22737 18.8526 8.87128 19 8.49998 19C8.12867 19 7.77258 18.8526 7.51003 18.59C7.24748 18.3274 7.09998 17.9714 7.09998 17.6C7.09998 17.2287 7.24748 16.8727 7.51003 16.6101C7.77258 16.3475 8.12867 16.2001 8.49998 16.2001C8.87128 16.2001 9.22737 16.3475 9.48993 16.6101C9.75248 16.8727 9.89998 17.2287 9.89998 17.6ZM4.99998 3.60005C4.44302 3.60005 3.90888 3.8213 3.51505 4.21512C3.12122 4.60895 2.89998 5.14309 2.89998 5.70005V7.10005C2.89998 7.657 3.12122 8.19115 3.51505 8.58497C3.90888 8.9788 4.44302 9.20005 4.99998 9.20005H12C12.5569 9.20005 13.0911 8.9788 13.4849 8.58497C13.8787 8.19115 14.1 7.657 14.1 7.10005V5.70005C14.1 5.14309 13.8787 4.60895 13.4849 4.21512C13.0911 3.8213 12.5569 3.60005 12 3.60005H4.99998ZM4.29998 5.70005C4.29998 5.5144 4.37373 5.33635 4.505 5.20507C4.63628 5.0738 4.81432 5.00005 4.99998 5.00005H12C12.1856 5.00005 12.3637 5.0738 12.495 5.20507C12.6262 5.33635 12.7 5.5144 12.7 5.70005V7.10005C12.7 7.2857 12.6262 7.46375 12.495 7.59502C12.3637 7.7263 12.1856 7.80005 12 7.80005H4.99998C4.81432 7.80005 4.63628 7.7263 4.505 7.59502C4.37373 7.46375 4.29998 7.2857 4.29998 7.10005V5.70005ZM16.9 19.7001C16.9 20.6283 16.5312 21.5185 15.8749 22.1749C15.2185 22.8313 14.3282 23.2001 13.4 23.2001H3.59998C2.67172 23.2001 1.78148 22.8313 1.1251 22.1749C0.468725 21.5185 0.0999756 20.6283 0.0999756 19.7001V4.30005C0.0999756 3.37179 0.468725 2.48155 1.1251 1.82518C1.78148 1.1688 2.67172 0.800049 3.59998 0.800049H13.4C14.3282 0.800049 15.2185 1.1688 15.8749 1.82518C16.5312 2.48155 16.9 3.37179 16.9 4.30005V19.7001ZM15.5 4.30005C15.5 3.74309 15.2787 3.20895 14.8849 2.81512C14.4911 2.4213 13.9569 2.20005 13.4 2.20005H3.59998C3.04302 2.20005 2.50888 2.4213 2.11505 2.81512C1.72122 3.20895 1.49998 3.74309 1.49998 4.30005V19.7001C1.49998 20.257 1.72122 20.7911 2.11505 21.185C2.50888 21.5788 3.04302 21.8001 3.59998 21.8001H13.4C13.9569 21.8001 14.4911 21.5788 14.8849 21.185C15.2787 20.7911 15.5 20.257 15.5 19.7001V4.30005Z" fill="#061014"/>
</svg>
