<svg width="32" height="32" viewBox="0 0 32 32" fill="none" xmlns="http://www.w3.org/2000/svg">
<g id="eye_2831035 1" clip-path="url(#clip0_13949_17187)">
<g id="Group">
<path id="Vector" d="M13.2856 25.2449C13.2398 25.245 13.1941 25.2416 13.1488 25.2349C8.61044 24.5761 4.45337 22.3276 1.41813 18.8899C0.42375 17.7686 0 17.0205 0 16.3893C0 15.758 0.41125 15.0393 1.41937 13.9074C7.05119 7.60339 16.0939 5.62752 23.8419 9.00802C26.4176 10.1318 28.7173 11.8037 30.5806 13.9074C31.5888 15.0393 32 15.758 32 16.3893C32.015 16.907 31.6074 17.339 31.0897 17.354C30.5719 17.369 30.14 16.9614 30.125 16.4436C30.0981 16.368 29.9431 16.0118 29.1794 15.1543C22.6844 7.87483 11.5181 7.23883 4.23856 13.7338C3.7385 14.18 3.26425 14.6543 2.81813 15.1543C2.16375 15.8886 1.95625 16.2555 1.89313 16.393C1.95563 16.5311 2.16062 16.9024 2.82 17.643C5.56794 20.7425 9.32144 22.773 13.4194 23.3768C13.9316 23.4522 14.2858 23.9286 14.2103 24.4408C14.1427 24.9003 13.7488 25.241 13.2844 25.2418L13.2856 25.2449Z" fill="white"/>
<path id="Vector_2" d="M14.2257 21.0489C14.0895 21.0489 13.9549 21.019 13.8314 20.9614C11.3181 19.7973 10.2244 16.8163 11.3885 14.303C12.5525 11.7898 15.5335 10.6961 18.0467 11.8602C18.8019 12.2099 19.4582 12.7422 19.9564 13.4089C20.266 13.8239 20.1805 14.4114 19.7654 14.721C19.3504 15.0307 18.7629 14.9452 18.4532 14.5301C17.4132 13.1437 15.4462 12.863 14.0598 13.9031C12.6734 14.9432 12.3927 16.9102 13.4328 18.2965C13.744 18.7114 14.1533 19.0427 14.6239 19.2607C15.0937 19.4784 15.2981 20.0357 15.0804 20.5055C14.9267 20.8373 14.594 21.0494 14.2283 21.0489H14.2257Z" fill="white"/>
<path id="Vector_3" d="M22.2026 22.4139C22.0541 22.4143 21.9059 22.4043 21.7588 22.3839C21.7289 22.3798 21.6993 22.3742 21.6701 22.3671L21.3813 22.2983C20.8777 22.1775 20.5674 21.6713 20.6882 21.1677C20.809 20.6641 21.3152 20.3538 21.8188 20.4746L22.0576 20.5314C22.2549 20.5469 22.4535 20.5334 22.6469 20.4914L22.8932 20.4071C23.3832 20.2396 23.9161 20.5011 24.0835 20.9911C24.2509 21.4811 23.9894 22.014 23.4994 22.1814L23.1969 22.2846C23.1619 22.2964 23.1262 22.3065 23.0901 22.3146C22.7986 22.3788 22.5011 22.4121 22.2026 22.4139Z" fill="white"/>
<path id="Vector_4" d="M20.004 25.4875C19.4862 25.488 19.066 25.0688 19.0654 24.551C19.065 24.1493 19.3206 23.7919 19.7009 23.6625L20.0002 23.5625C20.0352 23.5505 20.0709 23.5407 20.1071 23.5331C20.543 23.4314 20.9933 23.4067 21.4377 23.46C21.4677 23.4643 21.5002 23.47 21.5265 23.4768L21.8159 23.5462C22.3206 23.6615 22.6364 24.1641 22.5212 24.6688C22.4059 25.1736 21.9033 25.4894 21.3986 25.3742C21.3918 25.3726 21.3851 25.371 21.3784 25.3693L21.1396 25.3124C20.9422 25.2975 20.7437 25.3112 20.5502 25.353L20.3071 25.4374C20.2095 25.4707 20.1071 25.4876 20.004 25.4875Z" fill="white"/>
<path id="Vector_5" d="M22.6876 28.3674C22.1698 28.3679 21.7496 27.9487 21.749 27.4309C21.7486 27.0292 22.0041 26.6718 22.3845 26.5424L22.6876 26.4374C22.7226 26.4252 22.7583 26.4152 22.7945 26.4074C23.2307 26.3075 23.681 26.2847 24.1251 26.3399C24.155 26.3437 24.1846 26.3491 24.2138 26.3561L24.5032 26.4255C25.0068 26.5463 25.3171 27.0525 25.1963 27.5561C25.0755 28.0597 24.5693 28.37 24.0657 28.2492L23.827 28.1924C23.6294 28.1769 23.4306 28.1904 23.237 28.2324L22.9913 28.3167C22.8936 28.3502 22.791 28.3674 22.6876 28.3674Z" fill="white"/>
<path id="Vector_6" d="M25.9259 25.9731C25.4081 25.9736 24.9879 25.5544 24.9873 25.0366C24.9869 24.6349 25.2424 24.2775 25.6227 24.1481L25.9246 24.0449C25.9598 24.0328 25.9957 24.0228 26.0321 24.0149C26.4676 23.9146 26.9173 23.8911 27.3609 23.9456C27.3907 23.9494 27.4204 23.9548 27.4496 23.9618L27.739 24.0312C28.2426 24.152 28.5529 24.6582 28.4321 25.1618C28.3113 25.6654 27.8051 25.9757 27.3015 25.8549L27.0627 25.7981C26.8654 25.7826 26.6668 25.7961 26.4734 25.8381L26.2271 25.9224C26.1301 25.9554 26.0284 25.9725 25.9259 25.9731Z" fill="white"/>
<path id="Vector_7" d="M27.1763 22.8119C26.8486 22.8117 26.5448 22.6403 26.375 22.36L26.25 22.1488C26.122 21.9966 25.9725 21.8637 25.8063 21.7544L25.5732 21.6375C25.1122 21.4017 24.9298 20.8368 25.1656 20.3759C25.3989 19.92 25.9549 19.7356 26.4144 19.9619L26.7 20.1057C26.7332 20.1222 26.7653 20.1405 26.7963 20.1607C27.1715 20.4024 27.502 20.7073 27.7732 21.0619C27.7911 21.0858 27.8078 21.1107 27.8232 21.1363L27.9775 21.3913C28.2443 21.835 28.101 22.411 27.6572 22.6778C27.512 22.7652 27.3458 22.8115 27.1763 22.8119Z" fill="white"/>
<path id="Vector_8" d="M23.7498 32.003C19.1848 32.0147 15.4747 28.3236 15.4629 23.7586C15.4512 19.1936 19.1423 15.4835 23.7073 15.4717H23.766C25.9538 15.4659 28.0524 16.3384 29.591 17.8936C32.8004 21.1148 32.8004 26.3567 29.591 29.5811C29.232 29.9541 28.6385 29.9655 28.2655 29.6065C27.8924 29.2474 27.881 28.654 28.2401 28.2809C28.2476 28.2731 28.2552 28.2655 28.2629 28.258C30.7455 25.7567 30.7455 21.7211 28.2629 19.2198C25.7929 16.7351 21.7763 16.7231 19.2915 19.1931C19.2619 19.2225 19.2326 19.2523 19.2035 19.2823C16.752 21.8214 16.8132 25.8642 19.3404 28.328C20.9005 29.8533 23.137 30.4659 25.2567 29.9486C25.7633 29.8418 26.2606 30.1658 26.3674 30.6725C26.4701 31.1593 26.1745 31.6415 25.6942 31.7711C25.0575 31.925 24.4048 32.0028 23.7498 32.003Z" fill="white"/>
<path id="Vector_9" d="M15.9391 17.347C16.4572 17.347 16.8772 16.9269 16.8772 16.4088C16.8772 15.8907 16.4572 15.4707 15.9391 15.4707C15.421 15.4707 15.001 15.8907 15.001 16.4088C15.001 16.9269 15.421 17.347 15.9391 17.347Z" fill="white"/>
</g>
</g>
<defs>
<clipPath id="clip0_13949_17187">
<rect width="32" height="32" fill="white"/>
</clipPath>
</defs>
</svg>
