<svg width="32" height="32" viewBox="0 0 32 32" fill="none" xmlns="http://www.w3.org/2000/svg">
<g id="disease_4338852 (1) 1">
<g id="Group">
<path id="Vector" d="M31.0566 14.9367L30.4236 14.1887C25.8856 8.79171 21.0601 6.05271 16.1096 6.04721C8.85857 5.65371 2.26907 13.6772 1.99057 14.0207C1.99057 14.0207 1.28257 14.8992 0.738565 15.5887C0.129065 16.3522 0.144065 17.4332 0.771565 18.1567C5.95457 24.1617 11.2046 25.9677 15.6461 25.9672C17.6211 25.9672 19.4341 25.6087 21.0116 25.1047C21.1386 25.1112 21.2661 25.1177 21.3911 25.1177C26.4861 25.1177 29.7806 20.0967 30.2426 19.3492L30.8796 18.7217C31.9121 17.7092 31.9906 16.0477 31.0566 14.9367ZM21.6256 23.6122C21.6531 22.7987 21.9431 21.7162 23.2166 21.3812C24.8771 20.9412 25.6486 19.9497 26.0051 19.1912C26.2536 18.6547 26.8046 18.2192 27.4111 18.2192C27.5646 18.2192 27.7216 18.2472 27.8786 18.3087C28.2571 18.4587 28.5661 18.6572 28.7626 18.8697C27.9711 20.0202 25.3056 23.4627 21.6256 23.6122ZM29.8281 17.6522L29.7451 17.7342C29.3096 17.3142 28.7821 17.0532 28.4281 16.9132C26.9941 16.3512 25.3321 17.0747 24.6456 18.5577C24.3271 19.2347 23.7176 19.6967 22.8336 19.9312C20.8066 20.4642 20.1121 22.1832 20.1251 23.8077C15.4406 25.1712 8.64907 24.9882 1.90557 17.1747C1.75257 16.9987 1.75507 16.7192 1.91307 16.5212C3.04857 15.0827 4.20207 13.7282 5.55407 12.4887C7.24907 10.9357 9.13607 9.53171 11.2396 8.58271C12.7976 7.87921 14.3736 7.54421 16.0781 7.54621C20.5951 7.55171 25.0356 10.1112 29.2771 15.1557L29.9101 15.9037C30.3406 16.4162 30.3056 17.1842 29.8281 17.6522Z" fill="white"/>
<path id="Vector_2" d="M16.0042 9.22754C12.5162 9.22754 9.67871 12.065 9.67871 15.553C9.67871 19.041 12.5162 21.8785 16.0042 21.8785C19.4922 21.8785 22.3297 19.041 22.3297 15.553C22.3297 12.065 19.4922 9.22754 16.0042 9.22754ZM19.8457 16.303H20.7657C20.6547 17.008 20.3962 17.6645 20.0137 18.234L19.3157 17.5675C19.0157 17.2815 18.5417 17.2925 18.2552 17.592C17.9692 17.892 17.9802 18.3665 18.2797 18.6525L18.9932 19.334C18.3567 19.838 17.5912 20.1825 16.7542 20.314V19.394C16.7542 18.98 16.4187 18.644 16.0042 18.644C15.5897 18.644 15.2542 18.98 15.2542 19.394V20.314C14.4357 20.1855 13.6862 19.8525 13.0582 19.366L13.8052 18.653C14.1047 18.367 14.1162 17.8925 13.8297 17.5925C13.5432 17.293 13.0692 17.2825 12.7692 17.568L12.0252 18.278C11.6267 17.6985 11.3562 17.0265 11.2427 16.303H12.1627C12.5772 16.303 12.9127 15.9675 12.9127 15.553C12.9127 15.1385 12.5772 14.803 12.1627 14.803H11.2427C11.3537 14.0975 11.6127 13.4415 11.9947 12.872L12.6927 13.5385C12.8382 13.677 13.0242 13.746 13.2107 13.746C13.4087 13.746 13.6057 13.668 13.7532 13.514C14.0392 13.2145 14.0282 12.74 13.7287 12.4535L13.0152 11.7725C13.6517 11.268 14.4177 10.9235 15.2542 10.792V11.712C15.2542 12.1265 15.5897 12.462 16.0042 12.462C16.4187 12.462 16.7542 12.1265 16.7542 11.712V10.792C17.5727 10.9205 18.3222 11.2535 18.9507 11.74L18.2032 12.4535C17.9037 12.7395 17.8927 13.214 18.1787 13.514C18.3262 13.6685 18.5232 13.746 18.7212 13.746C18.9072 13.746 19.0937 13.677 19.2392 13.5385L19.9832 12.8285C20.3817 13.4085 20.6522 14.08 20.7657 14.8035H19.8457C19.4317 14.8035 19.0957 15.139 19.0957 15.5535C19.0957 15.968 19.4317 16.303 19.8457 16.303Z" fill="white"/>
<path id="Vector_3" d="M16.0043 16.4257C16.4862 16.4257 16.8768 16.035 16.8768 15.5532C16.8768 15.0713 16.4862 14.6807 16.0043 14.6807C15.5225 14.6807 15.1318 15.0713 15.1318 15.5532C15.1318 16.035 15.5225 16.4257 16.0043 16.4257Z" fill="white"/>
</g>
</g>
</svg>
