<svg width="41" height="41" viewBox="0 0 41 41" fill="none" xmlns="http://www.w3.org/2000/svg">
<circle cx="20.1301" cy="20.0654" r="20" fill="#FFEFE5"/>
<path d="M16.3785 32.0956C16.3785 32.0956 15.9475 31.9091 15.9475 31.6759V28.1785C15.9475 28.1785 16.1391 27.7588 16.3785 27.7588C16.6179 27.7588 16.8095 27.9453 16.8095 28.1785V31.6759C16.8095 31.6759 16.6179 32.0956 16.3785 32.0956Z" fill="#384043" stroke="#384043" stroke-width="0.3" stroke-miterlimit="10"/>
<path d="M23.7032 32.0956C23.7032 32.0956 23.2722 31.9091 23.2722 31.6759V28.1785C23.2722 28.1785 23.4638 27.7588 23.7032 27.7588C23.9426 27.7588 24.1342 27.9453 24.1342 28.1785V31.6759C24.1342 31.6759 23.9426 32.0956 23.7032 32.0956Z" fill="#384043" stroke="#384043" stroke-width="0.3" stroke-miterlimit="10"/>
<path d="M20.018 23.0005C18.1983 23.0005 16.7139 21.5549 16.7139 19.7828C16.7139 18.0108 18.1983 16.5652 20.018 16.5652C21.8377 16.5652 23.3221 18.0108 23.3221 19.7828C23.3221 21.5549 21.8377 23.0005 20.018 23.0005ZM20.018 17.3579C18.6293 17.3579 17.5279 18.4305 17.5279 19.7828C17.5279 21.1352 18.6293 22.2077 20.018 22.2077C21.4067 22.2077 22.5081 21.1352 22.5081 19.7828C22.5081 18.4305 21.4067 17.3579 20.018 17.3579Z" fill="#384043" stroke="#384043" stroke-width="0.3" stroke-miterlimit="10"/>
<path d="M26.3397 32.0958H13.6978C13.6978 32.0958 13.2668 31.9092 13.2668 31.6761V27.3392C13.2668 25.2874 14.9907 23.6086 17.0977 23.6086H22.8919C24.9989 23.6086 26.7228 25.2874 26.7228 27.3392V31.6761C26.7228 31.6761 26.5313 32.0958 26.2918 32.0958H26.3397ZM14.1288 31.2564H25.9566V27.3392C25.9566 25.7071 24.6158 24.4014 22.9398 24.4014H17.1456C15.4696 24.4014 14.1288 25.7071 14.1288 27.3392V31.2564Z" fill="#384043" stroke="#384043" stroke-width="0.3" stroke-miterlimit="10"/>
<path d="M28.6375 32.0953H11.3985C11.3985 32.0953 11.1591 32.0487 11.0633 31.9554C10.9675 31.8622 10.9675 31.7689 10.9675 31.629L12.5957 16.8931C12.6914 15.8206 13.6491 14.9812 14.7505 14.9812H25.2376C26.3389 14.9812 27.2967 15.774 27.3924 16.8931L29.0206 31.629C29.0206 31.629 29.0206 31.8622 28.9248 31.9554C28.829 32.0487 28.7332 32.0953 28.5896 32.0953H28.6375ZM11.9252 31.2559H28.2065L26.6263 16.9864C26.5305 16.3335 26.0037 15.8206 25.2855 15.8206H14.7984C14.128 15.8206 13.5534 16.3335 13.4576 16.9864L11.8774 31.2559H11.9252Z" fill="#384043" stroke="#384043" stroke-width="0.3" stroke-miterlimit="10"/>
<path d="M27.5374 22.1628C27.5374 22.1628 27.4895 22.1628 27.4416 22.1628C27.2501 22.1628 27.1543 21.9763 27.1064 21.7898L26.5797 16.9866C26.4839 16.3338 25.9572 15.8208 25.2389 15.8208H14.7997C14.1293 15.8208 13.5547 16.3338 13.4589 16.9866H13.028H13.4589L12.9322 21.7898C12.9322 21.7898 12.7885 22.1162 12.597 22.1628C12.4054 22.1628 12.2618 22.1628 12.166 21.9763C11.3041 20.5773 10.8252 18.9452 10.8252 17.3131C10.8252 12.37 14.9434 8.35962 20.0193 8.35962C25.0952 8.35962 29.2134 12.37 29.2134 17.3131C29.2134 18.9452 28.7346 20.5307 27.8726 21.9763C27.7769 22.1162 27.6811 22.1628 27.4895 22.1628H27.5374ZM20.0193 9.199C15.4223 9.199 11.6393 12.8363 11.6393 17.3597C11.6393 18.3856 11.8308 19.4115 12.2139 20.3442L12.597 16.94C12.6928 15.8674 13.6505 15.0281 14.7518 15.0281H25.2389C26.3403 15.0281 27.298 15.8208 27.3938 16.94L27.7769 20.3442C28.1599 19.4115 28.3515 18.3856 28.3515 17.3597C28.3515 12.883 24.6164 9.199 19.9714 9.199H20.0193Z" fill="#384043"/>
<path d="M28.2056 28.2717C28.2056 28.2717 28.1099 28.2717 28.062 28.2717C27.9183 28.2251 27.8225 28.0852 27.7747 27.9453L26.5775 17.0799C26.4817 16.427 25.955 15.9141 25.2367 15.9141H14.7975C14.1271 15.9141 13.5525 16.427 13.4567 17.0799L12.2596 27.9453C12.2596 27.9453 12.1159 28.2251 11.9723 28.2717C11.8286 28.3183 11.6371 28.2717 11.5413 28.1784C9.33854 25.9867 8.09351 23.0955 8.09351 20.0177C8.09351 13.5825 13.4567 8.35962 20.0171 8.35962C26.5775 8.35962 31.9407 13.5825 31.9407 19.9711C31.9407 23.0489 30.6957 25.9401 28.493 28.1318C28.3972 28.2251 28.3014 28.2717 28.2056 28.2717ZM20.0171 9.199C13.8877 9.199 8.95545 14.0022 8.95545 19.9711C8.95545 22.5359 9.86529 24.9608 11.5413 26.9193L12.6427 16.94C12.7384 15.8674 13.6962 15.0281 14.7975 15.0281H25.2846C26.386 15.0281 27.3437 15.8208 27.4395 16.94L28.5408 26.9193C30.2168 24.9608 31.1267 22.5359 31.1267 19.9711C31.1267 14.0022 26.1465 9.199 20.065 9.199H20.0171Z" fill="#384043" stroke="#384043" stroke-width="0.3" stroke-miterlimit="10"/>
</svg>
