<svg width="22" height="23" viewBox="0 0 22 23" fill="none" xmlns="http://www.w3.org/2000/svg">
<g clip-path="url(#clip0_1658_5998)">
<path d="M10.9785 0.228516C13.9434 0.228516 14.3086 0.25 15.4688 0.292969C16.6074 0.335938 17.4023 0.529297 18.1113 0.808594C18.8418 1.08789 19.4434 1.45312 20.0449 2.05469C20.6465 2.65625 21.0117 3.25781 21.291 3.98828C21.5703 4.69727 21.7637 5.49219 21.8066 6.63086C21.8496 7.79102 21.8711 8.15625 21.8711 11.1211C21.8711 14.0859 21.8496 14.4512 21.8066 15.6113C21.7637 16.75 21.5703 17.5449 21.291 18.2539C21.0117 18.9844 20.6465 19.5859 20.0449 20.1875C19.4434 20.7891 18.8418 21.1543 18.1113 21.4336C17.4023 21.7129 16.6074 21.9062 15.4688 21.9492C14.3086 21.9922 13.9434 22.0137 10.9785 22.0137C8.01367 22.0137 7.64844 21.9922 6.48828 21.9492C5.34961 21.9062 4.55469 21.7129 3.8457 21.4336C3.11523 21.1543 2.51367 20.7891 1.91211 20.1875C1.31055 19.5859 0.945312 18.9844 0.666016 18.2539C0.386719 17.5449 0.193359 16.75 0.150391 15.6113C0.107422 14.4512 0.0859375 14.0859 0.0859375 11.1211C0.0859375 8.15625 0.107422 7.79102 0.150391 6.63086C0.193359 5.49219 0.386719 4.69727 0.666016 3.98828C0.945312 3.25781 1.31055 2.65625 1.91211 2.05469C2.51367 1.45312 3.11523 1.08789 3.8457 0.808594C4.55469 0.529297 5.34961 0.335938 6.48828 0.292969C7.64844 0.25 8.01367 0.228516 10.9785 0.228516ZM10.9785 1.64648C7.88477 1.64648 7.51953 1.66797 6.31641 1.71094C5.19922 1.75391 4.57617 1.96875 4.16797 2.11914C3.11523 2.54883 2.40625 3.25781 1.97656 4.31055C1.82617 4.71875 1.61133 5.3418 1.56836 6.45898C1.52539 7.66211 1.50391 8.02734 1.50391 11.1211C1.50391 14.2148 1.52539 14.5801 1.56836 15.7832C1.61133 16.9004 1.82617 17.5234 1.97656 17.9316C2.40625 18.9844 3.11523 19.6934 4.16797 20.123C4.57617 20.2734 5.19922 20.4883 6.31641 20.5312C7.51953 20.5742 7.88477 20.5957 10.9785 20.5957C14.0723 20.5957 14.4375 20.5742 15.6406 20.5312C16.7578 20.4883 17.3809 20.2734 17.7891 20.123C18.8418 19.6934 19.5508 18.9844 19.9805 17.9316C20.1309 17.5234 20.3457 16.9004 20.3887 15.7832C20.4316 14.5801 20.4531 14.2148 20.4531 11.1211C20.4531 8.02734 20.4316 7.66211 20.3887 6.45898C20.3457 5.3418 20.1309 4.71875 19.9805 4.31055C19.5508 3.25781 18.8418 2.54883 17.7891 2.11914C17.3809 1.96875 16.7578 1.75391 15.6406 1.71094C14.4375 1.66797 14.0723 1.64648 10.9785 1.64648ZM10.9785 15.4824C13.3848 15.4824 15.3398 13.5273 15.3398 11.1211C15.3398 8.71484 13.3848 6.75977 10.9785 6.75977C8.57227 6.75977 6.61719 8.71484 6.61719 11.1211C6.61719 13.5273 8.57227 15.4824 10.9785 15.4824ZM10.9785 5.53516C14.0723 5.53516 16.5645 8.02734 16.5645 11.1211C16.5645 14.2148 14.0723 16.707 10.9785 16.707C7.88477 16.707 5.39258 14.2148 5.39258 11.1211C5.39258 8.02734 7.88477 5.53516 10.9785 5.53516ZM18.1113 5.32031C18.1113 6.05078 17.5098 6.60938 16.7793 6.60938C16.0488 6.60938 15.4902 6.05078 15.4902 5.32031C15.4902 4.58984 16.0488 3.98828 16.7793 3.98828C17.5098 3.98828 18.1113 4.58984 18.1113 5.32031Z" fill="#404A4D"/>
</g>
<defs>
<clipPath id="clip0_1658_5998">
<rect width="22" height="22" fill="white" transform="translate(0 0.142578)"/>
</clipPath>
</defs>
</svg>
