<svg width="40" height="41" viewBox="0 0 40 41" fill="none" xmlns="http://www.w3.org/2000/svg">
<path d="M36.504 9.26629C34.271 6.01094 31.1641 3.50812 27.5194 2.02828C27.1194 1.86594 26.6634 2.05852 26.5009 2.45859C26.3384 2.85867 26.5311 3.31461 26.9312 3.47718C30.291 4.84133 33.1553 7.14906 35.2144 10.1509C37.3221 13.2237 38.4362 16.8253 38.4362 20.5664C38.4362 30.7323 30.1658 39.0028 19.9999 39.0028C9.83406 39.0028 1.56367 30.7322 1.56367 20.5664C1.56367 10.4006 9.83406 2.13007 20 2.13007C20.4318 2.13007 20.7818 1.77999 20.7818 1.34828C20.7818 0.916486 20.4318 0.566406 20 0.566406C8.97188 0.566406 0 9.53829 0 20.5664C0 31.5945 8.97188 40.5664 20 40.5664C31.0281 40.5664 40 31.5945 40 20.5664C40 16.508 38.7911 12.6006 36.504 9.26629Z" fill="black"/>
<path d="M16.6311 11.2251C14.7605 11.2251 13.2385 12.7471 13.2385 14.6177C13.2385 15.0495 13.5887 15.3994 14.0204 15.3994C14.4521 15.3994 14.8022 15.0494 14.8022 14.6177C14.8022 13.6093 15.6226 12.7888 16.631 12.7888C17.6393 12.7888 18.4598 13.6093 18.4598 14.6177C18.4598 15.0495 18.81 15.3994 19.2416 15.3994C19.6734 15.3994 20.0234 15.0494 20.0234 14.6177C20.0236 12.7471 18.5017 11.2251 16.6311 11.2251Z" fill="black"/>
<path d="M29.8359 11.2251C27.9653 11.2251 26.4435 12.7471 26.4435 14.6177C26.4435 15.0495 26.7935 15.3994 27.2253 15.3994C27.6571 15.3994 28.007 15.0494 28.007 14.6177C28.007 13.6093 28.8276 12.7888 29.8359 12.7888C30.8443 12.7888 31.6647 13.6093 31.6647 14.6177C31.6647 15.0495 32.0148 15.3994 32.4466 15.3994C32.8782 15.3994 33.2283 15.0494 33.2283 14.6177C33.2285 12.7471 31.7067 11.2251 29.8359 11.2251Z" fill="black"/>
<path d="M30.5754 24.9096H15.0171C14.5853 24.9096 14.2354 25.2597 14.2354 25.6914C14.2354 30.4119 18.0757 34.2525 22.7964 34.2525C27.517 34.2525 31.3573 30.412 31.3573 25.6914C31.3572 25.2597 31.0071 24.9096 30.5754 24.9096ZM29.7502 26.4733C29.3602 29.965 26.3903 32.6887 22.7962 32.6887C19.202 32.6887 16.2322 29.965 15.8422 26.4733H29.7502Z" fill="black"/>
<path d="M24.2865 2.68944C24.7182 2.68944 25.0683 2.33942 25.0683 1.90763C25.0683 1.47586 24.7182 1.12584 24.2865 1.12584C23.8547 1.12584 23.5048 1.47586 23.5048 1.90763C23.5048 2.33942 23.8547 2.68944 24.2865 2.68944Z" fill="#01D0FF"/>
</svg>
