<svg width="110" height="32" viewBox="0 0 110 32" fill="none" xmlns="http://www.w3.org/2000/svg">
<path d="M10.136 27.28C8.176 27.28 6.51467 26.888 5.152 26.104C3.78933 25.32 2.75333 24.1813 2.044 22.688C1.33467 21.176 0.98 19.3467 0.98 17.2C0.98 15.0533 1.33467 13.2333 2.044 11.74C2.75333 10.228 3.78933 9.08 5.152 8.296C6.51467 7.512 8.176 7.12 10.136 7.12C12.096 7.12 13.7573 7.512 15.12 8.296C16.5013 9.08 17.5467 10.228 18.256 11.74C18.9653 13.2333 19.32 15.0533 19.32 17.2C19.32 19.3467 18.9653 21.176 18.256 22.688C17.5467 24.1813 16.5013 25.32 15.12 26.104C13.7573 26.888 12.096 27.28 10.136 27.28ZM10.136 22.296C11.2373 22.296 12.0867 21.8573 12.684 20.98C13.2813 20.1027 13.58 18.8427 13.58 17.2C13.58 15.464 13.2813 14.1387 12.684 13.224C12.0867 12.2907 11.2373 11.824 10.136 11.824C9.03467 11.824 8.18533 12.2907 7.588 13.224C6.99067 14.1387 6.692 15.464 6.692 17.2C6.692 18.8427 6.99067 20.1027 7.588 20.98C8.18533 21.8573 9.03467 22.296 10.136 22.296ZM28.7171 27.196C27.0931 27.196 25.6184 26.8973 24.2931 26.3C22.9864 25.7027 21.8944 24.8347 21.0171 23.696L24.2371 20.196C24.9091 20.9427 25.5717 21.456 26.2251 21.736C26.8784 22.016 27.6157 22.156 28.4371 22.156C28.9224 22.156 29.3424 22.0627 29.6971 21.876C30.0704 21.6893 30.3504 21.4373 30.5371 21.12C30.7424 20.784 30.8451 20.4107 30.8451 20C30.8451 19.5707 30.7331 19.1973 30.5091 18.88C30.3037 18.544 30.0144 18.2827 29.6411 18.096C29.2677 17.8907 28.8291 17.788 28.3251 17.788C27.8397 17.788 27.3917 17.8347 26.9811 17.928C26.5891 18.0213 26.1877 18.1613 25.7771 18.348C25.3851 18.5347 24.9557 18.7867 24.4891 19.104L22.1371 16.024L23.3971 7.12H35.1571V12.02H25.9171L27.6251 9.668L26.7011 15.884L24.3211 15.492C24.7877 15.1 25.3011 14.7547 25.8611 14.456C26.4397 14.1573 27.0371 13.924 27.6531 13.756C28.2877 13.5693 28.9317 13.476 29.5851 13.476C30.8731 13.476 32.0211 13.7653 33.0291 14.344C34.0371 14.9227 34.8304 15.7347 35.4091 16.78C36.0064 17.8067 36.3051 18.992 36.3051 20.336C36.3051 21.624 35.9691 22.7907 35.2971 23.836C34.6251 24.8627 33.7197 25.684 32.5811 26.3C31.4424 26.8973 30.1544 27.196 28.7171 27.196Z" fill="#01D0FF"/>
<path d="M53 16L108 16" stroke="#01D0FF" stroke-width="3" stroke-linecap="round"/>
</svg>
