<svg width="40" height="40" viewBox="0 0 40 40" fill="none" xmlns="http://www.w3.org/2000/svg">
<path d="M14.9164 36.7158C14.9164 36.7158 14.3144 36.4531 14.3144 36.1247V31.1986C14.3144 31.1986 14.5819 30.6074 14.9164 30.6074C15.2508 30.6074 15.5184 30.8701 15.5184 31.1986V36.1247C15.5184 36.1247 15.2508 36.7158 14.9164 36.7158Z" fill="#384043" stroke="#384043" stroke-miterlimit="10"/>
<path d="M25.1505 36.7158C25.1505 36.7158 24.5485 36.4531 24.5485 36.1247V31.1986C24.5485 31.1986 24.8161 30.6074 25.1505 30.6074C25.485 30.6074 25.7525 30.8701 25.7525 31.1986V36.1247C25.7525 36.1247 25.485 36.7158 25.1505 36.7158Z" fill="#384043" stroke="#384043" stroke-miterlimit="10"/>
<path d="M20 23.9083C17.4582 23.9083 15.3846 21.8722 15.3846 19.3763C15.3846 16.8804 17.4582 14.8442 20 14.8442C22.5418 14.8442 24.6154 16.8804 24.6154 19.3763C24.6154 21.8722 22.5418 23.9083 20 23.9083ZM20 15.9608C18.0602 15.9608 16.5217 17.4715 16.5217 19.3763C16.5217 21.281 18.0602 22.7917 20 22.7917C21.9398 22.7917 23.4783 21.281 23.4783 19.3763C23.4783 17.4715 21.9398 15.9608 20 15.9608Z" fill="#01D0FF" stroke="#01D0FF" stroke-miterlimit="10"/>
<path d="M28.8294 36.7157H11.1706C11.1706 36.7157 10.5686 36.453 10.5686 36.1246V30.0162C10.5686 27.1263 12.9766 24.7617 15.9197 24.7617H24.0134C26.9565 24.7617 29.3646 27.1263 29.3646 30.0162V36.1246C29.3646 36.1246 29.097 36.7157 28.7625 36.7157H28.8294ZM11.7726 35.5335H28.2943V30.0162C28.2943 27.7174 26.4214 25.8783 24.0803 25.8783H15.9866C13.6455 25.8783 11.7726 27.7174 11.7726 30.0162V35.5335Z" fill="#384043" stroke="#384043" stroke-miterlimit="10"/>
<path d="M32.0401 36.7159H7.95987C7.95987 36.7159 7.62542 36.6502 7.49164 36.5189C7.35786 36.3875 7.35786 36.2562 7.35786 36.0591L9.63211 15.3038C9.76589 13.7931 11.1037 12.6108 12.6421 12.6108H27.291C28.8294 12.6108 30.1672 13.7274 30.301 15.3038L32.5753 36.0591C32.5753 36.0591 32.5753 36.3875 32.4415 36.5189C32.3077 36.6502 32.1739 36.7159 31.9732 36.7159H32.0401ZM8.69565 35.5337H31.4381L29.2308 15.4351C29.097 14.5156 28.3612 13.7931 27.3579 13.7931H12.709C11.7726 13.7931 10.9699 14.5156 10.8361 15.4351L8.62876 35.5337H8.69565Z" fill="#384043" stroke="#384043" stroke-width="0.5" stroke-miterlimit="10"/>
<path d="M30.5017 22.7259C30.5017 22.7259 30.4348 22.7259 30.3679 22.7259C30.1003 22.7259 29.9666 22.4632 29.8997 22.2004L29.1639 15.4352C29.0301 14.5157 28.2943 13.7932 27.291 13.7932H12.709C11.7726 13.7932 10.9699 14.5157 10.8361 15.4352H10.2341H10.8361L10.1003 22.2004C10.1003 22.2004 9.89967 22.6602 9.63211 22.7259C9.36455 22.7259 9.16388 22.7259 9.0301 22.4632C7.82609 20.4927 7.15719 18.1939 7.15719 15.895C7.15719 8.93278 12.9097 3.28418 20 3.28418C27.0903 3.28418 32.8428 8.93278 32.8428 15.895C32.8428 18.1939 32.1739 20.427 30.9699 22.4632C30.8361 22.6602 30.7023 22.7259 30.4348 22.7259H30.5017ZM20 4.46645C13.5786 4.46645 8.29431 9.5896 8.29431 15.9607C8.29431 17.4057 8.56187 18.8507 9.09699 20.1643L9.63211 15.3696C9.76589 13.8589 11.1037 12.6766 12.6421 12.6766H27.291C28.8294 12.6766 30.1672 13.7932 30.301 15.3696L30.8361 20.1643C31.3712 18.8507 31.6388 17.4057 31.6388 15.9607C31.6388 9.65528 26.4214 4.46645 19.9331 4.46645H20Z" fill="#01D0FF" stroke="#01D0FF" stroke-miterlimit="10"/>
<path d="M31.4381 31.3302C31.4381 31.3302 31.3043 31.3302 31.2375 31.3302C31.0368 31.2645 30.903 31.0674 30.8361 30.8704L29.1639 15.5666C29.0301 14.6471 28.2943 13.9246 27.291 13.9246H12.709C11.7726 13.9246 10.9699 14.6471 10.8361 15.5666L9.16388 30.8704C9.16388 30.8704 8.96321 31.2645 8.76254 31.3302C8.56187 31.3958 8.29431 31.3302 8.16054 31.1988C5.08361 28.1118 3.34448 24.0395 3.34448 19.7045C3.34448 10.6405 10.8361 3.28418 20 3.28418C29.1639 3.28418 36.6555 10.6405 36.6555 19.6389C36.6555 23.9738 34.9164 28.0461 31.8395 31.1331C31.7057 31.2645 31.5719 31.3302 31.4381 31.3302ZM20 4.46645C11.4381 4.46645 4.5485 11.2316 4.5485 19.6389C4.5485 23.2513 5.8194 26.6668 8.16054 29.4254L9.699 15.3696C9.83278 13.8589 11.1706 12.6766 12.709 12.6766H27.3579C28.8963 12.6766 30.2341 13.7932 30.3679 15.3696L31.9064 29.4254C34.2475 26.6668 35.5184 23.2513 35.5184 19.6389C35.5184 11.2316 28.5619 4.46645 20.0669 4.46645H20Z" fill="#384043" stroke="#384043" stroke-width="0.5" stroke-miterlimit="10"/>
</svg>
