<svg width="26" height="24" viewBox="0 0 26 24" fill="none" xmlns="http://www.w3.org/2000/svg">
<g id="check_9282598 1" clip-path="url(#clip0_12816_1612)">
<g id="Group">
<path id="Vector" fill-rule="evenodd" clip-rule="evenodd" d="M5.60107 12L13.099 4.50203L20.597 12L13.099 19.498L5.60107 12Z" fill="#0099FF"/>
<g id="Group_2">
<g id="Group_3">
<path id="Vector_2" d="M13.1015 23.9988C11.8601 23.9988 10.696 23.5184 9.82369 22.6462L2.45563 15.2781C0.648253 13.4707 0.648253 10.5298 2.45563 8.72247L9.82369 1.35436C10.696 0.482074 11.86 0.00170898 13.1015 0.00170898C14.343 0.00170898 15.507 0.48212 16.3793 1.35436L23.7474 8.72247C24.6197 9.59475 25.1001 10.7588 25.1001 12.0003C25.1001 13.2417 24.6197 14.4058 23.7474 15.2781L16.3793 22.6462C15.507 23.5184 14.3429 23.9988 13.1015 23.9988ZM13.1015 0.939097C12.1105 0.939097 11.1818 1.32197 10.4866 2.01719L3.11846 9.38529C1.67657 10.8272 1.67657 13.1733 3.11846 14.6152L10.4866 21.9833C11.1818 22.6786 12.1105 23.0615 13.1015 23.0615C14.0926 23.0615 15.0212 22.6786 15.7164 21.9833L23.0845 14.6152C23.7798 13.92 24.1626 12.9913 24.1626 12.0003C24.1626 11.0092 23.7798 10.0806 23.0845 9.38534L15.7164 2.01723C15.0212 1.32197 14.0926 0.939097 13.1015 0.939097Z" fill="white"/>
</g>
<g id="Group_4">
<path id="Vector_3" d="M13.1013 15.2277C12.9813 15.2277 12.8614 15.182 12.7699 15.0904L10.0108 12.3314C9.82778 12.1483 9.82778 11.8516 10.0108 11.6685C10.1938 11.4854 10.4906 11.4855 10.6737 11.6685L13.1013 14.0961L19.0093 8.18805C19.1924 8.00502 19.4891 8.00502 19.6722 8.18805C19.8552 8.37108 19.8552 8.66785 19.6722 8.85092L13.4326 15.0905C13.3412 15.182 13.2212 15.2277 13.1013 15.2277Z" fill="white"/>
</g>
</g>
</g>
</g>
<defs>
<clipPath id="clip0_12816_1612">
<rect width="25.2" height="24" fill="white" transform="translate(0.5)"/>
</clipPath>
</defs>
</svg>
