<svg width="25" height="34" viewBox="0 0 25 34" fill="none" xmlns="http://www.w3.org/2000/svg">
<path d="M20.1015 33.4028H4.71686C3.58346 33.4028 2.49648 32.9665 1.69504 32.1898C0.893602 31.4131 0.443359 30.3596 0.443359 29.2612V4.62057C0.443359 3.52216 0.893602 2.46873 1.69504 1.69204C2.49648 0.915346 3.58346 0.479004 4.71686 0.479004H20.1015C21.2349 0.479004 22.3219 0.915346 23.1233 1.69204C23.9247 2.46873 24.375 3.52216 24.375 4.62057V29.2612C24.375 30.3596 23.9247 31.4131 23.1233 32.1898C22.3219 32.9665 21.2349 33.4028 20.1015 33.4028ZM4.71686 2.13563C4.03682 2.13563 3.38463 2.39744 2.90377 2.86345C2.42291 3.32947 2.15276 3.96152 2.15276 4.62057V29.2612C2.15276 29.9203 2.42291 30.5523 2.90377 31.0183C3.38463 31.4844 4.03682 31.7462 4.71686 31.7462H20.1015C20.7815 31.7462 21.4337 31.4844 21.9146 31.0183C22.3954 30.5523 22.6656 29.9203 22.6656 29.2612V4.62057C22.6656 3.96152 22.3954 3.32947 21.9146 2.86345C21.4337 2.39744 20.7815 2.13563 20.1015 2.13563H4.71686Z" fill="#061014" fill-opacity="0.9"/>
<path d="M16.6827 13.2249H8.13567C7.45562 13.2249 6.80343 12.9631 6.32257 12.4971C5.84171 12.0311 5.57156 11.399 5.57156 10.74V7.93367C5.57156 7.27462 5.84171 6.64257 6.32257 6.17655C6.80343 5.71054 7.45562 5.44873 8.13567 5.44873H16.6827C17.3627 5.44873 18.0149 5.71054 18.4958 6.17655C18.9766 6.64257 19.2468 7.27462 19.2468 7.93367V10.74C19.2468 11.399 18.9766 12.0311 18.4958 12.4971C18.0149 12.9631 17.3627 13.2249 16.6827 13.2249V13.2249ZM8.13567 7.10536C7.90899 7.10536 7.69159 7.19262 7.5313 7.34796C7.37101 7.5033 7.28097 7.71399 7.28097 7.93367V10.74C7.28097 10.9597 7.37101 11.1704 7.5313 11.3257C7.69159 11.481 7.90899 11.5683 8.13567 11.5683H16.6827C16.9094 11.5683 17.1268 11.481 17.287 11.3257C17.4473 11.1704 17.5374 10.9597 17.5374 10.74V7.93367C17.5374 7.71399 17.4473 7.5033 17.287 7.34796C17.1268 7.19262 16.9094 7.10536 16.6827 7.10536H8.13567Z" fill="#01D0FF"/>
<path d="M12.4092 17.3682C13.1172 17.3682 13.6912 16.812 13.6912 16.1258C13.6912 15.4396 13.1172 14.8833 12.4092 14.8833C11.7011 14.8833 11.1271 15.4396 11.1271 16.1258C11.1271 16.812 11.7011 17.3682 12.4092 17.3682Z" fill="#01D0FF"/>
<path d="M17.9647 17.3682C18.6728 17.3682 19.2468 16.812 19.2468 16.1258C19.2468 15.4396 18.6728 14.8833 17.9647 14.8833C17.2567 14.8833 16.6827 15.4396 16.6827 16.1258C16.6827 16.812 17.2567 17.3682 17.9647 17.3682Z" fill="#01D0FF"/>
<path d="M6.85362 17.3682C7.56167 17.3682 8.13567 16.812 8.13567 16.1258C8.13567 15.4396 7.56167 14.8833 6.85362 14.8833C6.14556 14.8833 5.57156 15.4396 5.57156 16.1258C5.57156 16.812 6.14556 17.3682 6.85362 17.3682Z" fill="#01D0FF"/>
<path d="M12.4092 22.9014C13.1172 22.9014 13.6912 22.3452 13.6912 21.659C13.6912 20.9728 13.1172 20.4165 12.4092 20.4165C11.7011 20.4165 11.1271 20.9728 11.1271 21.659C11.1271 22.3452 11.7011 22.9014 12.4092 22.9014Z" fill="#01D0FF"/>
<path d="M17.9647 22.9014C18.6728 22.9014 19.2468 22.3452 19.2468 21.659C19.2468 20.9728 18.6728 20.4165 17.9647 20.4165C17.2567 20.4165 16.6827 20.9728 16.6827 21.659C16.6827 22.3452 17.2567 22.9014 17.9647 22.9014Z" fill="#01D0FF"/>
<path d="M6.85362 22.9014C7.56167 22.9014 8.13567 22.3452 8.13567 21.659C8.13567 20.9728 7.56167 20.4165 6.85362 20.4165C6.14556 20.4165 5.57156 20.9728 5.57156 21.659C5.57156 22.3452 6.14556 22.9014 6.85362 22.9014Z" fill="#01D0FF"/>
<path d="M17.9647 28.4327C18.6728 28.4327 19.2468 27.8764 19.2468 27.1902C19.2468 26.504 18.6728 25.9478 17.9647 25.9478C17.2567 25.9478 16.6827 26.504 16.6827 27.1902C16.6827 27.8764 17.2567 28.4327 17.9647 28.4327Z" fill="#01D0FF"/>
<path d="M12.8331 28.0184H6.42626C6.19958 28.0184 5.98219 27.9312 5.8219 27.7758C5.66161 27.6205 5.57156 27.4098 5.57156 27.1901C5.57156 26.9704 5.66161 26.7598 5.8219 26.6044C5.98219 26.4491 6.19958 26.3618 6.42626 26.3618H12.8263C13.0529 26.3618 13.2703 26.4491 13.4306 26.6044C13.5909 26.7598 13.681 26.9704 13.681 27.1901C13.681 27.4098 13.5909 27.6205 13.4306 27.7758C13.2703 27.9312 13.0529 28.0184 12.8263 28.0184H12.8331Z" fill="#01D0FF"/>
</svg>
