<svg width="73" height="72" viewBox="0 0 73 72" fill="none" xmlns="http://www.w3.org/2000/svg">
<g clip-path="url(#clip0_7348_23040)">
<path d="M38.6144 37.3819C38.5567 36.7342 38.2833 35.8848 37.4628 35.1651C37.6211 32.9769 37.6067 27.3196 34.0942 23.2458C31.5895 20.3668 27.9043 18.9128 23.1251 18.9128C20.7355 18.9128 18.6193 19.2727 16.7911 20.0069C14.963 20.7267 13.4227 21.8063 12.1703 23.2458C8.64344 27.3052 8.64344 32.9769 8.78736 35.1651C7.98123 35.8848 7.70772 36.7342 7.65017 37.3819C7.33351 40.4194 11.0618 43.9318 12.2998 45.0114C13.4946 47.4154 15.0494 49.4451 16.8055 50.8991C18.7633 52.4969 20.865 53.3607 23.0675 53.4326H23.0818C23.1683 53.447 23.2547 53.447 23.341 53.447C25.3419 53.447 27.3861 52.5833 29.459 50.8846C31.2152 49.4451 32.7699 47.4154 33.9647 45.0114C35.1883 43.9318 38.931 40.4194 38.6144 37.3819ZM31.863 43.0105C31.719 43.14 31.5895 43.2984 31.5031 43.4856C30.4666 45.6448 29.1279 47.4298 27.6308 48.6678C26.0041 49.9921 24.5502 50.6255 23.1826 50.568C21.628 50.496 20.0877 49.8626 18.6338 48.6678C17.1367 47.4298 15.7978 45.6448 14.7614 43.4856C14.6751 43.2984 14.5455 43.14 14.3871 43.0105C12.6885 41.571 10.3853 38.9222 10.5004 37.6698C10.5148 37.5834 10.5436 37.4395 10.7883 37.2524C13.4946 37.0508 15.0781 35.1506 16.3449 33.6103C17.5685 32.1133 18.3747 31.1919 19.6414 31.1919C20.937 31.1919 22.4629 32.1564 24.2335 33.2505C27.0262 34.9923 30.5098 37.1372 35.505 37.2668C35.7209 37.4395 35.7497 37.5834 35.7497 37.6698C35.8792 38.9222 33.576 41.571 31.863 43.0105Z" fill="#061014" fill-opacity="0.9"/>
<path d="M45.7543 70.5486C45.7543 71.3403 45.1066 71.9881 44.3148 71.9881H1.9496C1.15787 71.9881 0.510071 71.3403 0.510071 70.5486C0.510071 61.7387 6.13867 53.9796 14.5023 51.2158C15.1644 50.9998 15.8842 51.2877 16.2153 51.9067C17.079 53.5045 19.9437 57.7079 23.125 58.3702C26.3064 57.7079 29.1855 53.5045 30.0492 51.9067C30.3802 51.2877 31.1 50.9998 31.7622 51.2158C40.1259 53.9796 45.7543 61.7387 45.7543 70.5486Z" fill="#032B46"/>
<path d="M51.0292 8.82129C49.2502 8.82129 47.8022 10.2692 47.8022 12.049C47.8022 13.828 49.2502 15.276 51.0292 15.276C52.8083 15.276 54.2562 13.828 54.2562 12.049C54.2562 10.2692 52.8083 8.82129 51.0292 8.82129Z" fill="#061014" fill-opacity="0.9"/>
<path d="M72.1553 11.1251C71.7666 10.6644 62.6256 0.0119629 51.0231 0.0119629C39.4349 0.0119629 30.2939 10.6644 29.9052 11.1251C29.459 11.6577 29.459 12.4351 29.9052 12.9821C30.2939 13.4284 39.4349 24.0808 51.0231 24.0808C62.6256 24.0808 71.7666 13.4284 72.1553 12.9821C72.6015 12.4351 72.6015 11.6577 72.1553 11.1251ZM51.0292 18.155C47.6624 18.155 44.9232 15.4159 44.9232 12.049C44.9232 8.68145 47.6624 5.94227 51.0292 5.94227C54.3961 5.94227 57.1352 8.68145 57.1352 12.049C57.1352 15.4159 54.3961 18.155 51.0292 18.155Z" fill="#032B46"/>
</g>
<defs>
<clipPath id="clip0_7348_23040">
<rect width="72" height="72" fill="white" transform="translate(0.5)"/>
</clipPath>
</defs>
</svg>
