<svg width="17" height="20" viewBox="0 0 17 20" fill="none" xmlns="http://www.w3.org/2000/svg">
<path d="M15.0001 8.48469C15.0001 13.7877 8.18195 18.3332 8.18195 18.3332C8.18195 18.3332 1.36377 13.7877 1.36377 8.48469C1.36377 6.67639 2.08211 4.94216 3.36077 3.6635C4.63943 2.38485 6.37366 1.6665 8.18195 1.6665C9.99025 1.6665 11.7245 2.38485 13.0031 3.6635C14.2818 4.94216 15.0001 6.67639 15.0001 8.48469Z" stroke="#384043" stroke-width="2" stroke-linecap="round" stroke-linejoin="round"/>
<path d="M8.18191 10.7574C9.4371 10.7574 10.4546 9.73983 10.4546 8.48464C10.4546 7.22945 9.4371 6.21191 8.18191 6.21191C6.92671 6.21191 5.90918 7.22945 5.90918 8.48464C5.90918 9.73983 6.92671 10.7574 8.18191 10.7574Z" stroke="#384043" stroke-width="2" stroke-linecap="round" stroke-linejoin="round"/>
</svg>
