<svg width="89" height="91" viewBox="0 0 89 91" fill="none" xmlns="http://www.w3.org/2000/svg">
<g id="fun-glasses_9121290 1" clip-path="url(#clip0_12566_13511)">
<g id="Layer_x0020_1">
<path id="Vector" d="M44.5771 90.4626C69.1004 90.4626 88.9804 70.3592 88.9804 45.5604C88.9804 20.7616 69.1004 0.658203 44.5771 0.658203C20.0539 0.658203 0.173828 20.7616 0.173828 45.5604C0.173828 70.3592 20.0539 90.4626 44.5771 90.4626Z" fill="url(#paint0_linear_12566_13511)"/>
<g id="_462111608">
<path id="_462112280" fill-rule="evenodd" clip-rule="evenodd" d="M18.4742 42.4513H22.5092C23.1923 42.4513 23.7461 43.0114 23.7462 43.7021C23.7462 44.3929 23.1922 44.9531 22.5092 44.9531H16.463C16.0334 44.9531 15.6341 44.7276 15.4091 44.3574C15.1852 43.9889 15.1659 43.5239 15.3589 43.1378L23.5783 26.6927C24.881 24.0863 26.8382 21.0735 29.7441 20.1448C31.6377 19.5397 33.5483 19.9533 35.2679 20.8821C35.8706 21.2075 36.0978 21.9656 35.7761 22.5749C35.4544 23.1841 34.7043 23.4141 34.102 23.0887C32.9741 22.4792 31.7444 22.1294 30.4896 22.5305C28.3333 23.2195 26.7406 25.9119 25.7862 27.8213L18.4742 42.4513Z" fill="#FEFEFE"/>
<path id="_462112784" fill-rule="evenodd" clip-rule="evenodd" d="M50.9284 40.191C50.6198 40.191 50.3242 40.0754 50.0959 39.8654C47.3332 37.3237 41.8295 37.3232 39.0669 39.8654C38.5626 40.3296 37.7783 40.2921 37.3194 39.7819C36.8605 39.2717 36.8975 38.4789 37.4021 38.0148C41.1099 34.6041 48.0527 34.6048 51.7607 38.0147C52.2654 38.4787 52.3024 39.2715 51.8435 39.7818C51.6087 40.0429 51.2773 40.191 50.9284 40.191Z" fill="#FEFEFE"/>
<path id="_462111512" fill-rule="evenodd" clip-rule="evenodd" d="M70.6885 42.4512L63.3764 27.8214C62.422 25.9118 60.8294 23.2195 58.6729 22.5305C57.4178 22.1294 56.1885 22.4787 55.0605 23.0887C54.4582 23.4143 53.7081 23.1842 53.3863 22.5749C53.0646 21.9658 53.292 21.2076 53.8944 20.8821C55.6138 19.9531 57.5247 19.5398 59.4183 20.1449C62.3243 21.0735 64.2815 24.0863 65.5843 26.6927L73.8037 43.1379C73.9972 43.5249 73.9779 43.9882 73.7533 44.3575C73.5283 44.7275 73.1292 44.9531 72.6997 44.9531H66.6529C65.9699 44.9531 65.4158 44.3928 65.4158 43.7022C65.4158 43.0114 65.9698 42.4513 66.6528 42.4513L70.6885 42.4512Z" fill="#FEFEFE"/>
<path id="_462112136" fill-rule="evenodd" clip-rule="evenodd" d="M36.0236 59.3208C35.5628 59.3208 35.1393 59.0624 34.9257 58.6478C33.4571 55.7968 34.448 52.2061 35.7927 49.5043C36.0997 48.8873 36.8437 48.6386 37.4538 48.9491C38.0639 49.2596 38.3096 50.0119 38.0026 50.6288C37.0552 52.5325 36.0627 55.4401 37.1199 57.4919C37.4355 58.1045 37.2 58.86 36.5944 59.1792C36.4179 59.2722 36.2226 59.3209 36.0236 59.3208ZM53.1384 59.3208C52.9394 59.3208 52.744 59.2722 52.5675 59.1792C51.962 58.8601 51.7265 58.1044 52.042 57.4919C53.0986 55.4408 52.0987 52.5252 51.1523 50.6225C50.8454 50.0056 51.0911 49.2531 51.7013 48.9428C52.3117 48.6324 53.0553 48.8809 53.3624 49.498C54.7065 52.1993 55.7035 55.7962 54.2363 58.6475C54.0229 59.0623 53.5994 59.3209 53.1384 59.3208Z" fill="#FEFEFE"/>
<path id="_462111968" fill-rule="evenodd" clip-rule="evenodd" d="M35.9777 57.7161C33.7034 57.7951 31.6527 59.5944 29.3101 61.6499C26.356 64.2421 23.0653 67.1291 18.4961 67.141C23.522 70.9244 31.0257 72.3395 36.9237 70.4097C40.7075 69.1716 43.1277 66.6861 43.7732 63.3898C41.1128 59.8266 38.7721 57.9779 36.6241 57.7404C36.4482 57.721 36.274 57.7122 36.101 57.7135C36.0752 57.7162 36.0493 57.7175 36.0236 57.7175C36.0082 57.7175 35.993 57.717 35.9777 57.7161Z" fill="#FEFEFE"/>
<path id="_462112232" fill-rule="evenodd" clip-rule="evenodd" d="M52.5378 57.7401C50.3899 57.9775 48.0492 59.8263 45.3887 63.3895C46.0343 66.6857 48.4544 69.1712 52.2383 70.4093C58.1361 72.3394 65.6399 70.924 70.666 67.1407C66.0963 67.1291 62.8061 64.2419 59.8517 61.6495C57.5098 59.5946 55.4598 57.795 53.1859 57.7156C53.1701 57.7167 53.1543 57.7171 53.1385 57.7171C53.1124 57.7171 53.0861 57.7158 53.06 57.713C52.8874 57.7118 52.7133 57.7206 52.5378 57.7401Z" fill="#FEFEFE"/>
<path id="_462111584" fill-rule="evenodd" clip-rule="evenodd" d="M50.0008 38.4276C49.0269 39.9482 48.4609 41.7596 48.4609 43.7022C48.4611 49.0669 52.7769 53.4315 58.082 53.4315C63.387 53.4315 67.7029 49.0669 67.7029 43.7022C67.703 38.3375 63.387 33.9731 58.0822 33.9731C54.7596 33.9731 51.8249 35.6851 50.0955 38.2826C50.0688 38.333 50.0372 38.3816 50.0008 38.4276Z" fill="#FEFEFE"/>
<path id="_462112208" fill-rule="evenodd" clip-rule="evenodd" d="M31.0802 33.9731C25.775 33.9731 21.459 38.3376 21.459 43.7022C21.459 49.0669 25.7749 53.4315 31.0801 53.4315C36.3853 53.4315 40.7011 49.0669 40.7011 43.7022C40.7012 41.7602 40.1356 39.9494 39.1623 38.4291C39.125 38.3822 39.0927 38.3326 39.0656 38.2811C37.3362 35.6845 34.402 33.9731 31.0802 33.9731Z" fill="#FEFEFE"/>
</g>
</g>
</g>
<defs>
<linearGradient id="paint0_linear_12566_13511" x1="12.6035" y1="13.2276" x2="77.2651" y2="77.1707" gradientUnits="userSpaceOnUse">
<stop stop-color="#00B5F1"/>
<stop offset="1" stop-color="#00BFFF"/>
</linearGradient>
<clipPath id="clip0_12566_13511">
<rect width="89" height="90" fill="white" transform="translate(0 0.482422)"/>
</clipPath>
</defs>
</svg>
