<svg width="24" height="24" viewBox="0 0 24 24" fill="none" xmlns="http://www.w3.org/2000/svg">
<g id="map-pin">
<path id="Vector" d="M20.3636 10.1818C20.3636 16.5455 12.1818 22 12.1818 22C12.1818 22 4 16.5455 4 10.1818C4 8.01187 4.86201 5.93079 6.3964 4.3964C7.93079 2.86201 10.0119 2 12.1818 2C14.3518 2 16.4328 2.86201 17.9672 4.3964C19.5016 5.93079 20.3636 8.01187 20.3636 10.1818Z" stroke="#4A759F" stroke-width="2" stroke-linecap="round" stroke-linejoin="round"/>
<path id="Vector_2" d="M12 13C13.6569 13 15 11.6569 15 10C15 8.34315 13.6569 7 12 7C10.3431 7 9 8.34315 9 10C9 11.6569 10.3431 13 12 13Z" stroke="#4A759F" stroke-width="2" stroke-linecap="round" stroke-linejoin="round"/>
</g>
</svg>
