<svg width="35" height="23" viewBox="0 0 35 23" fill="none" xmlns="http://www.w3.org/2000/svg">
<g id="eye-care_5717625 1" clip-path="url(#clip0_12658_4184)">
<g id="Group">
<path id="Vector" d="M16.1166 22.9477C12.9324 22.9477 9.80464 22.106 7.07173 20.5135C4.42385 18.9708 2.19988 16.7624 0.640002 14.1272C0.517135 13.9196 0.517135 13.6621 0.640002 13.4545C2.2 10.8191 4.42396 8.61049 7.07162 7.06761C9.80487 5.47474 12.9325 4.63281 16.1166 4.63281C19.0807 4.63281 22.017 5.36771 24.6084 6.75821C24.9328 6.93237 25.0538 7.33487 24.8786 7.6572C24.7033 7.97964 24.2981 8.09984 23.9738 7.92568C21.5768 6.63956 18.8599 5.95974 16.1166 5.95974C10.3938 5.95974 5.01971 8.95051 1.99566 13.7908C5.01938 18.6304 10.3934 21.6207 16.1166 21.6207C21.8404 21.6207 27.215 18.6302 30.2387 13.7906C30.1492 13.6475 30.0586 13.5077 29.9675 13.3727C29.7623 13.0683 29.8444 12.6562 30.1507 12.4523C30.4572 12.2482 30.8718 12.33 31.0771 12.6343C31.2528 12.895 31.427 13.1712 31.5945 13.4551C31.7171 13.6626 31.7169 13.9197 31.5941 14.1272C30.0343 16.7625 27.8102 18.9709 25.1624 20.5135C22.4294 22.106 19.3013 22.9477 16.1166 22.9477Z" fill="white"/>
<path id="Vector_2" d="M16.1172 20.7905C12.2327 20.7905 9.07227 17.6504 9.07227 13.7908C9.07227 9.93107 12.2325 6.79102 16.1172 6.79102C17.1649 6.79102 18.201 7.03628 19.1964 7.52005C19.3599 7.59944 19.4836 7.74176 19.5389 7.91404C19.5943 8.08631 19.5767 8.27352 19.4898 8.43242C19.3643 8.6622 19.3008 8.89916 19.3008 9.13668C19.3008 9.95882 19.974 10.6276 20.8014 10.6276C21.0407 10.6276 21.2792 10.5645 21.5104 10.4398C21.6703 10.3536 21.8587 10.336 22.0321 10.391C22.2055 10.446 22.3487 10.569 22.4286 10.7315C22.9156 11.7206 23.1624 12.7499 23.1624 13.7908C23.1624 17.6504 20.0019 20.7905 16.1172 20.7905ZM16.1172 8.11794C12.9691 8.11794 10.4078 10.6628 10.4078 13.7908C10.4078 16.9188 12.9691 19.4636 16.1172 19.4636C19.2655 19.4636 21.8269 16.9188 21.8269 13.7908C21.8269 13.1452 21.7072 12.5019 21.4704 11.8716C21.2511 11.9269 21.0276 11.9546 20.8014 11.9546C19.2375 11.9546 17.9652 10.6905 17.9652 9.1368C17.9652 8.9121 17.9933 8.69006 18.0489 8.47212C17.4146 8.23681 16.7672 8.11794 16.1172 8.11794Z" fill="white"/>
<path id="Vector_3" d="M16.1166 16.8439C14.4223 16.8439 13.0439 15.4744 13.0439 13.7911C13.0439 12.1078 14.4224 10.7383 16.1166 10.7383C17.8108 10.7383 19.1892 12.1078 19.1892 13.7911C19.1892 15.4744 17.811 16.8439 16.1166 16.8439ZM16.1166 12.0651C15.1587 12.0651 14.3795 12.8394 14.3795 13.791C14.3795 14.7426 15.1587 15.5169 16.1166 15.5169C17.0744 15.5169 17.8537 14.7426 17.8537 13.791C17.8537 12.8394 17.0744 12.0651 16.1166 12.0651Z" fill="white"/>
<path id="Vector_4" d="M28.6933 14.0334C25.7327 14.0334 23.3242 11.6403 23.3242 8.69887C23.3242 5.95137 27.6902 0.853662 28.1882 0.281316C28.315 0.135576 28.4993 0.0517578 28.6933 0.0517578C28.8873 0.0517578 29.0716 0.135576 29.1985 0.281316C29.6964 0.853552 34.0623 5.95137 34.0623 8.69887C34.0623 11.6404 31.6537 14.0334 28.6933 14.0334ZM28.6934 1.74812C27.2285 3.53007 24.6597 7.00616 24.6597 8.69898C24.6597 10.9088 26.4692 12.7066 28.6933 12.7066C30.9174 12.7066 32.7268 10.9089 32.7268 8.69898C32.7268 7.0045 30.1583 3.5294 28.6934 1.74812Z" fill="white"/>
<g id="Group_2">
<path id="Vector_5" d="M28.6941 10.6485C28.3254 10.6485 28.0264 10.3514 28.0264 9.98502V6.51014C28.0264 6.1438 28.3254 5.84668 28.6941 5.84668C29.0628 5.84668 29.3619 6.1438 29.3619 6.51014V9.98502C29.3619 10.3514 29.0628 10.6485 28.6941 10.6485Z" fill="white"/>
<path id="Vector_6" d="M30.4425 8.91091H26.9451C26.5764 8.91091 26.2773 8.61379 26.2773 8.24745C26.2773 7.8811 26.5764 7.58398 26.9451 7.58398H30.4425C30.8112 7.58398 31.1102 7.8811 31.1102 8.24745C31.1102 8.61379 30.8112 8.91091 30.4425 8.91091Z" fill="white"/>
</g>
</g>
</g>
<defs>
<clipPath id="clip0_12658_4184">
<rect width="33.6105" height="23" fill="white" transform="translate(0.5)"/>
</clipPath>
</defs>
</svg>
