<svg width="54" height="37" viewBox="0 0 54 37" fill="none" xmlns="http://www.w3.org/2000/svg">
<path d="M26.88 18.212C26.88 21.268 26.552 23.916 25.896 26.156C25.24 28.396 24.328 30.252 23.16 31.724C22.008 33.196 20.632 34.292 19.032 35.012C17.448 35.732 15.728 36.092 13.872 36.092C12.016 36.092 10.296 35.732 8.712 35.012C7.144 34.292 5.784 33.196 4.632 31.724C3.48 30.252 2.576 28.396 1.92 26.156C1.28 23.916 0.96 21.268 0.96 18.212C0.96 15.156 1.28 12.508 1.92 10.268C2.576 8.02801 3.48 6.17201 4.632 4.70001C5.784 3.22801 7.144 2.14001 8.712 1.43601C10.296 0.716006 12.016 0.356007 13.872 0.356007C15.728 0.356007 17.448 0.716006 19.032 1.43601C20.632 2.14001 22.008 3.22801 23.16 4.70001C24.328 6.17201 25.24 8.02801 25.896 10.268C26.552 12.508 26.88 15.156 26.88 18.212ZM19.2 18.212C19.2 15.796 19.048 13.82 18.744 12.284C18.44 10.732 18.032 9.51601 17.52 8.63601C17.024 7.75601 16.456 7.15601 15.816 6.83601C15.176 6.50001 14.528 6.33201 13.872 6.33201C13.216 6.33201 12.568 6.50001 11.928 6.83601C11.304 7.15601 10.744 7.75601 10.248 8.63601C9.768 9.51601 9.376 10.732 9.072 12.284C8.784 13.82 8.64 15.796 8.64 18.212C8.64 20.644 8.784 22.628 9.072 24.164C9.376 25.7 9.768 26.916 10.248 27.812C10.744 28.692 11.304 29.3 11.928 29.636C12.568 29.956 13.216 30.116 13.872 30.116C14.528 30.116 15.176 29.956 15.816 29.636C16.456 29.3 17.024 28.692 17.52 27.812C18.032 26.916 18.44 25.7 18.744 24.164C19.048 22.628 19.2 20.644 19.2 18.212ZM51.2678 28.988C52.0678 28.988 52.6998 29.212 53.1638 29.66C53.6278 30.092 53.8598 30.668 53.8598 31.388V35.708H29.2838V33.308C29.2838 32.844 29.3798 32.348 29.5718 31.82C29.7638 31.292 30.0998 30.812 30.5798 30.38L40.6598 20.228C41.5238 19.364 42.2758 18.54 42.9158 17.756C43.5558 16.972 44.0838 16.204 44.4998 15.452C44.9158 14.684 45.2278 13.924 45.4358 13.172C45.6438 12.404 45.7478 11.596 45.7478 10.748C45.7478 9.35601 45.4118 8.29201 44.7398 7.55601C44.0838 6.80401 43.0758 6.42801 41.7158 6.42801C40.6118 6.42801 39.6758 6.72401 38.9078 7.31601C38.1558 7.89201 37.6358 8.61201 37.3478 9.47601C37.0118 10.356 36.5718 10.94 36.0278 11.228C35.4838 11.516 34.7078 11.58 33.6998 11.42L29.7638 10.724C30.0198 8.98001 30.5078 7.46001 31.2278 6.16401C31.9638 4.86801 32.8678 3.78801 33.9398 2.92401C35.0278 2.06001 36.2678 1.42001 37.6598 1.00401C39.0518 0.572006 40.5478 0.356007 42.1478 0.356007C43.8758 0.356007 45.4278 0.612006 46.8038 1.12401C48.1958 1.62001 49.3798 2.31601 50.3558 3.21201C51.3318 4.10801 52.0758 5.18001 52.5878 6.42801C53.1158 7.66001 53.3798 9.02001 53.3798 10.508C53.3798 11.788 53.1958 12.972 52.8278 14.06C52.4758 15.148 51.9878 16.188 51.3638 17.18C50.7398 18.156 50.0118 19.108 49.1798 20.036C48.3638 20.948 47.4918 21.876 46.5638 22.82L39.7238 29.828C40.6038 29.556 41.4758 29.348 42.3398 29.204C43.2038 29.06 44.0038 28.988 44.7398 28.988H51.2678Z" fill="#FFB800"/>
</svg>
