<svg width="57" height="57" viewBox="0 0 57 57" fill="none" xmlns="http://www.w3.org/2000/svg">
<path d="M28.1536 0C12.609 0 0 12.6018 0 28.1536C0 43.6982 12.6018 56.3072 28.1536 56.3072C43.6982 56.3072 56.3072 43.7054 56.3072 28.1536C56.3072 12.609 43.7054 0 28.1536 0Z" fill="white"/>
<path d="M22.6882 19.4995L22.3412 18.5615C22.0109 18.6839 21.6862 18.8144 21.3672 18.953L21.7642 19.871C22.0672 19.741 22.3752 19.6172 22.6882 19.4995Z" fill="#003E79"/>
<path d="M24.587 18.9187L24.3505 17.9497C24.0075 18.0327 23.669 18.1259 23.335 18.2292L23.6295 19.1847C23.9435 19.086 24.2626 18.9974 24.587 18.9187Z" fill="#003E79"/>
<path d="M20.8578 20.2921L20.4163 19.3921C20.1006 19.5478 19.7913 19.7089 19.4883 19.8756L19.9708 20.7516C20.2604 20.5939 20.5561 20.4408 20.8578 20.2921Z" fill="#003E79"/>
<path d="M26.5343 18.5785L26.4283 17.584C26.0813 17.621 25.7283 17.671 25.3828 17.7315L25.5558 18.7165C25.8803 18.6595 26.2093 18.613 26.5343 18.5785Z" fill="#003E79"/>
<path d="M15.8401 23.5995L15.2001 22.8315C14.9231 23.062 14.6601 23.2895 14.4111 23.511L15.0766 24.2575C15.3176 24.043 15.5726 23.823 15.8401 23.5995Z" fill="#003E79"/>
<path d="M14.3348 24.9413L13.6458 24.2168C13.3738 24.4753 13.1258 24.7203 12.9033 24.9468L13.6168 25.6468C13.8318 25.4283 14.0718 25.1913 14.3348 24.9413Z" fill="#003E79"/>
<path d="M17.4312 22.3667L16.8472 21.5552C16.5589 21.7625 16.2807 21.9705 16.0127 22.1792L16.6257 22.9692C16.8844 22.7688 17.1529 22.568 17.4312 22.3667Z" fill="#003E79"/>
<path d="M19.1041 21.2559L18.5841 20.3999C18.2841 20.5829 17.9908 20.7696 17.7041 20.9599L18.2571 21.7929C18.5321 21.6119 18.8144 21.4329 19.1041 21.2559Z" fill="#003E79"/>
<path d="M28.5054 18.5093L28.5414 17.5093C28.1914 17.4963 27.8344 17.4963 27.4834 17.5093L27.5184 18.5093C27.8459 18.4998 28.1774 18.4998 28.5054 18.5093Z" fill="#003E79"/>
<path d="M41.6077 23.5277C41.3577 23.3062 41.0962 23.0777 40.8197 22.8477L40.1787 23.6157C40.4474 23.839 40.7017 24.0583 40.9417 24.2737L41.6077 23.5277Z" fill="#003E79"/>
<path d="M42.4006 25.6654L43.1136 24.9654C42.8911 24.7394 42.6436 24.4939 42.3721 24.2349L41.6816 24.9584C41.9461 25.2084 42.1856 25.4464 42.4006 25.6654Z" fill="#003E79"/>
<path d="M38.318 20.976C38.0323 20.786 37.7388 20.599 37.4375 20.415L36.917 21.269C37.2063 21.445 37.4883 21.6247 37.763 21.808L38.318 20.976Z" fill="#003E79"/>
<path d="M40.0083 22.1948C39.7403 21.9868 39.4623 21.7778 39.1748 21.5703L38.5898 22.3808C38.8672 22.5808 39.1355 22.782 39.3948 22.9843L40.0083 22.1948Z" fill="#003E79"/>
<path d="M32.6875 18.2341C32.3542 18.1308 32.016 18.037 31.673 17.9526L31.4355 18.9246C31.7592 19.0033 32.0779 19.0915 32.3915 19.1891L32.6875 18.2341Z" fill="#003E79"/>
<path d="M34.6555 18.9653C34.3365 18.8269 34.012 18.6961 33.682 18.5728L33.332 19.5103C33.645 19.6266 33.9532 19.7508 34.2565 19.8828L34.6555 18.9653Z" fill="#003E79"/>
<path d="M30.6418 17.7359C30.2918 17.6739 29.9418 17.6239 29.5963 17.5859L29.4893 18.5804C29.8118 18.6149 30.1393 18.6624 30.4673 18.7199L30.6418 17.7359Z" fill="#003E79"/>
<path d="M36.5336 19.8903C36.2312 19.7236 35.9222 19.5621 35.6066 19.4058L35.1641 20.3023C35.4641 20.4523 35.7611 20.6063 36.0516 20.7663L36.5336 19.8903Z" fill="#003E79"/>
<path d="M31.4141 37.0809L31.6496 38.0524C31.9926 37.9694 32.3309 37.8762 32.6646 37.7729L32.3706 36.8174C32.0572 36.9144 31.7384 37.0022 31.4141 37.0809Z" fill="#003E79"/>
<path d="M33.3115 36.4999L33.6615 37.4379C33.9922 37.3153 34.3169 37.1848 34.6355 37.0464L34.239 36.1284C33.934 36.2584 33.6249 36.3823 33.3115 36.4999Z" fill="#003E79"/>
<path d="M35.1426 35.7071L35.5841 36.6071C35.8997 36.4514 36.2091 36.2902 36.5121 36.1236L36.0301 35.2476C35.7401 35.4056 35.4442 35.5587 35.1426 35.7071Z" fill="#003E79"/>
<path d="M29.4658 37.4213L29.5723 38.4158C29.9193 38.3788 30.2723 38.3288 30.6168 38.2658L30.4443 37.2808C30.1198 37.3403 29.7908 37.3868 29.4658 37.4213Z" fill="#003E79"/>
<path d="M40.1611 32.3997L40.8011 33.1687C41.0776 32.9387 41.3411 32.7112 41.5896 32.4897L40.9246 31.7427C40.6836 31.9557 40.4291 32.1757 40.1611 32.3997Z" fill="#003E79"/>
<path d="M27.496 37.4902L27.459 38.4902C27.639 38.4972 27.8195 38.5002 28.0005 38.5002C28.1735 38.5002 28.3458 38.4972 28.5175 38.4912L28.4825 37.4912C28.1555 37.5027 27.8235 37.5027 27.496 37.4902Z" fill="#003E79"/>
<path d="M36.8965 34.7425L37.416 35.5995C37.716 35.4165 38.0095 35.2299 38.2965 35.0395L37.7435 34.2065C37.4685 34.3875 37.1862 34.5662 36.8965 34.7425Z" fill="#003E79"/>
<path d="M38.5703 33.6328L39.1543 34.4443C39.4428 34.2368 39.7203 34.0278 39.9888 33.8203L39.3753 33.0303C39.117 33.2309 38.8486 33.4318 38.5703 33.6328Z" fill="#003E79"/>
<path d="M41.665 31.058L42.3545 31.7825C42.6265 31.524 42.8745 31.279 43.0965 31.0525L42.384 30.3525C42.1685 30.571 41.928 30.808 41.665 31.058Z" fill="#003E79"/>
<path d="M14.3936 32.4716C14.6436 32.6931 14.9051 32.9216 15.1816 33.1516L15.8221 32.3836C15.5541 32.1601 15.2996 31.9396 15.0591 31.7256L14.3936 32.4716Z" fill="#003E79"/>
<path d="M25.3594 38.2638C25.7094 38.3258 26.0594 38.3758 26.4044 38.4138L26.5119 37.4193C26.1894 37.3848 25.8619 37.3373 25.5334 37.2798L25.3594 38.2638Z" fill="#003E79"/>
<path d="M13.6002 30.335L12.8857 31.035C13.1077 31.261 13.3552 31.5065 13.6272 31.766L14.3172 31.042C14.0552 30.7915 13.8157 30.554 13.6002 30.335Z" fill="#003E79"/>
<path d="M17.6826 35.0234C17.968 35.2141 18.2615 35.4012 18.5631 35.5849L19.0831 34.7309C18.7935 34.5546 18.5116 34.3747 18.2376 34.1914L17.6826 35.0234Z" fill="#003E79"/>
<path d="M15.9922 33.8046C16.2589 34.0133 16.5369 34.2216 16.8262 34.4296L17.4112 33.6186C17.1332 33.4186 16.8647 33.2186 16.6062 33.0151L15.9922 33.8046Z" fill="#003E79"/>
<path d="M19.4668 36.1094C19.7695 36.2761 20.0785 36.4376 20.3938 36.5939L20.8368 35.6974C20.5348 35.5484 20.2391 35.3939 19.9498 35.2339L19.4668 36.1094Z" fill="#003E79"/>
<path d="M23.3125 37.7651C23.6458 37.8684 23.984 37.9621 24.327 38.0461L24.5645 37.0751C24.2415 36.9961 23.9227 36.9077 23.608 36.8101L23.3125 37.7651Z" fill="#003E79"/>
<path d="M21.3447 37.0347C21.6637 37.1727 21.9882 37.3042 22.3182 37.4267L22.6682 36.4897C22.3552 36.3734 22.0471 36.2492 21.7437 36.1172L21.3447 37.0347Z" fill="#003E79"/>
<path d="M42.8907 27.685C41.5962 26.172 40.1429 24.8024 38.5557 23.6C36.0957 21.73 32.2707 19.5 28.0007 19.5C23.7307 19.5 19.9057 21.73 17.4457 23.6C15.8586 24.8024 14.4052 26.172 13.1107 27.685C13.0403 27.7749 13.002 27.8858 13.002 28C13.002 28.1142 13.0403 28.2251 13.1107 28.315C14.4052 29.828 15.8586 31.1976 17.4457 32.4C19.9057 34.27 23.7307 36.5 28.0007 36.5C32.2707 36.5 36.0957 34.27 38.5557 32.4C40.1429 31.1976 41.5962 29.828 42.8907 28.315C42.9612 28.2251 42.9995 28.1142 42.9995 28C42.9995 27.8858 42.9612 27.7749 42.8907 27.685ZM14.1607 28C16.3804 25.5058 19.0525 23.4546 22.0357 21.955C21.233 22.7438 20.5954 23.6846 20.1601 24.7225C19.7249 25.7604 19.5007 26.8746 19.5007 28C19.5007 29.1254 19.7249 30.2396 20.1601 31.2775C20.5954 32.3154 21.233 33.2562 22.0357 34.045C19.0525 32.5454 16.3804 30.4942 14.1607 28ZM28.0007 35.5C26.5174 35.5 25.0673 35.0601 23.8339 34.236C22.6006 33.4119 21.6393 32.2406 21.0716 30.8701C20.504 29.4997 20.3554 27.9917 20.6448 26.5368C20.9342 25.082 21.6485 23.7456 22.6974 22.6967C23.7463 21.6478 25.0827 20.9335 26.5375 20.6441C27.9924 20.3547 29.5004 20.5032 30.8709 21.0709C32.2413 21.6386 33.4126 22.5999 34.2367 23.8332C35.0609 25.0666 35.5007 26.5166 35.5007 28C35.4983 29.9884 34.7074 31.8947 33.3014 33.3007C31.8954 34.7067 29.9891 35.4976 28.0007 35.5ZM33.9657 34.045C34.7685 33.2562 35.4061 32.3154 35.8413 31.2775C36.2766 30.2396 36.5007 29.1254 36.5007 28C36.5007 26.8746 36.2766 25.7604 35.8413 24.7225C35.4061 23.6846 34.7685 22.7438 33.9657 21.955C36.9489 23.4546 39.621 25.5058 41.8407 28C39.621 30.4942 36.9489 32.5454 33.9657 34.045Z" fill="#003E79"/>
<path d="M31.12 29L29.5 28.19V27.485C29.8099 27.255 30.0616 26.9557 30.2353 26.611C30.4089 26.2664 30.4995 25.8859 30.5 25.5V24C30.5 23.337 30.2366 22.7011 29.7678 22.2322C29.2989 21.7634 28.663 21.5 28 21.5C27.337 21.5 26.7011 21.7634 26.2322 22.2322C25.7634 22.7011 25.5 23.337 25.5 24V25.5C25.5005 25.8859 25.5911 26.2664 25.7648 26.611C25.9384 26.9557 26.1902 27.255 26.5 27.485V28.19L24.88 29C24.4645 29.2069 24.1151 29.5258 23.8713 29.9207C23.6274 30.3156 23.4988 30.7709 23.5 31.235V33C23.5 33.1326 23.5527 33.2598 23.6465 33.3536C23.7402 33.4473 23.8674 33.5 24 33.5H32C32.1326 33.5 32.2598 33.4473 32.3536 33.3536C32.4473 33.2598 32.5 33.1326 32.5 33V31.235C32.5012 30.7709 32.3726 30.3156 32.1288 29.9207C31.8849 29.5258 31.5355 29.2069 31.12 29ZM28 22.5C28.3975 22.5012 28.7783 22.6596 29.0594 22.9407C29.3404 23.2217 29.4988 23.6025 29.5 24C29.4342 24.0007 29.3688 23.9882 29.3079 23.9633C29.2469 23.9384 29.1915 23.9016 29.145 23.855C29.0984 23.8085 29.0616 23.7531 29.0367 23.6921C29.0118 23.6312 28.9993 23.5658 29 23.5C29 23.3674 28.9473 23.2402 28.8536 23.1464C28.7598 23.0527 28.6326 23 28.5 23C28.3674 23 28.2402 23.0527 28.1465 23.1464C28.0527 23.2402 28 23.3674 28 23.5C28 23.6326 27.9473 23.7598 27.8536 23.8536C27.7598 23.9473 27.6326 24 27.5 24H26.5C26.5012 23.6025 26.6596 23.2217 26.9407 22.9407C27.2217 22.6596 27.6025 22.5012 28 22.5ZM26.5 25H27.5C27.8687 25.0003 28.2246 24.865 28.5 24.62C28.7749 24.866 29.1312 25.0013 29.5 25V25.5C29.5 25.8978 29.342 26.2794 29.0607 26.5607C28.7794 26.842 28.3978 27 28 27C27.6022 27 27.2207 26.842 26.9393 26.5607C26.658 26.2794 26.5 25.8978 26.5 25.5V25ZM29.49 29.305L29.285 29.755L28.785 29.42L29.1 29.11L29.49 29.305ZM28.5 27.95V28.295L28 28.795L27.5 28.295V27.95C27.83 28.0167 28.17 28.0167 28.5 27.95ZM27.215 29.42L26.715 29.755L26.51 29.305L26.9 29.11L27.215 29.42ZM31.5 32.5H24.5V31.235C24.4997 30.9565 24.5773 30.6834 24.7239 30.4466C24.8706 30.2099 25.0805 30.0188 25.33 29.895L25.615 29.75L26.045 30.705C26.0741 30.7711 26.1174 30.8301 26.1719 30.8776C26.2263 30.9251 26.2905 30.9601 26.36 30.98C26.4053 30.994 26.4526 31.0008 26.5 31C26.5982 31.0002 26.6941 30.9706 26.775 30.915L28 30.1L29.225 30.915C29.3059 30.9706 29.4018 31.0002 29.5 31C29.5474 31.0008 29.5947 30.994 29.64 30.98C29.7095 30.9601 29.7737 30.9251 29.8281 30.8776C29.8826 30.8301 29.9259 30.7711 29.955 30.705L30.385 29.75L30.67 29.895C30.9195 30.0188 31.1294 30.2099 31.2761 30.4466C31.4228 30.6834 31.5003 30.9565 31.5 31.235V32.5Z" fill="#003E79"/>
</svg>
