<svg width="33" height="33" viewBox="0 0 33 33" fill="none" xmlns="http://www.w3.org/2000/svg">
<g id="ranking_7819208 1" clip-path="url(#clip0_12845_1098)">
<g id="Group">
<path id="Vector" d="M20.5 10.5252V14.5252L17.3 16.1252H15.7L12.5 14.5252V10.5252L16.4375 10.009L20.5 10.5252Z" fill="#E1F1FF"/>
<path id="Vector_2" d="M20.5 8.52515L16.6212 9.07465L12.5 8.52515H10.5V10.5251H12.5L16.4375 10.009L20.5 10.5251H22.5V8.52515H20.5Z" fill="white"/>
<path id="Vector_3" d="M6.65162 9.68471C8.82094 6.57033 12.4224 4.52515 16.4996 4.52515C20.5769 4.52515 24.1783 6.57033 26.3476 9.68471L29.8274 7.67565C26.9613 3.36646 22.0656 0.525146 16.4996 0.525146C10.9337 0.525146 6.03794 3.36646 3.17188 7.67571L6.65162 9.68471Z" fill="white"/>
<path id="Vector_4" d="M15.5 28.4746C9.34775 27.9643 4.5 22.8076 4.5 16.5252C4.5 14.6972 4.92225 12.9705 5.6555 11.4188L2.18187 9.41321C1.11512 11.5575 0.5 13.9666 0.5 16.5251C0.5 25.0275 7.12881 31.9566 15.5 32.4748V28.4746Z" fill="#E1F1FF"/>
<path id="Vector_5" d="M27.3445 11.4187C28.0777 12.9705 28.5 14.6971 28.5 16.5251C28.5 22.8076 23.6522 27.9642 17.5 28.4746V32.4747C25.8712 31.9565 32.5 25.0275 32.5 16.5251C32.5 13.9665 31.8849 11.5575 30.8181 9.41321L27.3445 11.4187Z" fill="white"/>
<path id="Vector_6" d="M22.5 20.5251L18.5 22.5251L16.5 26.5251L14.5 22.5251L10.5 20.5251L14.5 18.5251L15.7 16.1251H17.3L18.5 18.5251L22.5 20.5251Z" fill="white"/>
<g id="Group_2">
<path id="Vector_7" d="M12.5 8.52515H20.5V10.5251H12.5V8.52515Z" fill="white"/>
<path id="Vector_8" d="M17.3002 16.1251L16.5002 16.5251L15.7002 16.1251L16.5002 14.5251L17.3002 16.1251Z" fill="white"/>
</g>
</g>
</g>
<defs>
<clipPath id="clip0_12845_1098">
<rect width="32" height="32" fill="white" transform="translate(0.5 0.5)"/>
</clipPath>
</defs>
</svg>
