<svg width="32" height="32" viewBox="0 0 32 32" fill="none" xmlns="http://www.w3.org/2000/svg">
<g id="water-pollution_10028535 1">
<g id="Layer 6">
<path id="Vector" d="M29 21.9999C27.6501 21.9736 26.3266 22.3763 25.22 23.1499C24.4192 23.7039 23.4687 24.0006 22.495 24.0006C21.5213 24.0006 20.5708 23.7039 19.77 23.1499C18.6662 22.3783 17.3465 21.9758 16 21.9999C14.6529 21.9716 13.3319 22.3745 12.23 23.1499C11.4355 23.728 10.4721 24.0268 9.49 23.9999C8.51457 24.0232 7.55864 23.7244 6.77 23.1499C5.66805 22.3745 4.34713 21.9716 3 21.9999C2.73478 21.9999 2.48043 22.1053 2.29289 22.2928C2.10536 22.4804 2 22.7347 2 22.9999C2 23.2652 2.10536 23.5195 2.29289 23.707C2.48043 23.8946 2.73478 23.9999 3 23.9999C3.97543 23.9767 4.93136 24.2754 5.72 24.8499C6.82349 25.6222 8.14336 26.0248 9.49 25.9999C10.8399 26.0262 12.1634 25.6236 13.27 24.8499C14.0614 24.2733 15.0212 23.9745 16 23.9999C16.9787 23.9752 17.9383 24.274 18.73 24.8499C19.8338 25.6216 21.1535 26.0241 22.5 25.9999C23.8471 26.0283 25.1681 25.6253 26.27 24.8499C27.0634 24.2773 28.0218 23.9789 29 23.9999C29.2652 23.9999 29.5196 23.8946 29.7071 23.707C29.8946 23.5195 30 23.2652 30 22.9999C30 22.7347 29.8946 22.4804 29.7071 22.2928C29.5196 22.1053 29.2652 21.9999 29 21.9999Z" fill="black"/>
<path id="Vector_2" d="M6.71019 20.7099L8.00019 19.4099L10.2902 21.7099C10.3834 21.8032 10.4941 21.8771 10.6159 21.9276C10.7378 21.9781 10.8683 22.004 11.0002 22.004C11.132 22.004 11.2626 21.9781 11.3844 21.9276C11.5063 21.8771 11.6169 21.8032 11.7102 21.7099C11.8034 21.6167 11.8774 21.506 11.9278 21.3842C11.9783 21.2624 12.0043 21.1318 12.0043 20.9999C12.0043 20.8681 11.9783 20.7375 11.9278 20.6157C11.8774 20.4939 11.8034 20.3832 11.7102 20.2899L9.41019 17.9999L14.0002 13.4099L20.5902 19.9999L20.2902 20.2899C20.1019 20.4782 19.9961 20.7336 19.9961 20.9999C19.9961 21.2662 20.1019 21.5216 20.2902 21.7099C20.4785 21.8982 20.7339 22.004 21.0002 22.004C21.2665 22.004 21.5219 21.8982 21.7102 21.7099L24.5902 18.8299C25.1901 18.2239 25.5807 17.4419 25.7048 16.5982C25.8289 15.7544 25.6802 14.8931 25.2802 14.1399L27.7102 11.7099C27.8039 11.617 27.8783 11.5064 27.9291 11.3845C27.9798 11.2627 28.006 11.132 28.006 10.9999C28.006 10.8679 27.9798 10.7372 27.9291 10.6154C27.8783 10.4935 27.8039 10.3829 27.7102 10.2899L23.7102 6.28994C23.6172 6.19621 23.5066 6.12182 23.3848 6.07105C23.2629 6.02028 23.1322 5.99414 23.0002 5.99414C22.8682 5.99414 22.7375 6.02028 22.6156 6.07105C22.4937 6.12182 22.3831 6.19621 22.2902 6.28994L19.8602 8.71994C19.107 8.31997 18.2457 8.1712 17.402 8.29533C16.5582 8.41946 15.7763 8.80999 15.1702 9.40994L5.29019 19.2899C5.10188 19.4782 4.99609 19.7336 4.99609 19.9999C4.99609 20.2662 5.10188 20.5216 5.29019 20.7099C5.47849 20.8982 5.73388 21.004 6.00019 21.004C6.26649 21.004 6.52188 20.8982 6.71019 20.7099ZM23.0002 8.40994L25.5902 10.9999L24.0002 12.5899L21.4102 9.99994L23.0002 8.40994ZM19.4102 10.8299L23.1702 14.5899C23.5427 14.9647 23.7518 15.4716 23.7518 15.9999C23.7518 16.5283 23.5427 17.0352 23.1702 17.4099L22.0002 18.5899L15.4102 11.9999L16.5902 10.8299C16.9649 10.4574 17.4718 10.2484 18.0002 10.2484C18.5286 10.2484 19.0355 10.4574 19.4102 10.8299Z" fill="black"/>
</g>
</g>
</svg>
