<svg width="26" height="27" viewBox="0 0 26 27" fill="none" xmlns="http://www.w3.org/2000/svg">
<g id="chat_4547631 1">
<path id="Vector" d="M3.90185 18.226L3.9019 18.2261C3.98101 18.3469 4.02202 18.4888 4.0193 18.6334L3.90185 18.226ZM3.90185 18.226C2.87636 16.6612 2.33424 14.841 2.33424 12.9616C2.33424 7.65689 6.65031 3.34082 11.955 3.34082C15.929 3.34082 19.3907 5.7386 20.8465 9.27306M3.90185 18.226L20.8465 9.27306M20.8465 9.27306C19.5298 8.48504 17.9906 8.03138 16.3477 8.03138C11.5018 8.03138 7.55983 11.9734 7.55983 16.8193C7.55983 18.8675 8.26456 20.7541 9.4434 22.2496C8.46994 21.9868 7.54005 21.5713 6.6904 21.0147C6.47306 20.8723 6.19583 20.8582 5.96529 20.9779C4.79089 21.5876 4.0611 21.8922 3.09279 22.0209C3.81623 20.9379 3.99564 19.9028 4.0193 18.6335L20.8465 9.27306ZM25.199 24.7769L25.199 24.7768C25.307 24.5057 25.2403 24.196 25.0302 23.9934L25.0302 23.9934C24.5339 23.5148 24.2461 23.1143 24.075 22.7136C23.9121 22.332 23.8474 21.933 23.8266 21.4349C24.6837 20.0491 25.1355 18.4582 25.1355 16.8193C25.1355 14.5296 24.2547 12.4419 22.8154 10.8767C22.3454 8.41716 21.0396 6.1738 19.1213 4.53978C17.1253 2.83951 14.5803 1.90332 11.955 1.90332C9.0017 1.90332 6.22391 3.05391 4.13561 5.1422C2.04732 7.23049 0.896735 10.0083 0.896735 12.9616C0.896735 15.0445 1.47668 17.0658 2.57631 18.8217C2.55201 19.5043 2.46951 20.0529 2.24835 20.578C2.01915 21.1222 1.63268 21.6607 0.969868 22.2999H0.969869C0.759706 22.5025 0.693029 22.8121 0.801047 23.0833L0.80106 23.0833C0.909157 23.3546 1.17051 23.5334 1.46243 23.536H1.4625C2.53179 23.5451 3.33242 23.4775 4.08533 23.2936C4.80099 23.1189 5.4623 22.8419 6.2601 22.4416C7.78313 23.3579 9.50858 23.893 11.2868 23.9996C12.7185 25.0116 14.465 25.6072 16.3476 25.6072C17.9218 25.6072 19.452 25.1902 20.7988 24.3974C21.4056 24.6983 21.9182 24.9084 22.4749 25.0417C23.0689 25.184 23.7009 25.2361 24.5374 25.2295L24.5376 25.2295C24.8295 25.2269 25.0909 25.048 25.199 24.7769ZM22.5005 20.8413L22.5004 20.8414L22.633 21.244L22.383 21.2487C22.383 21.2487 22.383 21.2487 22.383 21.2487C22.3997 22.147 22.5139 22.9055 22.9459 23.675C22.3667 23.555 21.8542 23.3296 21.095 22.9354C20.8643 22.8155 20.587 22.8297 20.3698 22.972L20.5068 23.1812L20.3698 22.972C19.1739 23.7555 17.7834 24.1697 16.3476 24.1697C12.2949 24.1697 8.99728 20.8721 8.99728 16.8193C8.99728 12.7665 12.2949 9.46888 16.3476 9.46888C20.4005 9.46888 23.698 12.7665 23.698 16.8193C23.698 18.2553 23.2839 19.6458 22.5005 20.8413ZM16.4049 18.0068C17.0607 18.0068 17.5924 17.4751 17.5924 16.8193C17.5924 16.1635 17.0607 15.6318 16.4049 15.6318C15.7491 15.6318 15.2174 16.1635 15.2174 16.8193C15.2174 17.4751 15.7491 18.0068 16.4049 18.0068ZM12.362 15.6318C11.7061 15.6318 11.1745 16.1635 11.1745 16.8193C11.1745 17.4751 11.7061 18.0068 12.362 18.0068C13.0178 18.0068 13.5495 17.4751 13.5495 16.8193C13.5495 16.1635 13.0178 15.6318 12.362 15.6318ZM20.4479 15.6318C19.7921 15.6318 19.2604 16.1635 19.2604 16.8193C19.2604 17.4751 19.7921 18.0068 20.4479 18.0068C21.1037 18.0068 21.6354 17.4751 21.6354 16.8193C21.6354 16.1635 21.1037 15.6318 20.4479 15.6318Z" fill="#1B2E35" stroke="#1B2E35" stroke-width="0.5"/>
</g>
</svg>
