<svg width="30" height="41" viewBox="0 0 30 41" fill="none" xmlns="http://www.w3.org/2000/svg">
<g clip-path="url(#clip0_4576_57549)">
<path d="M18.8206 13.1095C20.6263 13.1095 22.0954 11.6716 22.0954 9.90412C22.0954 8.13669 20.6263 6.69867 18.8206 6.69867C17.015 6.69867 15.5459 8.13669 15.5459 9.90412C15.5459 11.6716 17.015 13.1095 18.8206 13.1095ZM18.8206 8.37596C19.6815 8.37596 20.382 9.06149 20.382 9.90426C20.382 10.747 19.6817 11.4325 18.8206 11.4325C17.9596 11.4325 17.2593 10.747 17.2593 9.90426C17.2593 9.06149 17.9598 8.37596 18.8206 8.37596Z" fill="#01D0FF"/>
<path d="M28.8442 10.7687C29.163 10.2809 29.2648 9.7016 29.1305 9.13767C28.9965 8.57372 28.6438 8.09797 28.1377 7.79833C27.1331 7.20349 25.8405 7.48917 25.1944 8.4485L21.4433 14.0196H16.1985L11.7489 7.41104C11.7004 7.33892 11.6424 7.27673 11.5778 7.2246L16.0028 2.29575C16.3152 1.94788 16.2803 1.41804 15.9248 1.11238C15.5695 0.806579 15.0281 0.840968 14.7158 1.18869L14.4378 1.49812L13.6116 0.778492C13.258 0.470732 12.7166 0.501481 12.4021 0.84753C12.0875 1.19358 12.1192 1.72356 12.4726 2.03145L13.3068 2.75794L12.9187 3.19022L12.2972 2.64892C11.9438 2.34117 11.4023 2.37192 11.0877 2.71797C10.7731 3.06402 10.8047 3.59399 11.1582 3.9019L11.7876 4.45004L6.57487 10.2563C5.81683 9.80265 4.95084 9.56827 4.06958 9.58504C2.88003 9.60965 1.80272 10.0879 1.03555 10.9318C0.268508 11.7755 -0.0916001 12.8787 0.0214809 14.0379C0.132432 15.1737 0.687297 16.2293 1.58384 17.0103C2.48366 17.794 3.59781 18.1825 4.68641 18.1825C5.85952 18.1825 7.00276 17.7313 7.81552 16.8373C9.1993 15.315 9.16817 13.0107 7.85455 11.3715L8.62817 10.5099L14.8801 20.0735V24.6105L11.9771 39.246C11.9316 39.4757 11.9861 39.7137 12.1277 39.9023C12.2695 40.0909 12.485 40.2131 12.7227 40.239L15.653 40.561C16.0766 40.6083 16.4718 40.3414 16.5782 39.9364L18.7635 31.6211L20.6632 39.911C20.7517 40.2975 21.1022 40.5663 21.4983 40.5663C21.5301 40.5663 21.5623 40.5644 21.5945 40.561L24.5249 40.239C24.7586 40.2134 24.9714 40.0947 25.1132 39.9109C25.2549 39.7271 25.3131 39.4943 25.2742 39.2671L22.7611 24.5953V20.0735L28.8442 10.7687ZM6.53574 15.7223C5.59695 16.7552 3.88653 16.7706 2.72311 15.7572C2.15055 15.2585 1.79687 14.5912 1.72734 13.8781C1.65994 13.1883 1.86898 12.538 2.31575 12.0465C2.76238 11.5552 3.3982 11.2765 4.10599 11.2618C4.12584 11.2613 4.14539 11.2612 4.16524 11.2612C4.87631 11.2612 5.57153 11.5263 6.12853 12.0116C7.29185 13.025 7.47455 14.6895 6.53574 15.7223ZM23.4351 38.671L22.1671 38.8104L19.6567 27.8547C19.57 27.4766 19.2299 27.2059 18.8341 27.1997C18.8297 27.1997 18.8251 27.1997 18.8207 27.1997C18.4304 27.1997 18.0886 27.4584 17.9911 27.8293L15.1046 38.813L13.8364 38.6736L16.3655 25.9227H21.2389C21.2432 25.9227 21.2472 25.9221 21.2514 25.9221L23.4351 38.671ZM21.1831 19.3761C21.0948 19.5109 21.0479 19.6679 21.0479 19.828V24.2455H16.5938V19.8166C16.5938 19.8172 16.5938 19.8162 16.5938 19.8166C16.5935 19.6143 16.5198 19.4273 16.3975 19.2824L9.80536 9.1986L10.4311 8.5016L15.0218 15.3195C15.1803 15.5549 15.4489 15.6966 15.7371 15.6966H17.9643V21.7042C17.9643 22.1673 18.3479 22.5428 18.8209 22.5428C19.294 22.5428 19.6777 22.1673 19.6777 21.7042V15.6966H21.9048C22.1929 15.6966 22.4616 15.5548 22.6202 15.3195L26.6252 9.3712C26.7625 9.16716 27.037 9.10636 27.251 9.23299C27.3962 9.31893 27.4456 9.44836 27.4621 9.51768C27.4785 9.58714 27.4927 9.72439 27.4011 9.86442L21.1831 19.3761Z" fill="#061014"/>
</g>
<defs>
<clipPath id="clip0_4576_57549">
<rect width="29.1892" height="40" fill="white" transform="translate(0 0.566406)"/>
</clipPath>
</defs>
</svg>
