<svg width="40" height="41" viewBox="0 0 40 41" fill="none" xmlns="http://www.w3.org/2000/svg">
<g clip-path="url(#clip0_6108_21742)">
<g clip-path="url(#clip1_6108_21742)">
<path d="M13.8936 18.25H14.1436V18.1778C17.3568 18.1566 20.6702 17.7273 23.2102 16.926C24.5119 16.5153 25.6263 16.002 26.4204 15.3837C27.2147 14.7652 27.7172 14.0172 27.7172 13.1429C27.7172 12.2686 27.2147 11.5206 26.4204 10.9021C25.6263 10.2838 24.5119 9.77052 23.2102 9.35983C20.6043 8.53763 17.1842 8.10718 13.8936 8.10718C10.604 8.10718 7.18399 8.51956 4.57777 9.33281C3.27596 9.73903 2.16094 10.2502 1.36633 10.8724C0.570563 11.4955 0.0700684 12.2525 0.0700684 13.1429C0.0700684 14.0328 0.570081 14.7941 1.36527 15.4237C2.15955 16.0526 3.27433 16.5729 4.57627 16.9882C7.18267 17.8196 10.6031 18.25 13.8936 18.25ZM1.74139 13.1429C1.74139 12.8969 1.94665 12.5514 2.49938 12.1552C3.03665 11.7701 3.8441 11.3803 4.9026 11.0322C7.01685 10.3368 10.0902 9.82146 13.8936 9.82146C17.7318 9.82146 20.8049 10.3368 22.9102 11.0321C23.9642 11.3801 24.765 11.7698 25.2966 12.1546C25.843 12.5499 26.0459 12.8954 26.0459 13.1429C26.0459 13.3889 25.8406 13.7344 25.2879 14.1305C24.7506 14.5157 23.9432 14.9055 22.8847 15.2536C20.7704 15.949 17.6971 16.4643 13.8936 16.4643C10.0902 16.4643 7.01685 15.949 4.9026 15.2536C3.8441 14.9055 3.03665 14.5157 2.49938 14.1305C1.94665 13.7344 1.74139 13.3889 1.74139 13.1429Z" fill="#01D0FF" stroke="#01D0FF" stroke-width="0.5" stroke-miterlimit="10"/>
<path d="M7.95221 22.8066L7.99332 22.8214H7.99372V22.8929H8.24372C8.42367 22.8929 8.59735 22.8051 8.72445 22.7063C8.85184 22.6072 8.97496 22.4643 9.03059 22.2979C9.12249 22.0548 9.10054 21.8221 9.00001 21.6267C8.90222 21.4366 8.73818 21.2961 8.56547 21.2066L8.55209 21.1997L8.53798 21.1944C4.39721 19.6462 1.81029 16.5052 1.81029 13.1429C1.81029 12.6562 1.43117 12.25 0.94018 12.25C0.44919 12.25 0.0700684 12.6562 0.0700684 13.1429C0.0700684 17.3477 3.12816 21.0671 7.95221 22.8066Z" fill="#01D0FF" stroke="#01D0FF" stroke-width="0.5" stroke-miterlimit="10"/>
<path d="M25.2357 19.3165L25.2357 19.3164C25.0717 19.4864 24.8732 19.6071 24.6424 19.6071H24.5735V19.3619C24.5735 19.6071 24.5734 19.6071 24.5733 19.6071H24.5732L24.5729 19.6071L24.5722 19.6071L24.5706 19.6071L24.5661 19.6071L24.5524 19.6067C24.5414 19.6063 24.5264 19.6056 24.5084 19.6041C24.4727 19.6013 24.4233 19.5956 24.3677 19.5841C24.2657 19.5629 24.1018 19.514 23.9801 19.3879M25.2357 19.3165L23.9801 19.3879M25.2357 19.3165L25.2393 19.3126C26.861 17.5583 27.7862 15.4281 27.7862 13.1429C27.7862 12.6562 27.4071 12.25 26.9161 12.25C26.4251 12.25 26.046 12.6562 26.046 13.1429C26.046 14.9319 25.3847 16.7217 23.9911 18.1721M25.2357 19.3165L23.9911 18.1721M23.9801 19.3879C23.8327 19.235 23.7412 19.0164 23.7295 18.7991C23.7179 18.5826 23.786 18.3406 23.9911 18.1721M23.9801 19.3879L23.9911 18.1721" fill="#01D0FF" stroke="#01D0FF" stroke-width="0.5" stroke-miterlimit="10"/>
<path d="M36.8785 27.1787L36.8788 27.1762C36.9961 26.3049 36.604 25.4872 35.9042 24.7548C35.2048 24.0227 34.1743 23.3487 32.9423 22.7485C30.476 21.5469 27.1428 20.6126 23.8531 20.11C20.563 19.6074 17.1082 19.5158 14.4145 19.9406C13.069 20.1527 11.8966 20.4962 11.0273 20.994C10.1569 21.4924 9.56036 22.1649 9.44284 23.0381C9.32556 23.9094 9.71765 24.7271 10.4174 25.4595C11.1168 26.1916 12.1473 26.8656 13.3793 27.4658C15.8456 28.6674 19.1787 29.6017 22.4683 30.1042C24.341 30.3919 26.283 30.5357 28.0184 30.5357C29.4703 30.5357 30.795 30.4643 31.9865 30.2467C33.4487 30.0298 34.604 29.6657 35.427 29.1594C36.2556 28.6496 36.7617 27.9853 36.8785 27.1787ZM11.1096 23.3198L11.1099 23.3176C11.1314 23.15 11.2642 22.9359 11.5894 22.7018C11.909 22.4716 12.3815 22.2472 13.0041 22.0509C14.2476 21.659 16.0466 21.3929 18.3033 21.3929C19.8732 21.3929 21.6522 21.5344 23.6412 21.8188C27.4098 22.3871 30.38 23.3625 32.3752 24.3747C33.3742 24.8815 34.119 25.3926 34.5973 25.8587C35.083 26.3321 35.2426 26.7073 35.2132 26.9568C35.1618 27.1789 34.9535 27.4827 34.4067 27.7912C33.8559 28.1019 32.9917 28.3988 31.6986 28.6104L31.6965 28.6108C29.2512 29.0333 26.0415 28.9647 22.681 28.467C18.9122 27.8987 15.9418 26.9233 13.9464 25.911C12.9474 25.4042 12.2027 24.8931 11.7243 24.427C11.2327 23.9479 11.0752 23.5693 11.1096 23.3198Z" fill="#384043" stroke="#384043" stroke-width="0.5" stroke-miterlimit="10"/>
<path d="M23.4709 23.6785H23.5771L23.6508 23.6021L23.6544 23.5984C23.9916 23.5477 24.3272 23.2793 24.3406 22.8817C24.3794 22.6516 24.3345 22.4163 24.2151 22.2308C24.0923 22.0398 23.8871 21.8996 23.6278 21.8931C20.04 21.3935 16.7099 21.3192 14.609 21.6822L14.6089 21.682L14.6008 21.6837C14.3727 21.731 14.1761 21.8529 14.0495 22.0367C13.9221 22.2215 13.8777 22.4515 13.9237 22.6902C13.9698 22.9289 14.091 23.1143 14.2717 23.2348C14.446 23.3509 14.6544 23.3928 14.8582 23.3928H14.8812L14.9037 23.3886C16.7906 23.0393 19.9261 23.1767 23.3661 23.6759L23.3839 23.6785H23.402H23.4024H23.4028H23.4032H23.4036H23.404H23.4044H23.4048H23.4052H23.4056H23.4059H23.4063H23.4067H23.4071H23.4075H23.4079H23.4082H23.4086H23.409H23.4094H23.4097H23.4101H23.4105H23.4109H23.4112H23.4116H23.412H23.4123H23.4127H23.413H23.4134H23.4138H23.4141H23.4145H23.4148H23.4152H23.4155H23.4159H23.4162H23.4166H23.4169H23.4172H23.4176H23.4179H23.4183H23.4186H23.4189H23.4193H23.4196H23.4199H23.4203H23.4206H23.4209H23.4212H23.4216H23.4219H23.4222H23.4225H23.4228H23.4232H23.4235H23.4238H23.4241H23.4244H23.4247H23.425H23.4253H23.4256H23.426H23.4263H23.4266H23.4269H23.4272H23.4275H23.4277H23.428H23.4283H23.4286H23.4289H23.4292H23.4295H23.4298H23.4301H23.4304H23.4306H23.4309H23.4312H23.4315H23.4318H23.432H23.4323H23.4326H23.4329H23.4331H23.4334H23.4337H23.4339H23.4342H23.4345H23.4347H23.435H23.4352H23.4355H23.4358H23.436H23.4363H23.4365H23.4368H23.437H23.4373H23.4375H23.4378H23.438H23.4383H23.4385H23.4388H23.439H23.4392H23.4395H23.4397H23.44H23.4402H23.4404H23.4407H23.4409H23.4411H23.4414H23.4416H23.4418H23.442H23.4423H23.4425H23.4427H23.4429H23.4432H23.4434H23.4436H23.4438H23.444H23.4442H23.4445H23.4447H23.4449H23.4451H23.4453H23.4455H23.4457H23.4459H23.4461H23.4463H23.4465H23.4467H23.4469H23.4471H23.4473H23.4475H23.4477H23.4479H23.4481H23.4483H23.4485H23.4487H23.4489H23.4491H23.4492H23.4494H23.4496H23.4498H23.45H23.4502H23.4503H23.4505H23.4507H23.4509H23.4511H23.4512H23.4514H23.4516H23.4518H23.4519H23.4521H23.4523H23.4524H23.4526H23.4528H23.4529H23.4531H23.4533H23.4534H23.4536H23.4537H23.4539H23.4541H23.4542H23.4544H23.4545H23.4547H23.4548H23.455H23.4551H23.4553H23.4554H23.4556H23.4557H23.4559H23.456H23.4562H23.4563H23.4565H23.4566H23.4567H23.4569H23.457H23.4572H23.4573H23.4574H23.4576H23.4577H23.4578H23.458H23.4581H23.4582H23.4584H23.4585H23.4586H23.4587H23.4589H23.459H23.4591H23.4592H23.4594H23.4595H23.4596H23.4597H23.4599H23.46H23.4601H23.4602H23.4603H23.4604H23.4606H23.4607H23.4608H23.4609H23.461H23.4611H23.4612H23.4613H23.4614H23.4615H23.4617H23.4618H23.4619H23.462H23.4621H23.4622H23.4623H23.4624H23.4625H23.4626H23.4627H23.4628H23.4629H23.463H23.4631H23.4631H23.4632H23.4633H23.4634H23.4635H23.4636H23.4637H23.4638H23.4639H23.464H23.4641H23.4641H23.4642H23.4643H23.4644H23.4645H23.4646H23.4646H23.4647H23.4648H23.4649H23.465H23.465H23.4651H23.4652H23.4653H23.4653H23.4654H23.4655H23.4656H23.4656H23.4657H23.4658H23.4659H23.4659H23.466H23.4661H23.4661H23.4662H23.4663H23.4663H23.4664H23.4665H23.4665H23.4666H23.4667H23.4667H23.4668H23.4668H23.4669H23.467H23.467H23.4671H23.4671H23.4672H23.4673H23.4673H23.4674H23.4674H23.4675H23.4675H23.4676H23.4676H23.4677H23.4677H23.4678H23.4678H23.4679H23.4679H23.468H23.468H23.4681H23.4681H23.4682H23.4682H23.4683H23.4683H23.4684H23.4684H23.4685H23.4685H23.4685H23.4686H23.4686H23.4687H23.4687H23.4687H23.4688H23.4688H23.4689H23.4689H23.4689H23.469H23.469H23.469H23.4691H23.4691H23.4692H23.4692H23.4692H23.4693H23.4693H23.4693H23.4694H23.4694H23.4694H23.4694H23.4695H23.4695H23.4695H23.4696H23.4696H23.4696H23.4696H23.4697H23.4697H23.4697H23.4698H23.4698H23.4698H23.4698H23.4699H23.4699H23.4699H23.4699H23.47H23.47H23.47H23.47H23.47H23.4701H23.4701H23.4701H23.4701H23.4701H23.4702H23.4702H23.4702H23.4702H23.4702H23.4703H23.4703H23.4703H23.4703H23.4703H23.4703H23.4704H23.4704H23.4704H23.4704H23.4704H23.4704H23.4704H23.4705H23.4705H23.4705H23.4705H23.4705H23.4705H23.4705H23.4705H23.4706H23.4706H23.4706H23.4706H23.4706H23.4706H23.4706H23.4706H23.4706H23.4706H23.4707H23.4707H23.4707H23.4707H23.4707H23.4707H23.4707H23.4707H23.4707H23.4707H23.4707H23.4708H23.4708H23.4708H23.4708H23.4708H23.4708H23.4708H23.4708H23.4708H23.4708H23.4709H23.4709H23.4709H23.4709Z" fill="#384043" stroke="#384043" stroke-width="0.5" stroke-miterlimit="10"/>
<path d="M21.9924 33.9672L21.9916 33.9671C18.6637 33.4742 15.7857 32.0142 13.8285 30.0726C11.8724 28.1322 10.8491 25.7269 11.1776 23.3261C11.2212 23.091 11.177 22.8493 11.055 22.6595C10.9332 22.4702 10.7305 22.3308 10.4745 22.322C10.0278 22.2431 9.52169 22.5192 9.5097 23.0522C9.08955 25.9967 10.2663 28.8681 12.4741 31.1387C14.6838 33.4112 17.935 35.0938 21.7002 35.6742C22.6208 35.893 23.4697 35.893 24.3546 35.893H24.3666H24.4355C27.0877 35.893 29.6804 35.3145 31.7911 34.1475L31.7916 34.1472C34.6721 32.5449 36.5185 30.0565 36.9464 27.1847C36.9904 26.9492 36.9463 26.7068 36.824 26.5167C36.7023 26.3274 36.4996 26.188 36.2435 26.1791C35.7969 26.1002 35.2907 26.3763 35.2788 26.9094C34.9428 29.2383 33.419 31.2423 30.9991 32.5664C28.435 33.9655 25.253 34.4602 21.9924 33.9672Z" fill="#384043" stroke="#384043" stroke-width="0.5" stroke-miterlimit="10"/>
<path d="M6.2456 35.6429L6.14098 35.8699L6.19078 35.8929H6.2456H34.4951C34.9861 35.8929 35.3652 35.4867 35.3652 35C35.3652 34.8371 35.2948 34.7002 35.2179 34.5983C35.1404 34.4956 35.0429 34.4103 34.955 34.3446C34.8659 34.2778 34.7782 34.2249 34.7136 34.189C34.6811 34.1708 34.6536 34.1566 34.6339 34.1467L34.6103 34.1351L34.6033 34.1318L34.6011 34.1307L34.6003 34.1304L34.6 34.1302L34.5999 34.1302C34.5998 34.1301 34.5998 34.1301 34.4951 34.3572L34.5998 34.1301L34.55 34.1072H34.4951H6.2456C5.75461 34.1072 5.37549 34.5134 5.37549 35C5.37549 35.163 5.44592 35.2999 5.52285 35.4018C5.60035 35.5044 5.69786 35.5897 5.78571 35.6555C5.87483 35.7222 5.9625 35.7751 6.0271 35.8111C6.05968 35.8292 6.0871 35.8435 6.10681 35.8534L6.13046 35.865L6.13747 35.8683L6.13968 35.8693L6.14045 35.8697L6.14074 35.8698L6.14087 35.8699C6.14093 35.8699 6.14098 35.8699 6.2456 35.6429Z" fill="#384043" stroke="#384043" stroke-width="0.5" stroke-miterlimit="10"/>
</g>
</g>
<defs>
<clipPath id="clip0_6108_21742">
<rect width="39.0244" height="40" fill="white" transform="translate(0.490723 0.996094)"/>
</clipPath>
<clipPath id="clip1_6108_21742">
<rect width="37" height="28" fill="white" transform="translate(-0.0244141 8)"/>
</clipPath>
</defs>
</svg>
