<svg width="60" height="60" viewBox="0 0 60 60" fill="none" xmlns="http://www.w3.org/2000/svg">
<rect x="-0.00390625" width="60.007" height="60" rx="8" fill="#05BC01"/>
<path d="M29.9961 18C23.4603 18.002 17.9998 23.4696 17.9998 30C17.9998 32.3543 18.7006 34.68 20.0084 36.6461L17.9961 42L24.7345 40.7814C26.3806 41.5859 28.1881 41.989 29.9961 41.9902C36.5375 41.9947 42.0031 36.5344 42.0031 30C42.0031 23.473 36.5355 17.9961 29.9961 18Z" stroke="white" stroke-width="1.5" stroke-linecap="round" stroke-linejoin="round"/>
<path d="M30.6567 35.2846C32.2801 36.3268 33.9726 35.5677 35.1514 34.6886C35.9656 34.0814 35.9385 32.9101 35.2431 32.1698L33.8719 30.71C33.3517 31.2301 32.3381 31.4876 31.6338 31.2732C30.12 30.8125 29.4846 30.0237 28.9697 29.2216C28.3784 28.3004 29.0462 26.9246 29.5663 26.4045L28.0379 25.0091C27.3935 24.4209 26.4148 24.3216 25.8526 24.9888C24.7402 26.3089 24.0484 28.313 24.8677 29.5891C26.3385 31.8799 28.3657 33.814 30.6567 35.2846Z" stroke="white" stroke-width="1.5" stroke-linecap="round" stroke-linejoin="round"/>
</svg>
