<svg width="81" height="81" viewBox="0 0 81 81" fill="none" xmlns="http://www.w3.org/2000/svg">
<path d="M58.3121 57.5204C58.3121 57.5204 57.6337 58.219 57.2266 58.219C56.5482 58.219 56.0055 57.6601 56.0055 56.9615C56.0055 56.5423 56.1412 56.2629 56.4125 55.9835C56.1412 55.9835 55.7342 55.8438 55.327 55.8438C53.2918 55.8438 51.6636 57.5204 51.6636 59.6162C51.6636 61.712 53.2918 63.3887 55.327 63.3887C57.3624 63.3887 58.9905 61.712 58.9905 59.6162C58.9905 58.7779 58.7191 58.0793 58.3121 57.5204Z" fill="#01D0FF" stroke="#01D0FF" stroke-width="0.5"/>
<path d="M30.2258 65.4846C15.0293 63.9476 3.63189 50.8139 3.63189 35.0255C3.49621 18.259 16.7932 4.56641 33.2109 4.56641C49.6285 4.56641 62.9255 18.259 62.9255 35.1652C62.9255 37.4007 62.6541 39.6363 62.2471 41.8718C62.1114 42.5704 61.433 42.9896 60.8902 42.7101C60.2118 42.5704 59.8048 41.8718 60.0762 41.3129C60.4832 39.3568 60.7545 37.261 60.7545 35.1652C60.4832 19.5165 48.2717 6.94166 33.2109 6.94166C18.15 6.94166 5.80283 19.5165 5.80283 35.1652C5.80283 49.6961 16.3862 61.7121 30.3615 63.249C31.0399 63.249 31.447 63.9476 31.447 64.5065C31.447 65.0654 30.9042 65.6243 30.3615 65.6243L30.2258 65.4846Z" fill="#061014" fill-opacity="0.9" stroke="#061014" stroke-opacity="0.9" stroke-width="0.5"/>
<path d="M33.2107 23.2889C33.2107 23.2889 31.9895 22.73 31.9895 22.0314V15.4645C31.9895 15.4645 32.5323 14.207 33.2107 14.207C33.8891 14.207 34.4319 14.7659 34.4319 15.4645V22.0314C34.4319 22.0314 33.8891 23.2889 33.2107 23.2889Z" fill="#061014"/>
<path d="M42.7085 26.5025C42.7085 26.5025 42.1658 26.5024 41.8945 26.0833C41.4873 25.6641 41.4873 24.8258 41.8945 24.4066L45.8293 20.3547C45.8293 20.3547 47.0503 19.9356 47.4574 20.3547C47.8645 20.7739 47.8645 21.6122 47.4574 22.0314L43.5226 26.0833C43.5226 26.0833 42.9799 26.5025 42.7085 26.5025Z" fill="#061014"/>
<path d="M52.2064 36.283H45.8292C45.8292 36.283 44.6082 35.7242 44.6082 35.0255C44.6082 34.3269 45.1509 33.7681 45.8292 33.7681H52.2064C52.2064 33.7681 53.4275 34.3269 53.4275 35.0255C53.4275 35.7242 52.8848 36.283 52.2064 36.283Z" fill="#061014"/>
<path d="M43.6584 47.0415C43.6584 47.0415 43.1157 47.0415 42.8444 46.762L41.8945 45.784C41.8945 45.784 41.4875 44.5265 41.8945 44.1073C42.3016 43.6882 43.1157 43.6882 43.5227 44.1073L44.4726 45.0854C44.4726 45.0854 44.8796 46.3429 44.4726 46.762C44.2011 47.0415 43.9298 47.1812 43.6584 47.1812V47.0415Z" fill="#061014"/>
<path d="M33.2107 53.888C33.2107 53.888 31.9895 53.3291 31.9895 52.6305V48.1594C31.9895 48.1594 32.5323 46.9019 33.2107 46.9019C33.8891 46.9019 34.4319 47.4608 34.4319 48.1594V52.6305C34.4319 52.6305 33.8891 53.888 33.2107 53.888Z" fill="#061014"/>
<path d="M19.6424 50.2551C19.6424 50.2551 19.0996 50.2551 18.8283 49.9756C18.4212 49.5565 18.4212 48.7181 18.8283 48.299L22.7631 44.2471C22.7631 44.2471 23.9842 43.8279 24.3913 44.2471C24.7983 44.6662 24.7983 45.5046 24.3913 45.9237L20.4565 49.9756C20.4565 49.9756 19.9137 50.2551 19.6424 50.2551Z" fill="#061014"/>
<path d="M20.4564 36.283H14.0793C14.0793 36.283 12.8582 35.7242 12.8582 35.0255C12.8582 34.3269 13.4009 33.7681 14.0793 33.7681H20.4564C20.4564 33.7681 21.6776 34.3269 21.6776 35.0255C21.6776 35.7242 21.1349 36.283 20.4564 36.283Z" fill="#061014"/>
<path d="M23.5771 26.5026C23.5771 26.5026 23.0344 26.5026 22.7629 26.0834L18.8281 22.0315C18.8281 22.0315 18.4211 20.7741 18.8281 20.3549C19.2352 19.9357 20.0493 19.9357 20.4563 20.3549L24.3911 24.4068C24.3911 24.4068 24.7983 25.6643 24.3911 26.0834C24.1198 26.3629 23.8484 26.5026 23.5771 26.5026Z" fill="#061014"/>
<path d="M29.412 60.5943C29.412 60.5943 29.412 60.5943 29.2762 60.5943C23.9846 59.756 19.2357 57.241 15.5722 53.3289C5.80302 43.269 5.80303 26.9217 15.4365 16.8618C20.1855 11.9716 26.4269 9.31689 33.0753 9.31689C39.7238 9.31689 45.9652 11.9716 50.7142 16.8618C56.9556 23.2889 59.5336 32.9297 57.227 41.7321C57.0913 42.4307 56.4129 42.7101 55.8702 42.5704C55.1917 42.4307 54.9204 41.7321 55.056 41.1732C57.0913 33.0694 54.9204 24.4067 49.2217 18.5384C44.8798 14.0674 39.1811 11.6921 33.2111 11.6921C27.2409 11.6921 21.4066 14.0674 17.2004 18.5384C8.38101 27.6203 8.38101 42.4307 17.2004 51.5125C20.5925 55.0055 24.9344 57.241 29.6833 58.0794C30.3617 58.0794 30.7687 58.778 30.633 59.4766C30.633 60.0354 30.0903 60.4546 29.5476 60.4546L29.412 60.5943Z" fill="#061014" stroke="#061014" stroke-opacity="0.9" stroke-width="0.5"/>
<path d="M33.2107 40.1952C33.2107 40.1952 31.9895 39.6363 31.9895 38.9377V35.0255C31.9895 35.0255 31.9895 34.4666 32.2609 34.1872L36.7385 29.5764C36.7385 29.5764 37.9597 29.1573 38.3667 29.5764C38.7737 29.9956 38.7737 30.8339 38.3667 31.2531L34.2962 35.4447V38.9377C34.2962 38.9377 33.7534 40.1952 33.075 40.1952H33.2107Z" fill="#01D0FF" stroke="#01D0FF" stroke-width="0.5"/>
<path d="M55.3276 74.5665C40.2667 74.5665 32.9398 61.7122 32.1257 60.1752C31.99 59.7561 31.99 59.3369 32.1257 59.0575C32.9398 57.5205 40.2667 44.6663 55.3276 44.6663C70.3884 44.6663 77.7153 57.5205 78.5294 59.0575C78.6651 59.4766 78.6651 59.8958 78.5294 60.1752C77.7153 61.7122 70.3884 74.5665 55.3276 74.5665ZM34.5681 59.6164C36.1962 62.4108 42.8447 72.1912 55.3276 72.1912C67.8104 72.1912 74.4589 62.4108 76.0871 59.6164C74.4589 56.8219 67.8104 47.0415 55.3276 47.0415C42.8447 47.0415 36.1962 56.8219 34.5681 59.6164Z" fill="#061014" fill-opacity="0.9" stroke="#061014" stroke-opacity="0.9" stroke-width="0.5"/>
<path d="M55.3274 69.9556C49.9001 69.9556 45.4225 65.3448 45.2869 59.756C45.2869 54.0274 49.9001 49.5564 55.3274 49.5564C60.7547 49.5564 65.2323 54.1672 65.368 59.756C65.368 65.4845 60.7547 69.9556 55.3274 69.9556ZM55.3274 51.9316C51.1212 51.9316 47.7291 55.4247 47.5935 59.756C47.5935 64.0873 51.1212 67.5803 55.3274 67.5803C59.5337 67.5803 62.9257 64.0873 63.0613 59.756C63.0613 55.4247 59.5337 51.9316 55.3274 51.9316Z" fill="#061014" fill-opacity="0.9" stroke="#061014" stroke-opacity="0.9" stroke-width="0.5"/>
</svg>
