<svg width="44" height="24" viewBox="0 0 44 24" fill="none" xmlns="http://www.w3.org/2000/svg">
<g id="IllustartorAsset 1Macular-hole 1" clip-path="url(#clip0_12845_499)">
<g id="&#208;&#161;&#208;&#187;&#208;&#190;&#208;&#185; 1">
<g id="Group">
<path id="Vector" d="M26.004 11.9008C26.004 14.1422 24.1894 15.9568 21.948 15.9568C21.2915 15.9568 20.6695 15.8005 20.1208 15.5223C20.4772 15.3988 20.8023 15.1706 21.0383 14.8409C21.6479 13.9953 21.4588 12.8152 20.6116 12.2103C19.7692 11.6007 18.5891 11.793 17.9811 12.6386C17.9748 12.648 17.9686 12.6542 17.9655 12.662C17.917 12.4166 17.8936 12.1603 17.8936 11.8993C17.8936 9.66104 19.7082 7.84326 21.9464 7.84326C24.1847 7.84326 26.0024 9.66104 26.0024 11.8993L26.004 11.9008Z" fill="#003E79"/>
<path id="Vector_2" d="M21.9023 3.76795e-05C12.3226 0.0156678 3.77607 4.86568 0.5 12.0008C3.78544 19.1594 12.3617 24.0016 21.9476 24.0016H21.9929C31.5726 23.986 40.1191 19.1391 43.3952 12.0008C40.1035 4.83286 31.5054 -0.0155924 21.9023 3.76795e-05ZM28.878 6.88509C29.1453 6.64751 29.4547 6.44432 29.7814 6.27864C30.3785 5.98792 31.0568 5.81912 31.7195 5.88008C32.3697 5.93634 33.0247 6.24269 33.3013 6.82726C33.5139 7.43996 33.281 8.11362 32.8637 8.61847C32.4401 9.13113 31.8461 9.49375 31.2256 9.7157C30.913 9.82042 30.5926 9.89232 30.2753 9.92514C29.9518 9.95796 29.6298 9.94859 29.3281 9.89232C28.7248 9.78447 28.2278 9.46562 28.0465 9.0311C27.8605 8.59971 27.9808 8.01671 28.3247 7.51029C28.4779 7.28209 28.667 7.07265 28.8796 6.88353L28.878 6.88509ZM21.9476 20.4567C17.2226 20.4567 13.3948 16.6258 13.3948 11.9008C13.3948 7.17581 17.2226 3.34488 21.9476 3.34488C24.4218 3.34488 26.6523 4.39522 28.2121 6.07545C27.9183 6.28802 27.6448 6.54592 27.4119 6.84914C27.1509 7.19457 26.9383 7.59626 26.8304 8.05578C26.7289 8.51218 26.7492 9.0311 26.9414 9.49531C27.1368 9.96109 27.4932 10.3378 27.8902 10.5847C28.2887 10.8364 28.7295 10.963 29.1593 11.0192C29.6001 11.074 30.0346 11.0489 30.4551 10.9677C30.4879 11.274 30.5066 11.5851 30.5066 11.9008C30.5066 16.6258 26.6757 20.4567 21.9507 20.4567H21.9476Z" fill="#003E79"/>
<path id="Vector_3" d="M26.004 11.9008C26.004 14.1422 24.1894 15.9568 21.948 15.9568C21.2915 15.9568 20.6695 15.8005 20.1208 15.5223C20.4772 15.3988 20.8023 15.1706 21.0383 14.8409C21.6479 13.9953 21.4588 12.8152 20.6116 12.2103C19.7692 11.6007 18.5891 11.793 17.9811 12.6386C17.9748 12.648 17.9686 12.6542 17.9655 12.662C17.917 12.4166 17.8936 12.1603 17.8936 11.8993C17.8936 9.66104 19.7082 7.84326 21.9464 7.84326C24.1847 7.84326 26.0024 9.66104 26.0024 11.8993L26.004 11.9008Z" fill="#003E79"/>
</g>
</g>
</g>
<defs>
<clipPath id="clip0_12845_499">
<rect width="42.8936" height="24" fill="white" transform="translate(0.5)"/>
</clipPath>
</defs>
</svg>
