<svg width="32" height="30" viewBox="0 0 32 30" fill="none" xmlns="http://www.w3.org/2000/svg">
<g clip-path="url(#clip0_1_298)">
<path d="M27.851 20.5746C27.524 20.9194 27.048 21.118 26.547 21.118C26.049 21.118 25.572 20.9203 25.246 20.5746C24.213 19.4861 22.703 18.7975 21.002 18.7975C19.316 18.7975 17.818 19.4714 16.786 20.5415C16.458 20.8817 15.989 21.0757 15.494 21.0757C15 21.0757 14.529 20.8826 14.2 20.5425C13.166 19.4723 11.672 18.7975 9.985 18.7975C8.3 18.7975 6.802 19.4714 5.771 20.5425C5.441 20.8826 4.972 21.0757 4.476 21.0757C3.984 21.0757 3.511 20.8826 3.184 20.5434C2.369 19.6976 1.259 19.1147 0 18.8996V22.0382C0.27 22.1614 0.519 22.3278 0.728 22.5457C1.679 23.5294 3.044 24.0939 4.477 24.0939C5.909 24.0939 7.276 23.5303 8.224 22.5439C8.68 22.0732 9.307 21.8139 9.986 21.8139C10.667 21.8139 11.293 22.0732 11.746 22.5448C12.696 23.5294 14.062 24.0948 15.495 24.0948C16.926 24.0948 18.293 23.5294 19.241 22.5448C19.696 22.0732 20.323 21.8139 21.004 21.8139C21.93 21.8139 22.511 22.2809 22.775 22.5577C23.725 23.5597 25.1 24.1352 26.553 24.1352C28.001 24.1334 29.377 23.5588 30.325 22.5577C30.513 22.36 30.87 22.0713 31.39 21.9196V18.8683C29.982 19.032 28.738 19.6415 27.851 20.5746Z" fill="#1E1E1E"/>
<path d="M24.374 17.6282C26.6091 17.6282 28.421 15.9624 28.421 13.9076C28.421 11.8528 26.6091 10.187 24.374 10.187C22.1389 10.187 20.327 11.8528 20.327 13.9076C20.327 15.9624 22.1389 17.6282 24.374 17.6282Z" fill="#1E1E1E"/>
<path d="M15.018 19.8759C15.258 20.1223 15.726 20.1241 15.967 19.875C17.002 18.804 18.403 18.1108 19.916 17.8819C20.02 17.3146 19.988 16.7171 19.766 16.137C19.649 15.8327 18.362 11.8584 18.362 11.8584C18.36 11.8501 18.206 11.0309 18.753 10.2946C19.295 9.56552 20.43 9.06539 22.03 8.84475C22.926 8.72156 23.544 7.95483 23.411 7.1311C23.28 6.30737 22.452 5.7383 21.545 5.86149C18.983 6.21268 17.13 7.1311 16.044 8.59009C14.692 10.4058 15.108 12.3125 15.169 12.5525L15.517 13.8487C15.305 13.8827 15.091 13.9223 14.883 13.9903L8.263 16.1388C6.779 16.6205 5.825 17.8561 5.72 19.2103C6.915 18.3057 8.42 17.7918 9.988 17.7918C11.907 17.7899 13.741 18.5512 15.018 19.8759Z" fill="#1E1E1E"/>
</g>
<defs>
<clipPath id="clip0_1_298">
<rect width="31.39" height="28.8581" fill="white" transform="translate(0 0.560547)"/>
</clipPath>
</defs>
</svg>
