<svg width="57" height="57" viewBox="0 0 57 57" fill="none" xmlns="http://www.w3.org/2000/svg">
<path d="M28.1536 0C12.609 0 0 12.6018 0 28.1536C0 43.6982 12.6018 56.3072 28.1536 56.3072C43.6982 56.3072 56.3072 43.7054 56.3072 28.1536C56.3072 12.609 43.7054 0 28.1536 0Z" fill="white"/>
<g clip-path="url(#clip0_12816_1424)">
<path d="M32.8701 21.2295V22.3309C32.8701 22.5357 32.7035 22.7022 32.4988 22.7022H32.3682C32.1093 22.7022 31.8994 22.9121 31.8994 23.1709C31.8994 23.4298 32.1093 23.6397 32.3682 23.6397H32.4988C33.2205 23.6397 33.8076 23.0526 33.8076 22.3309V21.2295C33.8076 20.9706 33.5977 20.7607 33.3389 20.7607C33.08 20.7607 32.8701 20.9706 32.8701 21.2295Z" fill="#003E79"/>
<path d="M40.6921 30.6898L37.5924 29.9149C37.6594 29.723 37.6122 29.5074 37.4654 29.3604L36.6772 28.5722C36.5597 28.4546 36.3976 28.4024 36.2407 28.4191C36.2365 28.3709 36.2344 28.3223 36.2344 28.2734V27.3361C36.6768 27.0036 37.0725 26.6045 37.4043 26.1474C37.5564 25.9378 37.5099 25.6448 37.3003 25.4926C37.0907 25.3405 36.7976 25.3871 36.6456 25.5966C35.7662 26.8081 34.3486 27.5313 32.8534 27.5313C30.3739 27.5313 28.3347 25.5882 28.1803 23.1466L28.1783 23.1166C28.1783 23.1165 28.1783 23.1165 28.1783 23.1164L28.0837 21.6337L29.4204 18.069C29.4819 17.9052 29.6054 17.7798 29.7681 17.7158C29.9311 17.6518 30.1072 17.6597 30.264 17.7381C31.8854 18.5488 33.8214 18.5488 35.4428 17.7381C35.5994 17.6598 35.7754 17.6519 35.9384 17.7159C36.1014 17.7798 36.2251 17.9054 36.2866 18.0694L37.6231 21.6336L37.5266 23.1466C37.5122 23.3727 37.4813 23.5992 37.4349 23.8194C37.3815 24.0728 37.5436 24.3214 37.7969 24.3748C38.052 24.4283 38.2992 24.2648 38.3523 24.0128C38.3816 23.874 38.4056 23.7333 38.4244 23.5917C39.9237 23.4048 41.0878 22.1223 41.0878 20.5731C41.0878 19.5926 40.2901 18.7948 39.3095 18.7948H38.7437L38.7746 18.3109C38.8801 16.6576 38.3139 15.0817 37.1804 13.8735C36.0468 12.6653 34.5102 12 32.8535 12C32.4646 12 32.0823 12.0367 31.7103 12.1084C31.621 12.0404 31.5096 12 31.3891 12H12.5311C12.2382 12 12 12.2383 12 12.5311V14.1321C12 14.425 12.2382 14.6632 12.5311 14.6632H12.8628V34.8404C12.8628 35.1333 13.1011 35.3715 13.3939 35.3715H20.4026C20.2714 35.6179 20.1971 35.8989 20.1971 36.1971C20.1971 37.0833 20.8544 37.8188 21.7071 37.9419V43.4688C21.7071 43.7617 21.9454 43.9999 22.2383 43.9999H43.4688C43.7617 43.9999 44 43.7616 44 43.4688V34.9265C44 32.9189 42.6397 31.1768 40.6921 30.6898ZM36.7484 35.1124L37.4263 36.468L33.8739 38.8365L36.9833 31.3046L38.2624 33.8313L36.9581 34.4834C36.8469 34.5391 36.7623 34.6365 36.723 34.7544C36.6837 34.8725 36.6929 35.0013 36.7484 35.1124ZM32.8535 38.8514L32.467 37.9153C32.3681 37.6759 32.094 37.5619 31.8548 37.6609C31.6155 37.7597 31.5016 38.0338 31.6004 38.2731L31.833 38.8366L28.2807 36.4681L28.9585 35.1125C29.0742 34.881 28.9804 34.5994 28.7489 34.4836L27.4446 33.8314L28.7236 31.3048L30.75 36.2129C30.8488 36.4522 31.1229 36.5664 31.3622 36.4673C31.6015 36.3685 31.7154 36.0944 31.6166 35.8551L30.6403 33.4903L32.8536 32.0148L35.0668 33.4903L32.8535 38.8514ZM29.4461 29.4818C29.5457 29.5564 31.9501 31.3598 32.0422 31.4289L30.4468 32.4925C30.0214 31.6418 29.5267 30.6524 29.1096 29.8183L29.4461 29.4818ZM36.5233 29.9664C36.5216 29.9698 36.5199 29.9731 36.5182 29.9766L35.2603 32.4926L33.6648 31.4289C33.7564 31.3603 36.1626 29.5556 36.2609 29.4818L36.5974 29.8183L36.5233 29.9664ZM35.2968 27.9074V28.2734C35.2968 28.5089 35.3279 28.7398 35.3894 28.9634L32.8534 30.8654L30.3175 28.9634C30.3791 28.7398 30.4101 28.5089 30.4101 28.2734V27.9078C31.9423 28.6515 33.7391 28.6603 35.2968 27.9074ZM22.3541 22.8229C22.3541 23.0403 22.1774 23.217 21.9601 23.217C21.7989 23.217 21.66 23.1198 21.599 22.9808C21.8044 22.8439 21.981 22.6673 22.1179 22.4619C22.2569 22.5229 22.3541 22.6618 22.3541 22.8229ZM20.5714 22.3542C20.0641 22.3542 19.6514 21.9415 19.6514 21.4343C19.6514 20.927 20.0641 20.5143 20.5714 20.5143C21.0786 20.5143 21.4913 20.927 21.4913 21.4343C21.4913 21.9415 21.0786 22.3542 20.5714 22.3542ZM18.4849 24.6359C17.4611 23.9544 16.7325 23.1641 16.4654 22.8229C16.7325 22.4818 17.4611 21.6914 18.4849 21.0099C18.2008 21.5524 18.0399 22.1693 18.0399 22.8229C18.0399 23.4766 18.2008 24.0934 18.4849 24.6359ZM18.9774 22.8229C18.9774 22.6894 18.9863 22.558 19.0034 22.4291C19.3636 22.9948 20.0097 23.3391 20.7117 23.2864C20.9003 23.7928 21.3887 24.1545 21.9601 24.1545C22.6943 24.1545 23.2917 23.5571 23.2917 22.8229C23.2917 22.2515 22.93 21.7631 22.4236 21.5744C22.4762 20.8743 22.1334 20.2273 21.5662 19.8661C21.6951 19.8491 21.8266 19.8402 21.9601 19.8402C23.6047 19.8402 24.9427 21.1782 24.9427 22.8229C24.9427 24.4675 23.6047 25.8055 21.9601 25.8055C20.3155 25.8055 18.9774 24.4676 18.9774 22.8229ZM16.3889 17.1771V16.3889H27.1198C27.0508 16.6468 26.9994 16.9099 26.966 17.1771H16.3889ZM27.2078 22.6286C26.2646 22.4207 25.5566 21.5781 25.5566 20.5733C25.5566 20.1096 25.9338 19.7324 26.3974 19.7324H27.023C27.0512 20.175 27.1819 22.2226 27.2078 22.6286ZM25.8746 23.034C26.1629 23.2439 26.4894 23.4044 26.8415 23.5031C26.4623 23.875 25.9838 24.277 25.4334 24.6394C25.6878 24.1549 25.8438 23.6108 25.8746 23.034ZM39.3096 19.7324C39.7732 19.7324 40.1504 20.1096 40.1504 20.5733C40.1504 21.5781 39.4425 22.4207 38.4992 22.6286C38.5251 22.2226 38.6558 20.175 38.684 19.7324H39.3096ZM36.4967 14.5151C37.4511 15.5323 37.9278 16.8592 37.839 18.2513L37.7687 19.3518L37.1644 17.7403C37.0107 17.3303 36.6887 17.0033 36.2812 16.8433C35.8822 16.6867 35.4236 16.6996 35.0236 16.8996C33.6647 17.5789 32.0422 17.5789 30.6834 16.8996C30.2916 16.7037 29.8331 16.6831 29.4256 16.8432C29.0182 17.0032 28.6964 17.3299 28.5427 17.7398L27.9382 19.3518L27.8679 18.2513C27.6857 15.3944 29.9414 12.9376 32.8535 12.9376C34.2484 12.9376 35.5422 13.4978 36.4967 14.5151ZM13.8004 14.6632H17.2144C17.4733 14.6632 17.6832 14.4533 17.6832 14.1944C17.6832 13.9356 17.4733 13.7257 17.2144 13.7257H12.9376V12.9376H29.6458C29.2978 13.1624 28.9709 13.4259 28.6701 13.7257H19.402C19.1431 13.7257 18.9332 13.9356 18.9332 14.1944C18.9332 14.4533 19.1431 14.6632 19.402 14.6632H27.9001C27.7321 14.9158 27.5849 15.1791 27.4591 15.4514H15.9674C15.6829 15.4514 15.4514 15.6828 15.4514 15.9674V17.5986C15.4514 17.8832 15.6829 18.1146 15.9674 18.1146H26.9229C26.928 18.2741 26.9351 18.3429 26.9632 18.7949H26.3974C25.7651 18.7949 25.2088 19.1266 24.8934 19.6253C23.9179 19.1509 22.9443 18.9083 21.9924 18.9029C20.3244 18.8893 18.7169 19.6329 17.4053 20.631C16.7745 21.1111 16.3193 21.566 16.0484 21.863C15.4514 22.5178 15.4514 22.7088 15.4514 22.8229C15.4514 22.9371 15.4514 23.1281 16.0484 23.7828C16.3193 24.0799 16.7745 24.5348 17.4053 25.0148C18.7217 26.0166 20.3054 26.7431 21.9601 26.7431C24.1987 26.7431 26.2138 25.3939 27.4116 24.2534C27.7345 25.5026 28.476 26.5803 29.4726 27.3333V28.2734C29.4726 28.3223 29.4705 28.3709 29.4663 28.4191C29.3094 28.4024 29.1473 28.4546 29.03 28.5719L28.2412 29.3608C28.0948 29.5073 28.0476 29.7228 28.1146 29.9149L25.0148 30.6899C23.2284 31.1365 21.9362 32.6392 21.7345 34.4341H13.8004V14.6632ZM21.1346 36.1971C21.1346 35.8301 21.3752 35.5183 21.707 35.4112V36.9828C21.3752 36.8758 21.1346 36.564 21.1346 36.1971ZM22.6446 34.9208C22.6472 33.3466 23.7146 31.9813 25.2423 31.5994L27.8542 30.9464L26.3954 33.8283C26.2781 34.06 26.3716 34.3431 26.604 34.4593L27.9104 35.1125L27.2572 36.4189C27.1514 36.6304 27.2197 36.8874 27.4164 37.0186L32.3848 40.3312V43.0625H29.8709V39.2171C29.8709 38.9581 29.661 38.7483 29.4021 38.7483H26.4195V37.7071C26.4195 37.4481 26.2096 37.2383 25.9508 37.2383C25.6919 37.2383 25.482 37.4482 25.482 37.7071V43.0625H22.6446C22.6446 41.4304 22.6446 36.3158 22.6446 34.9208ZM28.9333 40.0386C28.9333 40.2786 28.738 40.4739 28.498 40.4739H26.4195V39.6858H28.9333V40.0386ZM26.4195 41.4114H28.498C28.6501 41.4114 28.7965 41.3866 28.9333 41.3407V43.0624H26.4195V41.4114ZM39.2875 40.4739H37.209C36.969 40.4739 36.7737 40.2787 36.7737 40.0386V39.6858H39.2875V40.4739ZM36.7737 41.3407C36.9106 41.3866 37.0569 41.4114 37.209 41.4114H39.2875V43.0624H36.7737V41.3407ZM43.0624 43.0624H40.225V37.707C40.225 37.4481 40.0151 37.2383 39.7563 37.2383C39.4974 37.2383 39.2875 37.4481 39.2875 37.707V38.7483H36.3049C36.046 38.7483 35.8361 38.9581 35.8361 39.217V43.0624H33.3223V40.3311L38.2906 37.0185C38.4873 36.8873 38.5556 36.6303 38.4498 36.4188L37.7966 35.1124L39.103 34.4592C39.3353 34.343 39.4289 34.06 39.3116 33.8282L37.8528 30.9464L40.4648 31.5994C41.9943 31.9817 43.0625 33.3499 43.0625 34.9265V43.0624H43.0624Z" fill="#003E79"/>
<path d="M26.7427 28C26.7427 27.7411 26.5328 27.5312 26.2739 27.5312H17.6455C17.3866 27.5312 17.1768 27.7411 17.1768 28C17.1768 28.2589 17.3866 28.4688 17.6455 28.4688H26.2739C26.5328 28.4688 26.7427 28.2589 26.7427 28Z" fill="#003E79"/>
<path d="M24.5482 30.1943C24.807 30.1943 25.0169 29.9845 25.0169 29.7256C25.0169 29.4666 24.807 29.2568 24.5482 29.2568H19.3711C19.1122 29.2568 18.9023 29.4667 18.9023 29.7256C18.9023 29.9845 19.1122 30.1943 19.3711 30.1943H24.5482Z" fill="#003E79"/>
</g>
<defs>
<clipPath id="clip0_12816_1424">
<rect width="32" height="32" fill="white" transform="translate(12 12)"/>
</clipPath>
</defs>
</svg>
