<svg width="71" height="71" viewBox="0 0 71 71" fill="none" xmlns="http://www.w3.org/2000/svg">
<circle cx="35.5" cy="35.5" r="35.5" fill="#003E79"/>
<g clip-path="url(#clip0_13823_26595)">
<path d="M51.6466 26.0586C49.7977 26.0586 48.2937 27.5627 48.2937 29.4115V35.2307C47.0637 34.758 45.5925 35.0027 44.5737 36.0216L38.7539 41.8413C37.6984 42.8968 37.1172 44.3001 37.1172 45.7927V53.9998H48.2937V52.8072C48.2937 51.7126 48.7199 50.6835 49.4939 49.9095L53.0069 46.3965C54.2918 45.1116 54.9995 43.4031 54.9995 41.5859V29.4115C54.9995 27.5627 53.4955 26.0586 51.6466 26.0586ZM52.7642 41.5859C52.7642 42.8061 52.2891 43.9532 51.4264 44.8159L47.9134 48.3289C46.9668 49.2756 46.3566 50.4693 46.1433 51.7645H39.3525V45.7927C39.3525 44.8971 39.7013 44.0551 40.3345 43.4218L46.1543 37.6022C46.644 37.1124 47.4368 37.1123 47.9266 37.6022C48.4153 38.0908 48.4153 38.8859 47.9266 39.3745L43.0327 44.2683L44.6133 45.8489L49.5072 40.9551C50.2217 40.2406 50.5608 39.2907 50.5247 38.3528H50.529V29.4115C50.529 28.7953 51.0303 28.2939 51.6466 28.2939C52.2629 28.2939 52.7642 28.7953 52.7642 29.4115V41.5859Z" fill="white"/>
<path d="M27.4259 36.0215C26.4048 35.0004 24.9314 34.7596 23.7059 35.2306V29.4115C23.7059 27.5627 22.2018 26.0586 20.3529 26.0586C18.5041 26.0586 17 27.5627 17 29.4115V41.5859C17 43.4031 17.7077 45.1116 18.9926 46.3965L22.5055 49.9096C23.2796 50.6835 23.7059 51.7126 23.7059 52.8072V53.9998H34.8824V45.7927C34.8824 44.3001 34.3011 42.8968 33.2456 41.8413L27.4259 36.0215ZM32.6471 51.7645H25.8562C25.6429 50.4692 25.0328 49.2756 24.0861 48.3289L20.5732 44.8158C19.7104 43.9532 19.2353 42.8061 19.2353 41.5859V29.4115C19.2353 28.7953 19.7367 28.2939 20.3529 28.2939C20.9692 28.2939 21.4706 28.7953 21.4706 29.4115V38.3527H21.4748C21.4387 39.2907 21.7778 40.2405 22.4923 40.955L27.3862 45.8488L28.9668 44.2683L24.0729 39.3745C23.5843 38.8858 23.5843 38.0907 24.0729 37.6021C24.5626 37.1123 25.3555 37.1122 25.8453 37.6021L31.665 43.4218C32.2983 44.0551 32.6471 44.8971 32.6471 45.7927V51.7645Z" fill="white"/>
<path d="M36.0004 20.4707C34.1515 20.4707 32.6475 21.9748 32.6475 23.8236C32.6475 25.6725 34.1515 27.1766 36.0004 27.1766C37.8493 27.1766 39.3533 25.6725 39.3533 23.8236C39.3533 21.9748 37.8493 20.4707 36.0004 20.4707ZM36.0004 24.9413C35.3841 24.9413 34.8828 24.4399 34.8828 23.8236C34.8828 23.2074 35.3841 22.706 36.0004 22.706C36.6167 22.706 37.118 23.2074 37.118 23.8236C37.118 24.4399 36.6167 24.9413 36.0004 24.9413Z" fill="white"/>
<path d="M48.5707 23.8235C45.5384 19.8124 40.9955 16 35.9997 16C31.0063 16 26.4651 19.8071 23.4287 23.8235C26.461 27.8347 31.0039 31.6471 35.9997 31.6471C40.9931 31.6471 45.5344 27.84 48.5707 23.8235ZM35.9997 29.4118C31.5704 29.4118 27.6691 25.4355 26.269 23.8224C27.6663 22.2079 31.5567 18.2353 35.9997 18.2353C40.4286 18.2353 44.3297 22.2109 45.7304 23.8247C44.333 25.4391 40.4427 29.4118 35.9997 29.4118Z" fill="white"/>
</g>
<defs>
<clipPath id="clip0_13823_26595">
<rect width="38" height="38" fill="white" transform="translate(17 16)"/>
</clipPath>
</defs>
</svg>
