<svg width="40" height="41" viewBox="0 0 40 41" fill="none" xmlns="http://www.w3.org/2000/svg">
<g clip-path="url(#clip0_4576_57559)">
<path d="M19.9999 0.566406C8.97186 0.566406 0 9.53826 0 20.5663C0 31.5944 8.97186 40.5664 19.9999 40.5664C31.028 40.5664 39.9999 31.5944 39.9999 20.5663C39.9998 9.53826 31.028 0.566406 19.9999 0.566406ZM19.9999 39.1367C9.76032 39.1367 1.42961 30.8061 1.42961 20.5663C1.42961 10.3267 9.76032 1.99601 19.9999 1.99601C30.2397 1.99601 38.5704 10.3266 38.5704 20.5662C38.5702 30.8061 30.2396 39.1367 19.9999 39.1367Z" fill="#061014"/>
<path d="M30.7063 23.6697C30.4271 23.3907 29.9745 23.3906 29.6952 23.6697C24.349 29.0158 15.6502 29.0157 10.3045 23.6697C10.0253 23.3907 9.5727 23.3907 9.29352 23.6697C9.01446 23.9489 9.01446 24.4016 9.29352 24.6807C12.2457 27.6327 16.1221 29.1083 20 29.1083C23.8767 29.1083 27.7548 27.6321 30.7063 24.6807C30.9855 24.4015 30.9855 23.9488 30.7063 23.6697Z" fill="#061014"/>
<path d="M23.9208 30.5288C23.8144 30.1487 23.4201 29.9269 23.0398 30.0334C21.0511 30.5909 18.9487 30.5909 16.96 30.0334C16.58 29.9264 16.1853 30.1486 16.0789 30.5287C15.9723 30.9088 16.194 31.3034 16.5741 31.41C17.6948 31.7241 18.8471 31.8811 19.9998 31.8811C21.1522 31.8811 22.3051 31.7241 23.4255 31.41C23.8057 31.3034 24.0274 30.9088 23.9208 30.5288Z" fill="#061014"/>
<path d="M11.4627 13.3998C10.0045 13.3998 8.81799 14.5862 8.81799 16.0445C8.81799 17.5028 10.0045 18.6892 11.4627 18.6892C12.9209 18.6892 14.1074 17.5028 14.1074 16.0445C14.1074 14.5862 12.921 13.3998 11.4627 13.3998Z" fill="#01D0FF"/>
<path d="M28.537 13.3998C27.0788 13.3998 25.8923 14.5862 25.8923 16.0445C25.8923 17.5028 27.0788 18.6892 28.537 18.6892C29.9953 18.6892 31.1817 17.5028 31.1817 16.0445C31.1817 14.5862 29.9954 13.3998 28.537 13.3998Z" fill="#01D0FF"/>
<path d="M12.185 16.3989C12.5799 16.3989 12.8999 16.0788 12.8999 15.684C12.8999 15.2893 12.5799 14.9692 12.185 14.9692C11.7902 14.9692 11.4702 15.2893 11.4702 15.684C11.4702 16.0788 11.7902 16.3989 12.185 16.3989Z" fill="#061014"/>
<path d="M29.245 16.3989C29.6398 16.3989 29.9599 16.0788 29.9599 15.684C29.9599 15.2893 29.6398 14.9692 29.245 14.9692C28.8503 14.9692 28.5302 15.2893 28.5302 15.684C28.5302 16.0788 28.8503 16.3989 29.245 16.3989Z" fill="#061014"/>
</g>
<defs>
<clipPath id="clip0_4576_57559">
<rect width="39.9999" height="40" fill="white" transform="translate(0 0.566406)"/>
</clipPath>
</defs>
</svg>
