<svg width="88" height="88" viewBox="0 0 88 88" fill="none" xmlns="http://www.w3.org/2000/svg">
<circle cx="44" cy="44" r="44" fill="#0099FF"/>
<g clip-path="url(#clip0_14717_21743)">
<path d="M32.5718 44.0001V36.4858C32.5941 35.0088 32.9076 33.5507 33.4945 32.195C34.0813 30.8393 34.9298 29.6128 35.9915 28.5856C37.0531 27.5585 38.3071 26.7509 39.6814 26.2091C41.0557 25.6674 42.5234 25.4022 44.0003 25.4287C45.4773 25.4022 46.945 25.6674 48.3193 26.2091C49.6936 26.7509 50.9475 27.5585 52.0092 28.5856C53.0709 29.6128 53.9195 30.8393 54.5063 32.195C55.0929 33.5507 55.4066 35.0088 55.4289 36.4858V44.0001" stroke="white" stroke-width="3" stroke-linecap="round" stroke-linejoin="round"/>
<path d="M28.2859 39.7144H31.143C31.5219 39.7144 31.8853 39.8649 32.1531 40.1328C32.4211 40.4007 32.5716 40.764 32.5716 41.1429V49.7144C32.5716 50.0932 32.4211 50.4566 32.1531 50.7245C31.8853 50.9924 31.5219 51.1429 31.143 51.1429H28.2859C27.5281 51.1429 26.8014 50.8419 26.2655 50.3061C25.7297 49.7703 25.4287 49.0436 25.4287 48.2858V42.5715C25.4287 41.8137 25.7297 41.087 26.2655 40.5512C26.8014 40.0154 27.5281 39.7144 28.2859 39.7144Z" stroke="white" stroke-width="3" stroke-linecap="round" stroke-linejoin="round"/>
<path d="M59.7144 51.1429H56.8573C56.4784 51.1429 56.115 50.9924 55.847 50.7245C55.5793 50.4566 55.4287 50.0932 55.4287 49.7144V41.1429C55.4287 40.764 55.5793 40.4007 55.847 40.1328C56.115 39.8649 56.4784 39.7144 56.8573 39.7144H59.7144C60.4721 39.7144 61.199 40.0154 61.7347 40.5512C62.2704 41.087 62.5716 41.8137 62.5716 42.5715V48.2858C62.5716 49.0436 62.2704 49.7703 61.7347 50.3061C61.199 50.8419 60.4721 51.1429 59.7144 51.1429Z" stroke="white" stroke-width="3" stroke-linecap="round" stroke-linejoin="round"/>
<path d="M49.7144 59C51.2299 59 52.6832 58.398 53.7549 57.3263C54.8266 56.2546 55.4286 54.8012 55.4286 53.2857V46.8572" stroke="white" stroke-width="3" stroke-linecap="round" stroke-linejoin="round"/>
<path d="M49.7142 59C49.7142 59.9472 49.3379 60.8557 48.6682 61.5254C47.9984 62.1952 47.09 62.5714 46.1428 62.5714H41.8571C40.9099 62.5714 40.0015 62.1952 39.3317 61.5254C38.6619 60.8557 38.2856 59.9472 38.2856 59C38.2856 58.0529 38.6619 57.1443 39.3317 56.4746C40.0015 55.8049 40.9099 55.4286 41.8571 55.4286H46.1428C47.09 55.4286 47.9984 55.8049 48.6682 56.4746C49.3379 57.1443 49.7142 58.0529 49.7142 59Z" stroke="white" stroke-width="3" stroke-linecap="round" stroke-linejoin="round"/>
</g>
<defs>
<clipPath id="clip0_14717_21743">
<rect width="40" height="40" fill="white" transform="translate(24 24)"/>
</clipPath>
</defs>
</svg>
