<svg width="81" height="81" viewBox="0 0 81 81" fill="none" xmlns="http://www.w3.org/2000/svg">
<path d="M56.2316 40.135C56.2316 40.135 55.0864 39.6321 55.0864 39.0035C55.0864 38.3749 55.5954 37.872 56.1043 37.872C56.486 37.872 60.3031 37.6205 60.3031 33.2201C60.3031 32.5915 60.8121 32.0886 61.4483 32.0886C62.0844 32.0886 62.5934 32.5915 62.5934 33.2201C62.5934 38.5006 58.3946 40.0093 56.2316 40.0093V40.135Z" fill="black"/>
<path d="M48.4702 52.7075H30.7843C30.7843 52.7075 30.4026 52.7075 30.1481 52.5818C25.5676 49.6901 22.5139 44.6611 22.2594 39.3806C21.8777 34.6031 23.5318 29.9512 26.84 26.5566C30.1481 23.1621 34.7286 21.1505 39.5636 21.1505C40.327 21.1505 41.0905 21.1505 41.9811 21.2762L46.5616 18.3845C47.325 17.8816 48.2157 17.8816 48.9791 18.3845C49.7425 18.7617 50.2515 19.516 50.2515 20.3961L52.0328 20.5218C52.4145 20.5218 52.7962 20.7733 53.0507 21.0247L54.1958 22.7849L54.7048 22.1563C54.7048 22.1563 55.2137 21.7791 55.5954 21.7791H56.6133C60.0487 21.7791 62.9751 24.545 62.9751 28.0653V32.4657H70.2276C70.2276 32.4657 71.3728 32.9686 71.3728 33.5973C71.3728 34.2259 70.8638 34.7288 70.2276 34.7288H61.9573C61.9573 34.7288 60.8121 34.2259 60.8121 33.5973V28.0653C60.8121 25.8023 59.0308 24.0421 56.7406 24.0421H56.2316L55.8499 24.545C55.8499 24.545 55.5954 24.7965 55.4682 24.7965C54.4503 25.4251 53.0507 25.0479 52.4145 24.0421L51.6511 22.7849H50.1242C49.1064 22.7849 48.3429 22.0305 48.3429 21.0247V20.3961L43.3807 23.5392C43.3807 23.5392 42.8718 23.7907 42.6173 23.665C41.7266 23.5392 40.836 23.4135 40.0726 23.4135C35.8738 23.4135 31.9294 25.1737 29.003 28.1911C26.0765 31.2085 24.6769 35.2317 24.9314 39.3806C25.1859 43.9067 27.7306 48.0557 31.5477 50.6959H48.5974C54.1958 48.0557 60.4304 47.427 66.0288 48.81C67.8101 49.3129 69.4642 49.8158 70.7366 50.5702C71.2455 50.8216 71.5 51.576 71.2455 52.0789C70.9911 52.5818 70.2276 52.8332 69.7187 52.5818C68.5736 51.9532 67.0467 51.4503 65.3926 51.0731C60.1759 49.8158 54.4503 50.4445 49.2336 52.959C49.1064 52.959 48.9791 52.959 48.7246 52.959L48.4702 52.7075Z" fill="#061014"/>
<path d="M69.8459 61.1312H27.6033C24.6769 61.1312 22.2594 58.7425 22.2594 55.8508C22.2594 52.9591 24.6769 50.5703 27.6033 50.5703H44.5258C44.5258 50.5703 45.6709 51.0732 45.6709 51.7018C45.6709 52.3305 45.162 52.8334 44.5258 52.8334H27.6033C25.822 52.8334 24.4224 54.2163 24.4224 55.9765C24.4224 57.7367 25.822 59.1196 27.6033 59.1196H69.9731C69.9731 59.1196 71.1182 59.6225 71.1182 60.2512C71.1182 60.8798 70.6093 61.3827 69.9731 61.3827L69.8459 61.1312Z" fill="#061014" fill-opacity="0.9"/>
<path d="M40.4543 71.5664C22.2594 71.5664 7.5 56.9823 7.5 39.0035C7.5 21.0248 22.2594 6.56641 40.4543 6.56641C54.3231 6.56641 66.665 15.2414 71.3728 28.0654C71.6272 28.6941 71.3728 29.3227 70.7366 29.4484C70.1004 29.6999 69.4642 29.4484 69.337 28.8198C64.8837 16.8759 53.3052 8.82947 40.4543 8.82947C23.5318 8.82947 9.79026 22.4078 9.79026 39.1293C9.79026 55.8507 23.5318 69.4291 40.4543 69.4291C49.1064 69.4291 57.3767 65.783 63.1024 59.4968C63.4841 58.9939 64.2475 58.9939 64.6292 59.4968C65.1382 59.8739 65.1382 60.6283 64.6292 61.0055C58.3946 67.7946 49.4881 71.6921 40.327 71.6921L40.4543 71.5664Z" fill="#061014"/>
<path d="M40.4543 65.6573C31.4205 65.6573 23.1502 61.2569 18.0607 53.8391C17.679 53.3362 17.8062 52.5818 18.3152 52.3304C18.8241 51.9532 19.5875 52.0789 19.842 52.5818C24.4225 59.371 32.0567 63.3942 40.3271 63.3942C45.4165 63.3942 50.2515 61.8855 54.3231 58.9938C54.8321 58.6167 55.4682 58.7424 55.8499 59.2453C56.2317 59.7482 56.1044 60.3768 55.5955 60.754C51.1422 63.8971 45.7983 65.5315 40.3271 65.5315L40.4543 65.6573Z" fill="#01D0FF"/>
<path d="M44.3986 14.9899C44.3986 14.9899 44.3986 14.9899 44.2713 14.9899C43.7624 14.9899 43.1262 14.8642 42.6173 14.7385C41.9811 14.7385 41.5994 14.1099 41.5994 13.4812C41.5994 12.8526 42.2355 12.3497 42.8717 12.4754C43.5079 12.4754 44.1441 12.6012 44.7803 12.7269C45.4165 12.7269 45.7982 13.3555 45.6709 13.9841C45.6709 14.487 45.162 14.8642 44.5258 14.8642L44.3986 14.9899Z" fill="#01D0FF"/>
<path d="M15.5158 46.7986C15.5158 46.7986 14.6252 46.4215 14.3707 45.9186C14.1162 44.787 13.8618 43.6555 13.7345 42.524C13.7345 41.8953 14.1162 41.3924 14.7524 41.2667C15.3886 41.2667 15.8976 41.6439 16.0248 42.2725C16.152 43.2783 16.4065 44.2841 16.661 45.2899C16.7882 45.9185 16.4065 46.5472 15.8976 46.6729H15.6431L15.5158 46.7986ZM14.7524 37.1178C14.7524 37.1178 14.7524 37.1178 14.6252 37.1178C13.989 37.1178 13.6073 36.4891 13.6073 35.8605C13.7345 34.729 13.989 33.5975 14.2435 32.4659C14.3707 31.8373 15.0069 31.4601 15.6431 31.7116C16.2793 31.8373 16.661 32.4659 16.4065 33.0946C16.152 34.1004 15.8976 35.1062 15.7703 36.112C15.7703 36.6149 15.2614 37.1178 14.6252 37.1178H14.7524ZM17.8061 27.8141C17.8061 27.8141 17.4244 27.8141 17.2972 27.6884C16.7882 27.4369 16.5337 26.6826 16.9155 26.1797C17.4244 25.1739 18.0606 24.1681 18.824 23.288C19.2057 22.7851 19.8419 22.6594 20.3508 23.0365C20.8598 23.4137 20.987 24.0423 20.6053 24.5452C19.9691 25.4253 19.4602 26.3054 18.9512 27.1855C18.6968 27.5626 18.3151 27.8141 17.9333 27.8141H17.8061ZM24.1679 20.3963C24.1679 20.3963 23.5318 20.2706 23.2773 20.0191C22.8956 19.5162 22.8956 18.8876 23.4045 18.5104C24.2952 17.7561 25.1858 17.1274 26.2037 16.4988C26.7127 16.1216 27.4761 16.3731 27.7306 16.876C28.1123 17.3789 27.8578 18.1332 27.3488 18.3847C26.4582 18.8876 25.5675 19.5162 24.8041 20.1449C24.5496 20.2706 24.2952 20.3963 24.0407 20.3963H24.1679ZM32.82 15.8702C32.82 15.8702 31.9294 15.6187 31.8021 15.1158C31.6749 14.4872 31.9294 13.8586 32.5655 13.7329C33.7107 13.3557 34.7286 13.1042 35.8737 12.9785C36.5099 12.9785 37.0188 13.23 37.1461 13.8586C37.1461 14.4872 36.8916 14.9901 36.2554 15.1158C35.2375 15.2416 34.2196 15.493 33.2017 15.8702C33.2017 15.8702 32.9473 15.8702 32.82 15.8702Z" fill="#01D0FF"/>
<path d="M18.9513 54.342C18.9513 54.342 18.1879 54.2163 18.0606 53.8391C17.6789 53.3362 17.4245 52.8333 17.0427 52.3304C16.7883 51.8275 17.0427 51.0731 17.4245 50.8217C17.9334 50.5702 18.6968 50.8217 18.9513 51.1988C19.2058 51.7017 19.5875 52.2046 19.8419 52.5818C20.2237 53.0847 20.0964 53.8391 19.5875 54.0905C19.333 54.2163 19.2058 54.2163 18.9513 54.2163V54.342Z" fill="#01D0FF"/>
<path d="M54.832 19.139C54.832 19.139 54.4503 19.139 54.1959 18.8875C51.1422 16.8759 47.834 15.4929 44.1442 14.99C43.508 14.99 43.1263 14.3614 43.2535 13.7328C43.2535 13.1041 43.8897 12.727 44.5259 12.8527C48.4702 13.4813 52.1601 14.8643 55.4682 17.1274C55.9772 17.5045 56.1044 18.1332 55.7227 18.6361C55.4682 19.0132 55.2137 19.139 54.832 19.139Z" fill="#01D0FF"/>
</svg>
