<svg width="40" height="40" viewBox="0 0 40 40" fill="none" xmlns="http://www.w3.org/2000/svg">
<circle cx="20" cy="19.6309" r="19.5" fill="#FFEFE5"/>
<g clip-path="url(#clip0_5667_21548)">
<path fill-rule="evenodd" clip-rule="evenodd" d="M19.5 16.1309C17.2909 16.1309 15.5 17.9217 15.5 20.1309C15.5 22.34 17.2909 24.1309 19.5 24.1309C21.7091 24.1309 23.5 22.34 23.5 20.1309C23.5 17.9217 21.7091 16.1309 19.5 16.1309ZM17.5 20.1309C17.5 19.0263 18.3954 18.1309 19.5 18.1309C20.6046 18.1309 21.5 19.0263 21.5 20.1309C21.5 21.2354 20.6046 22.1309 19.5 22.1309C18.3954 22.1309 17.5 21.2354 17.5 20.1309Z" fill="#384043"/>
<path fill-rule="evenodd" clip-rule="evenodd" d="M31.3941 19.6829C31.5348 19.9645 31.5352 20.2965 31.3944 20.5781L30.5 20.1309C31.3944 20.5781 31.3938 20.5793 31.3936 20.5797L31.3925 20.582L31.389 20.5888L31.3777 20.611C31.3681 20.6296 31.3546 20.6555 31.3372 20.6884C31.3025 20.7542 31.252 20.8476 31.186 20.9649C31.0542 21.1992 30.8601 21.5293 30.6057 21.9234C30.0979 22.7095 29.3432 23.7603 28.3545 24.8148C26.3955 26.9044 23.3995 29.1309 19.5 29.1309C15.6005 29.1309 12.6045 26.9044 10.6455 24.8148C9.65683 23.7603 8.90207 22.7095 8.39434 21.9234C8.13985 21.5293 7.94579 21.1992 7.81397 20.9649C7.74802 20.8476 7.69754 20.7542 7.66275 20.6884C7.64536 20.6555 7.63188 20.6296 7.62234 20.611L7.61099 20.5888L7.60754 20.582L7.60557 20.5781L8.49949 20.1311C7.61172 20.575 7.60544 20.5777 7.60557 20.5781C7.46481 20.2965 7.46481 19.9652 7.60557 19.6836L8.49949 20.1311C7.60506 19.6839 7.60619 19.6824 7.60637 19.6821L7.60754 19.6797L7.61099 19.6729L7.62234 19.6507C7.63188 19.6321 7.64536 19.6062 7.66275 19.5733C7.69754 19.5076 7.74802 19.4141 7.81397 19.2968C7.94579 19.0625 8.13985 18.7324 8.39434 18.3383C8.90207 17.5522 9.65683 16.5015 10.6455 15.4469C12.6045 13.3573 15.6005 11.1309 19.5 11.1309C23.3995 11.1309 26.3955 13.3573 28.3545 15.4469C29.3432 16.5015 30.0979 17.5522 30.6057 18.3383C30.8601 18.7324 31.0542 19.0625 31.186 19.2968C31.252 19.4141 31.3025 19.5076 31.3372 19.5733C31.3546 19.6062 31.3681 19.6321 31.3777 19.6507L31.389 19.6729L31.3925 19.6797L31.3941 19.6829ZM10.0744 20.8383C9.89492 20.5604 9.75003 20.3197 9.64074 20.1309C9.75003 19.942 9.89492 19.7013 10.0744 19.4234C10.5354 18.7095 11.2182 17.7603 12.1045 16.8148C13.8955 14.9044 16.3995 13.1309 19.5 13.1309C22.6005 13.1309 25.1045 14.9044 26.8955 16.8148C27.7818 17.7603 28.4646 18.7095 28.9256 19.4234C29.1051 19.7013 29.25 19.942 29.3593 20.1309C29.25 20.3197 29.1051 20.5604 28.9256 20.8383C28.4646 21.5522 27.7818 22.5015 26.8955 23.4469C25.1045 25.3573 22.6005 27.1309 19.5 27.1309C16.3995 27.1309 13.8955 25.3573 12.1045 23.4469C11.2182 22.5015 10.5354 21.5522 10.0744 20.8383ZM30.5 20.1309C31.3944 19.6836 31.3943 19.6833 31.3941 19.6829L30.5 20.1309Z" fill="#384043"/>
</g>
<defs>
<clipPath id="clip0_5667_21548">
<rect width="24" height="24" fill="white" transform="translate(7.5 8.13086)"/>
</clipPath>
</defs>
</svg>
