<svg width="57" height="57" viewBox="0 0 57 57" fill="none" xmlns="http://www.w3.org/2000/svg">
<path d="M28.1536 0C12.609 0 0 12.6018 0 28.1536C0 43.6982 12.6018 56.3072 28.1536 56.3072C43.6982 56.3072 56.3072 43.7054 56.3072 28.1536C56.3072 12.609 43.7054 0 28.1536 0Z" fill="white"/>
<g clip-path="url(#clip0_12816_1324)">
<path d="M22.0989 21.7751V20.6992H23.8379V20.0478H22.0989V19.0534H24.1113V18.3496H21.2964V22.4789H24.1636V21.7751H22.0989Z" fill="#003E79"/>
<path d="M20.8501 24.9716V24.3564H18.791V27.3895H19.4916V26.1933H20.6108V25.6252H19.4916V24.9716H20.8501Z" fill="#003E79"/>
<path d="M26.3179 24.3564H25.0234V27.3894H25.7241V26.4112C26.2791 26.4111 26.7015 26.4874 27.0419 26.095C27.6582 25.3847 27.1209 24.3564 26.3179 24.3564ZM26.2965 25.8004H25.7241V24.9716C26.2504 24.9716 26.4674 24.9091 26.5719 25.1981C26.659 25.4392 26.5619 25.8004 26.2965 25.8004Z" fill="#003E79"/>
<path d="M17.624 30.2163V30.6778H18.1806V32.1437H18.7098V30.6778H19.2637V30.2163H17.624Z" fill="#003E79"/>
<path d="M26.8784 31.6822L27.7254 30.6099V30.2163H26.2541V30.6778H27.1146L26.2134 31.7501V32.1437H27.7418V31.6822H26.8784Z" fill="#003E79"/>
<path d="M22.2672 30.2854C21.632 30.5672 21.486 31.361 21.9455 31.8544C22.3284 32.266 22.9753 32.2563 23.3571 31.8625C24.1017 31.0947 23.235 29.8561 22.2672 30.2854ZM22.855 31.6454C22.6034 31.779 22.2143 31.6376 22.2143 31.1825C22.2143 30.6309 22.7646 30.5518 22.9865 30.8283C23.1582 31.0419 23.1407 31.4932 22.855 31.6454Z" fill="#003E79"/>
<path d="M28.0885 28.2476H17.2769C17.018 28.2476 16.8081 28.4575 16.8081 28.7164C16.8081 28.9753 17.018 29.1852 17.2769 29.1852H28.0885C28.3475 29.1852 28.5573 28.9752 28.5573 28.7164C28.5573 28.4575 28.3475 28.2476 28.0885 28.2476Z" fill="#003E79"/>
<path d="M42.6978 32.3032C42.6931 32.3013 37.6165 30.3078 37.6119 30.306V29.2193C38.4369 28.5887 39.0126 27.6484 39.164 26.5733C40.8046 26.5508 41.6092 24.5545 40.4433 23.4V21.9527C40.4433 20.536 39.8938 19.2021 38.896 18.1966C38.7137 18.0127 38.4168 18.0117 38.233 18.1941C38.0493 18.3764 38.0482 18.6733 38.2305 18.8571C39.6523 20.2899 39.5057 21.847 39.5057 22.8984C39.4283 22.8829 39.3032 22.8669 39.2045 22.8634C39.2045 22.469 39.3467 22.705 37.6545 20.886C37.4958 20.7154 37.2369 20.6884 37.0465 20.819C37.0407 20.8229 37.0348 20.8265 37.0291 20.8308C37.005 20.849 34.5782 22.64 31.5427 22.2712C31.4091 22.255 31.2757 22.2967 31.1752 22.3856C30.9988 22.5419 31.0173 22.727 31.0173 22.8634C30.9194 22.8667 30.7925 22.883 30.716 22.8983V21.9527C30.716 18.7555 34.0458 16.6178 36.952 17.9607C37.1872 18.0692 37.4657 17.9667 37.5743 17.7317C37.6828 17.4966 37.5804 17.2181 37.3453 17.1094C36.6425 16.7847 35.8907 16.6201 35.1109 16.6201C33.9708 16.6201 32.914 16.9809 32.0462 17.5927V14.3266C32.0461 13.5952 31.4509 13 30.7194 13H18.7203C18.4614 13 18.2515 13.2099 18.2515 13.4688C18.2515 13.7277 18.4614 13.9376 18.7203 13.9376H30.7194C30.9339 13.9376 31.1084 14.1121 31.1084 14.3266V18.4346C30.2815 19.3743 29.7783 20.6055 29.7783 21.9527V23.4002C29.4385 23.7367 29.2275 24.2032 29.2275 24.7181C29.2275 25.7328 30.0462 26.5594 31.0576 26.5733C31.209 27.6484 31.7846 28.5887 32.6095 29.2193V30.3082C32.6054 30.3098 27.5334 32.3015 27.5292 32.3031C27.4787 32.3238 26.8129 32.6071 26.2139 33.2683H17.2769C17.018 33.2683 16.8081 33.4782 16.8081 33.7371C16.8081 33.996 17.0181 34.2059 17.2769 34.2059H25.5909C25.1682 35.1242 25.2503 35.6351 25.2503 38.5197H14.3496C14.1351 38.5197 13.9606 38.3452 13.9606 38.1307V14.3267C13.9606 14.1122 14.1351 13.9377 14.3496 13.9377H17.0325C17.2914 13.9377 17.5013 13.7277 17.5013 13.4689C17.5013 13.21 17.2914 13 17.0326 13H14.3496C13.6181 13 13.0229 13.5952 13.0229 14.3267V38.1309C13.0229 38.8624 13.6181 39.4576 14.3496 39.4576H25.2504V44.5312C25.2504 44.7901 25.4602 45 25.7192 45C25.9407 45 44.353 45 44.5081 45C44.7671 45 44.9769 44.7901 44.9769 44.5312V35.8213C44.9768 33.2695 42.7908 32.3414 42.6978 32.3032ZM39.2045 23.8025C39.3792 23.815 39.5412 23.8766 39.6767 23.975C40.371 24.4812 40.0524 25.5733 39.2045 25.6339V23.8025ZM31.0172 25.6339C30.5417 25.5999 30.1652 25.2021 30.1652 24.718C30.1652 24.2318 30.5448 23.8359 31.0172 23.8025V25.6339ZM37.8827 31.4197L36.6777 33.4874C36.6607 33.4771 35.8952 32.9597 35.8787 32.9486C37.5924 31.4395 37.5592 31.5087 37.6035 31.31L37.8827 31.4197ZM35.1136 33.5633L35.569 33.8709L35.4155 34.3443H34.8117L34.6582 33.8709C34.8293 33.7553 34.8432 33.746 35.1136 33.5633ZM33.5502 30.996C33.5502 30.9159 33.5473 30.5242 33.5473 29.7564C34.5511 30.1619 35.7317 30.1371 36.6743 29.7564V30.996L35.1123 32.3716L33.5502 30.996ZM34.8973 35.2819H35.3299L35.9348 41.6455L35.1137 42.4564L34.2925 41.6455L34.8973 35.2819ZM31.9549 26.0071C31.9549 25.7853 31.9549 23.5986 31.9549 23.2481C34.4533 23.384 36.4573 22.3134 37.2412 21.8184L38.2668 22.9209C38.2668 23.3514 38.2668 25.609 38.2668 26.0071C38.2668 28.2295 36.023 29.6681 33.9915 28.9222C32.8042 28.486 31.9549 27.3438 31.9549 26.0071ZM32.6213 31.311C32.666 31.509 32.6264 31.4345 34.3469 32.9496C34.332 32.9597 33.565 33.4781 33.5495 33.4873L32.3446 31.4196L32.6213 31.311ZM29.5724 44.0622V37.2889C29.5724 37.03 29.3625 36.8201 29.1036 36.8201C28.8446 36.8201 28.6348 37.03 28.6348 37.2889V44.0623H26.1879C26.1879 34.9528 25.9367 34.8953 26.9967 33.8045C27.4076 33.3839 27.8317 33.1937 27.8845 33.171L31.2627 31.8444L32.5572 44.0623H29.5724V44.0622ZM41.5925 44.0623V37.2889C41.5925 37.03 41.3826 36.8201 41.1236 36.8201C40.8647 36.8201 40.6548 37.03 40.6548 37.2889V44.0623H37.6698L38.3221 37.9065C38.3494 37.649 38.1628 37.4182 37.9053 37.3909C37.6472 37.364 37.417 37.5503 37.3897 37.8077L36.727 44.0623H33.5003L32.361 33.31C32.6862 33.868 32.9903 34.7028 33.8392 34.3845L33.995 34.8651L33.338 41.7783C33.3247 41.9185 33.3751 42.0573 33.4753 42.1563C34.8795 43.5429 34.857 43.5841 35.1136 43.5841C35.3702 43.5841 35.3533 43.5374 36.7519 42.1563C36.8522 42.0573 36.9025 41.9185 36.8892 41.7783L36.2322 34.8654L36.3881 34.3846C36.7682 34.5271 37.1727 34.4382 37.4593 34.0082L37.8662 33.3101L37.5601 36.198C37.5328 36.4555 37.7194 36.6863 37.9769 36.7136C38.2351 36.7411 38.4652 36.5543 38.4925 36.2968L38.9643 31.8445C38.9828 31.8517 42.3378 33.1688 42.356 33.177C42.5215 33.2516 44.0391 33.9868 44.0391 35.8213V44.0623L41.5925 44.0623Z" fill="#003E79"/>
</g>
<defs>
<clipPath id="clip0_12816_1324">
<rect width="32" height="32" fill="white" transform="translate(13 13)"/>
</clipPath>
</defs>
</svg>
