<svg width="69" height="69" viewBox="0 0 69 69" fill="none" xmlns="http://www.w3.org/2000/svg">
<circle cx="34.5" cy="34.5" r="34.5" fill="#E1F1FF"/>
<path d="M34.5001 54.277C26.8531 54.277 19.733 49.3155 14.4514 40.3066L14.341 40.1166C14.2197 39.9018 14.2197 39.6389 14.341 39.4242L14.4509 39.2344C18.0628 33.0737 22.6329 28.7211 27.6674 26.647C28.0262 26.5001 28.4371 26.6705 28.5848 27.0291C28.7328 27.3879 28.5615 27.7986 28.2027 27.9466C23.5018 29.8833 19.2047 33.9697 15.7668 39.7701C20.7745 48.2214 27.4211 52.8712 34.5001 52.8712C41.579 52.8712 48.2258 48.2207 53.233 39.7704C49.8247 34.02 45.5683 29.9505 40.914 27.9952C40.5564 27.845 40.3881 27.433 40.5385 27.075C40.6887 26.7172 41.1011 26.5496 41.4588 26.6995C46.4425 28.7934 50.969 33.1278 54.5487 39.2343L54.6591 39.4243C54.7804 39.6389 54.7804 39.9019 54.6591 40.1167L54.5481 40.3075C49.2671 49.3155 42.147 54.277 34.5001 54.277Z" fill="#003E79"/>
<path d="M34.4992 42.3281C33.0888 42.3281 31.9414 41.1806 31.9414 39.7702C31.9414 38.36 33.0889 37.2124 34.4992 37.2124C35.9094 37.2124 37.057 38.36 37.057 39.7702C37.057 41.1807 35.9094 42.3281 34.4992 42.3281ZM34.4992 38.6181C33.864 38.6181 33.3469 39.1351 33.3469 39.7703C33.3469 40.4055 33.864 40.9226 34.4992 40.9226C35.1344 40.9226 35.6514 40.4055 35.6514 39.7703C35.6514 39.1351 35.1344 38.6181 34.4992 38.6181Z" fill="#003E79"/>
<path d="M29.9817 37.7824C29.859 37.7824 29.7345 37.7503 29.6215 37.6829C29.2885 37.4838 29.1797 37.0523 29.3791 36.7189C29.5968 36.3547 29.8541 36.0129 30.1432 35.7031C30.4081 35.4198 30.8531 35.4039 31.1365 35.6691C31.4204 35.934 31.4355 36.3787 31.1705 36.6624C30.9493 36.8994 30.7523 37.1613 30.5855 37.4404C30.4539 37.6606 30.2208 37.7824 29.9817 37.7824Z" fill="#003E79"/>
<path d="M33.3538 45.6066C33.3032 45.6066 33.252 45.6011 33.2006 45.5896C32.2867 45.3862 31.421 44.9617 30.6974 44.3615C30.3984 44.1136 30.3572 43.6706 30.6048 43.3719C30.8527 43.0726 31.2953 43.0317 31.5945 43.2794C32.1474 43.7381 32.8082 44.0623 33.5058 44.2174C33.8847 44.3017 34.1235 44.6773 34.0392 45.0561C33.9666 45.3836 33.6761 45.6066 33.3538 45.6066ZM35.8109 45.5672C35.4976 45.5672 35.2121 45.3562 35.1306 45.0388C35.0342 44.663 35.2608 44.2801 35.6368 44.1833C36.3289 44.006 36.9787 43.6604 37.5166 43.1843C37.8071 42.9265 38.2513 42.9542 38.5088 43.2447C38.766 43.5354 38.7391 43.9796 38.4484 44.2369C37.7445 44.8598 36.8932 45.3123 35.9861 45.5451C35.9276 45.5599 35.8688 45.5672 35.8109 45.5672ZM29.6706 42.5562C29.3987 42.5562 29.1396 42.3972 29.0252 42.1318C28.7026 41.3848 28.5391 40.5902 28.5391 39.7707C28.5391 39.6416 28.5431 39.5132 28.551 39.3858C28.5755 38.9985 28.9047 38.7052 29.297 38.7289C29.6844 38.7535 29.9784 39.0873 29.954 39.4747C29.9477 39.5724 29.9447 39.6712 29.9447 39.7706C29.9447 40.3974 30.0695 41.0044 30.3156 41.5744C30.4696 41.9307 30.3054 42.3444 29.9491 42.4982C29.8581 42.5376 29.7637 42.5562 29.6706 42.5562ZM39.3938 42.4003C39.3081 42.4003 39.2212 42.3844 39.1366 42.3512C38.7753 42.209 38.5979 41.8007 38.7401 41.4397C38.9494 40.9087 39.0553 40.3473 39.0553 39.7707C39.0553 39.622 39.0481 39.4748 39.0341 39.3296C38.9968 38.9433 39.2796 38.5999 39.6661 38.5625C40.0524 38.5243 40.3958 38.808 40.4332 39.1944C40.4516 39.3842 40.4609 39.5764 40.4609 39.7707C40.4609 40.5244 40.322 41.2593 40.0481 41.9546C39.9391 42.2314 39.6741 42.4003 39.3938 42.4003Z" fill="#003E79"/>
<path d="M38.924 37.6286C38.6931 37.6286 38.4672 37.5149 38.3326 37.3065C38.1572 37.0341 37.9515 36.7794 37.7215 36.5494C37.447 36.2749 37.447 35.8302 37.7215 35.5555C37.996 35.281 38.4407 35.281 38.7152 35.5555C39.0159 35.8559 39.2844 36.1889 39.5142 36.5449C39.7245 36.8711 39.6303 37.3063 39.3041 37.5165C39.1864 37.5923 39.0544 37.6286 38.924 37.6286Z" fill="#003E79"/>
<path d="M34.4999 49.6376C27.4245 49.6376 20.6769 46.5889 14.9869 40.8211C14.6258 40.4552 14.4337 40.2446 14.4337 40.2446C14.1888 39.9764 14.1888 39.5651 14.4335 39.2969C14.4335 39.2969 14.6254 39.0861 14.9869 38.7199C19.0764 34.5744 23.8813 31.7546 28.8821 30.5658C29.2601 30.4768 29.6385 30.7097 29.7285 31.0872C29.8182 31.4648 29.5849 31.8439 29.2071 31.9336C24.4631 33.0612 19.8917 35.7491 15.9873 39.7071C15.9659 39.7288 15.9453 39.75 15.925 39.7705C15.9453 39.7912 15.9662 39.8123 15.9876 39.8342C21.4075 45.328 27.8091 48.2321 34.4999 48.2321C41.1906 48.2323 47.5922 45.3284 53.0125 39.8342C53.0339 39.8126 53.0548 39.7912 53.0747 39.7705C53.0548 39.75 53.0339 39.7288 53.0122 39.7068C49.2527 35.896 45.0402 33.3403 40.4922 32.1109C40.1174 32.0096 39.896 31.6239 39.9972 31.2491C40.0985 30.8741 40.4845 30.6523 40.859 30.7541C45.6505 32.0491 50.076 34.7291 54.0129 38.7198C54.3738 39.0858 54.566 39.2963 54.566 39.2963C54.8109 39.5648 54.8109 39.9761 54.566 40.2445C54.566 40.2445 54.3739 40.4551 54.0134 40.8211C48.3231 46.5888 41.575 49.6376 34.4999 49.6376Z" fill="#003E79"/>
<path d="M34.4997 38.6182C34.1114 38.6182 33.7969 38.3037 33.7969 37.9154V31.5636C33.7969 31.1755 34.1114 30.8608 34.4997 30.8608C34.8879 30.8608 35.2025 31.1755 35.2025 31.5636V37.9154C35.2025 38.3037 34.8878 38.6182 34.4997 38.6182Z" fill="#003E79"/>
<path d="M34.4926 32.266C34.3722 32.266 34.2514 32.2603 34.1304 32.2488C32.212 32.0659 30.7095 30.35 30.7095 28.3426V22.1449C29.8063 21.8486 29.1523 20.9977 29.1523 19.9966V15.426C29.1523 15.0377 29.4669 14.7231 29.8552 14.7231C30.2433 14.7231 30.5579 15.0377 30.5579 15.426V19.9966C30.5579 20.4678 30.9412 20.8511 31.4123 20.8511C31.8005 20.8511 32.1151 21.1656 32.1151 21.5539V28.3426C32.1151 29.6334 33.059 30.7347 34.264 30.8497C34.9472 30.9125 35.6016 30.6984 36.1047 30.2411C36.6014 29.7897 36.886 29.1462 36.886 28.4755V21.554C36.886 21.1657 37.2006 20.8512 37.5889 20.8512C38.06 20.8512 38.4432 20.4678 38.4432 19.9967V15.426C38.4432 15.0377 38.7578 14.7231 39.146 14.7231C39.5342 14.7231 39.8488 15.0377 39.8488 15.426V19.9966C39.8488 20.9976 39.1948 21.8486 38.2917 22.1449V28.4754C38.2917 29.5412 37.8391 30.5639 37.0502 31.2813C36.351 31.9169 35.4352 32.266 34.4926 32.266Z" fill="#003E79"/>
<path d="M33.3607 22.2567H31.4118C31.0235 22.2567 30.709 21.9421 30.709 21.5539C30.709 21.1656 31.0235 20.8511 31.4118 20.8511H33.3607C33.7489 20.8511 34.0636 21.1656 34.0636 21.5539C34.0636 21.942 33.7489 22.2567 33.3607 22.2567Z" fill="#003E79"/>
<path d="M37.5888 22.2567H35.9841C35.5958 22.2567 35.2812 21.9421 35.2812 21.5539C35.2812 21.1656 35.5958 20.8511 35.9841 20.8511H37.5888C37.9769 20.8511 38.2916 21.1656 38.2916 21.5539C38.2916 21.942 37.9768 22.2567 37.5888 22.2567Z" fill="#003E79"/>
</svg>
