<svg width="46" height="26" viewBox="0 0 46 26" fill="none" xmlns="http://www.w3.org/2000/svg">
<path d="M11.024 0.216014C14.888 0.216014 17.6 1.32001 19.16 3.52801C20.744 5.71201 21.536 8.88002 21.536 13.032C21.536 17.184 20.744 20.364 19.16 22.572C17.6 24.756 14.888 25.848 11.024 25.848C7.136 25.848 4.4 24.756 2.816 22.572C1.256 20.364 0.476 17.184 0.476 13.032C0.476 8.88002 1.256 5.71201 2.816 3.52801C4.4 1.32001 7.136 0.216014 11.024 0.216014ZM11.024 5.07602C9.776 5.07602 8.888 5.55602 8.36 6.51601C7.832 7.47601 7.568 9.04801 7.568 11.232V14.796C7.568 17.004 7.832 18.588 8.36 19.548C8.888 20.508 9.776 20.988 11.024 20.988C12.272 20.988 13.148 20.508 13.652 19.548C14.156 18.588 14.408 17.004 14.408 14.796V11.232C14.408 9.02401 14.156 7.45201 13.652 6.51601C13.148 5.55602 12.272 5.07602 11.024 5.07602ZM45.4757 19.872V25.416H26.7917V19.872H32.6597V8.67601H26.7917V4.50001C28.3997 4.40401 30.1997 3.98401 32.1917 3.24001C34.1837 2.47201 35.9237 1.59602 37.4117 0.612015H39.8237V19.872H45.4757Z" fill="#CDCFD0"/>
</svg>
