<svg width="47" height="26" viewBox="0 0 47 26" fill="none" xmlns="http://www.w3.org/2000/svg">
<path d="M11.024 0.148631C14.888 0.148631 17.6 1.25263 19.16 3.46063C20.744 5.64463 21.536 8.81263 21.536 12.9646C21.536 17.1166 20.744 20.2966 19.16 22.5046C17.6 24.6886 14.888 25.7806 11.024 25.7806C7.136 25.7806 4.4 24.6886 2.816 22.5046C1.256 20.2966 0.476 17.1166 0.476 12.9646C0.476 8.81263 1.256 5.64463 2.816 3.46063C4.4 1.25263 7.136 0.148631 11.024 0.148631ZM11.024 5.00863C9.776 5.00863 8.888 5.48863 8.36 6.44863C7.832 7.40863 7.568 8.98063 7.568 11.1646V14.7286C7.568 16.9366 7.832 18.5206 8.36 19.4806C8.888 20.4406 9.776 20.9206 11.024 20.9206C12.272 20.9206 13.148 20.4406 13.652 19.4806C14.156 18.5206 14.408 16.9366 14.408 14.7286V11.1646C14.408 8.95663 14.156 7.38463 13.652 6.44863C13.148 5.48863 12.272 5.00863 11.024 5.00863ZM37.8077 0.148631C37.6397 1.39663 37.0637 2.95663 36.0797 4.82863C35.0957 6.67663 33.9197 8.53663 32.5517 10.4086C31.2077 12.2566 29.9477 13.7806 28.7717 14.9806H35.8997V9.83263C36.6437 8.77663 37.3997 7.52863 38.1677 6.08863C38.9357 4.64863 39.4397 3.46063 39.6797 2.52463H42.7397V14.9806H46.1957V20.2726H42.7397V25.3486H35.8997V20.2726H23.8397V14.9086C25.1357 13.0366 26.4197 10.7686 27.6917 8.10463C28.9637 5.44063 29.9837 2.78863 30.7517 0.148631H37.8077Z" fill="#CDCFD0"/>
</svg>
