<svg width="16" height="18" viewBox="0 0 16 18" fill="none" xmlns="http://www.w3.org/2000/svg">
<path fill-rule="evenodd" clip-rule="evenodd" d="M0.7342 0.999953C1.73251 0.686201 2.81414 0.5 3.97557 0.5C7.87942 0.5 10.8818 2.60372 12.8487 4.58383C13.8409 5.58268 14.5985 6.57807 15.1082 7.32292C15.3636 7.69621 15.5584 8.00888 15.6906 8.23069C15.7567 8.34166 15.8073 8.43006 15.8421 8.49216C15.8595 8.52321 15.873 8.5477 15.8825 8.56516L15.8938 8.58602L15.8972 8.59239L15.8988 8.59536C15.899 8.59569 15.8991 8.596 15.043 9L15.8988 8.59536C16.0335 8.84968 16.0339 9.14968 15.8991 9.404L15.043 9C15.8991 9.404 15.8993 9.40367 15.8991 9.404L15.8983 9.40546L15.8972 9.40761L15.8938 9.41398L15.8825 9.43484C15.873 9.4523 15.8595 9.47679 15.8421 9.50784C15.8073 9.56994 15.7567 9.65835 15.6906 9.76931C15.5584 9.99112 15.3636 10.3038 15.1082 10.6771C14.5985 11.4219 13.8409 12.4173 12.8487 13.4162C10.8818 15.3963 7.87942 17.5 3.97557 17.5C2.81414 17.5 1.73251 17.3138 0.7342 17V15.072C1.72674 15.4593 2.80921 15.6932 3.97557 15.6932C7.11462 15.6932 9.64599 13.9986 11.4521 12.1804C12.3464 11.2801 13.0351 10.3764 13.5 9.69686C13.689 9.42079 13.8399 9.18326 13.9518 9C13.8399 8.81674 13.689 8.57921 13.5 8.30314C13.0351 7.62362 12.3464 6.71986 11.4521 5.81955C9.64599 4.00136 7.11462 2.30676 3.97557 2.30676C2.80921 2.30676 1.72674 2.54072 0.7342 2.92805V0.999953ZM3.97557 7.05465C5.11394 7.05465 6.03677 7.92561 6.03677 9C6.03677 10.0744 5.11394 10.9454 3.97557 10.9454C2.8372 10.9454 1.91436 10.0744 1.91436 9C1.91436 7.92561 2.8372 7.05465 3.97557 7.05465ZM7.95114 9C7.95114 6.92776 6.17121 5.24789 3.97557 5.24789C1.77992 5.24789 0 6.92776 0 9C0 11.0722 1.77992 12.7521 3.97557 12.7521C6.17121 12.7521 7.95114 11.0722 7.95114 9Z" fill="#E9EAEB"/>
</svg>
