<svg width="41" height="41" viewBox="0 0 41 41" fill="none" xmlns="http://www.w3.org/2000/svg">
<path d="M11.4487 22.0967C11.4487 18.5399 13.5009 15.4629 16.485 13.9834C14.473 14.2919 12.5057 14.8334 10.6038 15.6046C7.34084 16.9273 4.41351 18.871 1.90315 21.3813L1.72079 21.5637C1.4264 21.8581 1.4264 22.3354 1.72079 22.6292L1.90315 22.8116C4.41351 25.322 7.34084 27.2656 10.6033 28.5889C12.5057 29.36 14.473 29.9016 16.4845 30.21C13.4999 28.7306 11.4482 25.6535 11.4482 22.0967H11.4487Z" fill="#061014" fill-opacity="0.9"/>
<path d="M39.2786 21.5632L39.0963 21.3809C36.5859 18.8705 33.6586 16.9268 30.3962 15.6036C28.4937 14.8319 26.5264 14.2909 24.5149 13.9824C27.4995 15.4619 29.5512 18.5389 29.5512 22.0957C29.5512 25.6525 27.499 28.7296 24.5149 30.2091C26.5269 29.9006 28.4942 29.3596 30.3962 28.5879C33.6591 27.2647 36.5864 25.321 39.0968 22.8106L39.2791 22.6283C39.5735 22.3339 39.5735 21.8566 39.2791 21.5627L39.2786 21.5632Z" fill="#061014" fill-opacity="0.9"/>
<path d="M27.0491 22.0963C27.0491 18.4792 24.1167 15.5469 20.4996 15.5469C19.3673 15.5469 18.3017 15.8342 17.3723 16.3406L20.9965 22.4786C20.9965 22.4786 16.9931 20.5329 14.5475 19.3619C14.1647 20.1943 13.9507 21.1202 13.9507 22.0968C13.9507 25.7139 16.883 28.6463 20.5001 28.6463C24.1172 28.6463 27.0496 25.7139 27.0496 22.0968L27.0491 22.0963Z" fill="#01D0FF"/>
<path d="M2.54606 17.8336C2.82537 18.1597 3.32574 18.2064 3.66484 17.9376L3.6774 17.9276C4.016 17.6588 4.06423 17.1765 3.78541 16.8505L3.6779 16.7249C3.39858 16.3989 2.89822 16.3521 2.55912 16.6209L2.54656 16.631C2.20796 16.8997 2.15973 17.382 2.43855 17.7081L2.54606 17.8336Z" fill="#061014" fill-opacity="0.9"/>
<path d="M5.61068 15.5989C5.83926 15.9596 6.32857 16.0732 6.70284 15.8531L6.7164 15.8451C7.09117 15.6251 7.20923 15.1538 6.98065 14.7931L6.89223 14.654C6.66365 14.2933 6.17434 14.1797 5.80007 14.3998L5.78651 14.4078C5.41174 14.6279 5.29368 15.0991 5.52226 15.4598L5.61068 15.5989Z" fill="#061014" fill-opacity="0.9"/>
<path d="M8.97048 13.8022C9.1438 14.1906 9.61151 14.3699 10.0144 14.2026L10.0295 14.1966C10.4324 14.0298 10.6188 13.5797 10.4454 13.1913L10.3786 13.0421C10.2053 12.6538 9.7376 12.4745 9.3347 12.6417L9.31963 12.6478C8.91672 12.8146 8.73034 13.2647 8.90366 13.653L8.97048 13.8022Z" fill="#061014" fill-opacity="0.9"/>
<path d="M12.56 12.4801C12.675 12.888 13.1116 13.1286 13.5351 13.0181L13.5507 13.0141C13.9742 12.9036 14.2243 12.4831 14.1093 12.0752L14.0651 11.9184C13.95 11.5105 13.5135 11.2698 13.09 11.3804L13.0744 11.3844C12.6509 11.4949 12.4007 11.9154 12.5158 12.3233L12.56 12.4801Z" fill="#061014" fill-opacity="0.9"/>
<path d="M16.3066 11.658C16.3613 12.0775 16.7582 12.3744 17.1938 12.3222L17.2099 12.3202C17.6454 12.2674 17.9544 11.8851 17.8996 11.4656L17.8785 11.3044C17.8238 10.8849 17.4264 10.588 16.9913 10.6402L16.9752 10.6422C16.5397 10.695 16.2312 11.0773 16.2855 11.4968L16.3066 11.658Z" fill="#061014" fill-opacity="0.9"/>
<path d="M20.9195 12.1242H20.9356C21.3741 12.1307 21.7353 11.7937 21.7424 11.3712L21.7449 11.2089C21.7514 10.7864 21.4013 10.4388 20.9627 10.4322H20.9466C20.5075 10.4257 20.1468 10.7628 20.1398 11.1853L20.1373 11.3475C20.1308 11.77 20.4809 12.1177 20.92 12.1242H20.9195Z" fill="#061014" fill-opacity="0.9"/>
<path d="M24.6357 12.4288L24.6517 12.4313C25.0853 12.4966 25.4917 12.2113 25.5595 11.7938L25.5856 11.633C25.6535 11.2155 25.3571 10.8242 24.9235 10.7589L24.9074 10.7564C24.4739 10.6911 24.0675 10.9764 23.9997 11.3939L23.9735 11.5546C23.9057 11.9721 24.2021 12.3635 24.6357 12.4288Z" fill="#061014" fill-opacity="0.9"/>
<path d="M28.2708 13.2307L28.2864 13.2352C28.7064 13.3583 29.1505 13.1307 29.2781 12.7263L29.3273 12.5711C29.4554 12.1667 29.2188 11.7391 28.7988 11.6161L28.7832 11.6115C28.3633 11.4885 27.9192 11.716 27.7916 12.1204L27.7423 12.2757C27.6142 12.6801 27.8508 13.1076 28.2708 13.2307Z" fill="#061014" fill-opacity="0.9"/>
<path d="M31.7537 14.5165L31.7682 14.523C32.1656 14.7019 32.6389 14.5366 32.8247 14.1538L32.8961 14.0066C33.0819 13.6238 32.9101 13.1681 32.5128 12.9893L32.4982 12.9828C32.1008 12.8039 31.6276 12.9692 31.4417 13.352L31.3704 13.4992C31.1845 13.882 31.3563 14.3377 31.7537 14.5165Z" fill="#061014" fill-opacity="0.9"/>
<path d="M35.0126 16.2632L35.0261 16.2717C35.3934 16.5028 35.8862 16.4038 36.1263 16.0502L36.2188 15.914C36.4589 15.5603 36.3559 15.0861 35.9887 14.855L35.9751 14.8465C35.6079 14.6154 35.115 14.7143 34.8749 15.068L34.7825 15.2042C34.5423 15.5578 34.6453 16.0321 35.0126 16.2632Z" fill="#061014" fill-opacity="0.9"/>
<path d="M37.9831 18.4339L37.9952 18.4439C38.3252 18.7222 38.8271 18.6906 39.1165 18.3731L39.228 18.251C39.5173 17.933 39.4842 17.4497 39.1541 17.1714L39.1421 17.1613C38.812 16.883 38.3101 16.9147 38.0208 17.2322L37.9092 17.3543C37.6199 17.6723 37.653 18.1555 37.9831 18.4339Z" fill="#061014" fill-opacity="0.9"/>
</svg>
