<svg width="18" height="18" viewBox="0 0 18 18" fill="none" xmlns="http://www.w3.org/2000/svg">
<g id="ai-navigation-spark--map-location-direction-travel-artificial-intelligence-ai" clip-path="url(#clip0_15907_22936)">
<g id="ai-navigation-spark--map-location-direction-travel-artificial-intelligence-ai_2">
<path id="Ellipse 1507" d="M6.77454 10.9233C8.01718 10.9233 9.02454 9.91598 9.02454 8.67334C9.02454 7.4307 8.01718 6.42334 6.77454 6.42334C5.5319 6.42334 4.52454 7.4307 4.52454 8.67334C4.52454 9.91598 5.5319 10.9233 6.77454 10.9233Z" stroke="#4A759F" stroke-width="1.5" stroke-linecap="round" stroke-linejoin="round"/>
<path id="Ellipse 1508" d="M12.3796 11.2376C11.1611 14.5053 8.05267 17.3521 6.77438 17.3521C5.16724 17.3521 0.667236 12.8521 0.667236 8.67355C0.667236 5.30067 3.4015 2.56641 6.77438 2.56641C6.96491 2.56641 7.15341 2.57514 7.33949 2.59221" stroke="#4A759F" stroke-width="1.5" stroke-linecap="round" stroke-linejoin="round"/>
<path id="Vector 2136" d="M9.89466 4.84606C9.46562 4.77143 9.46562 4.15552 9.89466 4.08088C11.449 3.81047 12.6852 2.62658 13.0226 1.08541L13.0485 0.967274C13.1413 0.543248 13.7451 0.540608 13.8415 0.963808L13.873 1.10148C14.2228 2.63538 15.4594 3.80927 17.0094 4.07893C17.4406 4.15395 17.4406 4.77299 17.0094 4.84802C15.4594 5.11767 14.2228 6.29156 13.873 7.82546L13.8415 7.96313C13.7451 8.38634 13.1413 8.38369 13.0485 7.95968L13.0226 7.84153C12.6852 6.30036 11.449 5.11647 9.89466 4.84606Z" stroke="#4A759F" stroke-width="1.5" stroke-linecap="round" stroke-linejoin="round"/>
</g>
</g>
<defs>
<clipPath id="clip0_15907_22936">
<rect width="18" height="18" fill="white"/>
</clipPath>
</defs>
</svg>
