<svg width="45" height="45" viewBox="0 0 45 45" fill="none" xmlns="http://www.w3.org/2000/svg">
<circle cx="22.5" cy="22.5" r="22.5" fill="#003E79"/>
<g clip-path="url(#clip0_13581_52)">
<g clip-path="url(#clip1_13581_52)">
<path fill-rule="evenodd" clip-rule="evenodd" d="M22.849 11.4014C24.3044 11.4005 25.7412 11.7445 27.0523 12.4079C28.3635 13.0712 29.5152 14.0367 30.4214 15.2325C31.3278 16.4283 31.9653 17.8234 32.2868 19.3139C32.608 20.8044 32.6048 22.3518 32.2773 23.8409C31.9498 25.3299 31.3064 26.7221 30.3952 27.9137C29.4839 29.1053 28.3282 30.0655 27.0143 30.7229C25.7003 31.3802 24.262 31.7177 22.8066 31.7101C21.4285 31.7029 20.0686 31.3866 18.8179 30.7834L13.9975 31.6985C13.7512 31.7453 13.5 31.6495 13.3397 31.4477C13.1794 31.2458 13.1347 30.9691 13.2228 30.7232L14.6056 26.8604C13.7567 25.4054 13.2696 23.7474 13.1921 22.0391C13.1088 20.2044 13.5011 18.3803 14.3271 16.7611C15.1531 15.142 16.3818 13.7884 17.8825 12.8446C19.3832 11.9008 21.0997 11.402 22.849 11.4014ZM20.0703 21.5558C20.0703 22.3623 19.4476 23.0161 18.6795 23.0161C17.9114 23.0161 17.2887 22.3623 17.2887 21.5558C17.2887 20.7493 17.9114 20.0954 18.6795 20.0954C19.4476 20.0954 20.0703 20.7493 20.0703 21.5558ZM22.8519 23.0161C23.62 23.0161 24.2426 22.3623 24.2426 21.5558C24.2426 20.7493 23.62 20.0954 22.8519 20.0954C22.0838 20.0954 21.4611 20.7493 21.4611 21.5558C21.4611 22.3623 22.0838 23.0161 22.8519 23.0161ZM27.0242 23.0161C27.7923 23.0161 28.415 22.3623 28.415 21.5558C28.415 20.7493 27.7923 20.0954 27.0242 20.0954C26.2561 20.0954 25.6334 20.7493 25.6334 21.5558C25.6334 22.3623 26.2561 23.0161 27.0242 23.0161Z" fill="white"/>
</g>
</g>
<defs>
<clipPath id="clip0_13581_52">
<rect width="19.4709" height="20.4444" fill="white" transform="translate(13.1164 11.3335)"/>
</clipPath>
<clipPath id="clip1_13581_52">
<rect width="19.4709" height="20.4444" fill="white" transform="translate(13.1164 11.3335)"/>
</clipPath>
</defs>
</svg>
