<svg width="89" height="90" viewBox="0 0 89 90" fill="none" xmlns="http://www.w3.org/2000/svg">
<g id="achievement_10083626 1" clip-path="url(#clip0_12566_13545)">
<g id="Group">
<path id="Vector" d="M46.2655 89.8839C70.8176 88.9009 89.9241 68.2005 88.941 43.6484C87.9579 19.0963 67.2576 -0.0101375 42.7055 0.97293C18.1534 1.956 -0.953067 22.6563 0.0300001 47.2084C1.01307 71.7605 21.7134 90.867 46.2655 89.8839Z" fill="#00BFFF"/>
<g id="Group_2">
<g id="Group_3">
<path id="Vector_2" d="M58.4063 39.4501C58.8234 39.4501 59.3797 39.311 59.7969 39.0329L67.5844 33.8876C68.2797 33.4704 68.6969 32.7751 68.6969 31.9407C68.6969 31.5235 68.5578 31.2454 68.4188 30.8282C68.1406 30.272 67.5844 29.8548 66.8891 29.7157C66.75 29.7157 66.4719 29.5767 66.3328 29.5767C65.9156 29.5767 65.4984 29.7157 65.0813 29.9938L58.8234 34.0267H48.95C48.3938 34.0267 47.9766 34.1657 47.5594 34.5829L44.5 37.5032L41.3016 34.4438C40.8844 34.1657 40.4672 34.0267 39.9109 34.0267H30.0375L23.7797 29.9938C23.3625 29.7157 22.9453 29.5767 22.5281 29.5767C21.6938 29.5767 20.8594 29.9938 20.4422 30.8282C19.8859 31.9407 20.1641 33.1923 21.2766 33.8876L29.0641 39.0329C29.4812 39.311 29.8984 39.4501 30.4547 39.4501H37.5469L36.7125 73.3813C36.7125 74.772 37.9641 75.8845 39.6328 75.8845C41.1625 75.8845 42.275 74.911 42.5531 73.6595L44.5 58.7798L46.4469 73.6595C46.5859 74.911 47.8375 75.8845 49.3672 75.8845C50.2016 75.8845 51.0359 75.6063 51.5922 75.0501C52.0094 74.4938 52.2875 73.9376 52.2875 73.2423L51.4531 39.311H58.4063V39.4501Z" fill="white"/>
<path id="Vector_3" d="M44.5016 32.497C47.1438 32.497 49.2297 30.4111 49.2297 27.7689C49.2297 25.1267 47.1438 23.0408 44.5016 23.0408C41.8594 23.0408 39.7734 25.1267 39.7734 27.7689C39.7734 30.4111 41.8594 32.497 44.5016 32.497Z" fill="white"/>
<path id="Vector_4" d="M33.0969 28.6032H36.9906C37.6859 28.6032 38.1031 28.0469 38.1031 27.4907C38.1031 26.7954 37.5469 26.3782 36.9906 26.3782H33.0969C32.4016 26.3782 31.9844 26.9344 31.9844 27.4907C31.9844 28.0469 32.4016 28.6032 33.0969 28.6032Z" fill="white"/>
<path id="Vector_5" d="M50.8984 27.3518C50.8984 28.0471 51.4547 28.4643 52.0109 28.4643H55.9047C56.6 28.4643 57.0172 27.908 57.0172 27.3518C57.0172 26.6564 56.4609 26.2393 55.9047 26.2393H52.0109C51.3156 26.2393 50.8984 26.7955 50.8984 27.3518Z" fill="white"/>
<path id="Vector_6" d="M44.5012 21.0938C45.1965 21.0938 45.6137 20.5376 45.6137 19.9813V16.0876C45.6137 15.3923 45.0574 14.9751 44.5012 14.9751C43.8059 14.9751 43.3887 15.5313 43.3887 16.0876V19.9813C43.3887 20.5376 43.8059 21.0938 44.5012 21.0938Z" fill="white"/>
<path id="Vector_7" d="M38.3812 22.9017C38.5203 23.1798 38.9375 23.1798 39.2156 23.1798C39.4938 23.1798 39.7719 23.0408 40.05 22.9017C40.3281 22.6236 40.3281 22.3455 40.3281 22.0673C40.3281 21.7892 40.1891 21.5111 40.05 21.233L37.2687 18.4517C36.9906 18.1736 36.7125 18.1736 36.4344 18.1736C36.1563 18.1736 35.8781 18.3126 35.6 18.4517C35.1828 18.8689 35.1828 19.7033 35.6 20.1205L38.3812 22.9017Z" fill="white"/>
<path id="Vector_8" d="M49.7844 23.1798C50.0625 23.1798 50.3406 23.0408 50.6188 22.9017L53.4 20.1205C53.6781 19.8423 53.6781 19.5642 53.6781 19.2861C53.6781 19.008 53.5391 18.7298 53.4 18.4517C53.1219 18.1736 52.8437 18.1736 52.5656 18.1736C52.2875 18.1736 52.0094 18.3126 51.7313 18.4517L48.95 21.233C48.8109 21.5111 48.6719 21.7892 48.6719 22.0673C48.6719 22.3455 48.8109 22.6236 48.95 22.9017C49.2281 23.1798 49.5062 23.1798 49.7844 23.1798Z" fill="white"/>
<path id="Vector_9" d="M66.3336 58.3625L66.0555 56.8329C66.0555 56.6938 66.0555 56.4157 66.1945 56.2766L69.8102 52.8L64.8039 52.1047C64.6648 52.1047 64.5258 51.9657 64.3867 51.8266L63.9695 50.7141L62.3008 47.2375L60.0758 51.6876C59.9367 51.8266 59.7977 51.9657 59.6586 51.9657L54.6523 52.661L58.268 56.1376C58.407 56.2766 58.407 56.4157 58.407 56.6938L57.5727 61.7001L62.0227 59.336H62.3008C62.3008 59.336 62.4398 59.336 62.5789 59.336L67.0289 61.7001L66.3336 58.3625Z" fill="white"/>
<path id="Vector_10" d="M73.4254 53.4953L76.0676 50.9922L72.4519 50.4359C72.3129 50.4359 72.1738 50.2969 72.0348 50.1578L70.366 46.8203L68.6973 50.1578C68.5582 50.2969 68.4191 50.4359 68.2801 50.4359L65.2207 50.8531V50.9922L71.0613 51.8266C71.3394 51.8266 71.4785 51.9656 71.4785 52.2438C71.4785 52.3828 71.4785 52.6609 71.3394 52.8L67.1676 56.8328L67.3066 57.3891L70.0879 55.8594C70.227 55.7203 70.5051 55.7203 70.6441 55.8594L73.8426 57.5281L73.2863 53.9125C73.2863 53.7734 73.2863 53.6344 73.4254 53.4953Z" fill="white"/>
<path id="Vector_11" d="M34.3496 52.8001L29.3434 52.1048C29.2043 52.1048 29.0652 51.9658 28.9262 51.8267L26.7012 47.3767L24.4762 51.8267C24.3371 51.9658 24.198 52.1048 24.059 52.1048L19.0527 52.8001L22.6684 56.2767C22.8074 56.4158 22.8074 56.5548 22.8074 56.833L22.5293 58.5017L21.973 61.8392L26.423 59.4751C26.5621 59.3361 26.7012 59.3361 26.9793 59.4751L31.4293 61.8392L30.5949 56.833C30.5949 56.6939 30.5949 56.4158 30.734 56.2767L34.3496 52.8001Z" fill="white"/>
<path id="Vector_12" d="M17.3836 52.2438C17.3836 51.9656 17.6617 51.8266 17.8008 51.8266L23.6414 50.9922V50.8531L20.582 50.4359C20.443 50.4359 20.3039 50.2969 20.1648 50.1578L18.6352 46.8203L16.9664 50.1578C16.8273 50.2969 16.6883 50.4359 16.5492 50.4359L12.9336 50.9922L15.5758 53.4953C15.7148 53.6344 15.7148 53.7734 15.7148 54.0516L15.1586 57.6672L18.357 55.9984C18.4961 55.8594 18.7742 55.8594 18.9133 55.9984L21.6945 57.5281L21.8336 56.9719L17.6617 52.9391C17.3836 52.6609 17.3836 52.3828 17.3836 52.2438Z" fill="white"/>
</g>
</g>
</g>
</g>
<defs>
<clipPath id="clip0_12566_13545">
<rect width="89" height="89" fill="white" transform="translate(0 0.929688)"/>
</clipPath>
</defs>
</svg>
