<svg width="33" height="30" viewBox="0 0 33 30" fill="none" xmlns="http://www.w3.org/2000/svg">
<g id="contact_9243036 1" clip-path="url(#clip0_12658_4171)">
<g id="Group">
<path id="Vector" d="M32.3977 11.4424C32.3259 11.3331 30.6043 8.73522 27.8008 6.09956C26.1451 4.54304 24.4558 3.30066 22.7796 2.40685C20.6536 1.27311 18.5409 0.698242 16.5 0.698242C14.4591 0.698242 12.3464 1.27305 10.2204 2.40673C8.54427 3.30054 6.8549 4.54291 5.19928 6.09944C2.39572 8.7351 0.674219 11.333 0.602281 11.4423C0.465906 11.6495 0.465906 11.9176 0.602281 12.1248C0.668781 12.2259 2.26128 14.6298 4.87665 17.1601C6.41965 18.6528 7.99859 19.8763 9.56952 20.7964C11.456 21.9012 13.3383 22.5708 15.1697 22.7893C16.1313 26.5292 19.5416 29.3018 23.5894 29.3018C28.3814 29.3018 32.2801 25.416 32.2801 20.6397C32.2801 18.4834 31.4855 16.5087 30.1729 14.9911C31.563 13.3874 32.3624 12.1785 32.3977 12.1248C32.5341 11.9176 32.5341 11.6497 32.3977 11.4424ZM28.0383 16.2052C28.1604 16.3266 28.3203 16.3874 28.4801 16.3874C28.6401 16.3874 28.8002 16.3265 28.9222 16.2049L29.2718 15.8565C30.242 17 30.8719 18.4392 31.0041 20.0172H30.5059C30.1608 20.0172 29.8809 20.296 29.8809 20.6398C29.8809 20.9836 30.1608 21.2623 30.5059 21.2623H31.0041C30.8719 22.8403 30.242 24.2796 29.2718 25.4231L28.9223 25.0747C28.6783 24.8315 28.2825 24.8314 28.0384 25.0744C27.7942 25.3174 27.7941 25.7116 28.0381 25.9548L28.3883 26.3039C27.2411 27.2711 25.7974 27.8991 24.2144 28.0309V27.534C24.2144 27.1902 23.9346 26.9114 23.5894 26.9114C23.2443 26.9114 22.9644 27.1902 22.9644 27.534V28.0309C21.3814 27.8991 19.9378 27.2711 18.7906 26.3039L19.1408 25.9548C19.3848 25.7116 19.3846 25.3174 19.1405 25.0743C18.8963 24.8314 18.5006 24.8315 18.2566 25.0747L17.9071 25.4231C16.9369 24.2796 16.307 22.8403 16.1748 21.2623H16.673C17.0181 21.2623 17.298 20.9836 17.298 20.6398C17.298 20.296 17.0181 20.0172 16.673 20.0172H16.1748C16.307 18.4392 16.9369 17.0001 17.9071 15.8565L18.2566 16.2049C18.3787 16.3265 18.5387 16.3874 18.6988 16.3874C18.8586 16.3874 19.0185 16.3266 19.1406 16.2052C19.3847 15.9622 19.3849 15.568 19.1409 15.3248L18.7907 14.9757C19.9378 14.0085 21.3815 13.3805 22.9645 13.2487V13.7456C22.9645 14.0894 23.2443 14.3681 23.5895 14.3681C23.9347 14.3681 24.2145 14.0894 24.2145 13.7456V13.2487C25.7975 13.3805 27.2412 14.0085 28.3883 14.9757L28.0381 15.3248C27.7941 15.568 27.7942 15.9621 28.0383 16.2052ZM16.5 14.4348C15.0337 14.4348 13.8408 13.2455 13.8408 11.7836C13.8408 10.3219 15.0337 9.13254 16.5 9.13254C17.9663 9.13254 19.1593 10.3219 19.1593 11.7836C19.1593 13.2455 17.9663 14.4348 16.5 14.4348ZM21.7483 11.7837C21.7483 11.9169 21.7583 12.0431 21.7794 12.1666C21.2755 12.2735 20.7876 12.4239 20.3199 12.6139C20.3784 12.3463 20.4093 12.0685 20.4093 11.7836C20.4093 9.63526 18.6556 7.88742 16.5 7.88742C14.3445 7.88742 12.5908 9.63526 12.5908 11.7836C12.5908 13.9215 14.3272 15.6627 16.4682 15.6798C15.9066 16.4784 15.4766 17.3754 15.21 18.3392C12.1 17.7624 9.81121 15.0261 9.81121 11.7838C9.81121 8.10719 12.8118 5.11604 16.5 5.11604C19.4164 5.11604 21.9651 6.97936 22.8574 9.70343C22.1772 10.1644 21.7483 10.9433 21.7483 11.7837ZM29.2888 14.1056C27.7619 12.7808 25.7681 11.9776 23.5894 11.9776C23.398 11.9776 23.2081 11.9839 23.0197 11.9961C23.0047 11.9281 22.9983 11.86 22.9983 11.7837C22.9983 11.2601 23.328 10.7839 23.8189 10.5988C24.115 10.4871 24.2804 10.1724 24.204 9.86629C23.3223 6.33626 20.1543 3.87086 16.5 3.87086C12.1225 3.87086 8.56121 7.42057 8.56121 11.7837C8.56121 15.6254 11.2755 18.8692 14.966 19.5605C14.9217 19.9141 14.8989 20.2743 14.8989 20.6397C14.8989 20.9303 14.9134 21.2176 14.9416 21.501C11.2381 20.9201 7.93359 18.3781 5.76634 16.2851C3.80565 14.3914 2.41378 12.5296 1.88403 11.7835C2.43872 11.0017 3.9389 8.99645 6.05728 7.00488C8.5134 4.69588 12.319 1.94336 16.5 1.94336C20.6731 1.94336 24.4717 4.68604 26.9235 6.98683C29.048 8.98051 30.5588 10.9992 31.1161 11.7838C30.7971 12.2335 30.1659 13.0875 29.2888 14.1056Z" fill="white"/>
<path id="Vector_2" d="M23.9724 16.3944C23.7469 16.2202 23.4317 16.22 23.2062 16.3944C23.1076 16.4706 20.7891 18.2891 20.7891 20.6401C20.7891 22.9914 23.1076 24.8097 23.2062 24.8859C23.319 24.973 23.4541 25.0166 23.5893 25.0166C23.7245 25.0166 23.8597 24.9731 23.9724 24.8859C24.0711 24.8097 26.3896 22.9913 26.3896 20.6401C26.3896 18.289 24.0711 16.4706 23.9724 16.3944ZM23.5894 23.561C23.0253 23.0168 22.0391 21.8869 22.0391 20.6401C22.0391 19.3932 23.0256 18.2631 23.5893 17.7193C24.1533 18.2635 25.1396 19.3934 25.1396 20.6401C25.1396 21.8871 24.153 23.0172 23.5894 23.561Z" fill="white"/>
</g>
</g>
<defs>
<clipPath id="clip0_12658_4171">
<rect width="32" height="30" fill="white" transform="translate(0.5)"/>
</clipPath>
</defs>
</svg>
