<svg width="31" height="30" viewBox="0 0 31 30" fill="none" xmlns="http://www.w3.org/2000/svg">
<g id="cyber-eye_7436077 1">
<g id="Cyber_Eye">
<g id="Group">
<path id="Vector" d="M19.3387 8.51491L22.6916 4.10314H29.1769C29.4416 4.10314 29.6181 3.88255 29.6181 3.66197C29.6181 3.39726 29.4416 3.22079 29.1769 3.22079H22.471C22.3387 3.22079 22.2063 3.26491 22.1181 3.39726L18.4122 8.29432C17.7063 8.11785 16.9563 8.02961 16.2063 7.9855L17.7946 3.39726C17.8387 3.26491 17.8387 3.13255 17.7505 3.0002C17.6622 2.86785 17.5299 2.82373 17.3975 2.82373H13.2946C13.1622 2.82373 13.0299 2.91197 12.9416 3.0002C12.8534 3.13255 12.8534 3.26491 12.8975 3.39726L14.4858 8.02961C7.47105 8.7355 2.04458 15.2649 1.82399 15.5296C1.69164 15.7061 1.69164 15.9267 1.82399 16.1031C2.00046 16.3237 5.79458 20.912 11.0887 22.809L8.30928 26.4708H1.82399C1.55928 26.4708 1.38281 26.6914 1.38281 26.912C1.38281 27.1326 1.55928 27.3531 1.82399 27.3531H8.52987C8.66222 27.3531 8.79458 27.309 8.88281 27.1767L12.0152 23.0737C13.2505 23.4267 14.574 23.6031 15.5005 23.6031C20.4858 23.912 26.5299 19.809 29.574 16.059C29.7063 15.8826 29.7063 15.662 29.574 15.4855C29.3093 15.2649 25.1181 10.2355 19.3387 8.51491ZM16.7358 3.70608L15.324 7.80903L13.9122 3.70608H16.7358ZM15.6769 22.7649C14.6181 22.7649 13.6475 22.5443 12.7652 22.1031L13.1181 21.662C13.2505 21.4855 13.2505 21.1767 13.0299 21.0443C12.8534 20.912 12.5446 20.912 12.4122 21.1326L11.971 21.7061C10.0299 20.4708 8.70634 18.309 8.70634 15.8384C8.70634 12.309 11.3534 9.39726 14.7505 8.95608L14.8828 9.35314C14.9269 9.52961 15.1034 9.66197 15.2799 9.66197C15.4563 9.66197 15.6328 9.52961 15.6769 9.35314L15.8534 8.91197C16.5152 8.91197 17.1769 9.04432 17.7946 9.26491C17.7946 9.39726 17.8828 9.4855 17.971 9.57373C18.1475 9.70608 18.3681 9.70608 18.5446 9.52961C20.9269 10.6326 22.6034 13.059 22.6034 15.8384C22.6034 19.6326 19.5152 22.7649 15.6769 22.7649ZM2.75046 15.7943C3.58869 14.8678 6.45634 11.8237 10.3387 10.1031C8.79458 11.5149 7.86811 13.5443 7.86811 15.7943C7.86811 18.0443 8.79458 20.0737 10.3387 21.4855C6.45634 19.7649 3.54458 16.7649 2.75046 15.7943Z" fill="white"/>
<path id="Vector_2" d="M15.0595 13.1472V10.4561C14.0448 10.5884 13.0742 10.9855 12.3242 11.6031L14.2213 13.5002C14.486 13.3237 14.7507 13.2355 15.0595 13.1472Z" fill="white"/>
<path id="Vector_3" d="M13.339 14.3824L11.442 12.4854C10.8243 13.2354 10.4273 14.2059 10.2949 15.2206H12.9861C13.0743 14.9118 13.1626 14.603 13.339 14.3824Z" fill="white"/>
<path id="Vector_4" d="M12.9861 16.4561H10.2949C10.4273 17.4708 10.8243 18.4413 11.442 19.1913L13.339 17.2943C13.1626 17.0296 13.0743 16.7208 12.9861 16.4561Z" fill="white"/>
<path id="Vector_5" d="M12.3242 20.0294C13.1183 20.647 14.0448 21.0441 15.0595 21.1764V18.4853C14.7507 18.397 14.486 18.3088 14.2213 18.1323L12.3242 20.0294Z" fill="white"/>
<path id="Vector_6" d="M16.2949 18.4853V21.1764C17.3096 21.0441 18.2361 20.647 19.0302 20.0294L17.1332 18.1323C16.8685 18.3088 16.5596 18.397 16.2949 18.4853Z" fill="white"/>
<path id="Vector_7" d="M18.3236 16.4561C18.2354 16.7649 18.1472 17.0296 17.9707 17.2943L19.8678 19.1913C20.4854 18.4413 20.8825 17.4708 21.0148 16.4561H18.3236Z" fill="white"/>
<path id="Vector_8" d="M19.0302 11.6031C18.2802 10.9855 17.3096 10.5884 16.2949 10.4561V13.1472C16.6037 13.1913 16.8685 13.3237 17.1332 13.5002L19.0302 11.6031Z" fill="white"/>
<path id="Vector_9" d="M18.3236 15.1767H21.0148C20.8825 14.162 20.4854 13.1914 19.8678 12.4414L17.9707 14.3385C18.1472 14.6032 18.2795 14.912 18.3236 15.1767Z" fill="white"/>
<path id="Vector_10" d="M17.2206 15.1765C17.2206 15.1765 17.2206 15.1324 17.1765 15.1324C16.8235 14.2941 15.8529 13.8971 15.0147 14.25H14.9706C14.9265 14.2941 14.8382 14.2941 14.7941 14.3382C15.1029 14.3382 15.3676 14.6029 15.3676 14.9118C15.3676 15.2206 15.1029 15.4853 14.7941 15.4853C14.4853 15.4853 14.2206 15.2206 14.2206 14.9118C14.0882 15.1324 14 15.4412 14 15.75C14 16.7206 14.7941 17.4265 15.6765 17.4265C16.8676 17.5147 17.6618 16.2794 17.2206 15.1765Z" fill="white"/>
<path id="Vector_11" d="M29.1773 5.38232H26.2214C25.9567 5.38232 25.7803 5.55879 25.7803 5.8235C25.7803 6.08821 25.9567 6.26468 26.2214 6.26468H29.1773C29.442 6.26468 29.6185 6.08821 29.6185 5.8235C29.6185 5.55879 29.442 5.38232 29.1773 5.38232Z" fill="white"/>
<path id="Vector_12" d="M29.1773 7.36768H27.7214C27.4567 7.36768 27.2803 7.54415 27.2803 7.80885C27.2803 8.07356 27.4567 8.25003 27.7214 8.25003H29.1773C29.442 8.25003 29.6185 8.07356 29.6185 7.80885C29.6185 7.54415 29.442 7.36768 29.1773 7.36768Z" fill="white"/>
<path id="Vector_13" d="M1.82399 25.1914H4.77987C5.04458 25.1914 5.22105 25.015 5.22105 24.7503C5.22105 24.4856 5.04458 24.3091 4.77987 24.3091H1.82399C1.55928 24.3091 1.38281 24.4856 1.38281 24.7503C1.38281 25.015 1.55928 25.1914 1.82399 25.1914Z" fill="white"/>
<path id="Vector_14" d="M1.82399 23.2061H3.27987C3.54458 23.2061 3.72105 23.0296 3.72105 22.7649C3.72105 22.5002 3.54458 22.3237 3.27987 22.3237H1.82399C1.55928 22.3237 1.38281 22.5002 1.38281 22.7649C1.38281 23.0296 1.55928 23.2061 1.82399 23.2061Z" fill="white"/>
<path id="Vector_15" d="M23.309 26.9118C23.5296 26.9118 23.7502 26.7353 23.7502 26.4706V24.3089C23.7502 24.0883 23.5737 23.8677 23.309 23.8677H21.1472C20.9266 23.8677 20.7061 24.0441 20.7061 24.3089V26.4706C20.7061 26.7353 20.8825 26.9118 21.1472 26.9118H23.309Z" fill="white"/>
<path id="Vector_16" d="M26.9268 26.9121C27.765 26.9121 28.4268 26.2503 28.4268 25.4121C28.4268 24.5739 27.765 23.9121 26.9268 23.9121C26.5297 23.9121 26.1326 24.0886 25.8679 24.3533C25.6032 24.6621 25.4268 25.015 25.4268 25.4121C25.4268 26.2503 26.0885 26.9121 26.9268 26.9121Z" fill="white"/>
<path id="Vector_17" d="M23.5295 27.4854H20.9265C20.6618 27.4854 20.4854 27.6618 20.4854 27.9265C20.4854 28.1912 20.6618 28.3677 20.9265 28.3677H23.5295C23.7942 28.3677 23.9706 28.1912 23.9706 27.9265C23.9706 27.6618 23.7501 27.4854 23.5295 27.4854Z" fill="white"/>
<path id="Vector_18" d="M28.2502 27.4854H25.6472C25.3825 27.4854 25.2061 27.6618 25.2061 27.9265C25.2061 28.1912 25.3825 28.3677 25.6472 28.3677H28.2502C28.5149 28.3677 28.6913 28.1912 28.6913 27.9265C28.6913 27.6618 28.4708 27.4854 28.2502 27.4854Z" fill="white"/>
<path id="Vector_19" d="M2.92659 4.54409C3.7207 4.54409 4.38247 3.88232 4.38247 3.08821C4.38247 2.29409 3.76482 1.63232 2.92659 1.63232C2.08835 1.63232 1.4707 2.24997 1.4707 3.08821C1.4707 3.92644 2.13247 4.54409 2.92659 4.54409ZM2.92659 2.51468C3.23541 2.51468 3.50012 2.77938 3.50012 3.08821C3.50012 3.39703 3.23541 3.66174 2.92659 3.66174C2.61776 3.66174 2.35306 3.39703 2.35306 3.08821C2.35306 2.73527 2.61776 2.51468 2.92659 2.51468Z" fill="white"/>
<path id="Vector_20" d="M6.45588 4.50014C7.25 4.50014 7.91176 3.83838 7.91176 3.04426C7.91176 2.25014 7.25 1.58838 6.45588 1.58838C5.66176 1.58838 5 2.25014 5 3.04426C5 3.83838 5.66176 4.50014 6.45588 4.50014Z" fill="white"/>
<path id="Vector_21" d="M10.0301 4.54409C10.8242 4.54409 11.486 3.88232 11.486 3.08821C11.486 2.29409 10.8242 1.63232 10.0301 1.63232C9.23598 1.63232 8.57422 2.29409 8.57422 3.08821C8.57422 3.88232 9.19187 4.54409 10.0301 4.54409ZM10.0301 2.51468C10.3389 2.51468 10.6036 2.77938 10.6036 3.08821C10.6036 3.39703 10.3389 3.66174 10.0301 3.66174C9.72128 3.66174 9.45657 3.39703 9.45657 3.08821C9.45657 2.73527 9.67716 2.51468 10.0301 2.51468Z" fill="white"/>
</g>
</g>
</g>
</svg>
