<svg width="60" height="47" viewBox="0 0 60 47" fill="none" xmlns="http://www.w3.org/2000/svg">
<path d="M0 25.4868C0 18.475 6.36567 13.185 13.259 14.4681L37.8716 19.0497C41.4239 19.7109 44 22.8108 44 26.4242C44 30.2484 41.123 33.4604 37.3219 33.8801L12.4377 36.627C5.80113 37.3596 0 32.1636 0 25.4868Z" fill="#33D9FF"/>
<circle cx="36.5" cy="23.5" r="23.5" fill="#F9F9F9"/>
<rect x="23" y="10" width="28" height="28" rx="14" fill="white"/>
<path d="M37.0002 35.6663C43.4435 35.6663 48.6668 30.443 48.6668 23.9997C48.6668 17.5564 43.4435 12.333 37.0002 12.333C30.5568 12.333 25.3335 17.5564 25.3335 23.9997C25.3335 30.443 30.5568 35.6663 37.0002 35.6663Z" stroke="#222D30" stroke-width="2" stroke-linecap="round" stroke-linejoin="round"/>
<path d="M34.6665 19.333L41.6665 23.9997L34.6665 28.6663V19.333Z" stroke="#222D30" stroke-width="2" stroke-linecap="round" stroke-linejoin="round"/>
</svg>
