<svg width="25" height="25" viewBox="0 0 25 25" fill="none" xmlns="http://www.w3.org/2000/svg">
<g id="communication_9406215 1" clip-path="url(#clip0_12845_1117)">
<g id="Group">
<path id="Vector" d="M13.0011 2.32203C11.6192 1.14687 9.78875 0.5 7.84719 0.5C5.90563 0.5 4.07562 1.14687 2.69375 2.32203C1.27906 3.52437 0.5 5.13312 0.5 6.85156C0.5 8.57 1.27906 10.1788 2.69375 11.3811C4.01281 12.5028 5.74062 13.1431 7.58375 13.1994L10.5481 15.7227C10.757 15.9013 11.0514 15.94 11.2986 15.8258C11.5475 15.7105 11.7069 15.4616 11.7069 15.1873V12.2591C13.8697 11.1064 15.1948 9.07016 15.1948 6.85156C15.1948 5.13312 14.4158 3.52437 13.0011 2.32203ZM5.03469 7.55469C4.64656 7.55469 4.33156 7.23969 4.33156 6.85156C4.33156 6.46344 4.64656 6.14844 5.03469 6.14844C5.42328 6.14844 5.73781 6.46344 5.73781 6.85156C5.73781 7.23969 5.42328 7.55469 5.03469 7.55469ZM7.84719 7.55469C7.45906 7.55469 7.14406 7.23969 7.14406 6.85156C7.14406 6.46344 7.45906 6.14844 7.84719 6.14844C8.23531 6.14844 8.55031 6.46344 8.55031 6.85156C8.55031 7.23969 8.23531 7.55469 7.84719 7.55469ZM10.6597 7.55469C10.2716 7.55469 9.95656 7.23969 9.95656 6.85156C9.95656 6.46344 10.2716 6.14844 10.6597 6.14844C11.0483 6.14844 11.3628 6.46344 11.3628 6.85156C11.3628 7.23969 11.0483 7.55469 10.6597 7.55469Z" fill="white"/>
<path id="Vector_2" d="M24.4998 6.85109C24.4998 8.56953 23.7207 10.1783 22.3061 11.3811C20.9242 12.5563 19.0942 13.2031 17.1526 13.2031C15.9817 13.2031 14.8492 12.9669 13.8315 12.5206C15.5283 11.1381 16.6164 9.02108 16.6009 6.85156C16.6044 4.68266 15.6054 2.65058 13.8311 1.1825C14.8487 0.73625 15.9812 0.5 17.1526 0.5C19.0942 0.5 20.9242 1.14688 22.3061 2.32156C23.7207 3.52437 24.4998 5.13313 24.4998 6.85109Z" fill="white"/>
<path id="Vector_3" d="M23.3246 22.8355V23.8489C23.3246 24.2084 23.0331 24.5 22.6736 24.5H15.1623C14.8028 24.5 14.5107 24.2084 14.5107 23.8489V22.8355C14.5107 21.59 15.0531 20.4242 15.9559 19.6189C16.6707 20.4566 17.7334 20.9886 18.9179 20.9886C20.1025 20.9886 21.1651 20.4566 21.88 19.6189C22.7828 20.4242 23.3246 21.59 23.3246 22.8355Z" fill="white"/>
<g id="Group_2">
<path id="Vector_4" d="M2.04687 24.5H10.1572C10.5453 24.5 10.8603 24.185 10.8603 23.7969V23.4997C10.8603 22.0011 10.1337 20.6094 8.95156 19.7445C8.3975 20.3412 7.65875 20.7636 6.82672 20.9211V22.2762C6.82672 22.6644 6.51219 22.9794 6.12359 22.9794C6.11656 22.9794 6.10906 22.9794 6.10203 22.9789C5.72375 22.9676 5.42047 22.6573 5.42047 22.2762V20.9286C4.57109 20.7781 3.81641 20.3515 3.2525 19.7445C2.07031 20.6094 1.34375 22.0011 1.34375 23.4997V23.7969C1.34375 24.185 1.65875 24.5 2.04687 24.5Z" fill="white"/>
<path id="Vector_5" d="M6.10246 19.5823C7.47365 19.5823 8.58876 18.4669 8.58876 17.0957C8.58876 15.7249 7.4737 14.6094 6.10246 14.6094C4.73127 14.6094 3.61621 15.7249 3.61621 17.0957C3.61616 18.4669 4.73123 19.5823 6.10246 19.5823Z" fill="white"/>
</g>
<path id="Vector_6" d="M18.9179 19.5823C20.2891 19.5823 21.4042 18.4669 21.4042 17.0957C21.4042 15.7249 20.2891 14.6094 18.9179 14.6094C17.5467 14.6094 16.4316 15.7249 16.4316 17.0957C16.4316 18.4669 17.5467 19.5823 18.9179 19.5823Z" fill="white"/>
</g>
</g>
<defs>
<clipPath id="clip0_12845_1117">
<rect width="24" height="24" fill="white" transform="translate(0.5 0.5)"/>
</clipPath>
</defs>
</svg>
