<svg width="40" height="40" viewBox="0 0 40 40" fill="none" xmlns="http://www.w3.org/2000/svg">
<circle cx="20" cy="20" r="20" fill="#0052A0"/>
<g clip-path="url(#clip0_13249_599)">
<path d="M10.7812 15.3125C10.3498 15.3125 10 14.9627 10 14.5312V12.9688C10 11.6764 11.0514 10.625 12.3438 10.625H13.9062C14.3377 10.625 14.6875 10.9748 14.6875 11.4062C14.6875 11.8377 14.3377 12.1875 13.9062 12.1875H12.3438C11.913 12.1875 11.5625 12.538 11.5625 12.9688V14.5312C11.5625 14.9627 11.2127 15.3125 10.7812 15.3125Z" fill="#E1F1FF"/>
<path d="M13.9062 29.375H12.3438C11.0514 29.375 10 28.3236 10 27.0312V25.4688C10 25.0373 10.3498 24.6875 10.7812 24.6875C11.2127 24.6875 11.5625 25.0373 11.5625 25.4688V27.0312C11.5625 27.462 11.913 27.8125 12.3438 27.8125H13.9062C14.3377 27.8125 14.6875 28.1623 14.6875 28.5938C14.6875 29.0252 14.3377 29.375 13.9062 29.375Z" fill="#E1F1FF"/>
<path d="M29.2188 15.3125C28.7873 15.3125 28.4375 14.9627 28.4375 14.5312V12.9688C28.4375 12.538 28.087 12.1875 27.6562 12.1875H26.0938C25.6623 12.1875 25.3125 11.8377 25.3125 11.4062C25.3125 10.9748 25.6623 10.625 26.0938 10.625H27.6562C28.9486 10.625 30 11.6764 30 12.9688V14.5312C30 14.9627 29.6502 15.3125 29.2188 15.3125Z" fill="#E1F1FF"/>
<path d="M27.6562 29.375H26.0938C25.6623 29.375 25.3125 29.0252 25.3125 28.5938C25.3125 28.1623 25.6623 27.8125 26.0938 27.8125H27.6562C28.087 27.8125 28.4375 27.462 28.4375 27.0312V25.4688C28.4375 25.0373 28.7873 24.6875 29.2188 24.6875C29.6502 24.6875 30 25.0373 30 25.4688V27.0312C30 28.3236 28.9486 29.375 27.6562 29.375Z" fill="#E1F1FF"/>
<path d="M20 26.25C17.0011 26.25 14.5239 24.8348 12.9739 23.6475C12.1883 23.0458 11.4497 22.3489 10.8945 21.6855C10 20.6168 10 20.1687 10 20C10 19.8313 10 19.3832 10.8945 18.3145C11.4497 17.651 12.1882 16.9542 12.9739 16.3524C14.5239 15.1652 17.0011 13.75 20 13.75C22.9989 13.75 25.4761 15.1652 27.0261 16.3525C27.8117 16.9542 28.5503 17.6511 29.1055 18.3145C30 19.3832 30 19.8313 30 20C30 20.1687 30 20.6168 29.1055 21.6855C28.5503 22.349 27.8118 23.0458 27.0261 23.6476C25.4761 24.8348 22.9989 26.25 20 26.25ZM11.5997 20C11.8259 20.4173 12.7052 21.5163 14.14 22.569C15.4572 23.5354 17.5431 24.6875 20 24.6875C22.4569 24.6875 24.5428 23.5354 25.86 22.569C27.2948 21.5163 28.1741 20.4173 28.4003 20C28.1741 19.5827 27.2948 18.4837 25.86 17.431C24.5428 16.4646 22.4569 15.3125 20 15.3125C17.5431 15.3125 15.4572 16.4646 14.14 17.431C12.7052 18.4837 11.8259 19.5827 11.5997 20Z" fill="#E1F1FF"/>
<path d="M20 23.125C18.7077 23.125 17.6562 22.0736 17.6562 20.7812C17.6562 20.4595 17.7482 19.8732 18.543 18.5031C18.9444 17.8111 19.3405 17.2364 19.3572 17.2122C19.503 17.0011 19.7434 16.875 20 16.875C20.2566 16.875 20.497 17.0011 20.6428 17.2122C20.6595 17.2364 21.0555 17.8111 21.457 18.5031C22.2518 19.8732 22.3438 20.4595 22.3438 20.7812C22.3438 22.0736 21.2923 23.125 20 23.125ZM20 19.1079C19.8243 19.4024 19.2279 20.4409 19.2188 20.7821C19.2188 21.212 19.5692 21.5625 20 21.5625C20.4305 21.5625 20.7809 21.2124 20.7812 20.7819C20.7703 20.4376 20.1767 19.404 20 19.1079Z" fill="#E1F1FF"/>
</g>
<defs>
<clipPath id="clip0_13249_599">
<rect width="20" height="20" fill="white" transform="translate(10 10)"/>
</clipPath>
</defs>
</svg>
