<svg width="81" height="81" viewBox="0 0 81 81" fill="none" xmlns="http://www.w3.org/2000/svg">
<path d="M32.4779 67.5664C16.9641 67.5664 4.5 54.8396 4.5 39.1341C4.5 28.3027 10.3343 18.5545 19.7486 13.6804C23.7265 11.6495 27.9696 10.5664 32.4779 10.5664C39.3729 10.5664 46.0028 13.1388 51.174 17.8776C57.1409 23.2932 60.4558 31.0106 60.4558 39.1341C60.4558 54.8396 47.9917 67.7018 32.4779 67.7018V67.5664ZM20.8094 15.7113C12.058 20.3146 6.75414 29.2505 6.75414 39.1341C6.75414 53.621 18.2901 65.4001 32.4779 65.4001C46.6657 65.4001 58.2017 53.621 58.2017 39.1341C58.2017 31.6875 55.1519 24.6472 49.7155 19.6377C44.942 15.3051 38.9751 13.0035 32.6105 13.0035C28.5 13.0035 24.5221 13.9512 20.942 15.8467L20.8094 15.7113Z" fill="#061014"/>
<path d="M12.721 40.2172C12.721 40.2172 11.5276 39.6757 11.5276 38.9987C11.5276 31.0106 15.9033 23.6994 22.7983 20.0438C25.7154 18.5545 28.8978 17.7422 32.2127 17.7422C32.8757 17.7422 33.406 18.2837 33.406 18.9607C33.406 19.6377 32.8757 20.1792 32.2127 20.1792C29.2955 20.1792 26.3784 20.8562 23.7265 22.2101C17.4944 25.4595 13.6491 31.9583 13.6491 39.1341C13.6491 39.8111 13.1187 40.3526 12.4558 40.3526L12.721 40.2172Z" fill="#01D0FF"/>
<path d="M54.6216 55.5166C46.7984 54.8396 40.699 47.6638 40.699 38.9988C40.699 30.3337 46.7984 23.1579 54.6216 22.481C55.0194 22.481 55.4172 22.6163 55.6824 23.0225C58.8647 27.7612 60.4559 33.3123 60.4559 38.9988C60.4559 44.6852 58.7321 50.2363 55.6824 54.975C55.4172 55.2458 55.152 55.5166 54.7542 55.5166H54.6216ZM54.0912 24.918C47.7266 25.7304 42.8205 31.823 42.8205 38.9988C42.8205 46.1745 47.7266 52.2672 54.0912 53.0795C56.7432 48.8824 58.0691 44.0083 58.0691 38.9988C58.0691 33.9893 56.6106 29.1152 53.9586 24.918H54.0912Z" fill="#01D0FF"/>
<path d="M57.6713 46.1745C53.9586 46.1745 51.0415 43.0605 51.0415 39.4049C51.0415 35.7494 54.0912 32.6353 57.6713 32.6353C58.0691 32.6353 58.5995 32.6353 58.9973 32.6353C59.3951 32.6353 59.7929 33.0415 59.9255 33.5831C60.3232 35.4786 60.4558 37.2387 60.4558 39.1342C60.4558 41.165 60.1907 43.1959 59.7929 45.2268C59.7929 45.633 59.3951 46.0392 58.8647 46.1745C58.4669 46.1745 58.0691 46.1745 57.6713 46.1745ZM57.6713 34.8016C55.2846 34.8016 53.2956 36.8325 53.2956 39.2696C53.2956 41.7066 55.2846 43.7375 57.8039 43.7375C58.0691 42.1128 58.2017 40.6235 58.2017 38.9988C58.2017 37.6448 58.2017 36.1555 57.8039 34.6662L57.6713 34.8016Z" fill="#01D0FF"/>
<path d="M75.4391 40.4881H64.5662C64.5662 40.4881 63.3728 39.9465 63.3728 39.2695C63.3728 38.5926 63.9032 38.051 64.5662 38.051H75.4391C75.4391 38.051 76.6325 38.5926 76.6325 39.2695C76.6325 39.9465 76.1021 40.4881 75.4391 40.4881Z" fill="#061014"/>
<path d="M73.1852 31.0105H62.3122C62.3122 31.0105 61.1189 30.469 61.1189 29.792C61.1189 29.115 61.6493 28.5735 62.3122 28.5735H73.1852C73.1852 28.5735 74.3785 29.115 74.3785 29.792C74.3785 30.469 73.8482 31.0105 73.1852 31.0105Z" fill="#061014"/>
<path d="M73.1852 49.4239H62.3122C62.3122 49.4239 61.1189 48.8823 61.1189 48.2053C61.1189 47.5284 61.6493 46.9868 62.3122 46.9868H73.1852C73.1852 46.9868 74.3785 47.5284 74.3785 48.2053C74.3785 48.8823 73.8482 49.4239 73.1852 49.4239Z" fill="#061014"/>
</svg>
