<svg width="50" height="49" viewBox="0 0 50 49" fill="none" xmlns="http://www.w3.org/2000/svg">
<circle cx="25" cy="24.5" r="24.5" fill="#005DAF"/>
<g clip-path="url(#clip0_12658_4144)">
<path d="M40.5566 22.9367L39.9236 22.1887C35.3856 16.7917 30.5601 14.0527 25.6096 14.0472C18.3586 13.6537 11.7691 21.6772 11.4906 22.0207C11.4906 22.0207 10.7826 22.8992 10.2386 23.5887C9.62907 24.3522 9.64407 25.4332 10.2716 26.1567C15.4546 32.1617 20.7046 33.9677 25.1461 33.9672C27.1211 33.9672 28.9341 33.6087 30.5116 33.1047C30.6386 33.1112 30.7661 33.1177 30.8911 33.1177C35.9861 33.1177 39.2806 28.0967 39.7426 27.3492L40.3796 26.7217C41.4121 25.7092 41.4906 24.0477 40.5566 22.9367ZM31.1256 31.6122C31.1531 30.7987 31.4431 29.7162 32.7166 29.3812C34.3771 28.9412 35.1486 27.9497 35.5051 27.1912C35.7536 26.6547 36.3046 26.2192 36.9111 26.2192C37.0646 26.2192 37.2216 26.2472 37.3786 26.3087C37.7571 26.4587 38.0661 26.6572 38.2626 26.8697C37.4711 28.0202 34.8056 31.4627 31.1256 31.6122ZM39.3281 25.6522L39.2451 25.7342C38.8096 25.3142 38.2821 25.0532 37.9281 24.9132C36.4941 24.3512 34.8321 25.0747 34.1456 26.5577C33.8271 27.2347 33.2176 27.6967 32.3336 27.9312C30.3066 28.4642 29.6121 30.1832 29.6251 31.8077C24.9406 33.1712 18.1491 32.9882 11.4056 25.1747C11.2526 24.9987 11.2551 24.7192 11.4131 24.5212C12.5486 23.0827 13.7021 21.7282 15.0541 20.4887C16.7491 18.9357 18.6361 17.5317 20.7396 16.5827C22.2976 15.8792 23.8736 15.5442 25.5781 15.5462C30.0951 15.5517 34.5356 18.1112 38.7771 23.1557L39.4101 23.9037C39.8406 24.4162 39.8056 25.1842 39.3281 25.6522Z" fill="white"/>
<path d="M25.5042 17.2275C22.0162 17.2275 19.1787 20.065 19.1787 23.553C19.1787 27.041 22.0162 29.8785 25.5042 29.8785C28.9922 29.8785 31.8297 27.041 31.8297 23.553C31.8297 20.065 28.9922 17.2275 25.5042 17.2275ZM29.3457 24.303H30.2657C30.1547 25.008 29.8962 25.6645 29.5137 26.234L28.8157 25.5675C28.5157 25.2815 28.0417 25.2925 27.7552 25.592C27.4692 25.892 27.4802 26.3665 27.7797 26.6525L28.4932 27.334C27.8567 27.838 27.0912 28.1825 26.2542 28.314V27.394C26.2542 26.98 25.9187 26.644 25.5042 26.644C25.0897 26.644 24.7542 26.98 24.7542 27.394V28.314C23.9357 28.1855 23.1862 27.8525 22.5582 27.366L23.3052 26.653C23.6047 26.367 23.6162 25.8925 23.3297 25.5925C23.0432 25.293 22.5692 25.2825 22.2692 25.568L21.5252 26.278C21.1267 25.6985 20.8562 25.0265 20.7427 24.303H21.6627C22.0772 24.303 22.4127 23.9675 22.4127 23.553C22.4127 23.1385 22.0772 22.803 21.6627 22.803H20.7427C20.8537 22.0975 21.1127 21.4415 21.4947 20.872L22.1927 21.5385C22.3382 21.677 22.5242 21.746 22.7107 21.746C22.9087 21.746 23.1057 21.668 23.2532 21.514C23.5392 21.2145 23.5282 20.74 23.2287 20.4535L22.5152 19.7725C23.1517 19.268 23.9177 18.9235 24.7542 18.792V19.712C24.7542 20.1265 25.0897 20.462 25.5042 20.462C25.9187 20.462 26.2542 20.1265 26.2542 19.712V18.792C27.0727 18.9205 27.8222 19.2535 28.4507 19.74L27.7032 20.4535C27.4037 20.7395 27.3927 21.214 27.6787 21.514C27.8262 21.6685 28.0232 21.746 28.2212 21.746C28.4072 21.746 28.5937 21.677 28.7392 21.5385L29.4832 20.8285C29.8817 21.4085 30.1522 22.08 30.2657 22.8035H29.3457C28.9317 22.8035 28.5957 23.139 28.5957 23.5535C28.5957 23.968 28.9317 24.303 29.3457 24.303Z" fill="white"/>
<path d="M25.5043 24.4257C25.9862 24.4257 26.3768 24.035 26.3768 23.5532C26.3768 23.0713 25.9862 22.6807 25.5043 22.6807C25.0225 22.6807 24.6318 23.0713 24.6318 23.5532C24.6318 24.035 25.0225 24.4257 25.5043 24.4257Z" fill="white"/>
</g>
<defs>
<clipPath id="clip0_12658_4144">
<rect width="32" height="32" fill="white" transform="translate(9.5 8)"/>
</clipPath>
</defs>
</svg>
