<svg width="20" height="20" viewBox="0 0 20 20" fill="none" xmlns="http://www.w3.org/2000/svg">
<g clip-path="url(#clip0_1658_5491)">
<path d="M-0.333252 17.334L4.77075 6.05398H6.49875L11.6667 17.334H9.57075L8.19475 14.166L9.02675 14.726H2.25875L3.12275 14.166L1.74675 17.334H-0.333252ZM5.61875 8.26198L3.36275 13.606L2.94675 13.11H8.32275L7.98675 13.606L5.68275 8.26198H5.61875Z" fill="#677578"/>
<path d="M14.5154 17.3065C13.8994 17.3065 13.358 17.1618 12.8914 16.8725C12.4247 16.5738 12.0607 16.1492 11.7994 15.5985C11.538 15.0478 11.4074 14.3898 11.4074 13.6245C11.4074 12.8592 11.538 12.2058 11.7994 11.6645C12.0607 11.1138 12.4247 10.6938 12.8914 10.4045C13.358 10.1058 13.8994 9.9565 14.5154 9.9565C15.1127 9.9565 15.6354 10.1058 16.0834 10.4045C16.5407 10.6938 16.844 11.0858 16.9934 11.5805H16.8394L16.9934 10.0965H18.6734C18.6454 10.3858 18.6174 10.6798 18.5894 10.9785C18.5707 11.2772 18.5614 11.5712 18.5614 11.8605V17.1665H16.8254L16.8114 15.7105H16.9794C16.83 16.1958 16.5267 16.5832 16.0694 16.8725C15.612 17.1618 15.094 17.3065 14.5154 17.3065ZM15.0054 15.9625C15.556 15.9625 15.9994 15.7712 16.3354 15.3885C16.6714 14.9965 16.8394 14.4085 16.8394 13.6245C16.8394 12.8405 16.6714 12.2572 16.3354 11.8745C15.9994 11.4918 15.556 11.3005 15.0054 11.3005C14.4547 11.3005 14.0114 11.4918 13.6754 11.8745C13.3394 12.2572 13.1714 12.8405 13.1714 13.6245C13.1714 14.4085 13.3347 14.9965 13.6614 15.3885C13.9974 15.7712 14.4454 15.9625 15.0054 15.9625Z" fill="#677578"/>
</g>
<defs>
<clipPath id="clip0_1658_5491">
<rect width="20" height="20" fill="white"/>
</clipPath>
</defs>
</svg>
