<svg width="40" height="42" viewBox="0 0 40 42" fill="none" xmlns="http://www.w3.org/2000/svg">
<path d="M12.3687 21.0368C12.3687 25.501 15.7424 29.2415 19.9999 29.2415C24.1877 29.2415 27.6312 25.5026 27.6312 21.0368C27.6312 16.5711 24.1877 12.8322 19.9999 12.8322C15.8122 12.8322 12.3687 16.5711 12.3687 21.0368ZM14.0305 20.9632C14.0305 17.4006 16.738 14.5106 19.9999 14.5106C23.2619 14.5106 25.9694 17.4006 25.9694 20.9632C25.9694 24.5258 23.2619 27.4157 19.9999 27.4157C16.738 27.4157 14.0305 24.5258 14.0305 20.9632Z" fill="#01D0FF" stroke="#01D0FF" stroke-width="0.5" stroke-miterlimit="10"/>
<path d="M20.0001 33.1162C7.83458 33.1162 1.95688 21.4051 1.88854 21.3315C1.82019 21.1841 1.82019 20.9632 1.88854 20.7422C1.88854 20.5949 7.76624 8.95752 19.9317 8.95752C32.0972 8.95752 37.9749 20.6686 37.9749 20.7422C38.0432 20.8895 38.0432 21.1105 37.9749 21.3315C37.9749 21.4788 32.0972 33.1162 19.9317 33.1162H20.0001ZM3.11876 21.0368C4.07559 22.8045 9.61156 31.864 20.0001 31.864C30.3885 31.864 35.9245 22.8045 36.8813 21.0368C35.9245 19.2691 30.3885 10.2096 20.0001 10.2096C9.61156 10.2096 4.07559 19.2691 3.11876 21.0368Z" fill="#061014" fill-opacity="0.9"/>
<path d="M1.67839 21.4725L1.66176 21.4367C1.55997 21.2173 1.57037 20.9337 1.64561 20.6818C1.64706 20.6756 1.64831 20.6712 1.64884 20.6694L1.64902 20.6688C1.65214 20.6577 1.65558 20.6479 1.65815 20.6409C1.66346 20.6264 1.66997 20.6108 1.67663 20.5955C1.69026 20.5643 1.70935 20.5236 1.7333 20.475C1.78146 20.3774 1.8525 20.2412 1.94628 20.0722C2.13398 19.7341 2.41462 19.2616 2.789 18.7C3.53757 17.5771 4.66321 16.0945 6.17317 14.616C9.1926 11.6595 13.7627 8.70752 19.9317 8.70752C26.1012 8.70752 30.6714 11.6784 33.6905 14.6439C35.2004 16.1269 36.3259 17.6117 37.0742 18.7308C37.4485 19.2905 37.7289 19.7595 37.9163 20.0919C38.01 20.2581 38.0807 20.3906 38.1284 20.4837C38.1522 20.5301 38.1707 20.5676 38.1837 20.5951C38.19 20.6086 38.1959 20.6214 38.2006 20.6324C38.2027 20.6373 38.2056 20.6443 38.2085 20.6521C38.2086 20.6526 38.2088 20.653 38.2089 20.6534C38.2098 20.6559 38.2112 20.6598 38.2127 20.6647C38.2136 20.6674 38.2145 20.6703 38.2154 20.6735C38.2158 20.675 38.2249 20.7045 38.2249 20.7422H37.9749C38.0432 20.8895 38.0432 21.1105 37.9749 21.3315L1.67839 21.4725ZM1.67839 21.4725L1.68716 21.482L1.69339 21.4931L1.75088 21.5971C1.80126 21.688 1.8748 21.8193 1.9715 21.985C2.16488 22.3163 2.45057 22.7846 2.82954 23.3441C3.5872 24.4626 4.71892 25.9471 6.23294 27.43C9.2492 30.3843 13.7967 33.3442 19.9317 33.366V33.3662H20.0001V33.366C26.1345 33.3443 30.682 30.4032 33.6902 27.4577C35.2002 25.9792 36.3258 24.4965 37.0744 23.3736C37.4488 22.812 37.7294 22.3396 37.9171 22.0015C38.0109 21.8325 38.082 21.6963 38.1301 21.5986C38.1541 21.5501 38.1732 21.5094 38.1868 21.4782C38.1934 21.4629 38.1999 21.4473 38.2053 21.4328C38.2078 21.4258 38.2113 21.416 38.2144 21.4049C38.2148 21.4036 38.2162 21.399 38.2178 21.3919L1.67839 21.4725ZM20.0001 31.614C14.884 31.614 10.9595 29.3845 8.18844 26.9263C5.53197 24.5697 3.94587 22.0113 3.40394 21.0368C3.94587 20.0624 5.53197 17.504 8.18844 15.1474C10.9595 12.6891 14.884 10.4596 20.0001 10.4596C25.1161 10.4596 29.0406 12.6891 31.8117 15.1474C34.4681 17.504 36.0542 20.0624 36.5962 21.0368C36.0542 22.0113 34.4681 24.5697 31.8117 26.9263C29.0406 29.3845 25.1161 31.614 20.0001 31.614Z" stroke="#061014" stroke-opacity="0.9" stroke-width="0.5" stroke-miterlimit="10"/>
<path d="M19.9317 23.7911C21.3856 23.7911 22.5054 22.5564 22.5054 21.0368C22.5054 19.5173 21.3856 18.2826 19.9317 18.2826C18.4777 18.2826 17.3579 19.5173 17.3579 21.0368C17.3579 22.5564 18.4777 23.7911 19.9317 23.7911Z" fill="#01D0FF" stroke="#01D0FF" stroke-width="0.5" stroke-miterlimit="10"/>
<path d="M5.51078 20.0793C4.41725 20.0793 3.46042 19.7111 3.39207 19.6374C3.11869 19.4901 2.91365 19.1218 3.05034 18.8272C3.18704 18.5326 3.52876 18.3116 3.80214 18.4589C3.80214 18.4589 5.57912 19.1955 6.67265 18.4589C8.44963 17.3541 9.54315 17.2068 10.7734 17.2805C11.1151 17.2805 11.3201 17.5751 11.3201 17.9434C11.3201 18.3116 10.9784 18.5326 10.705 18.5326C9.81653 18.4589 8.92804 18.5326 7.28776 19.4901C6.74099 19.8584 6.12588 19.932 5.51078 19.932V20.0793Z" fill="#061014" fill-opacity="0.9"/>
<path d="M5.51078 20.3293H5.76078V20.1776C6.31574 20.1569 6.89312 20.0548 7.42053 19.7021C8.22337 19.234 8.83047 18.989 9.33654 18.8678C9.84083 18.747 10.2567 18.7463 10.6844 18.7817L10.6947 18.7826H10.705C10.9037 18.7826 11.1141 18.7045 11.2766 18.5669C11.4436 18.4255 11.5701 18.2117 11.5701 17.9434C11.5701 17.7154 11.5069 17.4918 11.3715 17.3194C11.2335 17.1436 11.0284 17.0329 10.7815 17.0305C10.1528 16.9933 9.5461 17.012 8.86621 17.1855C8.1856 17.3593 7.44426 17.6848 6.54065 18.2466L6.54056 18.2465L6.53299 18.2516C6.06682 18.5656 5.4294 18.5774 4.86646 18.4882C4.59107 18.4446 4.34699 18.3789 4.17162 18.3239C4.08417 18.2965 4.01442 18.272 3.96711 18.2546C3.94347 18.2459 3.92548 18.2389 3.91373 18.2343L3.9069 18.2316C3.68038 18.1163 3.44102 18.1578 3.2564 18.2573C3.06991 18.3578 2.91351 18.5281 2.82356 18.722C2.71633 18.9531 2.75027 19.198 2.84065 19.3928C2.92682 19.5785 3.07396 19.7426 3.25012 19.8444C3.26446 19.8553 3.27701 19.8631 3.28471 19.8678C3.30445 19.8799 3.32606 19.8913 3.34763 19.9019C3.39111 19.9233 3.4456 19.9466 3.50823 19.9708C3.63411 20.0193 3.80314 20.075 4.0033 20.1277C4.40298 20.233 4.93745 20.3293 5.51078 20.3293Z" stroke="#061014" stroke-opacity="0.9" stroke-width="0.5" stroke-miterlimit="10"/>
<path d="M5.64749 22.9518C3.59713 22.9518 2.23023 21.6261 2.16188 21.5524C1.95684 21.3315 1.8885 20.8895 2.16188 20.6686C2.36692 20.4476 2.77699 20.3739 2.98202 20.6686C3.05037 20.7422 4.759 22.3626 7.0144 21.4788C8.03958 21.1105 9.06476 20.8895 10.0216 20.8895C10.3633 20.8895 10.5684 21.1841 10.5684 21.5524C10.5684 21.9207 10.295 22.1416 9.95325 22.1416C9.1331 22.1416 8.24461 22.289 7.35612 22.6572C6.74102 22.8782 6.12591 23.0255 5.57915 23.0255L5.64749 22.9518Z" fill="#061014" fill-opacity="0.9"/>
<path d="M1.97862 21.7225C2.05898 21.8091 3.25666 22.9705 5.10206 23.1721L5.00612 23.2755H5.57915C6.16666 23.2755 6.81256 23.1181 7.44064 22.8925L7.44074 22.8928L7.45185 22.8882C8.30737 22.5336 9.16299 22.3916 9.95325 22.3916C10.1773 22.3916 10.3939 22.3189 10.5574 22.1699C10.7236 22.0183 10.8184 21.8024 10.8184 21.5524C10.8184 21.3244 10.7551 21.1009 10.6198 20.9285C10.4802 20.7508 10.2721 20.6395 10.0216 20.6395C9.02785 20.6395 7.97333 20.8686 6.92988 21.2435L6.92984 21.2434L6.92318 21.246C5.871 21.6583 4.94932 21.4878 4.27554 21.2025C3.93762 21.0594 3.66356 20.8879 3.47037 20.748C3.37393 20.6782 3.29825 20.6167 3.24549 20.5713C3.20828 20.5393 3.18436 20.5169 3.17301 20.506C3.01306 20.2911 2.77687 20.2125 2.55701 20.2257C2.34465 20.2384 2.13646 20.3355 1.99083 20.4856C1.78718 20.6586 1.72155 20.9051 1.73281 21.1234C1.74413 21.3431 1.83323 21.5658 1.97862 21.7225Z" stroke="#061014" stroke-opacity="0.9" stroke-width="0.5" stroke-miterlimit="10"/>
<path d="M5.92081 26.0454C5.57908 26.0454 5.3057 26.0454 5.3057 25.9717C4.96397 25.898 4.82728 25.5298 4.89563 25.1615C4.96397 24.7932 5.3057 24.6459 5.57908 24.7196C5.57908 24.7196 6.26253 24.8669 7.15102 24.425C8.44958 23.6884 9.95318 23.4675 11.3201 23.7621C11.6618 23.7621 11.8668 24.1303 11.7985 24.4986C11.7302 24.8669 11.4568 25.0878 11.1151 25.0142C10.0215 24.7932 8.79131 25.0142 7.69778 25.6034C7.01433 25.9717 6.39922 26.0454 5.92081 26.0454Z" fill="#061014" fill-opacity="0.9"/>
<path d="M5.63428 24.4756C5.24109 24.3754 4.74753 24.5894 4.64982 25.1159C4.60805 25.341 4.62596 25.5794 4.7201 25.7823C4.80487 25.965 4.95239 26.1178 5.16069 26.1903C5.20226 26.2243 5.24611 26.2419 5.27446 26.2514C5.33523 26.2717 5.40495 26.2804 5.46445 26.2853C5.58591 26.2954 5.74798 26.2954 5.91128 26.2954H5.92081C6.42782 26.2954 7.08667 26.2167 7.81637 25.8235C8.86614 25.2579 10.0366 25.0517 11.0641 25.2589C11.3027 25.3099 11.5316 25.2589 11.7118 25.1202C11.8889 24.9839 12.0011 24.7773 12.0443 24.5442C12.0889 24.3039 12.0464 24.0558 11.9257 23.8607C11.807 23.6689 11.6067 23.5229 11.3492 23.5126C9.92982 23.2129 8.37603 23.4447 7.03377 24.2041C6.6255 24.4061 6.26778 24.472 6.01557 24.4885C5.88867 24.4968 5.78836 24.4926 5.72181 24.4867C5.68855 24.4837 5.6638 24.4804 5.64847 24.478L5.63428 24.4756Z" stroke="#061014" stroke-opacity="0.9" stroke-width="0.5" stroke-miterlimit="10"/>
<path d="M9.47477 25.4561C9.47477 25.4561 9.13304 25.3824 8.99635 25.2351L8.65462 24.7932C8.65462 24.7932 8.44959 24.1303 8.72297 23.9093C8.99635 23.6884 9.33808 23.6884 9.54311 23.983L9.88484 24.4249C9.88484 24.4249 10.0899 25.0878 9.81649 25.3088C9.6798 25.3824 9.54311 25.4561 9.47477 25.4561Z" fill="#061014" fill-opacity="0.9"/>
<path d="M9.47477 25.4561L9.42209 25.7005L9.44813 25.7061H9.47477C9.53097 25.7061 9.58177 25.6921 9.61569 25.681C9.65298 25.6687 9.69041 25.6529 9.72483 25.637C9.79168 25.6061 9.86566 25.5663 9.93109 25.531L9.93508 25.5289L9.95556 25.5178L9.97364 25.5032C10.1033 25.3984 10.1615 25.2533 10.1874 25.1279C10.2134 25.0018 10.2119 24.8715 10.2022 24.762C10.1924 24.6506 10.1729 24.5492 10.1564 24.4764C10.148 24.4397 10.1402 24.4094 10.1343 24.3879L10.127 24.3623L10.1248 24.3548L10.1241 24.3524L10.1238 24.3516L10.1238 24.3513L10.1237 24.3512C10.1237 24.3511 10.1237 24.351 9.88484 24.4249L10.1237 24.351L10.1103 24.3078L10.0826 24.272L9.74442 23.8346C9.60172 23.6327 9.39914 23.5176 9.17449 23.5033C8.95427 23.4894 8.74056 23.5737 8.56582 23.7149C8.4362 23.8197 8.37796 23.9648 8.35211 24.0902C8.3261 24.2163 8.32757 24.3466 8.33725 24.4561C8.34709 24.5675 8.36652 24.6689 8.38311 24.7417C8.39148 24.7784 8.39931 24.8087 8.40519 24.8302L8.41243 24.8558L8.41466 24.8633L8.41537 24.8657L8.41561 24.8665L8.41571 24.8668L8.41575 24.8669C8.41577 24.867 8.41579 24.8671 8.65462 24.7932L8.41579 24.8671L8.42916 24.9103L8.45685 24.9461L8.79858 25.388L8.80545 25.3969L8.81309 25.4052C8.92569 25.5265 9.09632 25.598 9.2023 25.6361C9.26153 25.6574 9.31528 25.6732 9.3542 25.6837C9.37379 25.6889 9.38996 25.693 9.40159 25.6957L9.41558 25.699L9.41982 25.7L9.42121 25.7003L9.42171 25.7004L9.42192 25.7004L9.42201 25.7004L9.47477 25.4561Z" stroke="#061014" stroke-opacity="0.9" stroke-width="0.5" stroke-miterlimit="10"/>
<path d="M9.26975 18.6799C9.26975 18.6799 9.06472 18.6799 8.92803 18.6063C8.65465 18.3853 8.5863 18.017 8.79134 17.7224L9.26975 16.9859C9.26975 16.9859 9.81652 16.6176 10.0899 16.8385C10.3633 17.0595 10.4316 17.4278 10.2266 17.7224L9.74817 18.4589C9.74817 18.4589 9.47479 18.7536 9.26975 18.7536V18.6799Z" fill="#061014" fill-opacity="0.9"/>
<path d="M9.93136 18.6291L9.74817 18.4589L9.93143 18.629L9.94609 18.6132L9.95783 18.5951L10.4342 17.8617C10.7165 17.4523 10.6139 16.9406 10.247 16.6441C10.117 16.539 9.96496 16.5136 9.8368 16.5185C9.70999 16.5234 9.58789 16.5582 9.48908 16.5954C9.38845 16.6334 9.2999 16.6786 9.23738 16.7136C9.20578 16.7313 9.17999 16.7468 9.16167 16.7582L9.13982 16.7721L9.13337 16.7763L9.13133 16.7777L9.13061 16.7782L9.13032 16.7783L9.1302 16.7784C9.13015 16.7785 9.13009 16.7785 9.26975 16.9859L9.13009 16.7785L9.08785 16.807L9.0601 16.8497L8.5837 17.5831C8.30145 17.9925 8.40402 18.5042 8.77088 18.8007L8.78896 18.8153L8.80944 18.8263C8.87912 18.8639 8.95415 18.8869 9.01975 18.9014V19.0036H9.26975C9.37679 19.0036 9.47305 18.9665 9.54408 18.9305C9.61809 18.893 9.6856 18.8457 9.74007 18.803C9.79531 18.7597 9.84224 18.7171 9.87519 18.6855C9.89181 18.6696 9.90524 18.6561 9.91479 18.6464L9.9262 18.6345L9.92962 18.6309L9.93073 18.6297L9.93113 18.6293L9.93129 18.6291L9.93136 18.6291Z" stroke="#061014" stroke-opacity="0.9" stroke-width="0.5" stroke-miterlimit="10"/>
<path d="M7.35607 19.8584H6.74096C6.74096 19.8584 6.12585 19.5638 6.12585 19.1955C6.12585 18.8272 6.39924 18.5326 6.74096 18.5326H7.35607C7.35607 18.5326 7.97118 18.8272 7.97118 19.1955C7.97118 19.5638 7.6978 19.8584 7.35607 19.8584Z" fill="#061014" fill-opacity="0.9"/>
<path d="M6.74096 19.8584L6.63297 20.0838L6.68418 20.1084H6.74096H7.35607C7.85315 20.1084 8.22118 19.6839 8.22118 19.1955C8.22118 19.0326 8.1534 18.8944 8.07736 18.7896C8.00093 18.6844 7.90448 18.5966 7.81718 18.5286C7.72871 18.4598 7.64163 18.4052 7.57741 18.368C7.54502 18.3493 7.51776 18.3346 7.49814 18.3243L7.47459 18.3123L7.46759 18.3088L7.46538 18.3078L7.46461 18.3074L7.46431 18.3072L7.46418 18.3072C7.46412 18.3071 7.46406 18.3071 7.35607 18.5326L7.46406 18.3071L7.41285 18.2826H7.35607H6.74096C6.24388 18.2826 5.87585 18.7071 5.87585 19.1955C5.87585 19.3584 5.94363 19.4966 6.01968 19.6013C6.0961 19.7066 6.19255 19.7944 6.27986 19.8623C6.36833 19.9312 6.45541 19.9858 6.51962 20.023C6.55201 20.0417 6.57927 20.0564 6.59889 20.0666L6.62244 20.0787L6.62944 20.0821L6.63165 20.0832L6.63242 20.0836L6.63273 20.0837L6.63285 20.0838C6.63291 20.0838 6.63297 20.0838 6.74096 19.8584Z" stroke="#061014" stroke-opacity="0.9" stroke-width="0.5" stroke-miterlimit="10"/>
<path d="M34.4892 20.0793C33.8741 20.0793 33.2589 19.932 32.7122 19.6374C31.0035 18.6063 30.1834 18.5326 29.2949 18.6799C28.9532 18.6799 28.6798 18.4589 28.6798 18.0907C28.6798 17.7224 28.8848 17.4278 29.2266 17.4278C30.4568 17.3541 31.5503 17.4278 33.3273 18.6063C34.4208 19.2691 36.1978 18.6063 36.1978 18.6063C36.4712 18.4589 36.8129 18.6063 36.9496 18.9745C37.0863 19.2691 36.9496 19.6374 36.6079 19.7847C36.6079 19.7847 35.5827 20.2266 34.4892 20.2266V20.0793Z" fill="#061014" fill-opacity="0.9"/>
<path d="M36.7067 20.0143C36.7068 20.0143 36.7068 20.0143 36.6079 19.7847L36.7068 20.0143C37.1653 19.8167 37.3735 19.3079 37.1806 18.8785C37.0052 18.4192 36.531 18.157 36.0971 18.3768L36.0943 18.3778C36.0824 18.382 36.0643 18.3883 36.0406 18.3962C35.993 18.4119 35.923 18.4341 35.8352 18.4589C35.6592 18.5085 35.4141 18.5679 35.1373 18.6073C34.5731 18.6878 33.931 18.6776 33.461 18.395C32.5566 17.7957 31.8136 17.4691 31.1305 17.3044C30.4485 17.14 29.841 17.1408 29.2185 17.1778C28.9716 17.1802 28.7664 17.2909 28.6284 17.4667C28.493 17.6391 28.4298 17.8627 28.4298 18.0907C28.4298 18.3407 28.5246 18.5566 28.6908 18.7081C28.8542 18.8572 29.0709 18.9299 29.2949 18.9299H29.3155L29.3358 18.9265C29.7565 18.8568 30.1483 18.8408 30.6369 18.9596C31.1321 19.0801 31.7397 19.3425 32.583 19.8515L32.5829 19.8517L32.5936 19.8575C33.104 20.1325 33.6686 20.2869 34.2392 20.3217V20.4766H34.4892C35.0671 20.4766 35.6209 20.3603 36.0262 20.2464C36.2299 20.1891 36.3984 20.1318 36.5165 20.0885C36.5757 20.0669 36.6223 20.0487 36.6546 20.0358C36.6708 20.0293 36.6834 20.0241 36.6922 20.0205L36.7024 20.0162L36.7054 20.0149L36.7063 20.0145L36.7066 20.0144L36.7067 20.0143Z" stroke="#061014" stroke-opacity="0.9" stroke-width="0.5" stroke-miterlimit="10"/>
<path d="M34.3525 22.9519C33.8057 22.9519 33.259 22.8782 32.5755 22.5836C31.687 22.2153 30.7985 22.068 29.9784 22.068C29.6367 22.068 29.3633 21.7734 29.3633 21.4788C29.3633 21.1105 29.6367 20.8159 29.91 20.8159C30.8669 20.8159 31.8921 20.9632 32.9172 21.4051C35.1726 22.289 36.9496 20.5949 36.9496 20.5949C37.1546 20.374 37.5647 20.374 37.7698 20.5949C37.9748 20.8159 37.9748 21.2578 37.7698 21.4788C37.7014 21.4788 36.3345 22.8782 34.2841 22.8782L34.3525 22.9519Z" fill="#061014" fill-opacity="0.9"/>
<path d="M34.3525 23.2019H34.9255L34.8283 23.0971C35.669 23.0007 36.3734 22.696 36.8951 22.3951C37.211 22.2128 37.4619 22.0309 37.6375 21.8953C37.7045 21.8434 37.7617 21.7975 37.8052 21.7625C37.8182 21.7521 37.83 21.7426 37.8405 21.7343C37.8428 21.7324 37.8451 21.7305 37.8473 21.7288H37.8788L37.953 21.6488C38.1095 21.4801 38.1735 21.2472 38.1735 21.0368C38.1735 20.8265 38.1095 20.5935 37.953 20.4249C37.7942 20.2537 37.5686 20.1792 37.3597 20.1792C37.1538 20.1792 36.9317 20.2516 36.7733 20.4175L36.762 20.4278C36.7503 20.4383 36.7322 20.4542 36.7079 20.4747C36.6592 20.5156 36.586 20.5744 36.4909 20.6428C36.3001 20.7798 36.0232 20.9541 35.6802 21.1019C34.9962 21.3968 34.06 21.5831 33.0123 21.1738C31.9504 20.7169 30.8915 20.5659 29.91 20.5659C29.6833 20.5659 29.482 20.6858 29.3443 20.8466C29.2043 21.01 29.1133 21.2329 29.1133 21.4788C29.1133 21.9127 29.4998 22.318 29.9784 22.318C30.7682 22.318 31.6232 22.4598 32.4783 22.8139C33.1969 23.1234 33.7776 23.2019 34.3525 23.2019Z" stroke="#061014" stroke-opacity="0.9" stroke-width="0.5" stroke-miterlimit="10"/>
<path d="M34.0791 26.0453C33.669 26.0453 33.0539 25.9717 32.3021 25.6034C31.2086 25.0142 29.9784 24.7932 28.8849 25.0142C28.5431 25.0142 28.2698 24.8668 28.2014 24.4986C28.2014 24.1303 28.3381 23.8357 28.6798 23.762C29.9784 23.4674 31.5503 23.762 32.8489 24.4249C33.7374 24.9405 34.4208 24.7195 34.4208 24.7195C34.7626 24.6459 35.0359 24.8668 35.1043 25.1615C35.1726 25.5297 35.0359 25.8244 34.6942 25.898C34.6942 25.898 34.4208 25.9717 34.0791 25.9717V26.0453Z" fill="#061014" fill-opacity="0.9"/>
<path d="M34.0791 26.2953H34.3291V26.2103C34.4152 26.2026 34.492 26.192 34.5557 26.1815C34.6163 26.1714 34.6657 26.1613 34.7006 26.1535C34.718 26.1496 34.7319 26.1463 34.7418 26.1439L34.7524 26.1412C34.9867 26.0892 35.1691 25.9551 35.2739 25.7573C35.3759 25.5651 35.3914 25.3383 35.3501 25.1158L35.3503 25.1158L35.3478 25.105C35.253 24.6962 34.8615 24.3688 34.3682 24.4751L34.3559 24.4778L34.3455 24.4812C34.3452 24.4812 34.3448 24.4814 34.3443 24.4815C34.3419 24.4822 34.337 24.4835 34.3299 24.4853C34.3156 24.4888 34.292 24.4941 34.2601 24.4992C34.1962 24.5096 34.0992 24.5197 33.9762 24.5157C33.7314 24.5077 33.3795 24.4438 32.9744 24.2087L32.9746 24.2084L32.9626 24.2023C31.6259 23.5199 29.9944 23.2078 28.6258 23.5179C28.3877 23.5696 28.2099 23.7038 28.0978 23.8917C27.9901 24.0722 27.9514 24.2871 27.9514 24.4986V24.5216L27.9556 24.5442C28.0005 24.7858 28.1186 24.9755 28.2983 25.1C28.4721 25.2204 28.6808 25.2642 28.8849 25.2642H28.9099L28.9344 25.2592C29.9622 25.0515 31.1333 25.2576 32.1835 25.8235L32.1835 25.8236L32.1922 25.8279C32.9828 26.2152 33.6364 26.2953 34.0791 26.2953Z" stroke="#061014" stroke-opacity="0.9" stroke-width="0.5" stroke-miterlimit="10"/>
<path d="M30.5252 25.4561C30.5252 25.4561 30.2518 25.4561 30.1835 25.3088C29.9101 25.0878 29.9101 24.7195 30.1151 24.4249L30.4569 23.983C30.4569 23.983 31.0036 23.6884 31.277 23.9093C31.5504 24.1303 31.5504 24.4986 31.3454 24.7932L31.0036 25.2351C31.0036 25.2351 30.7303 25.4561 30.5252 25.4561Z" fill="#061014" fill-opacity="0.9"/>
<path d="M29.9174 24.272L29.9171 24.2718L29.9099 24.2821C29.6618 24.6386 29.6239 25.1428 29.9891 25.4714C30.0844 25.6131 30.2444 25.6623 30.3218 25.6808C30.3757 25.6937 30.4249 25.6998 30.46 25.7028C30.4778 25.7044 30.4928 25.7052 30.5039 25.7056L30.5177 25.706L30.5223 25.7061L30.524 25.7061L30.5246 25.7061L30.5249 25.7061L30.5251 25.7061C30.5252 25.7061 30.5252 25.7061 30.5252 25.4574V25.7061C30.6999 25.7061 30.8699 25.6188 30.968 25.5611C31.0232 25.5287 31.0703 25.4966 31.1036 25.4727C31.1204 25.4606 31.1339 25.4504 31.1437 25.443L31.1553 25.4339L31.1589 25.4311L31.16 25.4301L31.1605 25.4298L31.1606 25.4297L31.1607 25.4296L31.0036 25.2351L31.1608 25.4295L31.1835 25.4112L31.2014 25.388L31.5431 24.9461L31.5434 24.9463L31.5506 24.936C31.8068 24.5677 31.8388 24.042 31.4342 23.7149C31.3111 23.6154 31.1675 23.5826 31.0431 23.5778C30.9194 23.573 30.7987 23.5951 30.6994 23.6219C30.5987 23.649 30.5098 23.6837 30.4468 23.7112C30.415 23.725 30.389 23.7373 30.3705 23.7465L30.3483 23.7576L30.3417 23.7611L30.3396 23.7622L30.3388 23.7626L30.3385 23.7628L30.3384 23.7628C30.3383 23.7629 30.3383 23.7629 30.4569 23.983L30.3383 23.7629L30.2916 23.7881L30.2591 23.8301L29.9174 24.272Z" stroke="#061014" stroke-opacity="0.9" stroke-width="0.5" stroke-miterlimit="10"/>
<path d="M30.6619 18.6799C30.6619 18.6799 30.3202 18.6063 30.1835 18.3853L29.7051 17.6487C29.7051 17.6487 29.5684 16.9859 29.8418 16.7649C30.1151 16.5439 30.4569 16.6176 30.6619 16.9122L31.1403 17.6487C31.1403 17.6487 31.277 18.3116 31.0036 18.5326C30.9353 18.5326 30.7986 18.6063 30.6619 18.6063V18.6799Z" fill="#061014" fill-opacity="0.9"/>
<path d="M30.6619 18.6799L30.6092 18.9243L30.9119 18.9895V18.8144C30.919 18.8123 30.9257 18.8103 30.932 18.8084C30.947 18.8037 30.9588 18.8 30.9689 18.7968C30.9842 18.7919 30.9956 18.7883 31.0083 18.7848C31.0116 18.7838 31.0143 18.7831 31.0164 18.7826H31.092L31.1608 18.727C31.2848 18.6268 31.3481 18.4887 31.3814 18.3676C31.4151 18.2449 31.4245 18.1169 31.4245 18.0078C31.4245 17.8972 31.4148 17.7962 31.4053 17.7235C31.4005 17.6868 31.3957 17.6566 31.392 17.6351L31.3874 17.6095L31.3859 17.602L31.3855 17.5996L31.3853 17.5988L31.3852 17.5985L31.3852 17.5984C31.3852 17.5983 31.3852 17.5983 31.1403 17.6487L31.3852 17.5983L31.3757 17.5521L31.35 17.5126L30.8716 16.776L30.8717 16.776L30.8671 16.7694C30.7332 16.577 30.5432 16.4413 30.3242 16.3996C30.1019 16.3573 29.8745 16.417 29.6846 16.5705C29.5606 16.6707 29.4973 16.8087 29.464 16.9299C29.4303 17.0526 29.4209 17.1806 29.4209 17.2897C29.4209 17.4003 29.4306 17.5013 29.4401 17.574C29.4449 17.6107 29.4497 17.6409 29.4534 17.6624L29.458 17.688L29.4595 17.6955L29.4599 17.6979L29.4601 17.6987L29.4602 17.699L29.4602 17.6991C29.4602 17.6992 29.4602 17.6992 29.7051 17.6487L29.4602 17.6992L29.4697 17.7454L29.4954 17.7849L29.9725 18.5194C30.0802 18.6917 30.2535 18.7905 30.3716 18.8435C30.4347 18.8719 30.4921 18.8915 30.5339 18.9042C30.5549 18.9106 30.5724 18.9153 30.5853 18.9186L30.6011 18.9225L30.6062 18.9236L30.608 18.924L30.6087 18.9242L30.609 18.9242L30.6091 18.9243C30.6092 18.9243 30.6092 18.9243 30.6619 18.6799Z" stroke="#061014" stroke-opacity="0.9" stroke-width="0.5" stroke-miterlimit="10"/>
<path d="M33.1907 19.8584H32.5756C32.5756 19.8584 31.9604 19.5638 31.9604 19.1955C31.9604 18.8272 32.2338 18.5326 32.5756 18.5326H33.1907C33.1907 18.5326 33.8058 18.8272 33.8058 19.1955C33.8058 19.5638 33.5324 19.8584 33.1907 19.8584Z" fill="#061014" fill-opacity="0.9"/>
<path d="M32.5756 19.8584L32.4676 20.0838L32.5188 20.1084H32.5756H33.1907C33.6877 20.1084 34.0558 19.6839 34.0558 19.1955C34.0558 19.0326 33.988 18.8944 33.9119 18.7896C33.8355 18.6844 33.7391 18.5966 33.6518 18.5286C33.5633 18.4598 33.4762 18.4052 33.412 18.368C33.3796 18.3493 33.3524 18.3346 33.3327 18.3243L33.3092 18.3123L33.3022 18.3088L33.3 18.3078L33.2992 18.3074L33.2989 18.3072L33.2988 18.3072C33.2987 18.3071 33.2987 18.3071 33.1907 18.5326L33.2987 18.3071L33.2474 18.2826H33.1907H32.5756C32.0785 18.2826 31.7104 18.7071 31.7104 19.1955C31.7104 19.3584 31.7782 19.4966 31.8543 19.6013C31.9307 19.7066 32.0271 19.7944 32.1144 19.8623C32.2029 19.9312 32.29 19.9858 32.3542 20.023C32.3866 20.0417 32.4139 20.0564 32.4335 20.0666L32.457 20.0787L32.464 20.0821L32.4662 20.0832L32.467 20.0836L32.4673 20.0837L32.4674 20.0838C32.4675 20.0838 32.4676 20.0838 32.5756 19.8584Z" stroke="#061014" stroke-opacity="0.9" stroke-width="0.5" stroke-miterlimit="10"/>
</svg>
