<svg width="41" height="41" viewBox="0 0 41 41" fill="none" xmlns="http://www.w3.org/2000/svg">
<path d="M27.5439 26.8305C23.9794 26.8305 21.0828 23.5455 21.0828 19.5035C21.0828 15.4615 23.9794 12.1765 27.5439 12.1765C31.1084 12.1765 34.005 15.4615 34.005 19.5035C34.005 23.5455 31.1084 26.8305 27.5439 26.8305ZM27.5439 13.312C24.6051 13.312 22.2077 16.09 22.2077 19.4964C22.2077 22.9028 24.5981 25.6807 27.5439 25.6807C30.4897 25.6807 32.8801 22.9028 32.8801 19.4964C32.8801 16.09 30.4897 13.312 27.5439 13.312Z" fill="#061014" fill-opacity="0.9"/>
<path d="M20.8328 19.5035C20.8328 23.6531 23.8127 27.0805 27.5439 27.0805C31.2751 27.0805 34.255 23.6531 34.255 19.5035C34.255 15.3539 31.2751 11.9265 27.5439 11.9265C23.8127 11.9265 20.8328 15.3539 20.8328 19.5035ZM22.4577 19.4964C22.4577 16.1922 24.7765 13.562 27.5439 13.562C30.3181 13.562 32.6301 16.1919 32.6301 19.4964C32.6301 22.8008 30.3181 25.4307 27.5439 25.4307C24.7697 25.4307 22.4577 22.8008 22.4577 19.4964Z" stroke="#061014" stroke-opacity="0.9" stroke-width="0.5" stroke-miterlimit="10"/>
<path d="M18.2282 35.9857H18.4782V35.9771C28.679 35.8592 36.9898 28.5386 36.9898 19.4964C36.9898 10.3804 28.5429 3.01416 18.2282 3.01416C17.7771 3.01416 17.4158 3.38687 17.4158 3.83547C17.4158 4.28406 17.7771 4.65677 18.2282 4.65677C27.7141 4.65677 35.3649 11.3539 35.3649 19.5035C35.3649 27.653 27.7143 34.3431 18.2282 34.3431C17.7771 34.3431 17.4158 34.7158 17.4158 35.1644C17.4158 35.613 17.7771 35.9857 18.2282 35.9857Z" fill="#01D0FF" stroke="#01D0FF" stroke-width="0.5" stroke-miterlimit="10"/>
<path d="M28.6477 23.4243V23.4243H28.6547V23.4243C30.6231 23.42 32.1669 21.6318 32.1669 19.5036C32.1669 17.3726 30.612 15.583 28.6477 15.583C28.1966 15.583 27.8353 15.9557 27.8353 16.4043C27.8353 16.8529 28.1966 17.2256 28.6477 17.2256C29.6538 17.2256 30.542 18.209 30.542 19.5036C30.542 20.7983 29.6538 21.7817 28.6477 21.7817C27.6416 21.7817 26.7534 20.7983 26.7534 19.5036C26.7534 19.2726 26.7793 19.0518 26.8362 18.8401L26.8362 18.8401L26.8368 18.8376C26.9471 18.41 26.6984 17.9557 26.2576 17.8407C25.8271 17.7266 25.3808 17.9872 25.2696 18.4285L25.512 18.4896M28.6477 23.4243C26.6867 23.42 25.1355 21.6322 25.1355 19.5036C25.1355 19.1406 25.1802 18.7768 25.2699 18.4274L25.512 18.4896M28.6477 23.4243V23.1743V23.1743M28.6477 23.4243V23.1743M25.512 18.4896C25.4277 18.8181 25.3855 19.1609 25.3855 19.5036C25.3855 21.522 26.8511 23.17 28.6477 23.1743M25.512 18.4896L28.6477 23.1743" fill="#01D0FF" stroke="#01D0FF" stroke-width="0.5" stroke-miterlimit="10"/>
<path d="M3.82265 28.4372C3.675 28.4372 3.52033 28.373 3.40784 28.2516C3.19692 28.0231 3.21098 27.6588 3.43596 27.4446C3.43596 27.4446 3.47815 27.4018 3.54142 27.3375C5.09518 25.7593 5.81934 23.524 5.48187 21.3459C5.38344 20.7389 5.34126 20.1176 5.34126 19.4963C5.34829 12.5121 11.4016 6.82764 18.84 6.82764C23.5716 6.82764 28.015 9.19855 30.4405 13.0263C30.6092 13.2905 30.5319 13.6476 30.2718 13.8118C30.0116 13.9832 29.6601 13.9047 29.4984 13.6404C27.2767 10.1412 23.199 7.97025 18.847 7.97025C12.0203 7.96311 6.46615 13.1406 6.46615 19.5035C6.46615 20.0605 6.50834 20.6247 6.5927 21.1745C6.99345 23.7097 6.14977 26.3234 4.34291 28.1587C4.25151 28.2516 4.2023 28.2944 4.2023 28.2944C4.09684 28.3944 3.95623 28.4444 3.82265 28.4444V28.4372Z" fill="#061014" fill-opacity="0.9"/>
<path d="M3.82265 28.6944C4.01426 28.6944 4.21618 28.6239 4.37083 28.4791L4.37916 28.4716C4.38639 28.4651 4.39657 28.4558 4.40961 28.4435C4.43567 28.419 4.47311 28.3828 4.52106 28.3341C6.38307 26.4428 7.25272 23.7499 6.83973 21.1361C6.75738 20.5992 6.71615 20.0479 6.71615 19.5035C6.71615 13.2949 12.1415 8.21323 18.8468 8.22025H18.847C23.1179 8.22025 27.113 10.351 29.2864 13.7729C29.5222 14.1558 30.0303 14.2687 30.4073 14.0219C30.7857 13.7814 30.892 13.2697 30.6517 12.8925C28.1778 8.98845 23.6525 6.57764 18.84 6.57764C11.2786 6.57764 5.09844 12.3595 5.09126 19.4961V19.4963C5.09126 20.1285 5.13414 20.763 5.23495 21.3851C5.55992 23.4843 4.86171 25.6401 3.36327 27.1621L3.28681 27.2398L3.26539 27.2615L3.26038 27.2666C2.94083 27.5742 2.92041 28.0921 3.22413 28.4211L3.22446 28.4215C3.32229 28.5271 3.44334 28.6032 3.57265 28.6462V28.6944H3.82265Z" stroke="#061014" stroke-opacity="0.9" stroke-width="0.5" stroke-miterlimit="10"/>
<path d="M18.84 32.1794C15.0364 32.1794 11.3875 30.6583 8.83544 28.0089C8.83544 28.0089 8.81435 27.9875 8.78622 27.9946C7.94958 29.7585 7.54884 31.4082 7.54181 31.4225C7.46447 31.7295 7.16215 31.9152 6.85984 31.8367C6.55752 31.7581 6.37473 31.451 6.45206 31.1439C6.46612 31.0725 6.88796 29.3729 7.73163 27.5304C7.89334 27.1805 8.21674 26.9306 8.5964 26.8592C8.97605 26.7949 9.36976 26.9234 9.63693 27.2019C11.9851 29.6371 15.3387 31.0297 18.84 31.0297C23.1919 31.0297 27.2697 28.8587 29.4914 25.3595C29.6601 25.0953 30.0046 25.0167 30.2647 25.1881C30.5248 25.3595 30.6022 25.7094 30.4335 25.9736C28.0079 29.7942 23.5646 32.1723 18.833 32.1723L18.84 32.1794Z" fill="#061014" fill-opacity="0.9"/>
<path d="M18.84 32.4294H19.4369L19.4181 32.4104C24.0098 32.2233 28.2708 29.8461 30.6442 26.1082C30.8873 25.7274 30.7752 25.225 30.4023 24.9793C30.0217 24.7286 29.5219 24.8472 29.2806 25.2249L29.2803 25.2255C27.1072 28.6483 23.1115 30.7797 18.84 30.7797C15.4039 30.7797 12.1162 29.4128 9.81705 27.0286C9.49213 26.69 9.01518 26.5347 8.55467 26.6127L8.55466 26.6126L8.55018 26.6135C8.09195 26.6997 7.7007 27.0014 7.50469 27.4256L7.50433 27.4264C6.67224 29.2435 6.24482 30.9248 6.2087 31.0866C6.1004 31.525 6.36233 31.9657 6.79696 32.0786C7.23698 32.193 7.66994 31.9223 7.78251 31.4903L7.78464 31.4828L7.7894 31.4651L7.8046 31.4076C7.81765 31.3585 7.83685 31.2871 7.86228 31.1963C7.91317 31.0148 7.98911 30.7554 8.09074 30.4417C8.27058 29.8866 8.53023 29.1637 8.87291 28.4029C11.4612 30.9666 15.0777 32.4294 18.84 32.4294Z" stroke="#061014" stroke-opacity="0.9" stroke-width="0.5" stroke-miterlimit="10"/>
</svg>
