<svg width="40" height="41" viewBox="0 0 40 41" fill="none" xmlns="http://www.w3.org/2000/svg">
<path d="M36.7192 11.4801C33.7857 4.8443 26.8853 0.566406 19.0681 0.566406C8.55061 0.566406 0 8.40641 0 18.04C0 27.6739 8.55061 35.5139 19.0681 35.5139C19.7431 35.5139 20.4182 35.4717 21.0766 35.4042C21.8598 38.3686 24.5351 40.5664 27.7103 40.5664C31.5023 40.5664 34.5859 37.4506 34.5859 33.619C34.5859 32.137 34.1191 30.7559 33.3274 29.6275C34.7275 28.1706 35.8859 26.4864 36.7192 24.6C38.4194 23.7664 39.5861 21.1306 39.5861 18.04C39.5861 14.9496 38.4194 12.3138 36.7192 11.4801ZM36.0275 23.5306C35.9692 23.5559 35.9109 23.5895 35.8609 23.6317C35.8276 23.6148 35.8026 23.598 35.7609 23.5895L33.5773 23.0759C34.5609 22.0317 35.2108 20.1875 35.2108 18.04C35.2108 15.8927 34.5691 14.0485 33.5773 13.0043L35.7609 12.4906C35.7609 12.4906 35.8276 12.4569 35.8609 12.4485C35.9109 12.4906 35.961 12.5243 36.0275 12.5496C37.1442 12.9622 38.3361 15.0338 38.3361 18.04C38.3361 21.0464 37.1442 23.1095 36.0275 23.5306ZM27.7103 39.3033C25.1685 39.3033 23.0183 37.5939 22.3266 35.2528C22.2683 35.0506 22.2183 34.8486 22.185 34.638C22.1515 34.4359 22.1265 34.2253 22.1099 34.0148C22.1015 33.8886 22.0932 33.7539 22.0932 33.6275C22.0932 32.92 22.2265 32.238 22.4682 31.6148C22.56 31.3622 22.6683 31.1264 22.7933 30.8906C22.9432 30.6128 23.1183 30.36 23.3099 30.1075C24.3433 28.7939 25.9352 27.9433 27.7186 27.9433C27.727 27.9433 27.7353 27.9433 27.7436 27.9433C28.0603 27.9433 28.3687 27.977 28.6686 28.0275C28.927 28.0695 29.1772 28.1286 29.4188 28.2042C30.2521 28.4739 31.0022 28.937 31.6272 29.5433C31.769 29.6864 31.9106 29.8295 32.0439 29.9895C32.1857 30.158 32.3106 30.3348 32.4274 30.52C33.0107 31.4128 33.3439 32.4822 33.3439 33.6275C33.3439 36.76 30.8189 39.3117 27.7186 39.3117L27.7103 39.3033ZM19.0681 34.2506C9.24232 34.2506 1.25009 26.9748 1.25009 18.04C1.25009 9.10535 9.24232 1.82957 19.0681 1.82957C26.1186 1.82957 32.3606 5.52641 35.2525 11.3201L32.6857 11.9264C30.2105 7.31166 25.0435 4.1201 19.0681 4.1201C10.6924 4.11166 3.88362 10.3601 3.88362 18.04C3.88362 25.72 10.6924 31.9686 19.0681 31.9686C19.7513 31.9686 20.4182 31.9095 21.0766 31.8339C20.9265 32.4064 20.8347 33.0042 20.8347 33.619C20.8347 33.8042 20.8515 33.9811 20.8597 34.158C20.2681 34.2086 19.668 34.2506 19.0596 34.2506H19.0681ZM29.0937 26.8148C28.6436 26.7222 28.1853 26.6717 27.7103 26.6717C25.0352 26.6717 22.7183 28.2295 21.5849 30.4864C20.7682 30.6211 19.9264 30.7053 19.0681 30.7053C11.3841 30.7053 5.13369 25.0211 5.13369 18.04C5.13369 11.059 11.3841 5.37482 19.0681 5.37482C24.3933 5.37482 29.0271 8.11166 31.3772 12.1117C31.0606 12.1538 30.7689 12.2717 30.4855 12.4317L9.22566 17.417C8.9423 17.4842 8.74229 17.737 8.74229 18.0317C8.74229 18.3264 8.9423 18.579 9.22566 18.6464L30.4855 23.6317C30.7689 23.8 31.0688 23.9095 31.3772 23.9517C30.7689 24.9959 29.9939 25.9559 29.0937 26.798V26.8148ZM29.0354 22.0064L12.1342 18.04L29.0354 14.0738C28.4853 15.118 28.152 16.499 28.152 18.04C28.152 19.5811 28.4853 20.9622 29.0354 22.0064ZM33.0523 21.7033C32.744 22.1917 32.3939 22.52 32.0274 22.6464C31.9856 22.6633 31.9439 22.6633 31.9023 22.6717L31.0023 22.4611C30.1522 21.8633 29.3938 20.2211 29.3938 18.0317C29.3938 15.8422 30.1522 14.2001 31.0023 13.6022L31.9023 13.3917C31.9023 13.3917 31.9856 13.4001 32.0274 13.4169C32.3856 13.5432 32.744 13.8801 33.0523 14.3601C33.5773 15.1938 33.9691 16.4654 33.9691 18.0233C33.9691 19.5811 33.5773 20.8611 33.0523 21.6864V21.7033ZM30.4354 27.2442C31.3272 26.318 32.0857 25.2822 32.6857 24.1622L35.2525 24.7686C34.5359 26.2086 33.6108 27.5139 32.5189 28.6675C31.9188 28.078 31.2189 27.5895 30.4354 27.2528V27.2442Z" fill="#061014"/>
<path d="M11.3176 23.775C11.0843 23.615 10.6843 23.6066 10.4343 23.7497C10.1842 23.9013 10.1676 24.1455 10.4009 24.3055C10.6009 24.4403 10.8093 24.575 11.026 24.7013C11.1426 24.7688 11.301 24.8024 11.451 24.8024C11.6177 24.8024 11.7843 24.7603 11.9094 24.6761C12.1427 24.5161 12.126 24.2635 11.876 24.1203C11.6843 24.0108 11.501 23.893 11.326 23.7666L11.3176 23.775Z" fill="#45C1EE"/>
<path d="M19.0677 27.16C17.1926 27.16 15.3675 26.6884 13.7757 25.7958C13.4757 25.6273 13.0923 25.7367 12.9257 26.04C12.759 26.3431 12.8673 26.7305 13.1673 26.8989C14.9341 27.8925 16.9759 28.4231 19.0594 28.4231C19.4011 28.4231 19.6845 28.1367 19.6845 27.7914C19.6845 27.4462 19.4011 27.16 19.0594 27.16H19.0677Z" fill="#45C1EE"/>
<path d="M30.3857 32.9872H28.3355V30.9156C28.3355 30.5703 28.0521 30.284 27.7104 30.284C27.3687 30.284 27.0855 30.5703 27.0855 30.9156V32.9872H25.0353C24.7268 32.9872 24.4852 33.2145 24.4352 33.5092C24.4352 33.5429 24.4102 33.5767 24.4102 33.6187C24.4102 33.8125 24.5019 33.9809 24.6353 34.0987C24.7436 34.1914 24.8769 34.2503 25.0353 34.2503H27.0855V36.322C27.0855 36.6672 27.3687 36.9534 27.7104 36.9534C28.0521 36.9534 28.3355 36.6672 28.3355 36.322V34.2503H30.3857C30.7274 34.2503 31.0106 33.964 31.0106 33.6187C31.0106 33.2734 30.7274 32.9872 30.3857 32.9872Z" fill="#45C1EE"/>
</svg>
