<svg width="43" height="24" viewBox="0 0 43 24" fill="none" xmlns="http://www.w3.org/2000/svg">
<g id="IllustartorAsset 2Diabeties 1" clip-path="url(#clip0_12845_461)">
<g id="&#208;&#161;&#208;&#187;&#208;&#190;&#208;&#185; 1">
<g id="Group">
<path id="Vector" d="M42.0001 11.6503C38.8 4.6802 30.4777 0 21.2889 0H21.2467C12.0768 0.0174471 3.77195 4.69619 0.576217 11.6503C0.475896 11.8742 0.475896 12.1272 0.576217 12.3511C3.77777 19.3227 12.0986 24 21.2889 24H21.331C30.501 23.9855 38.8058 19.3067 42.0015 12.3511C42.1019 12.1272 42.1019 11.8742 42.0015 11.6503H42.0001ZM21.3267 22.3251H21.2874C12.8954 22.3251 5.31312 18.1945 2.26423 11.9993C5.30585 5.82153 12.8765 1.68801 21.2496 1.67493H21.2889C29.681 1.67493 37.2632 5.80844 40.3121 12.0007C37.2705 18.1814 29.6999 22.3149 21.3267 22.3265V22.3251Z" fill="#003E79"/>
<path id="Vector_2" d="M27.3848 11.8408C27.3848 15.1093 24.7372 17.7598 21.4687 17.7598C18.2003 17.7598 15.5498 15.1093 15.5498 11.8408C15.5498 8.57241 18.1989 5.9248 21.4687 5.9248C22.485 5.9248 23.4417 6.18215 24.2792 6.63432C23.417 6.96291 22.8064 7.79456 22.8064 8.7716C22.8064 10.0351 23.8299 11.063 25.0978 11.063C25.9381 11.063 26.6724 10.6079 27.0678 9.93329C27.2743 10.5308 27.3862 11.172 27.3862 11.8423L27.3848 11.8408Z" fill="#003E79"/>
<path id="Vector_3" d="M21.4691 3.04443C16.6188 3.04443 12.6729 6.9904 12.6729 11.8407C12.6729 16.691 16.6188 20.637 21.4691 20.637C26.3194 20.637 30.2625 16.691 30.2625 11.8407C30.2625 6.9904 26.3165 3.04443 21.4691 3.04443ZM21.4691 18.962C17.5421 18.962 14.3478 15.7663 14.3478 11.8407C14.3478 7.91509 17.5435 4.71936 21.4691 4.71936C25.3947 4.71936 28.5876 7.91509 28.5876 11.8407C28.5876 15.7663 25.3947 18.962 21.4691 18.962Z" fill="#003E79"/>
<g id="Clip path group">
<mask id="mask0_12845_461" style="mask-type:luminance" maskUnits="userSpaceOnUse" x="1" y="0" width="41" height="24">
<g id="clippath">
<path id="Vector_4" d="M41.2381 12.0007C38.1775 5.33299 30.1795 0.824363 21.2465 0.838902C12.3354 0.853442 4.38532 5.36353 1.33789 12.0007C4.39986 18.6684 12.3979 23.1771 21.3294 23.1625C30.2405 23.148 38.1906 18.6379 41.2381 12.0007Z" fill="white"/>
</g>
</mask>
<g mask="url(#mask0_12845_461)">
<g id="Group_2">
<path id="Vector_5" d="M6.4561 21.6752C6.30053 21.6752 6.14496 21.6316 6.00393 21.5414C5.61428 21.2913 5.50232 20.7737 5.7524 20.3841L8.08596 16.7551L7.58726 14.0101C7.53783 13.7396 7.62506 13.4619 7.81843 13.2686L9.2142 11.8728C9.54134 11.5457 10.0706 11.5457 10.3977 11.8728C10.7248 12.1999 10.7248 12.7292 10.3977 13.0563L9.31307 14.1409L9.79287 16.7798C9.83067 16.9892 9.78851 17.2043 9.67365 17.3817L7.16271 21.2884C7.00278 21.5371 6.73235 21.6737 6.45756 21.6737L6.4561 21.6752Z" fill="#003E79"/>
<path id="Vector_6" d="M8.96719 17.7684C8.54555 17.7684 8.18352 17.4514 8.13699 17.024C8.08611 16.5645 8.4176 16.1501 8.87704 16.0993L11.388 15.8201C11.846 15.7692 12.2618 16.1007 12.3127 16.5601C12.3636 17.0196 12.0321 17.434 11.5726 17.4848L9.06169 17.764C9.0297 17.7669 8.99917 17.7698 8.96864 17.7698L8.96719 17.7684Z" fill="#003E79"/>
<path id="Vector_7" d="M41.3382 19.4436C41.1899 19.4436 41.0402 19.4044 40.9035 19.3215L34.4844 15.4148C34.2343 15.2621 34.0831 14.9917 34.0831 14.6994V12.4531L32.0694 11.5575C31.9124 11.4877 31.7801 11.3714 31.6914 11.2231L30.854 9.82733C30.6155 9.43041 30.7449 8.91717 31.1418 8.67873C31.5373 8.44028 32.052 8.56968 32.2904 8.96515L32.9912 10.1341L35.2608 11.1431C35.5632 11.2769 35.7581 11.5779 35.7581 11.9079V14.2284L41.7744 17.8908C42.1699 18.1307 42.2949 18.6469 42.0536 19.0409C41.8965 19.2997 41.6203 19.4422 41.3382 19.4422V19.4436Z" fill="#003E79"/>
<path id="Vector_8" d="M34.9192 12.7449C34.7781 12.7449 34.6357 12.71 34.5048 12.6344C34.1035 12.4047 33.9639 11.8943 34.1937 11.4916L35.3103 9.53752C35.54 9.13623 36.0518 8.99665 36.4531 9.22637C36.8543 9.4561 36.9939 9.96642 36.7642 10.3692L35.6476 12.3232C35.4935 12.5937 35.21 12.7449 34.9206 12.7449H34.9192Z" fill="#003E79"/>
<path id="Vector_9" d="M34.9222 15.5353C34.867 15.5353 34.8132 15.5295 34.7565 15.5193L31.9664 14.961C31.5128 14.8709 31.2191 14.4289 31.3092 13.9753C31.3994 13.5216 31.8414 13.2294 32.295 13.3181L35.0851 13.8764C35.5387 13.9666 35.8324 14.4085 35.7423 14.8622C35.6623 15.2605 35.3133 15.5353 34.9222 15.5353Z" fill="#003E79"/>
<path id="Vector_10" d="M10.0846 10.2342C9.79964 10.2342 9.5234 10.0888 9.36637 9.82709L8.52891 8.43132C8.4504 8.30046 8.40969 8.15216 8.40969 8.00095V6.04687L6.06595 2.92093C5.78825 2.55163 5.86386 2.02676 6.23316 1.74906C6.60391 1.47136 7.12732 1.54696 7.40502 1.91626L9.91596 5.26466C10.025 5.41005 10.0832 5.58598 10.0832 5.76627V7.76687L10.8014 8.96345C11.0398 9.36038 10.9104 9.87361 10.515 10.1121C10.3798 10.1935 10.2315 10.2313 10.0846 10.2313V10.2342Z" fill="#003E79"/>
<path id="Vector_11" d="M11.7603 7.1637C11.7006 7.1637 11.6396 7.15788 11.5785 7.14334L9.06758 6.58503C8.61686 6.48471 8.33189 6.0369 8.43221 5.58618C8.53254 5.13547 8.98034 4.85195 9.43106 4.95082L11.942 5.50913C12.3927 5.60945 12.6777 6.05726 12.5774 6.50797C12.4901 6.89763 12.1441 7.1637 11.7603 7.1637Z" fill="#003E79"/>
<path id="Vector_12" d="M5.89768 13.5828C5.53274 13.5828 5.19834 13.3429 5.09366 12.975L4.62258 11.3248L0.980493 8.98401C0.59084 8.73394 0.478887 8.21634 0.728963 7.82668C0.979039 7.43703 1.49664 7.32508 1.88629 7.57515L5.793 10.0861C5.96456 10.1966 6.0896 10.3652 6.14485 10.5601L6.70316 12.5141C6.82965 12.9591 6.5723 13.4214 6.12885 13.5493C6.0518 13.5712 5.97474 13.5813 5.89768 13.5813V13.5828Z" fill="#003E79"/>
<path id="Vector_13" d="M5.33956 11.6285C4.92373 11.6285 4.56316 11.3189 4.50937 10.8958C4.45266 10.4363 4.77689 10.019 5.23633 9.96088L7.46956 9.68173C7.92755 9.62503 8.34628 9.94925 8.40444 10.4087C8.46114 10.8681 8.13692 11.2854 7.67748 11.3436L5.44424 11.6227C5.40935 11.6271 5.37445 11.6285 5.33956 11.6285Z" fill="#003E79"/>
<path id="Vector_14" d="M33.5269 22.7919C33.2391 22.7919 32.9585 22.6436 32.8029 22.376L30.9753 19.2428L29.5243 18.5173C29.1114 18.3109 28.9427 17.8078 29.1506 17.3934C29.3571 16.9805 29.8601 16.8119 30.2745 17.0198L31.9494 17.8572C32.0948 17.9299 32.2155 18.0433 32.2984 18.1844L34.2525 21.5328C34.4851 21.9326 34.3499 22.4444 33.9515 22.6785C33.8192 22.7555 33.6738 22.7933 33.5299 22.7933L33.5269 22.7919Z" fill="#003E79"/>
<path id="Vector_15" d="M31.0141 8.00077C30.9269 8.00077 30.8367 7.98623 30.7495 7.95715C30.3104 7.8103 30.0734 7.33632 30.2203 6.89869L30.7786 5.22376C30.8236 5.08855 30.9022 4.96787 31.0068 4.87191L34.3552 1.80267C34.6969 1.49008 35.2261 1.51334 35.5387 1.85356C35.8513 2.19378 35.8281 2.72446 35.4878 3.03706L32.2994 5.96091L31.8094 7.42937C31.6931 7.77977 31.366 8.00222 31.0156 8.00222L31.0141 8.00077Z" fill="#003E79"/>
<path id="Vector_16" d="M31.5724 6.32738C31.4924 6.32738 31.4124 6.31575 31.331 6.29249L28.5409 5.45503C28.0975 5.32272 27.8474 4.85601 27.9797 4.41256C28.112 3.96911 28.5802 3.71758 29.0222 3.85134L31.8123 4.6888C32.2557 4.82111 32.5058 5.28782 32.3735 5.73127C32.2644 6.0933 31.9315 6.32884 31.5724 6.32884V6.32738Z" fill="#003E79"/>
</g>
</g>
</g>
</g>
</g>
</g>
<defs>
<clipPath id="clip0_12845_461">
<rect width="41.5751" height="24" fill="white" transform="translate(0.5)"/>
</clipPath>
</defs>
</svg>
