<svg width="110" height="32" viewBox="0 0 110 32" fill="none" xmlns="http://www.w3.org/2000/svg">
<path d="M10.136 27.28C8.176 27.28 6.51467 26.888 5.152 26.104C3.78933 25.32 2.75333 24.1813 2.044 22.688C1.33467 21.176 0.98 19.3467 0.98 17.2C0.98 15.0533 1.33467 13.2333 2.044 11.74C2.75333 10.228 3.78933 9.08 5.152 8.296C6.51467 7.512 8.176 7.12 10.136 7.12C12.096 7.12 13.7573 7.512 15.12 8.296C16.5013 9.08 17.5467 10.228 18.256 11.74C18.9653 13.2333 19.32 15.0533 19.32 17.2C19.32 19.3467 18.9653 21.176 18.256 22.688C17.5467 24.1813 16.5013 25.32 15.12 26.104C13.7573 26.888 12.096 27.28 10.136 27.28ZM10.136 22.296C11.2373 22.296 12.0867 21.8573 12.684 20.98C13.2813 20.1027 13.58 18.8427 13.58 17.2C13.58 15.464 13.2813 14.1387 12.684 13.224C12.0867 12.2907 11.2373 11.824 10.136 11.824C9.03467 11.824 8.18533 12.2907 7.588 13.224C6.99067 14.1387 6.692 15.464 6.692 17.2C6.692 18.8427 6.99067 20.1027 7.588 20.98C8.18533 21.8573 9.03467 22.296 10.136 22.296ZM26.0851 25.628V9.724L27.1211 13.308L22.6691 15.212L21.8571 9.78L27.6811 7.12H31.9371V25.628H26.0851ZM22.1371 27V21.848H35.9691V27H22.1371Z" fill="#01D0FF"/>
<path d="M53 16L108 16" stroke="#01D0FF" stroke-width="3" stroke-linecap="round"/>
</svg>
