<svg width="28" height="34" viewBox="0 0 28 34" fill="none" xmlns="http://www.w3.org/2000/svg">
<g id="eye_808977 1" clip-path="url(#clip0_12816_1366)">
<g id="Group">
<g id="Group_2">
<path id="Vector" d="M7.49826 32.4667V32.9999V33.1499H7.34826H6.2814H6.1314V32.9999V32.4665V32.4663C6.13383 30.3224 7.87128 28.5849 10.0152 28.5825L10.0154 28.5825L16.2495 28.5825H16.25C17.201 28.5854 18.1136 28.2075 18.7842 27.5332L18.7845 27.5329L25.6255 20.6908C25.9304 20.3714 25.93 19.8686 25.6245 19.5496L25.7328 19.4459L25.6245 19.5496C25.3094 19.2207 24.7877 19.2091 24.4583 19.5234L18.683 25.2992C18.2394 25.7435 17.7151 26.0992 17.1383 26.3471C16.7598 26.6088 16.3104 26.749 15.85 26.7488C15.85 26.7488 15.85 26.7488 15.8499 26.7488H8.94854H8.79854V26.5988V25.5319V25.3819H8.94854H15.1826C15.6183 25.3817 16.0502 25.3018 16.457 25.1465C16.4649 25.1404 16.4706 25.136 16.4753 25.1325C16.4845 25.1257 16.4897 25.1218 16.4982 25.1133C16.67 24.9414 16.7666 24.7083 16.7667 24.4653C16.7667 23.9589 16.3564 23.5484 15.85 23.5482C15.85 23.5482 15.85 23.5482 15.85 23.5482H8.91564C5.17037 23.5525 2.13528 26.5876 2.13092 30.3329C2.13092 30.3329 2.13092 30.3329 2.13092 30.333L2.13092 32.9999V33.1499H1.98092H0.914062H0.764062V32.9999V30.3328V30.3326C0.768885 25.8328 4.41548 22.1862 8.9153 22.1814H8.91546H15.8497H15.85V22.3314C16.8977 22.3276 17.7795 23.0888 17.9449 24.1045L7.49826 32.4667ZM7.49826 32.4667C7.49989 31.0771 8.62601 29.951 10.0156 29.9494M7.49826 32.4667L10.0156 29.9494M10.0156 29.9494H16.2491H16.2495V29.7994C17.5234 29.803 18.7456 29.2967 19.6437 28.3932M10.0156 29.9494L25.0431 18.064M19.6437 28.3932L19.7498 28.4993L19.7501 28.499L19.6437 28.3932ZM19.6437 28.3932L26.4871 21.5499C27.2845 20.7526 27.2846 19.4597 26.4873 18.6621C26.1043 18.2791 25.5848 18.0639 25.0431 18.064M25.0431 18.064L25.0436 17.914C25.0435 17.914 25.0434 17.914 25.0433 17.914C25.0432 17.914 25.0432 17.914 25.0431 17.914L25.0431 18.064ZM23.4927 18.5562L18.0735 23.9759L23.4927 18.5562Z" fill="#003E79" stroke="#003E79" stroke-width="0.3"/>
</g>
</g>
<g id="Group_3">
<g id="Group_4">
<path id="Vector_2" d="M4.33921 9.42748L4.24189 9.53049L4.33921 9.6335L4.68506 9.99957C4.6852 9.99972 4.68534 9.99987 4.68549 10C7.01818 12.5113 10.2892 13.9408 13.7168 13.9468L13.7173 13.9468C17.1453 13.9407 20.4166 12.5108 22.7492 9.99893C22.7493 9.99879 22.7495 9.99864 22.7496 9.99849L23.0954 9.63305L23.1929 9.52996L23.0954 9.42687L22.7498 9.06163C22.7496 9.06142 22.7494 9.06121 22.7492 9.06101C18.1344 4.07314 10.3498 3.77034 5.36156 8.38493C5.12752 8.60143 4.90198 8.82697 4.6854 9.06105L4.33921 9.42748ZM10.005 7.13866C9.06452 8.59126 9.06452 10.4676 10.005 11.9202C8.57021 11.3963 7.25709 10.5829 6.14793 9.52943C7.25709 8.47594 8.57021 7.66259 10.005 7.13866ZM13.7172 12.58C12.0332 12.578 10.6685 11.2133 10.6665 9.52925C10.6666 7.84453 12.0323 6.47887 13.7171 6.47887C15.4019 6.47887 16.7676 7.84463 16.7676 9.52943C16.7676 11.2142 15.4019 12.5799 13.7172 12.58ZM17.4291 11.9202C18.3696 10.4676 18.3696 8.59126 17.4291 7.13866C18.8639 7.66259 20.177 8.47594 21.2862 9.52942C20.177 10.5829 18.8639 11.3963 17.4291 11.9202Z" fill="#003E79" stroke="#003E79" stroke-width="0.3"/>
</g>
</g>
<g id="Group_5">
<g id="Group_6">
<path id="Vector_3" d="M13.7167 7.24551C12.4555 7.24551 11.433 8.26797 11.433 9.52921C11.433 10.7905 12.4555 11.8129 13.7167 11.8129C14.978 11.8129 16.0004 10.7905 16.0004 9.52921C16.0004 8.26797 14.978 7.24551 13.7167 7.24551ZM13.7167 10.4461C13.2103 10.4461 12.7999 10.0356 12.7999 9.52921C12.7999 9.02282 13.2103 8.61236 13.7167 8.61236C14.2231 8.61236 14.6336 9.02282 14.6336 9.52921C14.6336 10.0356 14.223 10.4461 13.7167 10.4461Z" fill="#003E79" stroke="#003E79" stroke-width="0.3"/>
</g>
</g>
<g id="Group_7">
<g id="Group_8">
<path id="Vector_4" d="M23.8856 3.25223L23.8856 3.2522C23.7512 3.10505 23.6102 2.96401 23.463 2.82957L23.4629 2.8295C20.7376 0.345416 16.6264 0.184206 13.717 2.43123C10.8073 0.184212 6.69572 0.346162 3.97104 2.83113L3.97098 2.83118C1.29207 5.27706 1.10326 9.43151 3.54913 12.1104L3.54914 12.1104C3.68307 12.2571 3.8236 12.3976 3.97025 12.5316C3.97049 12.5318 3.97073 12.532 3.97097 12.5322L13.6144 21.572L13.717 21.6681L13.8196 21.572L23.463 12.5307C23.4633 12.5304 23.4635 12.5302 23.4637 12.53C26.1419 10.0845 26.3309 5.9309 23.8856 3.25223ZM22.5318 11.5306L22.5318 11.5306L22.5301 11.5322L13.717 19.7943L4.9039 11.5322L4.90391 11.5322L4.90217 11.5306C2.77564 9.59887 2.61763 6.30907 4.54934 4.18248C4.64837 4.07347 4.75189 3.96875 4.85972 3.86862H4.86L4.90296 3.82942C7.26704 1.67181 10.8859 1.67157 13.2502 3.8287L13.6143 4.17045L13.717 4.26681L13.8197 4.17045L14.1837 3.82873C16.5485 1.67203 20.1671 1.67227 22.5316 3.82944L22.5318 3.82964C24.6584 5.76175 24.816 9.052 22.8839 11.1785C22.7722 11.3014 22.6547 11.4189 22.5318 11.5306Z" fill="#003E79" stroke="#003E79" stroke-width="0.3"/>
</g>
</g>
</g>
<defs>
<clipPath id="clip0_12816_1366">
<rect width="28" height="34" fill="white"/>
</clipPath>
</defs>
</svg>
