<svg width="33" height="33" viewBox="0 0 33 33" fill="none" xmlns="http://www.w3.org/2000/svg">
<path d="M29.8899 14.1231C29.5691 13.1542 28.8876 12.3725 27.9722 11.9114C27.558 11.7043 27.0568 11.8713 26.8497 12.2856C26.6426 12.6999 26.8096 13.201 27.2239 13.4081C27.7384 13.662 28.1192 14.1097 28.3063 14.6509C28.4867 15.1988 28.4466 15.7801 28.1927 16.2946C28.0056 16.6621 27.6916 16.9361 27.304 17.0697C26.1414 12.7934 21.638 10.6553 16.2459 10.6553C14.4485 10.6553 12.758 10.9025 11.248 11.3769C9.74457 10.6954 8.01401 10.5617 6.38368 11.0762C5.98278 11.2032 5.78901 11.6709 5.99615 12.0451L7.00508 13.8758C5.88256 15.0451 5.14089 16.5285 4.94712 18.3325L4.005 18.4929C3.36356 18.5998 2.88916 19.1611 2.88916 19.8092V22.0876C2.88916 22.4685 3.04952 22.8293 3.33015 23.0832L4.8068 24.4062C5.71551 25.2614 6.89817 25.9697 8.22783 26.5243V29.364C8.22783 29.7315 8.5285 30.0322 8.896 30.0322H12.3838C12.6912 30.0322 12.9585 29.825 13.032 29.5244L13.4529 27.8539C14.3883 27.9675 15.3305 28.0277 16.2525 28.0277C17.1746 28.0277 18.1435 27.9542 19.0388 27.8139L19.4664 29.5244C19.5399 29.825 19.8072 30.0322 20.1145 30.0322H23.6024C23.9699 30.0322 24.2706 29.7315 24.2706 29.364V25.8628C26.3352 24.4129 27.6114 22.2413 27.6114 19.3415C27.6114 19.1277 27.5914 18.9272 27.578 18.7201C27.6649 18.7 27.745 18.6867 27.8319 18.6599C28.6471 18.386 29.3086 17.8114 29.6961 17.043C30.1504 16.1276 30.2239 15.0919 29.9032 14.1231H29.8899ZM8.55523 18.6733C8.00065 18.6733 7.55298 18.2256 7.55298 17.671C7.55298 17.1165 8.00065 16.6688 8.55523 16.6688C9.10981 16.6688 9.55748 17.1165 9.55748 17.671C9.55748 18.2256 9.10981 18.6733 8.55523 18.6733ZM20.7293 14.1498C20.6157 14.5039 20.2883 14.7244 19.9341 14.7244C19.8473 14.7244 19.7604 14.7111 19.6736 14.6843C18.4441 14.2834 16.9875 14.1364 15.4507 14.25C14.7425 14.3035 14.0609 14.4104 13.4195 14.5641C12.9718 14.6776 12.5175 14.397 12.4106 13.9493C12.3037 13.5017 12.5776 13.0473 13.0253 12.9404C13.7536 12.7667 14.5287 12.6464 15.3238 12.5863C17.0944 12.4526 18.7314 12.6264 20.188 13.1008C20.629 13.2411 20.8696 13.7155 20.7226 14.1565L20.7293 14.1498Z" fill="#061014" fill-opacity="0.9"/>
<path d="M16.5732 8.65073C18.2338 8.65073 19.5799 7.30455 19.5799 5.64397C19.5799 3.98338 18.2338 2.63721 16.5732 2.63721C14.9126 2.63721 13.5664 3.98338 13.5664 5.64397C13.5664 7.30455 14.9126 8.65073 16.5732 8.65073Z" fill="#01D0FF"/>
</svg>
