<svg width="33" height="33" viewBox="0 0 33 33" fill="none" xmlns="http://www.w3.org/2000/svg">
<path d="M9.25904 17.7636C9.25904 14.9182 10.9008 12.4565 13.2881 11.2729C11.6785 11.5197 10.1046 11.953 8.58305 12.5699C5.97272 13.6281 3.63086 15.183 1.62257 17.1913L1.47668 17.3372C1.24117 17.5727 1.24117 17.9545 1.47668 18.1896L1.62257 18.3355C3.63086 20.3438 5.97272 21.8987 8.58265 22.9573C10.1046 23.5743 11.6785 24.0075 13.2877 24.2543C10.9 23.0707 9.25864 20.6091 9.25864 17.7636H9.25904Z" fill="#061014" fill-opacity="0.9"/>
<path d="M31.5229 17.3371L31.377 17.1912C29.3687 15.1829 27.0269 13.628 24.4169 12.5694C22.8949 11.9521 21.3211 11.5192 19.7119 11.2725C22.0996 12.4561 23.7409 14.9177 23.7409 17.7631C23.7409 20.6086 22.0992 23.0702 19.7119 24.2538C21.3215 24.007 22.8954 23.5742 24.4169 22.9569C27.0273 21.8983 29.3691 20.3433 31.3774 18.335L31.5233 18.1891C31.7588 17.9536 31.7588 17.5718 31.5233 17.3367L31.5229 17.3371Z" fill="#061014" fill-opacity="0.9"/>
<path d="M21.7392 17.7635C21.7392 14.8698 19.3933 12.5239 16.4996 12.5239C15.5938 12.5239 14.7413 12.7538 13.9978 13.1589L16.8971 18.0693C16.8971 18.0693 13.6944 16.5128 11.738 15.5759C11.4317 16.2419 11.2605 16.9826 11.2605 17.7639C11.2605 20.6575 13.6064 23.0034 16.5 23.0034C19.3937 23.0034 21.7396 20.6575 21.7396 17.7639L21.7392 17.7635Z" fill="#01D0FF"/>
<path d="M2.13675 14.3535C2.3602 14.6144 2.76049 14.6517 3.03177 14.4367L3.04182 14.4287C3.3127 14.2137 3.35128 13.8279 3.12823 13.567L3.04222 13.4665C2.81877 13.2057 2.41848 13.1683 2.1472 13.3834L2.13715 13.3914C1.86627 13.6064 1.82769 13.9922 2.05074 14.2531L2.13675 14.3535Z" fill="#061014" fill-opacity="0.9"/>
<path d="M4.58849 12.5657C4.77136 12.8542 5.16281 12.9451 5.46222 12.769L5.47307 12.7626C5.77289 12.5866 5.86733 12.2096 5.68447 11.921L5.61374 11.8097C5.43087 11.5211 5.03942 11.4303 4.74001 11.6063L4.72916 11.6128C4.42934 11.7888 4.33489 12.1658 4.51776 12.4543L4.58849 12.5657Z" fill="#061014" fill-opacity="0.9"/>
<path d="M7.27643 11.1284C7.41509 11.4391 7.78925 11.5825 8.11158 11.4487L8.12363 11.4439C8.44596 11.3105 8.59506 10.9504 8.45641 10.6397L8.40295 10.5203C8.2643 10.2097 7.89013 10.0662 7.56781 10.2L7.55575 10.2048C7.23343 10.3383 7.08432 10.6984 7.22298 11.009L7.27643 11.1284Z" fill="#061014" fill-opacity="0.9"/>
<path d="M10.1481 10.0707C10.2401 10.397 10.5894 10.5895 10.9282 10.5011L10.9406 10.4979C11.2794 10.4095 11.4796 10.0731 11.3875 9.74674L11.3522 9.62135C11.2601 9.29501 10.9109 9.1025 10.5721 9.19092L10.5596 9.19413C10.2208 9.28255 10.0207 9.61894 10.1127 9.94528L10.1481 10.0707Z" fill="#061014" fill-opacity="0.9"/>
<path d="M13.1454 9.41277C13.1892 9.74835 13.5067 9.98587 13.8551 9.94408L13.868 9.94247C14.2164 9.90027 14.4636 9.59442 14.4198 9.25884L14.4029 9.12983C14.3591 8.79424 14.0412 8.55672 13.6932 8.59852L13.6803 8.60013C13.3318 8.64233 13.0851 8.94817 13.1285 9.28376L13.1454 9.41277Z" fill="#061014" fill-opacity="0.9"/>
<path d="M16.8355 9.7858H16.8484C17.1993 9.79102 17.4882 9.52135 17.4939 9.18335L17.4959 9.05354C17.5011 8.71554 17.221 8.43743 16.8701 8.4322H16.8572C16.506 8.42698 16.2174 8.69665 16.2118 9.03465L16.2098 9.16446C16.2046 9.50246 16.4847 9.78057 16.8359 9.7858H16.8355Z" fill="#061014" fill-opacity="0.9"/>
<path d="M19.8084 10.0294L19.8213 10.0315C20.1681 10.0837 20.4933 9.85543 20.5475 9.52145L20.5684 9.39284C20.6227 9.05886 20.3856 8.74578 20.0387 8.69354L20.0259 8.69153C19.679 8.63928 19.3539 8.86756 19.2996 9.20154L19.2787 9.33014C19.2245 9.66412 19.4616 9.9772 19.8084 10.0294Z" fill="#061014" fill-opacity="0.9"/>
<path d="M22.7168 10.6712L22.7292 10.6748C23.0652 10.7732 23.4205 10.5912 23.5226 10.2677L23.5619 10.1435C23.6644 9.81995 23.4751 9.47793 23.1391 9.37946L23.1267 9.37585C22.7907 9.27738 22.4354 9.45944 22.3333 9.78297L22.294 9.90716C22.1915 10.2307 22.3808 10.5727 22.7168 10.6712Z" fill="#061014" fill-opacity="0.9"/>
<path d="M25.5028 11.6997L25.5145 11.7049C25.8324 11.848 26.211 11.7158 26.3597 11.4096L26.4168 11.2918C26.5655 10.9855 26.428 10.621 26.1101 10.478L26.0985 10.4727C25.7805 10.3296 25.402 10.4619 25.2533 10.7681L25.1962 10.8859C25.0475 11.1921 25.1849 11.5566 25.5028 11.6997Z" fill="#061014" fill-opacity="0.9"/>
<path d="M28.1101 13.097L28.1209 13.1038C28.4147 13.2887 28.809 13.2095 29.0011 12.9266L29.075 12.8176C29.2671 12.5347 29.1847 12.1553 28.8909 11.9704L28.8801 11.9636C28.5863 11.7787 28.192 11.8579 27.9999 12.1408L27.926 12.2498C27.7339 12.5327 27.8163 12.9121 28.1101 13.097Z" fill="#061014" fill-opacity="0.9"/>
<path d="M30.4865 14.8333L30.4962 14.8414C30.7602 15.064 31.1617 15.0387 31.3932 14.7847L31.4824 14.687C31.7139 14.4326 31.6874 14.046 31.4234 13.8233L31.4137 13.8153C31.1497 13.5927 30.7482 13.618 30.5167 13.872L30.4274 13.9696C30.196 14.224 30.2225 14.6107 30.4865 14.8333Z" fill="#061014" fill-opacity="0.9"/>
</svg>
