<svg width="41" height="41" viewBox="0 0 41 41" fill="none" xmlns="http://www.w3.org/2000/svg">
<circle cx="20.1301" cy="20.0654" r="20" fill="#FFEFE5"/>
<g clip-path="url(#clip0_5663_23177)">
<path d="M18.2851 32.2164C11.7905 32.2164 6.47168 26.8037 6.47168 20.0667C6.47168 15.5178 8.93513 11.3719 12.9102 9.24137C14.5899 8.37764 16.3815 7.91699 18.2851 7.91699C21.1964 7.91699 23.9958 9.01104 26.1793 11.0264C28.6987 13.3297 30.0984 16.6118 30.0984 20.0667C30.0984 26.7462 24.8356 32.2164 18.2851 32.2164ZM13.3581 10.1627C9.71896 12.0629 7.47946 15.8632 7.47946 20.0667C7.47946 26.2279 12.3504 31.2375 18.341 31.2375C24.3317 31.2375 29.2026 26.2279 29.2026 20.0667C29.2026 16.8997 27.9149 13.9055 25.6194 11.775C23.6039 9.93235 21.0844 8.95346 18.397 8.95346C16.6614 8.95346 14.9818 9.35653 13.4701 10.1627H13.3581Z" fill="#384043" stroke="#384043" stroke-width="0.4" stroke-miterlimit="10"/>
<path d="M9.94114 20.5834C9.94114 20.5834 9.43726 20.3531 9.43726 20.0652C9.43726 16.6679 11.2848 13.5585 14.1962 12.0038C15.4279 11.3704 16.7716 11.0249 18.1713 11.0249C18.4513 11.0249 18.6752 11.2552 18.6752 11.5431C18.6752 11.831 18.4513 12.0614 18.1713 12.0614C16.9396 12.0614 15.7079 12.3493 14.5881 12.9251C11.9567 14.3071 10.3331 17.071 10.3331 20.1228C10.3331 20.4107 10.1091 20.641 9.82917 20.641L9.94114 20.5834Z" fill="#384043" stroke="#384043" stroke-width="0.4" stroke-miterlimit="10"/>
<path d="M27.6333 27.0914C24.3301 26.8035 21.7546 23.7517 21.7546 20.0665C21.7546 16.3812 24.3301 13.3294 27.6333 13.0415C27.8013 13.0415 27.9693 13.0991 28.0812 13.2718C29.4249 15.2872 30.0968 17.648 30.0968 20.0665C30.0968 22.4849 29.3689 24.8457 28.0812 26.8611C27.9693 26.9762 27.8573 27.0914 27.6893 27.0914H27.6333ZM27.4094 14.078C24.722 14.4235 22.6504 17.0146 22.6504 20.0665C22.6504 23.1183 24.722 25.7095 27.4094 26.0549C28.5291 24.2699 29.089 22.197 29.089 20.0665C29.089 17.9359 28.4731 15.863 27.3534 14.078H27.4094Z" fill="#384043" stroke="#384043" stroke-width="0.4" stroke-miterlimit="10"/>
<path d="M28.921 23.1185C27.3533 23.1185 26.1216 21.7941 26.1216 20.2394C26.1216 18.6847 27.4093 17.3604 28.921 17.3604C29.0889 17.3604 29.3129 17.3604 29.4808 17.3604C29.6488 17.3604 29.8168 17.5331 29.8727 17.7634C30.0407 18.5696 30.0967 19.3181 30.0967 20.1243C30.0967 20.988 29.9847 21.8517 29.8168 22.7154C29.8168 22.8882 29.6488 23.0609 29.4248 23.1185C29.2569 23.1185 29.0889 23.1185 28.921 23.1185ZM28.921 18.2817C27.9132 18.2817 27.0734 19.1454 27.0734 20.1818C27.0734 21.2183 27.9132 22.082 28.9769 22.082C29.0889 21.3911 29.1449 20.7577 29.1449 20.0667C29.1449 19.4909 29.1449 18.8575 28.9769 18.2241L28.921 18.2817Z" fill="#384043" stroke="#384043" stroke-width="0.4" stroke-miterlimit="10"/>
<path d="M36.4245 20.6991H31.8335C31.8335 20.6991 31.3296 20.4687 31.3296 20.1808C31.3296 19.8929 31.5535 19.6626 31.8335 19.6626H36.4245C36.4245 19.6626 36.9283 19.8929 36.9283 20.1808C36.9283 20.4687 36.7044 20.6991 36.4245 20.6991Z" fill="#384043" stroke="#384043" stroke-width="0.4" stroke-miterlimit="10"/>
<path d="M35.4728 16.6683H30.8818C30.8818 16.6683 30.3779 16.438 30.3779 16.1501C30.3779 15.8622 30.6019 15.6318 30.8818 15.6318H35.4728C35.4728 15.6318 35.9767 15.8622 35.9767 16.1501C35.9767 16.438 35.7527 16.6683 35.4728 16.6683Z" fill="#384043" stroke="#384043" stroke-width="0.4" stroke-miterlimit="10"/>
<path d="M35.4728 24.5003H30.8818C30.8818 24.5003 30.3779 24.27 30.3779 23.9821C30.3779 23.6942 30.6019 23.4639 30.8818 23.4639H35.4728C35.4728 23.4639 35.9767 23.6942 35.9767 23.9821C35.9767 24.27 35.7527 24.5003 35.4728 24.5003Z" fill="#384043" stroke="#384043" stroke-width="0.4" stroke-miterlimit="10"/>
</g>
<defs>
<clipPath id="clip0_5663_23177">
<rect width="36" height="30" fill="white" transform="translate(2.38599 5.09473)"/>
</clipPath>
</defs>
</svg>
