<svg width="26" height="24" viewBox="0 0 26 24" fill="none" xmlns="http://www.w3.org/2000/svg">
<g id="check_9282598 1" clip-path="url(#clip0_12845_595)">
<g id="Group">
<path id="Vector" fill-rule="evenodd" clip-rule="evenodd" d="M5.60059 12L13.0986 4.50203L20.5965 12L13.0986 19.498L5.60059 12Z" fill="#003E79"/>
<g id="Group_2">
<g id="Group_3">
<path id="Vector_2" d="M13.101 23.9986C11.8596 23.9986 10.6955 23.5182 9.8232 22.646L2.45514 15.2778C0.647765 13.4705 0.647765 10.5296 2.45514 8.72222L9.8232 1.35412C10.6955 0.48183 11.8595 0.00146484 13.101 0.00146484C14.3425 0.00146484 15.5065 0.481876 16.3788 1.35412L23.7469 8.72222C24.6192 9.59451 25.0996 10.7586 25.0996 12C25.0996 13.2415 24.6192 14.4056 23.7469 15.2778L16.3788 22.6459C15.5065 23.5182 14.3424 23.9986 13.101 23.9986ZM13.101 0.938853C12.11 0.938853 11.1813 1.32173 10.4861 2.01694L3.11797 9.38505C1.67608 10.8269 1.67608 13.1731 3.11797 14.615L10.4861 21.9831C11.1813 22.6783 12.11 23.0612 13.101 23.0612C14.0921 23.0612 15.0207 22.6783 15.716 21.9831L23.084 14.615C23.7793 13.9198 24.1622 12.9911 24.1622 12C24.1622 11.009 23.7793 10.0803 23.084 9.3851L15.716 2.01699C15.0207 1.32173 14.0921 0.938853 13.101 0.938853Z" fill="#003E79"/>
</g>
<g id="Group_4">
<path id="Vector_3" d="M13.1008 15.2277C12.9809 15.2277 12.8609 15.182 12.7694 15.0904L10.0103 12.3314C9.82729 12.1483 9.82729 11.8516 10.0103 11.6685C10.1933 11.4854 10.4901 11.4855 10.6732 11.6685L13.1008 14.0961L19.0088 8.18805C19.1919 8.00502 19.4886 8.00502 19.6717 8.18805C19.8547 8.37108 19.8547 8.66785 19.6717 8.85092L13.4322 15.0905C13.3407 15.182 13.2207 15.2277 13.1008 15.2277Z" fill="white"/>
</g>
</g>
</g>
</g>
<defs>
<clipPath id="clip0_12845_595">
<rect width="25.2" height="24" fill="white" transform="translate(0.5)"/>
</clipPath>
</defs>
</svg>
