<svg width="48" height="32" viewBox="0 0 48 32" fill="none" xmlns="http://www.w3.org/2000/svg">
<path d="M47.8706 27.3545C47.551 26.5971 46.7521 26.1426 45.7935 26.4456L41.6393 27.809C37.3253 29.1724 32.5321 28.718 28.5377 26.9001L28.8572 26.5971C31.5734 24.0217 31.5734 19.78 28.8572 17.2046L16.874 5.84278C14.7969 3.57041 10.9623 3.57041 8.72545 5.69129L1.6953 12.3569C1.21598 12.8114 0.896424 13.4173 0.896424 14.1748C0.896424 14.9323 1.21598 15.5382 1.6953 15.9927C2.65396 16.9016 4.09194 17.0531 5.0506 16.2957L12.8796 11.448L17.3534 15.6897L13.1992 19.6285C10.6428 19.477 7.92657 19.78 5.37015 20.5374L1.21598 21.9009C0.417096 22.2038 -0.0622318 22.9613 0.25732 23.8702C0.576872 24.6277 1.37575 25.0822 2.33441 24.7792L6.48858 23.4158C12.2405 21.5979 18.6316 22.8098 23.1053 26.7486C26.7801 29.9299 31.5734 31.5963 36.5265 31.5963C38.6036 31.5963 40.8404 31.2933 42.9175 30.6874L47.0717 29.3239C47.7108 29.021 48.1901 28.112 47.8706 27.3545Z" fill="black"/>
<path d="M35.2481 15.6897C39.7218 15.6897 43.2369 12.3569 43.2369 8.11515C43.2369 3.8734 39.7218 0.540588 35.2481 0.540588C30.7743 0.540588 27.2593 3.8734 27.2593 8.11515C27.2593 12.3569 30.7743 15.6897 35.2481 15.6897Z" fill="black"/>
</svg>
