<svg width="54" height="83" viewBox="0 0 54 83" fill="none" xmlns="http://www.w3.org/2000/svg">
<g clip-path="url(#clip0_1_307)">
<path d="M26.6003 0.128468C11.909 0.128468 0 12.047 0 26.7486C0 31.5814 1.28647 36.1119 3.53477 40.0185C4.88345 42.3612 6.18054 44.7343 7.46095 47.115L26.5988 82.684L46.4633 45.7652C47.5222 43.799 48.6206 41.8526 49.725 39.9107C51.9278 36.0406 53.1915 31.5662 53.1991 26.7957C53.2249 12.0865 41.2961 0.126953 26.5988 0.126953L26.6003 0.128468ZM26.6003 41.3303C18.1487 41.3303 11.2961 34.4722 11.2961 26.0138C11.2961 17.5554 18.1472 10.6973 26.6003 10.6973C35.0534 10.6973 41.9045 17.5539 41.9045 26.0138C41.9045 34.4737 35.0534 41.3303 26.6003 41.3303V41.3303Z" fill="#FFE202"/>
<path opacity="0.06" d="M53.2021 26.7988C53.19 31.5692 51.9308 36.0421 49.7265 39.9138C48.6206 41.8526 47.5237 43.7975 46.4633 45.7668L26.6003 82.684L10.0475 51.9219C11.9348 52.2894 13.863 52.4791 15.8306 52.4791C32.9902 52.4791 47.4524 38.025 51.8367 18.3252C52.7257 20.9868 53.2051 23.8381 53.2021 26.7988V26.7988Z" fill="#626262"/>
</g>
<defs>
<clipPath id="clip0_1_307">
<rect width="54" height="83" fill="white"/>
</clipPath>
</defs>
</svg>
