<svg width="41" height="41" viewBox="0 0 41 41" fill="none" xmlns="http://www.w3.org/2000/svg">
<path d="M39.2414 20.3918C39.2273 20.1573 36.8476 20.2971 36.8843 19.9577C36.923 19.5996 35.662 15.8998 34.7641 15.0949C33.8089 14.2386 32.7632 13.4606 31.6373 13.0584C31.1093 12.8699 30.6294 10.6692 30.1762 10.6215C29.7232 10.5738 28.3922 12.4262 28.1062 12.4705C27.1897 12.6127 25.5597 12.8874 25.4992 12.648C24.3543 10.2799 20.4101 10.5019 18.9577 12.3663C17.21 12.2749 15.9353 12.3077 14.331 13.0968C11.4959 13.7794 9.20783 16.1975 7.71182 18.4824C7.5004 17.999 7.28237 17.6876 6.87581 17.3732C5.8935 17.0185 5.82112 17.7938 5.39894 17.4504C4.10378 16.3971 3.00267 16.8887 2.56377 17.8169C2.42957 18.1355 2.18889 18.7094 2.27777 19.0259C2.37215 19.3618 2.80379 19.4281 2.90917 19.3139C3.11378 19.0925 3.3087 18.2646 3.87278 18.1386C4.23997 17.9644 4.44919 18.4019 4.27979 18.5379C4.04218 18.6903 3.87036 18.9884 3.74078 19.2034C3.55202 19.8161 3.75178 20.1684 4.22875 20.4073C5.05595 20.7458 5.45196 20.3039 5.7978 19.8024C5.98326 19.5333 5.8418 18.5379 6.45781 18.8263C6.70289 18.8469 6.90881 19.8467 6.85381 20.0242C6.66901 20.6203 6.50621 21.3601 6.43581 21.7989C6.06136 24.1271 6.02902 25.9788 7.36311 28.4406C8.53639 30.6055 10.3958 32.5582 12.4749 33.8781C12.7787 34.0711 12.2439 36.7842 12.7939 36.8175C13.7364 36.8745 15.5439 36.8951 15.9839 36.7842C16.2369 36.7842 16.7062 36.7853 16.7429 36.5735C17.0478 35.8862 16.5027 34.7164 17.3334 34.5095C18.2336 34.2859 19.6584 34.4063 20.5819 34.4327C21.5288 34.4593 22.0793 34.1275 23.022 34.2153C23.7328 34.2816 25.3069 34.2823 25.378 34.3994C25.62 34.7988 25.642 35.9301 25.851 36.6511C25.8886 36.7807 27.1358 37.0125 27.8015 36.9996C28.4855 36.9863 29.8088 36.8494 29.767 36.5846C29.672 35.9818 29.8403 34.7568 29.8726 34.1567C29.866 33.9336 31.6463 33.6199 32.4548 33.0231C33.3491 32.3636 34.2234 31.689 34.9518 30.8402C35.5564 30.1355 36.1513 29.1423 36.6236 28.1482C36.9967 27.3629 37.0504 26.3032 37.1906 25.4695C38.0444 25.5079 39.2051 25.3484 39.2051 24.9601C39.2051 23.6196 39.1912 21.7319 39.2412 20.3918H39.2414ZM25.8301 15.8303C25.9883 15.7613 26.2472 15.7871 26.4866 15.9406C27.1541 16.1243 26.7314 16.7521 26.5554 16.9517C26.3119 17.2778 24.7417 17.6095 24.9164 17.4952C25.6974 16.7077 25.6939 16.107 25.8303 15.8303H25.8301ZM19.5 13.4276C20.2572 12.2676 22.0131 11.9144 23.2833 12.1662C24.3851 12.7494 24.7314 13.4225 24.8073 14.6912C24.8555 15.4925 24.448 17.1933 23.6573 17.5906C22.3912 17.7222 21.2061 17.7106 19.9578 17.3976C19.1922 16.5804 18.8763 14.3833 19.5 13.4276ZM36.2793 24.6828C36.1458 26.3759 36.1585 28.2924 34.8713 29.4746C33.9418 30.3287 33.6417 31.1635 32.5723 31.8594C31.7145 32.4177 28.8872 33.379 28.9297 33.7006C28.9297 34.4915 28.9416 35.7458 28.7772 35.7527C28.2752 35.7742 26.8076 35.994 26.7642 35.7083C26.6412 34.9505 26.4342 33.379 25.9282 33.3124C24.6962 33.1505 23.317 33.4544 21.7893 33.4415C20.6642 33.432 19.5393 33.4185 18.4143 33.4169C17.5598 33.4156 16.9688 33.231 16.2041 33.4014C15.9678 33.4085 15.8143 35.2098 15.7641 35.7973C15.7525 35.9339 14.9545 35.827 14.6351 35.8334C14.1108 35.8443 13.7122 35.8893 13.6961 35.7529C13.6266 35.167 13.8629 33.6405 13.6521 33.4014C13.1241 32.8024 11.8914 32.1347 11.0561 31.183C9.49889 29.4087 7.7952 28.0078 7.49204 25.5482C7.21285 23.2826 7.70104 20.3601 9.01951 18.5075C10.2315 16.8051 12.0905 15.301 13.9803 14.3651C14.9182 13.9008 16.0292 13.6064 17.0628 13.4631C17.5397 13.3967 18.3969 13.3124 18.3274 13.469C18.1844 13.7907 18.1844 14.7224 18.0854 14.7114C15.7698 14.7114 16.0963 17.4903 17.6783 18.0057C18.7603 18.3582 20.4576 18.5922 22.0784 18.6712C23.6864 18.7493 25.3164 18.6191 26.7094 17.8171C27.428 17.3963 28.0336 16.2094 27.512 15.3514C26.9044 14.8003 25.9284 14.911 25.9174 14.7114C25.8899 14.2115 25.7634 13.7796 25.9284 13.7685C26.5629 13.7259 27.686 13.6419 28.3088 13.5265C28.8362 13.4289 29.4762 12.7139 29.9325 12.4264C30.3989 13.0906 30.8633 14.1636 31.1645 14.2122C31.8964 14.3007 33.2105 15.1273 33.7306 15.6522C33.7194 15.6386 33.7414 15.6615 33.8168 15.7425C33.858 15.7868 33.8984 15.8319 33.9387 15.8771C34.4971 16.4949 34.2975 16.2782 34.0553 16.0122C35.7762 18.0547 36.0998 20.5056 36.0963 20.825C36.0925 21.1445 37.8204 20.9797 38.1922 21.1988C38.2925 22.0831 38.1326 23.4445 38.2378 24.3725C38.1918 24.5899 36.3017 24.317 36.2797 24.6831L36.2793 24.6828ZM18.7891 17.2623C18.2176 17.16 17.1831 17.1378 17.3041 15.9756C17.3653 15.6309 18.1368 15.4088 18.1164 15.6812C18.0961 15.9534 18.3601 16.8075 18.7891 17.2623Z" fill="#061014" fill-opacity="0.9"/>
<path d="M39.5069 20.6418H39.4829C39.4501 21.7158 39.4524 23.0761 39.4543 24.2284C39.4547 24.4844 39.4551 24.7301 39.4551 24.9601C39.4551 25.1976 39.2773 25.3453 39.1333 25.4266C38.9787 25.5138 38.7783 25.5754 38.5695 25.6194C38.2171 25.6937 37.7923 25.7274 37.4035 25.7249C37.3831 25.863 37.3639 26.0068 37.344 26.1555L37.3431 26.1624C37.3126 26.3907 37.2806 26.6298 37.2411 26.8679C37.1624 27.3421 37.0512 27.8309 36.8494 28.2555L36.6236 28.1482L36.8494 28.2555C36.3715 29.2613 35.7655 30.2757 35.1416 31.003L35.1415 31.0031C34.3929 31.8753 33.498 32.5644 32.6033 33.2243C32.6032 33.2243 32.6032 33.2243 32.6032 33.2243L32.4548 33.0231C32.012 33.35 31.2777 33.5919 30.7051 33.7805C30.2322 33.9363 29.8696 34.0558 29.8726 34.1567L39.5069 20.6418ZM39.5069 20.6418L39.491 20.3768C39.4831 20.246 39.3943 20.1725 39.3494 20.143C39.3007 20.111 39.2468 20.092 39.2043 20.0797C39.1165 20.0541 39.0048 20.0372 38.8899 20.0243C38.7007 20.0031 38.4621 19.9888 38.2234 19.9745C38.1685 19.9712 38.1136 19.9679 38.0593 19.9646C37.7611 19.946 37.4805 19.925 37.2783 19.8895C37.2134 19.8781 37.1645 19.8665 37.1296 19.8558C37.1278 19.8413 37.1258 19.8273 37.1238 19.8143C37.115 19.7586 37.1015 19.6932 37.0844 19.6212C37.0501 19.4768 36.9988 19.2939 36.9345 19.0861C36.8056 18.6697 36.6214 18.1426 36.408 17.602C36.1947 17.0619 35.9505 16.504 35.7011 16.0279C35.4563 15.5605 35.1918 15.1425 34.931 14.9088C33.968 14.0455 32.8933 13.2416 31.7214 12.823L31.7213 12.823C31.7214 12.823 31.713 12.8199 31.6964 12.8064C31.6799 12.793 31.6591 12.7725 31.6344 12.7425C31.5844 12.6818 31.5293 12.5959 31.4699 12.4859C31.3506 12.2654 31.2319 11.9835 31.1093 11.6906L31.0997 11.6676C30.9831 11.3891 30.8622 11.1001 30.7413 10.8768C30.6793 10.7623 30.6107 10.6526 30.5348 10.5667C30.4644 10.4869 30.3538 10.3888 30.2024 10.3729C30.0646 10.3584 29.9363 10.4158 29.8443 10.4687C29.744 10.5264 29.6399 10.6067 29.5379 10.6953C29.3334 10.8731 29.1073 11.1108 28.8945 11.3424C28.8178 11.4259 28.7431 11.5082 28.6712 11.5875C28.5391 11.7331 28.4162 11.8686 28.3063 11.983C28.222 12.0709 28.1518 12.1393 28.097 12.1857C28.0727 12.2064 28.0549 12.2196 28.0432 12.2273C27.9845 12.2365 27.9232 12.2461 27.86 12.256C27.4279 12.3237 26.9025 12.4061 26.4552 12.4538C26.1929 12.4818 25.9689 12.4965 25.8113 12.4914C25.7603 12.4897 25.7225 12.4861 25.6959 12.4821C25.0552 11.2232 23.6931 10.6776 22.3452 10.67C21.0266 10.6625 19.6452 11.1668 18.8438 12.1102C17.1538 12.0269 15.856 12.0742 14.2455 12.8603M39.5069 20.6418L14.2455 12.8603M14.2455 12.8603C11.481 13.537 9.24892 15.7973 7.74395 17.9859C7.56483 17.6736 7.34978 17.4237 7.02873 17.1754L6.99766 17.1514L6.96072 17.1381C6.68617 17.0389 6.45834 17.0129 6.26142 17.0356C6.06401 17.0583 5.9169 17.128 5.8068 17.1885C5.77378 17.2067 5.75288 17.2188 5.7347 17.2294C5.71553 17.2405 5.69939 17.2498 5.67526 17.2627C5.63998 17.2815 5.62241 17.2877 5.61333 17.2898C5.61201 17.2901 5.61108 17.2902 5.61048 17.2903C5.60792 17.2896 5.59078 17.2842 5.55669 17.2565L5.55667 17.2565C4.86739 16.6959 4.19273 16.5187 3.60701 16.6463C3.02488 16.7732 2.58356 17.1902 2.33776 17.71L2.33756 17.7099L2.33338 17.7198C2.26684 17.8778 2.16771 18.1132 2.09736 18.3513C2.0311 18.5756 1.97156 18.8602 2.03707 19.0935L2.03709 19.0936C2.11236 19.3614 2.32089 19.5127 2.5103 19.5759C2.60535 19.6075 2.70588 19.6211 2.79952 19.6135C2.88433 19.6066 3.00511 19.5785 3.09278 19.4835C3.09283 19.4835 3.09288 19.4834 3.09294 19.4834L2.90917 19.3139M14.2455 12.8603L4.07861 18.3736M2.90917 19.3139C2.97107 19.2469 3.03209 19.1244 3.1027 18.9826C3.26551 18.6558 3.47935 18.2264 3.87278 18.1386C4.23997 17.9644 4.44919 18.4019 4.27979 18.5379M2.90917 19.3139C2.80379 19.4281 2.37215 19.3618 2.27777 19.0259M2.90917 19.3139L2.27777 19.0259M4.27979 18.5379L4.14481 18.3274C4.12207 18.342 4.10001 18.3575 4.07861 18.3736M4.27979 18.5379L4.12329 18.3429C4.108 18.3552 4.09848 18.3701 4.09362 18.3823C4.09134 18.3881 4.0903 18.3926 4.08982 18.3956C4.08934 18.3985 4.08938 18.4001 4.08938 18.4003L4.08938 18.4003C4.08938 18.4003 4.08934 18.3994 4.089 18.3976C4.08862 18.3957 4.08796 18.3931 4.08686 18.39C4.08497 18.3847 4.0822 18.3791 4.07861 18.3736M4.27979 18.5379C4.05363 18.6829 3.88707 18.96 3.7598 19.1718C3.75336 19.1825 3.74702 19.193 3.74078 19.2034C3.55202 19.8161 3.75178 20.1684 4.22875 20.4073C5.05595 20.7458 5.45196 20.3039 5.7978 19.8024C5.85632 19.7175 5.88229 19.5603 5.90977 19.3939C5.9694 19.033 6.03616 18.6289 6.45781 18.8263C6.70289 18.8469 6.90881 19.8467 6.85381 20.0242M4.07861 18.3736C3.95368 18.468 3.85143 18.5865 3.76859 18.6988C3.68083 18.8177 3.60548 18.9432 3.54571 19.0427C3.53918 19.0535 3.53283 19.0641 3.52667 19.0743L3.51087 19.1005L3.50186 19.1298C3.39673 19.471 3.38802 19.7786 3.50645 20.0466C3.62447 20.3136 3.84913 20.4968 4.11678 20.6308L4.12527 20.6351L4.13406 20.6387C4.60225 20.8303 4.98761 20.813 5.31133 20.6405C5.61555 20.4785 5.83033 20.1956 6.00362 19.9443L6.00365 19.9442C6.04914 19.8782 6.07625 19.8035 6.09439 19.7405C6.11317 19.6752 6.12707 19.605 6.13871 19.5394C6.14584 19.4991 6.15219 19.4607 6.15828 19.4239C6.17364 19.3309 6.1874 19.2476 6.20813 19.1689C6.22182 19.1168 6.2359 19.0783 6.24974 19.0513C6.25682 19.0374 6.26254 19.0291 6.26622 19.0245M6.85381 20.0242L6.61502 19.9502C6.61404 19.9533 6.61306 19.9565 6.61208 19.9597M6.85381 20.0242L6.61501 19.9502C6.6128 19.9574 6.61208 19.9615 6.61198 19.9615C6.61194 19.9615 6.61199 19.9609 6.61208 19.9597M6.85381 20.0242C6.66901 20.6203 6.50621 21.3601 6.43581 21.7989M6.61208 19.9597C6.61236 19.9558 6.61303 19.9457 6.61268 19.9274C6.61206 19.8949 6.60861 19.8508 6.60167 19.7971C6.58783 19.6902 6.56194 19.5592 6.52722 19.4325C6.49194 19.3036 6.45075 19.191 6.41012 19.1147C6.39827 19.0924 6.3883 19.0767 6.38082 19.0663M6.61208 19.9597C6.42473 20.5662 6.2607 21.3122 6.18896 21.7593M6.38082 19.0663L6.39229 19.0716L6.43684 19.0754C6.39024 19.0715 6.36706 19.0498 6.3671 19.0496C6.3671 19.0496 6.36761 19.0501 6.36862 19.0511C6.37117 19.0537 6.37532 19.0586 6.38082 19.0663ZM6.38082 19.0663L6.35181 19.0527C6.30543 19.031 6.27912 19.0253 6.26622 19.0245M6.26622 19.0245C6.26913 19.0208 6.27075 19.0194 6.27075 19.0194C6.27075 19.0194 6.27066 19.0194 6.2705 19.0196C6.26741 19.0219 6.26467 19.0234 6.26243 19.0243M6.26622 19.0245C6.2648 19.0244 6.26354 19.0243 6.26243 19.0243M6.26243 19.0243C6.25769 19.0244 6.25579 19.0252 6.25603 19.0256C6.25626 19.026 6.25863 19.0259 6.26243 19.0243ZM6.18896 21.7593C6.18897 21.7593 6.18897 21.7593 6.18898 21.7592L6.43581 21.7989M6.18896 21.7593C5.80966 24.1178 5.77329 26.0316 7.14332 28.5597C8.32989 30.7492 10.2026 32.7212 12.2991 34.0626M6.18896 21.7593L6.43581 21.7989M6.43581 21.7989C6.06136 24.1271 6.02902 25.9788 7.36311 28.4406C8.53639 30.6055 10.3958 32.5582 12.4749 33.8781M12.2991 34.0626L12.3408 34.0891M12.2991 34.0626C12.3014 34.0719 12.3041 34.0841 12.3067 34.0998C12.3188 34.1721 12.325 34.2778 12.3255 34.4152C12.3264 34.6111 12.3161 34.8432 12.3052 35.0914C12.3007 35.1915 12.2962 35.2942 12.2922 35.3982C12.2788 35.7498 12.2719 36.117 12.3066 36.4016C12.3236 36.5418 12.3532 36.6848 12.4108 36.8007C12.4697 36.9195 12.5842 37.0553 12.7788 37.067C13.256 37.0959 13.9488 37.1154 14.5779 37.1138C14.8926 37.113 15.1937 37.107 15.4453 37.0939C15.6714 37.0822 15.8751 37.0641 16.0126 37.0342M12.2991 34.0626C12.3124 34.0711 12.3258 34.0796 12.3391 34.088C12.3086 34.0682 12.2954 34.0463 12.2923 34.0402M12.2991 34.0626C12.2961 34.0505 12.2936 34.0434 12.2923 34.0402M12.2991 34.0626L15.9839 36.7842M12.4749 33.8781L12.3408 34.0891M12.4749 33.8781C12.6053 33.961 12.5811 34.5086 12.5546 35.1091C12.5194 35.9071 12.48 36.7985 12.7939 36.8175C13.7364 36.8745 15.5439 36.8951 15.9839 36.7842M12.4749 33.8781L12.3409 34.0892C12.3408 34.0892 12.3408 34.0891 12.3408 34.0891M12.3408 34.0891L15.9839 36.7842M15.9839 36.7842V37.0342H15.9945C16.0003 37.0342 16.0064 37.0342 16.0126 37.0342M15.9839 36.7842L16.045 37.0266C16.0347 37.0292 16.0238 37.0318 16.0126 37.0342M15.9839 36.7842H15.9878C16.2417 36.7842 16.7063 36.7842 16.7429 36.5735M16.0126 37.0342C16.1359 37.0342 16.3217 37.0329 16.4866 37.0047C16.575 36.9896 16.6772 36.9639 16.7664 36.914C16.851 36.8667 16.9462 36.7838 16.9815 36.6514M12.2923 34.0402C12.2923 34.0401 12.2923 34.0401 12.2923 34.04C12.2918 34.039 12.2916 34.0385 12.2916 34.0385C12.2915 34.0385 12.2918 34.0391 12.2923 34.0402ZM16.9815 36.6514C16.9782 36.6593 16.9749 36.6671 16.9714 36.6749L16.7429 36.5735M16.9815 36.6514C17.0697 36.4398 17.0921 36.2073 17.0969 35.9958C17.0994 35.8845 17.0971 35.7725 17.0946 35.6672L17.0942 35.6492C17.0919 35.5487 17.0897 35.4549 17.0909 35.3649C17.0937 35.1687 17.1134 35.0275 17.1597 34.9292C17.1976 34.8488 17.2578 34.786 17.3938 34.7521M16.9815 36.6514C16.9845 36.64 16.9871 36.6283 16.9892 36.6162L16.7429 36.5735M16.7429 36.5735C16.8596 36.3105 16.8518 35.9769 16.8442 35.6536C16.8321 35.132 16.8205 34.6373 17.3334 34.5095M17.3938 34.7521C17.3938 34.7521 17.3937 34.7521 17.3937 34.7521L17.3334 34.5095M17.3938 34.7521C17.8113 34.6484 18.3657 34.6219 18.9466 34.6273C19.3131 34.6308 19.6733 34.6463 20.0085 34.6608C20.2074 34.6693 20.3974 34.6775 20.5748 34.6826L20.5749 34.6826C21.0447 34.6958 21.4244 34.6255 21.7727 34.561C21.7982 34.5563 21.8235 34.5516 21.8487 34.5469C22.2184 34.479 22.5634 34.4237 22.9988 34.4642M17.3938 34.7521L17.3334 34.5095M17.3334 34.5095C18.068 34.327 19.1518 34.3736 20.0276 34.4113C20.2251 34.4198 20.412 34.4279 20.5819 34.4327C21.0244 34.4452 21.3803 34.3793 21.7301 34.3146C22.1289 34.2408 22.5198 34.1685 23.022 34.2153M22.9988 34.4642L22.9988 34.4642L23.022 34.2153M22.9988 34.4642L23.022 34.2153M22.9988 34.4642C23.263 34.4889 23.6444 34.5047 24.0183 34.5203C24.1581 34.5261 24.2969 34.5319 24.4282 34.538C24.6737 34.5496 24.893 34.5625 25.0539 34.5792C25.1145 34.5855 25.1626 34.592 25.1986 34.5983C25.2262 34.6641 25.2539 34.7551 25.2808 34.8736C25.3178 35.0368 25.3486 35.2297 25.3795 35.4408C25.3878 35.4976 25.3961 35.5558 25.4046 35.615C25.4574 35.9846 25.5155 36.3917 25.6109 36.7207L25.6109 36.7208C25.6356 36.806 25.6942 36.8552 25.7186 36.8741C25.7495 36.898 25.7826 36.916 25.8102 36.9292C25.8663 36.9561 25.9349 36.9801 26.0062 37.0015C26.1512 37.045 26.3414 37.0876 26.5461 37.1248C26.9535 37.1987 27.45 37.2565 27.8064 37.2496L27.8064 37.2496C28.1581 37.2427 28.6724 37.2044 29.0978 37.133C29.3082 37.0977 29.5114 37.052 29.6646 36.9922C29.7393 36.963 29.8212 36.9234 29.8866 36.8666C29.9528 36.8091 30.0382 36.6989 30.014 36.5456C30.014 36.5456 30.014 36.5456 30.014 36.5456L25.378 34.3994M23.022 34.2153C23.2793 34.2393 23.6498 34.2547 24.0212 34.2702C24.6756 34.2974 25.3326 34.3247 25.378 34.3994M25.378 34.3994C25.5157 34.6268 25.5822 35.0913 25.6525 35.5823C25.7056 35.9539 25.761 36.3406 25.851 36.6511L25.378 34.3994ZM6.87581 17.3732C7.20332 17.6264 7.40848 17.8778 7.5864 18.2187L6.87581 17.3732ZM6.87581 17.3732C6.32962 17.176 6.06475 17.3281 5.86465 17.443C5.70487 17.5348 5.58638 17.6029 5.39894 17.4504C4.10378 16.3971 3.00267 16.8887 2.56377 17.8169C2.42957 18.1355 2.18889 18.7094 2.27777 19.0259M6.87581 17.3732L2.27777 19.0259M36.2171 24.3722C36.2295 24.3645 36.2416 24.3577 36.253 24.3517C36.3424 24.3053 36.4494 24.2799 36.5486 24.2639C36.7507 24.2312 37.0084 24.2244 37.2473 24.2221C37.3136 24.2214 37.3785 24.2211 37.4414 24.2208C37.6144 24.22 37.7719 24.2192 37.901 24.2117C37.927 24.2102 37.9504 24.2084 37.9713 24.2065C37.9382 23.7628 37.9509 23.2517 37.9633 22.763L37.9634 22.7569C37.9761 22.2535 37.9882 21.7746 37.9582 21.3807C37.9539 21.3797 37.9494 21.3788 37.9447 21.3778C37.8745 21.3633 37.7866 21.3516 37.6837 21.3418C37.5253 21.3267 37.3473 21.3176 37.163 21.3082C37.1057 21.3053 37.0478 21.3023 36.9898 21.2992C36.7531 21.2862 36.5087 21.2695 36.3217 21.2327C36.2303 21.2147 36.1308 21.1881 36.0484 21.1423C35.9683 21.0977 35.8442 20.9978 35.8463 20.8221M36.2171 24.3722L34.4254 16.4859C34.4182 16.4924 34.4109 16.4983 34.4036 16.5034C34.3438 16.5226 34.2499 16.5221 34.2195 16.5142C34.2038 16.5084 34.1796 16.497 34.1709 16.4921C34.1558 16.4832 34.1451 16.4747 34.1422 16.4723C34.1343 16.4661 34.1285 16.4606 34.1272 16.4594L34.1218 16.4543C34.105 16.4377 33.9868 16.3083 33.8705 16.1806L33.8734 16.1778C33.8713 16.1755 33.8692 16.1732 33.8671 16.1708C33.8671 16.1708 33.8671 16.1708 33.867 16.1707M36.2171 24.3722L36.0592 24.2933L36.0301 24.6632C36.0153 24.8501 36.0024 25.0376 35.9896 25.225C35.9429 25.9025 35.8965 26.5786 35.7632 27.2194C35.5946 28.03 35.2928 28.748 34.7022 29.2905L34.7021 29.2905C34.3041 29.6562 34.0144 30.0219 33.7473 30.359C33.6907 30.4305 33.6351 30.5006 33.5797 30.5693C33.2613 30.9637 32.9383 31.3229 32.4359 31.6498L32.4359 31.6498C32.2394 31.7777 31.9182 31.9355 31.5325 32.1095C31.2611 32.2319 30.967 32.3583 30.6735 32.4845C30.553 32.5362 30.4326 32.588 30.314 32.6394C29.9105 32.8142 29.5257 32.9855 29.2435 33.1348C29.1037 33.2087 28.978 33.2829 28.8855 33.3546C28.84 33.39 28.7917 33.4329 28.754 33.4834C28.7217 33.5266 28.6736 33.6068 28.6797 33.7108C28.6797 33.7566 28.6797 33.8038 28.6798 33.852C28.6801 34.2217 28.6805 34.6534 28.6653 35.01C28.6566 35.2146 28.6432 35.384 28.6238 35.4989C28.6231 35.5034 28.6223 35.5078 28.6216 35.5119C28.5245 35.5193 28.4123 35.5296 28.2948 35.5405C28.2747 35.5423 28.2545 35.5442 28.2341 35.546C28.0251 35.5652 27.7979 35.5853 27.5861 35.596C27.3712 35.6068 27.1864 35.6071 27.0579 35.5908C27.0331 35.5876 27.0129 35.5842 26.997 35.5808C26.9921 35.5502 26.9871 35.5184 26.9819 35.4855C26.924 35.1184 26.8456 34.6212 26.7316 34.1876C26.6646 33.9328 26.5813 33.6833 26.4742 33.488C26.3747 33.3068 26.214 33.0979 25.9608 33.0646C25.3161 32.9798 24.6399 33.0177 23.9501 33.0718C23.8384 33.0806 23.7263 33.0898 23.6138 33.099C23.0241 33.1474 22.4212 33.1968 21.7914 33.1915C21.5107 33.1892 21.2299 33.1865 20.9489 33.1839C20.1048 33.176 19.2596 33.1681 18.4146 33.1669M36.2171 24.3722L18.4146 33.1669M35.8463 20.8221L36.0963 20.825L35.8463 20.8223C35.8463 20.8222 35.8463 20.8222 35.8463 20.8221ZM35.8463 20.8221C35.8476 20.6987 35.7753 20.0348 35.4847 19.1422C35.1961 18.2556 34.6984 17.1635 33.8641 16.1733L33.867 16.1707M33.867 16.1707C33.8332 16.1333 33.7954 16.0914 33.7532 16.0448L33.7519 16.0433C33.7122 15.9986 33.673 15.955 33.6335 15.9124L33.659 15.8888M33.867 16.1707L34.0551 16.006C34.0206 15.9678 33.9819 15.925 33.9387 15.8771L33.659 15.8888M18.4146 33.1669C18.1202 33.1665 17.8645 33.1439 17.6101 33.1215C17.5052 33.1123 17.4005 33.103 17.2933 33.0954C16.9368 33.0699 16.5745 33.0647 16.1638 33.1543C16.0821 33.1657 16.0226 33.2087 15.9865 33.2438C15.9462 33.283 15.918 33.3283 15.8982 33.3658C15.8584 33.4413 15.8272 33.5355 15.8014 33.6309C15.7488 33.8253 15.7042 34.0819 15.6668 34.3467C15.6033 34.7954 15.5568 35.2948 15.5288 35.6161C15.4735 35.618 15.4044 35.6173 15.3242 35.6143C15.2437 35.6114 15.1493 35.6058 15.054 35.6002C14.8953 35.5909 14.734 35.5814 14.63 35.5835L14.6299 35.5835C14.522 35.5857 14.4245 35.5891 14.3363 35.5922C14.1965 35.597 14.0799 35.6011 13.9816 35.5985C13.9642 35.598 13.9488 35.5973 13.9351 35.5965C13.9307 35.4839 13.9329 35.3433 13.9393 35.1818C13.9448 35.0428 13.9529 34.8977 13.9612 34.7495C13.9665 34.6539 13.9719 34.557 13.9768 34.4595C13.9888 34.2168 13.997 33.9748 13.9878 33.7758C13.9833 33.6765 13.9741 33.58 13.9563 33.4956C13.9402 33.4193 13.9102 33.3162 13.8396 33.2361L13.8396 33.2361C13.5882 32.9508 13.1943 32.6556 12.7863 32.3498C12.731 32.3084 12.6754 32.2667 12.6198 32.2248C12.1413 31.8641 11.643 31.4727 11.244 31.0181C10.9673 30.7028 10.6914 30.4047 10.4218 30.1134C9.91451 29.5653 9.42954 29.0412 9.00392 28.4727C8.36285 27.6165 7.88487 26.6917 7.74016 25.5177C7.46637 23.2958 7.95035 20.4409 9.22319 18.6524C10.4085 16.9876 12.2339 15.509 14.0913 14.5891C14.9992 14.1396 16.0828 13.8513 17.0971 13.7107L17.0972 13.7107C17.3322 13.678 17.6563 13.6416 17.9092 13.6323C17.9498 13.6308 17.9869 13.6301 18.0203 13.63C18.0112 13.6736 18.0034 13.7174 17.9964 13.7601C17.9736 13.8998 17.9564 14.0525 17.9414 14.1873L17.9407 14.1937C17.9288 14.3007 17.9185 14.3933 17.9078 14.4666C17.3639 14.4992 16.9415 14.6829 16.6462 14.9763C16.3213 15.2992 16.176 15.7296 16.1703 16.162C16.159 17.0118 16.689 17.9463 17.6009 18.2434C18.7138 18.606 20.4367 18.8415 22.0662 18.9209L22.0663 18.9209C23.6902 18.9998 25.3786 18.8717 26.8342 18.0338L26.8358 18.0328C27.2502 17.7901 27.6154 17.3403 27.809 16.8381C28.0034 16.3339 28.0387 15.7365 27.7256 15.2215L27.7068 15.1905L27.6799 15.1662C27.3234 14.8428 26.87 14.7224 26.5414 14.6547C26.4657 14.6391 26.4014 14.6271 26.345 14.6166C26.2718 14.603 26.2121 14.5918 26.1588 14.5787C26.1514 14.4891 26.1419 14.4037 26.1326 14.3253C26.1293 14.2973 26.1261 14.2706 26.123 14.2451C26.1133 14.1651 26.105 14.0966 26.0999 14.0357C26.099 14.0258 26.0983 14.0165 26.0977 14.0076C26.7462 13.9625 27.7631 13.8818 28.3543 13.7723L18.4146 33.1669ZM33.7312 15.6516C33.7312 15.6516 33.7312 15.6516 33.7312 15.6516C33.733 15.6534 33.7356 15.6561 33.7389 15.6595L33.553 15.8281C33.3138 15.5867 32.8752 15.2615 32.4009 14.9844C31.9204 14.7038 31.4464 14.4981 31.1345 14.4604L31.1246 14.4592L31.1247 14.459C31.0239 14.4428 30.9426 14.3894 30.8843 14.341C30.8234 14.2903 30.7666 14.2272 30.7144 14.1612C30.6101 14.0293 30.5021 13.8575 30.3954 13.6777C30.3309 13.5689 30.2663 13.4566 30.2016 13.344C30.0907 13.151 29.9794 12.9573 29.8671 12.7798C29.7798 12.8478 29.6869 12.9255 29.587 13.0092C29.4984 13.0833 29.4043 13.162 29.3037 13.2427C29.0258 13.4656 28.6883 13.7105 28.3544 13.7723L33.7312 15.6516ZM33.7312 15.6516L33.7306 15.6522L33.5381 15.8118L33.5323 15.8045L33.5322 15.8044C33.5311 15.803 33.5241 15.7942 33.5169 15.7828C33.5146 15.7792 33.5103 15.7723 33.5056 15.7631L33.5054 15.7628C33.5025 15.7572 33.4902 15.7333 33.4832 15.7003C33.4799 15.6844 33.4727 15.6442 33.4838 15.5943C33.4921 15.5568 33.511 15.5151 33.5436 15.4794C32.9429 14.963 31.8201 14.2915 31.1645 14.2122L33.7312 15.6516ZM33.8168 15.7425C33.8442 15.772 33.8712 15.8018 33.8981 15.8317C33.8808 15.8478 33.8604 15.8622 33.8363 15.8738C33.7689 15.9063 33.7082 15.899 33.684 15.8947C33.6751 15.8931 33.6669 15.8911 33.6596 15.889L33.8168 15.7425ZM33.8168 15.7425L33.659 15.8888M33.8168 15.7425L33.659 15.8888M37.068 19.8309C37.0681 19.8309 37.07 19.8319 37.0731 19.834C37.0693 19.832 37.0678 19.831 37.068 19.8309ZM28.0321 12.2339C28.0321 12.2339 28.0328 12.2335 28.0342 12.2329C28.0328 12.2337 28.0321 12.234 28.0321 12.2339ZM25.6494 12.4708C25.6497 12.4707 25.6525 12.4716 25.6569 12.4737C25.6514 12.472 25.6492 12.4709 25.6494 12.4708ZM26.0751 16.9598C25.9159 17.0268 25.722 17.0898 25.5338 17.1418C25.8316 16.7051 25.9366 16.3326 25.9986 16.1125C26.0055 16.0878 26.012 16.0651 26.0181 16.0443C26.1005 16.043 26.2209 16.0672 26.3516 16.151L26.3836 16.1715L26.4202 16.1816C26.5467 16.2164 26.5796 16.2601 26.588 16.2744C26.5973 16.2903 26.607 16.3224 26.5929 16.3874C26.5623 16.5293 26.4467 16.697 26.3679 16.7864L26.3612 16.794L26.3551 16.8021C26.3552 16.8021 26.3551 16.8021 26.3551 16.8022C26.3546 16.8027 26.3497 16.8087 26.3367 16.8193C26.323 16.8305 26.3038 16.8441 26.2781 16.8598C26.2263 16.8912 26.1577 16.9251 26.0751 16.9598ZM24.5577 14.7061L24.5577 14.7062C24.5795 15.0673 24.497 15.66 24.3101 16.2122C24.2173 16.4862 24.102 16.7407 23.968 16.946C23.8443 17.1357 23.7134 17.2702 23.5823 17.347C22.3789 17.4686 21.2612 17.4555 20.093 17.1734C19.7849 16.807 19.5453 16.1454 19.4559 15.4334C19.3618 14.6827 19.4461 13.9675 19.7093 13.5642C20.0456 13.0491 20.6144 12.6983 21.2692 12.5075C21.9102 12.3206 22.6106 12.2944 23.1989 12.4045C23.7045 12.6769 24.0155 12.958 24.2142 13.2978C24.4193 13.6486 24.5208 14.0887 24.5577 14.7061ZM28.7668 35.5029L28.7665 35.5029L28.7668 35.5029ZM27.0114 35.6708L27.011 35.6682L27.0114 35.6708ZM26.167 14.6976C26.167 14.6974 26.167 14.6972 26.167 14.697L26.167 14.6976ZM18.2018 13.6429C18.2018 13.643 18.2011 13.6428 18.1999 13.6423L18.2018 13.6429ZM13.9444 35.7237L13.9444 35.7234L13.9444 35.7237ZM18.051 16.4931C18.1035 16.6296 18.1677 16.7735 18.2433 16.9138C18.1176 16.8841 18.002 16.8464 17.9022 16.7946C17.7784 16.7303 17.6852 16.6476 17.6255 16.5352C17.5664 16.4242 17.5278 16.2616 17.5513 16.0159C17.5549 16.0064 17.569 15.9789 17.6167 15.9404C17.67 15.8975 17.7434 15.8591 17.8184 15.8347C17.8378 15.8283 17.8556 15.8235 17.8715 15.8198C17.8789 15.8887 17.8923 15.9619 17.9089 16.0347C17.9404 16.173 17.9886 16.3309 18.051 16.4931Z" stroke="#061014" stroke-opacity="0.9" stroke-width="0.5"/>
<path d="M21.9043 10.5502C22.8039 10.5214 23.7391 10.2326 24.4561 9.68713C25.1787 9.13735 25.6807 8.32396 25.6831 7.27061C25.686 5.96761 25.0537 5.00429 24.1861 4.41976C23.3263 3.84046 22.2325 3.63 21.2853 3.81557C20.3741 3.99407 19.7624 4.27938 19.3244 4.59696C18.9004 4.90444 18.6516 5.23408 18.4625 5.48472C18.4566 5.49252 18.4508 5.50026 18.445 5.50791L18.445 5.50793C17.8637 6.27762 17.7059 7.39197 17.9798 8.29991L21.9043 10.5502ZM21.9043 10.5502L21.9043 10.5503C21.1551 10.5743 20.3093 10.4318 19.5841 10.078C18.8567 9.72301 18.2351 9.14637 17.9799 8.29996L21.9043 10.5502ZM22.2972 9.2127L22.2885 9.11668C22.2888 9.11728 22.289 9.11789 22.2892 9.11849L22.2977 9.21265L22.2972 9.2127ZM22.2972 9.2127L22.2885 9.11644C22.2874 9.11367 22.2864 9.11093 22.2853 9.10821L22.2948 9.21291C22.2956 9.21284 22.2964 9.21277 22.2972 9.2127ZM19.7338 6.99045C19.9226 6.49887 20.2839 6.05879 20.6636 5.81814L20.6983 5.79731C21.5002 5.31608 22.1699 5.28755 22.6753 5.47603C23.1874 5.66705 23.5712 6.09581 23.7666 6.60291C23.9626 7.11148 23.9589 7.67176 23.7318 8.11208C23.5124 8.5377 23.0658 8.8874 22.2937 8.962L22.2748 8.9637L22.2747 8.96371L22.2721 8.96394L22.2721 8.9637C21.8559 9.00117 21.3537 9.02711 20.8934 8.95452C20.4304 8.88151 20.0519 8.7157 19.8296 8.40707L19.8296 8.40704C19.5425 8.00853 19.5398 7.4953 19.7338 6.99045Z" fill="#01D0FF" stroke="#01D0FF" stroke-width="0.5"/>
<path d="M33.2584 17.2886L33.3063 17.3461C33.6864 17.8027 33.8185 18.2329 33.7093 18.631C33.605 19.0118 33.298 19.2879 32.9825 19.4907C32.5735 19.7535 32.057 19.6577 31.6985 19.414C31.333 19.1656 31.0566 18.7124 31.1978 18.1842L31.1978 18.1842C31.3417 17.6461 31.5845 17.3305 31.8603 17.1647C32.1324 17.0012 32.399 17.0061 32.5505 17.0342L33.2584 17.2886ZM33.2584 17.2886L33.1866 17.2668M33.2584 17.2886L33.1866 17.2668M33.1866 17.2668C33.1106 17.2438 33.0479 17.2152 32.9696 17.1794M33.1866 17.2668L32.9696 17.1794M32.9696 17.1794C32.9536 17.1721 32.937 17.1646 32.9195 17.1567M32.9696 17.1794L32.9195 17.1567M32.9195 17.1567C32.8197 17.1117 32.7013 17.0622 32.5506 17.0342L32.9195 17.1567Z" fill="#01D0FF" stroke="#01D0FF" stroke-width="0.5"/>
</svg>
