<svg width="20" height="20" viewBox="0 0 20 20" fill="none" xmlns="http://www.w3.org/2000/svg">
<g id="woman avatarAsset 1Longterm 1" clip-path="url(#clip0_13757_26)">
<g id="OBJECTS">
<g id="Group" filter="url(#filter0_d_13757_26)">
<path id="Vector" d="M16.0093 15.5536C19.1536 12.4093 19.1536 7.31142 16.0093 4.16715C12.865 1.02288 7.76716 1.02288 4.62289 4.16715C1.47862 7.31142 1.47862 12.4093 4.62289 15.5536C7.76716 18.6978 12.865 18.6978 16.0093 15.5536Z" fill="#1D262D"/>
<path id="Vector_2" fill-rule="evenodd" clip-rule="evenodd" d="M14.7155 11.9556C14.4725 11.8224 13.2716 11.1752 13.0473 11.0841C12.823 10.993 12.6571 10.9463 12.4818 11.1869C12.3066 11.4299 11.8089 11.972 11.6594 12.1308C11.5075 12.2921 11.3627 12.3061 11.1174 12.1729C10.8744 12.0397 10.0823 11.7453 9.16408 10.8645C8.44913 10.1776 7.98184 9.34579 7.84632 9.09112C7.71081 8.83645 7.84632 8.70794 7.97483 8.58878C8.09165 8.48131 8.23417 8.30608 8.36502 8.16589C8.49352 8.0257 8.54025 7.9229 8.62903 7.76168C8.71782 7.59813 8.68277 7.45327 8.62436 7.32477C8.56595 7.1986 8.11502 5.95561 7.9281 5.45093C7.73885 4.94626 7.52857 5.02103 7.38371 5.01402C7.23885 5.00935 7.07296 4.98131 6.90707 4.97664C6.74118 4.96963 6.46782 5.02336 6.23184 5.26168C5.99352 5.50234 5.32997 6.07944 5.28324 7.30374C5.23651 8.52804 6.08464 9.74299 6.20146 9.91355C6.32062 10.0841 7.81829 12.736 10.3089 13.8271C12.7996 14.9182 12.8136 14.5864 13.2692 14.5607C13.7272 14.5374 14.7622 14.014 14.9935 13.4416C15.2225 12.8692 15.2412 12.3715 15.1828 12.264C15.1244 12.1589 14.9608 12.0888 14.7178 11.9556H14.7155ZM10.1477 0C4.76688 0 0.404735 4.36215 0.404735 9.74299C0.404735 11.5841 0.916417 13.3061 1.80193 14.7734L0.0449219 20L5.43978 18.2734C6.83464 19.0444 8.43978 19.486 10.1477 19.486C15.5286 19.486 19.8907 15.1238 19.8907 9.74299C19.8907 4.36215 15.5286 0 10.1477 0Z" fill="white"/>
</g>
</g>
</g>
<defs>
<filter id="filter0_d_13757_26" x="-0.955078" y="-1" width="27.8457" height="28" filterUnits="userSpaceOnUse" color-interpolation-filters="sRGB">
<feFlood flood-opacity="0" result="BackgroundImageFix"/>
<feColorMatrix in="SourceAlpha" type="matrix" values="0 0 0 0 0 0 0 0 0 0 0 0 0 0 0 0 0 0 127 0" result="hardAlpha"/>
<feOffset dx="3" dy="3"/>
<feGaussianBlur stdDeviation="2"/>
<feColorMatrix type="matrix" values="0 0 0 0 0 0 0 0 0 0 0 0 0 0 0 0 0 0 0.1 0"/>
<feBlend mode="normal" in2="BackgroundImageFix" result="effect1_dropShadow_13757_26"/>
<feBlend mode="normal" in="SourceGraphic" in2="effect1_dropShadow_13757_26" result="shape"/>
</filter>
<clipPath id="clip0_13757_26">
<rect width="19.8458" height="20" fill="white" transform="translate(0.0449219)"/>
</clipPath>
</defs>
</svg>
