<svg width="57" height="56" viewBox="0 0 57 56" fill="none" xmlns="http://www.w3.org/2000/svg">
<circle cx="28.5" cy="28" r="28" fill="white"/>
<g clip-path="url(#clip0_12816_1127)">
<path d="M25.8333 37.3332C20.6867 37.3332 16.5 33.1465 16.5 27.9998C16.5 22.8532 20.6867 18.6665 25.8333 18.6665C30.98 18.6665 35.1667 22.8532 35.1667 27.9998C35.1667 33.1465 30.98 37.3332 25.8333 37.3332ZM25.8333 19.9998C21.4213 19.9998 17.8333 23.5878 17.8333 27.9998C17.8333 32.4118 21.4213 35.9998 25.8333 35.9998C30.2453 35.9998 33.8333 32.4118 33.8333 27.9998C33.8333 23.5878 30.2453 19.9998 25.8333 19.9998Z" fill="#003E79"/>
<path d="M27.8332 32C27.4652 32 27.1665 31.7013 27.1665 31.3333C27.1665 30.9653 27.4652 30.6667 27.8332 30.6667C31.3692 30.6667 33.8332 29.2613 33.8332 28C33.8332 26.7387 31.3692 25.3333 27.8332 25.3333C27.4652 25.3333 27.1665 25.0347 27.1665 24.6667C27.1665 24.2987 27.4652 24 27.8332 24C31.9452 24 35.1665 25.7573 35.1665 28C35.1665 30.2427 31.9452 32 27.8332 32Z" fill="#003E79"/>
<path d="M25.8333 41.3332C18.4813 41.3332 12.5 35.3518 12.5 27.9998C12.5 20.6478 18.4813 14.6665 25.8333 14.6665C31.1773 14.6665 35.9853 17.8358 38.084 22.7412C38.4093 23.5052 39.136 23.9998 39.9307 23.9998H43.8333C44.2013 23.9998 44.5 24.2985 44.5 24.6665C44.5 25.0345 44.2013 25.3332 43.8333 25.3332H39.9307C38.6 25.3332 37.3933 24.5225 36.856 23.2652C34.9707 18.8518 30.6427 15.9998 25.8333 15.9998C19.2173 15.9998 13.8333 21.3838 13.8333 27.9998C13.8333 34.6158 19.2173 39.9998 25.8333 39.9998C30.6427 39.9998 34.9707 37.1478 36.8573 32.7332C37.3933 31.4772 38.6 30.6665 39.9307 30.6665H43.8333C44.2013 30.6665 44.5 30.9652 44.5 31.3332C44.5 31.7012 44.2013 31.9998 43.8333 31.9998H39.9307C39.1347 31.9998 38.4093 32.4945 38.0827 33.2572C35.9853 38.1638 31.1773 41.3332 25.8333 41.3332Z" fill="#003E79"/>
<path d="M41.8335 28.6668H34.5002C34.1322 28.6668 33.8335 28.3682 33.8335 28.0002C33.8335 27.6322 34.1322 27.3335 34.5002 27.3335H41.8335C42.2015 27.3335 42.5002 27.6322 42.5002 28.0002C42.5002 28.3682 42.2015 28.6668 41.8335 28.6668Z" fill="#003E79"/>
<path d="M19.1667 32C17.6707 32 16.5 30.2427 16.5 28C16.5 25.7573 17.6707 24 19.1667 24C20.6627 24 21.8333 25.7573 21.8333 28C21.8333 30.2427 20.6627 32 19.1667 32ZM19.1667 25.3333C18.5373 25.3333 17.8333 26.4733 17.8333 28C17.8333 29.5267 18.5373 30.6667 19.1667 30.6667C19.796 30.6667 20.5 29.5267 20.5 28C20.5 26.4733 19.796 25.3333 19.1667 25.3333Z" fill="#003E79"/>
</g>
<defs>
<clipPath id="clip0_12816_1127">
<rect width="32" height="32" fill="white" transform="translate(12.5 12)"/>
</clipPath>
</defs>
</svg>
