<svg width="66" height="66" viewBox="0 0 66 66" fill="none" xmlns="http://www.w3.org/2000/svg">
<circle cx="33" cy="33" r="33" fill="#D1E8FE"/>
<g clip-path="url(#clip0_13009_1092)">
<path d="M33.9879 29.9375C34.3964 29.9375 34.8126 29.8237 35.1918 29.6086C35.1925 29.6084 35.193 29.6079 35.1937 29.6077C36.6036 28.8132 37.5382 27.5608 37.9711 25.8855C38.0197 25.6985 37.9786 25.4993 37.8602 25.3464C37.7418 25.1936 37.5594 25.1042 37.3661 25.1042H28.6202C28.4266 25.1042 28.2443 25.1936 28.1261 25.3464C28.0074 25.4993 27.9667 25.6985 28.015 25.8855C28.4481 27.5608 29.3827 28.8132 30.7924 29.6077C30.7931 29.6079 30.7938 29.6084 30.7946 29.6086C31.1735 29.8237 31.5897 29.9375 31.9984 29.9375H33.9879ZM31.4061 28.5186C30.5311 28.0256 29.8885 27.2996 29.4882 26.354H36.4982C36.0978 27.2996 35.455 28.0256 34.5802 28.5186C34.5785 28.5195 34.5765 28.5205 34.5748 28.5215C34.3834 28.6301 34.1805 28.6875 33.9879 28.6875H31.9984C31.8058 28.6875 31.6027 28.6301 31.4115 28.5215C31.4095 28.5205 31.4078 28.5195 31.4061 28.5186Z" fill="#001529"/>
<path d="M32.9932 30.25C32.6482 30.25 32.3682 30.5298 32.3682 30.875V31.4062C32.3682 31.7515 32.6482 32.0312 32.9932 32.0312C33.3384 32.0312 33.6182 31.7515 33.6182 31.4062V30.875C33.6182 30.5298 33.3384 30.25 32.9932 30.25Z" fill="#001529"/>
<path d="M32.9932 32.8438C32.6482 32.8438 32.3682 33.1235 32.3682 33.4688V34C32.3682 34.3452 32.6482 34.625 32.9932 34.625C33.3384 34.625 33.6182 34.3452 33.6182 34V33.4688C33.6182 33.1235 33.3384 32.8438 32.9932 32.8438Z" fill="#001529"/>
<path d="M32.9932 35.4062C32.6482 35.4062 32.3682 35.686 32.3682 36.0312V36.5625C32.3682 36.9077 32.6482 37.1875 32.9932 37.1875C33.3384 37.1875 33.6182 36.9077 33.6182 36.5625V36.0312C33.6182 35.686 33.3384 35.4062 32.9932 35.4062Z" fill="#001529"/>
<path d="M44.7986 47.75H42.5596V46.342C42.5596 45.2319 41.717 44.3147 40.6375 44.1968C40.7068 43.4583 40.7542 42.2297 40.5312 40.842C40.054 37.8716 38.5586 35.6008 36.2065 34.2756C35.7461 34.0164 35.4602 33.5273 35.4602 33C35.4602 32.4724 35.7461 31.9836 36.2065 31.7241C38.5586 30.3989 40.0542 28.1284 40.5312 25.1577C40.7542 23.7703 40.7068 22.5415 40.6375 21.8032C41.7168 21.6853 42.5596 20.7681 42.5596 19.6577V17.9463C42.5596 17.4243 42.135 17 41.6133 17H24.3726C23.8508 17 23.4263 17.4246 23.4263 17.9463V19.658C23.4263 20.7681 24.269 21.6853 25.3484 21.8032C25.2793 22.5417 25.2319 23.7703 25.4548 25.158C25.9319 28.1284 27.4275 30.3992 29.7795 31.7244C30.24 31.9836 30.5259 32.4727 30.5259 33C30.5259 33.5276 30.24 34.0164 29.7795 34.2759C27.4275 35.6011 25.9319 37.8716 25.4548 40.8423C25.2319 42.2297 25.2793 43.4585 25.3484 44.1968C24.269 44.3147 23.4263 45.2319 23.4263 46.3423V47.75H21.1875C20.8423 47.75 20.5625 48.0298 20.5625 48.375C20.5625 48.7202 20.8423 49 21.1875 49H44.7983C45.1436 49 45.4233 48.7202 45.4233 48.375C45.4233 48.0298 45.1436 47.75 44.7986 47.75ZM24.6765 19.658V18.25H41.3096V19.658C41.3096 20.1587 40.9021 20.5662 40.4014 20.5662H25.5847C25.084 20.5662 24.6765 20.1587 24.6765 19.658ZM26.689 41.0403C27.1096 38.4221 28.3557 36.5127 30.3933 35.3647C31.2461 34.8843 31.7759 33.978 31.7759 33C31.7759 32.022 31.2461 31.1157 30.3931 30.6353C28.3657 29.4929 27.1216 27.5957 26.6951 24.9963C26.4756 23.6592 26.5383 22.4639 26.6045 21.8162H39.3823C39.4482 22.4558 39.5105 23.6309 39.2971 24.9597C38.8765 27.5779 37.6304 29.4873 35.5928 30.6353C34.74 31.1157 34.21 32.022 34.21 33C34.21 33.978 34.74 34.8843 35.5928 35.365C37.6204 36.5071 38.8645 38.4043 39.291 41.0039C39.5105 42.3411 39.4478 43.5361 39.3816 44.1838H38.0654C38.0444 43.6992 37.9783 43.2153 37.8687 42.7427C37.7905 42.4065 37.4548 42.1973 37.1187 42.2751C36.7822 42.353 36.573 42.689 36.6509 43.0251C36.7393 43.4055 36.7939 43.7942 36.814 44.1838H29.1724C29.2676 42.3774 30.0972 40.6729 31.4749 39.4724C32.3347 38.7231 33.5947 38.709 34.4707 39.438C34.7361 39.6589 35.1301 39.6228 35.3508 39.3574C35.5715 39.092 35.5356 38.698 35.2703 38.4773C33.9202 37.3535 31.9785 37.3757 30.6538 38.53C29.0039 39.9675 28.0171 42.0161 27.9209 44.1838H26.6038C26.5378 43.5442 26.4756 42.3691 26.689 41.0403ZM24.6765 47.75V46.342C24.6765 45.8413 25.084 45.4338 25.5847 45.4338H40.4014C40.9021 45.4338 41.3096 45.8413 41.3096 46.342V47.75H24.6765Z" fill="#001529"/>
<path d="M36.3447 41.2988H36.3462C36.6914 41.2988 36.9705 41.019 36.9705 40.6738C36.9705 40.3286 36.6899 40.0488 36.3447 40.0488C35.9995 40.0488 35.7197 40.3286 35.7197 40.6738C35.7197 41.019 35.9995 41.2988 36.3447 41.2988Z" fill="#001529"/>
</g>
<defs>
<clipPath id="clip0_13009_1092">
<rect width="32" height="32" fill="white" transform="translate(17 17)"/>
</clipPath>
</defs>
</svg>
