<svg width="67" height="66" viewBox="0 0 67 66" fill="none" xmlns="http://www.w3.org/2000/svg">
<circle cx="33.5" cy="33" r="33" fill="#D1E8FE"/>
<g clip-path="url(#clip0_13009_1069)">
<path d="M46.591 17H20.4091C18.8047 17 17.5 18.3047 17.5 19.9091V34.4546C17.5 36.0589 18.8047 37.3637 20.4091 37.3637H30.5909V46.091C30.5909 48.0896 34.7379 49.0001 38.5909 49.0001C42.4439 49.0001 46.5909 48.0896 46.5909 46.091V37.3637C48.1953 37.3637 49.5 36.059 49.5 34.4546V19.9091C49.5 18.3047 48.1953 17 46.591 17ZM18.9545 19.9091C18.9545 19.1073 19.6072 18.4546 20.409 18.4546H23.2447C22.9226 20.6755 21.1755 22.4227 18.9545 22.7447V19.9091ZM20.4091 35.9091C19.6073 35.9091 18.9546 35.2564 18.9546 34.4546V31.6189C21.1755 31.941 22.9227 33.6881 23.2447 35.9091H20.4091ZM38.5909 47.5455C34.3359 47.5455 32.1548 46.4837 32.0454 46.091V43.4927C33.593 44.2693 36.1492 44.6364 38.5909 44.6364C41.0329 44.6364 43.5893 44.2692 45.1369 43.4925L45.1378 46.0802C45.027 46.4837 42.8459 47.5455 38.5909 47.5455ZM38.5909 43.1818C34.3359 43.1818 32.1548 42.12 32.0454 41.7273V39.1291C33.593 39.9056 36.1492 40.2727 38.5909 40.2727C41.0329 40.2727 43.5893 39.9056 45.1369 39.1288L45.1378 41.7166C45.027 42.12 42.8459 43.1818 38.5909 43.1818ZM32.0454 37.3761V37.3725C32.1613 36.968 34.3413 35.9092 38.5909 35.9092C42.8082 35.9092 44.9879 36.9525 45.1342 37.3637C44.9879 37.7749 42.8083 38.8182 38.5909 38.8182C34.3414 38.8182 32.1614 37.7593 32.0454 37.3761ZM48.0455 34.4546C48.0455 35.2564 47.3928 35.9091 46.591 35.9091H45.661C45.2118 35.5999 44.6254 35.3409 43.9404 35.1326C44.5188 33.2552 46.1108 31.8894 48.0455 31.6104V34.4546ZM48.0455 30.1559C45.4323 30.4478 43.2696 32.2684 42.531 34.7959C41.3057 34.5677 39.9323 34.4546 38.5909 34.4546C35.845 34.4546 32.9579 34.92 31.5209 35.9091H24.6993C24.3593 32.8873 21.9764 30.5043 18.9546 30.1644V24.1992C21.9764 23.8592 24.3594 21.4763 24.6993 18.4545H42.3008C42.6408 21.4763 45.0237 23.8593 48.0455 24.1992V30.1559ZM48.0455 22.7447C45.8245 22.4226 44.0774 20.6755 43.7553 18.4545H46.591C47.3928 18.4545 48.0455 19.1072 48.0455 19.909V22.7447Z" fill="#001529"/>
<path d="M24.7729 28.6363C25.5762 28.6363 26.2274 27.9851 26.2274 27.1818C26.2274 26.3785 25.5762 25.7273 24.7729 25.7273C23.9696 25.7273 23.3184 26.3785 23.3184 27.1818C23.3184 27.9851 23.9696 28.6363 24.7729 28.6363Z" fill="#001529"/>
<path d="M42.227 28.6363C43.0303 28.6363 43.6815 27.9851 43.6815 27.1818C43.6815 26.3785 43.0303 25.7273 42.227 25.7273C41.4237 25.7273 40.7725 26.3785 40.7725 27.1818C40.7725 27.9851 41.4237 28.6363 42.227 28.6363Z" fill="#001529"/>
<path d="M33.375 24.2728H34.2273C34.6285 24.2728 34.9546 24.5987 34.9546 25.0001C34.9546 25.4021 35.2799 25.7274 35.6819 25.7274C36.0839 25.7274 36.4092 25.4021 36.4092 25.0001C36.4092 23.7969 35.4305 22.8182 34.2274 22.8182H33.3751C31.8396 22.8182 30.591 24.0669 30.591 25.6023C30.591 26.1931 30.7806 26.7518 31.1194 27.2219C30.8165 27.3097 30.591 27.5777 30.591 27.9091C30.591 28.3111 30.9163 28.6364 31.3183 28.6364H31.596L30.6677 30.4929C30.5548 30.7181 30.5669 30.9858 30.6997 31.2003C30.8325 31.4148 31.0662 31.5455 31.3183 31.5455H35.6819C36.084 31.5455 36.4092 31.2202 36.4092 30.8182C36.4092 30.4162 36.0838 30.0909 35.6819 30.0909H32.4951L33.2224 28.6364H34.2274C34.6294 28.6364 34.9547 28.3111 34.9547 27.9091C34.9547 27.5071 34.6294 27.1818 34.2274 27.1818H33.0739L32.4347 26.5426C32.1876 26.2954 32.0455 25.9524 32.0455 25.6022C32.0455 24.8694 32.6421 24.2728 33.375 24.2728Z" fill="#001529"/>
</g>
<defs>
<clipPath id="clip0_13009_1069">
<rect width="32" height="32" fill="white" transform="translate(17.5 17)"/>
</clipPath>
</defs>
</svg>
