<svg width="24" height="25" viewBox="0 0 24 25" fill="none" xmlns="http://www.w3.org/2000/svg">
<g clip-path="url(#clip0_1958_492)">
<path d="M23.4666 12.7803C23.4666 11.9904 23.3901 11.175 23.2627 10.4105H12.2292V14.9207H18.5487C18.2938 16.3732 17.453 17.6473 16.2044 18.4627L19.9756 21.393C22.1925 19.329 23.4666 16.3222 23.4666 12.7803Z" fill="#4280EF"/>
<path d="M12.2293 24.196C15.389 24.196 18.039 23.1513 19.9756 21.3676L16.2044 18.4627C15.1596 19.1761 13.8091 19.5839 12.2293 19.5839C9.17149 19.5839 6.59786 17.5199 5.65505 14.7679L1.78186 17.7492C3.76942 21.6988 7.79549 24.196 12.2293 24.196Z" fill="#34A353"/>
<path d="M5.65508 14.7424C5.17093 13.2899 5.17093 11.7101 5.65508 10.2576L1.7819 7.25082C0.125599 10.5634 0.125599 14.4621 1.7819 17.7492L5.65508 14.7424Z" fill="#F6B704"/>
<path d="M12.2293 5.44163C13.8856 5.41615 15.5164 6.05319 16.714 7.19986L20.0521 3.8363C17.9371 1.84874 15.1342 0.778522 12.2293 0.804003C7.79549 0.804003 3.76942 3.30119 1.78186 7.25082L5.65505 10.2576C6.59786 7.48015 9.17149 5.44163 12.2293 5.44163Z" fill="#E54335"/>
</g>
<defs>
<clipPath id="clip0_1958_492">
<rect width="24" height="24" fill="white" transform="translate(0 0.5)"/>
</clipPath>
</defs>
</svg>
