<svg width="40" height="42" viewBox="0 0 40 42" fill="none" xmlns="http://www.w3.org/2000/svg">
<path d="M14.9274 21.7168C14.9274 24.8624 15.4432 27.6368 16.313 29.6347C17.1739 31.6124 18.4276 32.9202 19.9462 32.9202C21.4648 32.9202 22.7184 31.6124 23.5794 29.6347C24.4491 27.6368 24.965 24.8624 24.965 21.7168C24.965 18.5713 24.4491 15.7968 23.5794 13.7989C22.7184 11.8213 21.4648 10.5134 19.9462 10.5134C18.4276 10.5134 17.1739 11.8213 16.313 13.7989C15.4432 15.7968 14.9274 18.5713 14.9274 21.7168ZM16.5782 21.724C16.5782 18.8601 17.051 16.441 17.7274 14.7468C18.066 13.8988 18.4514 13.2432 18.8448 12.8042C19.2416 12.3615 19.6194 12.1675 19.9462 12.1675C20.2729 12.1675 20.6507 12.3615 21.0475 12.8042C21.441 13.2432 21.8263 13.8988 22.1649 14.7468C22.8414 16.441 23.3141 18.8601 23.3141 21.724C23.3141 24.5879 22.8414 27.007 22.1649 28.7012C21.8263 29.5492 21.441 30.2048 21.0475 30.6438C20.6507 31.0865 20.2729 31.2804 19.9462 31.2804C19.6194 31.2804 19.2416 31.0865 18.8448 30.6438C18.4514 30.2048 18.066 29.5492 17.7274 28.7012C17.051 27.007 16.5782 24.5879 16.5782 21.724Z" fill="#01D0FF" stroke="#01D0FF" stroke-width="0.5" stroke-miterlimit="10"/>
<path d="M19.4587 21.724C19.4587 23.0726 19.6775 24.4428 20.1147 25.4856C20.5452 26.5122 21.2325 27.3145 22.2118 27.3145C23.1912 27.3145 23.8785 26.5122 24.3089 25.4856C24.7461 24.4428 24.9649 23.0726 24.9649 21.724C24.9649 20.3755 24.7461 19.0053 24.3089 17.9625C23.8785 16.9359 23.1912 16.1335 22.2118 16.1335C21.2325 16.1335 20.5452 16.9359 20.1147 17.9625C19.6775 19.0053 19.4587 20.3755 19.4587 21.724ZM21.1096 21.724C21.1096 20.3916 21.3285 19.3733 21.5956 18.6967C21.7296 18.3573 21.8726 18.1116 21.9999 17.9558C22.0636 17.8779 22.1186 17.8283 22.1608 17.8001C22.1893 17.7809 22.2061 17.7754 22.2118 17.7738C22.2176 17.7754 22.2343 17.7809 22.2629 17.8001C22.3051 17.8283 22.36 17.8779 22.4237 17.9558C22.551 18.1116 22.6941 18.3573 22.828 18.6967C23.0952 19.3733 23.3141 20.3916 23.3141 21.724C23.3141 23.0565 23.0952 24.0748 22.828 24.7514C22.6941 25.0908 22.551 25.3365 22.4237 25.4923C22.36 25.5702 22.3051 25.6198 22.2629 25.648C22.2343 25.6672 22.2176 25.6727 22.2118 25.6743C22.2061 25.6727 22.1893 25.6672 22.1608 25.648C22.1186 25.6198 22.0636 25.5702 21.9999 25.4923C21.8726 25.3365 21.7296 25.0908 21.5956 24.7514C21.3285 24.0748 21.1096 23.0565 21.1096 21.724Z" fill="#01D0FF" stroke="#01D0FF" stroke-width="0.5" stroke-miterlimit="10"/>
<path d="M19.1765 32.7276C11.5666 32.7276 4.25154 30.104 3.73366 29.9176C3.54665 29.8531 3.3956 29.6882 3.35964 29.4803C3.28771 28.9427 1.45355 14.1685 18.7809 5.65955C20.0253 5.05023 21.4422 5.15776 22.5859 5.94629C23.7295 6.73482 24.3265 8.02514 24.1899 9.40148C24.1683 9.64521 23.9885 9.84593 23.7439 9.90328C13.8035 12.1828 6.25832 26.0395 4.72626 29.0431C7.33724 29.9033 17.8674 33.0574 25.8011 30.7276C26.1104 30.6345 26.4268 30.8137 26.5132 31.1147C26.5995 31.4158 26.4268 31.7384 26.1247 31.8244C23.9094 32.4767 21.5214 32.7276 19.1693 32.7276H19.1765ZM20.4425 6.4194C20.054 6.4194 19.6584 6.51259 19.2844 6.69181C6.40218 13.0144 4.56802 22.8495 4.41697 27.1506C6.92725 22.5269 13.8467 11.3011 23.0534 8.89252C23.0175 8.08966 22.6147 7.35847 21.9314 6.88535C21.4782 6.57711 20.9675 6.41224 20.4496 6.41224L20.4425 6.4194Z" fill="#061014" fill-opacity="0.9"/>
<path d="M3.11166 29.5135L3.11184 29.5135C3.073 29.2231 2.59339 25.3515 4.30973 20.4762C6.02888 15.5928 9.94566 9.71977 18.6707 5.43515L18.671 5.43502C19.9969 4.78575 21.5101 4.90091 22.7278 5.74047C23.946 6.58042 24.584 7.95854 24.4388 9.42512C24.4066 9.78098 24.1447 10.0661 23.801 10.1467L23.7998 10.147C18.9149 11.2672 14.5885 15.2445 11.2767 19.3584C8.14709 23.246 5.95424 27.2166 5.08296 28.8962C6.53163 29.3618 9.62971 30.2717 13.3055 30.8345C17.242 31.4371 21.8151 31.6374 25.73 30.4879C26.1742 30.3548 26.6293 30.6129 26.7535 31.0458C26.8766 31.4752 26.6328 31.939 26.1943 32.0646C23.9525 32.7245 21.5425 32.9771 19.1765 32.9776L3.11166 29.5135ZM3.11166 29.5135L3.1133 29.523M3.11166 29.5135L3.1133 29.523M3.1133 29.523C3.16548 29.8246 3.38259 30.0603 3.65046 30.1534M3.1133 29.523L3.65046 30.1534M3.65046 30.1534C4.18433 30.3455 11.523 32.976 19.1693 32.9776L3.65046 30.1534ZM20.4425 6.6694H20.5457L20.5506 6.66456C20.9801 6.68435 21.4053 6.83005 21.7899 7.09148C22.3524 7.48126 22.7024 8.06074 22.7864 8.70548C18.1962 9.97443 14.1955 13.3811 11.0351 17.0272C8.23701 20.2553 6.07954 23.6925 4.73749 26.0582C5.16832 21.4072 7.62602 12.6927 19.3934 6.91678C19.7359 6.75289 20.0944 6.6694 20.4425 6.6694Z" stroke="#061014" stroke-opacity="0.9" stroke-width="0.5" stroke-miterlimit="10"/>
<path d="M28.0381 22.5403H28.9587C29.4125 22.5403 29.7842 22.1711 29.7842 21.7168C29.7842 21.2625 29.4125 20.8933 28.9587 20.8933H28.0381C27.5843 20.8933 27.2126 21.2625 27.2126 21.7168C27.2126 22.1711 27.5843 22.5403 28.0381 22.5403Z" fill="#01D0FF" stroke="#01D0FF" stroke-width="0.5" stroke-miterlimit="10"/>
<path d="M31.8718 22.5403H33.3247C33.7785 22.5403 34.1502 22.1711 34.1502 21.7168C34.1502 21.2625 33.7785 20.8933 33.3247 20.8933H31.8718C31.4181 20.8933 31.0464 21.2625 31.0464 21.7168C31.0464 22.1711 31.4181 22.5403 31.8718 22.5403Z" fill="#01D0FF" stroke="#01D0FF" stroke-width="0.5" stroke-miterlimit="10"/>
<path d="M36.2378 22.5403H37.1585C37.6122 22.5403 37.9839 22.1711 37.9839 21.7168C37.9839 21.2625 37.6122 20.8933 37.1585 20.8933H36.2378C35.784 20.8933 35.4124 21.2625 35.4124 21.7168C35.4124 22.1711 35.784 22.5403 36.2378 22.5403Z" fill="#01D0FF" stroke="#01D0FF" stroke-width="0.5" stroke-miterlimit="10"/>
<path d="M27.6676 18.1526C27.259 18.3562 27.0889 18.85 27.2973 19.2566C27.4426 19.5451 27.7377 19.7061 28.0309 19.7087V19.7088H28.0381V19.7087C28.1455 19.708 28.2799 19.6901 28.4048 19.6234L29.2213 19.2166C29.6299 19.013 29.8001 18.5192 29.5916 18.1125C29.3862 17.7047 28.8995 17.5387 28.4876 17.744L27.6676 18.1526Z" fill="#01D0FF" stroke="#01D0FF" stroke-width="0.5" stroke-miterlimit="10"/>
<path d="M31.4798 16.2529C31.0712 16.4565 30.901 16.9503 31.1094 17.357C31.2547 17.6454 31.5499 17.8065 31.843 17.8091V17.8091H31.8502V17.8091C31.9576 17.8083 32.092 17.7904 32.2169 17.7238L33.7095 16.98C34.1181 16.7764 34.2883 16.2826 34.0799 15.876C33.8745 15.4681 33.3877 15.3022 32.9759 15.5074L31.4798 16.2529Z" fill="#01D0FF" stroke="#01D0FF" stroke-width="0.5" stroke-miterlimit="10"/>
<path d="M35.9608 14.0235C35.5522 14.2272 35.3821 14.7209 35.5905 15.1276C35.7358 15.4161 36.031 15.5771 36.3241 15.5797V15.5797H36.3313V15.5797C36.4387 15.579 36.5731 15.561 36.698 15.4944L37.5145 15.0875C37.9231 14.8839 38.0933 14.3902 37.8848 13.9835C37.6794 13.5756 37.1927 13.4097 36.7808 13.6149L35.9608 14.0235Z" fill="#01D0FF" stroke="#01D0FF" stroke-width="0.5" stroke-miterlimit="10"/>
<path d="M28.4875 25.7041L28.4952 25.7079L28.5032 25.7112C28.6085 25.755 28.7255 25.7865 28.8508 25.7877V25.7877H28.858V25.7877C29.1598 25.7851 29.447 25.6226 29.5915 25.3355C29.8018 24.9253 29.6188 24.4347 29.2235 24.2326L29.2235 24.2326L29.2212 24.2315L28.4023 23.8234C27.9923 23.6147 27.5009 23.7958 27.2978 24.1903C27.0866 24.6008 27.2696 25.0921 27.6653 25.2943L27.6653 25.2944L27.6676 25.2955L28.4875 25.7041Z" fill="#01D0FF" stroke="#01D0FF" stroke-width="0.5" stroke-miterlimit="10"/>
<path d="M32.9687 27.9335L32.9764 27.9373L32.9843 27.9406C33.0897 27.9844 33.2067 28.0159 33.332 28.017V28.0171H33.3391V28.017C33.6409 28.0145 33.9281 27.852 34.0727 27.5649C34.283 27.1547 34.1 26.664 33.7047 26.462L33.7047 26.462L33.7024 26.4609L32.2073 25.7159C31.7973 25.5072 31.3059 25.6882 31.1029 26.0828C30.8917 26.4932 31.0747 26.9846 31.4703 27.1868L31.4703 27.1868L31.4726 27.188L32.9687 27.9335Z" fill="#01D0FF" stroke="#01D0FF" stroke-width="0.5" stroke-miterlimit="10"/>
<path d="M36.7808 29.8331L36.7885 29.837L36.7964 29.8403C36.9018 29.884 37.0187 29.9155 37.144 29.9167V29.9167H37.1512V29.9167C37.4534 29.9141 37.741 29.7512 37.8854 29.4634L37.8854 29.4634L37.8865 29.4611C38.0836 29.0578 37.9175 28.5665 37.5167 28.3617L37.5167 28.3617L37.5145 28.3605L36.6955 27.9524C36.2855 27.7438 35.7941 27.9248 35.5911 28.3194L35.591 28.3193L35.5888 28.3239C35.3916 28.7272 35.5578 29.2186 35.9585 29.4234L35.9585 29.4234L35.9608 29.4245L36.7808 29.8331Z" fill="#01D0FF" stroke="#01D0FF" stroke-width="0.5" stroke-miterlimit="10"/>
</svg>
