<svg width="53" height="36" viewBox="0 0 53 36" fill="none" xmlns="http://www.w3.org/2000/svg">
<path d="M26.3707 17.858C26.3707 20.914 26.0427 23.562 25.3867 25.802C24.7307 28.042 23.8187 29.898 22.6507 31.37C21.4987 32.842 20.1227 33.938 18.5227 34.658C16.9387 35.378 15.2187 35.738 13.3627 35.738C11.5067 35.738 9.78672 35.378 8.20272 34.658C6.63472 33.938 5.27472 32.842 4.12272 31.37C2.97072 29.898 2.06672 28.042 1.41072 25.802C0.770723 23.562 0.450723 20.914 0.450723 17.858C0.450723 14.802 0.770723 12.154 1.41072 9.914C2.06672 7.674 2.97072 5.818 4.12272 4.346C5.27472 2.874 6.63472 1.786 8.20272 1.082C9.78672 0.362002 11.5067 0.00200272 13.3627 0.00200272C15.2187 0.00200272 16.9387 0.362002 18.5227 1.082C20.1227 1.786 21.4987 2.874 22.6507 4.346C23.8187 5.818 24.7307 7.674 25.3867 9.914C26.0427 12.154 26.3707 14.802 26.3707 17.858ZM18.6907 17.858C18.6907 15.442 18.5387 13.466 18.2347 11.93C17.9307 10.378 17.5227 9.162 17.0107 8.282C16.5147 7.402 15.9467 6.802 15.3067 6.482C14.6667 6.146 14.0187 5.978 13.3627 5.978C12.7067 5.978 12.0587 6.146 11.4187 6.482C10.7947 6.802 10.2347 7.402 9.73872 8.282C9.25872 9.162 8.86672 10.378 8.56272 11.93C8.27472 13.466 8.13072 15.442 8.13072 17.858C8.13072 20.29 8.27472 22.274 8.56272 23.81C8.86672 25.346 9.25872 26.562 9.73872 27.458C10.2347 28.338 10.7947 28.946 11.4187 29.282C12.0587 29.602 12.7067 29.762 13.3627 29.762C14.0187 29.762 14.6667 29.602 15.3067 29.282C15.9467 28.946 16.5147 28.338 17.0107 27.458C17.5227 26.562 17.9307 25.346 18.2347 23.81C18.5387 22.274 18.6907 20.29 18.6907 17.858ZM52.5585 29.978V35.354H32.6385V29.978H39.3585V12.338C39.3585 11.89 39.3665 11.442 39.3825 10.994C39.3985 10.53 39.4225 10.066 39.4545 9.602L35.4705 12.914C35.1185 13.186 34.7665 13.354 34.4145 13.418C34.0785 13.466 33.7585 13.466 33.4545 13.418C33.1505 13.354 32.8785 13.25 32.6385 13.106C32.3985 12.946 32.2225 12.786 32.1105 12.626L29.7585 9.506L40.6545 0.362002H46.7985V29.978H52.5585Z" fill="#FFB800"/>
</svg>
