<svg width="49" height="49" viewBox="0 0 49 49" fill="none" xmlns="http://www.w3.org/2000/svg">
<circle cx="24.5" cy="24.5" r="24.5" fill="#005DAF"/>
<g clip-path="url(#clip0_12658_4167)">
<g clip-path="url(#clip1_12658_4167)">
<g clip-path="url(#clip2_12658_4167)">
<path d="M39.8977 22.4424C39.8259 22.3331 38.1043 19.7352 35.3008 17.0996C33.6451 15.543 31.9558 14.3007 30.2796 13.4069C28.1536 12.2731 26.0409 11.6982 24 11.6982C21.9591 11.6982 19.8464 12.2731 17.7204 13.4067C16.0443 14.3005 14.3549 15.5429 12.6993 17.0994C9.89572 19.7351 8.17422 22.333 8.10228 22.4423C7.96591 22.6495 7.96591 22.9176 8.10228 23.1248C8.16878 23.2259 9.76128 25.6298 12.3767 28.1601C13.9197 29.6528 15.4986 30.8763 17.0695 31.7964C18.956 32.9012 20.8383 33.5708 22.6697 33.7893C23.6313 37.5292 27.0416 40.3018 31.0894 40.3018C35.8814 40.3018 39.7801 36.416 39.7801 31.6397C39.7801 29.4834 38.9855 27.5087 37.6729 25.9911C39.063 24.3874 39.8624 23.1785 39.8977 23.1248C40.0341 22.9176 40.0341 22.6497 39.8977 22.4424ZM35.5383 27.2052C35.6604 27.3266 35.8203 27.3874 35.9801 27.3874C36.1401 27.3874 36.3002 27.3265 36.4222 27.2049L36.7718 26.8565C37.742 28 38.3719 29.4392 38.5041 31.0172H38.0059C37.6608 31.0172 37.3809 31.296 37.3809 31.6398C37.3809 31.9836 37.6608 32.2623 38.0059 32.2623H38.5041C38.3719 33.8403 37.742 35.2796 36.7718 36.4231L36.4223 36.0747C36.1783 35.8315 35.7825 35.8314 35.5384 36.0744C35.2942 36.3174 35.2941 36.7116 35.5381 36.9548L35.8883 37.3039C34.7411 38.2711 33.2974 38.8991 31.7144 39.0309V38.534C31.7144 38.1902 31.4346 37.9114 31.0894 37.9114C30.7443 37.9114 30.4644 38.1902 30.4644 38.534V39.0309C28.8814 38.8991 27.4378 38.2711 26.2906 37.3039L26.6408 36.9548C26.8848 36.7116 26.8846 36.3174 26.6405 36.0743C26.3963 35.8314 26.0006 35.8315 25.7566 36.0747L25.4071 36.4231C24.4369 35.2796 23.807 33.8403 23.6748 32.2623H24.173C24.5181 32.2623 24.798 31.9836 24.798 31.6398C24.798 31.296 24.5181 31.0172 24.173 31.0172H23.6748C23.807 29.4392 24.4369 28.0001 25.4071 26.8565L25.7566 27.2049C25.8787 27.3265 26.0387 27.3874 26.1988 27.3874C26.3586 27.3874 26.5185 27.3266 26.6406 27.2052C26.8847 26.9622 26.8849 26.568 26.6409 26.3248L26.2907 25.9757C27.4378 25.0085 28.8815 24.3805 30.4645 24.2487V24.7456C30.4645 25.0894 30.7443 25.3681 31.0895 25.3681C31.4347 25.3681 31.7145 25.0894 31.7145 24.7456V24.2487C33.2975 24.3805 34.7412 25.0085 35.8883 25.9757L35.5381 26.3248C35.2941 26.568 35.2942 26.9621 35.5383 27.2052ZM24 25.4348C22.5337 25.4348 21.3408 24.2455 21.3408 22.7836C21.3408 21.3219 22.5337 20.1325 24 20.1325C25.4663 20.1325 26.6593 21.3219 26.6593 22.7836C26.6593 24.2455 25.4663 25.4348 24 25.4348ZM29.2483 22.7837C29.2483 22.9169 29.2583 23.0431 29.2794 23.1666C28.7755 23.2735 28.2876 23.4239 27.8199 23.6139C27.8784 23.3463 27.9093 23.0685 27.9093 22.7836C27.9093 20.6353 26.1556 18.8874 24 18.8874C21.8445 18.8874 20.0908 20.6353 20.0908 22.7836C20.0908 24.9215 21.8272 26.6627 23.9682 26.6798C23.4066 27.4784 22.9766 28.3754 22.71 29.3392C19.6 28.7624 17.3112 26.0261 17.3112 22.7838C17.3112 19.1072 20.3118 16.116 24 16.116C26.9164 16.116 29.4651 17.9794 30.3574 20.7034C29.6772 21.1644 29.2483 21.9433 29.2483 22.7837ZM36.7888 25.1056C35.2619 23.7808 33.2681 22.9776 31.0894 22.9776C30.898 22.9776 30.7081 22.9839 30.5197 22.9961C30.5047 22.9281 30.4983 22.86 30.4983 22.7837C30.4983 22.2601 30.828 21.7839 31.3189 21.5988C31.615 21.4871 31.7804 21.1724 31.704 20.8663C30.8223 17.3363 27.6543 14.8709 24 14.8709C19.6225 14.8709 16.0612 18.4206 16.0612 22.7837C16.0612 26.6254 18.7755 29.8692 22.466 30.5605C22.4217 30.9141 22.3989 31.2743 22.3989 31.6397C22.3989 31.9303 22.4134 32.2176 22.4416 32.501C18.7381 31.9201 15.4336 29.3781 13.2663 27.2851C11.3057 25.3914 9.91378 23.5296 9.38403 22.7835C9.93872 22.0017 11.4389 19.9964 13.5573 18.0049C16.0134 15.6959 19.819 12.9434 24 12.9434C28.1731 12.9434 31.9717 15.686 34.4235 17.9868C36.548 19.9805 38.0588 21.9992 38.6161 22.7838C38.2971 23.2335 37.6659 24.0875 36.7888 25.1056Z" fill="white"/>
<path d="M31.4724 27.3944C31.2469 27.2202 30.9317 27.22 30.7062 27.3944C30.6076 27.4706 28.2891 29.2891 28.2891 31.6401C28.2891 33.9914 30.6076 35.8097 30.7062 35.8859C30.819 35.973 30.9541 36.0166 31.0893 36.0166C31.2245 36.0166 31.3597 35.9731 31.4724 35.8859C31.5711 35.8097 33.8896 33.9913 33.8896 31.6401C33.8896 29.289 31.5711 27.4706 31.4724 27.3944ZM31.0894 34.561C30.5253 34.0168 29.5391 32.8869 29.5391 31.6401C29.5391 30.3932 30.5256 29.2631 31.0893 28.7193C31.6533 29.2635 32.6396 30.3934 32.6396 31.6401C32.6396 32.8871 31.653 34.0172 31.0894 34.561Z" fill="white"/>
</g>
</g>
</g>
<defs>
<clipPath id="clip0_12658_4167">
<rect width="32" height="30" fill="white" transform="translate(8 11)"/>
</clipPath>
<clipPath id="clip1_12658_4167">
<rect width="32" height="30" fill="white" transform="translate(8 11)"/>
</clipPath>
<clipPath id="clip2_12658_4167">
<rect width="32" height="30" fill="white" transform="translate(8 11)"/>
</clipPath>
</defs>
</svg>
