<svg width="16" height="17" viewBox="0 0 16 17" fill="none" xmlns="http://www.w3.org/2000/svg">
<g clip-path="url(#clip0_486_2524)">
<path d="M15.3333 3.1665V7.1665H11.3333" stroke="black" stroke-width="2" stroke-linecap="round" stroke-linejoin="round"/>
<path d="M0.666687 13.8335V9.8335H4.66669" stroke="black" stroke-width="2" stroke-linecap="round" stroke-linejoin="round"/>
<path d="M2.34002 6.49989C2.67813 5.54441 3.25278 4.69016 4.01033 4.01683C4.76789 3.34351 5.68366 2.87306 6.67221 2.64939C7.66076 2.42572 8.68986 2.45612 9.66348 2.73774C10.6371 3.01936 11.5235 3.54303 12.24 4.25989L15.3334 7.16655M0.666687 9.83322L3.76002 12.7399C4.47652 13.4567 5.36294 13.9804 6.33656 14.262C7.31018 14.5437 8.33928 14.5741 9.32783 14.3504C10.3164 14.1267 11.2322 13.6563 11.9897 12.9829C12.7473 12.3096 13.3219 11.4554 13.66 10.4999" stroke="black" stroke-width="2" stroke-linecap="round" stroke-linejoin="round"/>
</g>
<defs>
<clipPath id="clip0_486_2524">
<rect width="16" height="16" fill="white" transform="translate(0 0.5)"/>
</clipPath>
</defs>
</svg>
