<svg width="81" height="81" viewBox="0 0 81 81" fill="none" xmlns="http://www.w3.org/2000/svg">
<path d="M56.8307 57.5204C56.8307 57.5204 56.1707 58.219 55.7746 58.219C55.1146 58.219 54.5866 57.6601 54.5866 56.9615C54.5866 56.5423 54.7186 56.2629 54.9826 55.9835C54.7186 55.9835 54.3226 55.8438 53.9265 55.8438C51.9464 55.8438 50.3623 57.5204 50.3623 59.6162C50.3623 61.712 51.9464 63.3887 53.9265 63.3887C55.9067 63.3887 57.4907 61.712 57.4907 59.6162C57.4907 58.7779 57.2267 58.0793 56.8307 57.5204Z" fill="#01D0FF"/>
<path d="M29.5053 65.4846C14.7205 63.9476 3.63186 50.8139 3.63186 35.0255C3.49986 18.259 16.4366 4.56641 32.4095 4.56641C48.3823 4.56641 61.319 18.259 61.319 35.1652C61.319 37.4007 61.055 39.6363 60.659 41.8718C60.527 42.5704 59.867 42.9896 59.3389 42.7101C58.6789 42.5704 58.2829 41.8718 58.5469 41.3129C58.9429 39.3568 59.2069 37.261 59.2069 35.1652C58.9429 19.5165 47.0623 6.94166 32.4095 6.94166C17.7567 6.94166 5.74398 19.5165 5.74398 35.1652C5.74398 49.6961 16.0406 61.7121 29.6373 63.249C30.2973 63.249 30.6934 63.9476 30.6934 64.5065C30.6934 65.0654 30.1653 65.6243 29.6373 65.6243L29.5053 65.4846Z" fill="#061014"/>
<path d="M32.4093 23.2889C32.4093 23.2889 31.2212 22.73 31.2212 22.0314V15.4645C31.2212 15.4645 31.7493 14.207 32.4093 14.207C33.0693 14.207 33.5974 14.7659 33.5974 15.4645V22.0314C33.5974 22.0314 33.0693 23.2889 32.4093 23.2889Z" fill="#061014"/>
<path d="M41.6499 26.5025C41.6499 26.5025 41.1219 26.5024 40.8579 26.0833C40.4618 25.6641 40.4618 24.8258 40.8579 24.4066L44.6861 20.3547C44.6861 20.3547 45.8741 19.9356 46.2701 20.3547C46.6662 20.7739 46.6662 21.6122 46.2701 22.0314L42.4419 26.0833C42.4419 26.0833 41.9139 26.5025 41.6499 26.5025Z" fill="#061014"/>
<path d="M50.8904 36.283H44.686C44.686 36.283 43.498 35.7242 43.498 35.0255C43.498 34.3269 44.026 33.7681 44.686 33.7681H50.8904C50.8904 33.7681 52.0784 34.3269 52.0784 35.0255C52.0784 35.7242 51.5504 36.283 50.8904 36.283Z" fill="#061014"/>
<path d="M42.574 47.0415C42.574 47.0415 42.046 47.0415 41.782 46.762L40.8579 45.784C40.8579 45.784 40.4619 44.5265 40.8579 44.1073C41.2539 43.6882 42.046 43.6882 42.442 44.1073L43.3661 45.0854C43.3661 45.0854 43.7621 46.3429 43.3661 46.762C43.102 47.0415 42.838 47.1812 42.574 47.1812V47.0415Z" fill="#061014"/>
<path d="M32.4093 53.888C32.4093 53.888 31.2212 53.3291 31.2212 52.6305V48.1594C31.2212 48.1594 31.7493 46.9019 32.4093 46.9019C33.0693 46.9019 33.5974 47.4608 33.5974 48.1594V52.6305C33.5974 52.6305 33.0693 53.888 32.4093 53.888Z" fill="#061014"/>
<path d="M19.2087 50.2551C19.2087 50.2551 18.6807 50.2551 18.4167 49.9756C18.0206 49.5565 18.0206 48.7181 18.4167 48.299L22.2449 44.2471C22.2449 44.2471 23.4329 43.8279 23.829 44.2471C24.225 44.6662 24.225 45.5046 23.829 45.9237L20.0008 49.9756C20.0008 49.9756 19.4727 50.2551 19.2087 50.2551Z" fill="#061014"/>
<path d="M20.0008 36.283H13.7965C13.7965 36.283 12.6084 35.7242 12.6084 35.0255C12.6084 34.3269 13.1364 33.7681 13.7965 33.7681H20.0008C20.0008 33.7681 21.1889 34.3269 21.1889 35.0255C21.1889 35.7242 20.6609 36.283 20.0008 36.283Z" fill="#061014"/>
<path d="M23.0368 26.5026C23.0368 26.5026 22.5088 26.5026 22.2447 26.0834L18.4165 22.0315C18.4165 22.0315 18.0205 20.7741 18.4165 20.3549C18.8126 19.9357 19.6046 19.9357 20.0006 20.3549L23.8288 24.4068C23.8288 24.4068 24.2249 25.6643 23.8288 26.0834C23.5648 26.3629 23.3008 26.5026 23.0368 26.5026Z" fill="#061014"/>
<path d="M28.7133 60.5943C28.7133 60.5943 28.7133 60.5943 28.5812 60.5943C23.433 59.756 18.8127 57.241 15.2485 53.3289C5.74397 43.269 5.74398 26.9217 15.1165 16.8618C19.7368 11.9716 25.8091 9.31689 32.2774 9.31689C38.7458 9.31689 44.8181 11.9716 49.4384 16.8618C55.5107 23.2889 58.0189 32.9297 55.7747 41.7321C55.6427 42.4307 54.9827 42.7101 54.4547 42.5704C53.7946 42.4307 53.5306 41.7321 53.6626 41.1732C55.6427 33.0694 53.5306 24.4067 47.9863 18.5384C43.7621 14.0674 38.2178 11.6921 32.4095 11.6921C26.6011 11.6921 20.9248 14.0674 16.8326 18.5384C8.25211 27.6203 8.25211 42.4307 16.8326 51.5125C20.1328 55.0055 24.357 57.241 28.9773 58.0794C29.6373 58.0794 30.0333 58.778 29.9013 59.4766C29.9013 60.0354 29.3733 60.4546 28.8453 60.4546L28.7133 60.5943Z" fill="#061014"/>
<path d="M32.4093 40.1952C32.4093 40.1952 31.2212 39.6363 31.2212 38.9377V35.0255C31.2212 35.0255 31.2212 34.4666 31.4852 34.1872L35.8415 29.5764C35.8415 29.5764 37.0296 29.1573 37.4256 29.5764C37.8216 29.9956 37.8216 30.8339 37.4256 31.2531L33.4654 35.4447V38.9377C33.4654 38.9377 32.9373 40.1952 32.2773 40.1952H32.4093Z" fill="#01D0FF"/>
<path d="M53.9267 74.5665C39.2739 74.5665 32.1455 61.7122 31.3534 60.1752C31.2214 59.7561 31.2214 59.3369 31.3534 59.0575C32.1455 57.5205 39.2739 44.6663 53.9267 44.6663C68.5795 44.6663 75.7079 57.5205 76.4999 59.0575C76.6319 59.4766 76.6319 59.8958 76.4999 60.1752C75.7079 61.7122 68.5795 74.5665 53.9267 74.5665ZM33.7296 59.6164C35.3136 62.4108 41.782 72.1912 53.9267 72.1912C66.0713 72.1912 72.5397 62.4108 74.1238 59.6164C72.5397 56.8219 66.0713 47.0415 53.9267 47.0415C41.782 47.0415 35.3136 56.8219 33.7296 59.6164Z" fill="#061014"/>
<path d="M53.9267 69.9556C48.6464 69.9556 44.2902 65.3448 44.1582 59.756C44.1582 54.0274 48.6464 49.5564 53.9267 49.5564C59.207 49.5564 63.5633 54.1672 63.6953 59.756C63.6953 65.4845 59.207 69.9556 53.9267 69.9556ZM53.9267 51.9316C49.8345 51.9316 46.5343 55.4247 46.4023 59.756C46.4023 64.0873 49.8345 67.5803 53.9267 67.5803C58.019 67.5803 61.3191 64.0873 61.4511 59.756C61.4511 55.4247 58.019 51.9316 53.9267 51.9316Z" fill="#061014"/>
</svg>
