<svg width="40" height="40" viewBox="0 0 40 40" fill="none" xmlns="http://www.w3.org/2000/svg">
<g id="Search Nav Item">
<rect width="40" height="40" rx="20" fill="#003E79"/>
<g id="hang-up-2--android-phone-mobile-device-smartphone-iphone-telephone-hang-up">
<path id="Vector" d="M15.304 16.4844C14.6502 16.6254 14.0648 16.9873 13.6464 17.5091C13.228 18.031 13.002 18.681 13.0065 19.3499L13 19.9243C13.0029 20.1818 13.1065 20.428 13.2887 20.6101C13.4708 20.7923 13.717 20.8959 13.9745 20.8988L16.427 20.8859C16.683 20.8837 16.928 20.7809 17.1091 20.5999C17.2901 20.4188 17.3928 20.1739 17.3951 19.9178C17.398 19.6603 17.5016 19.4141 17.6837 19.2319C17.8658 19.0498 18.112 18.9462 18.3696 18.9433H22.2419C22.3701 18.9423 22.4973 18.9669 22.6159 19.0155C22.7346 19.0642 22.8424 19.1359 22.9331 19.2266C23.0238 19.3173 23.0955 19.4251 23.1442 19.5438C23.1928 19.6624 23.2174 19.7896 23.2164 19.9178C23.2187 20.1739 23.3214 20.4188 23.5024 20.5999C23.6835 20.7809 23.9285 20.8837 24.1845 20.8859H26.637C26.8946 20.883 27.1407 20.7794 27.3229 20.5972C27.505 20.4151 27.6086 20.1689 27.6115 19.9113L27.6051 19.337C27.6095 18.6681 27.3835 18.0181 26.9651 17.4962C26.5467 16.9744 25.9613 16.6125 25.3075 16.4715C22.0026 15.8385 18.6072 15.8429 15.304 16.4844Z" stroke="white" stroke-width="1.5" stroke-linecap="round" stroke-linejoin="round"/>
<path id="Vector_2" d="M20.3553 21.5725V26.9641" stroke="white" stroke-width="1.5" stroke-linecap="round" stroke-linejoin="round"/>
<path id="Vector_3" d="M18.2164 24.8251L20.3555 26.9642L22.4945 24.8251" stroke="white" stroke-width="1.5" stroke-linecap="round" stroke-linejoin="round"/>
</g>
</g>
</svg>
