<svg width="43" height="24" viewBox="0 0 43 24" fill="none" xmlns="http://www.w3.org/2000/svg">
<path d="M38.17 11.596H40.757C40.9424 10.8554 41.0359 10.0981 41.0359 9.33755C41.0359 6.46583 39.677 3.70417 37.4003 1.94803C35.1104 0.181958 32.189 -0.420525 29.3851 0.293683L22.8811 1.95051C22.3266 2.09203 21.7564 2.16237 21.1862 2.16237C20.616 2.16237 20.0458 2.09203 19.4913 1.95051L12.9873 0.293683C12.2334 0.100855 11.4563 0.00402719 10.6792 0.00402719C8.62594 0.00402719 6.59918 0.694235 4.97215 1.94803C2.03256 4.21479 0.726625 8.02914 1.61545 11.596H4.20249C3.23479 8.82751 4.16078 5.70122 6.48829 3.91107C7.68332 2.99162 9.17132 2.48431 10.6792 2.48431C11.2494 2.48431 11.8196 2.55548 12.3733 2.697L18.8773 4.35382C19.632 4.54665 20.4091 4.64183 21.1862 4.64183C21.9633 4.64183 22.7404 4.54665 23.4952 4.35382L29.9992 2.697C32.0574 2.17313 34.2025 2.61506 35.8834 3.91107C37.5551 5.20045 38.5531 7.22886 38.5531 9.33755C38.5543 10.1018 38.4211 10.8674 38.17 11.596V11.596Z" fill="#1E1E1E"/>
<path d="M3.2698 14.0789H1.24138C0.556139 14.0789 0 14.6342 0 15.3186V20.2791C0 20.9644 0.556139 21.5197 1.24138 21.5197H3.2698C2.63909 20.3647 2.31691 19.1028 2.31724 17.7997C2.31691 16.4967 2.63909 15.2338 3.2698 14.0789V14.0789Z" fill="#1E1E1E"/>
<path d="M41.1311 14.0789H39.1027C39.7334 15.2338 40.0555 16.4966 40.0552 17.7997C40.0555 19.1027 39.7334 20.3648 39.1027 21.5197H41.1311C41.8163 21.5197 42.3725 20.9644 42.3725 20.2791V15.3186C42.3725 14.6342 41.8163 14.0789 41.1311 14.0789V14.0789Z" fill="#1E1E1E"/>
<path d="M35.2429 13.316C33.8295 12.2087 31.9676 11.5989 30 11.5989C28.0324 11.5989 26.1705 12.2087 24.7572 13.316C23.6251 14.203 22.8766 15.3258 22.5762 16.5589H19.7961C19.4958 15.3259 18.7472 14.203 17.6152 13.316C16.2018 12.2087 14.3399 11.5989 12.3723 11.5989C10.4047 11.5989 8.54283 12.2087 7.12948 13.316C5.62733 14.4931 4.79999 16.0853 4.79999 17.7995C4.79999 19.5136 5.62733 21.1058 7.12956 22.2829C8.54292 23.3902 10.4048 24 12.3724 24C14.34 24 16.2019 23.3902 17.6153 22.2829C18.7476 21.3957 19.4962 20.2725 19.7964 19.0392H22.5761C22.8762 20.2726 23.6249 21.3957 24.7572 22.2829C26.1705 23.3902 28.0324 24 30 24C31.9676 24 33.8295 23.3902 35.2429 22.2829C36.7451 21.1058 37.5724 19.5136 37.5724 17.7995C37.5724 16.0853 36.7451 14.4931 35.2429 13.316Z" fill="#1E1E1E"/>
</svg>
