<svg width="16" height="18" viewBox="0 0 16 18" fill="none" xmlns="http://www.w3.org/2000/svg">
<path fill-rule="evenodd" clip-rule="evenodd" d="M15.2658 0.999953C14.2675 0.686201 13.1859 0.5 12.0244 0.5C8.12058 0.5 5.11825 2.60372 3.15133 4.58383C2.15915 5.58268 1.40152 6.57807 0.891818 7.32292C0.636375 7.69621 0.441639 8.00888 0.30944 8.23069C0.243305 8.34166 0.192712 8.43006 0.157898 8.49216C0.140487 8.52321 0.127012 8.5477 0.117502 8.56516L0.106211 8.58602L0.102801 8.59239L0.101222 8.59536C0.101045 8.59569 0.100883 8.596 0.957013 9L0.101222 8.59536C-0.0335143 8.84968 -0.0338537 9.14968 0.100883 9.404L0.957013 9C0.100883 9.404 0.100705 9.40367 0.100883 9.404L0.101655 9.40546L0.102801 9.40761L0.106211 9.41398L0.117502 9.43484C0.127012 9.4523 0.140487 9.47679 0.157898 9.50784C0.192712 9.56994 0.243305 9.65835 0.30944 9.76931C0.441639 9.99112 0.636375 10.3038 0.891818 10.6771C1.40152 11.4219 2.15915 12.4173 3.15133 13.4162C5.11825 15.3963 8.12058 17.5 12.0244 17.5C13.1859 17.5 14.2675 17.3138 15.2658 17V15.072C14.2733 15.4593 13.1908 15.6932 12.0244 15.6932C8.88538 15.6932 6.35401 13.9986 4.54793 12.1804C3.65363 11.2801 2.96495 10.3764 2.49996 9.69686C2.31104 9.42079 2.16009 9.18326 2.04823 9C2.16009 8.81674 2.31104 8.57921 2.49996 8.30314C2.96495 7.62362 3.65363 6.71986 4.54793 5.81955C6.35401 4.00136 8.88538 2.30676 12.0244 2.30676C13.1908 2.30676 14.2733 2.54072 15.2658 2.92805V0.999953ZM12.0244 7.05465C10.8861 7.05465 9.96323 7.92561 9.96323 9C9.96323 10.0744 10.8861 10.9454 12.0244 10.9454C13.1628 10.9454 14.0856 10.0744 14.0856 9C14.0856 7.92561 13.1628 7.05465 12.0244 7.05465ZM8.04886 9C8.04886 6.92776 9.82879 5.24789 12.0244 5.24789C14.2201 5.24789 16 6.92776 16 9C16 11.0722 14.2201 12.7521 12.0244 12.7521C9.82879 12.7521 8.04886 11.0722 8.04886 9Z" fill="#E9EAEB"/>
</svg>
