<svg width="36" height="24" viewBox="0 0 36 24" fill="none" xmlns="http://www.w3.org/2000/svg">
<path d="M11.6527 22.5415C5.78036 22.5415 1 17.7156 1 11.7956C1 5.87553 5.78036 1.0415 11.6527 1.0415C17.525 1.0415 22.2973 5.86737 22.2973 11.7956C22.2973 17.7238 17.5169 22.5497 11.6527 22.5497V22.5415ZM11.6527 4.22608C7.51941 4.22608 4.15455 7.62297 4.15455 11.7956C4.15455 15.9682 7.51941 19.3651 11.6527 19.3651C15.786 19.3651 19.1508 15.9682 19.1508 11.7956C19.1508 7.62297 15.786 4.22608 11.6527 4.22608V4.22608Z" fill="#061014"/>
<path d="M33.2726 13.8823C34.4188 8.95651 31.3925 4.02528 26.5131 2.86812C21.6337 1.71097 16.749 4.76608 15.6027 9.6919C14.4565 14.6177 17.4828 19.549 22.3622 20.7061C27.2416 21.8633 32.1263 18.8082 33.2726 13.8823Z" fill="#01D0FF"/>
</svg>
