<svg width="40" height="42" viewBox="0 0 40 42" fill="none" xmlns="http://www.w3.org/2000/svg">
<path d="M34.4196 10.3949C32.4727 7.62786 29.7639 5.50046 26.5862 4.24259C26.2374 4.1046 25.8398 4.2683 25.6981 4.60836C25.5564 4.94842 25.7244 5.33597 26.0733 5.47416C29.0026 6.63369 31.4999 8.59525 33.2952 11.1468C35.1328 13.7587 36.1042 16.82 36.1042 20C36.1042 28.6411 28.8935 35.6709 20.0301 35.6709C11.1667 35.6709 3.95597 28.641 3.95597 20C3.95597 11.359 11.1667 4.32912 20.0302 4.32912C20.4066 4.32912 20.7118 4.03155 20.7118 3.66459C20.7118 3.29757 20.4066 3 20.0302 3C10.415 3 2.59265 10.6261 2.59265 20C2.59265 29.3739 10.415 37 20.0302 37C29.6453 37 37.4677 29.3739 37.4677 20C37.4677 16.5504 36.4136 13.229 34.4196 10.3949Z" fill="#061014" fill-opacity="0.9"/>
<path d="M26.6782 4.01014L26.6781 4.01013C26.2065 3.82353 25.6631 4.04247 25.4674 4.5122C25.2702 4.98547 25.5066 5.51859 25.9812 5.70659L25.9813 5.70661C28.8657 6.84839 31.3238 8.77939 33.0907 11.2906C34.8989 13.8606 35.8542 16.8718 35.8542 20C35.8542 28.497 28.7614 35.4209 20.0301 35.4209C11.2988 35.4209 4.20597 28.4969 4.20597 20C4.20597 11.5031 11.2988 4.57912 20.0302 4.57912C20.5386 4.57912 20.9618 4.17557 20.9618 3.66459C20.9618 3.15356 20.5387 2.75 20.0302 2.75C10.283 2.75 2.34265 10.4821 2.34265 20C2.34265 29.5179 10.283 37.25 20.0302 37.25C29.7773 37.25 37.7177 29.5179 37.7177 20C37.7177 16.4986 36.6476 13.1271 34.624 10.251C32.6488 7.44371 29.9007 5.28575 26.6782 4.01014Z" stroke="#061014" stroke-opacity="0.9" stroke-width="0.5"/>
<path d="M13.8848 14.9438C13.8848 13.2096 15.3298 11.8099 17.0929 11.8099C18.8561 11.8099 20.301 13.2096 20.3009 14.9438H13.8848ZM13.8848 14.9438C13.8848 15.455 14.3081 15.8584 14.8165 15.8584M13.8848 14.9438L14.8165 15.8584M14.8165 15.8584C15.325 15.8584 15.7482 15.4548 15.7482 14.9438M14.8165 15.8584L15.7482 14.9438M15.7482 14.9438C15.7482 14.2306 16.3457 13.6391 17.0928 13.6391M15.7482 14.9438L17.0928 13.6391M17.0928 13.6391C17.84 13.6391 18.4375 14.2306 18.4375 14.9438M17.0928 13.6391L18.4375 14.9438M18.4375 14.9438C18.4375 15.455 18.8608 15.8584 19.3692 15.8584M18.4375 14.9438L19.3692 15.8584M19.3692 15.8584C19.8777 15.8584 20.3009 15.4548 20.3009 14.9438L19.3692 15.8584Z" fill="#01D0FF" stroke="#01D0FF" stroke-width="0.5"/>
<path d="M25.3983 14.9438C25.3983 13.2096 26.8432 11.8099 28.6064 11.8099C30.3696 11.8099 31.8146 13.2096 31.8144 14.9438H25.3983ZM25.3983 14.9438C25.3983 15.4549 25.8216 15.8584 26.33 15.8584M25.3983 14.9438L26.33 15.8584M26.33 15.8584C26.8386 15.8584 27.2617 15.4548 27.2617 14.9438M26.33 15.8584L27.2617 14.9438M27.2617 14.9438C27.2617 14.2306 27.8592 13.6391 28.6064 13.6391M27.2617 14.9438L28.6064 13.6391M28.6064 13.6391C29.3536 13.6391 29.951 14.2306 29.951 14.9438M28.6064 13.6391L29.951 14.9438M29.951 14.9438C29.951 15.4549 30.3743 15.8584 30.8827 15.8584M29.951 14.9438L30.8827 15.8584M30.8827 15.8584C31.3912 15.8584 31.8144 15.4548 31.8144 14.9439L30.8827 15.8584Z" fill="#01D0FF" stroke="#01D0FF" stroke-width="0.5"/>
<path d="M30.1838 24.3563V24.3562C30.1836 23.8452 29.7605 23.4417 29.2519 23.4417H15.6858C15.1772 23.4417 14.7542 23.8453 14.7542 24.3563C14.7542 28.5131 18.2207 31.8838 22.469 31.8838C26.7172 31.8838 30.1838 28.5131 30.1838 24.3563ZM16.6927 25.2709H28.245C27.7949 27.9751 25.38 30.0545 22.4688 30.0545C19.5576 30.0545 17.1427 27.9751 16.6927 25.2709Z" fill="#01D0FF" stroke="#01D0FF" stroke-width="0.5"/>
<path d="M23.7669 4.80471C24.1434 4.80471 24.4487 4.50716 24.4487 4.14011C24.4487 3.77307 24.1434 3.47552 23.7669 3.47552C23.3905 3.47552 23.0853 3.77307 23.0853 4.14011C23.0853 4.50716 23.3905 4.80471 23.7669 4.80471Z" fill="#061014" fill-opacity="0.9"/>
<path d="M23.7669 5.05471C24.2755 5.05471 24.6987 4.6512 24.6987 4.14011C24.6987 3.62904 24.2755 3.22552 23.7669 3.22552C23.2584 3.22552 22.8353 3.62908 22.8353 4.14011C22.8353 4.65115 23.2584 5.05471 23.7669 5.05471Z" stroke="#061014" stroke-opacity="0.9" stroke-width="0.5"/>
</svg>
