<svg width="52" height="33" viewBox="0 0 52 33" fill="none" xmlns="http://www.w3.org/2000/svg">
<g clip-path="url(#clip0_13009_402)">
<path d="M40.9134 16.6281L39.1396 8.64998C38.7897 7.0781 37.4209 5.97998 35.8109 5.97998C33.9297 5.97998 32.3997 7.50998 32.3997 9.39062V9.81998H34.9597V9.39062C34.9597 8.92184 35.3422 8.54 35.811 8.54C36.2122 8.54 36.5535 8.81438 36.6409 9.20624L38.0128 15.3798C36.8707 14.3217 35.3556 13.66 33.6797 13.66C31.032 13.66 28.7547 15.2766 27.7824 17.5744C27.3218 17.1689 26.741 16.86 25.9997 16.86C25.2564 16.86 24.678 17.1714 24.2184 17.5794C23.2473 15.279 20.9692 13.66 18.3196 13.66C16.6437 13.66 15.1285 14.3217 13.9864 15.3798L15.3571 9.2075C15.4459 8.81438 15.7872 8.54 16.1884 8.54C16.6572 8.54 17.0397 8.9219 17.0397 9.39062V9.81998H19.5997V9.39062C19.5997 7.50998 18.0697 5.97998 16.1884 5.97998C14.5785 5.97998 13.2097 7.0781 12.8584 8.65124L11.0859 16.6288C10.7896 17.965 10.6396 19.3344 10.6396 20.7C10.6396 21.4069 11.2122 21.98 11.9196 21.98H12.2464C13.0678 24.5673 15.4642 26.46 18.3196 26.46C21.4525 26.46 24.0556 24.1933 24.6028 21.2161C24.9177 21.0776 25.1756 20.8179 25.2934 20.4651C25.4396 20.0288 25.8234 19.4626 25.9959 19.4194C26.1621 19.4588 26.5359 19.9763 26.7058 20.4651C26.8231 20.8167 27.0823 21.0702 27.3958 21.2096C27.9405 24.1899 30.5445 26.4601 33.6796 26.4601C36.535 26.4601 38.9314 24.5673 39.7528 21.9801H40.0796C40.7871 21.9801 41.3596 21.4069 41.3596 20.7001C41.3596 19.3344 41.2096 17.965 40.9134 16.6281ZM18.3196 25.18C15.4959 25.18 13.1997 22.8831 13.1997 20.06C13.1997 17.2369 15.4959 14.94 18.3196 14.94C21.1434 14.94 23.4396 17.2369 23.4396 20.06C23.4396 22.8831 21.1434 25.18 18.3196 25.18ZM33.6796 25.18C30.8559 25.18 28.5597 22.8831 28.5597 20.06C28.5597 17.2369 30.8559 14.94 33.6796 14.94C36.5034 14.94 38.7996 17.2369 38.7996 20.06C38.7996 22.8831 36.5034 25.18 33.6796 25.18Z" fill="#001529"/>
<path d="M18.3195 16.22C16.202 16.22 14.4795 17.9425 14.4795 20.06C14.4795 20.4137 14.7658 20.7 15.1195 20.7C15.4733 20.7 15.7595 20.4137 15.7595 20.06C15.7595 18.6481 16.9083 17.5 18.3196 17.5C18.6733 17.5 18.9596 17.2137 18.9596 16.8599C18.9595 16.5062 18.6733 16.22 18.3195 16.22Z" fill="#001529"/>
<path d="M33.6798 16.22C31.5623 16.22 29.8398 17.9425 29.8398 20.06C29.8398 20.4137 30.1261 20.7 30.4799 20.7C30.8336 20.7 31.1199 20.4137 31.1199 20.06C31.1199 18.6481 32.2686 17.5 33.6799 17.5C34.0337 17.5 34.3199 17.2137 34.3199 16.8599C34.3199 16.5062 34.0336 16.22 33.6798 16.22Z" fill="#001529"/>
</g>
<defs>
<clipPath id="clip0_13009_402">
<rect x="10" y="5.33997" width="32" height="21.76" rx="5" fill="white"/>
</clipPath>
</defs>
</svg>
