<svg width="108" height="32" viewBox="0 0 108 32" fill="none" xmlns="http://www.w3.org/2000/svg">
<path d="M10.136 27.28C8.176 27.28 6.51467 26.888 5.152 26.104C3.78933 25.32 2.75333 24.1813 2.044 22.688C1.33467 21.176 0.98 19.3467 0.98 17.2C0.98 15.0533 1.33467 13.2333 2.044 11.74C2.75333 10.228 3.78933 9.08 5.152 8.296C6.51467 7.512 8.176 7.12 10.136 7.12C12.096 7.12 13.7573 7.512 15.12 8.296C16.5013 9.08 17.5467 10.228 18.256 11.74C18.9653 13.2333 19.32 15.0533 19.32 17.2C19.32 19.3467 18.9653 21.176 18.256 22.688C17.5467 24.1813 16.5013 25.32 15.12 26.104C13.7573 26.888 12.096 27.28 10.136 27.28ZM10.136 22.296C11.2373 22.296 12.0867 21.8573 12.684 20.98C13.2813 20.1027 13.58 18.8427 13.58 17.2C13.58 15.464 13.2813 14.1387 12.684 13.224C12.0867 12.2907 11.2373 11.824 10.136 11.824C9.03467 11.824 8.18533 12.2907 7.588 13.224C6.99067 14.1387 6.692 15.464 6.692 17.2C6.692 18.8427 6.99067 20.1027 7.588 20.98C8.18533 21.8573 9.03467 22.296 10.136 22.296ZM21.2411 27L20.2891 24.704L25.8051 18.824C26.1411 18.4693 26.5051 18.068 26.8971 17.62C27.2891 17.1533 27.6717 16.6773 28.0451 16.192C28.4184 15.7067 28.7171 15.24 28.9411 14.792C29.1837 14.344 29.3051 13.952 29.3051 13.616C29.3051 13.4293 29.2491 13.252 29.1371 13.084C29.0251 12.8973 28.8477 12.748 28.6051 12.636C28.3811 12.5053 28.0731 12.44 27.6811 12.44C27.3264 12.44 26.9997 12.5147 26.7011 12.664C26.4211 12.8133 26.1317 13.0653 25.8331 13.42C25.5531 13.756 25.2451 14.2133 24.9091 14.792L20.5131 12.552C20.9424 11.4693 21.5491 10.4987 22.3331 9.64C23.1171 8.76267 24.0131 8.072 25.0211 7.568C26.0477 7.064 27.1211 6.82133 28.2411 6.84C29.4357 6.85867 30.5277 7.12 31.5171 7.624C32.5064 8.10933 33.2997 8.79067 33.8971 9.668C34.4944 10.5453 34.7931 11.572 34.7931 12.748C34.7931 13.1213 34.7464 13.5133 34.6531 13.924C34.5784 14.3347 34.4477 14.764 34.2611 15.212C34.0931 15.66 33.8597 16.1453 33.5611 16.668C33.2624 17.172 32.8984 17.7133 32.4691 18.292C32.0397 18.852 31.5357 19.4493 30.9571 20.084L26.5051 24.928L25.9451 21.848H35.8571V27H21.2411Z" fill="#01D0FF"/>
<path d="M51 16L106 16" stroke="#01D0FF" stroke-width="3" stroke-linecap="round"/>
</svg>
