<svg width="24" height="24" viewBox="0 0 24 24" fill="none" xmlns="http://www.w3.org/2000/svg">
<path d="M18.0542 2.39777C17.6685 2.17408 17.1757 2.30644 16.952 2.69365L16.146 4.08844L18.939 5.70055L19.7451 4.30577C19.9671 3.91855 19.8349 3.42734 19.4492 3.20365L18.0542 2.39777Z" fill="black"/>
<path d="M5.85068 2.39775L4.45586 3.20383C4.07017 3.42752 3.93798 3.91858 4.15982 4.30595L4.96586 5.70077L7.75888 4.08865L6.9528 2.69387C6.72912 2.30642 6.23637 2.17422 5.85068 2.39775Z" fill="black"/>
<path d="M11.9999 3.6298C12.5097 3.6298 13.0077 3.67969 13.4999 3.75V2.44537L14.5312 2.43749V0.75C14.5312 0.335451 14.1957 0 13.7812 0H10.2266C9.81201 0 9.47656 0.335451 9.47656 0.75V2.43749L10.4999 2.44537V3.75C10.9921 3.67969 11.4901 3.6298 11.9999 3.6298Z" fill="black"/>
<path d="M12.0001 7.98041C8.53753 7.98041 5.73047 10.7873 5.73047 14.25C5.73047 17.7128 8.53733 20.5196 12.0001 20.5196C15.4628 20.5196 18.2697 17.7126 18.2697 14.25C18.2697 10.7875 15.4626 7.98041 12.0001 7.98041ZM12.9016 15.3988C12.5387 15.7296 11.8139 15.5254 11.2825 14.9428C10.7511 14.3601 10.6142 13.6195 10.9771 13.2887C11.3398 12.9579 14.5851 11.1688 15.5772 11.0261C15.3438 12.0008 13.2644 15.0681 12.9016 15.3988Z" fill="black"/>
<path d="M12 4.5C6.61522 4.5 2.25 8.86518 2.25 14.25C2.25 19.6348 6.61522 24 12 24C17.3848 24 21.75 19.6348 21.75 14.25C21.75 8.86518 17.3848 4.5 12 4.5ZM12 22.161C7.63086 22.161 4.08902 18.6191 4.08902 14.25C4.08902 9.88086 7.6309 6.33882 12 6.33882C16.3691 6.33882 19.9112 9.8809 19.9112 14.25C19.9112 18.6191 16.3691 22.161 12 22.161Z" fill="black"/>
</svg>
