<svg width="40" height="40" viewBox="0 0 40 40" fill="none" xmlns="http://www.w3.org/2000/svg">
<circle cx="20" cy="20" r="20" fill="#0052A0"/>
<g clip-path="url(#clip0_13249_617)">
<path d="M12.3068 25.5992C11.6385 25.5992 10.9856 25.4286 10.3939 25.0964C10.0895 24.9396 9.97154 24.5473 10.1534 24.2522C10.7577 23.2866 10.9759 22.1062 10.6993 20.9962C10.4125 19.8453 9.99753 18.8761 10.0005 17.6578C10.0108 13.3836 13.5684 9.91854 17.8382 10.0015C21.9624 10.0845 25.3613 13.5514 25.3614 17.6766C25.3614 23.0643 19.7151 26.8469 14.7304 24.7664C14.0433 25.3057 13.1797 25.5992 12.3068 25.5992ZM11.4948 24.2838C12.4338 24.5754 13.4898 24.3424 14.2139 23.6424C14.3923 23.4699 14.6592 23.4265 14.8831 23.5335C19.1506 25.5739 24.1733 22.3758 24.1732 17.6766C24.1732 14.1701 21.3206 11.2599 17.8143 11.1893C14.201 11.1175 11.1973 14.044 11.1886 17.6607C11.1858 18.8178 11.6372 19.7426 11.884 20.8388C12.1439 21.994 12.007 23.2155 11.4948 24.2838Z" fill="#E1F1FF"/>
<path d="M27.6934 29.9998C26.8205 29.9998 25.9569 29.7062 25.2699 29.167C22.619 30.2734 19.4657 29.7696 17.2921 27.8925C17.0438 27.678 17.0164 27.3029 17.2308 27.0546C17.4453 26.8063 17.8203 26.7788 18.0687 26.9933C19.9964 28.6581 22.8197 29.0326 25.1172 27.9342C25.341 27.8271 25.6078 27.8705 25.7864 28.0431C26.5104 28.743 27.5665 28.9762 28.5055 28.6844C27.9013 27.4241 27.8176 25.9802 28.2858 24.6435C28.29 24.6314 28.2946 24.6196 28.2996 24.6078C28.6415 23.8017 28.8139 22.9449 28.8117 22.0613C28.808 20.5035 28.2898 19.0625 27.3131 17.894C27.1027 17.6422 27.1362 17.2676 27.3879 17.0572C27.6396 16.8468 28.0143 16.8803 28.2247 17.1321C29.365 18.4964 29.9955 20.246 29.9998 22.0584C30.0024 23.0966 29.8009 24.1041 29.4012 25.0534C28.9813 26.2688 29.1744 27.5702 29.8468 28.6527C30.0288 28.9479 29.9108 29.3402 29.6063 29.4971C29.0147 29.8292 28.3616 29.9997 27.6934 29.9998Z" fill="#E1F1FF"/>
<path d="M17.6806 18.6456C18.1998 18.6456 18.6206 18.2249 18.6206 17.7061C18.6206 17.1872 18.1998 16.7666 17.6806 16.7666C17.1615 16.7666 16.7407 17.1872 16.7407 17.7061C16.7407 18.2249 17.1615 18.6456 17.6806 18.6456Z" fill="#E1F1FF"/>
<path d="M14.2176 18.6456C14.7367 18.6456 15.1575 18.2249 15.1575 17.7061C15.1575 17.1872 14.7367 16.7666 14.2176 16.7666C13.6984 16.7666 13.2776 17.1872 13.2776 17.7061C13.2776 18.2249 13.6984 18.6456 14.2176 18.6456Z" fill="#E1F1FF"/>
<path d="M21.1438 18.6456C21.6629 18.6456 22.0838 18.2249 22.0838 17.7061C22.0838 17.1872 21.6629 16.7666 21.1438 16.7666C20.6246 16.7666 20.2038 17.1872 20.2038 17.7061C20.2038 18.2249 20.6246 18.6456 21.1438 18.6456Z" fill="#E1F1FF"/>
</g>
<defs>
<clipPath id="clip0_13249_617">
<rect width="20" height="20" fill="white" transform="translate(10 10)"/>
</clipPath>
</defs>
</svg>
