<svg width="41" height="41" viewBox="0 0 41 41" fill="none" xmlns="http://www.w3.org/2000/svg">
<circle cx="20.5" cy="20.5" r="20.5" fill="#004B90"/>
<path d="M20.1 20.77C20.1 22.03 19.9633 23.1267 19.69 24.06C19.4233 24.9867 19.05 25.7533 18.57 26.36C18.0967 26.9667 17.5333 27.42 16.88 27.72C16.2333 28.0133 15.5333 28.16 14.78 28.16C14.0267 28.16 13.3267 28.0133 12.68 27.72C12.04 27.42 11.4833 26.9667 11.01 26.36C10.5367 25.7533 10.1667 24.9867 9.9 24.06C9.63333 23.1267 9.5 22.03 9.5 20.77C9.5 19.5033 9.63333 18.4067 9.9 17.48C10.1667 16.5533 10.5367 15.7867 11.01 15.18C11.4833 14.5733 12.04 14.1233 12.68 13.83C13.3267 13.53 14.0267 13.38 14.78 13.38C15.5333 13.38 16.2333 13.53 16.88 13.83C17.5333 14.1233 18.0967 14.5733 18.57 15.18C19.05 15.7867 19.4233 16.5533 19.69 17.48C19.9633 18.4067 20.1 19.5033 20.1 20.77ZM17.55 20.77C17.55 19.7233 17.4733 18.8567 17.32 18.17C17.1667 17.4833 16.96 16.9367 16.7 16.53C16.4467 16.1233 16.1533 15.84 15.82 15.68C15.4867 15.5133 15.14 15.43 14.78 15.43C14.4267 15.43 14.0833 15.5133 13.75 15.68C13.4233 15.84 13.1333 16.1233 12.88 16.53C12.6267 16.9367 12.4233 17.4833 12.27 18.17C12.1233 18.8567 12.05 19.7233 12.05 20.77C12.05 21.8167 12.1233 22.6833 12.27 23.37C12.4233 24.0567 12.6267 24.6033 12.88 25.01C13.1333 25.4167 13.4233 25.7033 13.75 25.87C14.0833 26.03 14.4267 26.11 14.78 26.11C15.14 26.11 15.4867 26.03 15.82 25.87C16.1533 25.7033 16.4467 25.4167 16.7 25.01C16.96 24.6033 17.1667 24.0567 17.32 23.37C17.4733 22.6833 17.55 21.8167 17.55 20.77ZM21.6816 17.57C21.7816 16.8767 21.9749 16.27 22.2616 15.75C22.5482 15.2233 22.9049 14.7867 23.3316 14.44C23.7649 14.0867 24.2582 13.8233 24.8116 13.65C25.3716 13.47 25.9716 13.38 26.6116 13.38C27.2782 13.38 27.8782 13.4767 28.4116 13.67C28.9516 13.8567 29.4116 14.12 29.7916 14.46C30.1716 14.7933 30.4616 15.1867 30.6616 15.64C30.8682 16.0933 30.9716 16.5833 30.9716 17.11C30.9716 17.57 30.9182 17.9767 30.8116 18.33C30.7116 18.6767 30.5649 18.98 30.3716 19.24C30.1782 19.5 29.9382 19.72 29.6516 19.9C29.3649 20.08 29.0416 20.23 28.6816 20.35C29.5482 20.6233 30.1949 21.04 30.6216 21.6C31.0482 22.16 31.2616 22.8633 31.2616 23.71C31.2616 24.43 31.1282 25.0667 30.8616 25.62C30.5949 26.1733 30.2349 26.64 29.7816 27.02C29.3282 27.3933 28.8016 27.6767 28.2016 27.87C27.6082 28.0633 26.9782 28.16 26.3116 28.16C25.5849 28.16 24.9516 28.0767 24.4116 27.91C23.8716 27.7433 23.4016 27.4967 23.0016 27.17C22.6016 26.8433 22.2616 26.4433 21.9816 25.97C21.7016 25.4967 21.4616 24.95 21.2616 24.33L22.3516 23.88C22.6382 23.76 22.9049 23.73 23.1516 23.79C23.4049 23.8433 23.5882 23.9767 23.7016 24.19C23.8216 24.4233 23.9516 24.6533 24.0916 24.88C24.2382 25.1067 24.4116 25.31 24.6116 25.49C24.8116 25.6633 25.0449 25.8067 25.3116 25.92C25.5849 26.0267 25.9082 26.08 26.2816 26.08C26.7016 26.08 27.0682 26.0133 27.3816 25.88C27.6949 25.74 27.9549 25.56 28.1616 25.34C28.3749 25.12 28.5316 24.8767 28.6316 24.61C28.7382 24.3367 28.7916 24.0633 28.7916 23.79C28.7916 23.4433 28.7549 23.13 28.6816 22.85C28.6082 22.5633 28.4549 22.32 28.2216 22.12C27.9882 21.92 27.6516 21.7633 27.2116 21.65C26.7782 21.5367 26.1949 21.48 25.4616 21.48V19.72C26.0682 19.7133 26.5716 19.6567 26.9716 19.55C27.3716 19.4433 27.6882 19.2967 27.9216 19.11C28.1616 18.9167 28.3282 18.6867 28.4216 18.42C28.5149 18.1533 28.5616 17.86 28.5616 17.54C28.5616 16.86 28.3716 16.3433 27.9916 15.99C27.6116 15.6367 27.1049 15.46 26.4716 15.46C26.1782 15.46 25.9082 15.5033 25.6616 15.59C25.4149 15.67 25.1916 15.7867 24.9916 15.94C24.7982 16.0867 24.6349 16.26 24.5016 16.46C24.3682 16.66 24.2682 16.88 24.2016 17.12C24.0882 17.4267 23.9382 17.63 23.7516 17.73C23.5716 17.83 23.3149 17.8533 22.9816 17.8L21.6816 17.57Z" fill="white"/>
</svg>
