<svg width="87" height="53" viewBox="0 0 87 53" fill="none" xmlns="http://www.w3.org/2000/svg">
<g clip-path="url(#clip0_435_1511)">
<path d="M48.6769 47.9428C48.3531 47.1389 47.5437 46.6566 46.5725 46.9781L42.3638 48.4251C37.9932 49.8721 33.1369 49.3897 29.0901 47.4605L29.4138 47.1389C32.1657 44.4058 32.1657 39.9041 29.4138 37.171L17.2732 25.113C15.1689 22.7014 11.2839 22.7014 9.01766 24.9522L1.89519 32.0262C1.40957 32.5086 1.08582 33.1517 1.08582 33.9555C1.08582 34.7594 1.40957 35.4025 1.89519 35.8848C2.86644 36.8494 4.3233 37.0102 5.29455 36.2063L13.2264 31.0616L17.7589 35.5633L13.5501 39.7434C10.9602 39.5826 8.20829 39.9041 5.6183 40.708L1.40957 42.155C0.600196 42.4765 0.114574 43.2804 0.438322 44.245C0.762071 45.0489 1.57144 45.5312 2.54269 45.2096L6.75142 43.7627C12.5789 41.8334 19.0539 43.1196 23.5863 47.2997C27.3095 50.6759 32.1657 52.4444 37.1838 52.4444C39.2882 52.4444 41.5544 52.1229 43.6588 51.4798L47.8675 50.0328C48.515 49.7113 49.0006 48.7467 48.6769 47.9428Z" fill="black"/>
<path d="M35.8886 35.5633C40.4211 35.5633 43.9823 32.0263 43.9823 27.5246C43.9823 23.023 40.4211 19.486 35.8886 19.486C31.3562 19.486 27.7949 23.023 27.7949 27.5246C27.7949 32.0263 31.3562 35.5633 35.8886 35.5633Z" fill="black"/>
</g>
<path d="M85.5561 33.1906C85.2936 32.5188 84.6373 32.1156 83.8498 32.3844L80.4373 33.5938C76.8936 34.8031 72.9561 34.4 69.6748 32.7875L69.9373 32.5188C72.1686 30.2344 72.1686 26.4719 69.9373 24.1875L60.0936 14.1094C58.3873 12.0938 55.2373 12.0938 53.3998 13.975L47.6248 19.8875C47.2311 20.2906 46.9686 20.8281 46.9686 21.5C46.9686 22.1719 47.2311 22.7094 47.6248 23.1125C48.4123 23.9188 49.5936 24.0531 50.3811 23.3813L56.8123 19.0813L60.4873 22.8438L57.0748 26.3375C54.9748 26.2031 52.7436 26.4719 50.6436 27.1438L47.2311 28.3531C46.5748 28.6219 46.1811 29.2938 46.4436 30.1C46.7061 30.7719 47.3623 31.175 48.1498 30.9063L51.5623 29.6969C56.2873 28.0844 61.5373 29.1594 65.2123 32.6531C68.2311 35.475 72.1686 36.9531 76.2373 36.9531C77.9436 36.9531 79.7811 36.6844 81.4873 36.1469L84.8998 34.9375C85.4248 34.6688 85.8186 33.8625 85.5561 33.1906Z" fill="#4D4D4D"/>
<path d="M75.1875 22.8438C78.8625 22.8438 81.75 19.8875 81.75 16.125C81.75 12.3625 78.8625 9.40625 75.1875 9.40625C71.5125 9.40625 68.625 12.3625 68.625 16.125C68.625 19.8875 71.5125 22.8438 75.1875 22.8438Z" fill="#4D4D4D"/>
<defs>
<clipPath id="clip0_435_1511">
<rect width="49" height="34" fill="white" transform="translate(0 19)"/>
</clipPath>
</defs>
</svg>
