<svg width="27" height="27" viewBox="0 0 27 27" fill="none" xmlns="http://www.w3.org/2000/svg">
<g id="outgoing-call--android-phone-mobile-device-smartphone-iphone-ringing-outgoing-call" clip-path="url(#clip0_13169_875)">
<g id="outgoing-call--android-phone-mobile-device-smartphone-iphone-ringing-outgoing-call_2">
<path id="Union" fill-rule="evenodd" clip-rule="evenodd" d="M9.69224 1.63627C9.47113 1.10245 8.95022 0.754395 8.37241 0.754395H2.15199C1.76398 0.754395 1.4121 0.909084 1.15465 1.16016C1.14597 1.16863 1.1374 1.1772 1.12893 1.18588C0.999438 1.31868 0.900956 1.47046 0.833492 1.63211C0.762585 1.80163 0.723419 1.98772 0.723419 2.18296V8.4034C0.723419 8.98119 1.07148 9.5021 1.6053 9.72322C2.13911 9.94433 2.75357 9.82212 3.16214 9.41355L5.2622 7.31349L10.0281 12.0794C10.586 12.6373 11.4905 12.6373 12.0484 12.0794C12.6063 11.5215 12.6063 10.617 12.0484 10.0591L7.28251 5.29317L9.38256 3.19311C9.79113 2.78456 9.91336 2.1701 9.69224 1.63627ZM12.9992 25.4942C12.0117 26.13 10.8364 26.4087 9.66866 26.2839C8.50089 26.1592 7.41096 25.6384 6.58012 24.8085L5.85631 24.0847C5.53529 23.7601 5.35521 23.322 5.35521 22.8656C5.35521 22.4091 5.53529 21.971 5.85631 21.6466L8.90393 18.6179C9.22521 18.2981 9.6601 18.1185 10.1135 18.1185C10.5668 18.1185 11.0017 18.2981 11.323 18.6179C11.6475 18.939 12.0856 19.1191 12.542 19.1191C12.9985 19.1191 13.4366 18.939 13.7611 18.6179L18.6182 13.7608C18.9393 13.4363 19.1193 12.9982 19.1193 12.5417C19.1193 12.0853 18.9393 11.6472 18.6182 11.3227C18.2984 11.0014 18.1188 10.5665 18.1188 10.1132C18.1188 9.65981 18.2984 9.22492 18.6182 8.90364L21.5516 5.85602C21.876 5.535 22.3141 5.35492 22.7707 5.35492C23.2271 5.35492 23.6652 5.535 23.9897 5.85602L24.7135 6.57983C25.5585 7.39896 26.097 8.48307 26.2391 9.65126C26.3812 10.8195 26.1183 12.0011 25.4945 12.9989C22.173 17.9299 17.9302 22.1727 12.9992 25.4942Z" fill="#293C4E"/>
</g>
</g>
<defs>
<clipPath id="clip0_13169_875">
<rect width="26.6667" height="26.6667" fill="white" transform="translate(0.166672 0.200195)"/>
</clipPath>
</defs>
</svg>
