<svg width="111" height="32" viewBox="0 0 111 32" fill="none" xmlns="http://www.w3.org/2000/svg">
<path d="M10.136 27.28C8.176 27.28 6.51467 26.888 5.152 26.104C3.78933 25.32 2.75333 24.1813 2.044 22.688C1.33467 21.176 0.98 19.3467 0.98 17.2C0.98 15.0533 1.33467 13.2333 2.044 11.74C2.75333 10.228 3.78933 9.08 5.152 8.296C6.51467 7.512 8.176 7.12 10.136 7.12C12.096 7.12 13.7573 7.512 15.12 8.296C16.5013 9.08 17.5467 10.228 18.256 11.74C18.9653 13.2333 19.32 15.0533 19.32 17.2C19.32 19.3467 18.9653 21.176 18.256 22.688C17.5467 24.1813 16.5013 25.32 15.12 26.104C13.7573 26.888 12.096 27.28 10.136 27.28ZM10.136 22.296C11.2373 22.296 12.0867 21.8573 12.684 20.98C13.2813 20.1027 13.58 18.8427 13.58 17.2C13.58 15.464 13.2813 14.1387 12.684 13.224C12.0867 12.2907 11.2373 11.824 10.136 11.824C9.03467 11.824 8.18533 12.2907 7.588 13.224C6.99067 14.1387 6.692 15.464 6.692 17.2C6.692 18.8427 6.99067 20.1027 7.588 20.98C8.18533 21.8573 9.03467 22.296 10.136 22.296ZM29.0811 27.28C27.3451 27.28 25.8144 26.944 24.4891 26.272C23.1824 25.5813 22.0157 24.368 20.9891 22.632L25.2171 19.916C25.5717 20.532 25.9637 21.0173 26.3931 21.372C26.8224 21.7267 27.2704 21.988 27.7371 22.156C28.2037 22.3053 28.6891 22.38 29.1931 22.38C29.6224 22.38 30.0144 22.296 30.3691 22.128C30.7237 21.96 31.0037 21.7267 31.2091 21.428C31.4331 21.1107 31.5451 20.7373 31.5451 20.308C31.5451 19.8413 31.4331 19.4587 31.2091 19.16C31.0037 18.8427 30.7051 18.6093 30.3131 18.46C29.9211 18.292 29.4451 18.208 28.8851 18.208C28.6424 18.208 28.3717 18.236 28.0731 18.292C27.7744 18.348 27.4664 18.432 27.1491 18.544C26.8317 18.656 26.5144 18.796 26.1971 18.964L24.9931 15.8L28.8011 11.712L30.6211 12.3L22.5851 12.02V7.12H35.2411L36.3331 9.304L29.7811 16.108L28.3811 14.344C28.5304 14.2693 28.7731 14.204 29.1091 14.148C29.4637 14.0733 29.8371 14.036 30.2291 14.036C31.1251 14.036 31.9744 14.204 32.7771 14.54C33.5984 14.8573 34.3264 15.3053 34.9611 15.884C35.5957 16.444 36.0904 17.1067 36.4451 17.872C36.8184 18.6373 37.0051 19.468 37.0051 20.364C37.0051 21.6893 36.6504 22.8747 35.9411 23.92C35.2504 24.9467 34.2984 25.768 33.0851 26.384C31.8904 26.9813 30.5557 27.28 29.0811 27.28Z" fill="#01D0FF"/>
<path d="M54 16L109 16" stroke="#01D0FF" stroke-width="3" stroke-linecap="round"/>
</svg>
