<svg width="24" height="24" viewBox="0 0 24 24" fill="none" xmlns="http://www.w3.org/2000/svg">
<g clip-path="url(#clip0_440_1680)">
<path d="M9.65719 3.12591C10.5204 3.12591 11.2201 2.42615 11.2201 1.56295C11.2201 0.699758 10.5204 0 9.65719 0C8.794 0 8.09424 0.699758 8.09424 1.56295C8.09424 2.42615 8.794 3.12591 9.65719 3.12591Z" fill="black"/>
<path d="M14.3457 3.12591C15.2089 3.12591 15.9086 2.42615 15.9086 1.56295C15.9086 0.699758 15.2089 0 14.3457 0C13.4825 0 12.7827 0.699758 12.7827 1.56295C12.7827 2.42615 13.4825 3.12591 14.3457 3.12591Z" fill="black"/>
<path d="M18.7743 3.62939H5.22863C3.35841 3.62939 1.82471 5.1631 1.82471 7.03332V9.89874C1.82471 10.7619 2.52446 11.4617 3.38766 11.4617C4.25086 11.4617 4.95061 10.7619 4.95061 9.89874V7.55429C4.95061 7.12271 5.31802 6.7553 5.7496 6.7553H18.2533C18.6848 6.7553 19.0172 7.12271 19.0172 7.55429V9.89874C19.0172 10.7619 19.717 11.4617 20.5802 11.4617C21.4434 11.4617 22.1431 10.7619 22.1431 9.89874V7.03332C22.1432 5.1631 20.6445 3.62939 18.7743 3.62939Z" fill="black"/>
<path d="M23.1635 11.6731C22.5987 12.4887 21.6537 13.0247 20.5888 13.0247C18.865 13.0247 17.4541 11.6225 17.4541 9.89878V8.3183H6.51331V9.89878C6.51331 11.6225 5.11986 13.0247 3.39613 13.0247C2.33141 13.0247 1.39489 12.4888 0.830281 11.6736C0.445062 12.6126 0.242188 13.5946 0.242188 14.5876C0.242188 19.7776 5.51727 24 12.0001 24C18.483 24 23.7575 19.7776 23.7575 14.5876C23.7575 13.594 23.5483 12.6118 23.1635 11.6731Z" fill="black"/>
</g>
<defs>
<clipPath id="clip0_440_1680">
<rect width="24" height="24" fill="white"/>
</clipPath>
</defs>
</svg>
