<svg width="48" height="48" viewBox="0 0 48 48" fill="none" xmlns="http://www.w3.org/2000/svg">
<rect width="48" height="48" rx="24" fill="#003E79"/>
<path d="M26.0494 18C27.0262 18.1906 27.9238 18.6683 28.6275 19.3719C29.3312 20.0756 29.8089 20.9733 29.9994 21.95M26.0494 14C28.0787 14.2254 29.971 15.1342 31.4157 16.577C32.8603 18.0198 33.7715 19.911 33.9994 21.94M32.9994 29.92V32.92C33.0006 33.1985 32.9435 33.4742 32.832 33.7293C32.7204 33.9845 32.5567 34.2136 32.3515 34.4019C32.1463 34.5901 31.904 34.7335 31.6402 34.8227C31.3764 34.9119 31.0968 34.9451 30.8194 34.92C27.7423 34.5856 24.7864 33.5341 22.1894 31.85C19.7733 30.3147 17.7248 28.2662 16.1894 25.85C14.4994 23.2412 13.4477 20.271 13.1194 17.18C13.0945 16.9035 13.1273 16.6248 13.2159 16.3616C13.3046 16.0985 13.447 15.8567 13.6342 15.6516C13.8214 15.4466 14.0492 15.2827 14.3032 15.1705C14.5572 15.0583 14.8318 15.0003 15.1094 15H18.1094C18.5948 14.9952 19.0652 15.1671 19.4332 15.4835C19.8012 15.8 20.0415 16.2394 20.1094 16.72C20.2361 17.6801 20.4709 18.6227 20.8094 19.53C20.944 19.8879 20.9731 20.2769 20.8934 20.6509C20.8136 21.0248 20.6283 21.3681 20.3594 21.64L19.0894 22.91C20.513 25.4135 22.5859 27.4864 25.0894 28.91L26.3594 27.64C26.6313 27.3711 26.9746 27.1859 27.3486 27.1061C27.7225 27.0263 28.1115 27.0555 28.4694 27.19C29.3767 27.5286 30.3194 27.7634 31.2794 27.89C31.7652 27.9585 32.2088 28.2032 32.526 28.5775C32.8431 28.9518 33.0116 29.4296 32.9994 29.92Z" stroke="white" stroke-width="1.5" stroke-linecap="round" stroke-linejoin="round"/>
</svg>
