<svg width="24" height="24" viewBox="0 0 24 24" fill="none" xmlns="http://www.w3.org/2000/svg">
<g id="Outline 24px / map-pin">
<g id="whatsapp">
<path id="Vector" d="M12 2.20264C6.55349 2.20433 2.00309 6.7606 2.00311 12.2026C2.00312 14.1646 2.58705 16.1026 3.67692 17.7411L2 22.2026L7.61537 21.1872C8.98709 21.8576 10.4934 22.1935 12 22.1945C17.4512 22.1982 22.0058 17.648 22.0058 12.2026C22.0058 6.76346 17.4495 2.19942 12 2.20264Z" stroke="#4A759F" stroke-width="2" stroke-linecap="round" stroke-linejoin="round"/>
<path id="Vector 596" d="M12.6575 17.4832C14.2806 18.5251 15.9727 17.7662 17.1512 16.8873C17.9652 16.2802 17.9382 15.1092 17.2429 14.369L15.872 12.9095C15.3519 13.4296 14.3385 13.687 13.6344 13.4727C12.1209 13.0121 11.4857 12.2234 10.9709 11.4215C10.3797 10.5005 11.0474 9.12501 11.5674 8.60498L10.0393 7.20993C9.3951 6.62182 8.41657 6.52258 7.85448 7.18963C6.74233 8.50939 6.05067 10.5131 6.8698 11.7889C8.34028 14.0792 10.3671 16.0129 12.6575 17.4832Z" stroke="#4A759F" stroke-width="1.5" stroke-linecap="round" stroke-linejoin="round"/>
</g>
</g>
</svg>
