<svg width="22" height="23" viewBox="0 0 22 23" fill="none" xmlns="http://www.w3.org/2000/svg">
<g clip-path="url(#clip0_1658_5994)">
<path d="M14.7041 3.55265C15.8402 3.55265 16.8659 4.01748 17.5885 4.76377C18.4874 4.58983 19.3347 4.27289 20.0961 3.83392C19.8015 4.72838 19.1749 5.47877 18.3599 5.95348C19.1574 5.85964 19.9208 5.65477 20.6293 5.34848C20.0982 6.11642 19.4296 6.79258 18.6576 7.33295C18.6648 7.49692 18.6689 7.66261 18.6689 7.82759C18.6689 12.8921 14.6941 18.7334 7.42589 18.7334C5.19496 18.7334 3.11699 18.0968 1.36938 17.0098C1.68202 17.0462 1.99651 17.0643 2.31126 17.0641C4.16235 17.0641 5.86699 16.4519 7.21964 15.4227C5.48955 15.3932 4.0293 14.2839 3.52846 12.7621C3.77375 12.808 4.02277 12.8312 4.27233 12.8312C4.63155 12.8312 4.98149 12.7848 5.31218 12.6968C3.50474 12.3458 2.14246 10.7965 2.14246 8.93852V8.88939C2.67561 9.17676 3.28439 9.34932 3.93305 9.36926C2.87224 8.68105 2.17477 7.50958 2.17477 6.17959C2.17477 5.47662 2.37004 4.81799 2.71001 4.2539C4.65838 6.57146 7.56995 8.09771 10.8545 8.25824C10.7867 7.97841 10.7517 7.6828 10.7517 7.38546C10.7517 5.2683 12.521 3.55265 14.7041 3.55265ZM20.6293 5.34919H20.6327H20.6293ZM14.704 2.17773C12.0042 2.17773 9.76752 4.15019 9.42306 6.69876C7.21412 6.25497 5.20525 5.08554 3.76184 3.36988C3.63281 3.21639 3.47176 3.09297 3.28999 3.0083C3.10822 2.92363 2.91013 2.87974 2.7096 2.87971C2.67359 2.87972 2.63759 2.8811 2.60169 2.88384C2.38374 2.90129 2.17307 2.97038 1.98711 3.08539C1.80116 3.20039 1.64525 3.35801 1.53228 3.54521C1.05291 4.34061 0.799632 5.25172 0.799726 6.1804C0.799726 6.80018 0.91108 7.40381 1.12216 7.96825C0.897351 8.21815 0.767757 8.54506 0.767757 8.89018V8.93934C0.767757 10.2862 1.30023 11.536 2.18435 12.4727C2.13348 12.7086 2.14482 12.9554 2.22251 13.1919C2.52744 14.1196 3.08259 14.9192 3.8024 15.5283C3.31907 15.6359 2.82031 15.6902 2.31119 15.6902C2.04204 15.6902 1.7801 15.6754 1.53226 15.6452C1.47726 15.6383 1.42294 15.6359 1.36829 15.6359C0.790789 15.6359 0.26657 15.9999 0.0720073 16.5551C-0.141461 17.1635 0.0954038 17.838 0.642632 18.1786C2.67353 19.4423 5.01926 20.1095 7.42551 20.1095C15.2465 20.1095 19.9511 13.9869 20.0425 8.00636C20.6843 7.4754 21.2512 6.85999 21.7279 6.17692C21.9089 5.93924 22.0068 5.64862 22.0064 5.34986C22.0064 4.88202 21.7723 4.46848 21.4158 4.21993C21.5702 3.6909 21.3941 3.11821 20.9644 2.76828C20.7135 2.56409 20.4059 2.46028 20.0965 2.46028C19.8553 2.46005 19.6184 2.52349 19.4097 2.64418C18.9552 2.90614 18.4692 3.11342 17.9573 3.26263C17.0312 2.56585 15.8831 2.17776 14.704 2.17773Z" fill="#404A4D"/>
</g>
<defs>
<clipPath id="clip0_1658_5994">
<rect width="22" height="22" fill="white" transform="translate(0 0.142578)"/>
</clipPath>
</defs>
</svg>
