<svg width="21" height="14" viewBox="0 0 21 14" fill="none" xmlns="http://www.w3.org/2000/svg">
<g id="IllustartorAsset 11 2" clip-path="url(#clip0_12982_1439)">
<g id="OBJECT">
<g id="Group">
<path id="Vector" d="M13.0354 13.7489L19.9482 7.76926C20.4183 7.36396 20.4183 6.64184 19.9482 6.23654L13.0354 0.254073C12.3692 -0.322482 11.3281 0.145612 11.3281 1.02186V12.9811C11.3281 13.8545 12.3692 14.3226 13.0354 13.7489Z" fill="#293C4E"/>
<g id="Group_2">
<path id="Vector_2" d="M8.76679 2.22058C8.36592 2.22058 8.04004 2.54311 8.04004 2.93985C8.04004 3.33659 8.36592 3.65911 8.76679 3.65911C9.16766 3.65911 9.49354 3.33659 9.49354 2.93985C9.49354 2.54311 9.16766 2.22058 8.76679 2.22058Z" fill="#293C4E"/>
<path id="Vector_3" d="M8.76679 4.92639C8.36592 4.92639 8.04004 5.24892 8.04004 5.64566C8.04004 6.0424 8.36592 6.36492 8.76679 6.36492C9.16766 6.36492 9.49354 6.0424 9.49354 5.64566C9.49354 5.24892 9.16766 4.92639 8.76679 4.92639Z" fill="#293C4E"/>
<path id="Vector_4" d="M8.76679 9.07354C9.16816 9.07354 9.49354 8.75152 9.49354 8.35428C9.49354 7.95704 9.16816 7.63501 8.76679 7.63501C8.36542 7.63501 8.04004 7.95704 8.04004 8.35428C8.04004 8.75152 8.36542 9.07354 8.76679 9.07354Z" fill="#293C4E"/>
<path id="Vector_5" d="M8.76679 10.3438C8.36592 10.3438 8.04004 10.6663 8.04004 11.063C8.04004 11.4598 8.36592 11.7823 8.76679 11.7823C9.16766 11.7823 9.49354 11.4598 9.49354 11.063C9.49354 10.6663 9.16766 10.3438 8.76679 10.3438Z" fill="#293C4E"/>
</g>
<g id="Group_3">
<path id="Vector_6" d="M6.08808 2.22058C5.68721 2.22058 5.36133 2.54311 5.36133 2.93985C5.36133 3.33659 5.68721 3.65911 6.08808 3.65911C6.48895 3.65911 6.81483 3.33659 6.81483 2.93985C6.81483 2.54311 6.48895 2.22058 6.08808 2.22058Z" fill="#293C4E"/>
<path id="Vector_7" d="M6.08808 4.92639C5.68721 4.92639 5.36133 5.24892 5.36133 5.64566C5.36133 6.0424 5.68721 6.36492 6.08808 6.36492C6.48895 6.36492 6.81483 6.0424 6.81483 5.64566C6.81483 5.24892 6.48895 4.92639 6.08808 4.92639Z" fill="#293C4E"/>
<path id="Vector_8" d="M6.08808 7.63501C5.68721 7.63501 5.36133 7.95754 5.36133 8.35428C5.36133 8.75101 5.68721 9.07354 6.08808 9.07354C6.48895 9.07354 6.81483 8.75101 6.81483 8.35428C6.81483 7.95754 6.48895 7.63501 6.08808 7.63501Z" fill="#293C4E"/>
<path id="Vector_9" d="M6.08808 10.3438C5.68721 10.3438 5.36133 10.6663 5.36133 11.063C5.36133 11.4598 5.68721 11.7823 6.08808 11.7823C6.48895 11.7823 6.81483 11.4598 6.81483 11.063C6.81483 10.6663 6.48895 10.3438 6.08808 10.3438Z" fill="#293C4E"/>
</g>
<g id="Group_4">
<path id="Vector_10" d="M3.40839 4.92639C3.00752 4.92639 2.68164 5.24892 2.68164 5.64566C2.68164 6.0424 3.00752 6.36492 3.40839 6.36492C3.80926 6.36492 4.13514 6.0424 4.13514 5.64566C4.13514 5.24892 3.80926 4.92639 3.40839 4.92639Z" fill="#293C4E"/>
<path id="Vector_11" d="M3.40839 7.63501C3.00752 7.63501 2.68164 7.95754 2.68164 8.35428C2.68164 8.75101 3.00752 9.07354 3.40839 9.07354C3.80926 9.07354 4.13514 8.75101 4.13514 8.35428C4.13514 7.95754 3.80926 7.63501 3.40839 7.63501Z" fill="#293C4E"/>
</g>
<g id="Group_5">
<path id="Vector_12" d="M0.726751 4.92639C0.325884 4.92639 0 5.24892 0 5.64566C0 6.0424 0.325884 6.36492 0.726751 6.36492C1.12762 6.36492 1.4535 6.0424 1.4535 5.64566C1.4535 5.24892 1.12762 4.92639 0.726751 4.92639Z" fill="#293C4E"/>
<path id="Vector_13" d="M0.726751 9.07354C1.12812 9.07354 1.4535 8.75152 1.4535 8.35428C1.4535 7.95704 1.12812 7.63501 0.726751 7.63501C0.325377 7.63501 0 7.95704 0 8.35428C0 8.75152 0.325377 9.07354 0.726751 9.07354Z" fill="#293C4E"/>
</g>
</g>
</g>
</g>
<defs>
<clipPath id="clip0_12982_1439">
<rect width="20.3" height="14" fill="white"/>
</clipPath>
</defs>
</svg>
