<svg width="90" height="91" viewBox="0 0 90 91" fill="none" xmlns="http://www.w3.org/2000/svg">
<path d="M44.5977 90.2516C69.1743 90.2516 89.0977 70.1483 89.0977 45.3495C89.0977 20.5507 69.1743 0.447266 44.5977 0.447266C20.021 0.447266 0.0976562 20.5507 0.0976562 45.3495C0.0976562 70.1483 20.021 90.2516 44.5977 90.2516Z" fill="url(#paint0_linear_1_17)"/>
<path fill-rule="evenodd" clip-rule="evenodd" d="M51.2391 62.532C51.2391 68.5137 56.1099 73.3845 62.0916 73.3845C64.8403 73.3845 67.3469 72.3591 69.2696 70.6643L53.9593 55.354C52.2645 57.2625 51.2391 59.7833 51.2391 62.532Z" fill="white"/>
<path fill-rule="evenodd" clip-rule="evenodd" d="M30.8586 32.5809C24.0224 34.8596 17.9125 39.061 13.2411 44.8433C17.9268 50.6256 24.0509 54.8271 30.9156 57.1058C27.6399 53.9013 25.7599 49.5005 25.7599 44.8148C25.7599 40.1577 27.6256 35.7853 30.8586 32.5809Z" fill="white"/>
<path fill-rule="evenodd" clip-rule="evenodd" d="M59.3143 50.6399C60.2116 50.4262 61.1373 50.3123 62.1058 50.3123C63.6012 50.3123 65.0397 50.5829 66.3784 51.0814C68.7426 49.2584 70.8932 47.1506 72.7731 44.8291C68.0448 38.9898 61.8494 34.7599 54.9278 32.5097C58.175 35.9705 60.2401 41.1831 60.2401 44.8149C60.2401 48.0478 59.8983 49.3011 59.3143 50.6399Z" fill="white"/>
<path fill-rule="evenodd" clip-rule="evenodd" d="M57.5341 51.1953L57.6907 50.8535C58.4741 49.2014 58.8586 48.3611 58.8586 44.8149C58.8586 40.8128 55.9817 34.4466 51.8372 31.6409C48.9746 30.9715 46.0122 30.6155 42.9929 30.6155C39.9736 30.6155 37.0112 30.9715 34.1485 31.6409C29.7477 34.6033 27.1272 39.5168 27.1272 44.8149C27.1272 50.1414 29.7762 55.0834 34.2197 58.0315C37.0539 58.6867 40.002 59.0427 42.9929 59.0427C45.5565 59.0427 48.12 58.7864 50.6267 58.2737C51.8372 55.0407 54.3438 52.4771 57.5341 51.1953ZM51.4954 51.9074C51.4954 53.9298 49.8576 55.5676 47.8494 55.5676C46.6246 55.5676 45.528 54.9552 44.8728 54.0153C44.2604 54.1434 43.6338 54.2004 43.0071 54.2004C37.8372 54.2004 33.6358 49.999 33.6358 44.8291C33.6358 39.6592 37.8372 35.4578 43.0071 35.4578C48.177 35.4578 52.3784 39.6592 52.3784 44.8291C52.3784 46.6521 51.8657 48.3896 50.883 49.8993C51.2676 50.4832 51.4954 51.1668 51.4954 51.9074Z" fill="white"/>
<path fill-rule="evenodd" clip-rule="evenodd" d="M43.0071 36.825C38.5921 36.825 35.0031 40.414 35.0031 44.8291C35.0031 49.2442 38.5921 52.8332 43.0071 52.8332C43.4344 52.8332 43.8616 52.8047 44.2889 52.7335C44.2319 52.4771 44.2035 52.2065 44.2035 51.9217C44.2035 49.9135 45.8413 48.2757 47.8494 48.2757C48.6043 48.2757 49.3164 48.5036 49.9003 48.9023C50.6267 47.6775 51.0112 46.2818 51.0112 44.8291C51.0112 40.414 47.4222 36.825 43.0071 36.825Z" fill="white"/>
<path d="M47.8494 54.2004C49.108 54.2004 50.1282 53.1802 50.1282 51.9217C50.1282 50.6632 49.108 49.6429 47.8494 49.6429C46.5909 49.6429 45.5707 50.6632 45.5707 51.9217C45.5707 53.1802 46.5909 54.2004 47.8494 54.2004Z" fill="white"/>
<path fill-rule="evenodd" clip-rule="evenodd" d="M62.0916 51.6796C59.3428 51.6796 56.8362 52.705 54.9135 54.3998L70.2238 69.6958C71.9186 67.7874 72.944 65.2665 72.944 62.5178C72.944 56.5504 68.0732 51.6796 62.0916 51.6796Z" fill="white"/>
<defs>
<linearGradient id="paint0_linear_1_17" x1="12.5545" y1="13.0166" x2="77.2175" y2="77.1005" gradientUnits="userSpaceOnUse">
<stop stop-color="#00BFFF"/>
<stop offset="1" stop-color="#00BFFF"/>
</linearGradient>
</defs>
</svg>
