<svg width="40" height="42" viewBox="0 0 40 42" fill="none" xmlns="http://www.w3.org/2000/svg">
<path d="M20.035 38.6509C10.8193 38.6509 3.34912 31.1807 3.34912 22.0349C3.34912 12.8891 10.8193 5.34906 20.035 5.34906C29.2506 5.34906 36.7208 12.8193 36.7208 22.0349C36.7208 31.2505 29.2506 38.7207 20.035 38.7207V38.6509ZM20.035 6.53592C11.4477 6.53592 4.53598 13.5174 4.53598 22.0349C4.53598 30.5523 11.4477 37.5339 20.035 37.5339C28.6222 37.5339 35.5339 30.6222 35.5339 22.0349C35.5339 13.4476 28.5524 6.53592 20.035 6.53592Z" fill="#061014" fill-opacity="0.9"/>
<path d="M3.09912 22.0349C3.09912 31.2366 10.5472 38.7654 19.785 38.8991V38.9707H20.035C29.3886 38.9707 36.9708 31.3886 36.9708 22.0349C36.9708 12.6812 29.3886 5.09906 20.035 5.09906C10.6806 5.09906 3.09912 12.7517 3.09912 22.0349ZM4.78598 22.0349C4.78598 13.6548 11.5865 6.78592 20.035 6.78592C28.4151 6.78592 35.2839 13.5864 35.2839 22.0349C35.2839 30.4841 28.4842 37.2839 20.035 37.2839C11.5865 37.2839 4.78598 30.415 4.78598 22.0349Z" stroke="#061014" stroke-opacity="0.9" stroke-width="0.5" stroke-miterlimit="10"/>
<path d="M23.1756 15.9624L23.1658 15.9559L23.1555 15.9503C22.2133 15.443 21.1256 15.1525 20.0349 15.1525C16.2664 15.1525 13.1525 18.2664 13.1525 22.0349C13.1525 25.7197 16.1297 28.7788 19.7849 28.9128V28.9872H20.0349C23.8034 28.9872 26.9174 25.8732 26.9174 22.1047C26.9174 21.1697 26.7732 20.2984 26.4094 19.4254L26.4001 19.403L26.3867 19.3829C26.2176 19.1292 25.9396 18.9225 25.6201 18.9225C25.4655 18.9225 25.3003 18.9722 25.1625 19.0525C25.0314 19.129 24.8954 19.2513 24.8314 19.4228C24.5921 19.8897 24.1235 20.1792 23.5955 20.1792C22.826 20.1792 22.2397 19.5929 22.2397 18.8234C22.2397 18.2374 22.5876 17.7608 23.1385 17.5159L23.1579 17.5073L23.1756 17.4955C23.4293 17.3264 23.636 17.0484 23.636 16.729C23.636 16.4095 23.4293 16.1315 23.1756 15.9624ZM20.0349 16.9091C20.4241 16.9091 20.7762 16.9443 21.1182 17.0146C20.7538 17.5137 20.5529 18.134 20.5529 18.7536C20.5529 20.4276 21.9215 21.7962 23.5955 21.7962C24.1533 21.7962 24.7144 21.6444 25.1945 21.3372C25.2291 21.5582 25.2305 21.7984 25.2305 22.0349C25.2305 24.8989 22.8989 27.2305 20.0349 27.2305C17.1709 27.2305 14.8393 24.8989 14.8393 22.0349C14.8393 19.2547 17.0365 16.9762 19.7849 16.8453V16.9091H20.0349Z" fill="#01D0FF" stroke="#01D0FF" stroke-width="0.5" stroke-miterlimit="10"/>
<path d="M20.035 13.7269L19.9334 13.9554L19.9819 13.9769H20.035C20.1987 13.9769 20.3348 13.9036 20.4345 13.8256C20.5352 13.7468 20.6186 13.6479 20.6827 13.5591C20.7478 13.469 20.7994 13.3803 20.8345 13.315C20.8521 13.2821 20.866 13.2544 20.8756 13.2345L20.8869 13.2107L20.8902 13.2036L20.8912 13.2014L20.8915 13.2006L20.8916 13.2003L20.8917 13.2002C20.8917 13.2002 20.8917 13.2001 20.6633 13.0986L20.8917 13.2001L20.9133 13.1516V13.0986V10.9343C20.9133 10.4472 20.5221 10.056 20.035 10.056C19.8713 10.056 19.7351 10.1292 19.6354 10.2073C19.5347 10.2861 19.4513 10.385 19.3872 10.4738C19.3221 10.5639 19.2705 10.6526 19.2355 10.7178C19.2178 10.7508 19.2039 10.7785 19.1943 10.7984L19.183 10.8222L19.1797 10.8293L19.1787 10.8315L19.1784 10.8322L19.1783 10.8325L19.1782 10.8327C19.1782 10.8327 19.1782 10.8328 19.4066 10.9343L19.1782 10.8328L19.1566 10.8813V10.9343V13.0986C19.1566 13.2623 19.2299 13.3984 19.3079 13.4981C19.3867 13.5988 19.4856 13.6822 19.5744 13.7463C19.6646 13.8114 19.7532 13.863 19.8185 13.8981C19.8514 13.9158 19.8791 13.9296 19.899 13.9392L19.9229 13.9506L19.9299 13.9538L19.9321 13.9548L19.9329 13.9551L19.9332 13.9553L19.9333 13.9553C19.9334 13.9553 19.9334 13.9554 20.035 13.7269Z" fill="#01D0FF" stroke="#01D0FF" stroke-width="0.5" stroke-miterlimit="10"/>
<path d="M23.7258 13.8846L23.726 13.8847L24.7733 11.9997L24.8046 11.9433L24.8593 11.9091L24.9918 12.1211C24.8593 11.9091 24.8593 11.9091 24.8594 11.9091L24.8595 11.909L24.8597 11.9089L24.8604 11.9085L24.8623 11.9073L24.8685 11.9035L24.8899 11.8907C24.908 11.8801 24.9335 11.8655 24.9649 11.8487C25.0271 11.8151 25.1145 11.7714 25.2131 11.7319C25.3103 11.6931 25.4268 11.655 25.5455 11.638C25.6605 11.6216 25.8066 11.6207 25.9414 11.6881C26.1667 11.8007 26.2892 12.016 26.3354 12.224C26.3816 12.4319 26.3604 12.6657 26.2626 12.8613L26.2578 12.871L26.2576 12.8709L25.2103 14.7559L25.1933 14.7865L25.1686 14.8113L24.9918 14.6345M23.7258 13.8846L26.039 12.7495L24.9918 14.6345M23.7258 13.8846L23.721 13.8943C23.6232 14.0899 23.602 14.3237 23.6482 14.5316C23.6924 14.7305 23.8064 14.9361 24.0133 15.0522M23.7258 13.8846L24.0133 15.0522M24.9918 14.6345L25.1685 14.8113L25.1684 14.8114L25.1683 14.8116L25.1678 14.812L25.1667 14.8131L25.1632 14.8166L25.1515 14.8278C25.1417 14.8371 25.128 14.8499 25.111 14.865C25.0773 14.8949 25.0294 14.9353 24.973 14.9763C24.9174 15.0167 24.8489 15.0612 24.7743 15.0963C24.7022 15.1302 24.6072 15.1637 24.5031 15.1637H24.4333V14.9137M24.9918 14.6345C24.9918 14.6345 24.7125 14.9137 24.5031 14.9137H24.4333M24.4333 14.9137L24.4332 15.1637H24.4331L24.4329 15.1637L24.4325 15.1637L24.4313 15.1637L24.4282 15.1637L24.4183 15.1635C24.4103 15.1634 24.3994 15.163 24.3863 15.1623C24.3605 15.1609 24.3244 15.1582 24.2845 15.1525C24.2455 15.1469 24.1968 15.1377 24.148 15.1215C24.1126 15.1096 24.0616 15.0892 24.0133 15.0522M24.4333 14.9137C24.4333 14.9137 24.2238 14.9137 24.154 14.8439C23.8748 14.7043 23.8049 14.2854 23.9446 14.0061L24.0133 15.0522" fill="#01D0FF" stroke="#01D0FF" stroke-width="0.5" stroke-miterlimit="10"/>
<path d="M27.7146 18.1951L27.6355 18.4323L27.674 18.4451H27.7146H27.7844C27.8318 18.4451 27.8814 18.435 27.9117 18.4282C27.948 18.4202 27.986 18.41 28.0189 18.4006C28.0523 18.391 28.0829 18.3816 28.1051 18.3746L28.1319 18.366L28.1396 18.3635L28.1417 18.3628L28.1424 18.3626L28.1426 18.3625L28.1427 18.3625L28.1427 18.3625L28.0637 18.1253L28.1427 18.3624L28.1648 18.3551L28.1851 18.3438L30.0701 17.2966L30.1007 17.2796L30.1255 17.2548C30.2574 17.1229 30.3678 16.9474 30.4241 16.7559C30.4808 16.5634 30.4867 16.3383 30.3817 16.1285L30.3636 16.0922L30.3349 16.0635C30.2425 15.9711 30.1213 15.9165 30.0179 15.882C29.9102 15.8461 29.7961 15.8238 29.696 15.8095C29.595 15.7951 29.5022 15.788 29.4349 15.7844C29.4011 15.7827 29.3733 15.7818 29.3536 15.7813L29.3302 15.7809L29.3235 15.7808L29.3215 15.7808L29.3208 15.7808L29.3205 15.7808L29.3204 15.7808L29.3203 16.0308V15.7808L29.2556 15.7808L29.1989 15.8123L27.3139 16.8595L27.2833 16.8765L27.2586 16.9013C27.1266 17.0332 27.0162 17.2087 26.9599 17.4002C26.9032 17.5927 26.8973 17.8178 27.0023 18.0276C27.0506 18.1243 27.1376 18.1894 27.193 18.2264C27.2573 18.2692 27.3291 18.306 27.3917 18.3348C27.4553 18.3642 27.5156 18.3883 27.5596 18.4049C27.5817 18.4133 27.6001 18.4199 27.6132 18.4246L27.6289 18.43L27.6334 18.4315L27.6348 18.432L27.6352 18.4322L27.6354 18.4322L27.6355 18.4322L27.7146 18.1951Z" fill="#01D0FF" stroke="#01D0FF" stroke-width="0.5" stroke-miterlimit="10"/>
<path d="M28.9014 22.5934L28.7999 22.8219L28.8484 22.8434H28.9014H31.0657C31.5528 22.8434 31.944 22.4522 31.944 21.9651C31.944 21.8014 31.8707 21.6653 31.7927 21.5655C31.7139 21.4648 31.615 21.3814 31.5262 21.3173C31.4361 21.2522 31.3474 21.2006 31.2821 21.1656C31.2492 21.1479 31.2215 21.134 31.2016 21.1244L31.1778 21.1131L31.1707 21.1099L31.1685 21.1089L31.1677 21.1085L31.1675 21.1084L31.1673 21.1083C31.1673 21.1083 31.1672 21.1083 31.0657 21.3367L31.1672 21.1083L31.1187 21.0867H31.0657H28.9014C28.4143 21.0867 28.0231 21.4779 28.0231 21.9651C28.0231 22.1288 28.0963 22.2649 28.1744 22.3646C28.2532 22.4653 28.3521 22.5487 28.4409 22.6128C28.531 22.6779 28.6197 22.7295 28.685 22.7646C28.7179 22.7822 28.7456 22.7961 28.7655 22.8057L28.7893 22.8171L28.7964 22.8203L28.7986 22.8213L28.7993 22.8216L28.7996 22.8218L28.7998 22.8218C28.7998 22.8218 28.7999 22.8219 28.9014 22.5934Z" fill="#01D0FF" stroke="#01D0FF" stroke-width="0.5" stroke-miterlimit="10"/>
<path d="M29.5996 28.1088C29.5996 28.1088 29.3901 28.1088 29.3203 28.039L27.4353 26.9918C27.4353 26.9918 27.0862 26.4333 27.2258 26.154C27.3655 25.8748 27.7844 25.8049 28.0636 25.9446L29.9486 26.9918C29.9486 26.9918 30.2977 27.5503 30.1581 27.8296C30.0184 28.039 29.8788 28.1088 29.6694 28.1088H29.5996Z" fill="#061014" fill-opacity="0.9"/>
<path d="M27.2233 27.1243L27.4353 26.9918C27.2233 27.1243 27.2233 27.1243 27.2232 27.1242L27.2232 27.1241L27.223 27.1239L27.2226 27.1232L27.2214 27.1213L27.2176 27.1151L27.2049 27.0937C27.1943 27.0756 27.1797 27.05 27.1628 27.0187C27.1293 26.9565 27.0855 26.8691 27.0461 26.7705C27.0072 26.6733 26.9691 26.5568 26.9522 26.4381C26.9357 26.3231 26.9349 26.177 27.0022 26.0422C27.1149 25.8169 27.3302 25.6944 27.5381 25.6482C27.7461 25.602 27.9799 25.6232 28.1754 25.721L28.1851 25.7258L28.185 25.726L30.07 26.7733L30.1264 26.8046L30.1606 26.8593L29.9486 26.9918C30.1606 26.8593 30.1607 26.8593 30.1607 26.8594L30.1608 26.8595L30.1609 26.8597L30.1613 26.8604L30.1625 26.8623L30.1663 26.8685L30.179 26.8899C30.1896 26.908 30.2042 26.9335 30.2211 26.9649C30.2546 27.0271 30.2984 27.1145 30.3378 27.2131C30.3767 27.3103 30.4148 27.4268 30.4317 27.5455C30.4482 27.6605 30.4491 27.8066 30.3817 27.9414L30.3747 27.9553L30.3661 27.9683C30.2825 28.0936 30.1858 28.1971 30.0613 28.2663C29.9352 28.3364 29.8027 28.3588 29.6694 28.3588H29.5996V28.1088M27.2233 27.1243L30.1581 27.8296C30.0184 28.039 29.8788 28.1088 29.6694 28.1088H29.5996M27.2233 27.1243L27.2575 27.179L27.3139 27.2103L29.1774 28.2456M27.2233 27.1243L29.1774 28.2456M29.5996 28.1088L29.5995 28.3588H29.5994L29.5992 28.3588L29.5987 28.3588L29.5976 28.3588L29.5944 28.3588L29.5846 28.3586C29.5766 28.3585 29.5657 28.3581 29.5526 28.3574C29.5268 28.356 29.4907 28.3533 29.4508 28.3476C29.4118 28.342 29.3631 28.3328 29.3143 28.3166C29.2783 28.3046 29.2264 28.2837 29.1774 28.2456M29.5996 28.1088C29.5996 28.1088 29.3901 28.1088 29.3203 28.039L29.1989 28.2576L29.1774 28.2456" stroke="#061014" stroke-opacity="0.9" stroke-width="0.5" stroke-miterlimit="10"/>
<path d="M25.5503 32.1581C25.5503 32.1581 25.1314 32.0185 25.0616 31.8788L24.0144 29.9938C24.0144 29.9938 24.0144 29.3655 24.2238 29.156C24.4333 28.9466 24.8522 29.156 25.0616 29.3655L26.1089 31.2505C26.1089 31.2505 26.1089 31.8788 25.8994 32.0883C25.8296 32.0883 25.69 32.1581 25.6202 32.1581H25.5503Z" fill="#061014" fill-opacity="0.9"/>
<path d="M25.5503 32.1581L25.4713 32.3953L25.5098 32.4081H25.5503H25.6202C25.6723 32.4081 25.7206 32.3962 25.7492 32.3884C25.78 32.38 25.8119 32.3693 25.8361 32.3613L25.8388 32.3603C25.8666 32.3511 25.8859 32.3447 25.9019 32.3404C25.9054 32.3394 25.9081 32.3387 25.9101 32.3383H26.003L26.0762 32.265C26.1686 32.1726 26.2232 32.0514 26.2577 31.9481C26.2936 31.8404 26.3159 31.7262 26.3302 31.6262C26.3446 31.5252 26.3517 31.4323 26.3552 31.3651C26.357 31.3313 26.3579 31.3034 26.3584 31.2837L26.3588 31.2603L26.3588 31.2536L26.3589 31.2516L26.3589 31.2509L26.3589 31.2507V31.2506L26.1089 31.2505H26.3589V31.1857L26.3274 31.1291L25.2802 29.2441L25.2632 29.2135L25.2384 29.1887C25.1095 29.0598 24.9199 28.9325 24.7218 28.8665C24.5332 28.8036 24.2533 28.773 24.0471 28.9793C23.9547 29.0717 23.9 29.1929 23.8656 29.2962C23.8297 29.4039 23.8074 29.5181 23.7931 29.6181C23.7787 29.7191 23.7716 29.812 23.768 29.8792C23.7662 29.913 23.7653 29.9409 23.7649 29.9606L23.7645 29.984L23.7644 29.9907L23.7644 29.9927L23.7644 29.9934L23.7644 29.9936L23.7644 29.9937L24.0144 29.9938L23.7644 29.9938L23.7644 30.0586L23.7959 30.1152L24.8412 31.9968C24.8901 32.0901 24.9745 32.1532 25.0288 32.1894C25.093 32.2322 25.1649 32.269 25.2274 32.2978C25.2911 32.3272 25.3514 32.3513 25.3953 32.3679C25.4175 32.3763 25.4359 32.3829 25.449 32.3876L25.4646 32.393L25.4691 32.3945L25.4705 32.395L25.471 32.3952L25.4711 32.3952L25.4712 32.3952L25.5503 32.1581Z" stroke="#061014" stroke-opacity="0.9" stroke-width="0.5" stroke-miterlimit="10"/>
<path d="M20.035 33.6243C20.035 33.6243 19.4066 33.345 19.4066 32.9959V30.8316C19.4066 30.8316 19.6859 30.2033 20.035 30.2033C20.384 30.2033 20.6633 30.4826 20.6633 30.8316V32.9959C20.6633 32.9959 20.384 33.6243 20.035 33.6243Z" fill="#061014" fill-opacity="0.9"/>
<path d="M20.035 33.6243L19.9334 33.8527L19.9819 33.8743H20.035C20.1987 33.8743 20.3348 33.801 20.4345 33.723C20.5352 33.6441 20.6186 33.5452 20.6827 33.4565C20.7478 33.3663 20.7994 33.2777 20.8345 33.2124C20.8521 33.1794 20.866 33.1518 20.8756 33.1319L20.8869 33.108L20.8902 33.101L20.8912 33.0987L20.8915 33.098L20.8916 33.0977L20.8917 33.0976C20.8917 33.0975 20.8917 33.0975 20.6633 32.9959L20.8917 33.0975L20.9133 33.049V32.9959V30.8316C20.9133 30.3445 20.5221 29.9533 20.035 29.9533C19.8713 29.9533 19.7351 30.0266 19.6354 30.1046C19.5347 30.1834 19.4513 30.2823 19.3872 30.3711C19.3221 30.4613 19.2705 30.5499 19.2355 30.6152C19.2178 30.6481 19.2039 30.6758 19.1943 30.6957L19.183 30.7196L19.1797 30.7266L19.1787 30.7288L19.1784 30.7296L19.1783 30.7299L19.1782 30.73C19.1782 30.7301 19.1782 30.7301 19.4066 30.8316L19.1782 30.7301L19.1566 30.7786V30.8316V32.9959C19.1566 33.1596 19.2299 33.2957 19.3079 33.3954C19.3867 33.4961 19.4856 33.5795 19.5744 33.6437C19.6646 33.7088 19.7532 33.7604 19.8185 33.7954C19.8514 33.8131 19.8791 33.827 19.899 33.8366L19.9229 33.8479L19.9299 33.8511L19.9321 33.8521L19.9329 33.8525L19.9332 33.8526L19.9333 33.8527C19.9334 33.8527 19.9334 33.8527 20.035 33.6243Z" stroke="#061014" stroke-opacity="0.9" stroke-width="0.5" stroke-miterlimit="10"/>
<path d="M14.5195 32.1581C14.5195 32.1581 14.31 32.1581 14.2402 32.0883C13.9609 31.9487 13.8911 31.5298 14.0308 31.2505L15.078 29.3655C15.078 29.3655 15.6365 29.0164 15.9158 29.1561C16.195 29.2957 16.2648 29.7146 16.1252 29.9939L15.078 31.8789C15.078 31.8789 14.7987 32.1581 14.5893 32.1581H14.5195Z" fill="#061014" fill-opacity="0.9"/>
<path d="M13.812 31.129L13.8122 31.1291L14.8594 29.2441L14.8908 29.1877L14.9455 29.1535L15.078 29.3655C14.9455 29.1535 14.9455 29.1535 14.9456 29.1535L14.9457 29.1534L14.9459 29.1532L14.9466 29.1528L14.9485 29.1517L14.9547 29.1479L14.9761 29.1351C14.9942 29.1245 15.0197 29.1099 15.0511 29.093C15.1133 29.0595 15.2007 29.0158 15.2993 28.9763C15.3965 28.9374 15.5129 28.8994 15.6317 28.8824C15.7467 28.866 15.8928 28.8651 16.0276 28.9325C16.2528 29.0451 16.3754 29.2604 16.4216 29.4684C16.4678 29.6763 16.4466 29.9101 16.3488 30.1057L16.344 30.1154L16.3437 30.1153L15.2965 32.0003L15.2795 32.0309L15.2548 32.0556L15.078 31.8789M13.812 31.129L16.1252 29.9939L15.078 31.8789M13.812 31.129L13.8071 31.1387C13.7094 31.3343 13.6881 31.5681 13.7343 31.776C13.7785 31.9749 13.8926 32.1805 14.0995 32.2966M13.812 31.129L14.0995 32.2966M15.078 31.8789L15.2547 32.0557L15.2546 32.0558L15.2544 32.056L15.254 32.0564L15.2529 32.0575L15.2494 32.0609L15.2377 32.0722C15.2279 32.0815 15.2142 32.0942 15.1972 32.1094C15.1635 32.1393 15.1155 32.1797 15.0592 32.2207C15.0036 32.2611 14.9351 32.3056 14.8604 32.3407C14.7884 32.3746 14.6934 32.4081 14.5893 32.4081H14.5195V32.1581M15.078 31.8789C15.078 31.8789 14.7987 32.1581 14.5893 32.1581H14.5195M14.5195 32.1581L14.5194 32.4081H14.5193L14.5191 32.4081L14.5186 32.4081L14.5175 32.4081L14.5143 32.4081L14.5045 32.4079C14.4965 32.4077 14.4856 32.4074 14.4725 32.4067C14.4467 32.4053 14.4106 32.4026 14.3707 32.3969C14.3317 32.3913 14.283 32.3821 14.2342 32.3658C14.1988 32.354 14.1478 32.3336 14.0995 32.2966M14.5195 32.1581C14.5195 32.1581 14.31 32.1581 14.2402 32.0883C13.9609 31.9487 13.8911 31.5298 14.0308 31.2505L14.0995 32.2966" stroke="#061014" stroke-opacity="0.9" stroke-width="0.5" stroke-miterlimit="10"/>
<path d="M10.4702 28.1089C10.4702 28.1089 10.0513 27.9692 9.9815 27.8296C9.84187 27.5503 9.9815 27.2013 10.1909 26.9918L12.076 25.9446C12.076 25.9446 12.7043 25.9446 12.9137 26.154C13.0534 26.4333 12.9137 26.7824 12.7043 26.9918L10.8193 28.039C10.8193 28.039 10.6098 28.1089 10.54 28.1089H10.4702Z" fill="#061014" fill-opacity="0.9"/>
<path d="M10.4702 28.1089L10.3911 28.346L10.4296 28.3589H10.4702H10.54C10.5874 28.3589 10.6371 28.3487 10.6673 28.342C10.7036 28.3339 10.7416 28.3237 10.7745 28.3143C10.8079 28.3048 10.8386 28.2953 10.8607 28.2883L10.8875 28.2798L10.8952 28.2773L10.8974 28.2765L10.898 28.2763L10.8982 28.2763L10.8983 28.2762L10.8983 28.2762L10.8193 28.039L10.8983 28.2762L10.9204 28.2689L10.9407 28.2576L12.8257 27.2103L12.8563 27.1933L12.8811 27.1686C13.013 27.0366 13.1234 26.8612 13.1798 26.6696C13.2364 26.4771 13.2423 26.2521 13.1373 26.0422L13.1192 26.0059L13.0905 25.9772C12.9981 25.8848 12.8769 25.8302 12.7735 25.7958C12.6659 25.7599 12.5517 25.7376 12.4517 25.7233C12.3506 25.7088 12.2578 25.7017 12.1905 25.6982C12.1567 25.6964 12.1289 25.6955 12.1092 25.6951L12.0858 25.6946L12.0791 25.6946L12.0771 25.6946L12.0764 25.6946L12.0761 25.6946L12.076 25.6946L12.076 25.9446V25.6946L12.0112 25.6946L11.9545 25.726L10.0695 26.7733L10.0389 26.7903L10.0142 26.815C9.88222 26.947 9.77182 27.1224 9.71548 27.314C9.65885 27.5065 9.65296 27.7315 9.75789 27.9414C9.80623 28.0381 9.89321 28.1032 9.94864 28.1401C10.0129 28.183 10.0848 28.2197 10.1473 28.2486C10.2109 28.2779 10.2712 28.302 10.3152 28.3187C10.3373 28.3271 10.3557 28.3337 10.3689 28.3383L10.3845 28.3438L10.389 28.3453L10.3904 28.3458L10.3908 28.3459L10.391 28.346L10.3911 28.346L10.4702 28.1089Z" stroke="#061014" stroke-opacity="0.9" stroke-width="0.5" stroke-miterlimit="10"/>
<path d="M11.0985 22.5934H8.93425C8.93425 22.5934 8.30591 22.3141 8.30591 21.9651C8.30591 21.616 8.58517 21.3367 8.93425 21.3367H11.0985C11.0985 21.3367 11.7269 21.616 11.7269 21.9651C11.7269 22.3141 11.4476 22.5934 11.0985 22.5934Z" fill="#061014" fill-opacity="0.9"/>
<path d="M8.93425 22.5934L8.83271 22.8219L8.88119 22.8434H8.93425H11.0985C11.5857 22.8434 11.9769 22.4522 11.9769 21.9651C11.9769 21.8014 11.9036 21.6653 11.8256 21.5655C11.7467 21.4648 11.6478 21.3814 11.5591 21.3173C11.4689 21.2522 11.3803 21.2006 11.315 21.1656C11.282 21.1479 11.2543 21.134 11.2345 21.1244L11.2106 21.1131L11.2036 21.1099L11.2013 21.1089L11.2006 21.1085L11.2003 21.1084L11.2002 21.1083C11.2001 21.1083 11.2001 21.1083 11.0985 21.3367L11.2001 21.1083L11.1516 21.0867H11.0985H8.93425C8.4471 21.0867 8.05591 21.4779 8.05591 21.9651C8.05591 22.1288 8.12918 22.2649 8.20721 22.3646C8.28602 22.4653 8.38493 22.5487 8.4737 22.6128C8.56386 22.6779 8.65251 22.7295 8.71779 22.7646C8.75072 22.7822 8.77841 22.7961 8.79831 22.8057L8.82216 22.8171L8.82921 22.8203L8.83142 22.8213L8.83218 22.8216L8.83247 22.8218L8.8326 22.8218C8.83266 22.8218 8.83271 22.8219 8.93425 22.5934Z" stroke="#061014" stroke-opacity="0.9" stroke-width="0.5" stroke-miterlimit="10"/>
<path d="M12.2855 18.1951C12.2855 18.1951 12.076 18.1951 12.0062 18.1253L10.1212 17.078C10.1212 17.078 9.77212 16.5195 9.91175 16.2403C10.0514 15.961 10.4703 15.8912 10.7495 16.0308L12.6345 17.078C12.6345 17.078 12.9836 17.6366 12.844 17.9158C12.7044 18.1253 12.5647 18.1951 12.3553 18.1951H12.2855Z" fill="#061014" fill-opacity="0.9"/>
<path d="M9.9092 17.2105L10.1212 17.078C9.9092 17.2105 9.90917 17.2105 9.90914 17.2105L9.90908 17.2103L9.90892 17.2101L9.90852 17.2095L9.90734 17.2076L9.90356 17.2014L9.8908 17.1799C9.8802 17.1619 9.8656 17.1363 9.84872 17.1049C9.81521 17.0427 9.77143 16.9553 9.73199 16.8567C9.69311 16.7595 9.65505 16.6431 9.63808 16.5243C9.62166 16.4093 9.62077 16.2632 9.68815 16.1285C9.80078 15.9032 10.0161 15.7806 10.224 15.7344C10.432 15.6882 10.6658 15.7094 10.8613 15.8072L10.8711 15.8121L10.8709 15.8123L12.756 16.8595L12.8124 16.8908L12.8465 16.9455L12.6345 17.078C12.8465 16.9455 12.8466 16.9456 12.8466 16.9456L12.8467 16.9457L12.8468 16.946L12.8472 16.9466L12.8484 16.9485L12.8522 16.9547L12.8649 16.9762C12.8755 16.9942 12.8901 17.0198 12.907 17.0511C12.9405 17.1134 12.9843 17.2008 13.0237 17.2994C13.0626 17.3966 13.1007 17.513 13.1177 17.6318C13.1341 17.7467 13.135 17.8929 13.0676 18.0276L13.0606 18.0415L13.052 18.0545C12.9684 18.1799 12.8717 18.2834 12.7472 18.3525C12.6211 18.4226 12.4887 18.4451 12.3553 18.4451H12.2855V18.1951M9.9092 17.2105L12.844 17.9158C12.7044 18.1253 12.5647 18.1951 12.3553 18.1951H12.2855M9.9092 17.2105L9.94339 17.2652L9.99979 17.2966L11.8633 18.3319M9.9092 17.2105L11.8633 18.3319M12.2855 18.1951L12.2854 18.4451H12.2853L12.2851 18.4451L12.2847 18.4451L12.2835 18.4451L12.2804 18.4451L12.2705 18.4449C12.2625 18.4447 12.2516 18.4443 12.2385 18.4436C12.2127 18.4423 12.1766 18.4395 12.1367 18.4338C12.0977 18.4283 12.049 18.4191 12.0002 18.4028C11.9643 18.3908 11.9123 18.3699 11.8633 18.3319M12.2855 18.1951C12.2855 18.1951 12.076 18.1951 12.0062 18.1253L11.8848 18.3438L11.8633 18.3319" stroke="#061014" stroke-opacity="0.9" stroke-width="0.5" stroke-miterlimit="10"/>
<path d="M15.5667 14.9137C15.5667 14.9137 15.1478 14.7741 15.078 14.6345L14.0308 12.7495C14.0308 12.7495 14.0308 12.1211 14.2402 11.9117C14.5195 11.772 14.8685 11.9117 15.078 12.1211L16.1252 14.0061C16.1252 14.0061 16.1252 14.6345 15.9158 14.8439C15.846 14.8439 15.7063 14.9137 15.6365 14.9137H15.5667Z" fill="#061014" fill-opacity="0.9"/>
<path d="M15.5667 14.9137L15.4876 15.1509L15.5261 15.1637H15.5667H15.6365C15.6887 15.1637 15.7369 15.1518 15.7656 15.144C15.7964 15.1356 15.8282 15.125 15.8525 15.1169L15.8552 15.116C15.883 15.1067 15.9023 15.1004 15.9183 15.096C15.9218 15.0951 15.9245 15.0944 15.9265 15.0939H16.0193L16.0925 15.0207C16.185 14.9283 16.2396 14.8071 16.274 14.7037C16.3099 14.596 16.3322 14.4818 16.3465 14.3818C16.361 14.2808 16.3681 14.188 16.3716 14.1207C16.3734 14.0869 16.3743 14.0591 16.3747 14.0394L16.3752 14.016L16.3752 14.0093L16.3752 14.0072L16.3752 14.0066L16.3752 14.0063V14.0062L16.1252 14.0061H16.3752V13.9413L16.3438 13.8847L15.2965 11.9997L15.2795 11.9691L15.2548 11.9443C15.1228 11.8124 14.9474 11.702 14.7558 11.6457C14.5633 11.589 14.3383 11.5831 14.1284 11.6881L14.0921 11.7062L14.0634 11.7349C13.971 11.8273 13.9164 11.9485 13.882 12.0519C13.8461 12.1596 13.8237 12.2737 13.8095 12.3738C13.795 12.4748 13.7879 12.5676 13.7844 12.6349C13.7826 12.6687 13.7817 12.6965 13.7812 12.7162L13.7808 12.7396L13.7808 12.7463L13.7808 12.7483L13.7808 12.749L13.7808 12.7493L13.7808 12.7494L14.0308 12.7495L13.7808 12.7495L13.7808 12.8142L13.8122 12.8709L14.8576 14.7525C14.9065 14.8457 14.9909 14.9089 15.0451 14.945C15.1094 14.9879 15.1812 15.0246 15.2438 15.0534C15.3074 15.0828 15.3677 15.1069 15.4117 15.1236C15.4338 15.1319 15.4522 15.1386 15.4654 15.1432L15.481 15.1486L15.4855 15.1502L15.4869 15.1506L15.4873 15.1508L15.4875 15.1509L15.4876 15.1509L15.5667 14.9137Z" stroke="#061014" stroke-opacity="0.9" stroke-width="0.5" stroke-miterlimit="10"/>
</svg>
