<svg width="21" height="14" viewBox="0 0 21 14" fill="none" xmlns="http://www.w3.org/2000/svg">
<g id="IllustartorAsset 11 1" clip-path="url(#clip0_15160_20064)">
<g id="OBJECT">
<g id="Group">
<path id="Vector" d="M13.5354 13.7489L20.4482 7.76926C20.9183 7.36396 20.9183 6.64184 20.4482 6.23654L13.5354 0.254073C12.8692 -0.322482 11.8281 0.145612 11.8281 1.02186V12.9811C11.8281 13.8545 12.8692 14.3226 13.5354 13.7489Z" fill="#0099FF"/>
<g id="Group_2">
<path id="Vector_2" d="M9.26679 2.22058C8.86592 2.22058 8.54004 2.54311 8.54004 2.93985C8.54004 3.33659 8.86592 3.65911 9.26679 3.65911C9.66766 3.65911 9.99354 3.33659 9.99354 2.93985C9.99354 2.54311 9.66766 2.22058 9.26679 2.22058Z" fill="#0099FF"/>
<path id="Vector_3" d="M9.26679 4.92639C8.86592 4.92639 8.54004 5.24892 8.54004 5.64566C8.54004 6.0424 8.86592 6.36492 9.26679 6.36492C9.66766 6.36492 9.99354 6.0424 9.99354 5.64566C9.99354 5.24892 9.66766 4.92639 9.26679 4.92639Z" fill="#0099FF"/>
<path id="Vector_4" d="M9.26679 9.07354C9.66816 9.07354 9.99354 8.75152 9.99354 8.35428C9.99354 7.95704 9.66816 7.63501 9.26679 7.63501C8.86542 7.63501 8.54004 7.95704 8.54004 8.35428C8.54004 8.75152 8.86542 9.07354 9.26679 9.07354Z" fill="#0099FF"/>
<path id="Vector_5" d="M9.26679 10.3438C8.86592 10.3438 8.54004 10.6663 8.54004 11.063C8.54004 11.4598 8.86592 11.7823 9.26679 11.7823C9.66766 11.7823 9.99354 11.4598 9.99354 11.063C9.99354 10.6663 9.66766 10.3438 9.26679 10.3438Z" fill="#0099FF"/>
</g>
<g id="Group_3">
<path id="Vector_6" d="M6.58808 2.22058C6.18721 2.22058 5.86133 2.54311 5.86133 2.93985C5.86133 3.33659 6.18721 3.65911 6.58808 3.65911C6.98895 3.65911 7.31483 3.33659 7.31483 2.93985C7.31483 2.54311 6.98895 2.22058 6.58808 2.22058Z" fill="#0099FF"/>
<path id="Vector_7" d="M6.58808 4.92639C6.18721 4.92639 5.86133 5.24892 5.86133 5.64566C5.86133 6.0424 6.18721 6.36492 6.58808 6.36492C6.98895 6.36492 7.31483 6.0424 7.31483 5.64566C7.31483 5.24892 6.98895 4.92639 6.58808 4.92639Z" fill="#0099FF"/>
<path id="Vector_8" d="M6.58808 7.63501C6.18721 7.63501 5.86133 7.95754 5.86133 8.35428C5.86133 8.75101 6.18721 9.07354 6.58808 9.07354C6.98895 9.07354 7.31483 8.75101 7.31483 8.35428C7.31483 7.95754 6.98895 7.63501 6.58808 7.63501Z" fill="#0099FF"/>
<path id="Vector_9" d="M6.58808 10.3438C6.18721 10.3438 5.86133 10.6663 5.86133 11.063C5.86133 11.4598 6.18721 11.7823 6.58808 11.7823C6.98895 11.7823 7.31483 11.4598 7.31483 11.063C7.31483 10.6663 6.98895 10.3438 6.58808 10.3438Z" fill="#0099FF"/>
</g>
<g id="Group_4">
<path id="Vector_10" d="M3.90839 4.92639C3.50752 4.92639 3.18164 5.24892 3.18164 5.64566C3.18164 6.0424 3.50752 6.36492 3.90839 6.36492C4.30926 6.36492 4.63514 6.0424 4.63514 5.64566C4.63514 5.24892 4.30926 4.92639 3.90839 4.92639Z" fill="#0099FF"/>
<path id="Vector_11" d="M3.90839 7.63501C3.50752 7.63501 3.18164 7.95754 3.18164 8.35428C3.18164 8.75101 3.50752 9.07354 3.90839 9.07354C4.30926 9.07354 4.63514 8.75101 4.63514 8.35428C4.63514 7.95754 4.30926 7.63501 3.90839 7.63501Z" fill="#0099FF"/>
</g>
<g id="Group_5">
<path id="Vector_12" d="M1.22675 4.92639C0.825884 4.92639 0.5 5.24892 0.5 5.64566C0.5 6.0424 0.825884 6.36492 1.22675 6.36492C1.62762 6.36492 1.9535 6.0424 1.9535 5.64566C1.9535 5.24892 1.62762 4.92639 1.22675 4.92639Z" fill="#0099FF"/>
<path id="Vector_13" d="M1.22675 9.07354C1.62812 9.07354 1.9535 8.75152 1.9535 8.35428C1.9535 7.95704 1.62812 7.63501 1.22675 7.63501C0.825377 7.63501 0.5 7.95704 0.5 8.35428C0.5 8.75152 0.825377 9.07354 1.22675 9.07354Z" fill="#0099FF"/>
</g>
</g>
</g>
</g>
<defs>
<clipPath id="clip0_15160_20064">
<rect width="20.3" height="14" fill="white" transform="translate(0.5)"/>
</clipPath>
</defs>
</svg>
