<svg width="102" height="60" viewBox="0 0 102 60" fill="none" xmlns="http://www.w3.org/2000/svg">
<path d="M71.51 59.9997C60.2877 59.9997 50.0328 53.826 44.8087 43.7939C44.4217 42.8293 43.6478 42.0575 42.6803 40.9C39.778 38.0061 38.2301 33.9547 38.2301 29.9032C38.2301 25.8518 39.778 21.9932 42.6803 18.9064C43.6478 17.7489 44.4217 16.9772 44.8087 16.0125C50.6133 5.01574 62.4161 -1.15789 74.9928 -0.000333041C88.7304 1.54308 99.9527 12.5399 101.501 26.4305C102.468 35.1122 99.7592 43.408 93.9545 49.7746C88.3434 56.1412 80.0234 59.8067 71.51 59.8067V59.9997ZM71.51 3.27941C61.4486 3.27941 52.3547 8.68134 47.711 17.7489C46.937 19.2923 45.7761 20.6428 45.0022 21.4145C42.6803 23.7296 41.5194 26.8164 41.5194 30.0961C41.5194 33.3759 42.6803 36.4627 45.0022 38.7778C45.7761 39.7424 46.937 40.9 47.711 42.4434C52.3547 51.318 61.4486 56.9129 71.51 56.9129C79.056 56.9129 86.4085 53.6331 91.4392 48.0383C96.6634 42.2505 98.9852 34.9193 98.0178 27.2022C96.6634 15.0479 86.7955 5.01574 74.4123 3.66526C73.4449 3.66526 72.2839 3.66526 71.3165 3.66526L71.51 3.27941Z" fill="#061014"/>
<path d="M48.4849 60.0001C48.4849 60.0001 47.711 60.0001 47.5175 59.6142C43.4543 56.3345 40.3584 52.283 37.8431 47.6528C36.6822 45.7235 34.5538 44.3731 32.0385 44.3731H8.04601C8.04601 44.3731 6.30463 43.6014 6.30463 42.6367C6.30463 41.6721 7.07858 40.9004 8.04601 40.9004H32.0385C35.7147 40.9004 39.004 42.8297 40.7454 45.9165C42.8738 50.1608 45.9696 53.8264 49.6459 56.9133C50.4198 57.492 50.4198 58.4567 49.8393 59.2284C49.4524 59.6142 49.0654 59.8071 48.4849 59.8071V60.0001Z" fill="#061014"/>
<path d="M32.0385 18.9067H8.04601C8.04601 18.9067 6.30463 18.135 6.30463 17.1703C6.30463 16.2057 7.07858 15.434 8.04601 15.434H32.0385C34.5538 15.434 36.6822 14.2764 37.8431 12.1542C40.3584 7.52402 43.4543 3.47258 47.5175 0.192834C48.2914 -0.385944 49.2589 -0.385944 49.8393 0.38576C50.4198 1.15746 50.4198 2.12209 49.6459 2.70087C45.9696 5.78769 43.0673 9.45328 40.9389 13.5047C39.1975 16.5915 35.9082 18.5208 32.232 18.5208L32.0385 18.9067Z" fill="#061014"/>
<path d="M53.5156 39.5493C49.0654 39.5493 45.5826 35.305 45.5826 30.096C45.5826 24.8869 49.0654 20.6426 53.5156 20.6426C57.9658 20.6426 61.4486 24.8869 61.4486 30.096C61.4486 35.305 57.9658 39.5493 53.5156 39.5493ZM53.5156 23.9223C51.0003 23.9223 48.8719 26.6233 48.8719 30.096C48.8719 33.5686 51.0003 36.2696 53.5156 36.2696C56.031 36.2696 58.1593 33.5686 58.1593 30.096C58.1593 26.6233 56.031 23.9223 53.5156 23.9223Z" fill="#01D0FF"/>
<path d="M28.9427 31.6397H2.24139C2.24139 31.6397 0.5 30.868 0.5 29.9033C0.5 28.9387 1.27395 28.167 2.24139 28.167H28.9427C28.9427 28.167 30.6841 28.9387 30.6841 29.9033C30.6841 30.868 29.9101 31.6397 28.9427 31.6397Z" fill="#01D0FF"/>
</svg>
