<svg width="24" height="24" viewBox="0 0 24 24" fill="none" xmlns="http://www.w3.org/2000/svg">
<path d="M2 20C4 20 5 19 7 19C9 19 10 20 12 20C14 20 15 19 17 19C19 19 20 20 22 20M2 16C4 16 5 15 7 15C9 15 10 16 12 16C14 16 15 15 17 15C19 15 20 16 22 16M17.5 4L12.2222 7L15.5 10.5L12 12M11 13C11.5 13.5 13.13 12.8876 14.262 12.5C15.7222 12 17.5 12.5 17 12C15.361 10.361 15 10 15 10C15 10 10.5 12.5 11 13ZM19.2222 10C19.7745 10 20.2222 9.55228 20.2222 9C20.2222 8.44772 19.7745 8 19.2222 8C18.6699 8 18.2222 8.44772 18.2222 9C18.2222 9.55228 18.6699 10 19.2222 10Z" stroke="black" stroke-width="2" stroke-linecap="round" stroke-linejoin="round"/>
</svg>
