<svg width="81" height="80" viewBox="0 0 81 80" fill="none" xmlns="http://www.w3.org/2000/svg">
<circle cx="40.5" cy="40" r="40" fill="#003E79"/>
<g clip-path="url(#clip0_13886_13598)">
<path d="M39.9999 45.6276C44.6338 45.6276 48.403 41.8403 48.403 37.1863C48.403 36.464 48.3078 35.7296 48.122 35.0009C48.0398 34.681 47.7952 34.4278 47.4796 34.3349C47.1622 34.2402 46.8223 34.3227 46.5814 34.5479C46.0558 35.0393 45.376 35.3104 44.6683 35.3104C43.124 35.3104 41.8672 34.0479 41.8672 32.4966C41.8672 31.7856 42.1361 31.1028 42.6254 30.5748C42.8495 30.3328 42.9298 29.9895 42.8383 29.6725C42.7449 29.3555 42.4937 29.1097 42.1744 29.0272C41.4489 28.8405 40.7179 28.7449 39.9999 28.7449C35.366 28.7449 31.5967 32.5322 31.5967 37.1863C31.5967 41.8403 35.366 45.6276 39.9999 45.6276ZM39.9999 30.6207C40.1278 30.6207 40.2566 30.6245 40.3855 30.6329C40.1334 31.2163 39.9999 31.8494 39.9999 32.4966C39.9999 35.0825 42.0941 37.1863 44.6683 37.1863C45.3125 37.1863 45.9428 37.0521 46.5235 36.7979C46.5319 36.9283 46.5357 37.0578 46.5357 37.1863C46.5357 40.8067 43.603 43.7518 39.9999 43.7518C36.3968 43.7518 33.4641 40.8067 33.4641 37.1863C33.4641 33.5658 36.3968 30.6207 39.9999 30.6207Z" fill="white"/>
<path d="M66.9035 37.7311C67.1351 37.4047 67.1342 36.9676 66.9026 36.6412C66.5114 36.0888 57.0905 23.1172 40.0003 23.1172C22.9101 23.1172 13.4892 36.0888 13.098 36.6412C12.8664 36.9667 12.8655 37.4047 13.097 37.7311C13.1792 37.8465 15.139 40.5833 18.8766 43.5847C19.0483 43.7217 19.2538 43.7892 19.4582 43.7892C19.7327 43.7892 20.0044 43.6691 20.1884 43.4375C20.5105 43.0323 20.4442 42.4423 20.0418 42.1187C17.476 40.0581 15.7786 38.1053 15.0391 37.188C16.5582 35.3131 22.1286 29.0927 31.0976 26.3334C27.9828 28.9155 25.995 32.822 25.995 37.1862C25.995 44.9438 32.2778 51.2551 40.0003 51.2551C47.7228 51.2551 54.0056 44.9438 54.0056 37.1862C54.0056 32.8257 52.0206 28.922 48.9105 26.3399C57.8608 29.1021 63.4396 35.314 64.9615 37.188C64.292 38.0172 62.8317 39.6942 60.6628 41.5325C59.9112 40.7597 59.3453 40.2776 59.2734 40.2175C58.9271 39.9268 58.4238 39.9268 58.0774 40.2175C57.8346 40.4201 52.1382 45.2467 52.1382 50.3172C52.1382 53.9376 55.0709 56.8827 58.674 56.8827C62.2771 56.8827 65.2098 53.9376 65.2098 50.3172C65.2098 47.539 63.5012 44.8406 61.9149 42.9291C65.1398 40.1913 66.8288 37.8371 66.9035 37.7311ZM52.1382 37.1862C52.1382 43.9092 46.693 49.3793 40.0003 49.3793C33.3076 49.3793 27.8624 43.9092 27.8624 37.1862C27.8624 30.4631 33.3076 24.993 40.0003 24.993C46.693 24.993 52.1382 30.4631 52.1382 37.1862ZM58.674 55.0068C56.0998 55.0068 54.0056 52.9031 54.0056 50.3172C54.0056 46.9894 57.2931 43.5144 58.674 42.2022C60.0549 43.5144 63.3425 46.9894 63.3425 50.3172C63.3425 52.9031 61.2482 55.0068 58.674 55.0068Z" fill="white"/>
<path d="M57.7402 52.1932C57.7402 52.7109 58.1576 53.1311 58.6739 53.1311C60.2182 53.1311 61.475 51.8687 61.475 50.3173C61.475 49.7996 61.0576 49.3794 60.5413 49.3794C60.025 49.3794 59.6076 49.7996 59.6076 50.3173C59.6076 50.8341 59.1893 51.2553 58.6739 51.2553C58.1576 51.2553 57.7402 51.6754 57.7402 52.1932Z" fill="white"/>
</g>
<defs>
<clipPath id="clip0_13886_13598">
<rect width="55" height="34" fill="white" transform="translate(12.5 23)"/>
</clipPath>
</defs>
</svg>
