<svg width="57" height="57" viewBox="0 0 57 57" fill="none" xmlns="http://www.w3.org/2000/svg">
<path d="M28.1536 0C12.609 0 0 12.6018 0 28.1536C0 43.6982 12.6018 56.3072 28.1536 56.3072C43.6982 56.3072 56.3072 43.7054 56.3072 28.1536C56.3072 12.609 43.7054 0 28.1536 0Z" fill="white"/>
<g clip-path="url(#clip0_12816_1388)">
<path d="M43.6923 25.4229C43.5356 25.2182 43.3317 25.0546 43.0978 24.9461C42.864 24.8376 42.6073 24.7874 42.3499 24.8C39.4859 24.928 37.6683 25.4933 36.5333 26.0763V17.8667C36.5344 17.2485 36.3561 16.6433 36.02 16.1244C35.6839 15.6055 35.2045 15.1953 34.6399 14.9435C34.0754 14.6917 33.4499 14.6091 32.8393 14.7058C32.2287 14.8024 31.6592 15.0742 31.2 15.488V15.2C31.2 14.3513 30.8629 13.5374 30.2628 12.9373C29.6626 12.3371 28.8487 12 28 12C27.1513 12 26.3374 12.3371 25.7373 12.9373C25.1372 13.5374 24.8 14.3513 24.8 15.2V15.4832C24.3397 15.0715 23.77 14.8017 23.1598 14.7066C22.5496 14.6114 21.9249 14.6948 21.361 14.9468C20.7972 15.1988 20.3183 15.6086 19.9822 16.1267C19.646 16.6448 19.467 17.2491 19.4667 17.8667V26.0763C18.3333 25.4933 16.5227 24.9275 13.6763 24.8C13.4194 24.7907 13.164 24.8423 12.9309 24.9506C12.6978 25.0588 12.4936 25.2207 12.3349 25.4229C12.1774 25.6274 12.0713 25.8667 12.0255 26.1207C11.9798 26.3748 11.9957 26.6361 12.072 26.8827C12.1881 27.2521 12.3478 27.6065 12.5477 27.9381C12.966 28.5831 13.4533 29.1806 14.0011 29.72C14.2144 29.9451 14.4277 30.1707 14.6336 30.4053C15.2917 31.156 15.8744 31.9695 16.3733 32.8341C16.879 33.7348 17.2795 34.6906 17.5669 35.6827C17.871 36.7985 18.3143 37.8717 18.8864 38.8768C19.8269 40.4162 21.1393 41.6945 22.7029 42.5941C24.3158 43.5167 26.1419 44.0014 28 44H28.0272C29.885 44.0013 31.7107 43.5167 33.3232 42.5941C34.887 41.6945 36.1996 40.4163 37.1403 38.8768C37.7124 37.8717 38.1557 36.7985 38.4597 35.6827C38.7472 34.6906 39.1477 33.7348 39.6533 32.8341C40.1525 31.9693 40.7355 31.1558 41.3941 30.4053C41.5984 30.1707 41.8123 29.9451 42.0261 29.72C42.5743 29.1802 43.0618 28.5822 43.48 27.9365C43.6798 27.6054 43.8395 27.2516 43.9557 26.8827C44.0317 26.636 44.0474 26.3747 44.0015 26.1208C43.9557 25.8668 43.8496 25.6275 43.6923 25.4229ZM22.6667 15.7333C22.9471 15.7322 23.2251 15.7866 23.4844 15.8934C23.7437 16.0002 23.9794 16.1573 24.1777 16.3557C24.376 16.554 24.5331 16.7896 24.6399 17.0489C24.7467 17.3083 24.8011 17.5862 24.8 17.8667V20C24.8 20.1414 24.8562 20.2771 24.9562 20.3771C25.0562 20.4771 25.1919 20.5333 25.3333 20.5333C25.4748 20.5333 25.6104 20.4771 25.7105 20.3771C25.8105 20.2771 25.8667 20.1414 25.8667 20V15.2C25.8667 14.6342 26.0914 14.0916 26.4915 13.6915C26.8916 13.2914 27.4342 13.0667 28 13.0667C28.5658 13.0667 29.1084 13.2914 29.5085 13.6915C29.9086 14.0916 30.1333 14.6342 30.1333 15.2V20C30.1333 20.1414 30.1895 20.2771 30.2896 20.3771C30.3896 20.4771 30.5252 20.5333 30.6667 20.5333C30.8081 20.5333 30.9438 20.4771 31.0438 20.3771C31.1438 20.2771 31.2 20.1414 31.2 20V17.8667C31.2 17.3009 31.4248 16.7582 31.8249 16.3582C32.2249 15.9581 32.7676 15.7333 33.3333 15.7333C33.8991 15.7333 34.4418 15.9581 34.8418 16.3582C35.2419 16.7582 35.4667 17.3009 35.4667 17.8667V25.6587C33.4619 23.7448 30.7988 22.6738 28.0272 22.6667H28C25.2197 22.6712 22.5472 23.7423 20.5333 25.6592V17.8667C20.5333 17.3009 20.7581 16.7582 21.1582 16.3582C21.5583 15.9581 22.1009 15.7333 22.6667 15.7333ZM42.9365 26.568C42.8448 26.8548 42.7195 27.1298 42.5632 27.3872C42.1839 27.9662 41.7433 28.5026 41.2491 28.9872C41.0256 29.2235 40.8021 29.4592 40.5877 29.7045C39.8831 30.5079 39.2593 31.3788 38.7253 32.3045C38.1807 33.2743 37.7494 34.3034 37.44 35.3717C37.1607 36.4012 36.7543 37.3919 36.2304 38.3211C35.3834 39.7077 34.2011 40.8589 32.7925 41.6688C31.3417 42.499 29.6988 42.9349 28.0272 42.9333H27.9941C26.3246 42.9337 24.6839 42.4978 23.2347 41.6688C21.8264 40.8587 20.6443 39.7075 19.7973 38.3211C19.2734 37.392 18.8672 36.4013 18.5883 35.3717C18.2773 34.3031 17.8448 33.2736 17.2992 32.3035C16.7653 31.3778 16.1415 30.5069 15.4368 29.7035C15.2235 29.4581 14.9989 29.2235 14.7755 28.9861C14.2813 28.5018 13.841 27.9653 13.4624 27.3861C13.3055 27.1285 13.1802 26.8529 13.0891 26.5653C13.0626 26.4821 13.0568 26.3937 13.0721 26.3078C13.0875 26.2219 13.1235 26.1409 13.1771 26.072C13.231 26.0046 13.3 25.9508 13.3786 25.9151C13.4572 25.8794 13.5431 25.8628 13.6293 25.8667C17.0651 26.0203 18.8171 26.8171 19.6821 27.4581C19.7934 27.5407 19.9324 27.5768 20.0698 27.5587C20.2072 27.5406 20.3321 27.4697 20.4181 27.3611C21.3303 26.2281 22.485 25.314 23.7971 24.6862C25.1092 24.0584 26.5454 23.7328 28 23.7333H28.0272C29.4775 23.7346 30.909 24.0611 32.2164 24.6887C33.5238 25.3164 34.6739 26.2292 35.5819 27.36C35.6679 27.4686 35.7928 27.5395 35.9302 27.5576C36.0676 27.5757 36.2066 27.5397 36.3179 27.4571C37.0251 26.9333 38.7563 26.0267 42.3968 25.8667C42.4836 25.8627 42.5701 25.8798 42.6489 25.9164C42.7277 25.9531 42.7965 26.0082 42.8495 26.077C42.9024 26.1459 42.938 26.2266 42.9532 26.3121C42.9683 26.3977 42.9626 26.4851 42.9365 26.568Z" fill="#003E79"/>
<path d="M28.0002 28.5332C24.8423 28.5332 21.4445 30.7801 19.5917 32.9903C19.511 33.0863 19.4668 33.2078 19.4668 33.3332C19.4668 33.4586 19.511 33.5801 19.5917 33.6761C21.4578 35.9017 24.8397 38.1332 28.0002 38.1332C31.1607 38.1332 34.5559 35.8863 36.4087 33.6761C36.4894 33.5801 36.5336 33.4586 36.5336 33.3332C36.5336 33.2078 36.4894 33.0863 36.4087 32.9903C34.5426 30.7647 31.1607 28.5332 28.0002 28.5332ZM31.7335 33.3332C31.7335 34.0716 31.5146 34.7934 31.1044 35.4073C30.6941 36.0213 30.1111 36.4998 29.4289 36.7824C28.7467 37.0649 27.9961 37.1389 27.2719 36.9948C26.5477 36.8508 25.8825 36.4952 25.3603 35.9731C24.8382 35.451 24.4827 34.7857 24.3386 34.0615C24.1946 33.3373 24.2685 32.5867 24.5511 31.9045C24.8336 31.2223 25.3121 30.6393 25.9261 30.2291C26.54 29.8188 27.2618 29.5999 28.0002 29.5999C28.99 29.601 29.9389 29.9947 30.6388 30.6946C31.3387 31.3945 31.7324 32.3434 31.7335 33.3332ZM20.7229 33.3332C21.6696 32.3473 22.7479 31.4968 23.9271 30.8057C23.4521 31.5632 23.2002 32.4391 23.2002 33.3332C23.2002 34.2273 23.4521 35.1032 23.9271 35.8607C22.7479 35.1696 21.6696 34.3191 20.7229 33.3332ZM32.0733 35.8607C32.5483 35.1032 32.8002 34.2273 32.8002 33.3332C32.8002 32.4391 32.5483 31.5632 32.0733 30.8057C33.2525 31.4968 34.3308 32.3473 35.2775 33.3332C34.3308 34.3191 33.2525 35.1696 32.0733 35.8607Z" fill="#003E79"/>
<path d="M28 35.4669C28.5658 35.4669 29.1084 35.2421 29.5085 34.842C29.9086 34.4419 30.1334 33.8993 30.1334 33.3335C30.1334 32.7677 29.9086 32.2251 29.5085 31.825C29.1084 31.425 28.5658 31.2002 28 31.2002C27.8586 31.2002 27.7229 31.2564 27.6229 31.3564C27.5229 31.4564 27.4667 31.5921 27.4667 31.7335C27.4667 31.875 27.5229 32.0106 27.6229 32.1107C27.7229 32.2107 27.8586 32.2669 28 32.2669C28.211 32.2669 28.4172 32.3294 28.5926 32.4466C28.7681 32.5638 28.9048 32.7304 28.9855 32.9253C29.0662 33.1202 29.0874 33.3347 29.0462 33.5416C29.005 33.7485 28.9035 33.9386 28.7543 34.0878C28.6051 34.237 28.415 34.3385 28.2081 34.3797C28.0012 34.4209 27.7867 34.3997 27.5918 34.319C27.3969 34.2383 27.2303 34.1015 27.1131 33.9261C26.9959 33.7507 26.9334 33.5445 26.9334 33.3335C26.9334 33.1921 26.8772 33.0564 26.7772 32.9564C26.6771 32.8564 26.5415 32.8002 26.4 32.8002C26.2586 32.8002 26.1229 32.8564 26.0229 32.9564C25.9229 33.0564 25.8667 33.1921 25.8667 33.3335C25.8667 33.8993 26.0915 34.4419 26.4915 34.842C26.8916 35.2421 27.4342 35.4669 28 35.4669Z" fill="#003E79"/>
<path d="M31.541 38.4809C30.4202 38.9531 29.2164 39.1963 28.0002 39.1963C26.784 39.1963 25.5802 38.9531 24.4594 38.4809C24.328 38.4284 24.1811 38.4303 24.0511 38.4861C23.9211 38.5419 23.8186 38.6471 23.7661 38.7785C23.7136 38.9099 23.7155 39.0568 23.7713 39.1868C23.8271 39.3168 23.9323 39.4194 24.0637 39.4719C25.3133 39.9848 26.6494 40.2546 28.0002 40.2665C29.351 40.2546 30.6871 39.9848 31.9367 39.4719C32.0681 39.4194 32.1733 39.3168 32.2291 39.1868C32.2849 39.0568 32.2868 38.9099 32.2343 38.7785C32.1819 38.6471 32.0793 38.5419 31.9493 38.4861C31.8193 38.4303 31.6724 38.4284 31.541 38.4809Z" fill="#003E79"/>
<path d="M24.4594 28.1856C25.5801 27.7134 26.784 27.4701 28.0002 27.4701C29.2163 27.4701 30.4202 27.7134 31.541 28.1856C31.606 28.2116 31.6756 28.2245 31.7456 28.2236C31.8157 28.2227 31.8849 28.2081 31.9493 28.1804C32.0137 28.1528 32.072 28.1127 32.1209 28.0625C32.1698 28.0124 32.2083 27.953 32.2343 27.888C32.2603 27.8229 32.2733 27.7534 32.2724 27.6834C32.2716 27.6133 32.257 27.5441 32.2294 27.4798C32.2018 27.4154 32.1618 27.3571 32.1117 27.3081C32.0615 27.2592 32.0023 27.2206 31.9372 27.1946C30.6905 26.6726 29.3523 26.4038 28.0007 26.4038C26.6491 26.4038 25.3109 26.6726 24.0642 27.1946C23.9991 27.2206 23.9398 27.2592 23.8896 27.3081C23.8394 27.357 23.7994 27.4153 23.7718 27.4797C23.716 27.6097 23.7141 27.7566 23.7666 27.888C23.7925 27.953 23.8311 28.0123 23.88 28.0625C23.9289 28.1127 23.9872 28.1527 24.0516 28.1804C24.1816 28.2362 24.328 28.238 24.4594 28.1856Z" fill="#003E79"/>
<path d="M22.6666 18.4002C22.9612 18.4002 23.2 18.1614 23.2 17.8668C23.2 17.5723 22.9612 17.3335 22.6666 17.3335C22.3721 17.3335 22.1333 17.5723 22.1333 17.8668C22.1333 18.1614 22.3721 18.4002 22.6666 18.4002Z" fill="#003E79"/>
<path d="M22.6666 20.5335C22.9612 20.5335 23.2 20.2947 23.2 20.0001C23.2 19.7056 22.9612 19.4668 22.6666 19.4668C22.3721 19.4668 22.1333 19.7056 22.1333 20.0001C22.1333 20.2947 22.3721 20.5335 22.6666 20.5335Z" fill="#003E79"/>
<path d="M22.6666 22.6668C22.9612 22.6668 23.2 22.428 23.2 22.1334C23.2 21.8389 22.9612 21.6001 22.6666 21.6001C22.3721 21.6001 22.1333 21.8389 22.1333 22.1334C22.1333 22.428 22.3721 22.6668 22.6666 22.6668Z" fill="#003E79"/>
<path d="M28.0001 17.8665C28.2947 17.8665 28.5335 17.6277 28.5335 17.3331C28.5335 17.0386 28.2947 16.7998 28.0001 16.7998C27.7056 16.7998 27.4668 17.0386 27.4668 17.3331C27.4668 17.6277 27.7056 17.8665 28.0001 17.8665Z" fill="#003E79"/>
<path d="M28.0001 15.7332C28.2947 15.7332 28.5335 15.4944 28.5335 15.1998C28.5335 14.9053 28.2947 14.6665 28.0001 14.6665C27.7056 14.6665 27.4668 14.9053 27.4668 15.1998C27.4668 15.4944 27.7056 15.7332 28.0001 15.7332Z" fill="#003E79"/>
<path d="M28.0001 19.9998C28.2947 19.9998 28.5335 19.761 28.5335 19.4664C28.5335 19.1719 28.2947 18.9331 28.0001 18.9331C27.7056 18.9331 27.4668 19.1719 27.4668 19.4664C27.4668 19.761 27.7056 19.9998 28.0001 19.9998Z" fill="#003E79"/>
<path d="M28.0001 22.1336C28.2947 22.1336 28.5335 21.8948 28.5335 21.6002C28.5335 21.3057 28.2947 21.0669 28.0001 21.0669C27.7056 21.0669 27.4668 21.3057 27.4668 21.6002C27.4668 21.8948 27.7056 22.1336 28.0001 22.1336Z" fill="#003E79"/>
<path d="M33.3331 18.4002C33.6277 18.4002 33.8665 18.1614 33.8665 17.8668C33.8665 17.5723 33.6277 17.3335 33.3331 17.3335C33.0386 17.3335 32.7998 17.5723 32.7998 17.8668C32.7998 18.1614 33.0386 18.4002 33.3331 18.4002Z" fill="#003E79"/>
<path d="M33.3331 20.5335C33.6277 20.5335 33.8665 20.2947 33.8665 20.0001C33.8665 19.7056 33.6277 19.4668 33.3331 19.4668C33.0386 19.4668 32.7998 19.7056 32.7998 20.0001C32.7998 20.2947 33.0386 20.5335 33.3331 20.5335Z" fill="#003E79"/>
<path d="M33.3331 22.6668C33.6277 22.6668 33.8665 22.428 33.8665 22.1334C33.8665 21.8389 33.6277 21.6001 33.3331 21.6001C33.0386 21.6001 32.7998 21.8389 32.7998 22.1334C32.7998 22.428 33.0386 22.6668 33.3331 22.6668Z" fill="#003E79"/>
</g>
<defs>
<clipPath id="clip0_12816_1388">
<rect width="32" height="32" fill="white" transform="translate(12 12)"/>
</clipPath>
</defs>
</svg>
