<svg width="52" height="52" viewBox="0 0 52 52" fill="none" xmlns="http://www.w3.org/2000/svg">
<path d="M26.1488 50.2759C39.703 50.2759 50.6891 39.2776 50.6891 25.7126C50.6891 12.1477 39.703 1.14941 26.1488 1.14941C12.5946 1.14941 1.6084 12.1477 1.6084 25.7126C1.6084 39.2776 12.5946 50.2759 26.1488 50.2759Z" fill="#003C55" stroke="#CCD8DD" stroke-width="2"/>
<g style="mix-blend-mode:screen">
<path d="M42.6858 25.9653C42.7063 34.9958 35.4023 42.333 26.3718 42.3535C17.3413 42.374 10.004 35.07 9.98355 26.0395C9.96306 17.009 17.2671 9.67171 26.2976 9.65122C35.3281 9.63073 42.6654 16.9348 42.6858 25.9653Z" fill="url(#paint0_radial_6659_23333)" style="mix-blend-mode:screen"/>
<path d="M42.6858 25.9653C42.7063 34.9958 35.4023 42.333 26.3718 42.3535C17.3413 42.374 10.004 35.07 9.98355 26.0395C9.96306 17.009 17.2671 9.67171 26.2976 9.65122C35.3281 9.63073 42.6654 16.9348 42.6858 25.9653Z" stroke="black"/>
</g>
<g style="mix-blend-mode:screen">
<path d="M42.6858 25.9653C42.7063 34.9958 35.4023 42.333 26.3718 42.3535C17.3413 42.374 10.004 35.07 9.98355 26.0395C9.96306 17.009 17.2671 9.67171 26.2976 9.65122C35.3281 9.63073 42.6654 16.9348 42.6858 25.9653Z" fill="url(#paint1_radial_6659_23333)" style="mix-blend-mode:screen"/>
<path d="M42.6858 25.9653C42.7063 34.9958 35.4023 42.333 26.3718 42.3535C17.3413 42.374 10.004 35.07 9.98355 26.0395C9.96306 17.009 17.2671 9.67171 26.2976 9.65122C35.3281 9.63073 42.6654 16.9348 42.6858 25.9653Z" stroke="black"/>
</g>
<g style="mix-blend-mode:screen">
<path d="M50.8369 26C50.8369 39.531 39.8679 50.5 26.3369 50.5C12.8059 50.5 1.83691 39.531 1.83691 26C1.83691 12.469 12.8059 1.5 26.3369 1.5C39.8679 1.5 50.8369 12.469 50.8369 26Z" fill="url(#paint2_radial_6659_23333)" style="mix-blend-mode:screen"/>
<path d="M50.8369 26C50.8369 39.531 39.8679 50.5 26.3369 50.5C12.8059 50.5 1.83691 39.531 1.83691 26C1.83691 12.469 12.8059 1.5 26.3369 1.5C39.8679 1.5 50.8369 12.469 50.8369 26Z" stroke="black"/>
</g>
<g style="mix-blend-mode:screen">
<path d="M30.1052 29.0786C30.5784 30.3568 29.9273 31.7776 28.6508 32.2502C27.3726 32.7235 25.9518 32.0723 25.4792 30.7959C25.006 29.5176 25.6571 28.0969 26.9336 27.6242C28.2118 27.151 29.6326 27.8021 30.1052 29.0786Z" fill="url(#paint3_radial_6659_23333)" style="mix-blend-mode:screen"/>
<path d="M30.1052 29.0786C30.5784 30.3568 29.9273 31.7776 28.6508 32.2502C27.3726 32.7235 25.9518 32.0723 25.4792 30.7959C25.006 29.5176 25.6571 28.0969 26.9336 27.6242C28.2118 27.151 29.6326 27.8021 30.1052 29.0786Z" stroke="black"/>
</g>
<g style="mix-blend-mode:screen">
<path d="M38.9627 24.858C40.7075 25.3971 41.6849 27.2485 41.1458 28.9932C40.6067 30.738 38.7553 31.7154 37.0105 31.1763C35.2658 30.6372 34.2884 28.7858 34.8275 27.041C35.3666 25.2963 37.218 24.3189 38.9627 24.858Z" fill="url(#paint4_radial_6659_23333)" style="mix-blend-mode:screen"/>
<path d="M38.9627 24.858C40.7075 25.3971 41.6849 27.2485 41.1458 28.9932C40.6067 30.738 38.7553 31.7154 37.0105 31.1763C35.2658 30.6372 34.2884 28.7858 34.8275 27.041C35.3666 25.2963 37.218 24.3189 38.9627 24.858Z" stroke="black"/>
</g>
<g style="mix-blend-mode:screen" opacity="0.58">
<path d="M33.5114 24.6525C33.7004 25.1638 33.4405 25.7289 32.931 25.9172C32.4197 26.1062 31.8546 25.8463 31.6663 25.3368C31.4773 24.8255 31.7372 24.2604 32.2467 24.072C32.758 23.8831 33.3231 24.1429 33.5114 24.6525Z" fill="url(#paint5_radial_6659_23333)" style="mix-blend-mode:screen"/>
<path d="M33.5114 24.6525C33.7004 25.1638 33.4405 25.7289 32.931 25.9172C32.4197 26.1062 31.8546 25.8463 31.6663 25.3368C31.4773 24.8255 31.7372 24.2604 32.2467 24.072C32.758 23.8831 33.3231 24.1429 33.5114 24.6525Z" stroke="black"/>
</g>
<g style="mix-blend-mode:screen" opacity="0.32">
<path d="M32.2844 31.4349L32.2844 31.4349L32.285 31.4366C32.4241 31.8088 32.2323 32.2265 31.859 32.3645L31.859 32.3645L31.8573 32.3651C31.4851 32.5041 31.0674 32.3124 30.9294 31.939L30.9294 31.939L30.9288 31.9374C30.7898 31.5652 30.9815 31.1474 31.3549 31.0095L31.3549 31.0095L31.3565 31.0089C31.7287 30.8698 32.1465 31.0615 32.2844 31.4349Z" fill="url(#paint6_radial_6659_23333)" style="mix-blend-mode:screen"/>
<path d="M32.2844 31.4349L32.2844 31.4349L32.285 31.4366C32.4241 31.8088 32.2323 32.2265 31.859 32.3645L31.859 32.3645L31.8573 32.3651C31.4851 32.5041 31.0674 32.3124 30.9294 31.939L30.9294 31.939L30.9288 31.9374C30.7898 31.5652 30.9815 31.1474 31.3549 31.0095L31.3549 31.0095L31.3565 31.0089C31.7287 30.8698 32.1465 31.0615 32.2844 31.4349Z" stroke="black"/>
</g>
<g style="mix-blend-mode:screen">
<path d="M30.7914 25.7615C31.7525 25.9177 32.406 26.8259 32.2497 27.788C32.0934 28.7491 31.1852 29.4026 30.2231 29.2462C29.2621 29.09 28.6085 28.1818 28.7649 27.2197C28.9211 26.2586 29.8294 25.6051 30.7914 25.7615Z" fill="url(#paint7_radial_6659_23333)" style="mix-blend-mode:screen"/>
<path d="M30.7914 25.7615C31.7525 25.9177 32.406 26.8259 32.2497 27.788C32.0934 28.7491 31.1852 29.4026 30.2231 29.2462C29.2621 29.09 28.6085 28.1818 28.7649 27.2197C28.9211 26.2586 29.8294 25.6051 30.7914 25.7615Z" stroke="black"/>
</g>
<g style="mix-blend-mode:screen">
<path d="M35.0556 18.6507C35.8091 19.7445 35.5331 21.2421 34.4393 21.9956C33.3454 22.7491 31.8478 22.4731 31.0944 21.3793C30.3409 20.2854 30.6168 18.7878 31.7107 18.0343C32.8046 17.2809 34.3021 17.5568 35.0556 18.6507Z" fill="url(#paint8_radial_6659_23333)" style="mix-blend-mode:screen"/>
<path d="M35.0556 18.6507C35.8091 19.7445 35.5331 21.2421 34.4393 21.9956C33.3454 22.7491 31.8478 22.4731 31.0944 21.3793C30.3409 20.2854 30.6168 18.7878 31.7107 18.0343C32.8046 17.2809 34.3021 17.5568 35.0556 18.6507Z" stroke="black"/>
</g>
<g style="mix-blend-mode:screen" opacity="0.58">
<path d="M29.1355 21.8328C29.4813 21.8897 29.7143 22.215 29.6578 22.5583C29.6009 22.9041 29.2756 23.1372 28.9322 23.0807C28.5864 23.0238 28.3534 22.6985 28.4099 22.3551C28.4668 22.0093 28.7921 21.7762 29.1355 21.8328Z" fill="url(#paint9_radial_6659_23333)" style="mix-blend-mode:screen"/>
<path d="M29.1355 21.8328C29.4813 21.8897 29.7143 22.215 29.6578 22.5583C29.6009 22.9041 29.2756 23.1372 28.9322 23.0807C28.5864 23.0238 28.3534 22.6985 28.4099 22.3551C28.4668 22.0093 28.7921 21.7762 29.1355 21.8328Z" stroke="black"/>
</g>
<g style="mix-blend-mode:screen" opacity="0.32">
<path d="M35.2259 25.1958C35.461 25.2353 35.6216 25.4582 35.5845 25.6937C35.5451 25.9288 35.3221 26.0893 35.0867 26.0523C34.8516 26.0129 34.691 25.7899 34.728 25.5544C34.7675 25.3193 34.9904 25.1588 35.2259 25.1958Z" fill="url(#paint10_radial_6659_23333)" style="mix-blend-mode:screen"/>
<path d="M35.2259 25.1958C35.461 25.2353 35.6216 25.4582 35.5845 25.6937C35.5451 25.9288 35.3221 26.0893 35.0867 26.0523C34.8516 26.0129 34.691 25.7899 34.728 25.5544C34.7675 25.3193 34.9904 25.1588 35.2259 25.1958Z" stroke="black"/>
</g>
<g style="mix-blend-mode:screen">
<path d="M21.6189 22.4125C20.9285 21.2386 21.3213 19.7243 22.4952 19.0339C23.669 18.3436 25.1833 18.7364 25.8737 19.9103C26.5641 21.0841 26.1713 22.5984 24.9974 23.2888C23.8236 23.9791 22.3093 23.5863 21.6189 22.4125Z" fill="url(#paint11_radial_6659_23333)" style="mix-blend-mode:screen"/>
<path d="M21.6189 22.4125C20.9285 21.2386 21.3213 19.7243 22.4952 19.0339C23.669 18.3436 25.1833 18.7364 25.8737 19.9103C26.5641 21.0841 26.1713 22.5984 24.9974 23.2888C23.8236 23.9791 22.3093 23.5863 21.6189 22.4125Z" stroke="black"/>
</g>
<g style="mix-blend-mode:screen">
<path d="M11.1968 26.5165C10.2725 24.9437 10.7978 22.9166 12.37 21.9927C13.9428 21.0684 15.9699 21.5937 16.8938 23.1659C17.8181 24.7387 17.2928 26.7658 15.7206 27.6897C14.1478 28.614 12.1207 28.0887 11.1968 26.5165Z" fill="url(#paint12_radial_6659_23333)" style="mix-blend-mode:screen"/>
<path d="M11.1968 26.5165C10.2725 24.9437 10.7978 22.9166 12.37 21.9927C13.9428 21.0684 15.9699 21.5937 16.8938 23.1659C17.8181 24.7387 17.2928 26.7658 15.7206 27.6897C14.1478 28.614 12.1207 28.0887 11.1968 26.5165Z" stroke="black"/>
</g>
<g style="mix-blend-mode:screen" opacity="0.58">
<path d="M19.0434 27.3685L19.043 27.3678C18.7675 26.9009 18.9228 26.2983 19.3939 26.0214C19.8639 25.7451 20.4642 25.9011 20.741 26.3719L20.7414 26.3726C21.0168 26.8395 20.8615 27.4421 20.3904 27.719L20.3898 27.7194C19.9228 27.9949 19.3203 27.8395 19.0434 27.3685Z" fill="url(#paint13_radial_6659_23333)" style="mix-blend-mode:screen"/>
<path d="M19.0434 27.3685L19.043 27.3678C18.7675 26.9009 18.9228 26.2983 19.3939 26.0214C19.8639 25.7451 20.4642 25.9011 20.741 26.3719L20.7414 26.3726C21.0168 26.8395 20.8615 27.4421 20.3904 27.719L20.3898 27.7194C19.9228 27.9949 19.3203 27.8395 19.0434 27.3685Z" stroke="black"/>
</g>
<g style="mix-blend-mode:screen" opacity="0.32">
<path d="M19.0605 20.4727L19.0605 20.4727L19.0597 20.4713C18.8573 20.128 18.9733 19.6837 19.3157 19.4834L19.3157 19.4834L19.3171 19.4825C19.6604 19.2802 20.1047 19.3962 20.3051 19.7386L20.3051 19.7386L20.3059 19.74C20.5083 20.0833 20.3923 20.5276 20.0499 20.7279L20.0499 20.7279L20.0485 20.7288C19.7052 20.9312 19.2609 20.8151 19.0605 20.4727Z" fill="url(#paint14_radial_6659_23333)" style="mix-blend-mode:screen"/>
<path d="M19.0605 20.4727L19.0605 20.4727L19.0597 20.4713C18.8573 20.128 18.9733 19.6837 19.3157 19.4834L19.3157 19.4834L19.3171 19.4825C19.6604 19.2802 20.1047 19.3962 20.3051 19.7386L20.3051 19.7386L20.3059 19.74C20.5083 20.0833 20.3923 20.5276 20.0499 20.7279L20.0499 20.7279L20.0485 20.7288C19.7052 20.9312 19.2609 20.8151 19.0605 20.4727Z" stroke="black"/>
</g>
<g style="mix-blend-mode:screen">
<path d="M23.2436 23.7514C23.3969 24.7141 22.7408 25.6189 21.7781 25.7722C20.8154 25.9255 19.9106 25.2694 19.7573 24.3067C19.604 23.344 20.2601 22.4393 21.2228 22.2859C22.1855 22.1326 23.0902 22.7887 23.2436 23.7514Z" fill="url(#paint15_radial_6659_23333)" style="mix-blend-mode:screen"/>
<path d="M23.2436 23.7514C23.3969 24.7141 22.7408 25.6189 21.7781 25.7722C20.8154 25.9255 19.9106 25.2694 19.7573 24.3067C19.604 23.344 20.2601 22.4393 21.2228 22.2859C22.1855 22.1326 23.0902 22.7887 23.2436 23.7514Z" stroke="black"/>
</g>
<g style="mix-blend-mode:screen">
<path d="M20.3283 34.2574V34.2574L20.3212 34.2575C18.9941 34.2764 17.9015 33.2164 17.8826 31.891C17.8637 30.5642 18.9234 29.4713 20.2516 29.4524L20.2516 29.4524C21.5786 29.4335 22.6713 30.4935 22.6902 31.8189C22.7091 33.1444 21.6516 34.236 20.3283 34.2574Z" fill="url(#paint16_radial_6659_23333)" style="mix-blend-mode:screen"/>
<path d="M20.3283 34.2574V34.2574L20.3212 34.2575C18.9941 34.2764 17.9015 33.2164 17.8826 31.891C17.8637 30.5642 18.9234 29.4713 20.2516 29.4524L20.2516 29.4524C21.5786 29.4335 22.6713 30.4935 22.6902 31.8189C22.7091 33.1444 21.6516 34.236 20.3283 34.2574Z" stroke="black"/>
</g>
<g style="mix-blend-mode:screen" opacity="0.58">
<path d="M23.8445 29.3746L23.8425 29.3746C23.4942 29.3803 23.207 29.101 23.2028 28.7537L23.2028 28.7537L23.2027 28.7516C23.1971 28.4034 23.4764 28.1162 23.8237 28.1119L23.8237 28.1119L23.8257 28.1119C24.1739 28.1062 24.4612 28.3855 24.4654 28.7328L24.4654 28.7349C24.4711 29.0831 24.1918 29.3703 23.8445 29.3746ZM24.9654 28.7267C24.9755 29.3514 24.4753 29.8669 23.8506 29.8745L24.9654 28.7267Z" fill="url(#paint17_radial_6659_23333)" style="mix-blend-mode:screen"/>
<path d="M23.8445 29.3746L23.8425 29.3746C23.4942 29.3803 23.207 29.101 23.2028 28.7537L23.2028 28.7537L23.2027 28.7516C23.1971 28.4034 23.4764 28.1162 23.8237 28.1119L23.8237 28.1119L23.8257 28.1119C24.1739 28.1062 24.4612 28.3855 24.4654 28.7328L24.4654 28.7349C24.4711 29.0831 24.1918 29.3703 23.8445 29.3746ZM24.9654 28.7267C24.9755 29.3514 24.4753 29.8669 23.8506 29.8745L24.9654 28.7267Z" stroke="black"/>
</g>
<g style="mix-blend-mode:screen" opacity="0.32">
<path d="M17.2617 27.1327C17.0221 27.1362 16.8254 26.9451 16.8218 26.706C16.8183 26.4664 17.0094 26.2697 17.2485 26.2662C17.4881 26.2626 17.6848 26.4537 17.6884 26.6929C17.6919 26.9325 17.5008 27.1292 17.2617 27.1327Z" fill="url(#paint18_radial_6659_23333)" style="mix-blend-mode:screen"/>
<path d="M17.2617 27.1327C17.0221 27.1362 16.8254 26.9451 16.8218 26.706C16.8183 26.4664 17.0094 26.2697 17.2485 26.2662C17.4881 26.2626 17.6848 26.4537 17.6884 26.6929C17.6919 26.9325 17.5008 27.1292 17.2617 27.1327Z" stroke="black"/>
</g>
<defs>
<radialGradient id="paint0_radial_6659_23333" cx="0" cy="0" r="1" gradientUnits="userSpaceOnUse" gradientTransform="translate(-4.93534 25.9999) scale(16.8512 16.8512)">
<stop stop-color="white"/>
<stop offset="0.11" stop-color="#F6B82A"/>
<stop offset="0.15" stop-color="#C89622"/>
<stop offset="0.19" stop-color="#9D751B"/>
<stop offset="0.23" stop-color="#775914"/>
<stop offset="0.28" stop-color="#56410E"/>
<stop offset="0.33" stop-color="#3B2C0A"/>
<stop offset="0.39" stop-color="#251C06"/>
<stop offset="0.46" stop-color="#140F03"/>
<stop offset="0.55" stop-color="#080601"/>
<stop offset="0.67" stop-color="#010100"/>
<stop offset="1"/>
</radialGradient>
<radialGradient id="paint1_radial_6659_23333" cx="0" cy="0" r="1" gradientUnits="userSpaceOnUse" gradientTransform="translate(26.3369 25.9999) scale(16.8512 16.8512)">
<stop offset="0.09" stop-color="white"/>
<stop offset="0.34" stop-color="#F6B82A"/>
<stop offset="0.37" stop-color="#C89622"/>
<stop offset="0.4" stop-color="#9D751B"/>
<stop offset="0.43" stop-color="#775914"/>
<stop offset="0.47" stop-color="#56410E"/>
<stop offset="0.51" stop-color="#3B2C0A"/>
<stop offset="0.55" stop-color="#251C06"/>
<stop offset="0.6" stop-color="#140F03"/>
<stop offset="0.67" stop-color="#080601"/>
<stop offset="0.75" stop-color="#010100"/>
<stop offset="1"/>
</radialGradient>
<radialGradient id="paint2_radial_6659_23333" cx="0" cy="0" r="1" gradientUnits="userSpaceOnUse" gradientTransform="translate(26.3369 26) scale(25)">
<stop/>
<stop offset="0.5" stop-color="#FFBF2C"/>
<stop offset="0.51" stop-color="#F6B82A"/>
<stop offset="0.53" stop-color="#C89622"/>
<stop offset="0.55" stop-color="#9D751B"/>
<stop offset="0.57" stop-color="#775914"/>
<stop offset="0.6" stop-color="#56410E"/>
<stop offset="0.63" stop-color="#3B2C0A"/>
<stop offset="0.66" stop-color="#251C06"/>
<stop offset="0.7" stop-color="#140F03"/>
<stop offset="0.75" stop-color="#080601"/>
<stop offset="0.82" stop-color="#010100"/>
<stop offset="1"/>
</radialGradient>
<radialGradient id="paint3_radial_6659_23333" cx="0" cy="0" r="1" gradientUnits="userSpaceOnUse" gradientTransform="translate(27.7921 29.9356) rotate(-20.35) scale(2.96851 2.96851)">
<stop stop-color="white"/>
<stop offset="0.05" stop-color="#FFE5AB"/>
<stop offset="0.12" stop-color="#FFBF2C"/>
<stop offset="0.13" stop-color="#F6B82A"/>
<stop offset="0.16" stop-color="#C89622"/>
<stop offset="0.2" stop-color="#9D751B"/>
<stop offset="0.25" stop-color="#775914"/>
<stop offset="0.29" stop-color="#56410E"/>
<stop offset="0.34" stop-color="#3B2C0A"/>
<stop offset="0.4" stop-color="#251C06"/>
<stop offset="0.47" stop-color="#140F03"/>
<stop offset="0.56" stop-color="#080601"/>
<stop offset="0.67" stop-color="#010100"/>
<stop offset="1"/>
</radialGradient>
<radialGradient id="paint4_radial_6659_23333" cx="0" cy="0" r="1" gradientUnits="userSpaceOnUse" gradientTransform="translate(37.9865 28.0153) rotate(-20.35) scale(3.8065)">
<stop stop-color="white"/>
<stop offset="0.05" stop-color="#FFE5AB"/>
<stop offset="0.12" stop-color="#FFBF2C"/>
<stop offset="0.13" stop-color="#F6B82A"/>
<stop offset="0.16" stop-color="#C89622"/>
<stop offset="0.2" stop-color="#9D751B"/>
<stop offset="0.25" stop-color="#775914"/>
<stop offset="0.29" stop-color="#56410E"/>
<stop offset="0.34" stop-color="#3B2C0A"/>
<stop offset="0.4" stop-color="#251C06"/>
<stop offset="0.47" stop-color="#140F03"/>
<stop offset="0.56" stop-color="#080601"/>
<stop offset="0.67" stop-color="#010100"/>
<stop offset="1"/>
</radialGradient>
<radialGradient id="paint5_radial_6659_23333" cx="0" cy="0" r="1" gradientUnits="userSpaceOnUse" gradientTransform="translate(32.5901 24.9932) rotate(-20.35) scale(1.48299)">
<stop stop-color="white"/>
<stop offset="0.05" stop-color="#FFE5AB"/>
<stop offset="0.12" stop-color="#FFBF2C"/>
<stop offset="0.13" stop-color="#F6B82A"/>
<stop offset="0.16" stop-color="#C89622"/>
<stop offset="0.2" stop-color="#9D751B"/>
<stop offset="0.25" stop-color="#775914"/>
<stop offset="0.29" stop-color="#56410E"/>
<stop offset="0.34" stop-color="#3B2C0A"/>
<stop offset="0.4" stop-color="#251C06"/>
<stop offset="0.47" stop-color="#140F03"/>
<stop offset="0.56" stop-color="#080601"/>
<stop offset="0.67" stop-color="#010100"/>
<stop offset="1"/>
</radialGradient>
<radialGradient id="paint6_radial_6659_23333" cx="0" cy="0" r="1" gradientUnits="userSpaceOnUse" gradientTransform="translate(31.6083 31.6867) rotate(-20.35) scale(1.22397)">
<stop stop-color="white"/>
<stop offset="0.05" stop-color="#FFE5AB"/>
<stop offset="0.12" stop-color="#FFBF2C"/>
<stop offset="0.13" stop-color="#F6B82A"/>
<stop offset="0.16" stop-color="#C89622"/>
<stop offset="0.2" stop-color="#9D751B"/>
<stop offset="0.25" stop-color="#775914"/>
<stop offset="0.29" stop-color="#56410E"/>
<stop offset="0.34" stop-color="#3B2C0A"/>
<stop offset="0.4" stop-color="#251C06"/>
<stop offset="0.47" stop-color="#140F03"/>
<stop offset="0.56" stop-color="#080601"/>
<stop offset="0.67" stop-color="#010100"/>
<stop offset="1"/>
</radialGradient>
<radialGradient id="paint7_radial_6659_23333" cx="0" cy="0" r="1" gradientUnits="userSpaceOnUse" gradientTransform="translate(30.5076 27.5049) rotate(-80.74) scale(2.26511)">
<stop stop-color="white"/>
<stop offset="0.05" stop-color="#FFE5AB"/>
<stop offset="0.12" stop-color="#FFBF2C"/>
<stop offset="0.13" stop-color="#F6B82A"/>
<stop offset="0.16" stop-color="#C89622"/>
<stop offset="0.2" stop-color="#9D751B"/>
<stop offset="0.25" stop-color="#775914"/>
<stop offset="0.29" stop-color="#56410E"/>
<stop offset="0.34" stop-color="#3B2C0A"/>
<stop offset="0.4" stop-color="#251C06"/>
<stop offset="0.47" stop-color="#140F03"/>
<stop offset="0.56" stop-color="#080601"/>
<stop offset="0.67" stop-color="#010100"/>
<stop offset="1"/>
</radialGradient>
<radialGradient id="paint8_radial_6659_23333" cx="0" cy="0" r="1" gradientUnits="userSpaceOnUse" gradientTransform="translate(33.0765 20.0161) rotate(-80.74) scale(2.90249)">
<stop stop-color="white"/>
<stop offset="0.05" stop-color="#FFE5AB"/>
<stop offset="0.12" stop-color="#FFBF2C"/>
<stop offset="0.13" stop-color="#F6B82A"/>
<stop offset="0.16" stop-color="#C89622"/>
<stop offset="0.2" stop-color="#9D751B"/>
<stop offset="0.25" stop-color="#775914"/>
<stop offset="0.29" stop-color="#56410E"/>
<stop offset="0.34" stop-color="#3B2C0A"/>
<stop offset="0.4" stop-color="#251C06"/>
<stop offset="0.47" stop-color="#140F03"/>
<stop offset="0.56" stop-color="#080601"/>
<stop offset="0.67" stop-color="#010100"/>
<stop offset="1"/>
</radialGradient>
<radialGradient id="paint9_radial_6659_23333" cx="0" cy="0" r="1" gradientUnits="userSpaceOnUse" gradientTransform="translate(29.036 22.4585) rotate(-80.74) scale(1.13255)">
<stop stop-color="white"/>
<stop offset="0.05" stop-color="#FFE5AB"/>
<stop offset="0.12" stop-color="#FFBF2C"/>
<stop offset="0.13" stop-color="#F6B82A"/>
<stop offset="0.16" stop-color="#C89622"/>
<stop offset="0.2" stop-color="#9D751B"/>
<stop offset="0.25" stop-color="#775914"/>
<stop offset="0.29" stop-color="#56410E"/>
<stop offset="0.34" stop-color="#3B2C0A"/>
<stop offset="0.4" stop-color="#251C06"/>
<stop offset="0.47" stop-color="#140F03"/>
<stop offset="0.56" stop-color="#080601"/>
<stop offset="0.67" stop-color="#010100"/>
<stop offset="1"/>
</radialGradient>
<radialGradient id="paint10_radial_6659_23333" cx="0" cy="0" r="1" gradientUnits="userSpaceOnUse" gradientTransform="translate(35.1552 25.6259) rotate(-80.74) scale(0.934485)">
<stop stop-color="white"/>
<stop offset="0.05" stop-color="#FFE5AB"/>
<stop offset="0.12" stop-color="#FFBF2C"/>
<stop offset="0.13" stop-color="#F6B82A"/>
<stop offset="0.16" stop-color="#C89622"/>
<stop offset="0.2" stop-color="#9D751B"/>
<stop offset="0.25" stop-color="#775914"/>
<stop offset="0.29" stop-color="#56410E"/>
<stop offset="0.34" stop-color="#3B2C0A"/>
<stop offset="0.4" stop-color="#251C06"/>
<stop offset="0.47" stop-color="#140F03"/>
<stop offset="0.56" stop-color="#080601"/>
<stop offset="0.67" stop-color="#010100"/>
<stop offset="1"/>
</radialGradient>
<radialGradient id="paint11_radial_6659_23333" cx="0" cy="0" r="1" gradientUnits="userSpaceOnUse" gradientTransform="translate(23.7495 21.1586) rotate(149.55) scale(2.96851)">
<stop stop-color="white"/>
<stop offset="0.05" stop-color="#FFE5AB"/>
<stop offset="0.12" stop-color="#FFBF2C"/>
<stop offset="0.13" stop-color="#F6B82A"/>
<stop offset="0.16" stop-color="#C89622"/>
<stop offset="0.2" stop-color="#9D751B"/>
<stop offset="0.25" stop-color="#775914"/>
<stop offset="0.29" stop-color="#56410E"/>
<stop offset="0.34" stop-color="#3B2C0A"/>
<stop offset="0.4" stop-color="#251C06"/>
<stop offset="0.47" stop-color="#140F03"/>
<stop offset="0.56" stop-color="#080601"/>
<stop offset="0.67" stop-color="#010100"/>
<stop offset="1"/>
</radialGradient>
<radialGradient id="paint12_radial_6659_23333" cx="0" cy="0" r="1" gradientUnits="userSpaceOnUse" gradientTransform="translate(14.0491 24.8374) rotate(149.55) scale(3.80396)">
<stop stop-color="white"/>
<stop offset="0.05" stop-color="#FFE5AB"/>
<stop offset="0.12" stop-color="#FFBF2C"/>
<stop offset="0.13" stop-color="#F6B82A"/>
<stop offset="0.16" stop-color="#C89622"/>
<stop offset="0.2" stop-color="#9D751B"/>
<stop offset="0.25" stop-color="#775914"/>
<stop offset="0.29" stop-color="#56410E"/>
<stop offset="0.34" stop-color="#3B2C0A"/>
<stop offset="0.4" stop-color="#251C06"/>
<stop offset="0.47" stop-color="#140F03"/>
<stop offset="0.56" stop-color="#080601"/>
<stop offset="0.67" stop-color="#010100"/>
<stop offset="1"/>
</radialGradient>
<radialGradient id="paint13_radial_6659_23333" cx="0" cy="0" r="1" gradientUnits="userSpaceOnUse" gradientTransform="translate(19.893 26.865) rotate(149.55) scale(1.48299)">
<stop stop-color="white"/>
<stop offset="0.05" stop-color="#FFE5AB"/>
<stop offset="0.12" stop-color="#FFBF2C"/>
<stop offset="0.13" stop-color="#F6B82A"/>
<stop offset="0.16" stop-color="#C89622"/>
<stop offset="0.2" stop-color="#9D751B"/>
<stop offset="0.25" stop-color="#775914"/>
<stop offset="0.29" stop-color="#56410E"/>
<stop offset="0.34" stop-color="#3B2C0A"/>
<stop offset="0.4" stop-color="#251C06"/>
<stop offset="0.47" stop-color="#140F03"/>
<stop offset="0.56" stop-color="#080601"/>
<stop offset="0.67" stop-color="#010100"/>
<stop offset="1"/>
</radialGradient>
<radialGradient id="paint14_radial_6659_23333" cx="0" cy="0" r="1" gradientUnits="userSpaceOnUse" gradientTransform="translate(19.6842 20.1033) rotate(149.55) scale(1.22397)">
<stop stop-color="white"/>
<stop offset="0.05" stop-color="#FFE5AB"/>
<stop offset="0.12" stop-color="#FFBF2C"/>
<stop offset="0.13" stop-color="#F6B82A"/>
<stop offset="0.16" stop-color="#C89622"/>
<stop offset="0.2" stop-color="#9D751B"/>
<stop offset="0.25" stop-color="#775914"/>
<stop offset="0.29" stop-color="#56410E"/>
<stop offset="0.34" stop-color="#3B2C0A"/>
<stop offset="0.4" stop-color="#251C06"/>
<stop offset="0.47" stop-color="#140F03"/>
<stop offset="0.56" stop-color="#080601"/>
<stop offset="0.67" stop-color="#010100"/>
<stop offset="1"/>
</radialGradient>
<radialGradient id="paint15_radial_6659_23333" cx="0" cy="0" r="1" gradientUnits="userSpaceOnUse" gradientTransform="translate(21.4976 24.0292) rotate(89.15) scale(2.26511)">
<stop stop-color="white"/>
<stop offset="0.05" stop-color="#FFE5AB"/>
<stop offset="0.12" stop-color="#FFBF2C"/>
<stop offset="0.13" stop-color="#F6B82A"/>
<stop offset="0.16" stop-color="#C89622"/>
<stop offset="0.2" stop-color="#9D751B"/>
<stop offset="0.25" stop-color="#775914"/>
<stop offset="0.29" stop-color="#56410E"/>
<stop offset="0.34" stop-color="#3B2C0A"/>
<stop offset="0.4" stop-color="#251C06"/>
<stop offset="0.47" stop-color="#140F03"/>
<stop offset="0.56" stop-color="#080601"/>
<stop offset="0.67" stop-color="#010100"/>
<stop offset="1"/>
</radialGradient>
<radialGradient id="paint16_radial_6659_23333" cx="0" cy="0" r="1" gradientUnits="userSpaceOnUse" gradientTransform="translate(20.2884 31.8519) rotate(89.15) scale(2.90249)">
<stop stop-color="white"/>
<stop offset="0.05" stop-color="#FFE5AB"/>
<stop offset="0.12" stop-color="#FFBF2C"/>
<stop offset="0.13" stop-color="#F6B82A"/>
<stop offset="0.16" stop-color="#C89622"/>
<stop offset="0.2" stop-color="#9D751B"/>
<stop offset="0.25" stop-color="#775914"/>
<stop offset="0.29" stop-color="#56410E"/>
<stop offset="0.34" stop-color="#3B2C0A"/>
<stop offset="0.4" stop-color="#251C06"/>
<stop offset="0.47" stop-color="#140F03"/>
<stop offset="0.56" stop-color="#080601"/>
<stop offset="0.67" stop-color="#010100"/>
<stop offset="1"/>
</radialGradient>
<radialGradient id="paint17_radial_6659_23333" cx="0" cy="0" r="1" gradientUnits="userSpaceOnUse" gradientTransform="translate(23.8386 28.7393) rotate(89.15) scale(1.13255)">
<stop stop-color="white"/>
<stop offset="0.05" stop-color="#FFE5AB"/>
<stop offset="0.12" stop-color="#FFBF2C"/>
<stop offset="0.13" stop-color="#F6B82A"/>
<stop offset="0.16" stop-color="#C89622"/>
<stop offset="0.2" stop-color="#9D751B"/>
<stop offset="0.25" stop-color="#775914"/>
<stop offset="0.29" stop-color="#56410E"/>
<stop offset="0.34" stop-color="#3B2C0A"/>
<stop offset="0.4" stop-color="#251C06"/>
<stop offset="0.47" stop-color="#140F03"/>
<stop offset="0.56" stop-color="#080601"/>
<stop offset="0.67" stop-color="#010100"/>
<stop offset="1"/>
</radialGradient>
<radialGradient id="paint18_radial_6659_23333" cx="0" cy="0" r="1" gradientUnits="userSpaceOnUse" gradientTransform="translate(17.2591 26.6963) rotate(89.15) scale(0.934484)">
<stop stop-color="white"/>
<stop offset="0.05" stop-color="#FFE5AB"/>
<stop offset="0.12" stop-color="#FFBF2C"/>
<stop offset="0.13" stop-color="#F6B82A"/>
<stop offset="0.16" stop-color="#C89622"/>
<stop offset="0.2" stop-color="#9D751B"/>
<stop offset="0.25" stop-color="#775914"/>
<stop offset="0.29" stop-color="#56410E"/>
<stop offset="0.34" stop-color="#3B2C0A"/>
<stop offset="0.4" stop-color="#251C06"/>
<stop offset="0.47" stop-color="#140F03"/>
<stop offset="0.56" stop-color="#080601"/>
<stop offset="0.67" stop-color="#010100"/>
<stop offset="1"/>
</radialGradient>
</defs>
</svg>
