<svg width="17" height="24" viewBox="0 0 17 24" fill="none" xmlns="http://www.w3.org/2000/svg">
<path d="M5.70001 13.3998C5.70001 13.7711 5.55251 14.1272 5.28996 14.3898C5.0274 14.6523 4.67131 14.7998 4.30001 14.7998C3.9287 14.7998 3.57261 14.6523 3.31006 14.3898C3.04751 14.1272 2.90001 13.7711 2.90001 13.3998C2.90001 13.0285 3.04751 12.6724 3.31006 12.4099C3.57261 12.1473 3.9287 11.9998 4.30001 11.9998C4.67131 11.9998 5.0274 12.1473 5.28996 12.4099C5.55251 12.6724 5.70001 13.0285 5.70001 13.3998ZM5.70001 17.5998C5.70001 17.9711 5.55251 18.3272 5.28996 18.5898C5.0274 18.8523 4.67131 18.9998 4.30001 18.9998C3.9287 18.9998 3.57261 18.8523 3.31006 18.5898C3.04751 18.3272 2.90001 17.9711 2.90001 17.5998C2.90001 17.2285 3.04751 16.8724 3.31006 16.6099C3.57261 16.3473 3.9287 16.1998 4.30001 16.1998C4.67131 16.1998 5.0274 16.3473 5.28996 16.6099C5.55251 16.8724 5.70001 17.2285 5.70001 17.5998ZM12.7 14.7998C13.0713 14.7998 13.4274 14.6523 13.69 14.3898C13.9525 14.1272 14.1 13.7711 14.1 13.3998C14.1 13.0285 13.9525 12.6724 13.69 12.4099C13.4274 12.1473 13.0713 11.9998 12.7 11.9998C12.3287 11.9998 11.9726 12.1473 11.7101 12.4099C11.4475 12.6724 11.3 13.0285 11.3 13.3998C11.3 13.7711 11.4475 14.1272 11.7101 14.3898C11.9726 14.6523 12.3287 14.7998 12.7 14.7998ZM14.1 17.5998C14.1 17.9711 13.9525 18.3272 13.69 18.5898C13.4274 18.8523 13.0713 18.9998 12.7 18.9998C12.3287 18.9998 11.9726 18.8523 11.7101 18.5898C11.4475 18.3272 11.3 17.9711 11.3 17.5998C11.3 17.2285 11.4475 16.8724 11.7101 16.6099C11.9726 16.3473 12.3287 16.1998 12.7 16.1998C13.0713 16.1998 13.4274 16.3473 13.69 16.6099C13.9525 16.8724 14.1 17.2285 14.1 17.5998ZM8.50001 14.7998C8.87131 14.7998 9.2274 14.6523 9.48996 14.3898C9.75251 14.1272 9.90001 13.7711 9.90001 13.3998C9.90001 13.0285 9.75251 12.6724 9.48996 12.4099C9.2274 12.1473 8.87131 11.9998 8.50001 11.9998C8.1287 11.9998 7.77261 12.1473 7.51006 12.4099C7.24751 12.6724 7.10001 13.0285 7.10001 13.3998C7.10001 13.7711 7.24751 14.1272 7.51006 14.3898C7.77261 14.6523 8.1287 14.7998 8.50001 14.7998ZM9.90001 17.5998C9.90001 17.9711 9.75251 18.3272 9.48996 18.5898C9.2274 18.8523 8.87131 18.9998 8.50001 18.9998C8.1287 18.9998 7.77261 18.8523 7.51006 18.5898C7.24751 18.3272 7.10001 17.9711 7.10001 17.5998C7.10001 17.2285 7.24751 16.8724 7.51006 16.6099C7.77261 16.3473 8.1287 16.1998 8.50001 16.1998C8.87131 16.1998 9.2274 16.3473 9.48996 16.6099C9.75251 16.8724 9.90001 17.2285 9.90001 17.5998ZM5.00001 3.5998C4.44305 3.5998 3.90891 3.82105 3.51508 4.21488C3.12126 4.60871 2.90001 5.14285 2.90001 5.69981V7.0998C2.90001 7.65676 3.12126 8.1909 3.51508 8.58473C3.90891 8.97856 4.44305 9.19981 5.00001 9.19981H12C12.557 9.19981 13.0911 8.97856 13.4849 8.58473C13.8788 8.1909 14.1 7.65676 14.1 7.0998V5.69981C14.1 5.14285 13.8788 4.60871 13.4849 4.21488C13.0911 3.82105 12.557 3.5998 12 3.5998H5.00001ZM4.30001 5.69981C4.30001 5.51415 4.37376 5.33611 4.50503 5.20483C4.63631 5.07355 4.81435 4.9998 5.00001 4.9998H12C12.1857 4.9998 12.3637 5.07355 12.495 5.20483C12.6263 5.33611 12.7 5.51415 12.7 5.69981V7.0998C12.7 7.28546 12.6263 7.4635 12.495 7.59478C12.3637 7.72606 12.1857 7.79981 12 7.79981H5.00001C4.81435 7.79981 4.63631 7.72606 4.50503 7.59478C4.37376 7.4635 4.30001 7.28546 4.30001 7.0998V5.69981ZM16.9 19.6998C16.9 20.6281 16.5313 21.5183 15.8749 22.1747C15.2185 22.8311 14.3283 23.1998 13.4 23.1998H3.60001C2.67175 23.1998 1.78151 22.8311 1.12513 22.1747C0.468755 21.5183 0.100006 20.6281 0.100006 19.6998V4.2998C0.100006 3.37155 0.468755 2.48131 1.12513 1.82493C1.78151 1.16855 2.67175 0.799805 3.60001 0.799805H13.4C14.3283 0.799805 15.2185 1.16855 15.8749 1.82493C16.5313 2.48131 16.9 3.37155 16.9 4.2998V19.6998ZM15.5 4.2998C15.5 3.74285 15.2788 3.20871 14.8849 2.81488C14.4911 2.42105 13.957 2.1998 13.4 2.1998H3.60001C3.04305 2.1998 2.50891 2.42105 2.11508 2.81488C1.72126 3.20871 1.50001 3.74285 1.50001 4.2998V19.6998C1.50001 20.2568 1.72126 20.7909 2.11508 21.1847C2.50891 21.5786 3.04305 21.7998 3.60001 21.7998H13.4C13.957 21.7998 14.4911 21.5786 14.8849 21.1847C15.2788 20.7909 15.5 20.2568 15.5 19.6998V4.2998Z" fill="white"/>
</svg>
