<svg width="30" height="40" viewBox="0 0 30 40" fill="none" xmlns="http://www.w3.org/2000/svg">
<path d="M7.63261 6.14498H22.965C22.9826 6.14498 23.0002 6.14498 23.0168 6.14606L25.7936 1.57293C26.1584 0.972658 25.637 0.228018 24.9381 0.351763L20.0482 1.20604C19.3603 1.32544 18.6548 1.31024 17.9736 1.15828L14.0361 0.282292C12.6493 -0.0259851 11.2174 -0.0770028 9.81192 0.13141C9.1891 0.224761 8.55857 0.267095 7.92914 0.257326C7.28537 0.247556 6.64271 0.183513 6.00667 0.0673663L5.71896 0.0141777C5.03 -0.112824 4.50198 0.610107 4.8426 1.21255L7.63261 6.14389V6.14498Z" fill="#051821"/>
<path d="M23.246 8.41458C23.0157 8.24307 22.8481 8.01946 22.7467 7.77197H7.59732C7.4948 7.92503 7.36252 8.0618 7.20268 8.1736C2.96311 11.1435 0.097043 16.4406 0.00224237 22.5215C-0.038544 25.1679 0.44979 27.6808 1.35481 29.9321C1.76377 30.947 1.82219 32.065 1.51795 33.1158L0.756238 35.7557C0.0959408 38.0395 2.19478 40.1703 4.53283 39.5907L6.82789 39.023C8.13085 38.6995 9.49774 38.7668 10.772 39.1858C12.0309 39.6005 13.3603 39.8317 14.736 39.8534C15.9894 39.8718 17.2108 39.7144 18.3792 39.4007C19.6006 39.074 20.8915 39.0925 22.1095 39.4333L23.7035 39.8794C26.0228 40.5286 28.1856 38.4629 27.5981 36.1606L27.2596 34.4162C26.9455 32.8032 27.2288 31.1294 28.071 29.7117C29.235 27.7535 29.9526 25.8518 29.9978 22.9752C30.0926 16.8944 27.3919 11.5125 23.2471 8.41675L23.246 8.41458ZM11.5161 24.9443C11.6892 24.4471 11.7619 23.8935 11.7531 23.1489V23.1337H10.5472V21.2309H11.6396V21.2135C11.6054 20.7087 11.5745 20.0455 11.6286 19.391C11.7123 18.3858 12.0529 17.0138 13.2027 16.1866C14.0482 15.5777 15.2056 15.3888 16.3796 15.6645C17.3298 15.8892 18.1588 16.3712 18.9117 16.8575L19.1035 16.9823L18.0419 18.5736L17.8501 18.4488C17.149 17.995 16.5527 17.6629 15.9288 17.5153C15.3159 17.3709 14.7228 17.448 14.3425 17.7226C13.7527 18.1481 13.5951 19.0469 13.5543 19.5462C13.508 20.0987 13.5367 20.6751 13.5742 21.2167V21.2309H16.319V23.1337H13.6844V23.15C13.6943 24.1074 13.5896 24.852 13.3438 25.5598C13.1531 26.1079 12.8698 26.6257 12.5016 27.0957L12.4818 27.1207L16.2451 27.1826C16.7742 27.1912 17.3221 27.201 17.7652 27.0653C18.1125 26.9589 18.3837 26.7473 18.4575 26.5248L18.5281 26.3098L20.3656 26.9003L20.294 27.1153C20.0239 27.9294 19.2931 28.5904 18.3385 28.8824C17.7399 29.0659 17.1468 29.0897 16.6453 29.0897C16.5053 29.0897 16.3653 29.0876 16.2429 29.0854L10.6199 28.9921C10.3961 28.9888 10.1801 28.9248 9.99379 28.8097L9.88687 28.7435V26.8667L9.98607 26.7994C9.99269 26.795 9.9993 26.7907 10.0048 26.7874C10.7059 26.3608 11.2571 25.6889 11.515 24.9443H11.5161Z" fill="#051821"/>
<path d="M22.4667 6.59985H7.85194C7.65021 6.59985 7.48596 6.7605 7.48596 6.95806C7.48596 7.15562 7.65021 7.31627 7.85194 7.31627H22.6629C22.8646 7.31627 23.0289 7.15562 23.0289 6.95806C23.0289 6.7605 22.8646 6.59985 22.6629 6.59985H22.4667Z" fill="#051821"/>
<path d="M18.5203 26.2892L18.4442 26.5193C18.3715 26.7375 18.1047 26.9448 17.7619 27.0501C17.3221 27.1847 16.7753 27.175 16.2473 27.1663L12.517 27.1044C12.883 26.6366 13.1718 26.1123 13.3625 25.5641C13.6072 24.8596 13.7141 24.1063 13.7042 23.1489H16.3377V21.2146H13.5929C13.5532 20.6436 13.5289 20.0857 13.573 19.5462C13.6138 19.0501 13.7703 18.1557 14.3546 17.7345C14.7316 17.4632 15.3191 17.3872 15.9265 17.5294C16.5493 17.6759 17.1424 18.0081 17.8424 18.4607L18.0474 18.5942L19.1266 16.9769L18.9216 16.8444C18.1665 16.356 17.3375 15.8729 16.384 15.6482C15.2056 15.3704 14.0426 15.5614 13.1938 16.1725C12.0386 17.004 11.6969 18.3804 11.6131 19.3888C11.5602 20.0206 11.5855 20.6501 11.6219 21.2135H10.5317V23.1478H11.7376C11.7465 23.887 11.6715 24.4461 11.5017 24.9378C11.2449 25.6792 10.697 26.3478 9.99816 26.7733C9.99155 26.7777 9.98494 26.782 9.97832 26.7864L9.8725 26.858V28.7522L9.98714 28.8227C10.1756 28.94 10.395 29.004 10.6221 29.0073L16.2142 29.0995H16.2451C16.3752 29.1017 16.5096 29.1039 16.6474 29.1039C17.1501 29.1039 17.7443 29.0789 18.345 28.8955C19.3052 28.6013 20.0404 27.937 20.3127 27.1174L20.3888 26.8873L18.5214 26.287L18.5203 26.2892ZM20.294 27.1142C20.0239 27.9283 19.293 28.5894 18.3384 28.8814C17.7399 29.0648 17.1468 29.0887 16.6452 29.0887C16.5052 29.0887 16.3652 29.0865 16.2429 29.0843L10.6199 28.991C10.3961 28.9877 10.18 28.9237 9.99375 28.8086L9.88683 28.7424V26.8656L9.98604 26.7983C9.99265 26.794 9.99927 26.7896 10.0048 26.7864C10.7059 26.3598 11.257 25.6879 11.515 24.9432C11.688 24.4461 11.7608 23.8925 11.752 23.1478V23.1326H10.546V21.2298H11.6384V21.2124C11.6043 20.7077 11.5734 20.0444 11.6274 19.3899C11.7112 18.3847 12.0518 17.0127 13.2015 16.1856C14.047 15.5766 15.2045 15.3877 16.3785 15.6634C17.3287 15.8881 18.1576 16.3701 18.9105 16.8564L19.1023 16.9812L18.0408 18.5725L17.849 18.4477C17.1479 17.994 16.5515 17.6618 15.9276 17.5142C15.3147 17.3698 14.7217 17.4469 14.3414 17.7215C13.7516 18.147 13.594 19.0458 13.5532 19.5451C13.5069 20.0976 13.5356 20.674 13.573 21.2157V21.2298H16.3178V23.1326H13.6833V23.1489C13.6932 24.1063 13.5885 24.851 13.3426 25.5587C13.1519 26.1069 12.8686 26.6246 12.5005 27.0946L12.4806 27.1196L16.244 27.1815C16.7731 27.1902 17.321 27.1999 17.7641 27.0643C18.1113 26.9579 18.3825 26.7462 18.4564 26.5237L18.5269 26.3088L20.3645 26.8993L20.2929 27.1142H20.294Z" fill="white"/>
<path d="M18.5082 26.2697L18.4278 26.515C18.3572 26.7278 18.0938 26.9318 17.7553 27.035C17.3177 27.1696 16.7732 27.1598 16.2462 27.1511L12.5468 27.0903C12.9084 26.6247 13.1873 26.1134 13.3758 25.5706C13.6205 24.8629 13.7274 24.1204 13.7186 23.1663H16.3521V21.2005H13.6062C13.5698 20.6643 13.5422 20.0944 13.5874 19.5495C13.6282 19.0567 13.7836 18.1666 14.3635 17.7498C14.736 17.4816 15.3192 17.4057 15.9233 17.5479C16.5428 17.6944 17.1347 18.0255 17.8336 18.477L18.053 18.6181L19.141 16.9877L19.1498 16.9747L18.9304 16.8336C18.1742 16.3451 17.3442 15.861 16.3884 15.6352C15.2056 15.3563 14.0372 15.5484 13.1851 16.1617C12.0254 16.9964 11.6815 18.3772 11.5977 19.3888C11.5437 20.039 11.5734 20.6958 11.6065 21.1994H10.5163V23.1652H11.7223C11.73 23.8979 11.6572 24.4439 11.4864 24.9346C11.2306 25.6727 10.685 26.3381 9.9905 26.7614C9.98388 26.7658 9.97617 26.7701 9.96956 26.7744L9.85712 26.8515V28.762L9.97837 28.8379C10.1691 28.9574 10.3917 29.0214 10.621 29.0257L16.2132 29.118H16.244C16.3675 29.1213 16.5064 29.1223 16.6464 29.1223C17.1502 29.1223 17.7454 29.0974 18.3484 28.9139C19.314 28.6187 20.0526 27.95 20.326 27.1251L20.4064 26.8797L18.5082 26.2697ZM9.99491 28.8108L9.88798 28.7446V26.8678L9.98719 26.8005C9.99381 26.7962 10.0004 26.7918 10.0059 26.7886C10.707 26.362 11.2582 25.69 11.5161 24.9454C11.6892 24.4483 11.7619 23.8947 11.7531 23.15V23.1348H10.5472V21.232H11.6396V21.2146C11.6054 20.7099 11.5746 20.0466 11.6286 19.3921C11.7123 18.3869 12.053 17.0149 13.2027 16.1877C14.0482 15.5788 15.2056 15.3899 16.3796 15.6656C17.3298 15.8903 18.1588 16.3723 18.9117 16.8586L19.1035 16.9834L18.0419 18.5747L17.8501 18.4499C17.1491 17.9962 16.5527 17.664 15.9288 17.5164C15.3159 17.372 14.7228 17.4491 14.3425 17.7237C13.7528 18.1492 13.5951 19.048 13.5543 19.5473C13.508 20.0998 13.5367 20.6762 13.5742 21.2179V21.232H16.319V23.1348H13.6844V23.1511C13.6943 24.1085 13.5896 24.8531 13.3438 25.5609C13.1531 26.109 12.8698 26.6268 12.5016 27.0968L12.4818 27.1218L16.2451 27.1837C16.7743 27.1924 17.3221 27.2021 17.7653 27.0664C18.1125 26.9601 18.3837 26.7484 18.4575 26.5259L18.5281 26.3109L20.3657 26.9014L20.294 27.1164C20.0239 27.9305 19.2931 28.5915 18.3385 28.8835C17.7399 29.067 17.1468 29.0909 16.6453 29.0909C16.5053 29.0909 16.3653 29.0887 16.2429 29.0865L10.6199 28.9932C10.3962 28.9899 10.1801 28.9259 9.99381 28.8108H9.99491Z" fill="white"/>
</svg>
