<svg width="23" height="23" viewBox="0 0 23 23" fill="none" xmlns="http://www.w3.org/2000/svg">
<path d="M22.726 11.7151C22.726 10.7728 22.6495 10.0852 22.484 9.37207H11.7239V13.6251H18.0398C17.9125 14.6821 17.2249 16.2738 15.6968 17.3434L15.6754 17.4858L19.0776 20.1214L19.3133 20.1449C21.478 18.1457 22.726 15.2042 22.726 11.7151Z" fill="#4285F4"/>
<path d="M11.7239 22.9209C14.8181 22.9209 17.4158 21.9021 19.3132 20.1449L15.6968 17.3434C14.729 18.0183 13.4302 18.4895 11.7239 18.4895C8.69321 18.4895 6.12098 16.4903 5.20405 13.7271L5.06965 13.7385L1.53204 16.4763L1.48578 16.6049C3.37037 20.3486 7.24148 22.9209 11.7239 22.9209Z" fill="#34A853"/>
<path d="M5.20407 13.7272C4.96213 13.0141 4.82211 12.25 4.82211 11.4605C4.82211 10.671 4.96213 9.90698 5.19134 9.1939L5.18493 9.04203L1.60299 6.26025L1.48579 6.316C0.709058 7.86955 0.263367 9.61413 0.263367 11.4605C0.263367 13.3069 0.709058 15.0514 1.48579 16.605L5.20407 13.7272Z" fill="#FBBC05"/>
<path d="M11.7239 4.43136C13.8758 4.43136 15.3275 5.36093 16.1552 6.13775L19.3896 2.97973C17.4032 1.13332 14.8181 0 11.7239 0C7.24148 0 3.37037 2.57223 1.48578 6.31596L5.19132 9.19386C6.12098 6.43061 8.69321 4.43136 11.7239 4.43136Z" fill="#EB4335"/>
</svg>
