<svg width="20" height="20" viewBox="0 0 20 20" fill="none" xmlns="http://www.w3.org/2000/svg">
<path d="M9.53726 19.8597C9.53726 19.8597 9.53771 19.86 9.99996 19.1667L10.4622 19.86C10.1823 20.0467 9.81717 20.0464 9.53726 19.8597Z" fill="#677578"/>
<path fill-rule="evenodd" clip-rule="evenodd" d="M9.99996 5C8.15901 5 6.66663 6.49238 6.66663 8.33333C6.66663 10.1743 8.15901 11.6667 9.99996 11.6667C11.8409 11.6667 13.3333 10.1743 13.3333 8.33333C13.3333 6.49238 11.8409 5 9.99996 5ZM8.33329 8.33333C8.33329 7.41286 9.07948 6.66667 9.99996 6.66667C10.9204 6.66667 11.6666 7.41286 11.6666 8.33333C11.6666 9.25381 10.9204 10 9.99996 10C9.07948 10 8.33329 9.25381 8.33329 8.33333Z" fill="#677578"/>
<path fill-rule="evenodd" clip-rule="evenodd" d="M9.53726 19.8597L9.99996 19.1667C10.4622 19.86 10.4633 19.8593 10.4633 19.8593L10.465 19.8582L10.4706 19.8544L10.4897 19.8415C10.5059 19.8305 10.5291 19.8147 10.5587 19.7942C10.6179 19.7532 10.7029 19.6934 10.8101 19.616C11.0245 19.4612 11.328 19.2352 11.6909 18.9462C12.4155 18.3692 13.3838 17.5357 14.3549 16.5106C16.2631 14.4965 18.3333 11.585 18.3333 8.33333C18.3333 6.1232 17.4553 4.00358 15.8925 2.44078C14.3297 0.877974 12.2101 0 9.99996 0C7.78982 0 5.67021 0.877974 4.1074 2.44078C2.5446 4.00358 1.66663 6.1232 1.66663 8.33333C1.66663 11.585 3.73685 14.4965 5.645 16.5106C6.61612 17.5357 7.5844 18.3692 8.30898 18.9462C8.67193 19.2352 8.97541 19.4612 9.18979 19.616C9.29701 19.6934 9.38207 19.7532 9.44126 19.7942C9.47086 19.8147 9.494 19.8305 9.51022 19.8415L9.52932 19.8544L9.53488 19.8582L9.53726 19.8597ZM5.28591 3.61929C6.53616 2.36905 8.23185 1.66667 9.99996 1.66667C11.7681 1.66667 13.4638 2.36905 14.714 3.61929C15.9642 4.86953 16.6666 6.56522 16.6666 8.33333C16.6666 10.915 14.9868 13.4202 13.145 15.3644C12.2411 16.3185 11.3344 17.0996 10.6527 17.6424C10.399 17.8444 10.1774 18.0127 9.99996 18.1438C9.82248 18.0127 9.60089 17.8444 9.34719 17.6424C8.66552 17.0996 7.7588 16.3185 6.85492 15.3644C5.01307 13.4202 3.33329 10.915 3.33329 8.33333C3.33329 6.56522 4.03567 4.86953 5.28591 3.61929Z" fill="#677578"/>
</svg>
