<svg width="49" height="49" viewBox="0 0 49 49" fill="none" xmlns="http://www.w3.org/2000/svg">
<circle cx="24.5" cy="24.5" r="24.5" fill="#005DAF"/>
<g clip-path="url(#clip0_12658_4179)">
<g clip-path="url(#clip1_12658_4179)">
<g clip-path="url(#clip2_12658_4179)">
<g clip-path="url(#clip3_12658_4179)">
<path d="M23.6166 34.9477C20.4324 34.9477 17.3046 34.106 14.5717 32.5135C11.9239 30.9708 9.69988 28.7624 8.14 26.1272C8.01713 25.9196 8.01713 25.6621 8.14 25.4545C9.7 22.8191 11.924 20.6105 14.5716 19.0676C17.3049 17.4747 20.4325 16.6328 23.6166 16.6328C26.5807 16.6328 29.517 17.3677 32.1084 18.7582C32.4328 18.9324 32.5538 19.3349 32.3786 19.6572C32.2033 19.9796 31.7981 20.0998 31.4738 19.9257C29.0768 18.6396 26.3599 17.9597 23.6166 17.9597C17.8938 17.9597 12.5197 20.9505 9.49566 25.7908C12.5194 30.6304 17.8934 33.6207 23.6166 33.6207C29.3404 33.6207 34.715 30.6302 37.7387 25.7906C37.6492 25.6475 37.5586 25.5077 37.4675 25.3727C37.2623 25.0683 37.3444 24.6562 37.6507 24.4523C37.9572 24.2482 38.3718 24.33 38.5771 24.6343C38.7528 24.895 38.927 25.1712 39.0945 25.4551C39.2171 25.6626 39.2169 25.9197 39.0941 26.1272C37.5343 28.7625 35.3102 30.9709 32.6624 32.5135C29.9294 34.106 26.8013 34.9477 23.6166 34.9477Z" fill="white"/>
<path d="M23.6172 32.7905C19.7327 32.7905 16.5723 29.6504 16.5723 25.7908C16.5723 21.9311 19.7325 18.791 23.6172 18.791C24.6649 18.791 25.701 19.0363 26.6964 19.52C26.8599 19.5994 26.9836 19.7418 27.0389 19.914C27.0943 20.0863 27.0767 20.2735 26.9898 20.4324C26.8643 20.6622 26.8008 20.8992 26.8008 21.1367C26.8008 21.9588 27.474 22.6276 28.3014 22.6276C28.5407 22.6276 28.7792 22.5645 29.0104 22.4398C29.1703 22.3536 29.3587 22.336 29.5321 22.391C29.7055 22.446 29.8487 22.569 29.9286 22.7315C30.4156 23.7206 30.6624 24.7499 30.6624 25.7908C30.6624 29.6504 27.5019 32.7905 23.6172 32.7905ZM23.6172 20.1179C20.4691 20.1179 17.9078 22.6628 17.9078 25.7908C17.9078 28.9188 20.4691 31.4636 23.6172 31.4636C26.7655 31.4636 29.3269 28.9188 29.3269 25.7908C29.3269 25.1452 29.2072 24.5019 28.9704 23.8716C28.7511 23.9269 28.5276 23.9546 28.3014 23.9546C26.7375 23.9546 25.4652 22.6905 25.4652 21.1368C25.4652 20.9121 25.4933 20.6901 25.5489 20.4721C24.9146 20.2368 24.2672 20.1179 23.6172 20.1179Z" fill="white"/>
<path d="M23.6166 28.8439C21.9223 28.8439 20.5439 27.4744 20.5439 25.7911C20.5439 24.1078 21.9224 22.7383 23.6166 22.7383C25.3108 22.7383 26.6892 24.1078 26.6892 25.7911C26.6892 27.4744 25.311 28.8439 23.6166 28.8439ZM23.6166 24.0651C22.6587 24.0651 21.8795 24.8394 21.8795 25.791C21.8795 26.7426 22.6587 27.5169 23.6166 27.5169C24.5744 27.5169 25.3537 26.7426 25.3537 25.791C25.3537 24.8394 24.5744 24.0651 23.6166 24.0651Z" fill="white"/>
<path d="M36.1933 26.0334C33.2327 26.0334 30.8242 23.6403 30.8242 20.6989C30.8242 17.9514 35.1902 12.8537 35.6882 12.2813C35.815 12.1356 35.9993 12.0518 36.1933 12.0518C36.3873 12.0518 36.5716 12.1356 36.6985 12.2813C37.1964 12.8536 41.5623 17.9514 41.5623 20.6989C41.5623 23.6404 39.1537 26.0334 36.1933 26.0334ZM36.1934 13.7481C34.7285 15.5301 32.1597 19.0062 32.1597 20.699C32.1597 22.9088 33.9692 24.7066 36.1933 24.7066C38.4174 24.7066 40.2268 22.9089 40.2268 20.699C40.2268 19.0045 37.6583 15.5294 36.1934 13.7481Z" fill="white"/>
<path d="M36.1941 22.6485C35.8254 22.6485 35.5264 22.3514 35.5264 21.985V18.5101C35.5264 18.1438 35.8254 17.8467 36.1941 17.8467C36.5628 17.8467 36.8619 18.1438 36.8619 18.5101V21.985C36.8619 22.3514 36.5628 22.6485 36.1941 22.6485Z" fill="white"/>
<path d="M37.9425 20.9109H34.4451C34.0764 20.9109 33.7773 20.6138 33.7773 20.2474C33.7773 19.8811 34.0764 19.584 34.4451 19.584H37.9425C38.3112 19.584 38.6102 19.8811 38.6102 20.2474C38.6102 20.6138 38.3112 20.9109 37.9425 20.9109Z" fill="white"/>
</g>
</g>
</g>
</g>
<defs>
<clipPath id="clip0_12658_4179">
<rect width="34" height="23" fill="white" transform="translate(8 12)"/>
</clipPath>
<clipPath id="clip1_12658_4179">
<rect width="34" height="23" fill="white" transform="translate(8 12)"/>
</clipPath>
<clipPath id="clip2_12658_4179">
<rect width="34" height="23" fill="white" transform="translate(8 12)"/>
</clipPath>
<clipPath id="clip3_12658_4179">
<rect width="33.6105" height="23" fill="white" transform="translate(8 12)"/>
</clipPath>
</defs>
</svg>
