<svg width="48" height="48" viewBox="0 0 48 48" fill="none" xmlns="http://www.w3.org/2000/svg">
<circle cx="24" cy="24" r="24" fill="#99ECFF"/>
<path fill-rule="evenodd" clip-rule="evenodd" d="M19.7347 23.7193C18.4906 23.4217 15.9824 22.5869 15.9824 20.6933C15.9824 18.1751 19.395 14.7143 19.395 14.7143C19.395 14.7143 20.5062 13 23.6315 13C26.7568 13 28.3542 14.7143 28.3542 14.7143C28.3542 14.7143 30.5766 16.9581 30.5766 20.6933C30.5766 22.6178 29.323 23.399 28.1075 23.7043C27.1205 24.762 25.5982 25.4321 23.9141 25.4321C22.2379 25.4321 20.7221 24.7683 19.7347 23.7193ZM20.1038 22.0956C20.6899 23.3662 22.1545 24.2892 23.9141 24.2892C24.6373 24.2892 25.3107 24.1333 25.8937 23.8614C25.8677 23.8588 25.8539 23.8571 25.8539 23.8571C25.8539 23.8571 29.6469 20.5609 26.4522 16.4286C26.1049 15.8475 20.8188 17.2857 20.1069 18.1429C19.6795 18.6575 19.8774 20.6141 20.1038 22.0956Z" fill="#01D0FF"/>
<path d="M16.8913 29.2526C16.346 29.554 15.9822 30.096 15.9822 30.7145C15.9822 31.6613 16.8345 32.4288 17.8858 32.4288C18.9372 32.4288 19.7894 31.6613 19.7894 30.7145C19.7894 29.8436 19.0683 29.1244 18.1345 29.0147C18.1137 28.9476 18.092 28.8702 18.0699 28.7834C17.9939 28.4843 17.9214 28.1049 17.8674 27.7152C17.8132 27.3247 17.7797 26.9376 17.7775 26.6216C17.7766 26.5058 17.7801 26.4049 17.7872 26.3203C18.0313 26.2572 18.2761 26.2004 18.5204 26.1503C18.8004 26.0928 18.9661 26.3905 19.1004 26.6317C19.1027 26.6359 19.1051 26.6401 19.1074 26.6443C19.1236 26.6734 19.1394 26.7016 19.1549 26.728H21.7336C22.3102 26.7279 22.5975 26.728 22.8858 26.728H22.8974C23.1796 26.7281 23.467 26.7282 24.0313 26.728H26.6102C26.755 26.4803 27.0848 26.0848 27.4038 26.1503C27.7441 26.2201 28.0856 26.303 28.4247 26.3977L28.4226 26.3986C28.4218 26.3973 28.4219 26.3975 28.4227 26.3995C28.4257 26.4075 28.4396 26.4448 28.4534 26.5259C28.4692 26.6181 28.4802 26.738 28.4847 26.8823C28.4937 27.1705 28.4758 27.5208 28.4379 27.8738C28.4 28.2263 28.3436 28.5676 28.2802 28.837C28.2661 28.8967 28.2521 28.9511 28.2383 29.0002H27.4038C27.1634 29.0002 26.9438 29.1225 26.8363 29.3161L26.2017 30.459C26.1576 30.5383 26.1347 30.6258 26.1347 30.7145V31.8574C26.1347 32.173 26.4188 32.4288 26.7693 32.4288H28.0383V31.2859H27.4038V30.8494L27.7959 30.1431H29.5498L29.9419 30.8494V31.2859H29.3074V32.4288H30.5765C30.9269 32.4288 31.211 32.173 31.211 31.8574V30.7145C31.211 30.6258 31.1881 30.5383 31.144 30.459L30.5095 29.3161C30.402 29.1225 30.1823 29.0002 29.9419 29.0002H29.5386C29.6063 28.6958 29.6627 28.3401 29.701 27.9838C29.7424 27.5987 29.7641 27.199 29.7533 26.8503L29.7528 26.8346C32.283 27.7973 34.3836 29.3808 34.3836 31.0402V34.1431H11.5405V31.0402C11.5405 29.3074 13.8311 27.6573 16.5095 26.7105C16.5168 27.0657 16.5541 27.4678 16.608 27.8567C16.6662 28.2765 16.7455 28.6947 16.8329 29.0384C16.8516 29.1121 16.8711 29.1838 16.8913 29.2526Z" fill="#01D0FF"/>
<path d="M22.9622 31.2944C23.3038 31.2944 23.5967 31.0427 23.5967 30.7146C23.5967 30.3865 23.3038 30.1348 22.9622 30.1348C22.6205 30.1348 22.3276 30.3865 22.3276 30.7146C22.3276 31.0427 22.6205 31.2944 22.9622 31.2944Z" fill="#01D0FF"/>
</svg>
