<svg width="57" height="56" viewBox="0 0 57 56" fill="none" xmlns="http://www.w3.org/2000/svg">
<circle cx="28.5" cy="28" r="28" fill="white"/>
<path d="M41.847 38.6021H37.0549C36.7131 38.6021 36.4365 38.8786 36.4365 39.2204C36.4365 39.5622 36.7131 39.8388 37.0549 39.8388H41.847C42.1888 39.8388 42.4654 39.5622 42.4654 39.2204C42.4654 38.8786 42.1888 38.6021 41.847 38.6021Z" fill="#003E79"/>
<path d="M41.847 40.7661H37.0549C36.7131 40.7661 36.4365 41.0427 36.4365 41.3844C36.4365 41.7263 36.7131 42.0028 37.0549 42.0028H41.847C42.1888 42.0028 42.4654 41.7263 42.4654 41.3844C42.4654 41.0427 42.1888 40.7661 41.847 40.7661Z" fill="#003E79"/>
<path d="M15.1525 19.5622H19.6742L21.8078 21.8737C17.6549 24.0388 14.8509 27.4209 14.6954 27.6115C14.5094 27.8391 14.5094 28.1664 14.6954 28.3941C14.9466 28.7015 20.9356 35.9181 28.5 35.9181C30.476 35.9181 32.3427 35.4232 34.0296 34.69L36.6007 37.4754C36.7172 37.6028 36.8821 37.6747 37.0548 37.6747H41.8469C42.1887 37.6747 42.4653 37.3982 42.4653 37.0563C42.4653 36.7145 42.1887 36.4379 41.8469 36.4379H37.3253L35.1971 34.1322C39.3335 31.9738 42.134 28.6021 42.304 28.3941C42.49 28.1664 42.49 27.8391 42.304 27.6115C42.1026 27.3646 37.4541 21.7698 31.1846 20.3984L32.4208 16.5997C32.4818 16.4119 32.4492 16.2054 32.3327 16.0453C32.2167 15.8853 32.0307 15.7905 31.8327 15.7905H25.1668C24.9687 15.7905 24.7827 15.8853 24.6668 16.0453C24.5502 16.2054 24.5176 16.4119 24.5786 16.5997L25.815 20.3983C24.8251 20.6148 23.8711 20.9241 22.9734 21.314L20.3987 18.5247C20.2822 18.3973 20.1174 18.3254 19.9446 18.3254H15.1525C14.8107 18.3254 14.5342 18.602 14.5342 18.9438C14.5342 19.2857 14.8107 19.5622 15.1525 19.5622ZM27.7372 26.3044C27.6893 26.2937 27.644 26.2754 27.5931 26.2754C27.2106 26.2754 26.9061 26.5799 26.9061 26.9623C26.9061 27.3378 27.2106 27.6494 27.5931 27.6494C27.8853 27.6494 28.1337 27.4586 28.2318 27.1979C28.3146 27.2384 28.4036 27.2673 28.5 27.2673C28.7681 27.2673 29.0054 27.0952 29.0882 26.8404L29.5021 25.5697C30.4697 25.9685 31.1316 26.9156 31.1316 27.9979C31.1316 29.4515 29.9511 30.6338 28.5 30.6338C27.0484 30.6338 25.8678 29.4515 25.8678 27.9979C25.8678 26.9219 26.5303 25.9678 27.497 25.5673L27.7372 26.3044ZM27.1133 24.3897C25.645 24.9559 24.6311 26.3841 24.6311 27.9979C24.6311 30.1331 26.3666 31.8705 28.5 31.8705C30.6328 31.8705 32.3683 30.1331 32.3683 27.9979C32.3683 26.3746 31.3582 24.9517 29.8873 24.3872L30.089 23.7678C31.8397 24.4214 33.0198 26.0877 33.0198 27.9968C33.0198 30.4925 30.9921 32.5232 28.5 32.5232C26.0073 32.5232 23.9796 30.4925 23.9796 27.9968C23.9796 26.0879 25.1596 24.4216 26.9107 23.768L27.1133 24.3897ZM30.9818 17.0273L29.1004 22.8067C29.1001 22.8076 29.0993 22.8082 29.099 22.8091L28.5 24.6508L27.9004 22.8091C27.9004 22.8089 27.9004 22.8092 27.9004 22.8091L26.0176 17.0273H30.9818ZM26.1939 21.5681L26.5286 22.5954C24.2708 23.4142 22.7429 25.5465 22.7429 27.9968C22.7429 31.1748 25.3256 33.76 28.5 33.76C31.6745 33.76 34.2565 31.1748 34.2565 27.9968C34.2565 25.5466 32.7286 23.4144 30.4709 22.5955L30.8055 21.5681C35.7873 22.611 39.8319 26.7112 41.0034 28.0028C40.1235 28.973 37.6183 31.5205 34.3128 33.1742L33.8942 32.7207C33.6635 32.4689 33.2705 32.4544 33.021 32.6851C32.7699 32.9169 32.7541 33.3082 32.9854 33.5588L33.1261 33.7112C31.6851 34.2947 30.1267 34.6814 28.5 34.6814C22.4935 34.6814 17.3445 29.4871 15.9961 28.0028C16.8769 27.0317 19.3798 24.4758 22.6834 22.8226L23.1052 23.2794C23.2266 23.4117 23.3926 23.4788 23.5593 23.4788C23.7097 23.4788 23.86 23.4244 23.9784 23.3151C24.2296 23.0832 24.2453 22.692 24.014 22.4414L23.8746 22.2903C24.6192 21.9888 25.3927 21.7359 26.1939 21.5681Z" fill="#003E79"/>
<path d="M15.1525 17.3979H19.9446C20.2864 17.3979 20.563 17.1213 20.563 16.7795C20.563 16.4376 20.2864 16.1611 19.9446 16.1611H15.1525C14.8107 16.1611 14.5342 16.4376 14.5342 16.7795C14.5342 17.1213 14.8107 17.3979 15.1525 17.3979Z" fill="#003E79"/>
<path d="M14.5342 14.6155C14.5342 14.9572 14.8107 15.2338 15.1525 15.2338H19.9446C20.2864 15.2338 20.563 14.9572 20.563 14.6155C20.563 14.2737 20.2864 13.9971 19.9446 13.9971H15.1525C14.8107 13.9971 14.5342 14.2737 14.5342 14.6155Z" fill="#003E79"/>
</svg>
