<svg width="40" height="19" viewBox="0 0 40 19" fill="none" xmlns="http://www.w3.org/2000/svg">
<path d="M31.2178 18.3437C26.4206 18.3437 22.4354 14.4177 22.4354 9.52877C22.4354 4.63988 26.4206 0.713989 31.2178 0.713989C36.0148 0.713989 40 4.63988 40 9.52877C40 14.4177 36.0885 18.3437 31.2178 18.3437ZM31.2178 1.97321C27.0849 1.97321 23.69 5.38066 23.69 9.52877C23.69 13.677 27.0849 17.0843 31.2178 17.0843C35.3505 17.0843 38.7454 13.677 38.7454 9.52877C38.7454 5.38066 35.3505 1.97321 31.2178 1.97321Z" fill="#061014"/>
<path d="M8.78229 18.1961C3.98525 18.1961 0 14.2701 0 9.38118C0 4.49229 3.91145 0.566406 8.78229 0.566406C13.6531 0.566406 17.5646 4.49229 17.5646 9.38118C17.5646 14.2701 13.6531 18.1961 8.78229 18.1961ZM8.78229 1.82563C4.64945 1.82563 1.25461 5.23307 1.25461 9.38118C1.25461 13.5294 4.64945 16.9367 8.78229 16.9367C12.9151 16.9367 16.31 13.5294 16.31 9.38118C16.31 5.23307 12.9151 1.82563 8.78229 1.82563Z" fill="#061014"/>
<path d="M16.9001 9.97374C16.9001 9.97374 16.5311 9.97374 16.4573 9.75152C16.2359 9.45519 16.2359 9.08485 16.4573 8.86263C18.45 7.08485 21.4758 7.08485 23.4685 8.86263C23.7636 9.08485 23.7636 9.5293 23.4685 9.75152C23.247 10.0479 22.8042 10.0479 22.5828 9.75152C21.033 8.41818 18.7451 8.41818 17.2691 9.75152C17.1216 9.82563 16.9739 9.89963 16.8263 9.89963L16.9001 9.97374Z" fill="#061014"/>
<path d="M31.2175 14.5663C30.1843 14.5663 29.2986 13.6774 29.2986 12.6404V11.4552H28.1179C27.0846 11.4552 26.199 10.5663 26.199 9.5293C26.199 8.49219 27.0846 7.6033 28.1179 7.6033H29.2986V6.41819C29.2986 5.38108 30.1843 4.49219 31.2175 4.49219C32.2506 4.49219 33.1363 5.38108 33.1363 6.41819V7.6033H34.3171C35.3503 7.6033 36.236 8.49219 36.236 9.5293C36.236 10.5663 35.3503 11.4552 34.3171 11.4552H33.1363V12.6404C33.1363 13.6774 32.2506 14.5663 31.2175 14.5663ZM28.1916 8.93663C28.1916 8.93663 27.5274 9.23297 27.5274 9.6033C27.5274 9.97374 27.8226 10.27 28.1916 10.27H29.9629C29.9629 10.27 30.6271 10.5663 30.6271 10.9366V12.7144C30.6271 12.7144 30.9223 13.3811 31.2913 13.3811C31.6603 13.3811 31.9555 13.0849 31.9555 12.7144V10.9366C31.9555 10.9366 32.2506 10.27 32.6196 10.27H34.3909C34.3909 10.27 35.0551 9.97374 35.0551 9.6033C35.0551 9.23297 34.7599 8.93663 34.3909 8.93663H32.6196C32.6196 8.93663 31.9555 8.64041 31.9555 8.26996V6.49219C31.9555 6.49219 31.6603 5.82552 31.2913 5.82552C30.9223 5.82552 30.6271 6.12186 30.6271 6.49219V8.26996C30.6271 8.26996 30.3319 8.93663 29.9629 8.93663H28.1916Z" fill="#01D0FF"/>
<path d="M11.8078 11.3073H5.68237C4.64916 11.3073 3.76355 10.4184 3.76355 9.38139C3.76355 8.34439 4.64916 7.45551 5.68237 7.45551H11.8078C12.841 7.45551 13.7266 8.34439 13.7266 9.38139C13.7266 10.4184 12.841 11.3073 11.8078 11.3073ZM5.68237 8.71473C5.68237 8.71473 5.01816 9.01106 5.01816 9.38139C5.01816 9.75173 5.31336 10.0481 5.68237 10.0481H11.8078C11.8078 10.0481 12.472 9.75173 12.472 9.38139C12.472 9.01106 12.1768 8.71473 11.8078 8.71473H5.68237Z" fill="#01D0FF"/>
</svg>
