<svg width="41" height="41" viewBox="0 0 41 41" fill="none" xmlns="http://www.w3.org/2000/svg">
<circle cx="20.5" cy="20.5" r="20.5" fill="#00CFFF"/>
<path d="M20.1 20.77C20.1 22.03 19.9633 23.1267 19.69 24.06C19.4233 24.9867 19.05 25.7533 18.57 26.36C18.0967 26.9667 17.5333 27.42 16.88 27.72C16.2333 28.0133 15.5333 28.16 14.78 28.16C14.0267 28.16 13.3267 28.0133 12.68 27.72C12.04 27.42 11.4833 26.9667 11.01 26.36C10.5367 25.7533 10.1667 24.9867 9.9 24.06C9.63333 23.1267 9.5 22.03 9.5 20.77C9.5 19.5033 9.63333 18.4067 9.9 17.48C10.1667 16.5533 10.5367 15.7867 11.01 15.18C11.4833 14.5733 12.04 14.1233 12.68 13.83C13.3267 13.53 14.0267 13.38 14.78 13.38C15.5333 13.38 16.2333 13.53 16.88 13.83C17.5333 14.1233 18.0967 14.5733 18.57 15.18C19.05 15.7867 19.4233 16.5533 19.69 17.48C19.9633 18.4067 20.1 19.5033 20.1 20.77ZM17.55 20.77C17.55 19.7233 17.4733 18.8567 17.32 18.17C17.1667 17.4833 16.96 16.9367 16.7 16.53C16.4467 16.1233 16.1533 15.84 15.82 15.68C15.4867 15.5133 15.14 15.43 14.78 15.43C14.4267 15.43 14.0833 15.5133 13.75 15.68C13.4233 15.84 13.1333 16.1233 12.88 16.53C12.6267 16.9367 12.4233 17.4833 12.27 18.17C12.1233 18.8567 12.05 19.7233 12.05 20.77C12.05 21.8167 12.1233 22.6833 12.27 23.37C12.4233 24.0567 12.6267 24.6033 12.88 25.01C13.1333 25.4167 13.4233 25.7033 13.75 25.87C14.0833 26.03 14.4267 26.11 14.78 26.11C15.14 26.11 15.4867 26.03 15.82 25.87C16.1533 25.7033 16.4467 25.4167 16.7 25.01C16.96 24.6033 17.1667 24.0567 17.32 23.37C17.4733 22.6833 17.55 21.8167 17.55 20.77ZM30.9516 26.15V28H22.9516V26.15H25.8816V17.72C25.8816 17.3867 25.8916 17.0433 25.9116 16.69L23.8316 18.43C23.7116 18.5233 23.5916 18.5833 23.4716 18.61C23.3582 18.63 23.2482 18.63 23.1416 18.61C23.0416 18.59 22.9516 18.5567 22.8716 18.51C22.7916 18.4567 22.7316 18.4 22.6916 18.34L21.9116 17.27L26.3216 13.52H28.3516V26.15H30.9516Z" fill="white"/>
</svg>
