<svg width="40" height="41" viewBox="0 0 40 41" fill="none" xmlns="http://www.w3.org/2000/svg">
<g clip-path="url(#clip0_6108_21700)">
<path d="M22.552 24.4715C22.552 28.6149 25.9452 31.9776 30.1174 31.9776C34.2897 31.9776 37.6828 28.6149 37.6828 24.4715C37.6828 20.3281 34.2897 16.9653 30.1174 16.9653C25.9452 16.9653 22.552 20.3281 22.552 24.4715ZM24.2391 24.4715C24.2391 21.2559 26.8776 18.6428 30.1174 18.6428C33.357 18.6428 35.9958 21.263 35.9958 24.4715C35.9958 27.6799 33.357 30.3002 30.1174 30.3002C26.8776 30.3002 24.2391 27.6871 24.2391 24.4715Z" fill="#384043" stroke="#384043" stroke-width="0.5" stroke-miterlimit="10"/>
<path d="M24.8521 24.4716C24.8521 24.7634 25.0028 25.02 25.2298 25.1702L25.0811 25.3177H25.6882C26.1508 25.3177 26.5317 24.9428 26.5317 24.479C26.5317 22.5216 28.1391 20.9243 30.1175 20.9243C30.5801 20.9243 30.961 20.5493 30.961 20.0856C30.961 19.6218 30.5801 19.2468 30.1175 19.2468C27.2139 19.2468 24.8521 21.5867 24.8521 24.4716Z" fill="#384043" stroke="#384043" stroke-width="0.5" stroke-miterlimit="10"/>
<path d="M7.61694 24.4716C7.61694 24.8483 7.86824 25.1664 8.21049 25.2726V25.3177H8.46049C8.92309 25.3177 9.30403 24.9428 9.30403 24.479C9.30403 22.521 10.9047 20.9243 12.8824 20.9243C13.345 20.9243 13.7259 20.5493 13.7259 20.0856C13.7259 19.6218 13.345 19.2468 12.8824 19.2468C9.97884 19.2468 7.61694 21.5867 7.61694 24.4716Z" fill="#384043" stroke="#384043" stroke-width="0.5" stroke-miterlimit="10"/>
<path d="M18.2026 21.9524L18.2026 21.9524L18.2044 21.9545C18.3465 22.1219 18.5414 22.2222 18.7447 22.2489L18.7594 22.2635H18.8623C19.0454 22.2635 19.2336 22.1999 19.3887 22.0769L19.3887 22.0769L19.3902 22.0757C20.6043 21.0972 22.3811 21.0894 23.618 22.0764L23.8116 22.2309L23.9679 22.0387L24.3389 21.5825L24.339 21.5826L24.3443 21.5755L24.7004 21.1045L24.847 20.9107L24.6574 20.7587C22.8226 19.2873 20.1638 19.2949 18.3293 20.772C17.9565 21.0597 17.9072 21.5967 18.2026 21.9524Z" fill="#384043" stroke="#384043" stroke-width="0.5" stroke-miterlimit="10"/>
<path d="M5.31714 24.4715C5.31714 28.6149 8.71031 31.9776 12.8826 31.9776C17.0548 31.9776 20.448 28.6149 20.448 24.4715C20.448 20.3281 17.0548 16.9653 12.8826 16.9653C8.71031 16.9653 5.31714 20.3281 5.31714 24.4715ZM7.00423 24.4715C7.00423 21.2559 9.64273 18.6428 12.8826 18.6428C16.1222 18.6428 18.7609 21.263 18.7609 24.4715C18.7609 27.6799 16.1222 30.3002 12.8826 30.3002C9.64273 30.3002 7.00423 27.6871 7.00423 24.4715Z" fill="#384043" stroke="#384043" stroke-width="0.5" stroke-miterlimit="10"/>
<path d="M35.9468 26.3098L35.9481 26.3119C36.1045 26.5808 36.3875 26.7379 36.6835 26.7379H36.6983C36.8297 26.7379 36.9777 26.7084 37.1111 26.6317C37.1117 26.6314 37.1123 26.631 37.1129 26.6307L38.1631 26.0438C38.1631 26.0438 38.1632 26.0438 38.1632 26.0438C39.3678 25.3712 40.0786 24.0575 39.9747 22.6864L39.9747 22.686L39.0474 10.6918C39.0473 10.6916 39.0473 10.6914 39.0473 10.6912C39.0363 10.5399 38.9824 10.4049 38.912 10.2952L38.912 10.2951L38.9099 10.292L36.328 6.39897L36.328 6.39895L36.3257 6.39553C36.1699 6.16895 35.909 6.02222 35.6226 6.02222H33.0406C32.7229 6.02222 32.4401 6.20059 32.2942 6.46939C32.1449 6.74426 32.1658 7.08149 32.3462 7.33558L34.8295 10.9361L35.7442 22.7099L35.7446 22.7134C35.7865 23.1705 36.1862 23.519 36.654 23.4768C37.1113 23.4355 37.4619 23.0418 37.43 22.5777L37.4298 22.5755L36.4951 10.5741C36.4951 10.5738 36.4951 10.5735 36.4951 10.5732C36.4839 10.4201 36.4287 10.2836 36.3494 10.1656L36.3494 10.1656L36.3475 10.1628L34.638 7.69233H35.1619L37.3741 11.0293L38.2816 22.8117C38.2816 22.8119 38.2816 22.8121 38.2816 22.8123C38.3337 23.5323 37.9603 24.2266 37.3268 24.5764L37.3257 24.577L36.2722 25.1658L36.2721 25.1658C35.8656 25.3933 35.7128 25.8982 35.9468 26.3098Z" fill="#01D0FF" stroke="#01D0FF" stroke-width="0.5" stroke-miterlimit="10"/>
<path d="M8.36365 7.69969L6.65943 10.1781L6.65941 10.1781L6.65794 10.1803C6.57864 10.2983 6.52344 10.4349 6.51226 10.588C6.51224 10.5883 6.51222 10.5886 6.5122 10.5888L5.57747 22.5754L5.57731 22.5777C5.54588 23.0351 5.88932 23.4424 6.35331 23.4768C6.82276 23.5266 7.23092 23.168 7.26314 22.7089C7.26317 22.7085 7.26319 22.7081 7.26322 22.7077L8.17784 10.9361L10.6611 7.3356C10.8411 7.08203 10.8623 6.74565 10.7141 6.47109C10.5657 6.18884 10.2793 6.02222 9.96669 6.02222H7.38478C7.09835 6.02222 6.83741 6.16895 6.68166 6.39553L6.68163 6.39551L6.67916 6.39925L4.1057 10.2907C4.10551 10.291 4.10532 10.2913 4.10513 10.2916C4.02016 10.4183 3.97793 10.5558 3.96749 10.6905L3.96748 10.6905L3.04007 22.686L3.04004 22.6864C2.93617 24.0575 3.64698 25.3712 4.85155 26.0438C4.85158 26.0438 4.8516 26.0438 4.85163 26.0438L5.90184 26.6307C5.90245 26.631 5.90306 26.6314 5.90367 26.6317C5.95627 26.662 6.01115 26.6849 6.0664 26.7015V26.7453H6.3164C6.61242 26.7453 6.89543 26.5882 7.05185 26.3192L7.05195 26.3193L7.05546 26.3128C7.27718 25.9044 7.12778 25.4029 6.73025 25.1746L6.7277 25.1731L5.67417 24.5844L5.67306 24.5838C5.03954 24.234 4.66618 23.5397 4.7183 22.8196C4.71831 22.8194 4.71832 22.8192 4.71834 22.8191L5.62584 11.0366L7.83802 7.69969H8.36365Z" fill="#01D0FF" stroke="#01D0FF" stroke-width="0.5" stroke-miterlimit="10"/>
</g>
<defs>
<clipPath id="clip0_6108_21700">
<rect width="39.0244" height="40" fill="white" transform="translate(0.490723 0.996094)"/>
</clipPath>
</defs>
</svg>
