<svg width="71" height="71" viewBox="0 0 71 71" fill="none" xmlns="http://www.w3.org/2000/svg">
<circle cx="35.5" cy="35.5" r="35.5" fill="#003E79"/>
<g clip-path="url(#clip0_13820_26593)">
<path d="M34.8125 36.7812C40.5419 36.7812 45.2031 32.12 45.2031 26.3906C45.2031 20.6612 40.5419 16 34.8125 16C29.0831 16 24.4219 20.6612 24.4219 26.3906C24.4219 32.12 29.0831 36.7812 34.8125 36.7812ZM34.8125 18.9688C38.9049 18.9688 42.2344 22.2982 42.2344 26.3906C42.2344 30.483 38.9049 33.8125 34.8125 33.8125C30.7201 33.8125 27.3906 30.483 27.3906 26.3906C27.3906 22.2982 30.7201 18.9688 34.8125 18.9688Z" fill="white"/>
<path d="M51.0362 33.2186C50.5714 32.4144 50.0132 31.6669 49.3699 30.9883L47.2153 33.0306C47.8639 33.7149 48.3971 34.4919 48.7999 35.3399L49.2025 36.1873H52.0312V42.1248H49.2025L48.7999 42.9722C47.9206 44.8231 46.4171 46.3267 44.5663 47.206L43.7188 47.6085V51.0311H40.75V48.0623H28.875V51.0311H25.9062V47.6085L25.0588 47.206C21.9667 45.7371 19.9688 42.5773 19.9688 39.1561C19.9688 36.8667 20.8356 34.6913 22.4097 33.0305L20.2551 30.9883C18.156 33.2029 17 36.1036 17 39.1561C17 41.4456 17.6533 43.6686 18.8893 45.585C19.9181 47.1801 21.3057 48.4995 22.9375 49.4423V53.9998H31.8438V51.0311H37.7812V53.9998H46.6875V49.442C48.4889 48.3996 49.9934 46.8949 51.0359 45.0936H55V33.2186H51.0362Z" fill="white"/>
<path d="M39.2656 24.9062H36.2969V21.9375H33.3281V27.875H39.2656V24.9062Z" fill="white"/>
<path d="M42.2344 39.1562C43.0542 39.1562 43.7188 38.4917 43.7188 37.6719C43.7188 36.8521 43.0542 36.1875 42.2344 36.1875C41.4146 36.1875 40.75 36.8521 40.75 37.6719C40.75 38.4917 41.4146 39.1562 42.2344 39.1562Z" fill="white"/>
</g>
<defs>
<clipPath id="clip0_13820_26593">
<rect width="38" height="38" fill="white" transform="translate(17 16)"/>
</clipPath>
</defs>
</svg>
