<?xml version="1.0" encoding="UTF-8"?>
<svg xmlns="http://www.w3.org/2000/svg" fill="#051821" id="Line" viewBox="0 0 64 64" width="512" height="512">
    <path d="M13.09961,60h7.80078a2.95306,2.95306,0,0,0,2.94922-2.9502V40.5h.95019A2.95327,2.95327,0,0,0,27.75,37.5498V23.8999A4.90575,4.90575,0,0,0,22.84961,19H11.15039A4.90575,4.90575,0,0,0,6.25,23.8999V37.5498A2.95327,2.95327,0,0,0,9.2002,40.5h.95019V57.0498A2.95306,2.95306,0,0,0,13.09961,60ZM9.2002,38.5a.951.951,0,0,1-.9502-.9502V23.8999A2.90315,2.90315,0,0,1,11.15039,21H22.84961A2.90315,2.90315,0,0,1,25.75,23.8999V37.5498a.951.951,0,0,1-.9502.9502H22.84961a.99974.99974,0,0,0-1,1V57.0498A.95077.95077,0,0,1,20.90039,58H13.09961a.95077.95077,0,0,1-.94922-.9502V39.5a.99973.99973,0,0,0-1-1Z"/>
    <path d="M17,17a6.50753,6.50753,0,0,0,6.5-6.5c-.30538-8.60276-12.69592-8.60056-13,.00011A6.50752,6.50752,0,0,0,17,17ZM17,6a4.50018,4.50018,0,0,1-.0001,9A4.50018,4.50018,0,0,1,17,6Z"/>
    <path d="M42.376,21.04053a1.00556,1.00556,0,0,0,1.41406,0l6.667-6.667a1.00008,1.00008,0,0,0-1.4141-1.414L43.083,18.91943,40.457,16.293a1.00008,1.00008,0,0,0-1.414,1.4141Z"/>
    <path d="M44.75,30a13.01474,13.01474,0,0,0,13-13c-.71408-17.24626-25.28855-17.24124-26,.0001A13.01474,13.01474,0,0,0,44.75,30Zm0-24a11.01245,11.01245,0,0,1,11,11c-.60422,14.593-21.398,14.58875-22-.00008A11.01246,11.01246,0,0,1,44.75,6Z"/>
</svg>
