<svg width="51" height="39" viewBox="0 0 51 39" fill="none" xmlns="http://www.w3.org/2000/svg">
<path d="M19.6305 19.8617C22.6368 20.2334 25.4422 21.1903 28.0442 22.3933C29.3075 22.9836 30.6563 23.7546 31.7136 24.3574C32.7735 24.9803 33.8485 25.5454 34.9335 26.0929L28.3431 13.0453L26.9492 10.5965L22.029 1.97927C21.3358 0.763674 19.7887 0.339218 18.5706 1.03241C17.3499 1.73565 16.928 3.28027 17.6262 4.49838L23.0663 14.0348L21.6724 15.2705L13.3591 20.0124L13.1657 20.1179C15.3131 19.6658 17.5258 19.598 19.6305 19.8617Z" fill="#FFE202"/>
<path d="M37.5606 20.0526C40.5831 20.0526 43.0333 17.6023 43.0333 14.5798C43.0333 11.5573 40.5831 9.10712 37.5606 9.10712C34.5381 9.10712 32.0879 11.5573 32.0879 14.5798C32.0879 17.6023 34.5381 20.0526 37.5606 20.0526Z" fill="#FFE202"/>
<path d="M50.6358 25.6785C49.8597 28.2578 48.6341 30.6514 46.8886 31.8896C45.1882 33.1253 43.2518 33.2031 41.117 32.7737C38.9871 32.3316 36.782 31.4149 34.622 30.3249C33.527 29.7748 32.452 29.2122 31.3871 28.5844C30.3323 27.9816 28.9785 27.2105 27.7177 26.6228C25.1182 25.4198 22.3128 24.4604 19.3014 24.0861C16.3152 23.7144 13.1004 23.958 10.202 25.1108C7.29361 26.2436 4.83227 28.2302 3.12691 30.571C1.45169 32.9344 0.291342 35.559 0 38.3016C3.25751 33.9842 7.41668 30.89 11.729 30.1692C16.0289 29.3805 20.507 30.674 24.8495 32.7159C25.9822 33.2308 26.9341 33.7507 28.1799 34.4187C29.4356 35.0466 30.7165 35.6595 32.0351 36.1743C34.6823 37.194 37.5304 38.0329 40.6699 38.053C42.2271 38.058 43.8797 37.842 45.4444 37.194C47.0141 36.5661 48.4206 35.4485 49.3373 34.1123C51.1306 31.3697 51.3139 28.3181 50.6358 25.6785Z" fill="#FFE202"/>
</svg>
