<svg width="41" height="41" viewBox="0 0 41 41" fill="none" xmlns="http://www.w3.org/2000/svg">
<path d="M2.33907 29.9379L2.33973 29.9392C2.48223 30.2255 2.77329 30.4123 3.09758 30.4123H8.52229H8.77229H8.77527V30.1623H9.02229V28.946V28.696H8.77229H4.77796L8.90239 23.0635L8.90271 23.0631C9.01122 22.9142 9.07002 22.735 9.07002 22.5509C9.07002 20.7965 7.6677 19.3604 5.93493 19.3604C4.20216 19.3604 2.79984 20.7965 2.79984 22.5509V22.8009H3.04984H4.24624H4.49624V22.5509C4.49624 21.7354 5.14689 21.0767 5.93792 21.0767C6.64467 21.0767 7.24044 21.6026 7.3592 22.2993L2.41938 29.0434C2.22493 29.303 2.19758 29.6495 2.33908 29.9379L2.33907 29.9379Z" fill="#01D0FF" stroke="#01D0FF" stroke-width="0.5"/>
<path d="M15.8283 30.4125H16.0783V30.1625V26.8637H17.0427H17.2927V26.6137V25.3974V25.1474H17.0427H16.0783V20.2156C16.0783 19.8412 15.8397 19.509 15.4829 19.3964L15.4829 19.3964L15.481 19.3958C15.1293 19.2878 14.7394 19.4211 14.531 19.7368C14.5309 19.7371 14.5307 19.7373 14.5306 19.7376L10.6655 25.525C10.6654 25.5252 10.6653 25.5254 10.6651 25.5256C10.4891 25.7866 10.4682 26.1245 10.6151 26.4068L10.6151 26.4068L10.6158 26.4082C10.7624 26.6855 11.049 26.8637 11.365 26.8637H14.3849V30.1625V30.4125H14.6349H15.8283ZM14.3849 23.0138V25.1474H12.9603L14.3849 23.0138Z" fill="#01D0FF" stroke="#01D0FF" stroke-width="0.5"/>
<path d="M21.855 8.21338H20.6616V10.6339H21.855V8.21338Z" fill="#061014" fill-opacity="0.9"/>
<path d="M22.105 8.21338V7.96338H21.855H20.6616H20.4116V8.21338V10.6339V10.8839H20.6616H21.855H22.105V10.6339V8.21338Z" stroke="#061014" stroke-opacity="0.9" stroke-width="0.5"/>
<path d="M21.855 31.1357H20.6616V33.5563H21.855V31.1357Z" fill="#061014" fill-opacity="0.9"/>
<path d="M22.105 31.1357V30.8857H21.855H20.6616H20.4116V31.1357V33.5563V33.8063H20.6616H21.855H22.105V33.5563V31.1357Z" stroke="#061014" stroke-opacity="0.9" stroke-width="0.5"/>
<path d="M33.6908 20.2764H31.3159V21.4927H33.6908V20.2764Z" fill="#061014" fill-opacity="0.9"/>
<path d="M33.9408 20.2764V20.0264H33.6908H31.3159H31.0659V20.2764V21.4927V21.7427H31.3159H33.6908H33.9408V21.4927V20.2764Z" stroke="#061014" stroke-opacity="0.9" stroke-width="0.5"/>
<path d="M21.2405 21.4289C21.0883 21.4289 20.9361 21.3681 20.8198 21.2495L18.6179 19.0053L19.4623 18.1447L21.2405 19.9571L26.402 14.6963L27.2463 15.5569L21.6611 21.2495C21.5448 21.3681 21.3926 21.4289 21.2405 21.4289Z" fill="#061014" fill-opacity="0.9"/>
<path d="M18.4395 18.8302L18.2677 19.0053L18.4395 19.1803L20.6413 21.4245C20.8048 21.5912 21.0213 21.6789 21.2405 21.6789C21.4596 21.6789 21.6761 21.5912 21.8396 21.4245L27.4248 15.732L27.5966 15.5569L27.4248 15.3818L26.5804 14.5212L26.402 14.3393L26.2235 14.5212L21.2405 19.6001L19.6407 17.9696L19.4623 17.7877L19.2838 17.9696L18.4395 18.8302Z" stroke="#061014" stroke-opacity="0.9" stroke-width="0.5"/>
<path d="M5.87518 11.6404C5.32024 11.0747 5.01294 10.3206 5.01294 9.52084C5.01294 8.72108 5.31726 7.96693 5.87518 7.40132L8.41717 4.81046C8.97211 4.24485 9.71203 3.93164 10.4967 3.93164C11.2814 3.93164 12.0213 4.24485 12.5762 4.81046L11.7319 5.67104C11.4007 5.3335 10.9621 5.14801 10.4967 5.14801C10.0313 5.14801 9.5897 5.3335 9.26151 5.67104L6.71953 8.2619C6.38836 8.59944 6.20934 9.04646 6.20934 9.52084C6.20934 9.99522 6.39134 10.4422 6.71953 10.7798L5.87518 11.6404Z" fill="#061014" fill-opacity="0.9"/>
<path d="M5.69673 11.8154L5.87518 11.9973L6.05364 11.8154L6.89798 10.9549L7.06899 10.7806L6.89877 10.6055C6.61601 10.3147 6.45934 9.93022 6.45934 9.52084C6.45934 9.11049 6.61367 8.72677 6.89798 8.43699L9.43997 5.84613L9.44075 5.84532C9.72189 5.55617 10.0988 5.39801 10.4967 5.39801C10.8939 5.39801 11.2685 5.55573 11.5534 5.84613L11.7319 6.02801L11.9103 5.84613L12.7547 4.98555L12.9265 4.81046L12.7547 4.63538C12.1534 4.02251 11.3494 3.68164 10.4967 3.68164C9.64398 3.68164 8.84002 4.02251 8.23872 4.63538L5.6972 7.22576C5.69711 7.22585 5.69702 7.22595 5.69693 7.22604C5.09211 7.83933 4.76294 8.65682 4.76294 9.52084C4.76294 10.3856 5.09558 11.2027 5.69673 11.8154Z" stroke="#061014" stroke-opacity="0.9" stroke-width="0.5"/>
<path d="M6.9612 12.495C6.80307 12.495 6.65091 12.4312 6.54052 12.3156L5.87817 11.6406L6.72252 10.78L6.96419 11.0263L11.9736 5.91451L11.7319 5.6682L12.5762 4.80762L13.2386 5.4827C13.4713 5.71989 13.4713 6.10609 13.2386 6.34328L7.38188 12.3156C7.27149 12.4312 7.11933 12.495 6.9612 12.495Z" fill="#061014" fill-opacity="0.9"/>
<path d="M6.96408 10.6692L6.90097 10.6049L6.72252 10.423L6.54407 10.6049L5.69972 11.4655L5.52794 11.6406L5.69972 11.8156L6.361 12.4896C6.51909 12.6544 6.7363 12.745 6.9612 12.745C7.18611 12.745 7.40333 12.6544 7.56142 12.4896L13.417 6.51836C13.7452 6.18394 13.7452 5.64204 13.417 5.30761L12.7547 4.63253L12.5762 4.45065L12.3978 4.63253L11.5534 5.49311L11.3817 5.6682L11.5534 5.84328L11.6234 5.91461L6.96408 10.6692Z" stroke="#061014" stroke-opacity="0.9" stroke-width="0.5"/>
<path d="M36.6385 11.6404L35.7942 10.7798C36.1254 10.4422 36.3044 9.99522 36.3044 9.52084C36.3044 9.04646 36.1224 8.5964 35.7942 8.2619L33.2522 5.67104C32.921 5.3335 32.4825 5.14801 32.017 5.14801C31.5516 5.14801 31.11 5.3335 30.7818 5.67104L29.9375 4.81046C30.4924 4.24485 31.2324 3.93164 32.017 3.93164C32.8017 3.93164 33.5416 4.24485 34.0966 4.81046L36.6385 7.40132C37.1935 7.96693 37.5008 8.72108 37.5008 9.52084C37.5008 10.3206 37.1935 11.0747 36.6385 11.6404Z" fill="#061014" fill-opacity="0.9"/>
<path d="M36.4601 11.8154L36.6385 11.9973L36.817 11.8154C37.4182 11.2027 37.7508 10.3856 37.7508 9.52084C37.7508 8.65611 37.4182 7.83895 36.817 7.22624L34.275 4.63538C33.6737 4.02251 32.8698 3.68164 32.017 3.68164C31.1643 3.68164 30.3604 4.02251 29.759 4.63538L29.5873 4.81046L29.759 4.98555L30.6034 5.84613L30.7827 6.02884L30.9611 5.84532C31.2422 5.55617 31.6192 5.39801 32.017 5.39801C32.4143 5.39801 32.7889 5.55573 33.0738 5.84613L35.6158 8.43699C35.8973 8.72395 36.0544 9.11082 36.0544 9.52084C36.0544 9.93119 35.9001 10.3149 35.6158 10.6047L35.444 10.7798L35.6158 10.9549L36.4601 11.8154Z" stroke="#061014" stroke-opacity="0.9" stroke-width="0.5"/>
<path d="M35.5555 12.4949C35.3974 12.4949 35.2452 12.4311 35.1348 12.3155L29.2751 6.34621C29.0424 6.10902 29.0424 5.72282 29.2751 5.48563L29.9375 4.81055L30.7818 5.67113L30.5401 5.91744L35.5555 11.0292L35.7972 10.7829L36.6415 11.6435L35.9792 12.3186C35.8688 12.4341 35.7166 12.498 35.5585 12.498L35.5555 12.4949Z" fill="#061014" fill-opacity="0.9"/>
<path d="M35.6187 10.6078L35.5555 10.6722L30.8904 5.91744L30.9603 5.84621L31.1321 5.67113L30.9603 5.49604L30.1159 4.63546L29.9375 4.45358L29.759 4.63546L29.0967 5.31054L29.2751 5.48563L29.0967 5.31054C28.7686 5.64497 28.7686 6.18687 29.0967 6.52129L29.0967 6.52134L34.9553 12.4895C35.0869 12.6266 35.2593 12.7124 35.4431 12.7374L35.4535 12.748H35.5585C35.7834 12.748 36.0006 12.6573 36.1587 12.4926L36.82 11.8186L36.9917 11.6435L36.82 11.4684L35.9756 10.6078L35.7972 10.4259L35.6187 10.6078Z" stroke="#061014" stroke-opacity="0.9" stroke-width="0.5"/>
<path d="M21.2584 35.764C17.3529 35.764 13.6772 34.2162 10.9114 31.4064L11.7528 30.5458C14.2948 33.1276 17.6692 34.5477 21.2584 34.5477C28.6844 34.5477 34.7261 28.3898 34.7261 20.821C34.7261 13.2521 28.6814 7.0943 21.2584 7.0943C14.9362 7.0943 9.39578 11.6617 8.086 17.9534L6.91943 17.701C8.34557 10.8529 14.3753 5.87793 21.2584 5.87793C29.3408 5.87793 35.9195 12.5801 35.9195 20.821C35.9195 29.0619 29.3438 35.764 21.2584 35.764Z" fill="#061014" fill-opacity="0.9"/>
<path d="M10.7327 31.2316L10.5612 31.407L10.7333 31.5818C13.5455 34.4388 17.2852 36.014 21.2584 36.014C29.4863 36.014 36.1695 29.1954 36.1695 20.821C36.1695 12.4465 29.4833 5.62793 21.2584 5.62793C14.2539 5.62793 8.12436 10.6889 6.67468 17.65L6.62411 17.8929L6.86657 17.9453L8.03313 18.1977L8.2794 18.251L8.33075 18.0044C9.61698 11.8258 15.0575 7.3443 21.2584 7.3443C28.5389 7.3443 34.4761 13.3857 34.4761 20.821C34.4761 28.2563 28.5419 34.2977 21.2584 34.2977C17.7368 34.2977 14.4264 32.9049 11.9309 30.3704L11.7522 30.1889L11.574 30.3711L10.7327 31.2316Z" stroke="#061014" stroke-opacity="0.9" stroke-width="0.5"/>
<path d="M30.7294 31.5955L29.8855 32.4556L34.2779 36.9324L35.1217 36.0723L30.7294 31.5955Z" fill="#061014" fill-opacity="0.9"/>
<path d="M30.9045 31.417L30.7294 31.2386L30.5543 31.417L29.7104 32.2771L29.5353 32.4556L29.7104 32.634L34.1028 37.1108L34.2779 37.2893L34.453 37.1108L35.2968 36.2507L35.4719 36.0723L35.2968 35.8938L30.9045 31.417Z" stroke="#061014" stroke-opacity="0.9" stroke-width="0.5"/>
<path d="M11.7881 31.594L7.39575 36.0708L8.23963 36.9309L12.632 32.4541L11.7881 31.594Z" fill="#061014" fill-opacity="0.9"/>
<path d="M11.9632 31.4155L11.7881 31.2371L11.613 31.4155L7.22067 35.8923L7.04558 36.0708L7.22067 36.2493L8.06454 37.1094L8.23963 37.2878L8.41471 37.1094L12.8071 32.6325L12.9822 32.4541L12.8071 32.2756L11.9632 31.4155Z" stroke="#061014" stroke-opacity="0.9" stroke-width="0.5"/>
</svg>
