<svg width="25" height="25" viewBox="0 0 25 25" fill="none" xmlns="http://www.w3.org/2000/svg">
<g clip-path="url(#clip0_13169_886)">
<g clip-path="url(#clip1_13169_886)">
<path fill-rule="evenodd" clip-rule="evenodd" d="M12.5 0.498535C16.9941 0.498535 20.739 4.2435 20.739 8.73757C20.739 10.2043 20.2349 11.6508 19.5303 12.9614C18.823 14.277 17.8866 15.5055 16.9564 16.5513C16.0244 17.5992 15.0827 18.4814 14.3489 19.1048C13.9825 19.4161 13.6617 19.6681 13.4144 19.8465C13.2922 19.9346 13.1778 20.0121 13.079 20.0714C13.031 20.1002 12.9724 20.1335 12.9101 20.1623C12.8791 20.1765 12.8345 20.1957 12.7812 20.2127C12.7394 20.2261 12.6347 20.2575 12.5 20.2575C12.3641 20.2575 12.2587 20.2256 12.2167 20.212C12.1632 20.1947 12.1184 20.1753 12.0873 20.1609C12.0249 20.1318 11.9663 20.0984 11.9182 20.0692C11.8195 20.0094 11.7051 19.9312 11.583 19.8424C11.3359 19.6628 11.0153 19.409 10.649 19.0957C9.91561 18.4686 8.97433 17.5818 8.04277 16.5311C7.11306 15.4825 6.1772 14.2529 5.47009 12.9403C4.76601 11.6334 4.261 10.1928 4.261 8.73757C4.261 4.2435 8.00596 0.498535 12.5 0.498535ZM12.5 11.1982C11.141 11.1982 10.0394 10.0965 10.0394 8.73757C10.0394 7.3786 11.141 6.27693 12.5 6.27693C13.859 6.27693 14.9606 7.3786 14.9606 8.73757C14.9606 10.0965 13.859 11.1982 12.5 11.1982ZM17.8129 17.9108C18.1292 17.5552 18.4457 17.1827 18.7563 16.7957H19.4792H21.0587C21.4016 16.7957 21.7115 17 21.8466 17.3152L24.4141 23.3063C24.5276 23.5712 24.5005 23.8753 24.3419 24.1158C24.1834 24.3563 23.9144 24.501 23.6264 24.501H1.37369C1.08556 24.501 0.816716 24.3563 0.658108 24.1158C0.499499 23.8753 0.472351 23.5712 0.585848 23.3063L3.15345 17.3152C3.28852 17 3.59841 16.7957 3.9413 16.7957H5.52073H6.26473C6.56828 17.1737 6.87728 17.5379 7.186 17.8861C8.32005 19.1653 9.46614 20.2451 10.3584 21.008C10.8041 21.3892 11.1927 21.6966 11.4903 21.9129C11.6375 22.0201 11.7727 22.1123 11.8872 22.1816C11.9431 22.2155 12.0083 22.2525 12.0759 22.2841C12.1096 22.2999 12.1566 22.3201 12.212 22.3379C12.2559 22.3521 12.3629 22.3844 12.4999 22.3844C12.6358 22.3844 12.742 22.3526 12.7858 22.3388C12.8409 22.3211 12.8877 22.301 12.9213 22.2854C12.9888 22.2542 13.054 22.2176 13.1099 22.184C13.2244 22.1152 13.3596 22.0237 13.507 21.9174C13.8047 21.7026 14.1934 21.3974 14.6394 21.0186C15.5319 20.2604 16.6785 19.1862 17.8129 17.9108Z" fill="#293C4E"/>
</g>
</g>
<defs>
<clipPath id="clip0_13169_886">
<rect width="24" height="24" fill="white" transform="translate(0.5 0.5)"/>
</clipPath>
<clipPath id="clip1_13169_886">
<rect width="24" height="24" fill="white" transform="translate(0.5 0.5)"/>
</clipPath>
</defs>
</svg>
