<svg width="48" height="48" viewBox="0 0 48 48" fill="none" xmlns="http://www.w3.org/2000/svg">
<circle cx="24" cy="24" r="24" fill="#C699FF"/>
<path fill-rule="evenodd" clip-rule="evenodd" d="M21.0934 22.7193C19.973 22.4217 17.7143 21.5869 17.7143 19.6933C17.7143 17.1751 20.7875 13.7143 20.7875 13.7143C20.7875 13.7143 21.7882 12 24.6027 12C27.4172 12 28.8557 13.7143 28.8557 13.7143C28.8557 13.7143 30.8572 15.9581 30.8572 19.6933C30.8572 21.6178 29.7282 22.399 28.6336 22.7043C27.7447 23.762 26.3738 24.4321 24.8572 24.4321C23.3477 24.4321 21.9826 23.7683 21.0934 22.7193ZM21.4258 21.0956C21.9536 22.3662 23.2726 23.2892 24.8572 23.2892C25.5085 23.2892 26.1149 23.1333 26.64 22.8614C26.6165 22.8588 26.6041 22.8571 26.6041 22.8571C26.6041 22.8571 30.0199 19.5609 27.1429 15.4286C26.8301 14.8475 22.0697 16.2857 21.4286 17.1429C21.0437 17.6575 21.2219 19.6141 21.4258 21.0956Z" fill="#7000FF"/>
<path d="M18.5328 28.2527C18.0417 28.5542 17.7142 29.0962 17.7142 29.7146C17.7142 30.6614 18.4817 31.4289 19.4285 31.4289C20.3753 31.4289 21.1427 30.6614 21.1427 29.7146C21.1427 28.8438 20.4934 28.1246 19.6524 28.0148C19.6337 27.9477 19.6141 27.8703 19.5942 27.7835C19.5258 27.4844 19.4605 27.105 19.4118 26.7153C19.3631 26.3248 19.3329 25.9377 19.3309 25.6218C19.3301 25.5059 19.3333 25.405 19.3397 25.3204C19.5595 25.2573 19.7799 25.2005 19.9999 25.1504C20.2521 25.093 20.4013 25.3906 20.5222 25.6318C20.5243 25.636 20.5265 25.6402 20.5286 25.6444C20.5431 25.6735 20.5574 25.7017 20.5713 25.7282H22.8935C23.4129 25.728 23.6715 25.7281 23.9311 25.7282H23.9416C24.1958 25.7282 24.4546 25.7283 24.9628 25.7282H27.2852C27.4156 25.4804 27.7126 25.085 27.9999 25.1504C28.3063 25.2202 28.6139 25.3031 28.9193 25.3978L28.9174 25.3987C28.9167 25.3974 28.9167 25.3976 28.9174 25.3996C28.9201 25.4076 28.9327 25.445 28.9451 25.526C28.9594 25.6182 28.9693 25.7381 28.9733 25.8824C28.9814 26.1706 28.9653 26.5209 28.9311 26.8739C28.897 27.2264 28.8462 27.5677 28.7891 27.8371C28.7765 27.8968 28.7638 27.9512 28.7514 28.0003H27.9999C27.7834 28.0003 27.5856 28.1226 27.4888 28.3162L26.9174 29.4591C26.8777 29.5384 26.857 29.6259 26.857 29.7146V30.8575C26.857 31.1731 27.1129 31.4289 27.4285 31.4289H28.5713V30.286H27.9999V29.8495L28.353 29.1432H29.9325L30.2856 29.8495V30.286H29.7142V31.4289H30.857C31.1726 31.4289 31.4285 31.1731 31.4285 30.8575V29.7146C31.4285 29.6259 31.4078 29.5384 31.3681 29.4591L30.7967 28.3162C30.6999 28.1226 30.5021 28.0003 30.2856 28.0003H29.9223C29.9834 27.6959 30.0342 27.3402 30.0686 26.9839C30.1059 26.5988 30.1255 26.1991 30.1157 25.8504L30.1153 25.8347C32.3939 26.7974 34.2856 28.381 34.2856 30.0403V33.1432H13.7142V30.0403C13.7142 28.3075 15.777 26.6574 18.189 25.7106C18.1955 26.0658 18.2292 26.4679 18.2777 26.8568C18.3301 27.2766 18.4015 27.6948 18.4802 28.0386C18.4971 28.1122 18.5146 28.1839 18.5328 28.2527Z" fill="#7000FF"/>
<path d="M24 30.2942C24.3077 30.2942 24.5715 30.0425 24.5715 29.7144C24.5715 29.3863 24.3077 29.1346 24 29.1346C23.6924 29.1346 23.4286 29.3863 23.4286 29.7144C23.4286 30.0425 23.6924 30.2942 24 30.2942Z" fill="#7000FF"/>
</svg>
