<svg width="130" height="22" viewBox="0 0 130 22" fill="none" xmlns="http://www.w3.org/2000/svg">
<path d="M11 1L14.09 7.26L21 8.27L16 13.14L17.18 20.02L11 16.77L4.82 20.02L6 13.14L1 8.27L7.91 7.26L11 1Z" fill="#FFE202"/>
<path d="M38 1L41.09 7.26L48 8.27L43 13.14L44.18 20.02L38 16.77L31.82 20.02L33 13.14L28 8.27L34.91 7.26L38 1Z" fill="#FFE202"/>
<path d="M65 1L68.09 7.26L75 8.27L70 13.14L71.18 20.02L65 16.77L58.82 20.02L60 13.14L55 8.27L61.91 7.26L65 1Z" fill="#FFE202"/>
<path d="M92 1L95.09 7.26L102 8.27L97 13.14L98.18 20.02L92 16.77L85.82 20.02L87 13.14L82 8.27L88.91 7.26L92 1Z" fill="#FFE202"/>
<path d="M118 1L121.09 7.26L128 8.27L123 13.14L124.18 20.02L118 16.77L111.82 20.02L113 13.14L108 8.27L114.91 7.26L118 1Z" fill="#FFE202"/>
</svg>
