<svg width="41" height="41" viewBox="0 0 41 41" fill="none" xmlns="http://www.w3.org/2000/svg">
<g clip-path="url(#clip0_4416_37706)">
<path d="M38.4502 14.6527V14.1984C38.4502 13.7873 38.116 13.452 37.7063 13.452C37.1027 13.452 36.0247 13.2681 34.6771 12.9328L34.4292 12.8354C34.4292 12.8354 34.3753 12.8138 34.3537 12.8138C31.5401 12.1215 25.8374 10.672 17.8709 8.6383H17.817C17.817 8.6383 17.7847 8.61666 17.7739 8.61666C17.5475 8.57339 17.3319 8.55176 17.1163 8.55176C16.7498 8.55176 16.394 8.61666 16.0059 8.74647C15.9951 8.74647 15.9844 8.74647 15.9736 8.75729L15.8766 8.78974C15.8011 8.81137 15.7256 8.85464 15.661 8.89791L3.1021 18.0277C2.86494 18.1575 2.63855 18.3198 2.43373 18.5145C2.43373 18.5145 2.41217 18.5361 2.40139 18.547C1.84082 19.1095 1.5282 19.8558 1.5282 20.6455C1.5282 22.1816 2.67089 23.4472 4.20167 23.5986C4.49274 23.6527 4.7838 23.6635 5.11799 23.6095C5.25813 23.5878 5.37671 23.5662 5.49529 23.5229C5.63543 23.4796 5.78635 23.4147 5.93728 23.339C6.01274 23.3066 6.0882 23.2633 6.16366 23.2092C6.18522 23.1984 6.21756 23.1768 6.23912 23.1659L7.61898 22.1707L7.79146 22.0518C7.42494 22.7332 7.23089 23.5013 7.23089 24.3018C7.23089 24.8102 7.30635 25.3186 7.46806 25.7945C7.64054 26.3246 7.91004 26.8114 8.25501 27.2441C8.40593 27.428 8.56763 27.601 8.71855 27.7417L14.8525 34.2537C14.971 34.3835 15.1435 34.4592 15.3268 34.4592C15.51 34.4592 15.6825 34.3835 15.8011 34.2537L22.1506 27.5037C22.1506 27.5037 22.1722 27.482 22.1829 27.4712C22.5279 27.0926 22.8082 26.6491 23.013 26.1732H24.0371C24.7055 26.1948 25.5464 26.2056 26.5812 26.2056C29.0391 26.2056 30.7639 25.232 32.1115 24.2801C32.4456 24.053 32.769 23.8042 33.0925 23.5662C34.5586 22.4736 35.8306 21.5325 37.6956 21.5325C37.9327 21.5325 38.1591 21.4135 38.2993 21.2188C38.4178 21.0566 38.461 20.851 38.4286 20.6563V14.7825C38.4286 14.7825 38.4286 14.6852 38.4286 14.6419L38.4502 14.6527ZM21.2235 26.6058C21.2235 26.6058 21.202 26.6275 21.202 26.6383L15.3483 32.8582L9.67799 26.833L9.63486 26.7897C9.51628 26.6816 9.3977 26.5626 9.30068 26.4328C9.05274 26.1191 8.85869 25.7729 8.74011 25.3943C8.62153 25.0482 8.56763 24.6804 8.56763 24.3126C8.56763 23.4364 8.88025 22.6251 9.46238 22.0085C10.0229 21.4027 10.7668 21.0674 11.5645 21.0674C12.7288 21.0674 13.796 21.8138 14.2811 22.9604C14.4644 23.4039 14.8848 23.6852 15.3591 23.6852C15.8334 23.6852 16.2431 23.4039 16.4371 22.9604C16.9222 21.8138 17.9895 21.0674 19.1537 21.0674C19.9083 21.0674 20.609 21.3703 21.1588 21.922H18.8734C17.6984 21.922 16.7498 22.8739 16.7498 24.053C16.7498 25.232 17.6984 26.184 18.8734 26.184H21.5793C21.4822 26.3354 21.3744 26.476 21.2451 26.6058H21.2235ZM11.3381 19.7693L15.1974 17.2597C15.2944 17.2489 15.4238 17.2381 15.5639 17.2489C16.0167 17.357 17.6229 17.7789 20.3503 18.5037L20.4689 18.5361C21.0834 18.7092 21.7086 18.8823 22.3123 19.0229C23.1532 19.2501 23.8323 19.4232 24.1018 19.4989C24.4899 19.7477 24.7163 20.1587 24.7163 20.6131C24.7163 21.2513 24.2743 21.7921 23.6598 21.9111H22.7651C22.5926 21.6191 22.3986 21.3486 22.1722 21.0998C21.3637 20.2345 20.2749 19.7477 19.1214 19.7477C17.5367 19.7477 16.0706 20.6888 15.3268 22.1707C14.5829 20.6888 13.1276 19.7477 11.5322 19.7477C11.4675 19.7477 11.4028 19.7477 11.3273 19.7585L11.3381 19.7693ZM36.9517 15.5722V20.083C34.9898 20.2994 33.5883 21.3595 32.2085 22.3763C31.8959 22.6034 31.5832 22.8414 31.2706 23.0578C30.0417 23.9123 28.6295 24.7128 26.592 24.7128C25.5679 24.7128 24.7486 24.7128 24.0695 24.6804H18.8411C18.4961 24.6804 18.2051 24.3991 18.2051 24.0421C18.2051 23.6852 18.4854 23.4147 18.8411 23.4147H23.7245C23.7245 23.4147 23.8108 23.4147 23.8431 23.4147C25.2122 23.1876 26.2039 22.0193 26.2039 20.6239C26.2039 19.5962 25.6434 18.6551 24.7378 18.1575C24.6839 18.1251 24.63 18.1034 24.5761 18.0926C24.4252 18.0494 23.6706 17.8546 22.6681 17.5842C22.0644 17.4436 21.4607 17.2813 20.857 17.1082L20.7169 17.0758C17.7739 16.297 16.1676 15.8751 15.8227 15.7885C15.7795 15.7885 15.7364 15.7669 15.6933 15.7669C15.316 15.7453 15.0034 15.7669 14.7123 15.8426C14.6369 15.8643 14.5506 15.8967 14.4859 15.94L6.78891 20.9484C6.78891 20.9484 6.76735 20.9592 6.75657 20.97L5.39827 21.9544C5.39827 21.9544 5.38749 21.9544 5.37671 21.9652C5.33359 21.9869 5.29047 22.0085 5.24735 22.0301C5.16111 22.0734 5.09643 22.095 5.04252 22.1167C4.98862 22.1383 4.93472 22.1491 4.88082 22.1491C4.74068 22.1707 4.57898 22.1707 4.43884 22.1491C4.4065 22.1491 4.38494 22.1491 4.3526 22.1383C3.58721 22.0734 3.00508 21.446 3.00508 20.678C3.00508 20.2885 3.156 19.9207 3.44706 19.6395C3.44706 19.6395 3.44706 19.6395 3.45784 19.6287C3.56564 19.5205 3.69501 19.434 3.81359 19.3691C3.84593 19.3474 3.87827 19.3258 3.91061 19.3042L4.43884 18.9147L16.4479 10.1744C16.4479 10.1744 16.491 10.1635 16.5018 10.1527C16.8468 10.0337 17.1378 10.0121 17.4505 10.077H17.4828C25.417 12.1107 31.1089 13.5494 33.9333 14.2525L34.1812 14.339C34.1812 14.339 34.2351 14.3607 34.2567 14.3607C35.3455 14.6311 36.251 14.815 36.941 14.8907V15.5506L36.9517 15.5722Z" fill="#384043" stroke="#384043" stroke-miterlimit="10"/>
<circle cx="19" cy="23" r="4" fill="#01D0FF"/>
</g>
<defs>
<clipPath id="clip0_4416_37706">
<rect width="38" height="27" fill="white" transform="translate(1 8)"/>
</clipPath>
</defs>
</svg>
