<svg width="81" height="81" viewBox="0 0 81 81" fill="none" xmlns="http://www.w3.org/2000/svg">
<path d="M31.741 46.8727C24.9124 46.8727 19.1986 41.2079 19.1986 34.127C19.1986 27.0461 24.773 21.3813 31.741 21.3813C38.709 21.3813 44.2834 27.0461 44.2834 34.127C44.2834 41.2079 38.709 46.8727 31.741 46.8727ZM31.741 23.9305C26.1666 23.9305 21.5677 28.604 21.5677 34.2687C21.5677 39.9335 26.1666 44.6068 31.741 44.6068C37.3154 44.6068 41.9142 39.9335 41.9142 34.2687C41.9142 28.604 37.3154 23.9305 31.741 23.9305Z" fill="#061014"/>
<path d="M31.741 51.6878C11.5339 51.6878 2.05742 35.4017 1.63934 34.6936C1.36062 34.2687 1.36062 33.8439 1.63934 33.419C2.05742 32.7109 11.5339 16.4248 31.741 16.4248C45.8164 16.4248 54.8747 24.4971 58.9162 29.3121C59.3343 29.8786 59.3343 30.5866 58.9162 31.0115C58.3587 31.4364 57.6619 31.4364 57.2439 31.0115C53.4811 26.4797 45.1196 18.9739 31.8804 18.9739C15.0179 18.9739 5.95949 31.2947 4.14781 34.1271C6.09885 36.9595 15.1572 49.2803 31.8804 49.2803C34.8069 49.2803 37.5941 48.8554 40.242 48.1473C40.9388 48.0057 41.4962 48.4306 41.6356 48.9971C41.7749 49.7051 41.3569 50.2716 40.7994 50.4132C37.8729 51.1213 34.9463 51.5462 31.8804 51.5462L31.741 51.6878Z" fill="#061014"/>
<path d="M35.6431 34.1272C35.6431 36.2514 33.9708 37.9509 31.8804 37.9509C29.79 37.9509 28.1177 36.2514 28.1177 34.1272C28.1177 32.0029 29.79 30.3035 31.8804 30.3035C33.9708 30.3035 35.6431 32.0029 35.6431 34.1272Z" fill="#01D0FF"/>
<path d="M59.4736 65.5664C50.694 65.5664 43.4473 58.2022 43.4473 49.2803C43.4473 40.3583 50.694 32.9941 59.4736 32.9941C68.2533 32.9941 75.5 40.3583 75.5 49.2803C75.5 58.2022 68.2533 65.5664 59.4736 65.5664ZM59.4736 35.4016C51.9482 35.4016 45.8164 41.6329 45.8164 49.2803C45.8164 56.9277 51.9482 63.1589 59.4736 63.1589C66.9991 63.1589 73.1309 56.9277 73.1309 49.2803C73.1309 41.6329 66.9991 35.4016 59.4736 35.4016Z" fill="#061014"/>
<path d="M59.4736 60.4682C56.9652 60.4682 54.8748 58.344 54.8748 55.7948V53.9538H53.0631C50.5546 53.9538 48.4642 51.8295 48.4642 49.2804C48.4642 46.7312 50.5546 44.607 53.0631 44.607H54.8748V42.7659C54.8748 40.2168 56.9652 38.0925 59.4736 38.0925C61.9821 38.0925 64.0725 40.2168 64.0725 42.7659V44.607H65.8842C68.3927 44.607 70.4831 46.7312 70.4831 49.2804C70.4831 51.8295 68.3927 53.9538 65.8842 53.9538H64.0725V55.7948C64.0725 58.344 61.9821 60.4682 59.4736 60.4682ZM53.0631 47.0145C51.8089 47.0145 50.8333 48.0058 50.8333 49.2804C50.8333 50.5549 51.8089 51.5463 53.0631 51.5463H55.9897C55.9897 51.5463 57.2439 52.1128 57.2439 52.8208V55.9365C57.2439 57.211 58.2194 58.2023 59.4736 58.2023C60.7279 58.2023 61.7034 57.211 61.7034 55.9365V52.8208C61.7034 52.8208 62.2608 51.5463 62.9576 51.5463H65.8842C67.1384 51.5463 68.114 50.5549 68.114 49.2804C68.114 48.0058 67.1384 47.0145 65.8842 47.0145H62.9576C62.9576 47.0145 61.7034 46.448 61.7034 45.7399V42.6243C61.7034 41.3497 60.7279 40.3584 59.4736 40.3584C58.2194 40.3584 57.2439 41.3497 57.2439 42.6243V45.7399C57.2439 45.7399 56.6865 47.0145 55.9897 47.0145H53.0631Z" fill="#01D0FF"/>
</svg>
