<svg width="161" height="28" viewBox="0 0 161 28" fill="none" xmlns="http://www.w3.org/2000/svg">
<g clip-path="url(#clip0_12982_2512)">
<path d="M15.7345 1.36884L18.9941 7.97385C19.1947 8.38016 19.5825 8.66172 20.0306 8.72687L27.3197 9.78602C28.4489 9.95008 28.8998 11.3378 28.0827 12.1344L22.8084 17.2756C22.4839 17.5918 22.3358 18.0475 22.4125 18.4941L23.6575 25.7535C23.8504 26.8782 22.6699 27.7359 21.6599 27.2048L15.1406 23.7773C14.7394 23.5664 14.2605 23.5664 13.8593 23.7773L7.33993 27.2048C6.32992 27.7357 5.14944 26.8782 5.34234 25.7535L6.58755 18.4941C6.66403 18.0475 6.51599 17.5918 6.1915 17.2756L0.917145 12.1344C0.10025 11.3378 0.550995 9.95029 1.68021 9.78602L8.96924 8.72687C9.41763 8.66172 9.80514 8.38016 10.0057 7.97385L13.2654 1.36884C13.7704 0.345802 15.2295 0.345802 15.7345 1.36884Z" fill="#FADC60"/>
<path d="M14.5 13.347V0.601562C14.0091 0.601562 13.518 0.857483 13.2655 1.36911L10.0058 7.97391C9.80524 8.38022 9.41772 8.66199 8.96933 8.72714L1.6803 9.78607C0.55109 9.95013 0.100131 11.3378 0.917239 12.1344L6.19159 17.2757C6.51608 17.5919 6.66412 18.0475 6.58765 18.4942L5.34244 25.7535C5.14954 26.8783 6.33002 27.736 7.34003 27.2049L13.8594 23.7773C14.2606 23.5665 14.7397 23.5665 15.1407 23.7773L21.6602 27.2049C22.2409 27.5102 22.8777 27.3559 23.2776 26.956L14.857 14.5112C14.6244 14.1675 14.5 13.762 14.5 13.347Z" fill="#F2C42C"/>
<path d="M14.5002 15.1284C13.9651 15.1284 13.5312 14.6947 13.5312 14.1596V13.5803C13.5312 13.4989 13.5973 13.4329 13.6786 13.4329H15.3218C15.4032 13.4329 15.4692 13.4989 15.4692 13.5803V14.1596C15.4692 14.6947 15.0354 15.1284 14.5002 15.1284Z" fill="#273435"/>
<path d="M18.0889 13.8891C17.8622 13.8891 17.6787 13.7056 17.6787 13.4789V12.8391C17.6787 12.6127 17.8622 12.429 18.0889 12.429C18.3153 12.429 18.499 12.6127 18.499 12.8391V13.4789C18.499 13.7056 18.3153 13.8891 18.0889 13.8891Z" fill="#273435"/>
<path d="M10.9121 13.8891C10.6857 13.8891 10.502 13.7056 10.502 13.4789V12.8391C10.502 12.6127 10.6857 12.429 10.9121 12.429C11.1388 12.429 11.3223 12.6127 11.3223 12.8391V13.4789C11.3223 13.7056 11.1388 13.8891 10.9121 13.8891Z" fill="#273435"/>
<path d="M18.4084 15.0984H17.7686C17.5421 15.0984 17.3584 14.9149 17.3584 14.6882C17.3584 14.4618 17.5421 14.2781 17.7686 14.2781H18.4084C18.635 14.2781 18.8185 14.4618 18.8185 14.6882C18.8185 14.9149 18.635 15.0984 18.4084 15.0984Z" fill="#FD6F71"/>
<path d="M11.2316 15.0984H10.5918C10.3654 15.0984 10.1816 14.9149 10.1816 14.6882C10.1816 14.4618 10.3654 14.2781 10.5918 14.2781H11.2316C11.458 14.2781 11.6418 14.4618 11.6418 14.6882C11.6418 14.9149 11.458 15.0984 11.2316 15.0984Z" fill="#FD6F71"/>
</g>
<g clip-path="url(#clip1_12982_2512)">
<path d="M48.7345 1.36884L51.9941 7.97385C52.1947 8.38016 52.5825 8.66172 53.0306 8.72687L60.3197 9.78602C61.4489 9.95008 61.8998 11.3378 61.0827 12.1344L55.8084 17.2756C55.4839 17.5918 55.3358 18.0475 55.4125 18.4941L56.6575 25.7535C56.8504 26.8782 55.6699 27.7359 54.6599 27.2048L48.1406 23.7773C47.7394 23.5664 47.2605 23.5664 46.8593 23.7773L40.3399 27.2048C39.3299 27.7357 38.1494 26.8782 38.3423 25.7535L39.5876 18.4941C39.664 18.0475 39.516 17.5918 39.1915 17.2756L33.9171 12.1344C33.1003 11.3378 33.551 9.95029 34.6802 9.78602L41.9692 8.72687C42.4176 8.66172 42.8051 8.38016 43.0057 7.97385L46.2654 1.36884C46.7704 0.345802 48.2295 0.345802 48.7345 1.36884Z" fill="#FADC60"/>
<path d="M47.5 13.347V0.601562C47.0091 0.601562 46.518 0.857483 46.2655 1.36911L43.0058 7.97391C42.8052 8.38022 42.4177 8.66199 41.9693 8.72714L34.6803 9.78607C33.5511 9.95013 33.1001 11.3378 33.9172 12.1344L39.1916 17.2757C39.5161 17.5919 39.6641 18.0475 39.5876 18.4942L38.3424 25.7535C38.1495 26.8783 39.33 27.736 40.34 27.2049L46.8594 23.7773C47.2606 23.5665 47.7397 23.5665 48.1407 23.7773L54.6602 27.2049C55.2409 27.5102 55.8777 27.3559 56.2776 26.956L47.857 14.5112C47.6244 14.1675 47.5 13.762 47.5 13.347Z" fill="#F2C42C"/>
<path d="M47.5002 15.1284C46.9651 15.1284 46.5312 14.6947 46.5312 14.1596V13.5803C46.5312 13.4989 46.5973 13.4329 46.6786 13.4329H48.3218C48.4032 13.4329 48.4692 13.4989 48.4692 13.5803V14.1596C48.4692 14.6947 48.0354 15.1284 47.5002 15.1284Z" fill="#273435"/>
<path d="M51.0889 13.8891C50.8622 13.8891 50.6787 13.7056 50.6787 13.4789V12.8391C50.6787 12.6127 50.8622 12.429 51.0889 12.429C51.3153 12.429 51.499 12.6127 51.499 12.8391V13.4789C51.499 13.7056 51.3153 13.8891 51.0889 13.8891Z" fill="#273435"/>
<path d="M43.9121 13.8891C43.6857 13.8891 43.502 13.7056 43.502 13.4789V12.8391C43.502 12.6127 43.6857 12.429 43.9121 12.429C44.1388 12.429 44.3223 12.6127 44.3223 12.8391V13.4789C44.3223 13.7056 44.1388 13.8891 43.9121 13.8891Z" fill="#273435"/>
<path d="M51.4084 15.0984H50.7686C50.5421 15.0984 50.3584 14.9149 50.3584 14.6882C50.3584 14.4618 50.5421 14.2781 50.7686 14.2781H51.4084C51.635 14.2781 51.8185 14.4618 51.8185 14.6882C51.8185 14.9149 51.635 15.0984 51.4084 15.0984Z" fill="#FD6F71"/>
<path d="M44.2316 15.0984H43.5918C43.3654 15.0984 43.1816 14.9149 43.1816 14.6882C43.1816 14.4618 43.3654 14.2781 43.5918 14.2781H44.2316C44.458 14.2781 44.6418 14.4618 44.6418 14.6882C44.6418 14.9149 44.458 15.0984 44.2316 15.0984Z" fill="#FD6F71"/>
</g>
<g clip-path="url(#clip2_12982_2512)">
<path d="M81.7345 1.36884L84.9941 7.97385C85.1947 8.38016 85.5825 8.66172 86.0306 8.72687L93.3197 9.78602C94.4489 9.95008 94.8998 11.3378 94.0827 12.1344L88.8084 17.2756C88.4839 17.5918 88.3358 18.0475 88.4125 18.4941L89.6575 25.7535C89.8504 26.8782 88.6699 27.7359 87.6599 27.2048L81.1406 23.7773C80.7394 23.5664 80.2605 23.5664 79.8593 23.7773L73.3399 27.2048C72.3299 27.7357 71.1494 26.8782 71.3423 25.7535L72.5876 18.4941C72.664 18.0475 72.516 17.5918 72.1915 17.2756L66.9171 12.1344C66.1003 11.3378 66.551 9.95029 67.6802 9.78602L74.9692 8.72687C75.4176 8.66172 75.8051 8.38016 76.0057 7.97385L79.2654 1.36884C79.7704 0.345802 81.2295 0.345802 81.7345 1.36884Z" fill="#FADC60"/>
<path d="M80.5 13.347V0.601562C80.0091 0.601562 79.518 0.857483 79.2655 1.36911L76.0058 7.97391C75.8052 8.38022 75.4177 8.66199 74.9693 8.72714L67.6803 9.78607C66.5511 9.95013 66.1001 11.3378 66.9172 12.1344L72.1916 17.2757C72.5161 17.5919 72.6641 18.0475 72.5876 18.4942L71.3424 25.7535C71.1495 26.8783 72.33 27.736 73.34 27.2049L79.8594 23.7773C80.2606 23.5665 80.7397 23.5665 81.1407 23.7773L87.6602 27.2049C88.2409 27.5102 88.8777 27.3559 89.2776 26.956L80.857 14.5112C80.6244 14.1675 80.5 13.762 80.5 13.347Z" fill="#F2C42C"/>
<path d="M80.5002 15.1284C79.9651 15.1284 79.5312 14.6947 79.5312 14.1596V13.5803C79.5312 13.4989 79.5973 13.4329 79.6786 13.4329H81.3218C81.4032 13.4329 81.4692 13.4989 81.4692 13.5803V14.1596C81.4692 14.6947 81.0354 15.1284 80.5002 15.1284Z" fill="#273435"/>
<path d="M84.0889 13.8891C83.8622 13.8891 83.6787 13.7056 83.6787 13.4789V12.8391C83.6787 12.6127 83.8622 12.429 84.0889 12.429C84.3153 12.429 84.499 12.6127 84.499 12.8391V13.4789C84.499 13.7056 84.3153 13.8891 84.0889 13.8891Z" fill="#273435"/>
<path d="M76.9121 13.8891C76.6857 13.8891 76.502 13.7056 76.502 13.4789V12.8391C76.502 12.6127 76.6857 12.429 76.9121 12.429C77.1388 12.429 77.3223 12.6127 77.3223 12.8391V13.4789C77.3223 13.7056 77.1388 13.8891 76.9121 13.8891Z" fill="#273435"/>
<path d="M84.4084 15.0984H83.7686C83.5421 15.0984 83.3584 14.9149 83.3584 14.6882C83.3584 14.4618 83.5421 14.2781 83.7686 14.2781H84.4084C84.635 14.2781 84.8185 14.4618 84.8185 14.6882C84.8185 14.9149 84.635 15.0984 84.4084 15.0984Z" fill="#FD6F71"/>
<path d="M77.2316 15.0984H76.5918C76.3654 15.0984 76.1816 14.9149 76.1816 14.6882C76.1816 14.4618 76.3654 14.2781 76.5918 14.2781H77.2316C77.458 14.2781 77.6418 14.4618 77.6418 14.6882C77.6418 14.9149 77.458 15.0984 77.2316 15.0984Z" fill="#FD6F71"/>
</g>
<g clip-path="url(#clip3_12982_2512)">
<path d="M114.734 1.36884L117.994 7.97385C118.195 8.38016 118.582 8.66172 119.031 8.72687L126.32 9.78602C127.449 9.95008 127.9 11.3378 127.083 12.1344L121.808 17.2756C121.484 17.5918 121.336 18.0475 121.413 18.4941L122.658 25.7535C122.85 26.8782 121.67 27.7359 120.66 27.2048L114.141 23.7773C113.739 23.5664 113.26 23.5664 112.859 23.7773L106.34 27.2048C105.33 27.7357 104.149 26.8782 104.342 25.7535L105.588 18.4941C105.664 18.0475 105.516 17.5918 105.191 17.2756L99.9171 12.1344C99.1003 11.3378 99.551 9.95029 100.68 9.78602L107.969 8.72687C108.418 8.66172 108.805 8.38016 109.006 7.97385L112.265 1.36884C112.77 0.345802 114.229 0.345802 114.734 1.36884Z" fill="#FADC60"/>
<path d="M113.5 13.347V0.601562C113.009 0.601562 112.518 0.857483 112.266 1.36911L109.006 7.97391C108.805 8.38022 108.418 8.66199 107.969 8.72714L100.68 9.78607C99.5511 9.95013 99.1001 11.3378 99.9172 12.1344L105.192 17.2757C105.516 17.5919 105.664 18.0475 105.588 18.4942L104.342 25.7535C104.15 26.8783 105.33 27.736 106.34 27.2049L112.859 23.7773C113.261 23.5665 113.74 23.5665 114.141 23.7773L120.66 27.2049C121.241 27.5102 121.878 27.3559 122.278 26.956L113.857 14.5112C113.624 14.1675 113.5 13.762 113.5 13.347Z" fill="#F2C42C"/>
<path d="M113.5 15.1284C112.965 15.1284 112.531 14.6947 112.531 14.1596V13.5803C112.531 13.4989 112.597 13.4329 112.679 13.4329H114.322C114.403 13.4329 114.469 13.4989 114.469 13.5803V14.1596C114.469 14.6947 114.035 15.1284 113.5 15.1284Z" fill="#273435"/>
<path d="M117.089 13.8891C116.862 13.8891 116.679 13.7056 116.679 13.4789V12.8391C116.679 12.6127 116.862 12.429 117.089 12.429C117.315 12.429 117.499 12.6127 117.499 12.8391V13.4789C117.499 13.7056 117.315 13.8891 117.089 13.8891Z" fill="#273435"/>
<path d="M109.912 13.8891C109.686 13.8891 109.502 13.7056 109.502 13.4789V12.8391C109.502 12.6127 109.686 12.429 109.912 12.429C110.139 12.429 110.322 12.6127 110.322 12.8391V13.4789C110.322 13.7056 110.139 13.8891 109.912 13.8891Z" fill="#273435"/>
<path d="M117.408 15.0984H116.769C116.542 15.0984 116.358 14.9149 116.358 14.6882C116.358 14.4618 116.542 14.2781 116.769 14.2781H117.408C117.635 14.2781 117.819 14.4618 117.819 14.6882C117.819 14.9149 117.635 15.0984 117.408 15.0984Z" fill="#FD6F71"/>
<path d="M110.232 15.0984H109.592C109.365 15.0984 109.182 14.9149 109.182 14.6882C109.182 14.4618 109.365 14.2781 109.592 14.2781H110.232C110.458 14.2781 110.642 14.4618 110.642 14.6882C110.642 14.9149 110.458 15.0984 110.232 15.0984Z" fill="#FD6F71"/>
</g>
<g clip-path="url(#clip4_12982_2512)">
<path d="M147.734 1.36884L150.994 7.97385C151.195 8.38016 151.582 8.66172 152.031 8.72687L159.32 9.78602C160.449 9.95008 160.9 11.3378 160.083 12.1344L154.808 17.2756C154.484 17.5918 154.336 18.0475 154.413 18.4941L155.658 25.7535C155.85 26.8782 154.67 27.7359 153.66 27.2048L147.141 23.7773C146.739 23.5664 146.26 23.5664 145.859 23.7773L139.34 27.2048C138.33 27.7357 137.149 26.8782 137.342 25.7535L138.588 18.4941C138.664 18.0475 138.516 17.5918 138.191 17.2756L132.917 12.1344C132.1 11.3378 132.551 9.95029 133.68 9.78602L140.969 8.72687C141.418 8.66172 141.805 8.38016 142.006 7.97385L145.265 1.36884C145.77 0.345802 147.229 0.345802 147.734 1.36884Z" fill="#FADC60"/>
<path d="M146.5 13.347V0.601562C146.009 0.601562 145.518 0.857483 145.266 1.36911L142.006 7.97391C141.805 8.38022 141.418 8.66199 140.969 8.72714L133.68 9.78607C132.551 9.95013 132.1 11.3378 132.917 12.1344L138.192 17.2757C138.516 17.5919 138.664 18.0475 138.588 18.4942L137.342 25.7535C137.15 26.8783 138.33 27.736 139.34 27.2049L145.859 23.7773C146.261 23.5665 146.74 23.5665 147.141 23.7773L153.66 27.2049C154.241 27.5102 154.878 27.3559 155.278 26.956L146.857 14.5112C146.624 14.1675 146.5 13.762 146.5 13.347Z" fill="#F2C42C"/>
<path d="M146.5 15.1284C145.965 15.1284 145.531 14.6947 145.531 14.1596V13.5803C145.531 13.4989 145.597 13.4329 145.679 13.4329H147.322C147.403 13.4329 147.469 13.4989 147.469 13.5803V14.1596C147.469 14.6947 147.035 15.1284 146.5 15.1284Z" fill="#273435"/>
<path d="M150.089 13.8891C149.862 13.8891 149.679 13.7056 149.679 13.4789V12.8391C149.679 12.6127 149.862 12.429 150.089 12.429C150.315 12.429 150.499 12.6127 150.499 12.8391V13.4789C150.499 13.7056 150.315 13.8891 150.089 13.8891Z" fill="#273435"/>
<path d="M142.912 13.8891C142.686 13.8891 142.502 13.7056 142.502 13.4789V12.8391C142.502 12.6127 142.686 12.429 142.912 12.429C143.139 12.429 143.322 12.6127 143.322 12.8391V13.4789C143.322 13.7056 143.139 13.8891 142.912 13.8891Z" fill="#273435"/>
<path d="M150.408 15.0984H149.769C149.542 15.0984 149.358 14.9149 149.358 14.6882C149.358 14.4618 149.542 14.2781 149.769 14.2781H150.408C150.635 14.2781 150.819 14.4618 150.819 14.6882C150.819 14.9149 150.635 15.0984 150.408 15.0984Z" fill="#FD6F71"/>
<path d="M143.232 15.0984H142.592C142.365 15.0984 142.182 14.9149 142.182 14.6882C142.182 14.4618 142.365 14.2781 142.592 14.2781H143.232C143.458 14.2781 143.642 14.4618 143.642 14.6882C143.642 14.9149 143.458 15.0984 143.232 15.0984Z" fill="#FD6F71"/>
</g>
<defs>
<clipPath id="clip0_12982_2512">
<rect width="28" height="28" fill="white" transform="translate(0.5)"/>
</clipPath>
<clipPath id="clip1_12982_2512">
<rect width="28" height="28" fill="white" transform="translate(33.5)"/>
</clipPath>
<clipPath id="clip2_12982_2512">
<rect width="28" height="28" fill="white" transform="translate(66.5)"/>
</clipPath>
<clipPath id="clip3_12982_2512">
<rect width="28" height="28" fill="white" transform="translate(99.5)"/>
</clipPath>
<clipPath id="clip4_12982_2512">
<rect width="28" height="28" fill="white" transform="translate(132.5)"/>
</clipPath>
</defs>
</svg>
