<?xml version="1.0" encoding="UTF-8"?>
<svg xmlns="http://www.w3.org/2000/svg" viewBox="0 0 100 100" width="512" height="512"><g id="Layer_40" data-name="Layer 40"><path d="M80.068,19.159H73.682V15.227a2,2,0,0,0-4,0v3.932H52V15.227a2,2,0,0,0-4,0v3.932H30.318V15.227a2,2,0,0,0-4,0v3.932H19.932A16.952,16.952,0,0,0,3,36.091v33.75A16.952,16.952,0,0,0,19.932,86.773H80.068A16.952,16.952,0,0,0,97,69.841V36.091A16.952,16.952,0,0,0,80.068,19.159ZM93,69.841A12.946,12.946,0,0,1,80.068,82.773H19.932A12.946,12.946,0,0,1,7,69.841V36.091A12.946,12.946,0,0,1,19.932,23.159h6.386V33.636a2,2,0,0,0,4,0V23.159H48V33.636a2,2,0,0,0,4,0V23.159H69.682V33.636a2,2,0,1,0,4,0V23.159h6.386A12.946,12.946,0,0,1,93,36.091Z"/><path d="M75.915,45.617,61.783,60.749l-5.264-4.917a2,2,0,1,0-2.731,2.922l6.727,6.283a2,2,0,0,0,1.365.539h.068a2,2,0,0,0,1.394-.634l15.5-16.593a2,2,0,0,0-2.924-2.731Z"/><path d="M40.8,45.51H24.915a2,2,0,0,0,0,4H40.8a2,2,0,0,0,0-4Z"/><path d="M40.8,53.279H24.915a2,2,0,0,0,0,4H40.8a2,2,0,0,0,0-4Z"/><path d="M40.8,61.048H24.915a2,2,0,1,0,0,4H40.8a2,2,0,0,0,0-4Z"/></g></svg>
