<svg width="48" height="48" viewBox="0 0 48 48" fill="none" xmlns="http://www.w3.org/2000/svg">
<circle cx="24" cy="24" r="24" fill="#CCDFE1"/>
<g clip-path="url(#clip0_2030_5327)">
<path d="M15.4481 14.4827C16.2099 14.4827 16.8274 13.8652 16.8274 13.1034C16.8274 12.3417 16.2099 11.7241 15.4481 11.7241C14.9375 11.7241 14.4918 12.0015 14.2533 12.4138H14.0688C12.9261 12.4138 11.9998 13.3401 11.9998 14.4827V20.6896C11.6189 20.6896 11.3069 20.9991 11.3415 21.3784C11.5018 23.1378 12.2727 24.7945 13.5321 26.0539C14.4557 26.9774 15.5928 27.6383 16.8274 27.9883V29.6552C16.8274 30.5561 17.4033 31.3225 18.207 31.6065C18.2364 34.3427 20.4636 36.5517 23.2067 36.5517C25.9682 36.5517 28.2067 34.3132 28.2067 31.5517V28.7931C28.2067 27.3647 29.3646 26.2069 30.7929 26.2069C32.2213 26.2069 33.3791 27.3647 33.3791 28.7931V30.4625C32.5755 30.7465 31.9998 31.5129 31.9998 32.4138C31.9998 33.5565 32.9261 34.4827 34.0688 34.4827C35.2115 34.4827 36.1377 33.5565 36.1377 32.4138C36.1377 31.5129 35.562 30.7465 34.7584 30.4625V28.7931C34.7584 26.603 32.983 24.8276 30.7929 24.8276C28.6028 24.8276 26.8274 26.603 26.8274 28.7931V31.5517C26.8274 33.5514 25.2064 35.1724 23.2067 35.1724C21.2253 35.1724 19.6156 33.5807 19.5864 31.6063C20.3898 31.3221 20.9653 30.5558 20.9653 29.6552V27.9883C22.2 27.6383 23.3371 26.9774 24.2606 26.0539C25.5201 24.7945 26.2909 23.1378 26.4513 21.3784C26.4859 20.9991 26.1738 20.6896 25.7929 20.6896V14.4827C25.7929 13.3401 24.8666 12.4138 23.724 12.4138H23.5394C23.3009 12.0015 22.8552 11.7241 22.3446 11.7241C21.5828 11.7241 20.9653 12.3417 20.9653 13.1034C20.9653 13.8652 21.5828 14.4827 22.3446 14.4827C22.8552 14.4827 23.3009 14.2054 23.5394 13.7931H23.724C24.1048 13.7931 24.4136 14.1019 24.4136 14.4827V20.6896H24.5581C24.1772 20.6896 23.8733 20.9999 23.8207 21.3772C23.6721 22.4418 23.181 23.4365 22.4122 24.2054C21.4797 25.1378 20.2151 25.6617 18.8964 25.6617C17.5777 25.6617 16.3131 25.1378 15.3806 24.2054C14.6117 23.4365 14.1207 22.4418 13.9721 21.3772C13.9194 20.9999 13.6156 20.6896 13.2347 20.6896H13.3791V14.4827C13.3791 14.1019 13.6879 13.7931 14.0688 13.7931H14.2533C14.4918 14.2054 14.9375 14.4827 15.4481 14.4827Z" fill="#222D30"/>
</g>
<defs>
<clipPath id="clip0_2030_5327">
<rect width="25.6552" height="25.6552" fill="white" transform="translate(10.7585 11.5862)"/>
</clipPath>
</defs>
</svg>
