<svg width="42" height="41" viewBox="0 0 42 41" fill="none" xmlns="http://www.w3.org/2000/svg">
<rect y="0.5" width="41.0811" height="40" rx="5" fill="#003E79"/>
<g clip-path="url(#clip0_14238_13041)">
<path fill-rule="evenodd" clip-rule="evenodd" d="M18.1026 9.89733C18.291 9.68366 18.5836 9.59421 18.8592 9.666C20.5341 10.1022 23.1077 11.2355 25.2763 13.2563C27.4608 15.2923 29.2495 18.2478 29.2495 22.2789C29.2495 23.8741 28.8914 25.8263 27.6523 27.4448C26.3929 29.0899 24.3039 30.2846 21.0628 30.4846L21.0542 30.4852C16.7356 30.7019 13.7025 28.4582 12.4838 25.3665C11.2763 22.3031 11.8826 18.4915 14.6046 15.5992C14.7502 15.4444 14.9542 15.3582 15.1666 15.3617C15.3791 15.3651 15.5802 15.4579 15.7207 15.6173L17.6326 17.7857C18.3316 16.5382 18.6716 15.4507 18.7229 14.3627C18.775 13.2561 18.5314 12.0863 17.9679 10.677C17.8621 10.4125 17.9142 10.111 18.1026 9.89733ZM18.0267 21.3807C18.0267 20.7552 18.5337 20.2481 19.1592 20.2481C19.7847 20.2481 20.2918 20.7552 20.2918 21.3807C20.2918 22.0062 19.7847 22.5132 19.1592 22.5132C18.5337 22.5132 18.0267 22.0062 18.0267 21.3807ZM24.0507 21.5716C24.3455 21.2767 24.3455 20.7987 24.0507 20.5038C23.7558 20.209 23.2777 20.209 22.9829 20.5038L18.0248 25.4619C17.7299 25.7568 17.7299 26.2349 18.0248 26.5297C18.3196 26.8246 18.7977 26.8246 19.0926 26.5297L24.0507 21.5716ZM22.0419 25.6529C22.0419 25.0273 22.549 24.5203 23.1744 24.5203C23.7999 24.5203 24.307 25.0273 24.307 25.6529C24.307 26.2784 23.7999 26.7855 23.1744 26.7855C22.549 26.7855 22.0419 26.2784 22.0419 25.6529Z" fill="white"/>
</g>
<defs>
<clipPath id="clip0_14238_13041">
<rect width="21.1411" height="21.1411" fill="white" transform="translate(10 9.5)"/>
</clipPath>
</defs>
</svg>
