<svg width="40" height="38" viewBox="0 0 40 38" fill="none" xmlns="http://www.w3.org/2000/svg">
<g clip-path="url(#clip0_5513_21295)">
<g clip-path="url(#clip1_5513_21295)">
<path d="M16.8905 23.7176L16.8952 23.7291L16.9011 23.7402C18.921 27.5495 22.8851 29.8917 27.2195 29.8917C30.5066 29.8917 33.7208 28.5028 35.892 26.0844C38.1354 23.667 39.1834 20.5143 38.8094 17.2179C38.2103 11.9381 33.8703 7.76688 28.564 7.1814L28.5628 7.18127C23.7102 6.66954 19.147 9.00947 16.9018 13.1869L16.8955 13.1985L16.8905 13.2107C16.8306 13.3575 16.7378 13.497 16.6072 13.6589C16.5271 13.7583 16.4412 13.8563 16.3447 13.9665C16.2791 14.0414 16.2085 14.122 16.1314 14.2125C14.9946 15.4024 14.3842 16.8945 14.3842 18.4642C14.3842 20.0278 14.9905 21.5946 16.134 22.7189C16.2101 22.8081 16.2798 22.8877 16.3447 22.9618C16.4412 23.072 16.5271 23.17 16.6072 23.2694C16.7378 23.4314 16.8306 23.5708 16.8905 23.7176ZM26.807 8.83438L26.738 8.96961H27.1463H27.1485H27.1506H27.1528H27.1549H27.1571H27.1592H27.1614H27.1636H27.1657H27.1679H27.17H27.1722H27.1744H27.1765H27.1787H27.1809H27.183H27.1852H27.1874H27.1895H27.1917H27.1939H27.1961H27.1983H27.2004H27.2026H27.2048H27.207H27.2092H27.2114H27.2136H27.2158H27.218H27.2202H27.2224H27.2246H27.2268H27.229H27.2312H27.2334H27.2356H27.2378H27.24H27.2422H27.2444H27.2466H27.2488H27.2511H27.2533H27.2555H27.2577H27.2599H27.2622H27.2644H27.2666H27.2688H27.2711H27.2733H27.2755H27.2777H27.28H27.2822H27.2845H27.2867H27.2889H27.2912H27.2934H27.2956H27.2979H27.3001H27.3024H27.3046H27.3069H27.3091H27.3114H27.3136H27.3159H27.3181H27.3204H27.3226H27.3249H27.3272H27.3294H27.3317H27.3339H27.3362H27.3385H27.3407H27.343H27.3453H27.3475H27.3498H27.3521H27.3543H27.3566H27.3589H27.3612H27.3634H27.3657H27.368H27.3703H27.3726H27.3748H27.3771H27.3794H27.3817H27.384H27.3863H27.3885H27.3908H27.3931H27.3954H27.3977H27.4H27.4023H27.4046H27.4069H27.4092H27.4115H27.4138H27.4161H27.4184H27.4207H27.423H27.4253H27.4276H27.4299H27.4322H27.4345H27.4368H27.4391H27.4414H27.4437H27.446H27.4483H27.4506H27.4529H27.4553H27.4576H27.4599H27.4622H27.4645H27.4668H27.4691H27.4715H27.4738H27.4761H27.4784H27.4807H27.4831H27.4854H27.4877H27.49H27.4924H27.4947H27.497H27.4993H27.5017H27.504H27.5063H27.5086H27.511H27.5133H27.5156H27.518H27.5203H27.5226H27.525H27.5273H27.5296H27.532H27.5343H27.5366H27.539H27.5413H27.5436H27.546H27.5483H27.5506H27.553H27.5553H27.5577H27.56H27.5623H27.5647H27.567H27.5694H27.5717H27.5741H27.5764H27.5787H27.5811H27.5834H27.5858H27.5881H27.5905H27.5928H27.5952H27.5975H27.5999H27.6022H27.6046H27.6069H27.6093H27.6116H27.6139H27.6163H27.6187H27.621H27.6234H27.6257H27.6281H27.6304H27.6328H27.6351H27.6375H27.6398H27.6422H27.6445H27.6469H27.6492H27.6516H27.6539H27.6563H27.6586H27.661H27.6634H27.6657H27.6681H27.6704H27.6728H27.6751H27.6775H27.6799H27.6822H27.6846H27.6869H27.6893H27.6916H27.694H27.6963H27.6987H27.7011H27.7034H27.7058H27.7081H27.7105H27.7129H27.7152H27.7176H27.7199H27.7223H27.7246H27.727H27.7294H27.7317H27.7341H27.7364H27.7388H27.7411H27.7435H27.7459H27.7482H27.7506H27.7529H27.7553H27.7577H27.76H27.7624H27.7647H27.7671H27.7694H27.7718H27.7742H27.7765H27.7789H27.7812H27.7836H27.7859H27.7883H27.7906H27.793H27.7954H27.7977H27.8001H27.8024H27.8048H27.8071H27.8095H27.8118H27.8142H27.8166H27.8189H27.8213H27.8236H27.826H27.8283H27.8307H27.833H27.8354H27.8377H27.8401H27.8424H27.8448H27.8471H27.8495H27.8518H27.8542H27.8565H27.8589H27.8612H27.8636H27.8659H27.8683H27.8706H27.873H27.8753H27.8777H27.88H27.8823H27.8847H27.887H27.8894H27.8917H27.8941H27.8964H27.8987H27.9011H27.9034H27.9058H27.9081H27.9104H27.9128H27.9151H27.9175H27.9198H27.9221H27.9245H27.9268H27.9291H27.9315H27.9338H27.9361H27.9385H27.9408H27.9431H27.9455H27.9478H27.9501H27.9525H27.9548H27.9571H27.9594H27.9618H27.9641H27.9664H27.9688H27.9711H27.9734H27.9757H27.978H27.9804H27.9827H27.985H27.9873H27.9896H27.992H27.9943H27.9966H27.9989H28.0012H28.0035H28.0059H28.0082H28.0105H28.0128H28.0151H28.0174H28.0197H28.022H28.0243H28.0266H28.029H28.0313H28.0336H28.0359H28.0382H28.0405H28.0428H28.0451H28.0474H28.0497H28.052H28.0543H28.0566H28.0588H28.0611H28.0634H28.0657H28.068H28.0703H28.0726H28.0749H28.0772H28.0795H28.0817H28.084H28.0863H28.0886H28.0909H28.0932H28.0954H28.0977H28.1H28.1023H28.1045H28.1068H28.1091H28.1114H28.1136H28.1159H28.1182H28.1204H28.1227H28.125H28.1272H28.1295H28.1318H28.134H28.1363H28.1385H28.1408H28.143H28.1453H28.1476H28.1498H28.1521H28.1543H28.1566H28.1588H28.161H28.1633H28.1655H28.1678H28.17H28.1723H28.1745H28.1767H28.179H28.1812H28.1834H28.1857H28.1879H28.1901H28.1924H28.1946H28.1968H28.1991H28.2013H28.2035H28.2057H28.2079H28.2102H28.2124H28.2146H28.2168H28.219H28.2212H28.2234H28.2256H28.2279H28.2301H28.2323H28.2345H28.2367H28.2389H28.2411H28.2433H28.2455H28.2477H28.2499H28.252H28.2542H28.2564H28.2586H28.2608H28.263H28.2652H28.2673H28.2695H28.2717H28.2739H28.2761H28.2782H28.2804H28.2826H28.2847H28.2869H28.2891H28.2912H28.2934H28.2956H28.2977H28.2999H28.302H28.3036C32.8659 9.46449 36.4972 13.0977 36.9955 17.4892L36.9955 17.4892L36.9959 17.4927C37.3523 20.2845 36.4986 22.9341 34.572 25.0302L34.5717 25.0305C32.7172 27.0561 30.0039 28.2453 27.2195 28.2453C23.5074 28.2453 20.154 26.2188 18.4412 23.0058C18.202 22.5381 17.864 22.151 17.5983 21.8468C17.5209 21.7581 17.4496 21.6765 17.3887 21.6019L17.38 21.5912L17.37 21.5815C16.544 20.7726 16.1281 19.6925 16.1281 18.5358C16.1281 17.3791 16.544 16.299 17.37 15.4901C17.6734 15.193 18.1323 14.6703 18.4417 14.0648C20.0896 10.9056 23.2577 8.97357 26.807 8.83438Z" fill="#01D0FF" stroke="#01D0FF" stroke-width="0.5" stroke-miterlimit="10"/>
<path d="M18.5123 29.6417C18.5123 29.6417 18.2196 29.6417 18.1464 29.4984C16.6098 28.2804 15.4391 26.7757 14.4879 25.0561C14.0488 24.3396 13.244 23.838 12.2927 23.838H3.21957C3.21957 23.838 2.56104 23.5514 2.56104 23.1931C2.56104 22.8349 2.85372 22.5483 3.21957 22.5483H12.2927C13.683 22.5483 14.9269 23.2648 15.5854 24.4112C16.3903 25.9875 17.561 27.3489 18.9513 28.4953C19.244 28.7103 19.244 29.0685 19.0244 29.3551C18.8781 29.4984 18.7318 29.5701 18.5123 29.5701V29.6417Z" fill="#061014" fill-opacity="0.9"/>
<path d="M18.5123 29.8201V29.8917H18.7623V29.7909C18.9319 29.7483 19.0704 29.66 19.1994 29.5338L19.2121 29.5213L19.2229 29.5071C19.3622 29.3253 19.4429 29.1063 19.4295 28.8834C19.4159 28.657 19.3059 28.4482 19.1054 28.2983C17.7388 27.1705 16.5938 25.8363 15.8081 24.2975L15.8084 24.2974L15.8022 24.2867C15.0976 23.0601 13.7695 22.2983 12.2927 22.2983H3.21957C2.72062 22.2983 2.31104 22.6919 2.31104 23.1931C2.31104 23.3608 2.38762 23.4997 2.46864 23.6011C2.55059 23.7037 2.65347 23.7886 2.74595 23.854C2.83987 23.9204 2.93226 23.9731 3.00031 24.0089C3.03463 24.0269 3.06348 24.0411 3.08418 24.0509L3.10895 24.0624L3.11624 24.0657L3.1185 24.0667L3.11928 24.067L3.11957 24.0671L3.1197 24.0672C3.11975 24.0672 3.11981 24.0672 3.21957 23.838L3.11981 24.0672L3.16753 24.088H3.21957H12.2927C13.1512 24.088 13.8757 24.5389 14.2719 25.1821C15.2283 26.91 16.4084 28.4316 17.9587 29.6686C18.0059 29.7325 18.0657 29.7746 18.1167 29.8018C18.1819 29.8367 18.2496 29.8563 18.3036 29.8681C18.359 29.8802 18.4097 29.8859 18.4459 29.8887C18.4642 29.8902 18.4796 29.8909 18.491 29.8913L18.5049 29.8917L18.5094 29.8917L18.5111 29.8917L18.5117 29.8917L18.512 29.8917H18.5121C18.5122 29.8917 18.5123 29.8917 18.5123 29.6417V29.8201Z" stroke="#061014" stroke-opacity="0.9" stroke-width="0.5" stroke-miterlimit="10"/>
<path d="M12.2927 14.38H3.21957C3.21957 14.38 2.56104 14.0934 2.56104 13.7352C2.56104 13.3769 2.85372 13.0903 3.21957 13.0903H12.2927C13.244 13.0903 14.0488 12.6604 14.4879 11.8723C15.4391 10.1526 16.6098 8.64796 18.1464 7.42989C18.4391 7.21494 18.8049 7.21494 19.0244 7.50154C19.244 7.78815 19.244 8.1464 18.9513 8.36136C17.561 9.50778 16.4635 10.8691 15.6586 12.3738C15.0001 13.5202 13.7562 14.2367 12.3659 14.2367L12.2927 14.38Z" fill="#061014" fill-opacity="0.9"/>
<path d="M12.2927 14.63H12.4458L12.5154 14.4937L12.5204 14.484C13.9349 14.4329 15.1954 13.682 15.8754 12.4983L15.8755 12.4984L15.879 12.4917C16.6678 11.0172 17.7429 9.68289 19.1054 8.55833C19.3059 8.4085 19.4159 8.19967 19.4295 7.97331C19.4429 7.75041 19.3622 7.53134 19.2229 7.34953C19.0689 7.14841 18.8553 7.04119 18.6272 7.02805C18.4043 7.01521 18.1835 7.09249 17.9984 7.2284L17.9983 7.22826L17.9911 7.23398C16.4235 8.47667 15.2329 10.009 14.2693 11.7509C13.8797 12.4501 13.1646 12.8403 12.2927 12.8403H3.21957C2.72062 12.8403 2.31104 13.2339 2.31104 13.7352C2.31104 13.9028 2.38762 14.0418 2.46864 14.1432C2.55059 14.2457 2.65347 14.3307 2.74595 14.3961C2.83987 14.4625 2.93226 14.5152 3.00031 14.5509C3.03463 14.569 3.06348 14.5831 3.08418 14.5929L3.10895 14.6044L3.11624 14.6077L3.1185 14.6087L3.11927 14.609L3.11957 14.6092L3.1197 14.6092C3.11975 14.6093 3.11981 14.6093 3.21957 14.38L3.11981 14.6093L3.16753 14.63H3.21957H12.2927Z" stroke="#061014" stroke-opacity="0.9" stroke-width="0.5" stroke-miterlimit="10"/>
<path d="M17.1647 18.5358C17.1647 20.5684 18.5568 22.2967 20.4147 22.2967C22.2726 22.2967 23.6647 20.5684 23.6647 18.5358C23.6647 16.5032 22.2726 14.7749 20.4147 14.7749C18.5568 14.7749 17.1647 16.5032 17.1647 18.5358ZM18.9086 18.5358C18.9086 17.3218 19.6566 16.493 20.4147 16.493C21.1728 16.493 21.9208 17.3218 21.9208 18.5358C21.9208 19.7498 21.1728 20.5787 20.4147 20.5787C19.6566 20.5787 18.9086 19.7498 18.9086 18.5358Z" fill="#01D0FF" stroke="#01D0FF" stroke-width="0.5" stroke-miterlimit="10"/>
<path d="M11.1219 19.109H1.02438C1.02438 19.109 0.365845 18.8224 0.365845 18.4642C0.365845 18.1059 0.658528 17.8193 1.02438 17.8193H11.1219C11.1219 17.8193 11.7805 18.1059 11.7805 18.4642C11.7805 18.8224 11.4878 19.109 11.1219 19.109Z" fill="#061014" fill-opacity="0.9"/>
<path d="M1.02438 19.109L0.924617 19.3383L0.972337 19.359H1.02438H11.1219C11.6209 19.359 12.0305 18.9654 12.0305 18.4642C12.0305 18.2965 11.9539 18.1576 11.8729 18.0562C11.7909 17.9537 11.688 17.8687 11.5956 17.8033C11.5016 17.7369 11.4093 17.6842 11.3412 17.6484C11.3069 17.6304 11.278 17.6162 11.2573 17.6064L11.2326 17.5949L11.2253 17.5916L11.223 17.5906L11.2222 17.5903L11.2219 17.5902L11.2218 17.5901C11.2218 17.5901 11.2217 17.5901 11.1219 17.8193L11.2217 17.5901L11.174 17.5693H11.1219H1.02438C0.525429 17.5693 0.115845 17.9629 0.115845 18.4642C0.115845 18.6318 0.192429 18.7708 0.273448 18.8721C0.355396 18.9747 0.458276 19.0596 0.55076 19.1251C0.644678 19.1915 0.737073 19.2441 0.805123 19.2799C0.839443 19.298 0.868293 19.3121 0.888992 19.3219L0.913761 19.3334L0.921045 19.3367L0.923309 19.3377L0.924084 19.338L0.924381 19.3382L0.924506 19.3382C0.924563 19.3382 0.924617 19.3383 1.02438 19.109Z" stroke="#061014" stroke-opacity="0.9" stroke-width="0.5" stroke-miterlimit="10"/>
</g>
</g>
<defs>
<clipPath id="clip0_5513_21295">
<rect y="0.566406" width="40" height="37" rx="5" fill="white"/>
</clipPath>
<clipPath id="clip1_5513_21295">
<rect width="39" height="23" fill="white" transform="translate(0 7)"/>
</clipPath>
</defs>
</svg>
