<svg width="32" height="32" viewBox="0 0 32 32" fill="none" xmlns="http://www.w3.org/2000/svg">
<g id="check_9282598 1" clip-path="url(#clip0_12112_16224)">
<g id="Group">
<path id="Vector" fill-rule="evenodd" clip-rule="evenodd" d="M6.00098 16.0001L15.9983 6.00277L25.9956 16.0001L15.9983 25.9974L6.00098 16.0001Z" fill="#01D0FF"/>
<g id="Group_2">
<g id="Group_3">
<path id="Vector_2" d="M16.0019 31.9984C14.3466 31.9984 12.7945 31.3578 11.6315 30.1949L1.80738 20.3707C-0.602459 17.9609 -0.602459 14.0397 1.80738 11.6299L11.6315 1.80573C12.7945 0.642684 14.3466 0.00219727 16.0019 0.00219727C17.6572 0.00219727 19.2092 0.642746 20.3723 1.80573L30.1964 11.6299C31.3594 12.7929 32 14.3451 32 16.0003C32 17.6555 31.3594 19.2077 30.1964 20.3707L20.3723 30.1948C19.2092 31.3578 17.6571 31.9984 16.0019 31.9984ZM16.0019 1.25205C14.6805 1.25205 13.4422 1.76255 12.5153 2.6895L2.69115 12.5136C0.768627 14.4362 0.768627 17.5644 2.69115 19.4869L12.5153 29.311C13.4422 30.238 14.6805 30.7485 16.0019 30.7485C17.3233 30.7485 18.5615 30.238 19.4885 29.311L29.3125 19.4869C30.2396 18.5599 30.7501 17.3217 30.7501 16.0003C30.7501 14.6789 30.2396 13.4407 29.3125 12.5137L19.4885 2.68956C18.5615 1.76255 17.3233 1.25205 16.0019 1.25205Z" fill="white"/>
</g>
<g id="Group_4">
<path id="Vector_3" d="M16.0019 20.3037C15.842 20.3037 15.682 20.2427 15.56 20.1206L11.8813 16.4419C11.6372 16.1978 11.6372 15.8021 11.8813 15.558C12.1253 15.3139 12.521 15.314 12.7651 15.558L16.0019 18.7949L23.8793 10.9175C24.1234 10.6734 24.5189 10.6734 24.7631 10.9175C25.0071 11.1615 25.0071 11.5572 24.7631 11.8013L16.4437 20.1207C16.3217 20.2427 16.1618 20.3037 16.0019 20.3037Z" fill="white"/>
</g>
</g>
</g>
</g>
<defs>
<clipPath id="clip0_12112_16224">
<rect width="32" height="32" fill="white"/>
</clipPath>
</defs>
</svg>
