<svg width="98" height="42" viewBox="0 0 98 42" fill="none" xmlns="http://www.w3.org/2000/svg">
<path d="M96.6986 1.63183C96.7308 1.92649 96.635 2.05654 96.317 1.96273C94.848 1.52935 93.3368 1.61242 91.8372 1.64949C91.1532 1.6664 90.473 1.83889 89.7461 1.94754C89.7461 14.5563 89.7461 27.146 89.7461 39.8012C92.0463 40.4752 94.459 40.7255 96.9552 40.6778C97 40.8349 97 40.992 97 41.1562C96.2338 41.1562 95.4677 41.1563 94.6531 41.1276C94.5657 41.0684 94.5267 41.0378 94.4878 41.0073C94.4655 41.0569 94.4432 41.1066 94.4209 41.1562C94.3784 41.1562 94.336 41.1562 94.2617 41.1562C93.8659 41.0928 93.5013 41.0329 93.1381 40.9652C91.8891 40.7327 90.6059 40.6097 89.4007 40.2352C87.8589 39.7561 86.3426 39.1525 84.8844 38.4571C83.3187 37.7105 81.928 36.6694 80.6115 35.5213C78.2062 33.4235 76.4923 30.8402 75.1394 27.9854C75.0383 27.7719 74.9225 27.5576 74.8713 27.3306C74.829 27.1433 74.8722 26.9367 74.8776 26.7386C75.0233 26.8627 75.1691 26.9868 75.2975 27.1606C75.319 27.2655 75.3579 27.3208 75.3968 27.376C76.0839 28.6194 76.7264 29.8907 77.4736 31.0967C77.9938 31.9364 78.6552 32.6888 79.2607 33.4747C79.3535 33.5952 79.4844 33.6863 79.6544 33.8433C79.6544 25.3124 79.6544 16.8652 79.6544 8.418C79.6187 8.40276 79.583 8.38752 79.5473 8.37228C79.2328 8.74832 78.9035 9.11304 78.6063 9.5023C77.0974 11.4783 75.8471 13.6138 74.765 15.8484C73.8219 17.7959 73.1609 19.8516 72.4515 21.8917C71.2515 25.3432 69.5494 28.5396 67.2998 31.4255C66.582 32.3463 65.8444 33.2649 65.0153 34.0822C63.4958 35.5803 61.8285 36.8996 59.9544 37.9495C58.2905 38.8815 56.5434 39.5991 54.6954 40.0325C53.5682 40.2968 52.4093 40.4542 51.2556 40.5676C50.2172 40.6696 49.166 40.6823 48.1212 40.6704C45.8129 40.644 43.5435 40.3019 41.3221 39.675C39.1394 39.0589 37.0851 38.1459 35.215 36.8524C32.2516 34.8026 29.9807 32.159 28.4985 28.8586C28.2565 28.32 28.0725 27.7552 27.8616 27.2025C27.9125 27.1539 27.9634 27.1054 28.0142 27.0568C28.1482 27.1361 28.2822 27.2154 28.3952 27.3519C28.4464 27.5575 28.5186 27.7059 28.5908 27.8543C28.6277 27.928 28.6645 28.0016 28.6833 28.1213C28.7041 28.2225 28.743 28.2777 28.7819 28.3329C29.3869 29.4042 29.9396 30.5097 30.6093 31.5387C31.569 33.013 32.7523 34.3038 34.1911 35.4483C34.1911 26.2085 34.1911 17.0213 34.1911 7.67709C33.6531 8.24775 33.1445 8.70677 32.7319 9.2402C31.5666 10.7464 30.3702 12.236 29.317 13.8195C27.9689 15.8464 26.9461 18.0558 26.1247 20.351C25.754 21.3869 25.4214 22.4364 25.0474 23.5244C25.0024 23.5847 24.9877 23.6048 24.979 23.6294C24.2327 25.2728 23.5453 26.9467 22.7204 28.5496C22.1105 29.7349 21.3574 30.8527 20.6003 31.9537C20.0405 32.7678 19.3761 33.5101 18.7504 34.2781C16.0759 37.5612 12.6897 39.7322 8.58072 40.7409C7.80623 40.9311 6.99671 40.9779 6.18078 41.1236C5.36019 41.1562 4.56218 41.1562 3.71939 41.1562C3.06135 41.0598 2.44454 40.981 1.83653 40.8583C1.59091 40.8088 1.21267 40.8236 1.3254 40.2857C8.01012 41.6532 13.3939 39.2335 17.9289 34.569C17.8332 34.2816 17.7267 34.1071 17.7243 33.9312C17.7089 32.8151 17.7126 31.6986 17.7172 30.5823C17.7478 23.0921 17.7775 15.6019 17.8179 8.11176C17.8206 7.61883 17.4518 7.4008 17.1621 7.18289C16.0063 6.31338 14.8417 5.44844 13.6235 4.67115C12.1423 3.72598 10.5123 3.08815 8.73731 2.57401C8.73731 2.81706 8.73731 3.01352 8.73731 3.20999C8.73731 15.2982 8.73753 27.3864 8.73598 39.4745C8.73595 39.7596 8.82825 40.1077 8.29881 40.1488C8.29881 27.5855 8.29881 15.0327 8.29881 2.4643C5.90128 1.77629 3.51382 1.54935 1.04477 1.63472C1 1.47709 1 1.31946 1 1.15625C2.0209 1.15625 3.0418 1.15625 4.10747 1.15625C4.74977 1.25186 5.34641 1.3535 5.945 1.44196C7.8691 1.7263 9.71805 2.27554 11.5096 3.02474C13.2941 3.771 14.956 4.73193 16.4673 5.94194C17.5826 6.83498 18.6688 7.75598 19.4873 8.95729C20.0158 9.7331 20.6886 10.417 21.1639 11.221C21.8459 12.3746 22.4075 13.5998 23.0188 14.7953C23.1213 14.9958 23.215 15.2006 23.3128 15.4035C23.2576 15.4529 23.2024 15.5022 23.1473 15.5516C23.0076 15.4397 22.7987 15.3565 22.7386 15.2115C21.9553 13.3205 20.9416 11.5631 19.708 9.93515C19.283 9.37429 18.8008 8.85698 18.3447 8.31978C18.3053 8.33411 18.2659 8.34845 18.2265 8.36279C18.2265 16.9199 18.2265 25.4771 18.2265 34.0343C18.2598 34.055 18.293 34.0758 18.3262 34.0966C18.6902 33.6572 19.0678 33.2282 19.4159 32.7764C20.9542 30.7804 22.2089 28.6123 23.296 26.3418C24.2104 24.4317 24.8851 22.4335 25.5645 20.4314C26.4037 17.9583 27.557 15.6229 28.9448 13.4087C30.0043 11.7184 31.1685 10.1079 32.5886 8.69633C33.1379 8.15034 33.6809 7.59809 34.2585 7.01086C34.311 6.95745 34.3258 6.93736 34.3344 6.91274C34.8958 6.48955 35.4541 6.06232 36.019 5.64394C37.4977 4.54875 39.0937 3.64746 40.8264 3.04703C42.2301 2.56055 43.6799 2.19409 45.128 1.85482C45.8417 1.68762 46.5977 1.70202 47.3346 1.63481C48.0081 1.57339 48.6807 1.48285 49.3554 1.4641C49.7014 1.45448 50.0499 1.61962 50.3991 1.62752C53.4355 1.69623 56.3571 2.31152 59.168 3.45395C60.7514 4.09755 62.2457 4.91826 63.5985 5.96153C65.7985 7.65816 67.6185 9.69646 68.9209 12.1727C69.0085 12.3392 69.1077 12.4996 69.1841 12.7117C69.2056 12.8158 69.2445 12.871 69.2833 12.9262C69.3836 13.1257 69.4838 13.3252 69.5664 13.5732C69.5877 13.677 69.6265 13.7322 69.6654 13.7875C69.7023 13.8611 69.7391 13.9347 69.7557 14.058C69.8076 14.2561 69.8798 14.4045 69.952 14.5529C69.9886 14.6711 70.0614 14.7927 70.0511 14.9067C70.0416 15.0108 69.9422 15.1067 69.8823 15.2063C69.784 15.1264 69.6279 15.0649 69.5961 14.9641C69.0973 13.3838 68.3202 11.9401 67.3647 10.6044C66.5489 9.46388 65.6984 8.33642 64.5651 7.47277C64.5196 7.43812 64.4639 7.41692 64.3337 7.34667C64.3337 16.205 64.3337 24.9973 64.315 33.8487C64.3098 33.9506 64.3232 33.9935 64.3366 34.0364C64.3665 33.9905 64.3965 33.9446 64.4264 33.8988C65.4597 32.6864 66.5986 31.5472 67.4995 30.243C68.6156 28.6271 69.5993 26.909 70.5205 25.1713C71.4581 23.4028 72.1062 21.5053 72.6837 19.5826C72.9903 18.5615 73.4511 17.5843 73.8759 16.6018C74.8307 14.3941 76.0102 12.3113 77.3702 10.3269C78.5229 8.64517 79.8626 7.12246 81.3787 5.77833C83.6086 3.80141 86.1459 2.33865 89.0717 1.64161C89.8426 1.45796 90.6335 1.35903 91.4375 1.18873C92.5761 1.15625 93.6926 1.15625 94.8537 1.15625C95.4503 1.27723 96.002 1.39821 96.5961 1.5533C96.654 1.60835 96.674 1.62316 96.6986 1.63183ZM36.8257 5.70292C36.3908 6.01473 35.9568 6.32789 35.5208 6.63803C34.9708 7.02914 34.6875 7.47241 34.6942 8.23629C34.7416 13.6419 34.7194 19.0482 34.7194 24.4543C34.7194 28.1062 34.7226 31.7581 34.714 35.41C34.7132 35.7412 34.7799 35.9682 35.0957 36.1463C35.6984 36.4861 36.2637 36.8916 36.8593 37.2448C39.3352 38.7131 42.0376 39.5097 44.8677 39.9077C45.6001 40.0107 46.3398 40.0683 47.0779 40.1221C47.7817 40.1734 48.4878 40.1925 49.1986 40.2261C49.1986 27.4381 49.1986 14.7403 49.1986 2.03733C44.7099 2.03549 40.5903 3.14731 36.8257 5.70292ZM63.8537 15.6539C63.8537 12.8475 63.8487 10.0411 63.8605 7.23476C63.8619 6.9103 63.7569 6.69486 63.4951 6.52078C63.0106 6.19864 62.5468 5.84436 62.0546 5.53492C60.4048 4.49759 58.6696 3.63194 56.7709 3.16365C55.3103 2.8034 53.8364 2.48243 52.3534 2.23396C51.5068 2.09211 50.63 2.13044 49.7537 2.08699C49.7537 14.8383 49.7537 27.5031 49.7537 40.3139C51.1281 40.1128 52.456 39.97 53.7628 39.7174C57.4901 38.9969 60.7144 37.2648 63.5378 34.7431C63.7934 34.5148 63.8597 34.293 63.8593 33.975C63.8518 27.8999 63.8537 21.8247 63.8537 15.6539ZM80.1881 29.2424C80.1881 30.8368 80.1836 32.4314 80.1944 34.0258C80.1955 34.2018 80.2303 34.4288 80.341 34.5437C80.7469 34.9652 81.1666 35.3811 81.6258 35.742C83.4717 37.1931 85.4803 38.3635 87.6924 39.1663C88.1865 39.3457 88.6881 39.5041 89.2364 39.6891C89.2364 27.1031 89.2364 14.6256 89.2364 2.13128C89.1481 2.13128 89.0824 2.11712 89.0252 2.13333C87.2534 2.63589 85.5636 3.33783 84.0574 4.40445C83.0053 5.14954 82.0274 5.99935 81.0077 6.79119C80.3035 7.33806 80.0525 8.00715 80.0697 8.92851C80.1524 13.3391 80.1617 17.7512 80.1858 22.1629C80.1985 24.4907 80.1881 26.8187 80.1881 29.2424Z" fill="#30CAD3" stroke="#30CAD3"/>
</svg>
