<svg width="46" height="26" viewBox="0 0 46 26" fill="none" xmlns="http://www.w3.org/2000/svg">
<path d="M11.024 0.216014C14.888 0.216014 17.6 1.32001 19.16 3.52801C20.744 5.71201 21.536 8.88002 21.536 13.032C21.536 17.184 20.744 20.364 19.16 22.572C17.6 24.756 14.888 25.848 11.024 25.848C7.136 25.848 4.4 24.756 2.816 22.572C1.256 20.364 0.476 17.184 0.476 13.032C0.476 8.88002 1.256 5.71201 2.816 3.52801C4.4 1.32001 7.136 0.216014 11.024 0.216014ZM11.024 5.07602C9.776 5.07602 8.888 5.55602 8.36 6.51601C7.832 7.47601 7.568 9.04801 7.568 11.232V14.796C7.568 17.004 7.832 18.588 8.36 19.548C8.888 20.508 9.776 20.988 11.024 20.988C12.272 20.988 13.148 20.508 13.652 19.548C14.156 18.588 14.408 17.004 14.408 14.796V11.232C14.408 9.02401 14.156 7.45201 13.652 6.51601C13.148 5.55602 12.272 5.07602 11.024 5.07602ZM35.4677 0.216014C37.4117 0.216014 39.0917 0.528014 40.5077 1.15201C41.9477 1.75201 43.0517 2.61601 43.8197 3.74401C44.6117 4.87201 45.0077 6.18002 45.0077 7.66801C45.0077 9.06001 44.6597 10.32 43.9637 11.448C43.2677 12.576 42.3917 13.572 41.3357 14.436C40.2797 15.3 38.8277 16.356 36.9797 17.604C35.9477 18.276 35.1077 18.852 34.4597 19.332H45.2957V25.416H24.7757V23.688C24.7757 22.416 25.0637 21.288 25.6397 20.304C26.2397 19.296 27.1037 18.288 28.2317 17.28C29.3837 16.272 31.0397 14.904 33.1997 13.176C34.9277 11.808 36.1397 10.764 36.8357 10.044C37.5317 9.32402 37.8797 8.61601 37.8797 7.92001C37.8797 7.17601 37.6157 6.55201 37.0877 6.04801C36.5837 5.54401 35.8157 5.29202 34.7837 5.29202C33.7037 5.29202 32.8517 5.60401 32.2277 6.22801C31.6037 6.85201 31.2917 7.66801 31.2917 8.67601V9.39601H24.8837C24.8597 9.20402 24.8477 8.94002 24.8477 8.60402C24.8477 6.01201 25.7477 3.97201 27.5477 2.48401C29.3717 0.972014 32.0117 0.216014 35.4677 0.216014Z" fill="#CDCFD0"/>
</svg>
