<svg width="20" height="20" viewBox="0 0 20 20" fill="none" xmlns="http://www.w3.org/2000/svg">
<g clip-path="url(#clip0_1655_5342)">
<path d="M11.791 5.36696C12.4924 5.50354 13.137 5.84592 13.6424 6.35028C14.1477 6.85463 14.4907 7.49801 14.6276 8.19808M11.791 2.5C13.2483 2.66158 14.6072 3.31291 15.6446 4.34704C16.682 5.38118 17.3363 6.73665 17.5 8.19091M16.7819 13.9105V16.0607C16.7827 16.2603 16.7417 16.4579 16.6616 16.6408C16.5815 16.8237 16.464 16.9879 16.3166 17.1228C16.1692 17.2578 15.9952 17.3605 15.8058 17.4244C15.6163 17.4884 15.4156 17.5121 15.2164 17.4942C13.0067 17.2545 10.884 16.5009 9.0191 15.2938C7.28402 14.1934 5.81297 12.7251 4.71043 10.9934C3.49681 9.12353 2.74154 6.99467 2.50583 4.77923C2.48788 4.58103 2.51148 4.38127 2.57513 4.19267C2.63877 4.00407 2.74106 3.83076 2.87549 3.68378C3.00992 3.5368 3.17353 3.41937 3.35592 3.33896C3.53831 3.25855 3.73548 3.21693 3.93487 3.21674H6.08921C6.43771 3.21332 6.77557 3.33649 7.03981 3.56331C7.30406 3.79012 7.47665 4.1051 7.52543 4.44953C7.61636 5.13765 7.78499 5.81329 8.02811 6.46357C8.12472 6.72011 8.14564 6.99891 8.08836 7.26695C8.03109 7.53498 7.89803 7.78101 7.70496 7.97589L6.79296 8.88614C7.81523 10.6805 9.3038 12.1663 11.1016 13.1866L12.0136 12.2763C12.2089 12.0836 12.4554 11.9508 12.7239 11.8936C12.9925 11.8365 13.2718 11.8574 13.5288 11.9538C14.1804 12.1964 14.8573 12.3648 15.5467 12.4555C15.8956 12.5046 16.2142 12.68 16.4419 12.9483C16.6696 13.2165 16.7906 13.559 16.7819 13.9105Z" stroke="#677578" stroke-width="2" stroke-linecap="round" stroke-linejoin="round"/>
</g>
<defs>
<clipPath id="clip0_1655_5342">
<rect width="20" height="20" fill="white"/>
</clipPath>
</defs>
</svg>
