<svg width="58" height="58" viewBox="0 0 58 58" fill="none" xmlns="http://www.w3.org/2000/svg">
<path d="M0 15C0 6.71573 6.71573 0 15 0H58V58H15C6.71573 58 0 51.2843 0 43V15Z" fill="white"/>
<path d="M26.95 30.356L24.486 23.622C24.3647 23.3233 24.2387 22.9687 24.108 22.558C23.9773 22.1473 23.8467 21.704 23.716 21.228C23.5947 21.704 23.4687 22.152 23.338 22.572C23.2073 22.9827 23.0813 23.342 22.96 23.65L20.51 30.356H26.95ZM33.6 38H30.688C30.3613 38 30.0953 37.9207 29.89 37.762C29.6847 37.594 29.5307 37.3887 29.428 37.146L27.916 33.016H19.53L18.018 37.146C17.9433 37.3607 17.7987 37.5567 17.584 37.734C17.3693 37.9113 17.1033 38 16.786 38H13.846L21.812 17.756H25.648L33.6 38Z" fill="#061014" fill-opacity="0.9"/>
<path d="M44.296 35.868C43.2973 35.9147 42.4573 36.0033 41.776 36.134C41.0947 36.2553 40.5487 36.414 40.138 36.61C39.7273 36.806 39.4333 37.0347 39.256 37.296C39.0787 37.5573 38.99 37.842 38.99 38.15C38.99 38.7567 39.1673 39.1907 39.522 39.452C39.886 39.7133 40.3573 39.844 40.936 39.844C41.6453 39.844 42.2567 39.718 42.77 39.466C43.2927 39.2047 43.8013 38.8127 44.296 38.29V35.868ZM36.372 29.638C38.024 28.126 40.012 27.37 42.336 27.37C43.176 27.37 43.9273 27.51 44.59 27.79C45.2527 28.0607 45.8127 28.4433 46.27 28.938C46.7273 29.4233 47.0727 30.0067 47.306 30.688C47.5487 31.3693 47.67 32.116 47.67 32.928V42H46.102C45.7753 42 45.5233 41.9533 45.346 41.86C45.1687 41.7573 45.0287 41.5567 44.926 41.258L44.618 40.222C44.254 40.5487 43.8993 40.838 43.554 41.09C43.2087 41.3327 42.8493 41.538 42.476 41.706C42.1027 41.874 41.7013 42 41.272 42.084C40.852 42.1773 40.3853 42.224 39.872 42.224C39.2653 42.224 38.7053 42.1447 38.192 41.986C37.6787 41.818 37.2353 41.5707 36.862 41.244C36.4887 40.9173 36.1993 40.5113 35.994 40.026C35.7887 39.5407 35.686 38.976 35.686 38.332C35.686 37.968 35.7467 37.6087 35.868 37.254C35.9893 36.89 36.1853 36.5447 36.456 36.218C36.736 35.8913 37.0953 35.5833 37.534 35.294C37.9727 35.0047 38.5093 34.7527 39.144 34.538C39.788 34.3233 40.5347 34.1507 41.384 34.02C42.2333 33.88 43.204 33.796 44.296 33.768V32.928C44.296 31.9667 44.0907 31.2573 43.68 30.8C43.2693 30.3333 42.6767 30.1 41.902 30.1C41.342 30.1 40.8753 30.1653 40.502 30.296C40.138 30.4267 39.816 30.576 39.536 30.744C39.256 30.9027 38.9993 31.0473 38.766 31.178C38.542 31.3087 38.29 31.374 38.01 31.374C37.7673 31.374 37.562 31.3133 37.394 31.192C37.226 31.0613 37.0907 30.912 36.988 30.744L36.372 29.638Z" fill="#061014" fill-opacity="0.9"/>
</svg>
