<svg width="32" height="32" viewBox="0 0 32 32" fill="none" xmlns="http://www.w3.org/2000/svg">
<g id="meeting_5541733 1" clip-path="url(#clip0_12816_1411)">
<g id="Group">
<g id="Vector">
<mask id="path-1-outside-1_12816_1411" maskUnits="userSpaceOnUse" x="-0.979492" y="-1" width="18" height="19" fill="black">
<rect fill="white" x="-0.979492" y="-1" width="18" height="19"/>
<path d="M2.34622 13.8574C2.6079 14.1388 2.98139 14.3002 3.37095 14.3002H4.42418C4.34281 14.8611 4.30168 15.4305 4.30168 15.9997C4.30168 16.2471 4.30949 16.4974 4.32487 16.7436C4.34037 16.992 4.54674 17.1831 4.7923 17.1831C4.80211 17.1831 4.81199 17.1828 4.82199 17.1822C5.08036 17.1661 5.27673 16.9435 5.2606 16.6851C5.24642 16.4583 5.23923 16.2278 5.23923 15.9998C5.23923 15.4298 5.28473 14.8599 5.37323 14.3002H7.28813C7.76806 14.7546 8.41217 15.2205 9.26678 15.2205C10.535 15.2205 11.2556 14.2069 11.3402 13.1865L13.207 11.3197C14.2274 11.2351 15.241 10.5145 15.241 9.24627C15.241 8.3916 14.7751 7.74749 14.3208 7.26762V5.35266C14.8804 5.26416 15.4502 5.21866 16.0203 5.21866C16.2792 5.21866 16.489 5.00879 16.489 4.74992C16.489 4.49105 16.2792 4.28118 16.0203 4.28118C15.451 4.28118 14.8815 4.3223 14.3208 4.40367V3.3505C14.3208 2.96089 14.1594 2.58739 13.8779 2.32571C12.4518 0.999858 10.02 0 8.22118 0C7.93762 0 7.63987 0.0272495 7.33644 0.0809986C7.08151 0.126185 6.91145 0.369369 6.95664 0.624302C7.00176 0.879172 7.24501 1.04911 7.49988 1.00411C7.74956 0.959858 7.99224 0.937484 8.22118 0.937484C8.93604 0.937484 9.78515 1.12861 10.6159 1.44697C11.4284 1.82716 11.1479 2.71833 11.0818 2.8967C10.8729 3.46044 10.4734 3.70675 10.2078 3.61937L9.91396 3.52256C9.6679 3.44163 9.40303 3.57512 9.32203 3.82106C9.24097 4.06693 9.37466 4.33192 9.62046 4.41292L10.9362 4.84648L11.0279 5.39547C8.55392 6.56026 6.58064 8.5336 5.41591 11.0075L4.86692 10.9158L4.43331 9.60014C4.35231 9.35427 4.0875 9.22053 3.84138 9.30165C3.59551 9.38265 3.46189 9.64771 3.54295 9.89351L3.63982 10.1873C3.72726 10.4529 3.48089 10.8524 2.91714 11.0614C2.7389 11.1274 1.8476 11.408 1.46742 10.5955C1.14911 9.7647 0.957929 8.91559 0.957929 8.20073C0.957929 7.39718 1.23005 6.61795 1.44998 6.11927L2.10991 6.77919C2.72771 7.397 3.44601 7.71049 4.18044 7.71049C4.65349 7.71049 5.13342 7.5803 5.5971 7.31756C6.03403 7.46481 6.6692 7.52281 7.1062 7.08581C7.54313 6.64882 7.48513 6.01377 7.33794 5.57671C8.00849 4.39317 7.81531 3.10532 6.79958 2.08959L5.68141 0.971295C4.38843 -0.321682 2.28472 -0.321682 0.991678 0.971295C-0.216301 2.17927 -0.295299 4.09493 0.754057 5.39591C0.492562 5.91333 0.0205078 7.01182 0.0205078 8.20073C0.0205078 9.99957 1.0203 12.4314 2.34622 13.8574ZM9.44359 12.4314L12.4519 9.42315C12.4824 9.39271 12.5224 9.37746 12.5624 9.37746C12.6024 9.37746 12.6423 9.39271 12.6728 9.42315C12.8204 9.57071 12.9017 9.76689 12.9017 9.97558C12.9017 10.1843 12.8204 10.3804 12.6728 10.528L10.5484 12.6524C10.2439 12.9571 9.74828 12.957 9.44359 12.6524C9.40378 12.6126 9.39791 12.5662 9.39791 12.542C9.39791 12.5178 9.40378 12.4712 9.44359 12.4314ZM11.9609 3.22244C12.0904 2.87326 12.1589 2.51958 12.1308 2.18746C12.5442 2.43908 12.9225 2.71751 13.2395 3.01226C13.3308 3.0972 13.3832 3.22051 13.3832 3.35057V7.45818C13.3832 7.58249 13.4326 7.70174 13.5205 7.78961C14.0693 8.33842 14.3034 8.77403 14.3034 9.24627C14.3034 9.69452 14.0949 9.97926 13.83 10.1528C13.836 10.0943 13.8391 10.0352 13.8391 9.97558C13.8391 9.51652 13.6604 9.0849 13.3358 8.76028C13.1035 8.52804 12.792 8.42329 12.4875 8.44398L11.8144 4.41274C11.7857 4.24093 11.6642 4.09924 11.4987 4.04474L11.4481 4.02805C11.6576 3.83112 11.8341 3.56475 11.9609 3.22244ZM11.1889 6.35945L11.6184 8.93084L8.95129 11.5979L6.3799 11.1684C7.4245 9.0829 9.10335 7.40406 11.1889 6.35945ZM2.38215 12.0968C2.6774 12.0968 2.97277 12.0405 3.24295 11.9404C3.58582 11.8134 3.85457 11.6389 4.05012 11.4324L4.06519 11.4782C4.11969 11.6435 4.26143 11.7651 4.43318 11.7938L8.46398 12.4669C8.4623 12.4918 8.46036 12.5167 8.46036 12.5418C8.46036 12.834 8.57411 13.1086 8.78067 13.3152C9.11572 13.6503 9.55584 13.8178 9.99602 13.8178C10.0554 13.8178 10.1148 13.8145 10.1739 13.8084C10.0005 14.0738 9.71553 14.2829 9.26666 14.2829C8.79448 14.2829 8.35886 14.0487 7.80993 13.5C7.72206 13.4121 7.60288 13.3627 7.4785 13.3627H3.37095C3.24095 13.3627 3.11764 13.3103 3.03271 13.219C2.73371 12.8974 2.45153 12.5126 2.19703 12.0921C2.25591 12.0953 2.31747 12.0968 2.38215 12.0968ZM6.39458 5.74221C6.47815 5.91302 6.57821 6.28801 6.4434 6.42289C6.3084 6.55776 5.93353 6.45764 5.76497 6.3752C5.61447 6.29958 5.43516 6.31045 5.29498 6.40351C4.64418 6.83588 3.97656 6.88557 3.3622 6.56076C3.50407 6.48907 3.63532 6.39483 3.75094 6.27914C3.90419 6.12589 4.02069 5.9434 4.09569 5.74509C4.54155 5.79471 4.99767 5.64421 5.33123 5.31066C5.66478 4.9771 5.81497 4.52055 5.76559 4.07518C5.96397 4.00024 6.1464 3.88374 6.29971 3.73043C6.41533 3.61481 6.50952 3.48356 6.58121 3.34175C6.90595 3.95612 6.85626 4.62373 6.42402 5.27453C6.33184 5.41322 6.3214 5.59271 6.39458 5.74221ZM1.6546 1.63416C2.58196 0.706738 4.09094 0.7068 5.01842 1.63416L5.63641 2.25221C5.63647 2.25227 5.6366 2.2524 5.63666 2.25252C5.74553 2.3614 5.80547 2.50614 5.80547 2.66008C5.80547 2.81401 5.74553 2.95876 5.63672 3.06763C5.5191 3.18519 5.35573 3.24582 5.18811 3.23407C5.01398 3.22226 4.84661 3.30763 4.75524 3.45688C4.66386 3.60612 4.66324 3.79387 4.75361 3.94368C4.89067 4.17093 4.85555 4.46048 4.66824 4.64779C4.4808 4.83517 4.19125 4.87041 3.964 4.73329C3.81413 4.64292 3.62638 4.64354 3.4772 4.73492C3.32789 4.82629 3.24201 4.99322 3.25439 5.16778C3.2662 5.33522 3.20558 5.49872 3.08795 5.61634C2.97914 5.72521 2.83433 5.78515 2.6804 5.78515C2.52646 5.78515 2.38172 5.72521 2.27284 5.61634C2.27278 5.61628 2.27278 5.61628 2.27272 5.61621L1.65454 4.99804C0.727246 4.07055 0.727246 2.56158 1.6546 1.63416Z"/>
</mask>
<path d="M2.34622 13.8574C2.6079 14.1388 2.98139 14.3002 3.37095 14.3002H4.42418C4.34281 14.8611 4.30168 15.4305 4.30168 15.9997C4.30168 16.2471 4.30949 16.4974 4.32487 16.7436C4.34037 16.992 4.54674 17.1831 4.7923 17.1831C4.80211 17.1831 4.81199 17.1828 4.82199 17.1822C5.08036 17.1661 5.27673 16.9435 5.2606 16.6851C5.24642 16.4583 5.23923 16.2278 5.23923 15.9998C5.23923 15.4298 5.28473 14.8599 5.37323 14.3002H7.28813C7.76806 14.7546 8.41217 15.2205 9.26678 15.2205C10.535 15.2205 11.2556 14.2069 11.3402 13.1865L13.207 11.3197C14.2274 11.2351 15.241 10.5145 15.241 9.24627C15.241 8.3916 14.7751 7.74749 14.3208 7.26762V5.35266C14.8804 5.26416 15.4502 5.21866 16.0203 5.21866C16.2792 5.21866 16.489 5.00879 16.489 4.74992C16.489 4.49105 16.2792 4.28118 16.0203 4.28118C15.451 4.28118 14.8815 4.3223 14.3208 4.40367V3.3505C14.3208 2.96089 14.1594 2.58739 13.8779 2.32571C12.4518 0.999858 10.02 0 8.22118 0C7.93762 0 7.63987 0.0272495 7.33644 0.0809986C7.08151 0.126185 6.91145 0.369369 6.95664 0.624302C7.00176 0.879172 7.24501 1.04911 7.49988 1.00411C7.74956 0.959858 7.99224 0.937484 8.22118 0.937484C8.93604 0.937484 9.78515 1.12861 10.6159 1.44697C11.4284 1.82716 11.1479 2.71833 11.0818 2.8967C10.8729 3.46044 10.4734 3.70675 10.2078 3.61937L9.91396 3.52256C9.6679 3.44163 9.40303 3.57512 9.32203 3.82106C9.24097 4.06693 9.37466 4.33192 9.62046 4.41292L10.9362 4.84648L11.0279 5.39547C8.55392 6.56026 6.58064 8.5336 5.41591 11.0075L4.86692 10.9158L4.43331 9.60014C4.35231 9.35427 4.0875 9.22053 3.84138 9.30165C3.59551 9.38265 3.46189 9.64771 3.54295 9.89351L3.63982 10.1873C3.72726 10.4529 3.48089 10.8524 2.91714 11.0614C2.7389 11.1274 1.8476 11.408 1.46742 10.5955C1.14911 9.7647 0.957929 8.91559 0.957929 8.20073C0.957929 7.39718 1.23005 6.61795 1.44998 6.11927L2.10991 6.77919C2.72771 7.397 3.44601 7.71049 4.18044 7.71049C4.65349 7.71049 5.13342 7.5803 5.5971 7.31756C6.03403 7.46481 6.6692 7.52281 7.1062 7.08581C7.54313 6.64882 7.48513 6.01377 7.33794 5.57671C8.00849 4.39317 7.81531 3.10532 6.79958 2.08959L5.68141 0.971295C4.38843 -0.321682 2.28472 -0.321682 0.991678 0.971295C-0.216301 2.17927 -0.295299 4.09493 0.754057 5.39591C0.492562 5.91333 0.0205078 7.01182 0.0205078 8.20073C0.0205078 9.99957 1.0203 12.4314 2.34622 13.8574ZM9.44359 12.4314L12.4519 9.42315C12.4824 9.39271 12.5224 9.37746 12.5624 9.37746C12.6024 9.37746 12.6423 9.39271 12.6728 9.42315C12.8204 9.57071 12.9017 9.76689 12.9017 9.97558C12.9017 10.1843 12.8204 10.3804 12.6728 10.528L10.5484 12.6524C10.2439 12.9571 9.74828 12.957 9.44359 12.6524C9.40378 12.6126 9.39791 12.5662 9.39791 12.542C9.39791 12.5178 9.40378 12.4712 9.44359 12.4314ZM11.9609 3.22244C12.0904 2.87326 12.1589 2.51958 12.1308 2.18746C12.5442 2.43908 12.9225 2.71751 13.2395 3.01226C13.3308 3.0972 13.3832 3.22051 13.3832 3.35057V7.45818C13.3832 7.58249 13.4326 7.70174 13.5205 7.78961C14.0693 8.33842 14.3034 8.77403 14.3034 9.24627C14.3034 9.69452 14.0949 9.97926 13.83 10.1528C13.836 10.0943 13.8391 10.0352 13.8391 9.97558C13.8391 9.51652 13.6604 9.0849 13.3358 8.76028C13.1035 8.52804 12.792 8.42329 12.4875 8.44398L11.8144 4.41274C11.7857 4.24093 11.6642 4.09924 11.4987 4.04474L11.4481 4.02805C11.6576 3.83112 11.8341 3.56475 11.9609 3.22244ZM11.1889 6.35945L11.6184 8.93084L8.95129 11.5979L6.3799 11.1684C7.4245 9.0829 9.10335 7.40406 11.1889 6.35945ZM2.38215 12.0968C2.6774 12.0968 2.97277 12.0405 3.24295 11.9404C3.58582 11.8134 3.85457 11.6389 4.05012 11.4324L4.06519 11.4782C4.11969 11.6435 4.26143 11.7651 4.43318 11.7938L8.46398 12.4669C8.4623 12.4918 8.46036 12.5167 8.46036 12.5418C8.46036 12.834 8.57411 13.1086 8.78067 13.3152C9.11572 13.6503 9.55584 13.8178 9.99602 13.8178C10.0554 13.8178 10.1148 13.8145 10.1739 13.8084C10.0005 14.0738 9.71553 14.2829 9.26666 14.2829C8.79448 14.2829 8.35886 14.0487 7.80993 13.5C7.72206 13.4121 7.60288 13.3627 7.4785 13.3627H3.37095C3.24095 13.3627 3.11764 13.3103 3.03271 13.219C2.73371 12.8974 2.45153 12.5126 2.19703 12.0921C2.25591 12.0953 2.31747 12.0968 2.38215 12.0968ZM6.39458 5.74221C6.47815 5.91302 6.57821 6.28801 6.4434 6.42289C6.3084 6.55776 5.93353 6.45764 5.76497 6.3752C5.61447 6.29958 5.43516 6.31045 5.29498 6.40351C4.64418 6.83588 3.97656 6.88557 3.3622 6.56076C3.50407 6.48907 3.63532 6.39483 3.75094 6.27914C3.90419 6.12589 4.02069 5.9434 4.09569 5.74509C4.54155 5.79471 4.99767 5.64421 5.33123 5.31066C5.66478 4.9771 5.81497 4.52055 5.76559 4.07518C5.96397 4.00024 6.1464 3.88374 6.29971 3.73043C6.41533 3.61481 6.50952 3.48356 6.58121 3.34175C6.90595 3.95612 6.85626 4.62373 6.42402 5.27453C6.33184 5.41322 6.3214 5.59271 6.39458 5.74221ZM1.6546 1.63416C2.58196 0.706738 4.09094 0.7068 5.01842 1.63416L5.63641 2.25221C5.63647 2.25227 5.6366 2.2524 5.63666 2.25252C5.74553 2.3614 5.80547 2.50614 5.80547 2.66008C5.80547 2.81401 5.74553 2.95876 5.63672 3.06763C5.5191 3.18519 5.35573 3.24582 5.18811 3.23407C5.01398 3.22226 4.84661 3.30763 4.75524 3.45688C4.66386 3.60612 4.66324 3.79387 4.75361 3.94368C4.89067 4.17093 4.85555 4.46048 4.66824 4.64779C4.4808 4.83517 4.19125 4.87041 3.964 4.73329C3.81413 4.64292 3.62638 4.64354 3.4772 4.73492C3.32789 4.82629 3.24201 4.99322 3.25439 5.16778C3.2662 5.33522 3.20558 5.49872 3.08795 5.61634C2.97914 5.72521 2.83433 5.78515 2.6804 5.78515C2.52646 5.78515 2.38172 5.72521 2.27284 5.61634C2.27278 5.61628 2.27278 5.61628 2.27272 5.61621L1.65454 4.99804C0.727246 4.07055 0.727246 2.56158 1.6546 1.63416Z" fill="#003E79"/>
<path d="M2.34622 13.8574C2.6079 14.1388 2.98139 14.3002 3.37095 14.3002H4.42418C4.34281 14.8611 4.30168 15.4305 4.30168 15.9997C4.30168 16.2471 4.30949 16.4974 4.32487 16.7436C4.34037 16.992 4.54674 17.1831 4.7923 17.1831C4.80211 17.1831 4.81199 17.1828 4.82199 17.1822C5.08036 17.1661 5.27673 16.9435 5.2606 16.6851C5.24642 16.4583 5.23923 16.2278 5.23923 15.9998C5.23923 15.4298 5.28473 14.8599 5.37323 14.3002H7.28813C7.76806 14.7546 8.41217 15.2205 9.26678 15.2205C10.535 15.2205 11.2556 14.2069 11.3402 13.1865L13.207 11.3197C14.2274 11.2351 15.241 10.5145 15.241 9.24627C15.241 8.3916 14.7751 7.74749 14.3208 7.26762V5.35266C14.8804 5.26416 15.4502 5.21866 16.0203 5.21866C16.2792 5.21866 16.489 5.00879 16.489 4.74992C16.489 4.49105 16.2792 4.28118 16.0203 4.28118C15.451 4.28118 14.8815 4.3223 14.3208 4.40367V3.3505C14.3208 2.96089 14.1594 2.58739 13.8779 2.32571C12.4518 0.999858 10.02 0 8.22118 0C7.93762 0 7.63987 0.0272495 7.33644 0.0809986C7.08151 0.126185 6.91145 0.369369 6.95664 0.624302C7.00176 0.879172 7.24501 1.04911 7.49988 1.00411C7.74956 0.959858 7.99224 0.937484 8.22118 0.937484C8.93604 0.937484 9.78515 1.12861 10.6159 1.44697C11.4284 1.82716 11.1479 2.71833 11.0818 2.8967C10.8729 3.46044 10.4734 3.70675 10.2078 3.61937L9.91396 3.52256C9.6679 3.44163 9.40303 3.57512 9.32203 3.82106C9.24097 4.06693 9.37466 4.33192 9.62046 4.41292L10.9362 4.84648L11.0279 5.39547C8.55392 6.56026 6.58064 8.5336 5.41591 11.0075L4.86692 10.9158L4.43331 9.60014C4.35231 9.35427 4.0875 9.22053 3.84138 9.30165C3.59551 9.38265 3.46189 9.64771 3.54295 9.89351L3.63982 10.1873C3.72726 10.4529 3.48089 10.8524 2.91714 11.0614C2.7389 11.1274 1.8476 11.408 1.46742 10.5955C1.14911 9.7647 0.957929 8.91559 0.957929 8.20073C0.957929 7.39718 1.23005 6.61795 1.44998 6.11927L2.10991 6.77919C2.72771 7.397 3.44601 7.71049 4.18044 7.71049C4.65349 7.71049 5.13342 7.5803 5.5971 7.31756C6.03403 7.46481 6.6692 7.52281 7.1062 7.08581C7.54313 6.64882 7.48513 6.01377 7.33794 5.57671C8.00849 4.39317 7.81531 3.10532 6.79958 2.08959L5.68141 0.971295C4.38843 -0.321682 2.28472 -0.321682 0.991678 0.971295C-0.216301 2.17927 -0.295299 4.09493 0.754057 5.39591C0.492562 5.91333 0.0205078 7.01182 0.0205078 8.20073C0.0205078 9.99957 1.0203 12.4314 2.34622 13.8574ZM9.44359 12.4314L12.4519 9.42315C12.4824 9.39271 12.5224 9.37746 12.5624 9.37746C12.6024 9.37746 12.6423 9.39271 12.6728 9.42315C12.8204 9.57071 12.9017 9.76689 12.9017 9.97558C12.9017 10.1843 12.8204 10.3804 12.6728 10.528L10.5484 12.6524C10.2439 12.9571 9.74828 12.957 9.44359 12.6524C9.40378 12.6126 9.39791 12.5662 9.39791 12.542C9.39791 12.5178 9.40378 12.4712 9.44359 12.4314ZM11.9609 3.22244C12.0904 2.87326 12.1589 2.51958 12.1308 2.18746C12.5442 2.43908 12.9225 2.71751 13.2395 3.01226C13.3308 3.0972 13.3832 3.22051 13.3832 3.35057V7.45818C13.3832 7.58249 13.4326 7.70174 13.5205 7.78961C14.0693 8.33842 14.3034 8.77403 14.3034 9.24627C14.3034 9.69452 14.0949 9.97926 13.83 10.1528C13.836 10.0943 13.8391 10.0352 13.8391 9.97558C13.8391 9.51652 13.6604 9.0849 13.3358 8.76028C13.1035 8.52804 12.792 8.42329 12.4875 8.44398L11.8144 4.41274C11.7857 4.24093 11.6642 4.09924 11.4987 4.04474L11.4481 4.02805C11.6576 3.83112 11.8341 3.56475 11.9609 3.22244ZM11.1889 6.35945L11.6184 8.93084L8.95129 11.5979L6.3799 11.1684C7.4245 9.0829 9.10335 7.40406 11.1889 6.35945ZM2.38215 12.0968C2.6774 12.0968 2.97277 12.0405 3.24295 11.9404C3.58582 11.8134 3.85457 11.6389 4.05012 11.4324L4.06519 11.4782C4.11969 11.6435 4.26143 11.7651 4.43318 11.7938L8.46398 12.4669C8.4623 12.4918 8.46036 12.5167 8.46036 12.5418C8.46036 12.834 8.57411 13.1086 8.78067 13.3152C9.11572 13.6503 9.55584 13.8178 9.99602 13.8178C10.0554 13.8178 10.1148 13.8145 10.1739 13.8084C10.0005 14.0738 9.71553 14.2829 9.26666 14.2829C8.79448 14.2829 8.35886 14.0487 7.80993 13.5C7.72206 13.4121 7.60288 13.3627 7.4785 13.3627H3.37095C3.24095 13.3627 3.11764 13.3103 3.03271 13.219C2.73371 12.8974 2.45153 12.5126 2.19703 12.0921C2.25591 12.0953 2.31747 12.0968 2.38215 12.0968ZM6.39458 5.74221C6.47815 5.91302 6.57821 6.28801 6.4434 6.42289C6.3084 6.55776 5.93353 6.45764 5.76497 6.3752C5.61447 6.29958 5.43516 6.31045 5.29498 6.40351C4.64418 6.83588 3.97656 6.88557 3.3622 6.56076C3.50407 6.48907 3.63532 6.39483 3.75094 6.27914C3.90419 6.12589 4.02069 5.9434 4.09569 5.74509C4.54155 5.79471 4.99767 5.64421 5.33123 5.31066C5.66478 4.9771 5.81497 4.52055 5.76559 4.07518C5.96397 4.00024 6.1464 3.88374 6.29971 3.73043C6.41533 3.61481 6.50952 3.48356 6.58121 3.34175C6.90595 3.95612 6.85626 4.62373 6.42402 5.27453C6.33184 5.41322 6.3214 5.59271 6.39458 5.74221ZM1.6546 1.63416C2.58196 0.706738 4.09094 0.7068 5.01842 1.63416L5.63641 2.25221C5.63647 2.25227 5.6366 2.2524 5.63666 2.25252C5.74553 2.3614 5.80547 2.50614 5.80547 2.66008C5.80547 2.81401 5.74553 2.95876 5.63672 3.06763C5.5191 3.18519 5.35573 3.24582 5.18811 3.23407C5.01398 3.22226 4.84661 3.30763 4.75524 3.45688C4.66386 3.60612 4.66324 3.79387 4.75361 3.94368C4.89067 4.17093 4.85555 4.46048 4.66824 4.64779C4.4808 4.83517 4.19125 4.87041 3.964 4.73329C3.81413 4.64292 3.62638 4.64354 3.4772 4.73492C3.32789 4.82629 3.24201 4.99322 3.25439 5.16778C3.2662 5.33522 3.20558 5.49872 3.08795 5.61634C2.97914 5.72521 2.83433 5.78515 2.6804 5.78515C2.52646 5.78515 2.38172 5.72521 2.27284 5.61634C2.27278 5.61628 2.27278 5.61628 2.27272 5.61621L1.65454 4.99804C0.727246 4.07055 0.727246 2.56158 1.6546 1.63416Z" stroke="#003E79" stroke-width="0.6" mask="url(#path-1-outside-1_12816_1411)"/>
</g>
<g id="Vector_2">
<mask id="path-2-outside-2_12816_1411" maskUnits="userSpaceOnUse" x="14.8198" y="-0.999512" width="18" height="34" fill="black">
<rect fill="white" x="14.8198" y="-0.999512" width="18" height="34"/>
<path d="M30.5772 10.4876C30.4878 10.7306 30.6124 11 30.8553 11.0893C30.9087 11.1089 30.9633 11.1182 31.017 11.1182C31.208 11.1182 31.3873 11.0007 31.457 10.811C31.7988 9.88131 31.9794 8.97883 31.9794 8.20116C31.9794 7.3148 31.718 6.47837 31.4673 5.87938C31.8201 5.03615 31.9794 4.20379 31.9794 3.31649C31.9794 2.43076 31.6344 1.59802 31.0081 0.971659C30.3818 0.345295 29.5491 0.000488281 28.6633 0.000488281C27.7758 0.000488281 26.9435 0.159111 26.1001 0.511979C25.5013 0.261546 24.6646 0.000488281 23.7787 0.000488281C21.9813 0.000488281 20.2739 1.13116 17.8854 3.90317C17.6535 4.17235 17.483 4.4951 17.3926 4.83659L15.8624 10.6226C15.6725 11.3311 16.1495 11.9792 16.6731 12.2815C17.2323 12.6043 17.8473 12.559 18.2404 12.166L19.2172 11.1892C19.905 10.5013 19.489 9.74307 19.1829 9.22464L20.5612 6.23869C22.7799 7.28024 24.5616 9.02727 25.6453 11.2194L24.5531 11.4357C24.2968 11.081 23.8624 10.6236 23.2909 10.5492C23.0292 10.5149 22.6395 10.5524 22.2686 10.9233L21.2918 11.9001C20.882 12.3099 20.7652 12.8971 20.987 13.4326C21.2088 13.968 21.7066 14.3007 22.2861 14.3007H26.6267C26.7152 14.8605 26.7607 15.4304 26.7607 16.0002C26.7607 16.5701 26.7152 17.1399 26.6266 17.6997H22.2861C22.0224 17.6997 21.776 17.7692 21.5644 17.8947L19.8304 16.1798C19.4649 15.8145 18.8702 15.8144 18.5046 16.1799L16.1592 18.5253C15.9822 18.7023 15.8847 18.9378 15.8847 19.1882C15.8847 19.4385 15.9822 19.674 16.1611 19.8529L17.8887 21.5614C17.7541 21.7781 17.6791 22.033 17.6791 22.3067V28.6494C17.6791 29.039 17.8406 29.4127 18.1222 29.6744C19.5482 31.0001 21.98 31.9999 23.7786 31.9999C24.9675 31.9999 26.0659 31.5277 26.5834 31.2663C27.1882 31.7541 27.9256 31.9983 28.6633 31.9983C29.5124 31.9983 30.3616 31.6751 31.0081 31.0286H31.0082C32.2161 29.8205 32.2951 27.9049 31.2458 26.6039C31.5073 26.0865 31.9794 24.988 31.9794 23.7991C31.9794 22.0004 30.9795 19.5685 29.6536 18.1425C29.3919 17.861 29.0184 17.6997 28.6289 17.6997H27.5757C27.6571 17.1387 27.6982 16.5693 27.6982 16.0001C27.6982 15.431 27.6571 14.8616 27.5757 14.3006H28.6289C29.0185 14.3006 29.3921 14.1391 29.6539 13.8576C29.9789 13.5079 30.288 13.0971 30.5724 12.6365C30.7085 12.4162 30.6402 12.1273 30.42 11.9913C30.1997 11.8553 29.9109 11.9236 29.7749 12.1438C29.5225 12.5525 29.2507 12.9143 28.9673 13.2193C28.8823 13.3107 28.7589 13.3631 28.6289 13.3631H26.6775V11.9705L27.5805 11.7917C27.7463 11.7588 27.8816 11.6392 27.9346 11.4785L28.4221 9.99938C29.5046 8.90946 30.3069 7.94422 30.8735 7.02436C30.9723 7.38923 31.0419 7.79148 31.0419 8.20103C31.042 8.86014 30.8768 9.67213 30.5772 10.4876ZM24.1273 24.8108L24.6918 25.3753C24.6631 25.6137 24.6988 25.9137 24.8001 26.2743C24.5819 26.6491 24.443 27.0381 24.3811 27.4254C23.9422 26.6304 23.835 25.8258 24.1273 24.8108ZM25.3547 24.7123L24.7863 24.1439C25.578 23.9029 26.2273 23.8913 26.8327 24.1003C27.0406 24.1721 27.2462 24.2711 27.4528 24.3938C27.0497 24.4516 26.644 24.5934 26.2537 24.8206C25.8932 24.7193 25.5931 24.6835 25.3547 24.7123ZM20.7605 25.6658L20.5676 24.6918C20.9669 24.5249 21.2592 24.2213 21.397 23.8174C21.4235 23.7398 21.4423 23.6603 21.4553 23.58L23.5537 21.4815C23.5783 21.4765 23.6028 21.4714 23.6273 21.465C23.894 21.3955 24.3391 21.1896 24.632 20.5802L25.6453 20.7809C24.5941 22.908 22.8875 24.6146 20.7605 25.6658ZM18.6167 22.3067C18.6167 22.0161 18.8382 21.9018 18.9061 21.8737C18.9739 21.8455 19.2115 21.7698 19.4169 21.9752L20.3937 22.952C20.5267 23.085 20.5755 23.3218 20.5096 23.5148C20.4405 23.7174 20.2588 23.8448 19.9848 23.8855H18.6167V22.3067ZM22.2862 18.6372H23.8651V19.9744C23.762 20.2983 23.5949 20.5047 23.3908 20.5579C23.234 20.5987 23.0623 20.5449 22.9315 20.4142L21.9548 19.4374C21.7493 19.2319 21.825 18.9945 21.8531 18.9266C21.8813 18.8587 21.9956 18.6372 22.2862 18.6372ZM19.1696 16.8446L20.9668 18.622C20.7744 19.1427 20.8958 19.7043 21.2918 20.1003L22.2686 21.0771C22.3307 21.1392 22.3969 21.1943 22.4661 21.2434L21.2201 22.4893C21.1718 22.4178 21.1177 22.3503 21.0566 22.2892L20.0798 21.3124C19.6911 20.9237 19.1429 20.7992 18.6306 20.9766L16.8223 19.1882L19.1696 16.8446ZM18.7606 28.9877C18.6691 28.9027 18.6167 28.7794 18.6167 28.6494V24.823H19.6379L20.188 27.601C20.2209 27.7669 20.3405 27.9022 20.5012 27.9551L22.0858 28.4773C22.3319 28.5583 22.5967 28.4247 22.6777 28.1788C22.7588 27.9329 22.6251 27.6679 22.3793 27.5869L21.0545 27.1504L20.9485 26.6153C21.7047 26.2615 22.4141 25.8326 23.068 25.337C22.8226 27.3116 23.9261 28.6362 25.2002 29.9103L25.8601 30.5703C25.3614 30.7902 24.5823 31.0624 23.7787 31.0624C22.2162 31.0624 20.0119 30.1511 18.7606 28.9877ZM30.3453 30.3658C29.4177 31.2931 27.9088 31.2931 26.9814 30.3658L25.8631 29.2475C25.1513 28.5357 25.0891 27.5214 25.7008 26.6004C25.7803 26.4807 25.8006 26.3312 25.7557 26.1947C25.6971 26.0163 25.649 25.803 25.6289 25.6493C25.7813 25.6692 25.9924 25.7169 26.1742 25.7763C26.3106 25.8211 26.4602 25.801 26.5799 25.7215C27.5008 25.1097 28.5151 25.1719 29.2269 25.8837L30.3453 27.002C31.2727 27.9293 31.2727 29.4383 30.3453 30.3658ZM28.9672 18.7809C30.1306 20.0322 31.042 22.2365 31.042 23.7992C31.042 24.6027 30.7698 25.382 30.5499 25.8807C30.5499 25.8807 29.8773 25.2087 29.8751 25.2064C28.9153 24.2486 28.0756 23.5376 27.1388 23.2141C26.5687 23.0173 25.9849 22.964 25.3409 23.057C25.8264 22.4118 26.2469 21.713 26.595 20.9691L27.13 21.0751L27.5665 22.3998C27.6475 22.6457 27.9124 22.7794 28.1585 22.6983C28.4043 22.6173 28.5379 22.3522 28.4569 22.1064L27.9347 20.5218C27.8818 20.3611 27.7465 20.2415 27.5806 20.2086L24.8026 19.6585V18.6372H28.629C28.7589 18.6372 28.8822 18.6896 28.9672 18.7809ZM18.5543 10.5262L17.5775 11.503C17.446 11.6347 17.1915 11.4983 17.1418 11.4696C16.8859 11.3219 16.7182 11.0507 16.7683 10.8637L17.5615 7.86472L18.6441 8.15485L18.2289 9.05445C18.1651 9.1927 18.1724 9.35339 18.2485 9.48526C18.2814 9.54232 18.3149 9.59876 18.348 9.65469C18.7096 10.2651 18.7096 10.3709 18.5543 10.5262ZM19.7717 5.71239L19.0429 7.29111L17.8013 6.95843L18.299 5.07646C18.3533 4.87153 18.4559 4.67741 18.5956 4.51516C21.3117 1.36303 22.7399 0.938034 23.7787 0.938034C24.1879 0.938034 24.5899 1.00747 24.9544 1.10609C24.0139 1.68565 23.0255 2.51282 21.9051 3.63292L19.8738 5.56964C19.831 5.61033 19.7964 5.65876 19.7717 5.71239ZM22.8465 6.49981L24.0667 5.27958C24.203 5.14327 24.3362 5.0419 24.4725 4.96803C24.5492 5.22671 24.6586 5.48177 24.8001 5.72576C24.6158 6.38244 24.647 6.83956 24.8936 7.08624C25.1402 7.33292 25.5974 7.36417 26.2541 7.17967C26.4978 7.32092 26.7529 7.43117 27.0115 7.50798C26.9377 7.64398 26.8364 7.77698 26.7003 7.9131L25.4801 9.13327C24.7485 8.11953 23.8604 7.23149 22.8465 6.49981ZM25.7009 5.39996C25.5743 5.20927 25.4755 5.00915 25.405 4.80659C25.6229 4.82172 25.865 4.85834 26.1436 4.90378C26.3971 4.94509 26.6732 4.99009 26.9644 5.01552C26.9898 5.30671 27.0348 5.58277 27.0761 5.83632C27.1215 6.11494 27.1582 6.35706 27.1732 6.57494C26.9706 6.50437 26.7702 6.40538 26.5799 6.27894C26.4602 6.19944 26.3105 6.17919 26.1742 6.22407C25.9958 6.28269 25.7825 6.33075 25.6287 6.35081C25.6486 6.19844 25.6963 5.98732 25.7557 5.80564C25.8006 5.6692 25.7804 5.51964 25.7009 5.39996ZM25.7401 13.3632H22.2862C21.9956 13.3632 21.8813 13.1417 21.8531 13.0738C21.825 13.0059 21.7493 12.7685 21.9547 12.563L22.9315 11.5862C23.054 11.4638 23.1325 11.4741 23.1699 11.4789C23.3889 11.5074 23.7008 11.8008 23.9285 12.1925C24.0292 12.3656 24.2286 12.4557 24.4248 12.4168L25.74 12.1563V13.3632H25.7401ZM27.6802 9.41588C27.6284 9.46776 27.5895 9.53101 27.5665 9.60063L27.13 10.9254L26.595 11.0313C26.4178 10.6527 26.2217 10.2857 26.0077 9.93156L27.3632 8.57609C28.317 7.62229 28.1493 6.59337 28.0014 5.68558C27.9424 5.32321 27.8813 4.94853 27.8813 4.56741C27.8813 4.30854 27.6715 4.09867 27.4125 4.09867C27.0314 4.09867 26.6567 4.0376 26.2943 3.97854C25.3865 3.83061 24.3576 3.66299 23.4039 4.61672L22.0483 5.97226C21.7935 5.81839 21.5321 5.67389 21.2646 5.53883L22.5561 4.30754C22.5587 4.30497 22.5614 4.30235 22.5641 4.29972C24.9831 1.88052 26.6932 0.938034 28.6633 0.938034C29.2986 0.938034 29.896 1.18547 30.3452 1.63471C30.7945 2.08395 31.0419 2.68132 31.0419 3.31662C31.042 5.28652 30.0994 6.99662 27.6802 9.41588Z"/>
</mask>
<path d="M30.5772 10.4876C30.4878 10.7306 30.6124 11 30.8553 11.0893C30.9087 11.1089 30.9633 11.1182 31.017 11.1182C31.208 11.1182 31.3873 11.0007 31.457 10.811C31.7988 9.88131 31.9794 8.97883 31.9794 8.20116C31.9794 7.3148 31.718 6.47837 31.4673 5.87938C31.8201 5.03615 31.9794 4.20379 31.9794 3.31649C31.9794 2.43076 31.6344 1.59802 31.0081 0.971659C30.3818 0.345295 29.5491 0.000488281 28.6633 0.000488281C27.7758 0.000488281 26.9435 0.159111 26.1001 0.511979C25.5013 0.261546 24.6646 0.000488281 23.7787 0.000488281C21.9813 0.000488281 20.2739 1.13116 17.8854 3.90317C17.6535 4.17235 17.483 4.4951 17.3926 4.83659L15.8624 10.6226C15.6725 11.3311 16.1495 11.9792 16.6731 12.2815C17.2323 12.6043 17.8473 12.559 18.2404 12.166L19.2172 11.1892C19.905 10.5013 19.489 9.74307 19.1829 9.22464L20.5612 6.23869C22.7799 7.28024 24.5616 9.02727 25.6453 11.2194L24.5531 11.4357C24.2968 11.081 23.8624 10.6236 23.2909 10.5492C23.0292 10.5149 22.6395 10.5524 22.2686 10.9233L21.2918 11.9001C20.882 12.3099 20.7652 12.8971 20.987 13.4326C21.2088 13.968 21.7066 14.3007 22.2861 14.3007H26.6267C26.7152 14.8605 26.7607 15.4304 26.7607 16.0002C26.7607 16.5701 26.7152 17.1399 26.6266 17.6997H22.2861C22.0224 17.6997 21.776 17.7692 21.5644 17.8947L19.8304 16.1798C19.4649 15.8145 18.8702 15.8144 18.5046 16.1799L16.1592 18.5253C15.9822 18.7023 15.8847 18.9378 15.8847 19.1882C15.8847 19.4385 15.9822 19.674 16.1611 19.8529L17.8887 21.5614C17.7541 21.7781 17.6791 22.033 17.6791 22.3067V28.6494C17.6791 29.039 17.8406 29.4127 18.1222 29.6744C19.5482 31.0001 21.98 31.9999 23.7786 31.9999C24.9675 31.9999 26.0659 31.5277 26.5834 31.2663C27.1882 31.7541 27.9256 31.9983 28.6633 31.9983C29.5124 31.9983 30.3616 31.6751 31.0081 31.0286H31.0082C32.2161 29.8205 32.2951 27.9049 31.2458 26.6039C31.5073 26.0865 31.9794 24.988 31.9794 23.7991C31.9794 22.0004 30.9795 19.5685 29.6536 18.1425C29.3919 17.861 29.0184 17.6997 28.6289 17.6997H27.5757C27.6571 17.1387 27.6982 16.5693 27.6982 16.0001C27.6982 15.431 27.6571 14.8616 27.5757 14.3006H28.6289C29.0185 14.3006 29.3921 14.1391 29.6539 13.8576C29.9789 13.5079 30.288 13.0971 30.5724 12.6365C30.7085 12.4162 30.6402 12.1273 30.42 11.9913C30.1997 11.8553 29.9109 11.9236 29.7749 12.1438C29.5225 12.5525 29.2507 12.9143 28.9673 13.2193C28.8823 13.3107 28.7589 13.3631 28.6289 13.3631H26.6775V11.9705L27.5805 11.7917C27.7463 11.7588 27.8816 11.6392 27.9346 11.4785L28.4221 9.99938C29.5046 8.90946 30.3069 7.94422 30.8735 7.02436C30.9723 7.38923 31.0419 7.79148 31.0419 8.20103C31.042 8.86014 30.8768 9.67213 30.5772 10.4876ZM24.1273 24.8108L24.6918 25.3753C24.6631 25.6137 24.6988 25.9137 24.8001 26.2743C24.5819 26.6491 24.443 27.0381 24.3811 27.4254C23.9422 26.6304 23.835 25.8258 24.1273 24.8108ZM25.3547 24.7123L24.7863 24.1439C25.578 23.9029 26.2273 23.8913 26.8327 24.1003C27.0406 24.1721 27.2462 24.2711 27.4528 24.3938C27.0497 24.4516 26.644 24.5934 26.2537 24.8206C25.8932 24.7193 25.5931 24.6835 25.3547 24.7123ZM20.7605 25.6658L20.5676 24.6918C20.9669 24.5249 21.2592 24.2213 21.397 23.8174C21.4235 23.7398 21.4423 23.6603 21.4553 23.58L23.5537 21.4815C23.5783 21.4765 23.6028 21.4714 23.6273 21.465C23.894 21.3955 24.3391 21.1896 24.632 20.5802L25.6453 20.7809C24.5941 22.908 22.8875 24.6146 20.7605 25.6658ZM18.6167 22.3067C18.6167 22.0161 18.8382 21.9018 18.9061 21.8737C18.9739 21.8455 19.2115 21.7698 19.4169 21.9752L20.3937 22.952C20.5267 23.085 20.5755 23.3218 20.5096 23.5148C20.4405 23.7174 20.2588 23.8448 19.9848 23.8855H18.6167V22.3067ZM22.2862 18.6372H23.8651V19.9744C23.762 20.2983 23.5949 20.5047 23.3908 20.5579C23.234 20.5987 23.0623 20.5449 22.9315 20.4142L21.9548 19.4374C21.7493 19.2319 21.825 18.9945 21.8531 18.9266C21.8813 18.8587 21.9956 18.6372 22.2862 18.6372ZM19.1696 16.8446L20.9668 18.622C20.7744 19.1427 20.8958 19.7043 21.2918 20.1003L22.2686 21.0771C22.3307 21.1392 22.3969 21.1943 22.4661 21.2434L21.2201 22.4893C21.1718 22.4178 21.1177 22.3503 21.0566 22.2892L20.0798 21.3124C19.6911 20.9237 19.1429 20.7992 18.6306 20.9766L16.8223 19.1882L19.1696 16.8446ZM18.7606 28.9877C18.6691 28.9027 18.6167 28.7794 18.6167 28.6494V24.823H19.6379L20.188 27.601C20.2209 27.7669 20.3405 27.9022 20.5012 27.9551L22.0858 28.4773C22.3319 28.5583 22.5967 28.4247 22.6777 28.1788C22.7588 27.9329 22.6251 27.6679 22.3793 27.5869L21.0545 27.1504L20.9485 26.6153C21.7047 26.2615 22.4141 25.8326 23.068 25.337C22.8226 27.3116 23.9261 28.6362 25.2002 29.9103L25.8601 30.5703C25.3614 30.7902 24.5823 31.0624 23.7787 31.0624C22.2162 31.0624 20.0119 30.1511 18.7606 28.9877ZM30.3453 30.3658C29.4177 31.2931 27.9088 31.2931 26.9814 30.3658L25.8631 29.2475C25.1513 28.5357 25.0891 27.5214 25.7008 26.6004C25.7803 26.4807 25.8006 26.3312 25.7557 26.1947C25.6971 26.0163 25.649 25.803 25.6289 25.6493C25.7813 25.6692 25.9924 25.7169 26.1742 25.7763C26.3106 25.8211 26.4602 25.801 26.5799 25.7215C27.5008 25.1097 28.5151 25.1719 29.2269 25.8837L30.3453 27.002C31.2727 27.9293 31.2727 29.4383 30.3453 30.3658ZM28.9672 18.7809C30.1306 20.0322 31.042 22.2365 31.042 23.7992C31.042 24.6027 30.7698 25.382 30.5499 25.8807C30.5499 25.8807 29.8773 25.2087 29.8751 25.2064C28.9153 24.2486 28.0756 23.5376 27.1388 23.2141C26.5687 23.0173 25.9849 22.964 25.3409 23.057C25.8264 22.4118 26.2469 21.713 26.595 20.9691L27.13 21.0751L27.5665 22.3998C27.6475 22.6457 27.9124 22.7794 28.1585 22.6983C28.4043 22.6173 28.5379 22.3522 28.4569 22.1064L27.9347 20.5218C27.8818 20.3611 27.7465 20.2415 27.5806 20.2086L24.8026 19.6585V18.6372H28.629C28.7589 18.6372 28.8822 18.6896 28.9672 18.7809ZM18.5543 10.5262L17.5775 11.503C17.446 11.6347 17.1915 11.4983 17.1418 11.4696C16.8859 11.3219 16.7182 11.0507 16.7683 10.8637L17.5615 7.86472L18.6441 8.15485L18.2289 9.05445C18.1651 9.1927 18.1724 9.35339 18.2485 9.48526C18.2814 9.54232 18.3149 9.59876 18.348 9.65469C18.7096 10.2651 18.7096 10.3709 18.5543 10.5262ZM19.7717 5.71239L19.0429 7.29111L17.8013 6.95843L18.299 5.07646C18.3533 4.87153 18.4559 4.67741 18.5956 4.51516C21.3117 1.36303 22.7399 0.938034 23.7787 0.938034C24.1879 0.938034 24.5899 1.00747 24.9544 1.10609C24.0139 1.68565 23.0255 2.51282 21.9051 3.63292L19.8738 5.56964C19.831 5.61033 19.7964 5.65876 19.7717 5.71239ZM22.8465 6.49981L24.0667 5.27958C24.203 5.14327 24.3362 5.0419 24.4725 4.96803C24.5492 5.22671 24.6586 5.48177 24.8001 5.72576C24.6158 6.38244 24.647 6.83956 24.8936 7.08624C25.1402 7.33292 25.5974 7.36417 26.2541 7.17967C26.4978 7.32092 26.7529 7.43117 27.0115 7.50798C26.9377 7.64398 26.8364 7.77698 26.7003 7.9131L25.4801 9.13327C24.7485 8.11953 23.8604 7.23149 22.8465 6.49981ZM25.7009 5.39996C25.5743 5.20927 25.4755 5.00915 25.405 4.80659C25.6229 4.82172 25.865 4.85834 26.1436 4.90378C26.3971 4.94509 26.6732 4.99009 26.9644 5.01552C26.9898 5.30671 27.0348 5.58277 27.0761 5.83632C27.1215 6.11494 27.1582 6.35706 27.1732 6.57494C26.9706 6.50437 26.7702 6.40538 26.5799 6.27894C26.4602 6.19944 26.3105 6.17919 26.1742 6.22407C25.9958 6.28269 25.7825 6.33075 25.6287 6.35081C25.6486 6.19844 25.6963 5.98732 25.7557 5.80564C25.8006 5.6692 25.7804 5.51964 25.7009 5.39996ZM25.7401 13.3632H22.2862C21.9956 13.3632 21.8813 13.1417 21.8531 13.0738C21.825 13.0059 21.7493 12.7685 21.9547 12.563L22.9315 11.5862C23.054 11.4638 23.1325 11.4741 23.1699 11.4789C23.3889 11.5074 23.7008 11.8008 23.9285 12.1925C24.0292 12.3656 24.2286 12.4557 24.4248 12.4168L25.74 12.1563V13.3632H25.7401ZM27.6802 9.41588C27.6284 9.46776 27.5895 9.53101 27.5665 9.60063L27.13 10.9254L26.595 11.0313C26.4178 10.6527 26.2217 10.2857 26.0077 9.93156L27.3632 8.57609C28.317 7.62229 28.1493 6.59337 28.0014 5.68558C27.9424 5.32321 27.8813 4.94853 27.8813 4.56741C27.8813 4.30854 27.6715 4.09867 27.4125 4.09867C27.0314 4.09867 26.6567 4.0376 26.2943 3.97854C25.3865 3.83061 24.3576 3.66299 23.4039 4.61672L22.0483 5.97226C21.7935 5.81839 21.5321 5.67389 21.2646 5.53883L22.5561 4.30754C22.5587 4.30497 22.5614 4.30235 22.5641 4.29972C24.9831 1.88052 26.6932 0.938034 28.6633 0.938034C29.2986 0.938034 29.896 1.18547 30.3452 1.63471C30.7945 2.08395 31.0419 2.68132 31.0419 3.31662C31.042 5.28652 30.0994 6.99662 27.6802 9.41588Z" fill="#003E79"/>
<path d="M30.5772 10.4876C30.4878 10.7306 30.6124 11 30.8553 11.0893C30.9087 11.1089 30.9633 11.1182 31.017 11.1182C31.208 11.1182 31.3873 11.0007 31.457 10.811C31.7988 9.88131 31.9794 8.97883 31.9794 8.20116C31.9794 7.3148 31.718 6.47837 31.4673 5.87938C31.8201 5.03615 31.9794 4.20379 31.9794 3.31649C31.9794 2.43076 31.6344 1.59802 31.0081 0.971659C30.3818 0.345295 29.5491 0.000488281 28.6633 0.000488281C27.7758 0.000488281 26.9435 0.159111 26.1001 0.511979C25.5013 0.261546 24.6646 0.000488281 23.7787 0.000488281C21.9813 0.000488281 20.2739 1.13116 17.8854 3.90317C17.6535 4.17235 17.483 4.4951 17.3926 4.83659L15.8624 10.6226C15.6725 11.3311 16.1495 11.9792 16.6731 12.2815C17.2323 12.6043 17.8473 12.559 18.2404 12.166L19.2172 11.1892C19.905 10.5013 19.489 9.74307 19.1829 9.22464L20.5612 6.23869C22.7799 7.28024 24.5616 9.02727 25.6453 11.2194L24.5531 11.4357C24.2968 11.081 23.8624 10.6236 23.2909 10.5492C23.0292 10.5149 22.6395 10.5524 22.2686 10.9233L21.2918 11.9001C20.882 12.3099 20.7652 12.8971 20.987 13.4326C21.2088 13.968 21.7066 14.3007 22.2861 14.3007H26.6267C26.7152 14.8605 26.7607 15.4304 26.7607 16.0002C26.7607 16.5701 26.7152 17.1399 26.6266 17.6997H22.2861C22.0224 17.6997 21.776 17.7692 21.5644 17.8947L19.8304 16.1798C19.4649 15.8145 18.8702 15.8144 18.5046 16.1799L16.1592 18.5253C15.9822 18.7023 15.8847 18.9378 15.8847 19.1882C15.8847 19.4385 15.9822 19.674 16.1611 19.8529L17.8887 21.5614C17.7541 21.7781 17.6791 22.033 17.6791 22.3067V28.6494C17.6791 29.039 17.8406 29.4127 18.1222 29.6744C19.5482 31.0001 21.98 31.9999 23.7786 31.9999C24.9675 31.9999 26.0659 31.5277 26.5834 31.2663C27.1882 31.7541 27.9256 31.9983 28.6633 31.9983C29.5124 31.9983 30.3616 31.6751 31.0081 31.0286H31.0082C32.2161 29.8205 32.2951 27.9049 31.2458 26.6039C31.5073 26.0865 31.9794 24.988 31.9794 23.7991C31.9794 22.0004 30.9795 19.5685 29.6536 18.1425C29.3919 17.861 29.0184 17.6997 28.6289 17.6997H27.5757C27.6571 17.1387 27.6982 16.5693 27.6982 16.0001C27.6982 15.431 27.6571 14.8616 27.5757 14.3006H28.6289C29.0185 14.3006 29.3921 14.1391 29.6539 13.8576C29.9789 13.5079 30.288 13.0971 30.5724 12.6365C30.7085 12.4162 30.6402 12.1273 30.42 11.9913C30.1997 11.8553 29.9109 11.9236 29.7749 12.1438C29.5225 12.5525 29.2507 12.9143 28.9673 13.2193C28.8823 13.3107 28.7589 13.3631 28.6289 13.3631H26.6775V11.9705L27.5805 11.7917C27.7463 11.7588 27.8816 11.6392 27.9346 11.4785L28.4221 9.99938C29.5046 8.90946 30.3069 7.94422 30.8735 7.02436C30.9723 7.38923 31.0419 7.79148 31.0419 8.20103C31.042 8.86014 30.8768 9.67213 30.5772 10.4876ZM24.1273 24.8108L24.6918 25.3753C24.6631 25.6137 24.6988 25.9137 24.8001 26.2743C24.5819 26.6491 24.443 27.0381 24.3811 27.4254C23.9422 26.6304 23.835 25.8258 24.1273 24.8108ZM25.3547 24.7123L24.7863 24.1439C25.578 23.9029 26.2273 23.8913 26.8327 24.1003C27.0406 24.1721 27.2462 24.2711 27.4528 24.3938C27.0497 24.4516 26.644 24.5934 26.2537 24.8206C25.8932 24.7193 25.5931 24.6835 25.3547 24.7123ZM20.7605 25.6658L20.5676 24.6918C20.9669 24.5249 21.2592 24.2213 21.397 23.8174C21.4235 23.7398 21.4423 23.6603 21.4553 23.58L23.5537 21.4815C23.5783 21.4765 23.6028 21.4714 23.6273 21.465C23.894 21.3955 24.3391 21.1896 24.632 20.5802L25.6453 20.7809C24.5941 22.908 22.8875 24.6146 20.7605 25.6658ZM18.6167 22.3067C18.6167 22.0161 18.8382 21.9018 18.9061 21.8737C18.9739 21.8455 19.2115 21.7698 19.4169 21.9752L20.3937 22.952C20.5267 23.085 20.5755 23.3218 20.5096 23.5148C20.4405 23.7174 20.2588 23.8448 19.9848 23.8855H18.6167V22.3067ZM22.2862 18.6372H23.8651V19.9744C23.762 20.2983 23.5949 20.5047 23.3908 20.5579C23.234 20.5987 23.0623 20.5449 22.9315 20.4142L21.9548 19.4374C21.7493 19.2319 21.825 18.9945 21.8531 18.9266C21.8813 18.8587 21.9956 18.6372 22.2862 18.6372ZM19.1696 16.8446L20.9668 18.622C20.7744 19.1427 20.8958 19.7043 21.2918 20.1003L22.2686 21.0771C22.3307 21.1392 22.3969 21.1943 22.4661 21.2434L21.2201 22.4893C21.1718 22.4178 21.1177 22.3503 21.0566 22.2892L20.0798 21.3124C19.6911 20.9237 19.1429 20.7992 18.6306 20.9766L16.8223 19.1882L19.1696 16.8446ZM18.7606 28.9877C18.6691 28.9027 18.6167 28.7794 18.6167 28.6494V24.823H19.6379L20.188 27.601C20.2209 27.7669 20.3405 27.9022 20.5012 27.9551L22.0858 28.4773C22.3319 28.5583 22.5967 28.4247 22.6777 28.1788C22.7588 27.9329 22.6251 27.6679 22.3793 27.5869L21.0545 27.1504L20.9485 26.6153C21.7047 26.2615 22.4141 25.8326 23.068 25.337C22.8226 27.3116 23.9261 28.6362 25.2002 29.9103L25.8601 30.5703C25.3614 30.7902 24.5823 31.0624 23.7787 31.0624C22.2162 31.0624 20.0119 30.1511 18.7606 28.9877ZM30.3453 30.3658C29.4177 31.2931 27.9088 31.2931 26.9814 30.3658L25.8631 29.2475C25.1513 28.5357 25.0891 27.5214 25.7008 26.6004C25.7803 26.4807 25.8006 26.3312 25.7557 26.1947C25.6971 26.0163 25.649 25.803 25.6289 25.6493C25.7813 25.6692 25.9924 25.7169 26.1742 25.7763C26.3106 25.8211 26.4602 25.801 26.5799 25.7215C27.5008 25.1097 28.5151 25.1719 29.2269 25.8837L30.3453 27.002C31.2727 27.9293 31.2727 29.4383 30.3453 30.3658ZM28.9672 18.7809C30.1306 20.0322 31.042 22.2365 31.042 23.7992C31.042 24.6027 30.7698 25.382 30.5499 25.8807C30.5499 25.8807 29.8773 25.2087 29.8751 25.2064C28.9153 24.2486 28.0756 23.5376 27.1388 23.2141C26.5687 23.0173 25.9849 22.964 25.3409 23.057C25.8264 22.4118 26.2469 21.713 26.595 20.9691L27.13 21.0751L27.5665 22.3998C27.6475 22.6457 27.9124 22.7794 28.1585 22.6983C28.4043 22.6173 28.5379 22.3522 28.4569 22.1064L27.9347 20.5218C27.8818 20.3611 27.7465 20.2415 27.5806 20.2086L24.8026 19.6585V18.6372H28.629C28.7589 18.6372 28.8822 18.6896 28.9672 18.7809ZM18.5543 10.5262L17.5775 11.503C17.446 11.6347 17.1915 11.4983 17.1418 11.4696C16.8859 11.3219 16.7182 11.0507 16.7683 10.8637L17.5615 7.86472L18.6441 8.15485L18.2289 9.05445C18.1651 9.1927 18.1724 9.35339 18.2485 9.48526C18.2814 9.54232 18.3149 9.59876 18.348 9.65469C18.7096 10.2651 18.7096 10.3709 18.5543 10.5262ZM19.7717 5.71239L19.0429 7.29111L17.8013 6.95843L18.299 5.07646C18.3533 4.87153 18.4559 4.67741 18.5956 4.51516C21.3117 1.36303 22.7399 0.938034 23.7787 0.938034C24.1879 0.938034 24.5899 1.00747 24.9544 1.10609C24.0139 1.68565 23.0255 2.51282 21.9051 3.63292L19.8738 5.56964C19.831 5.61033 19.7964 5.65876 19.7717 5.71239ZM22.8465 6.49981L24.0667 5.27958C24.203 5.14327 24.3362 5.0419 24.4725 4.96803C24.5492 5.22671 24.6586 5.48177 24.8001 5.72576C24.6158 6.38244 24.647 6.83956 24.8936 7.08624C25.1402 7.33292 25.5974 7.36417 26.2541 7.17967C26.4978 7.32092 26.7529 7.43117 27.0115 7.50798C26.9377 7.64398 26.8364 7.77698 26.7003 7.9131L25.4801 9.13327C24.7485 8.11953 23.8604 7.23149 22.8465 6.49981ZM25.7009 5.39996C25.5743 5.20927 25.4755 5.00915 25.405 4.80659C25.6229 4.82172 25.865 4.85834 26.1436 4.90378C26.3971 4.94509 26.6732 4.99009 26.9644 5.01552C26.9898 5.30671 27.0348 5.58277 27.0761 5.83632C27.1215 6.11494 27.1582 6.35706 27.1732 6.57494C26.9706 6.50437 26.7702 6.40538 26.5799 6.27894C26.4602 6.19944 26.3105 6.17919 26.1742 6.22407C25.9958 6.28269 25.7825 6.33075 25.6287 6.35081C25.6486 6.19844 25.6963 5.98732 25.7557 5.80564C25.8006 5.6692 25.7804 5.51964 25.7009 5.39996ZM25.7401 13.3632H22.2862C21.9956 13.3632 21.8813 13.1417 21.8531 13.0738C21.825 13.0059 21.7493 12.7685 21.9547 12.563L22.9315 11.5862C23.054 11.4638 23.1325 11.4741 23.1699 11.4789C23.3889 11.5074 23.7008 11.8008 23.9285 12.1925C24.0292 12.3656 24.2286 12.4557 24.4248 12.4168L25.74 12.1563V13.3632H25.7401ZM27.6802 9.41588C27.6284 9.46776 27.5895 9.53101 27.5665 9.60063L27.13 10.9254L26.595 11.0313C26.4178 10.6527 26.2217 10.2857 26.0077 9.93156L27.3632 8.57609C28.317 7.62229 28.1493 6.59337 28.0014 5.68558C27.9424 5.32321 27.8813 4.94853 27.8813 4.56741C27.8813 4.30854 27.6715 4.09867 27.4125 4.09867C27.0314 4.09867 26.6567 4.0376 26.2943 3.97854C25.3865 3.83061 24.3576 3.66299 23.4039 4.61672L22.0483 5.97226C21.7935 5.81839 21.5321 5.67389 21.2646 5.53883L22.5561 4.30754C22.5587 4.30497 22.5614 4.30235 22.5641 4.29972C24.9831 1.88052 26.6932 0.938034 28.6633 0.938034C29.2986 0.938034 29.896 1.18547 30.3452 1.63471C30.7945 2.08395 31.0419 2.68132 31.0419 3.31662C31.042 5.28652 30.0994 6.99662 27.6802 9.41588Z" stroke="#003E79" stroke-width="0.6" mask="url(#path-2-outside-2_12816_1411)"/>
</g>
<path id="Vector_3" d="M13.7839 26.1585L13.7839 26.1585C13.8245 26.2417 13.8565 26.3273 13.8809 26.414C14.6759 26.5763 15.4949 26.6486 16.3135 26.6267L16.3304 26.6264C16.6645 26.6264 16.9397 26.8925 16.9487 27.2285M13.7839 26.1585L16.3428 27.7137L16.3468 27.8636C16.6884 27.8544 16.9579 27.57 16.9487 27.2285M13.7839 26.1585L12.3774 23.2719C12.8938 22.321 13.1787 21.603 13.2198 21.006C13.2631 20.3778 13.0361 19.8987 12.5787 19.4412L12.5787 19.4412M13.7839 26.1585L12.5787 19.4412M16.9487 27.2285L16.7987 27.2325L16.9487 27.2284C16.9487 27.2284 16.9487 27.2284 16.9487 27.2285ZM12.5787 19.4412C12.1405 19.0031 11.64 18.7972 11.0038 18.8421C10.3957 18.885 9.67192 19.1567 8.76446 19.6448L5.86017 18.2347L5.86017 18.2347M12.5787 19.4412L5.86017 18.2347M5.86017 18.2347C5.31586 17.9704 4.66254 18.0471 4.19486 18.4304M5.86017 18.2347L4.19486 18.4304M9.19702 23.7104L9.19701 23.7104C9.1197 23.4521 9.08028 23.1923 9.07734 22.9428C8.82422 22.9392 8.5606 22.8974 8.29904 22.8163M9.19702 23.7104L8.34342 22.6731M9.19702 23.7104C9.23366 23.8328 9.29877 24.0448 9.37737 24.2987M9.19702 23.7104L9.37737 24.2987M8.29904 22.8163L8.34342 22.6731M8.29904 22.8163L8.29905 22.8163L8.34342 22.6731M8.29904 22.8163L7.71549 22.6356M8.34342 22.6731L7.55402 22.4286C7.60701 22.4983 7.66084 22.5673 7.71549 22.6356M7.71549 22.6356C8.20654 23.2495 8.76392 23.8072 9.37737 24.2987M7.71549 22.6356L9.37737 24.2987M6.40626 28.6121C6.25681 27.9863 5.92366 27.2576 5.33391 26.4102L5.3339 26.4102C5.11493 26.0956 4.87678 25.7938 4.64905 25.5239L6.40626 28.6121ZM6.40626 28.6121C6.678 28.0327 6.61077 27.3403 6.17406 26.6827L6.40626 28.6121ZM12.748 27.1365L12.632 27.0414C12.71 26.9462 12.7258 26.8121 12.6714 26.7005L12.6714 26.7005L11.3224 23.932L10.5927 24.0398C10.849 24.8665 11.2212 26.0539 11.2424 26.1215L11.2433 26.1244L11.2433 26.1244C11.3061 26.3247 11.263 26.5433 11.1289 26.7048L11.1289 26.7048L9.86592 28.2254C9.86592 28.2254 9.86592 28.2254 9.86591 28.2254C9.74352 28.3728 9.56695 28.4488 9.38972 28.4488C9.25049 28.4488 9.11007 28.402 8.99462 28.3061M12.748 27.1365L9.09047 28.1907M12.748 27.1365L12.632 27.0414C11.6583 28.2294 10.7314 29.204 9.95181 29.88C9.5618 30.2182 9.21164 30.479 8.91328 30.6545C8.61019 30.8327 8.37874 30.9118 8.22117 30.9118C7.54797 30.9118 6.88716 30.7125 6.40351 30.5181L6.90577 30.0158C7.92296 28.9986 8.08397 27.5433 7.3609 26.2533C7.4439 25.9409 7.48044 25.6649 7.46429 25.4296C7.447 25.1777 7.36836 24.9635 7.2124 24.8075C7.05638 24.6514 6.84205 24.5728 6.59017 24.5555C6.35486 24.5393 6.07883 24.5758 5.76663 24.6588C5.0261 24.2431 4.22087 24.1107 3.45879 24.2897C3.22316 24.16 2.92219 24.1958 2.72339 24.3946L1.50166 25.6163M12.748 27.1365L1.50166 25.6163M8.99462 28.3061L9.09047 28.1907M8.99462 28.3061C8.99463 28.3061 8.99463 28.3061 8.99463 28.3061L9.09047 28.1907M8.99462 28.3061C8.7317 28.0877 8.69568 27.6977 8.91394 27.4348L8.91396 27.4347L9.94387 26.1948M9.09047 28.1907C8.89129 28.0253 8.86398 27.7298 9.02935 27.5306L10.1294 26.2062L10.0267 26.2383L10.0243 26.2424C10.0231 26.2417 10.0218 26.241 10.0206 26.2402L9.98621 26.251L9.97431 26.2129C9.96415 26.2069 9.954 26.2009 9.94387 26.1948M9.94387 26.1948L9.96185 26.1732L3.79428 22.1537C3.53136 22.3721 3.49533 22.7622 3.71359 23.0251L3.71361 23.0251C3.932 23.288 4.32212 23.324 4.58493 23.1058L4.58496 23.1057L5.82479 22.0759C6.83556 23.7686 8.25159 25.1844 9.94387 26.1948ZM1.50166 25.6163C1.30724 25.1326 1.10799 24.4717 1.10799 23.7985C1.10799 23.641 1.18708 23.4095 1.36534 23.1064C1.54082 22.808 1.80171 22.4578 2.13996 22.0678C2.8161 21.2881 3.79086 20.3612 4.97912 19.3874L4.97914 19.3874C5.07409 19.3096 5.20805 19.2937 5.31969 19.3479L8.09902 20.6973L7.98334 21.4231L5.89325 20.7757C5.89324 20.7757 5.89323 20.7757 5.89322 20.7757C5.69338 20.7137 5.47568 20.757 5.31482 20.8908C5.31479 20.8908 5.31477 20.8908 5.31474 20.8908L3.79429 22.1537L1.50166 25.6163ZM4.19486 18.4304C2.42537 19.8804 1.34763 21.0024 0.711121 21.868M4.19486 18.4304L0.711121 21.868M0.711121 21.868C0.0758492 22.7318 -0.129492 23.3531 -0.129492 23.7985M0.711121 21.868L-0.129492 23.7985M-0.129492 23.7985C-0.129492 24.9596 0.306438 26.0304 0.577614 26.5854M-0.129492 23.7985L0.577614 26.5854M0.577614 26.5854C-0.456088 27.943 -0.353789 29.8946 0.885672 31.1341L0.991741 31.028L0.885675 31.1341C1.56152 31.8099 2.44932 32.1477 3.33657 32.1477C4.07655 32.1477 4.81686 31.9124 5.43449 31.4422C5.98936 31.7133 7.06016 32.1493 8.22117 32.1493C8.66656 32.1493 9.28787 31.944 10.1517 31.3088C11.0172 30.6725 12.1392 29.5949 13.5891 27.8258L0.577614 26.5854ZM13.7174 27.6439C13.7374 27.6108 13.756 27.577 13.7733 27.5428L13.6394 27.4752L13.6091 27.6221C13.6452 27.6295 13.6813 27.6368 13.7174 27.6439ZM7.46389 22.5577C7.41209 22.4902 7.36106 22.422 7.31082 22.3532L7.46389 22.5577ZM9.08002 22.7928C9.13067 22.7935 9.18082 22.7925 9.23034 22.79C9.22775 22.8395 9.22674 22.8897 9.22732 22.9403L9.08002 22.7928ZM11.0672 20.0775L9.56033 21.5843L9.5603 21.5843C9.52563 21.619 9.46192 21.654 9.36493 21.6774C9.31309 21.6899 9.25488 21.6982 9.19202 21.7019L9.34577 20.7372C9.93322 20.421 10.3658 20.2418 10.6889 20.151C10.8388 20.1089 10.9633 20.0863 11.0672 20.0775ZM4.91236 30.259L5.01842 30.3651L4.91235 30.259C4.04357 31.1278 2.62939 31.1278 1.76067 30.259L1.6546 30.3651L1.76067 30.259C0.891829 29.3902 0.891827 27.9762 1.76061 27.1074C1.76061 27.1074 1.76061 27.1074 1.76061 27.1074L3.15698 25.711C3.48371 26.0581 3.94014 26.574 4.31812 27.1171C4.68062 27.6379 5.02573 28.2421 5.17802 28.8129C5.32997 29.3824 5.28371 29.8877 4.91236 30.259ZM5.33705 25.8458C5.49508 25.9507 5.69255 25.9773 5.87254 25.9181L5.87255 25.9181C5.97164 25.8856 6.08233 25.8564 6.18594 25.834C6.16366 25.9366 6.13453 26.0468 6.10163 26.1475L5.33705 25.8458ZM11.9152 21.2904C11.8218 21.6127 11.6296 22.0562 11.2871 22.6863L10.3159 22.8298C10.3196 22.7663 10.328 22.7077 10.3407 22.6557C10.3641 22.5598 10.3992 22.4959 10.4349 22.4599C10.4349 22.4598 10.435 22.4598 10.435 22.4597L11.9861 20.9086C11.9814 21.0097 11.9604 21.1341 11.9152 21.2904Z" fill="#003E79" stroke="#003E79" stroke-width="0.3"/>
</g>
</g>
<defs>
<clipPath id="clip0_12816_1411">
<rect width="32" height="32" fill="white"/>
</clipPath>
</defs>
</svg>
