<svg width="21" height="14" viewBox="0 0 21 14" fill="none" xmlns="http://www.w3.org/2000/svg">
<g id="IllustartorAsset 11 1" clip-path="url(#clip0_15160_19590)">
<g id="OBJECT">
<g id="Group">
<path id="Vector" d="M13.0354 13.7489L19.9482 7.76926C20.4183 7.36396 20.4183 6.64184 19.9482 6.23654L13.0354 0.254073C12.3692 -0.322482 11.3281 0.145612 11.3281 1.02186V12.9811C11.3281 13.8545 12.3692 14.3226 13.0354 13.7489Z" fill="#003E79"/>
<g id="Group_2">
<path id="Vector_2" d="M8.76679 2.2207C8.36592 2.2207 8.04004 2.54323 8.04004 2.93997C8.04004 3.33671 8.36592 3.65924 8.76679 3.65924C9.16766 3.65924 9.49354 3.33671 9.49354 2.93997C9.49354 2.54323 9.16766 2.2207 8.76679 2.2207Z" fill="#003E79"/>
<path id="Vector_3" d="M8.76679 4.92676C8.36592 4.92676 8.04004 5.24929 8.04004 5.64602C8.04004 6.04276 8.36592 6.36529 8.76679 6.36529C9.16766 6.36529 9.49354 6.04276 9.49354 5.64602C9.49354 5.24929 9.16766 4.92676 8.76679 4.92676Z" fill="#003E79"/>
<path id="Vector_4" d="M8.76679 9.07379C9.16816 9.07379 9.49354 8.75176 9.49354 8.35452C9.49354 7.95728 9.16816 7.63525 8.76679 7.63525C8.36542 7.63525 8.04004 7.95728 8.04004 8.35452C8.04004 8.75176 8.36542 9.07379 8.76679 9.07379Z" fill="#003E79"/>
<path id="Vector_5" d="M8.76679 10.3438C8.36592 10.3438 8.04004 10.6663 8.04004 11.063C8.04004 11.4598 8.36592 11.7823 8.76679 11.7823C9.16766 11.7823 9.49354 11.4598 9.49354 11.063C9.49354 10.6663 9.16766 10.3438 8.76679 10.3438Z" fill="#003E79"/>
</g>
<g id="Group_3">
<path id="Vector_6" d="M6.08808 2.2207C5.68721 2.2207 5.36133 2.54323 5.36133 2.93997C5.36133 3.33671 5.68721 3.65924 6.08808 3.65924C6.48895 3.65924 6.81483 3.33671 6.81483 2.93997C6.81483 2.54323 6.48895 2.2207 6.08808 2.2207Z" fill="#003E79"/>
<path id="Vector_7" d="M6.08808 4.92676C5.68721 4.92676 5.36133 5.24929 5.36133 5.64602C5.36133 6.04276 5.68721 6.36529 6.08808 6.36529C6.48895 6.36529 6.81483 6.04276 6.81483 5.64602C6.81483 5.24929 6.48895 4.92676 6.08808 4.92676Z" fill="#003E79"/>
<path id="Vector_8" d="M6.08808 7.63525C5.68721 7.63525 5.36133 7.95778 5.36133 8.35452C5.36133 8.75126 5.68721 9.07379 6.08808 9.07379C6.48895 9.07379 6.81483 8.75126 6.81483 8.35452C6.81483 7.95778 6.48895 7.63525 6.08808 7.63525Z" fill="#003E79"/>
<path id="Vector_9" d="M6.08808 10.3438C5.68721 10.3438 5.36133 10.6663 5.36133 11.063C5.36133 11.4598 5.68721 11.7823 6.08808 11.7823C6.48895 11.7823 6.81483 11.4598 6.81483 11.063C6.81483 10.6663 6.48895 10.3438 6.08808 10.3438Z" fill="#003E79"/>
</g>
<g id="Group_4">
<path id="Vector_10" d="M3.40839 4.92627C3.00752 4.92627 2.68164 5.2488 2.68164 5.64554C2.68164 6.04227 3.00752 6.3648 3.40839 6.3648C3.80926 6.3648 4.13514 6.04227 4.13514 5.64554C4.13514 5.2488 3.80926 4.92627 3.40839 4.92627Z" fill="#003E79"/>
<path id="Vector_11" d="M3.40839 7.63477C3.00752 7.63477 2.68164 7.95729 2.68164 8.35403C2.68164 8.75077 3.00752 9.0733 3.40839 9.0733C3.80926 9.0733 4.13514 8.75077 4.13514 8.35403C4.13514 7.95729 3.80926 7.63477 3.40839 7.63477Z" fill="#003E79"/>
</g>
<g id="Group_5">
<path id="Vector_12" d="M0.726751 4.92627C0.325884 4.92627 0 5.2488 0 5.64554C0 6.04227 0.325884 6.3648 0.726751 6.3648C1.12762 6.3648 1.4535 6.04227 1.4535 5.64554C1.4535 5.2488 1.12762 4.92627 0.726751 4.92627Z" fill="#003E79"/>
<path id="Vector_13" d="M0.726751 9.0733C1.12812 9.0733 1.4535 8.75127 1.4535 8.35403C1.4535 7.95679 1.12812 7.63477 0.726751 7.63477C0.325377 7.63477 0 7.95679 0 8.35403C0 8.75127 0.325377 9.0733 0.726751 9.0733Z" fill="#003E79"/>
</g>
</g>
</g>
</g>
<defs>
<clipPath id="clip0_15160_19590">
<rect width="20.3" height="14" fill="white"/>
</clipPath>
</defs>
</svg>
