<svg width="48" height="48" viewBox="0 0 48 48" fill="none" xmlns="http://www.w3.org/2000/svg">
<circle cx="24" cy="24" r="24" fill="#FFB800" fill-opacity="0.2"/>
<path fill-rule="evenodd" clip-rule="evenodd" d="M9.67856 23.3282C11.2335 21.568 13.5935 19.5514 16.6229 18.1788C15.0354 19.9392 14.0689 22.2705 14.0689 24.8276C14.0689 27.3847 15.0354 29.716 16.6229 31.4763C13.5935 30.1038 11.2335 28.0872 9.67856 26.3269C8.9117 25.4589 8.9117 24.1963 9.67856 23.3282ZM8.43808 22.2324C11.2584 19.0397 16.619 14.9733 23.8525 14.8976C23.9016 14.8969 23.9507 14.8965 24 14.8965H24.024H24.0576C31.3949 14.8965 36.8302 19.0096 39.6772 22.2324C40.9969 23.7265 40.9969 25.9287 39.6772 27.4227C36.8302 30.6455 31.3949 34.7586 24.0576 34.7586H24.024H24C23.9507 34.7586 23.9016 34.7583 23.8525 34.7575C16.619 34.6819 11.2584 30.6155 8.43808 27.4227C7.1183 25.9287 7.11829 23.7265 8.43808 22.2324ZM24.0235 16.5517C23.9732 16.5519 23.9231 16.5521 23.873 16.5527C19.3609 16.6205 15.7241 20.2994 15.7241 24.8276C15.7241 29.3558 19.3609 33.0347 23.873 33.1024C23.9231 33.103 23.9732 33.1033 24.0235 33.1034C28.5833 33.0908 32.2758 29.3904 32.2758 24.8276C32.2758 20.2648 28.5833 16.5644 24.0235 16.5517ZM33.931 24.8276C33.931 27.4269 32.9324 29.793 31.2978 31.5631C34.4208 30.1898 36.8486 28.1247 38.4366 26.3269C39.2036 25.4589 39.2036 24.1963 38.4366 23.3282C36.8486 21.5305 34.4208 19.4653 31.2978 18.092C32.9324 19.8621 33.931 22.2282 33.931 24.8276ZM24.0576 29.7931C26.7999 29.7931 29.0231 27.57 29.0231 24.8276C29.0231 24.061 28.8494 23.335 28.5392 22.6868C28.2396 22.9868 27.8255 23.1724 27.368 23.1724C26.4538 23.1724 25.7128 22.4314 25.7128 21.5172C25.7128 21.0597 25.8984 20.6456 26.1984 20.346C25.5502 20.0358 24.8242 19.8621 24.0576 19.8621C21.3152 19.8621 19.092 22.0852 19.092 24.8276C19.092 27.57 21.3152 29.7931 24.0576 29.7931Z" fill="#FFB800"/>
</svg>
