<svg width="48" height="48" viewBox="0 0 48 48" fill="none" xmlns="http://www.w3.org/2000/svg">
<circle cx="24" cy="24" r="24" fill="#FFE399"/>
<path fill-rule="evenodd" clip-rule="evenodd" d="M21.1717 23.7193C19.931 23.4217 17.4298 22.5869 17.4298 20.6933C17.4298 18.1751 20.8329 14.7143 20.8329 14.7143C20.8329 14.7143 21.9411 13 25.0577 13C28.1744 13 29.7674 14.7143 29.7674 14.7143C29.7674 14.7143 31.9837 16.9581 31.9837 20.6933C31.9837 22.6178 30.7335 23.399 29.5213 23.7043C28.5371 24.762 27.019 25.4321 25.3395 25.4321C23.668 25.4321 22.1563 24.7683 21.1717 23.7193ZM21.5398 22.0956C22.1242 23.3662 23.5848 24.2892 25.3395 24.2892C26.0607 24.2892 26.7323 24.1333 27.3137 23.8614C27.2878 23.8588 27.274 23.8571 27.274 23.8571C27.274 23.8571 31.0565 20.5609 27.8706 16.4286C27.5243 15.8475 22.2528 17.2857 21.5428 18.1429C21.1166 18.6575 21.314 20.6141 21.5398 22.0956Z" fill="#FFB800"/>
<path d="M18.3361 29.2527C17.7923 29.5542 17.4296 30.0962 17.4296 30.7146C17.4296 31.6614 18.2795 32.4289 19.328 32.4289C20.3764 32.4289 21.2263 31.6614 21.2263 30.7146C21.2263 29.8438 20.5072 29.1246 19.576 29.0148C19.5552 28.9477 19.5336 28.8703 19.5115 28.7835C19.4357 28.4844 19.3634 28.105 19.3096 27.7153C19.2556 27.3248 19.2221 26.9377 19.2199 26.6218C19.2191 26.5059 19.2225 26.405 19.2296 26.3204C19.4731 26.2573 19.7172 26.2005 19.9607 26.1504C20.24 26.093 20.4053 26.3906 20.5392 26.6318C20.5415 26.636 20.5438 26.6402 20.5462 26.6444C20.5623 26.6735 20.5781 26.7017 20.5935 26.7282H23.1651C23.7401 26.728 24.0266 26.7281 24.3141 26.7282H24.3256C24.6071 26.7282 24.8937 26.7283 25.4565 26.7282H28.0282C28.1726 26.4804 28.5015 26.085 28.8196 26.1504C29.159 26.2202 29.4996 26.3031 29.8377 26.3978L29.8356 26.3987C29.8349 26.3974 29.8349 26.3976 29.8357 26.3996C29.8387 26.4076 29.8526 26.445 29.8664 26.526C29.8821 26.6182 29.8931 26.7381 29.8976 26.8824C29.9066 27.1706 29.8887 27.5209 29.8509 27.8739C29.813 28.2264 29.7568 28.5677 29.6936 28.8371C29.6796 28.8968 29.6656 28.9512 29.6519 29.0003H28.8196C28.5799 29.0003 28.3609 29.1226 28.2537 29.3162L27.6209 30.4591C27.5769 30.5384 27.5541 30.6259 27.5541 30.7146V31.8575C27.5541 32.1731 27.8374 32.4289 28.1869 32.4289H29.4524V31.286H28.8196V30.8495L29.2107 30.1432H30.9597L31.3508 30.8495V31.286H30.718V32.4289H31.9835C32.333 32.4289 32.6163 32.1731 32.6163 31.8575V30.7146C32.6163 30.6259 32.5935 30.5384 32.5495 30.4591L31.9167 29.3162C31.8095 29.1226 31.5905 29.0003 31.3508 29.0003H30.9485C31.0161 28.6959 31.0723 28.3402 31.1105 27.9839C31.1518 27.5988 31.1735 27.1991 31.1626 26.8504L31.1621 26.8347C33.6854 27.7974 35.7802 29.381 35.7802 31.0403V34.1432H13.0002V31.0403C13.0002 29.3075 15.2845 27.6574 17.9555 26.7106C17.9627 27.0658 18 27.4679 18.0537 27.8568C18.1117 28.2766 18.1908 28.6948 18.2779 29.0386C18.2966 29.1122 18.316 29.1839 18.3361 29.2527Z" fill="#FFB800"/>
<path d="M24.3904 31.2942C24.731 31.2942 25.0231 31.0425 25.0231 30.7144C25.0231 30.3863 24.731 30.1346 24.3904 30.1346C24.0497 30.1346 23.7576 30.3863 23.7576 30.7144C23.7576 31.0425 24.0497 31.2942 24.3904 31.2942Z" fill="#FFB800"/>
</svg>
