<svg width="16" height="16" viewBox="0 0 16 16" fill="none" xmlns="http://www.w3.org/2000/svg">
<g clip-path="url(#clip0_15957_159)">
<path d="M7.11355 1.58496C6.03424 1.73847 5.01116 2.16205 4.1392 2.8164C3.26725 3.47075 2.57464 4.33469 2.12562 5.3281C1.6766 6.32151 1.4857 7.41222 1.57063 8.49909C1.65556 9.58595 2.01356 10.6338 2.61144 11.5454L1.52576 14.4737L5.16131 13.8164C6.09615 14.2742 7.12773 14.4995 8.16832 14.4731C9.20892 14.4467 10.2278 14.1695 11.1382 13.6649C12.0487 13.1603 12.8238 12.4432 13.3977 11.5748C13.9716 10.7064 14.3272 9.71217 14.4345 8.67678" stroke="#4A759F" stroke-width="1.5" stroke-linecap="round" stroke-linejoin="round"/>
<path d="M11.9841 6.50511C13.3594 6.50511 14.4742 5.39025 14.4742 4.01501C14.4742 2.63976 13.3594 1.5249 11.9841 1.5249C10.6089 1.5249 9.49402 2.63976 9.49402 4.01501C9.49402 5.39025 10.6089 6.50511 11.9841 6.50511Z" stroke="#4A759F" stroke-width="1.5" stroke-linecap="round" stroke-linejoin="round"/>
</g>
<defs>
<clipPath id="clip0_15957_159">
<rect width="16" height="16" fill="white"/>
</clipPath>
</defs>
</svg>
