<svg width="54" height="37" viewBox="0 0 54 37" fill="none" xmlns="http://www.w3.org/2000/svg">
<path d="M26.3707 18.566C26.3707 21.622 26.0427 24.27 25.3867 26.51C24.7307 28.75 23.8187 30.606 22.6507 32.078C21.4987 33.55 20.1227 34.646 18.5227 35.366C16.9387 36.086 15.2187 36.446 13.3627 36.446C11.5067 36.446 9.78672 36.086 8.20272 35.366C6.63472 34.646 5.27472 33.55 4.12272 32.078C2.97072 30.606 2.06672 28.75 1.41072 26.51C0.770723 24.27 0.450723 21.622 0.450723 18.566C0.450723 15.51 0.770723 12.862 1.41072 10.622C2.06672 8.38201 2.97072 6.52601 4.12272 5.05401C5.27472 3.58201 6.63472 2.49401 8.20272 1.79001C9.78672 1.07001 11.5067 0.710011 13.3627 0.710011C15.2187 0.710011 16.9387 1.07001 18.5227 1.79001C20.1227 2.49401 21.4987 3.58201 22.6507 5.05401C23.8187 6.52601 24.7307 8.38201 25.3867 10.622C26.0427 12.862 26.3707 15.51 26.3707 18.566ZM18.6907 18.566C18.6907 16.15 18.5387 14.174 18.2347 12.638C17.9307 11.086 17.5227 9.87001 17.0107 8.99001C16.5147 8.11001 15.9467 7.51001 15.3067 7.19001C14.6667 6.85401 14.0187 6.68601 13.3627 6.68601C12.7067 6.68601 12.0587 6.85401 11.4187 7.19001C10.7947 7.51001 10.2347 8.11001 9.73872 8.99001C9.25872 9.87001 8.86672 11.086 8.56272 12.638C8.27472 14.174 8.13072 16.15 8.13072 18.566C8.13072 20.998 8.27472 22.982 8.56272 24.518C8.86672 26.054 9.25872 27.27 9.73872 28.166C10.2347 29.046 10.7947 29.654 11.4187 29.99C12.0587 30.31 12.7067 30.47 13.3627 30.47C14.0187 30.47 14.6667 30.31 15.3067 29.99C15.9467 29.654 16.5147 29.046 17.0107 28.166C17.5227 27.27 17.9307 26.054 18.2347 24.518C18.5387 22.982 18.6907 20.998 18.6907 18.566ZM29.4465 11.078C29.7025 9.33401 30.1905 7.81401 30.9105 6.51801C31.6465 5.22201 32.5505 4.14201 33.6225 3.27801C34.7105 2.41401 35.9505 1.77401 37.3425 1.35801C38.7345 0.92601 40.2305 0.710011 41.8305 0.710011C43.5585 0.710011 45.0945 0.958011 46.4385 1.45401C47.7825 1.93401 48.9185 2.59001 49.8465 3.42201C50.7745 4.25401 51.4785 5.22201 51.9585 6.32601C52.4385 7.41401 52.6785 8.56601 52.6785 9.78201C52.6785 10.886 52.5665 11.862 52.3425 12.71C52.1185 13.542 51.7825 14.27 51.3345 14.894C50.9025 15.502 50.3585 16.022 49.7025 16.454C49.0625 16.87 48.3265 17.222 47.4945 17.51C51.3665 18.87 53.3025 21.51 53.3025 25.43C53.3025 27.286 52.9665 28.902 52.2945 30.278C51.6225 31.654 50.7185 32.798 49.5825 33.71C48.4625 34.622 47.1585 35.31 45.6705 35.774C44.1825 36.222 42.6305 36.446 41.0145 36.446C39.3505 36.446 37.8705 36.27 36.5745 35.918C35.2785 35.55 34.1265 34.99 33.1185 34.238C32.1105 33.47 31.2225 32.494 30.4545 31.31C29.7025 30.126 29.0465 28.718 28.4865 27.086L31.7985 25.742C32.6625 25.406 33.4625 25.318 34.1985 25.478C34.9345 25.638 35.4625 26.006 35.7825 26.582C36.5025 27.91 37.2625 28.878 38.0625 29.486C38.8785 30.078 39.8305 30.374 40.9185 30.374C41.7505 30.374 42.4705 30.238 43.0785 29.966C43.7025 29.678 44.2145 29.318 44.6145 28.886C45.0305 28.438 45.3425 27.934 45.5505 27.374C45.7585 26.814 45.8625 26.246 45.8625 25.67C45.8625 24.918 45.8065 24.246 45.6945 23.654C45.5985 23.046 45.3105 22.526 44.8305 22.094C44.3505 21.662 43.6225 21.334 42.6465 21.11C41.6865 20.87 40.3425 20.75 38.6145 20.75V15.614C40.0705 15.614 41.2465 15.502 42.1425 15.278C43.0385 15.054 43.7265 14.75 44.2065 14.366C44.7025 13.966 45.0305 13.486 45.1905 12.926C45.3505 12.366 45.4305 11.75 45.4305 11.078C45.4305 9.70201 45.0945 8.64601 44.4225 7.91001C43.7665 7.15801 42.7585 6.78201 41.3985 6.78201C40.2945 6.78201 39.3585 7.07801 38.5905 7.67001C37.8385 8.24601 37.3185 8.96601 37.0305 9.83001C36.6945 10.71 36.2545 11.294 35.7105 11.582C35.1665 11.87 34.3905 11.934 33.3825 11.774L29.4465 11.078Z" fill="#FFB800"/>
</svg>
