<svg width="24" height="23" viewBox="0 0 24 23" fill="none" xmlns="http://www.w3.org/2000/svg">
<path d="M13.6352 1.75225C13.7244 1.75225 13.7758 1.75574 13.7758 1.75574H15.7344L15.7243 3.84502H13.7788C12.7082 3.84502 12.7329 4.69395 12.7329 4.69395V8.00616H16.5212L15.9924 10.0927H12.7205V20.5342H10.4728L10.4713 10.0927H7.48515L7.47915 8.00616H10.4724V4.75941C10.4727 1.92843 13.0048 1.75223 13.6352 1.75223V1.75225ZM15.7344 1.75571H15.7381H15.7344ZM13.6352 0.359375C13.0959 0.359375 12.0421 0.442272 11.0439 1.00081C10.0989 1.5287 8.97273 2.60988 8.97273 4.75908V6.61296H7.47948C7.08085 6.61296 6.69873 6.7606 6.41673 7.02248C6.2774 7.15238 6.16705 7.30654 6.09202 7.47612C6.017 7.6457 5.97876 7.82737 5.9795 8.01071L5.9855 10.0972C5.9885 10.8643 6.65938 11.4852 7.4855 11.4852H8.97163L8.97313 20.5339C8.97313 21.3031 9.64478 21.9267 10.4731 21.9267H12.7209C13.5493 21.9267 14.2209 21.3031 14.2209 20.5339V11.4852H15.9928C16.6584 11.4852 17.2445 11.0778 17.432 10.4848L17.9608 8.39827C18.0939 7.9773 18.0054 7.52219 17.7219 7.17151C17.5824 6.99811 17.4012 6.85733 17.1928 6.76036C16.9845 6.6634 16.7546 6.61293 16.5215 6.61298H14.2332V5.23858L15.7246 5.23788C16.55 5.23788 17.2209 4.61841 17.2246 3.85129L17.2347 1.83269C17.2362 1.80706 17.237 1.7814 17.237 1.75574C17.237 0.986531 16.5669 0.362879 15.7385 0.362879H13.8181C13.775 0.36079 13.7128 0.359397 13.6352 0.359375Z" fill="#404A4D"/>
</svg>
