<svg width="33" height="33" viewBox="0 0 33 33" fill="none" xmlns="http://www.w3.org/2000/svg">
<path d="M20.3454 25.1743C20.3317 25.2849 20.318 25.3954 20.3043 25.506C20.2084 26.2385 19.8042 26.8742 19.1807 27.2612C18.4134 27.7311 17.3583 27.9729 16.0428 27.9729C15.1385 27.9729 14.4259 27.8624 13.8504 27.6274C12.9392 27.2612 12.3911 26.3767 12.3843 25.4231C8.21869 26.4458 5.30005 28.5741 5.30005 29.355C5.30005 29.7005 10.5139 31.0825 16.9472 31.0825C23.3806 31.0825 28.5944 29.7005 28.5944 29.355C28.5944 28.5119 25.1208 26.0519 20.3454 25.1812V25.1743Z" fill="#01D0FF"/>
<path d="M26.1142 5.60471C25.8265 5.48723 25.5113 5.44577 25.2099 5.48032C23.9492 5.63235 22.2159 6.39247 20.5579 7.26315L24.0657 3.57312C24.1616 3.47637 24.2096 3.33817 24.2096 3.19997C24.2096 3.06176 24.1479 2.93047 24.052 2.83373C23.408 2.21181 21.4896 1.68664 19.9549 2.28092C19.7014 2.37766 19.4822 2.53659 19.3109 2.7439C18.4956 3.71132 17.7557 5.59089 17.1939 7.32534C15.4605 5.88802 13.5079 4.48526 12.0623 4.0361C11.7677 3.94627 11.4525 3.93245 11.1442 3.98773C9.19845 4.38852 7.59525 6.16443 7.3486 7.22169C7.28009 7.49809 7.45137 7.7745 7.72542 7.8436L14.104 9.44676C12.398 9.80609 10.7742 10.2829 9.7671 10.9117C9.50675 11.0776 9.28066 11.3056 9.12993 11.5751C8.1228 13.3303 8.33519 15.7419 8.9244 16.6333C8.99976 16.7508 9.12308 16.8268 9.26011 16.8545C9.29436 16.8545 9.32177 16.8614 9.35603 16.8614C9.4588 16.8614 9.56156 16.8268 9.65063 16.7646L16.1456 12.1763C15.9401 15.196 15.4194 20.3786 14.1382 24.1032C14.0217 24.4418 14.1725 24.8219 14.5013 24.9532C14.8028 25.0776 15.2824 25.1743 16.0497 25.1743C17.3035 25.1743 17.9749 24.9186 18.2969 24.7182C18.4751 24.6077 18.5847 24.428 18.6121 24.2207C19.0643 20.6274 18.8313 15.0025 18.6806 12.2661L24.1 18.6027C24.189 18.7064 24.3192 18.7755 24.4562 18.7824C24.4631 18.7824 24.4768 18.7824 24.4905 18.7824C24.6207 18.7824 24.744 18.734 24.833 18.6511C25.6209 17.9324 26.402 15.6521 25.8402 13.6965C25.758 13.3925 25.5935 13.1161 25.3811 12.888C24.5795 12.045 23.175 11.195 21.6609 10.4349L28.8273 9.99957C28.9644 9.99266 29.0877 9.93047 29.1836 9.82682C29.2727 9.72317 29.3206 9.59187 29.3138 9.45367C29.2453 8.37568 27.9778 6.33027 26.1279 5.59089L26.1142 5.60471Z" fill="#003C55"/>
</svg>
