<svg width="32" height="32" viewBox="0 0 32 32" fill="none" xmlns="http://www.w3.org/2000/svg">
<g id="eye-care_5395316 1" clip-path="url(#clip0_12845_442)">
<path id="Vector" d="M31.4592 7.22742C31.5083 7.18006 31.5474 7.12328 31.5741 7.06047C31.6008 6.99766 31.6145 6.93012 31.6145 6.86188C31.6145 6.79363 31.6008 6.72609 31.5741 6.66328C31.5474 6.60048 31.5083 6.5437 31.4592 6.49634C27.2548 2.50233 21.6771 0.275391 15.8781 0.275391C10.079 0.275391 4.5014 2.50233 0.296999 6.49634C0.247863 6.5437 0.20878 6.60048 0.182085 6.66328C0.15539 6.72609 0.141632 6.79363 0.141632 6.86188C0.141632 6.93012 0.15539 6.99766 0.182085 7.06047C0.20878 7.12328 0.247863 7.18006 0.296999 7.22742C4.354 11.1343 9.73895 13.3616 15.3704 13.4619V14.4773C15.3704 15.2106 15.5148 15.9368 15.7955 16.6144C16.0761 17.292 16.4875 17.9076 17.0061 18.4262C18.0534 19.4735 19.4739 20.0619 20.955 20.0619H28.0627C28.7359 20.0619 29.3816 20.3293 29.8577 20.8054C30.3337 21.2814 30.6012 21.9271 30.6012 22.6003C30.6012 23.2736 30.3337 23.9192 29.8577 24.3953C29.3816 24.8714 28.7359 25.1388 28.0627 25.1388H17.3098C17.205 24.8425 17.0112 24.5859 16.7549 24.4041C16.4986 24.2224 16.1923 24.1243 15.8781 24.1234H14.157C13.8195 22.8164 13.0576 21.6585 11.9907 20.8315C10.9239 20.0045 9.61255 19.5552 8.26269 19.5542C8.12804 19.5542 7.99891 19.6077 7.9037 19.7029C7.80849 19.7981 7.755 19.9272 7.755 20.0619V20.5696H2.67808C2.58432 20.5699 2.49248 20.5961 2.41272 20.6454C2.33297 20.6947 2.26842 20.7651 2.22623 20.8488L1.84546 21.585C1.78464 21.58 1.72351 21.58 1.66269 21.585C1.31154 21.5847 0.971101 21.7059 0.699001 21.9278C0.426901 22.1498 0.239857 22.459 0.169531 22.803C0.0992054 23.147 0.149918 23.5048 0.313084 23.8157C0.476251 24.1267 0.741848 24.3717 1.06491 24.5093C1.38798 24.6469 1.74867 24.6686 2.08593 24.5708C2.42319 24.4731 2.71629 24.2617 2.91563 23.9726C3.11497 23.6835 3.20829 23.3345 3.17981 22.9845C3.15132 22.6345 3.00277 22.3051 2.75931 22.052L2.99284 21.585H7.755V22.0926C7.755 22.2273 7.80849 22.3564 7.9037 22.4516C7.99891 22.5469 8.12804 22.6003 8.26269 22.6003C9.07058 22.6003 9.84538 22.9213 10.4166 23.4925C10.9879 24.0638 11.3088 24.8386 11.3088 25.6465C11.3088 26.4544 10.9879 27.2292 10.4166 27.8004C9.84538 28.3717 9.07058 28.6926 8.26269 28.6926C8.12804 28.6926 7.99891 28.7461 7.9037 28.8413C7.80849 28.9366 7.755 29.0657 7.755 29.2003V29.708H2.99284L2.75931 29.241C3.00277 28.9879 3.15132 28.6585 3.17981 28.3085C3.20829 27.9585 3.11497 27.6094 2.91563 27.3203C2.71629 27.0313 2.42319 26.8199 2.08593 26.7221C1.74867 26.6243 1.38798 26.6461 1.06491 26.7837C0.741848 26.9213 0.476251 27.1663 0.313084 27.4772C0.149918 27.7882 0.0992054 28.1459 0.169531 28.49C0.239857 28.834 0.426901 29.1432 0.699001 29.3652C0.971101 29.5871 1.31154 29.7082 1.66269 29.708C1.72351 29.713 1.78464 29.713 1.84546 29.708L2.22623 30.4645C2.27114 30.5444 2.33687 30.6107 2.41642 30.6563C2.49598 30.7019 2.5864 30.7251 2.67808 30.7234H7.755V31.2311C7.755 31.3658 7.80849 31.4949 7.9037 31.5901C7.99891 31.6853 8.12804 31.7388 8.26269 31.7388C9.61255 31.7378 10.9239 31.2885 11.9907 30.4615C13.0576 29.6345 13.8195 28.4766 14.157 27.1696H15.8781C16.1923 27.1687 16.4986 27.0706 16.7549 26.8888C17.0112 26.7071 17.205 26.4504 17.3098 26.1542H28.0627C29.0052 26.1542 29.9092 25.7798 30.5756 25.1133C31.2421 24.4468 31.6165 23.5429 31.6165 22.6003C31.6165 21.6578 31.2421 20.7539 30.5756 20.0874C29.9092 19.4209 29.0052 19.0465 28.0627 19.0465H20.955C19.7432 19.0465 18.581 18.5651 17.7241 17.7082C16.8672 16.8513 16.3858 15.6891 16.3858 14.4773V13.4619C22.0172 13.3616 27.4022 11.1343 31.4592 7.22742ZM22.6304 2.35357C25.5033 3.28325 28.1422 4.8209 30.3676 6.86188C28.1422 8.90285 25.5033 10.4405 22.6304 11.3702C23.521 10.0353 23.9963 8.46657 23.9963 6.86188C23.9963 5.25718 23.521 3.68844 22.6304 2.35357ZM1.38854 6.86188C3.61392 4.8209 6.25286 3.28325 9.12577 2.35357C8.23516 3.68844 7.75987 5.25718 7.75987 6.86188C7.75987 8.46657 8.23516 10.0353 9.12577 11.3702C6.25286 10.4405 3.61392 8.90285 1.38854 6.86188ZM15.8781 10.4157C15.1752 10.4157 14.4881 10.2073 13.9037 9.81679C13.3192 9.42629 12.8637 8.87125 12.5947 8.22187C12.3258 7.57249 12.2554 6.85793 12.3925 6.16856C12.5296 5.47918 12.8681 4.84594 13.3651 4.34893C13.8621 3.85191 14.4954 3.51344 15.1848 3.37632C15.8741 3.23919 16.5887 3.30957 17.2381 3.57855C17.8875 3.84753 18.4425 4.30304 18.833 4.88747C19.2235 5.47189 19.4319 6.15899 19.4319 6.86188C19.4319 7.80442 19.0575 8.70835 18.391 9.37483C17.7246 10.0413 16.8206 10.4157 15.8781 10.4157Z" fill="#003E79"/>
</g>
<defs>
<clipPath id="clip0_12845_442">
<rect width="32" height="32" fill="white" transform="translate(-0.25)"/>
</clipPath>
</defs>
</svg>
