<svg width="36" height="44" viewBox="0 0 36 44" fill="none" xmlns="http://www.w3.org/2000/svg">
<path d="M23.776 37.6869C23.776 40.8978 21.1903 43.4999 17.9997 43.4999C14.8091 43.4999 12.2266 40.8978 12.2266 37.6869H23.776Z" fill="#F5B700"/>
<path d="M31.117 18.6079C31.117 12.8736 27.4768 8.00713 22.4008 6.18534V4.92859C22.4003 2.48286 20.4305 0.5 18.0003 0.5C15.57 0.5 13.5997 2.48286 13.5997 4.92859V6.18534C8.52318 8.00713 4.88348 12.8736 4.88348 18.6079V30.0714L0.5 34.6444V37.688H35.5V34.6444L31.1165 30.0714V18.6079H31.117Z" fill="#FFCE00"/>
<path d="M28.5008 15.3084C32.1364 15.3084 35.0836 12.3424 35.0836 8.68373C35.0836 5.02504 32.1364 2.05908 28.5008 2.05908C24.8653 2.05908 21.9181 5.02504 21.9181 8.68373C21.9181 12.3424 24.8653 15.3084 28.5008 15.3084Z" fill="#FF393E"/>
<path d="M28.2506 6.43452H28.2315L27.0997 7.03605L26.9272 6.34852L28.3475 5.60938H29.1213V12.0808H28.2506V6.43452Z" fill="white"/>
</svg>
