<svg width="36" height="39" viewBox="0 0 36 39" fill="none" xmlns="http://www.w3.org/2000/svg">
<g clip-path="url(#clip0_4416_37714)">
<path d="M9.56999 23.8302H12.26V32.2702C12.26 32.5202 12.47 32.7302 12.72 32.7302H15.08C15.34 32.7302 15.54 32.5202 15.54 32.2702V19.3702C15.54 19.1102 15.33 18.9102 15.08 18.9102H13.07C12.81 18.9102 12.61 19.1202 12.61 19.3702C12.61 19.3902 12.61 19.5002 12.53 19.7502C12.44 20.0602 12.31 20.3102 12.14 20.4902C11.88 20.7602 11.56 20.9402 11.14 21.0302C10.85 21.0902 10.31 21.1402 9.54999 21.1802C9.29999 21.1902 9.10999 21.3902 9.10999 21.6402V23.3602C9.10999 23.6202 9.31999 23.8202 9.56999 23.8202V23.8302ZM10.03 22.0902C10.63 22.0502 11.06 22.0102 11.34 21.9402C11.94 21.8102 12.43 21.5402 12.81 21.1302C13.08 20.8502 13.28 20.4702 13.41 20.0202C13.43 19.9602 13.44 19.9002 13.46 19.8402H14.62V31.8102H13.18V23.3702C13.18 23.1202 12.97 22.9102 12.72 22.9102H10.03V22.0902Z" fill="#384043"/>
<path d="M18.28 31.7501C19.15 32.4701 20.26 32.8401 21.59 32.8401C23.25 32.8401 24.52 32.3101 25.37 31.2701C26.2 30.2501 26.62 29.0801 26.62 27.7901C26.62 26.2901 26.17 25.1301 25.28 24.3301C24.41 23.5401 23.37 23.1401 22.19 23.1401C21.6 23.1401 21.11 23.2201 20.69 23.3701C20.62 23.4001 20.55 23.4301 20.47 23.4601L20.59 21.9601H24.8C25.06 21.9601 25.26 21.7501 25.26 21.5001V19.3501C25.26 19.1001 25.05 18.8901 24.8 18.8901H17.89C17.65 18.8901 17.45 19.0801 17.43 19.3201L16.95 26.4201C16.95 26.5401 16.98 26.6701 17.07 26.7601C17.15 26.8501 17.27 26.9101 17.4 26.9101L19.92 27.0201C20.1 27.0301 20.27 26.9301 20.35 26.7701C20.5 26.4901 20.7 26.3101 20.98 26.2101C21.16 26.1501 21.37 26.1201 21.63 26.1201C22.13 26.1201 22.46 26.2701 22.68 26.6001C22.93 26.9701 23.06 27.4401 23.06 28.0001C23.06 28.5601 22.93 29.0301 22.66 29.3901C22.42 29.7101 22.08 29.8701 21.6 29.8701C21.19 29.8701 20.89 29.7701 20.7 29.5601C20.48 29.3301 20.33 28.9801 20.25 28.5201C20.21 28.3001 20.02 28.1401 19.8 28.1401H17.28C17.15 28.1401 17.03 28.1901 16.94 28.2901C16.85 28.3801 16.81 28.5101 16.82 28.6401C16.92 29.9701 17.41 31.0201 18.3 31.7501H18.28ZM19.42 29.0601C19.55 29.5201 19.75 29.9001 20.03 30.1901C20.4 30.5801 20.93 30.7801 21.6 30.7801C22.38 30.7801 22.98 30.4901 23.4 29.9301C23.79 29.4101 23.98 28.7601 23.98 27.9901C23.98 27.2201 23.8 26.6001 23.44 26.0701C23.04 25.4901 22.43 25.1901 21.62 25.1901C21.27 25.1901 20.95 25.2401 20.67 25.3301C20.26 25.4801 19.93 25.7301 19.68 26.0801L17.9 26.0101L18.32 19.8101H24.33V21.0301H20.16C19.92 21.0301 19.72 21.2101 19.7 21.4501L19.47 24.2601C19.46 24.4401 19.54 24.6101 19.69 24.7001C19.84 24.7901 20.03 24.7901 20.18 24.6901C20.62 24.4001 20.87 24.2801 21 24.2301C21.31 24.1101 21.71 24.0601 22.18 24.0601C23.13 24.0601 23.94 24.3701 24.65 25.0101C25.35 25.6401 25.68 26.5501 25.68 27.7901C25.68 28.8801 25.34 29.8201 24.64 30.6801C23.96 31.5101 22.96 31.9101 21.58 31.9101C20.46 31.9101 19.57 31.6201 18.86 31.0301C18.28 30.5401 17.92 29.8901 17.77 29.0501H19.4L19.42 29.0601Z" fill="#384043"/>
<path d="M31.79 6.02H30.66C30.56 6.02 30.47 6.04 30.38 6.08V2.28C30.38 1.02 29.36 0 28.1 0C26.84 0 25.82 1.02 25.82 2.28V6.03C25.82 6.03 25.74 6.02 25.69 6.02H10.03C9.97001 6.02 9.91001 6.03 9.86001 6.04V2.28C9.86001 1.02 8.84001 0 7.58001 0C6.32001 0 5.30001 1.02 5.30001 2.28V6.06C5.23001 6.03 5.15001 6.02 5.07001 6.02H3.94001C1.77001 6.02 0.0100098 7.78 0.0100098 9.95V35C0.0100098 37.17 1.77001 38.93 3.94001 38.93H31.79C33.96 38.93 35.72 37.17 35.72 35V9.95C35.72 7.78 33.96 6.02 31.79 6.02ZM27.09 2.29C27.09 1.74 27.54 1.29 28.09 1.29C28.64 1.29 29.09 1.74 29.09 2.29V9.16C29.09 9.71 28.64 10.16 28.09 10.16C27.54 10.16 27.09 9.71 27.09 9.16V2.28V2.29ZM6.58001 2.28C6.58001 1.73 7.03001 1.28 7.58001 1.28C8.13001 1.28 8.58001 1.73 8.58001 2.28V9.15C8.58001 9.7 8.13001 10.15 7.58001 10.15C7.03001 10.15 6.58001 9.7 6.58001 9.15V2.28ZM34.34 35C34.34 36.4 33.2 37.54 31.79 37.54H3.93001C2.53001 37.54 1.38001 36.4 1.38001 35V9.95C1.38001 8.55 2.52001 7.4 3.93001 7.4H4.37001V8.76C4.37001 10.51 5.79001 11.94 7.55001 11.94C9.31001 11.94 10.73 10.52 10.73 8.76V7.4H25V8.76C25 10.51 26.42 11.94 28.18 11.94C29.94 11.94 31.36 10.52 31.36 8.76V7.4H31.8C33.2 7.4 34.35 8.54 34.35 9.95V35H34.34Z" fill="#384043"/>
<path d="M32.32 16H3.52002C3.14002 16 2.83002 16.31 2.83002 16.69V33.71C2.83002 35.03 3.90002 36.1 5.22002 36.1H30.62C31.94 36.1 33.01 35.03 33.01 33.71V16.69C33.01 16.31 32.7 16 32.32 16ZM31.63 33.71C31.63 34.26 31.18 34.71 30.63 34.71H5.21002C4.66002 34.71 4.21002 34.26 4.21002 33.71V17.39H31.62V33.71H31.63Z" fill="#01D0FF"/>
</g>
<defs>
<clipPath id="clip0_4416_37714">
<rect width="35.72" height="38.93" fill="white"/>
</clipPath>
</defs>
</svg>
