<svg width="18" height="22" viewBox="0 0 18 22" fill="none" xmlns="http://www.w3.org/2000/svg">
<g clip-path="url(#clip0_4154_399)">
<path d="M16.2273 9.68297C16.2273 15.4102 8.86364 20.3193 8.86364 20.3193C8.86364 20.3193 1.5 15.4102 1.5 9.68297C1.5 7.73001 2.27581 5.85704 3.65676 4.47609C5.03771 3.09515 6.91068 2.31934 8.86364 2.31934C10.8166 2.31934 12.6896 3.09515 14.0705 4.47609C15.4515 5.85704 16.2273 7.73001 16.2273 9.68297Z" stroke="#061014" stroke-opacity="0.9" stroke-width="2" stroke-linecap="round" stroke-linejoin="round"/>
<path d="M9 12.3193C10.3807 12.3193 11.5 11.2 11.5 9.81934C11.5 8.43862 10.3807 7.31934 9 7.31934C7.61929 7.31934 6.5 8.43862 6.5 9.81934C6.5 11.2 7.61929 12.3193 9 12.3193Z" stroke="#061014" stroke-opacity="0.9" stroke-width="2" stroke-linecap="round" stroke-linejoin="round"/>
</g>
<defs>
<clipPath id="clip0_4154_399">
<rect width="18" height="21" fill="white" transform="translate(0 0.986328)"/>
</clipPath>
</defs>
</svg>
