<svg width="74" height="41" viewBox="0 0 74 41" fill="none" xmlns="http://www.w3.org/2000/svg">
<path d="M29.5076 20.317C29.5076 23.755 29.1386 26.734 28.4006 29.254C27.6626 31.774 26.6366 33.862 25.3226 35.518C24.0266 37.174 22.4786 38.407 20.6786 39.217C18.8966 40.027 16.9616 40.432 14.8736 40.432C12.7856 40.432 10.8506 40.027 9.06858 39.217C7.30458 38.407 5.77458 37.174 4.47858 35.518C3.18258 33.862 2.16558 31.774 1.42758 29.254C0.707578 26.734 0.347578 23.755 0.347578 20.317C0.347578 16.879 0.707578 13.9 1.42758 11.38C2.16558 8.86 3.18258 6.772 4.47858 5.116C5.77458 3.46 7.30458 2.236 9.06858 1.444C10.8506 0.633998 12.7856 0.228999 14.8736 0.228999C16.9616 0.228999 18.8966 0.633998 20.6786 1.444C22.4786 2.236 24.0266 3.46 25.3226 5.116C26.6366 6.772 27.6626 8.86 28.4006 11.38C29.1386 13.9 29.5076 16.879 29.5076 20.317ZM20.8676 20.317C20.8676 17.599 20.6966 15.376 20.3546 13.648C20.0126 11.902 19.5536 10.534 18.9776 9.544C18.4196 8.554 17.7806 7.879 17.0606 7.519C16.3406 7.141 15.6116 6.952 14.8736 6.952C14.1356 6.952 13.4066 7.141 12.6866 7.519C11.9846 7.879 11.3546 8.554 10.7966 9.544C10.2566 10.534 9.81558 11.902 9.47358 13.648C9.14958 15.376 8.98758 17.599 8.98758 20.317C8.98758 23.053 9.14958 25.285 9.47358 27.013C9.81558 28.741 10.2566 30.109 10.7966 31.117C11.3546 32.107 11.9846 32.791 12.6866 33.169C13.4066 33.529 14.1356 33.709 14.8736 33.709C15.6116 33.709 16.3406 33.529 17.0606 33.169C17.7806 32.791 18.4196 32.107 18.9776 31.117C19.5536 30.109 20.0126 28.741 20.3546 27.013C20.6966 25.285 20.8676 23.053 20.8676 20.317Z" fill="#032B46"/>
<path d="M51.2738 10.192C51.2738 11.632 51.0128 12.946 50.4908 14.134C49.9688 15.322 49.2758 16.348 48.4118 17.212C47.5478 18.058 46.5398 18.715 45.3878 19.183C44.2538 19.651 43.0658 19.885 41.8238 19.885C40.4558 19.885 39.1958 19.651 38.0438 19.183C36.9098 18.715 35.9198 18.058 35.0738 17.212C34.2458 16.348 33.5978 15.322 33.1298 14.134C32.6618 12.946 32.4278 11.632 32.4278 10.192C32.4278 8.698 32.6618 7.348 33.1298 6.142C33.5978 4.918 34.2458 3.874 35.0738 3.01C35.9198 2.146 36.9098 1.48 38.0438 1.012C39.1958 0.525998 40.4558 0.282998 41.8238 0.282998C43.1918 0.282998 44.4518 0.525998 45.6038 1.012C46.7738 1.48 47.7728 2.146 48.6008 3.01C49.4468 3.874 50.1038 4.918 50.5718 6.142C51.0398 7.348 51.2738 8.698 51.2738 10.192ZM44.8478 10.192C44.8478 9.274 44.7668 8.518 44.6048 7.924C44.4608 7.312 44.2538 6.826 43.9838 6.466C43.7138 6.106 43.3898 5.854 43.0118 5.71C42.6518 5.566 42.2558 5.494 41.8238 5.494C41.3918 5.494 40.9958 5.566 40.6358 5.71C40.2758 5.854 39.9698 6.106 39.7178 6.466C39.4658 6.826 39.2678 7.312 39.1238 7.924C38.9798 8.518 38.9078 9.274 38.9078 10.192C38.9078 11.056 38.9798 11.776 39.1238 12.352C39.2678 12.928 39.4658 13.387 39.7178 13.729C39.9698 14.071 40.2758 14.314 40.6358 14.458C40.9958 14.602 41.3918 14.674 41.8238 14.674C42.2558 14.674 42.6518 14.602 43.0118 14.458C43.3898 14.314 43.7138 14.071 43.9838 13.729C44.2538 13.387 44.4608 12.928 44.6048 12.352C44.7668 11.776 44.8478 11.056 44.8478 10.192ZM63.6398 1.903C63.9098 1.597 64.2428 1.318 64.6388 1.066C65.0348 0.795999 65.5838 0.661 66.2858 0.661H72.3878L42.7418 38.812C42.4718 39.154 42.1298 39.442 41.7158 39.676C41.3198 39.892 40.8338 40 40.2578 40H33.9938L63.6398 1.903ZM73.8998 30.766C73.8998 32.206 73.6388 33.529 73.1168 34.735C72.5948 35.923 71.9018 36.949 71.0378 37.813C70.1738 38.659 69.1658 39.316 68.0138 39.784C66.8798 40.252 65.6918 40.486 64.4498 40.486C63.0818 40.486 61.8218 40.252 60.6698 39.784C59.5358 39.316 58.5458 38.659 57.6998 37.813C56.8718 36.949 56.2238 35.923 55.7558 34.735C55.2878 33.529 55.0538 32.206 55.0538 30.766C55.0538 29.272 55.2878 27.922 55.7558 26.716C56.2238 25.492 56.8718 24.448 57.6998 23.584C58.5458 22.72 59.5358 22.054 60.6698 21.586C61.8218 21.1 63.0818 20.857 64.4498 20.857C65.8178 20.857 67.0778 21.1 68.2298 21.586C69.3998 22.054 70.3988 22.72 71.2268 23.584C72.0728 24.448 72.7298 25.492 73.1978 26.716C73.6658 27.922 73.8998 29.272 73.8998 30.766ZM67.4738 30.766C67.4738 29.866 67.3928 29.119 67.2308 28.525C67.0868 27.913 66.8798 27.427 66.6098 27.067C66.3398 26.707 66.0158 26.455 65.6378 26.311C65.2778 26.167 64.8818 26.095 64.4498 26.095C64.0178 26.095 63.6218 26.167 63.2618 26.311C62.9018 26.455 62.5958 26.707 62.3438 27.067C62.0918 27.427 61.8938 27.913 61.7498 28.525C61.6058 29.119 61.5338 29.866 61.5338 30.766C61.5338 31.63 61.6058 32.35 61.7498 32.926C61.8938 33.502 62.0918 33.961 62.3438 34.303C62.5958 34.645 62.9018 34.888 63.2618 35.032C63.6218 35.176 64.0178 35.248 64.4498 35.248C64.8818 35.248 65.2778 35.176 65.6378 35.032C66.0158 34.888 66.3398 34.645 66.6098 34.303C66.8798 33.961 67.0868 33.502 67.2308 32.926C67.3928 32.35 67.4738 31.63 67.4738 30.766Z" fill="#061014" fill-opacity="0.9"/>
</svg>
