<svg width="46" height="26" viewBox="0 0 46 26" fill="none" xmlns="http://www.w3.org/2000/svg">
<path d="M11.024 0.148631C14.888 0.148631 17.6 1.25263 19.16 3.46063C20.744 5.64463 21.536 8.81263 21.536 12.9646C21.536 17.1166 20.744 20.2966 19.16 22.5046C17.6 24.6886 14.888 25.7806 11.024 25.7806C7.136 25.7806 4.4 24.6886 2.816 22.5046C1.256 20.2966 0.476 17.1166 0.476 12.9646C0.476 8.81263 1.256 5.64463 2.816 3.46063C4.4 1.25263 7.136 0.148631 11.024 0.148631ZM11.024 5.00863C9.776 5.00863 8.888 5.48863 8.36 6.44863C7.832 7.40863 7.568 8.98063 7.568 11.1646V14.7286C7.568 16.9366 7.832 18.5206 8.36 19.4806C8.888 20.4406 9.776 20.9206 11.024 20.9206C12.272 20.9206 13.148 20.4406 13.652 19.4806C14.156 18.5206 14.408 16.9366 14.408 14.7286V11.1646C14.408 8.95663 14.156 7.38463 13.652 6.44863C13.148 5.48863 12.272 5.00863 11.024 5.00863ZM35.2157 0.148631C37.1837 0.148631 38.8877 0.448632 40.3277 1.04863C41.7917 1.64863 42.8957 2.46463 43.6397 3.49663C44.4077 4.50463 44.7917 5.63263 44.7917 6.88063C44.7917 8.12863 44.4557 9.25663 43.7837 10.2646C43.1117 11.2486 42.2477 11.9446 41.1917 12.3526V12.4966C42.5597 12.9286 43.6157 13.6846 44.3597 14.7646C45.1277 15.8206 45.5117 17.1046 45.5117 18.6166C45.4157 20.7286 44.4917 22.4566 42.7397 23.8006C41.0117 25.1206 38.4557 25.7806 35.0717 25.7806C32.7437 25.7806 30.7877 25.4686 29.2037 24.8446C27.6197 24.2206 26.4437 23.3686 25.6757 22.2886C24.9077 21.2086 24.5237 19.9966 24.5237 18.6526V17.8966H30.8597C30.8597 19.8646 32.1077 20.8486 34.6037 20.8486C37.0997 20.8486 38.3477 19.7446 38.3477 17.5366C38.3477 16.6966 38.1077 16.0606 37.6277 15.6286C37.1717 15.1726 36.5717 14.9446 35.8277 14.9446H33.1997V10.5166H35.2517C35.9957 10.5166 36.5957 10.3006 37.0517 9.86863C37.5317 9.41263 37.7717 8.76463 37.7717 7.92463C37.7717 7.13263 37.4837 6.46063 36.9077 5.90863C36.3557 5.35663 35.5877 5.08063 34.6037 5.08063C33.5717 5.08063 32.7677 5.34463 32.1917 5.87263C31.6157 6.40063 31.3277 7.04863 31.3277 7.81663H25.3157V6.91663C25.3157 5.66863 25.6997 4.52863 26.4677 3.49663C27.2597 2.46463 28.3997 1.64863 29.8877 1.04863C31.3997 0.448632 33.1757 0.148631 35.2157 0.148631Z" fill="#CDCFD0"/>
</svg>
