<svg width="32" height="32" viewBox="0 0 32 32" fill="none" xmlns="http://www.w3.org/2000/svg">
<g id="lasik_6435761 1" clip-path="url(#clip0_12816_1349)">
<g id="Vector">
<mask id="path-1-outside-1_12816_1349" maskUnits="userSpaceOnUse" x="0" y="11.4302" width="32" height="20" fill="black">
<rect fill="white" y="11.4302" width="32" height="20"/>
<path d="M30.5 23.0002H26.5C26.5 18.3852 22.425 14.5752 17.2 14.0652L17 12.4402L16 12.5602L16.18 14.0102L16 14.0002H15.815L15.995 12.5502L14.995 12.4302L14.79 14.0552C9.575 14.5752 5.5 18.3852 5.5 23.0002H1.5C1.36739 23.0002 1.24021 23.0529 1.14645 23.1466C1.05268 23.2404 1 23.3676 1 23.5002V30.5002C1 30.6328 1.05268 30.76 1.14645 30.8537C1.24021 30.9475 1.36739 31.0002 1.5 31.0002H28V30.0002H16.5V29.2652L24.155 24.0002H30V30.0002H29V31.0002H30.5C30.6326 31.0002 30.7598 30.9475 30.8536 30.8537C30.9473 30.76 31 30.6328 31 30.5002V23.5002C31 23.3676 30.9473 23.2404 30.8536 23.1466C30.7598 23.0529 30.6326 23.0002 30.5 23.0002ZM15.69 15.0002C15.795 15.0002 15.895 15.0002 16 15.0002C16.105 15.0002 16.205 15.0002 16.31 15.0002L16.435 16.0002H16H15.565L15.69 15.0002ZM16 17.0002C16.4061 17.0024 16.8117 17.0275 17.215 17.0752C16.8698 17.3502 16.4414 17.5 16 17.5C15.5586 17.5 15.1302 17.3502 14.785 17.0752C15.1883 17.0275 15.5939 17.0024 16 17.0002ZM18.3 17.2702C18.9941 17.4352 19.6656 17.6837 20.3 18.0102C18.9735 18.6988 17.494 19.0394 16 19.0002C14.5017 19.038 13.0185 18.6939 11.69 18.0002C12.3244 17.6737 12.9959 17.4252 13.69 17.2602C13.925 17.6582 14.2646 17.9841 14.6719 18.2027C15.0791 18.4213 15.5384 18.5242 16 18.5002C16.4589 18.5234 16.9155 18.4211 17.3207 18.2044C17.7259 17.9877 18.0645 17.6647 18.3 17.2702ZM14.675 15.0852L14.545 16.0852C13.1044 16.2632 11.7212 16.7585 10.495 17.5352C8.59 18.7652 7.495 20.5702 7.495 22.4902C7.495 22.6552 7.495 22.8252 7.52 22.9902H6.5C6.5 18.9702 10.06 15.6352 14.675 15.0852ZM15.5 30.0002H2V24.0002H7.845L15.5 29.2652V30.0002ZM23.415 23.2952L21 24.9552V23.8602L22.16 23.5002C22.2635 23.4654 22.3527 23.3977 22.4141 23.3074C22.4755 23.2171 22.5057 23.1092 22.5 23.0002V21.5002H21.5V22.6402L21 22.8052V22.5002C21.0057 22.3911 20.9755 22.2832 20.9141 22.193C20.8527 22.1027 20.7635 22.035 20.66 22.0002L19.5 21.6402V21.0002H18.5V22.0002C18.4943 22.1092 18.5245 22.2171 18.5859 22.3074C18.6473 22.3977 18.7365 22.4654 18.84 22.5002L20 22.8852V25.6702L16.5 28.0502V26.7702L17.775 25.9152C17.8438 25.8699 17.9003 25.8083 17.9396 25.7359C17.9788 25.6635 17.9996 25.5825 18 25.5002V23.5002H17V25.2302L16 25.9002L15 25.2302V24.7052L16.355 23.3552C16.4013 23.3085 16.438 23.253 16.4629 23.1921C16.4878 23.1312 16.5004 23.066 16.5 23.0002V21.5002H15.5V22.7952L14.145 24.1452C14.0987 24.1919 14.062 24.2473 14.0371 24.3082C14.0122 24.3691 13.9996 24.4344 14 24.5002V25.5002C14.0004 25.5825 14.0212 25.6635 14.0604 25.7359C14.0997 25.8083 14.1562 25.8699 14.225 25.9152L15.5 26.7702V28.0502L12 25.6452V22.8602L13.16 22.5002C13.2635 22.4654 13.3527 22.3977 13.4141 22.3074C13.4755 22.2171 13.5057 22.1092 13.5 22.0002V21.0002H12.5V21.6402L11.34 22.0252C11.2407 22.0587 11.1544 22.1226 11.0934 22.2079C11.0324 22.2931 10.9997 22.3954 11 22.5002V22.8052L10.5 22.6402V21.5002H9.5V23.0002C9.49431 23.1092 9.52446 23.2171 9.58586 23.3074C9.64725 23.3977 9.73651 23.4654 9.84 23.5002L11 23.8852V24.9802L8.58 23.3202C8.52786 23.0499 8.50108 22.7754 8.5 22.5002C8.5 21.0002 9.32 19.6152 10.755 18.5902C11.96 19.5002 13.875 20.0002 16 20.0002C18.125 20.0002 20.04 19.5002 21.245 18.5902C22.68 19.6152 23.5 21.0252 23.5 22.5002C23.4974 22.7673 23.4689 23.0335 23.415 23.2952ZM24.47 23.0002C24.4898 22.8342 24.4998 22.6673 24.5 22.5002C24.5 20.5802 23.41 18.7752 21.5 17.5452C20.2715 16.7693 18.8869 16.2741 17.445 16.0952L17.315 15.0952C21.94 15.6352 25.5 18.9702 25.5 23.0002H24.47Z"/>
</mask>
<path d="M30.5 23.0002H26.5C26.5 18.3852 22.425 14.5752 17.2 14.0652L17 12.4402L16 12.5602L16.18 14.0102L16 14.0002H15.815L15.995 12.5502L14.995 12.4302L14.79 14.0552C9.575 14.5752 5.5 18.3852 5.5 23.0002H1.5C1.36739 23.0002 1.24021 23.0529 1.14645 23.1466C1.05268 23.2404 1 23.3676 1 23.5002V30.5002C1 30.6328 1.05268 30.76 1.14645 30.8537C1.24021 30.9475 1.36739 31.0002 1.5 31.0002H28V30.0002H16.5V29.2652L24.155 24.0002H30V30.0002H29V31.0002H30.5C30.6326 31.0002 30.7598 30.9475 30.8536 30.8537C30.9473 30.76 31 30.6328 31 30.5002V23.5002C31 23.3676 30.9473 23.2404 30.8536 23.1466C30.7598 23.0529 30.6326 23.0002 30.5 23.0002ZM15.69 15.0002C15.795 15.0002 15.895 15.0002 16 15.0002C16.105 15.0002 16.205 15.0002 16.31 15.0002L16.435 16.0002H16H15.565L15.69 15.0002ZM16 17.0002C16.4061 17.0024 16.8117 17.0275 17.215 17.0752C16.8698 17.3502 16.4414 17.5 16 17.5C15.5586 17.5 15.1302 17.3502 14.785 17.0752C15.1883 17.0275 15.5939 17.0024 16 17.0002ZM18.3 17.2702C18.9941 17.4352 19.6656 17.6837 20.3 18.0102C18.9735 18.6988 17.494 19.0394 16 19.0002C14.5017 19.038 13.0185 18.6939 11.69 18.0002C12.3244 17.6737 12.9959 17.4252 13.69 17.2602C13.925 17.6582 14.2646 17.9841 14.6719 18.2027C15.0791 18.4213 15.5384 18.5242 16 18.5002C16.4589 18.5234 16.9155 18.4211 17.3207 18.2044C17.7259 17.9877 18.0645 17.6647 18.3 17.2702ZM14.675 15.0852L14.545 16.0852C13.1044 16.2632 11.7212 16.7585 10.495 17.5352C8.59 18.7652 7.495 20.5702 7.495 22.4902C7.495 22.6552 7.495 22.8252 7.52 22.9902H6.5C6.5 18.9702 10.06 15.6352 14.675 15.0852ZM15.5 30.0002H2V24.0002H7.845L15.5 29.2652V30.0002ZM23.415 23.2952L21 24.9552V23.8602L22.16 23.5002C22.2635 23.4654 22.3527 23.3977 22.4141 23.3074C22.4755 23.2171 22.5057 23.1092 22.5 23.0002V21.5002H21.5V22.6402L21 22.8052V22.5002C21.0057 22.3911 20.9755 22.2832 20.9141 22.193C20.8527 22.1027 20.7635 22.035 20.66 22.0002L19.5 21.6402V21.0002H18.5V22.0002C18.4943 22.1092 18.5245 22.2171 18.5859 22.3074C18.6473 22.3977 18.7365 22.4654 18.84 22.5002L20 22.8852V25.6702L16.5 28.0502V26.7702L17.775 25.9152C17.8438 25.8699 17.9003 25.8083 17.9396 25.7359C17.9788 25.6635 17.9996 25.5825 18 25.5002V23.5002H17V25.2302L16 25.9002L15 25.2302V24.7052L16.355 23.3552C16.4013 23.3085 16.438 23.253 16.4629 23.1921C16.4878 23.1312 16.5004 23.066 16.5 23.0002V21.5002H15.5V22.7952L14.145 24.1452C14.0987 24.1919 14.062 24.2473 14.0371 24.3082C14.0122 24.3691 13.9996 24.4344 14 24.5002V25.5002C14.0004 25.5825 14.0212 25.6635 14.0604 25.7359C14.0997 25.8083 14.1562 25.8699 14.225 25.9152L15.5 26.7702V28.0502L12 25.6452V22.8602L13.16 22.5002C13.2635 22.4654 13.3527 22.3977 13.4141 22.3074C13.4755 22.2171 13.5057 22.1092 13.5 22.0002V21.0002H12.5V21.6402L11.34 22.0252C11.2407 22.0587 11.1544 22.1226 11.0934 22.2079C11.0324 22.2931 10.9997 22.3954 11 22.5002V22.8052L10.5 22.6402V21.5002H9.5V23.0002C9.49431 23.1092 9.52446 23.2171 9.58586 23.3074C9.64725 23.3977 9.73651 23.4654 9.84 23.5002L11 23.8852V24.9802L8.58 23.3202C8.52786 23.0499 8.50108 22.7754 8.5 22.5002C8.5 21.0002 9.32 19.6152 10.755 18.5902C11.96 19.5002 13.875 20.0002 16 20.0002C18.125 20.0002 20.04 19.5002 21.245 18.5902C22.68 19.6152 23.5 21.0252 23.5 22.5002C23.4974 22.7673 23.4689 23.0335 23.415 23.2952ZM24.47 23.0002C24.4898 22.8342 24.4998 22.6673 24.5 22.5002C24.5 20.5802 23.41 18.7752 21.5 17.5452C20.2715 16.7693 18.8869 16.2741 17.445 16.0952L17.315 15.0952C21.94 15.6352 25.5 18.9702 25.5 23.0002H24.47Z" fill="#003E79"/>
<path d="M30.5 23.0002H26.5C26.5 18.3852 22.425 14.5752 17.2 14.0652L17 12.4402L16 12.5602L16.18 14.0102L16 14.0002H15.815L15.995 12.5502L14.995 12.4302L14.79 14.0552C9.575 14.5752 5.5 18.3852 5.5 23.0002H1.5C1.36739 23.0002 1.24021 23.0529 1.14645 23.1466C1.05268 23.2404 1 23.3676 1 23.5002V30.5002C1 30.6328 1.05268 30.76 1.14645 30.8537C1.24021 30.9475 1.36739 31.0002 1.5 31.0002H28V30.0002H16.5V29.2652L24.155 24.0002H30V30.0002H29V31.0002H30.5C30.6326 31.0002 30.7598 30.9475 30.8536 30.8537C30.9473 30.76 31 30.6328 31 30.5002V23.5002C31 23.3676 30.9473 23.2404 30.8536 23.1466C30.7598 23.0529 30.6326 23.0002 30.5 23.0002ZM15.69 15.0002C15.795 15.0002 15.895 15.0002 16 15.0002C16.105 15.0002 16.205 15.0002 16.31 15.0002L16.435 16.0002H16H15.565L15.69 15.0002ZM16 17.0002C16.4061 17.0024 16.8117 17.0275 17.215 17.0752C16.8698 17.3502 16.4414 17.5 16 17.5C15.5586 17.5 15.1302 17.3502 14.785 17.0752C15.1883 17.0275 15.5939 17.0024 16 17.0002ZM18.3 17.2702C18.9941 17.4352 19.6656 17.6837 20.3 18.0102C18.9735 18.6988 17.494 19.0394 16 19.0002C14.5017 19.038 13.0185 18.6939 11.69 18.0002C12.3244 17.6737 12.9959 17.4252 13.69 17.2602C13.925 17.6582 14.2646 17.9841 14.6719 18.2027C15.0791 18.4213 15.5384 18.5242 16 18.5002C16.4589 18.5234 16.9155 18.4211 17.3207 18.2044C17.7259 17.9877 18.0645 17.6647 18.3 17.2702ZM14.675 15.0852L14.545 16.0852C13.1044 16.2632 11.7212 16.7585 10.495 17.5352C8.59 18.7652 7.495 20.5702 7.495 22.4902C7.495 22.6552 7.495 22.8252 7.52 22.9902H6.5C6.5 18.9702 10.06 15.6352 14.675 15.0852ZM15.5 30.0002H2V24.0002H7.845L15.5 29.2652V30.0002ZM23.415 23.2952L21 24.9552V23.8602L22.16 23.5002C22.2635 23.4654 22.3527 23.3977 22.4141 23.3074C22.4755 23.2171 22.5057 23.1092 22.5 23.0002V21.5002H21.5V22.6402L21 22.8052V22.5002C21.0057 22.3911 20.9755 22.2832 20.9141 22.193C20.8527 22.1027 20.7635 22.035 20.66 22.0002L19.5 21.6402V21.0002H18.5V22.0002C18.4943 22.1092 18.5245 22.2171 18.5859 22.3074C18.6473 22.3977 18.7365 22.4654 18.84 22.5002L20 22.8852V25.6702L16.5 28.0502V26.7702L17.775 25.9152C17.8438 25.8699 17.9003 25.8083 17.9396 25.7359C17.9788 25.6635 17.9996 25.5825 18 25.5002V23.5002H17V25.2302L16 25.9002L15 25.2302V24.7052L16.355 23.3552C16.4013 23.3085 16.438 23.253 16.4629 23.1921C16.4878 23.1312 16.5004 23.066 16.5 23.0002V21.5002H15.5V22.7952L14.145 24.1452C14.0987 24.1919 14.062 24.2473 14.0371 24.3082C14.0122 24.3691 13.9996 24.4344 14 24.5002V25.5002C14.0004 25.5825 14.0212 25.6635 14.0604 25.7359C14.0997 25.8083 14.1562 25.8699 14.225 25.9152L15.5 26.7702V28.0502L12 25.6452V22.8602L13.16 22.5002C13.2635 22.4654 13.3527 22.3977 13.4141 22.3074C13.4755 22.2171 13.5057 22.1092 13.5 22.0002V21.0002H12.5V21.6402L11.34 22.0252C11.2407 22.0587 11.1544 22.1226 11.0934 22.2079C11.0324 22.2931 10.9997 22.3954 11 22.5002V22.8052L10.5 22.6402V21.5002H9.5V23.0002C9.49431 23.1092 9.52446 23.2171 9.58586 23.3074C9.64725 23.3977 9.73651 23.4654 9.84 23.5002L11 23.8852V24.9802L8.58 23.3202C8.52786 23.0499 8.50108 22.7754 8.5 22.5002C8.5 21.0002 9.32 19.6152 10.755 18.5902C11.96 19.5002 13.875 20.0002 16 20.0002C18.125 20.0002 20.04 19.5002 21.245 18.5902C22.68 19.6152 23.5 21.0252 23.5 22.5002C23.4974 22.7673 23.4689 23.0335 23.415 23.2952ZM24.47 23.0002C24.4898 22.8342 24.4998 22.6673 24.5 22.5002C24.5 20.5802 23.41 18.7752 21.5 17.5452C20.2715 16.7693 18.8869 16.2741 17.445 16.0952L17.315 15.0952C21.94 15.6352 25.5 18.9702 25.5 23.0002H24.47Z" stroke="#003E79" stroke-width="0.4" mask="url(#path-1-outside-1_12816_1349)"/>
</g>
<path id="Vector_2" d="M13.0261 8.1286L13.0265 8.128C13.083 8.05649 13.1551 7.9988 13.2372 7.95929C13.3193 7.91983 13.4092 7.89955 13.5003 7.9M13.0261 8.1286L13.9 8V7.9M13.0261 8.1286C12.97 8.20071 12.9311 8.28468 12.9124 8.3741C12.8937 8.46347 12.8956 8.55593 12.918 8.64444L13.0261 8.1286ZM13.5003 7.9C13.5004 7.9 13.5004 7.9 13.5005 7.9L13.5 8V7.9H13.5003ZM13.5003 7.9H13.9M13.9 7.9H14V7.1H13.9M13.9 7.9V7.1M13.9 7.1V7L18.895 8.19C18.8479 8.13041 18.7879 8.08233 18.7194 8.04941C18.651 8.01649 18.5759 7.99959 18.5 8V7.9H18.4997H18.1V7.1H19C19.1591 7.1 19.3117 7.03679 19.4243 6.92426C19.5368 6.81174 19.6 6.65913 19.6 6.5V4.5C19.6 4.34087 19.5368 4.18826 19.4243 4.07574C19.3117 3.96321 19.1591 3.9 19 3.9H18.6V1.5C18.6 1.34087 18.5368 1.18826 18.4243 1.07574C18.3117 0.963214 18.1591 0.9 18 0.9H14C13.8409 0.9 13.6883 0.963214 13.5757 1.07574C13.4632 1.18826 13.4 1.34087 13.4 1.5V3.9H13C12.8409 3.9 12.6883 3.96321 12.5757 4.07574C12.4632 4.18826 12.4 4.34087 12.4 4.5V6.5C12.4 6.65913 12.4632 6.81174 12.5757 6.92426C12.6883 7.03679 12.8409 7.1 13 7.1H13.9ZM17.7318 9.1L17.4842 10.0861L16 10.8282L14.5158 10.0861L14.2682 9.1H17.7318ZM15.1 7.9V7.1H16.9V7.9H15.1ZM14.6 2.1H17.4V3.9H14.6V2.1ZM13.6 5.1H18.4V5.9H13.6V5.1Z" fill="#003E79" stroke="#003E79" stroke-width="0.2"/>
<path id="Vector_3" d="M13.1319 11.1635L13.0612 11.0928L12.9905 11.1635L11.5763 12.5777L11.5056 12.6484L11.5763 12.7191L12.2834 13.4263L12.3541 13.497L12.4248 13.4263L13.839 12.012L13.9097 11.9413L13.839 11.8706L13.1319 11.1635Z" fill="#003E79" stroke="#003E79" stroke-width="0.2"/>
<path id="Vector_4" d="M19.0146 11.1587L18.9439 11.088L18.8732 11.1587L18.1661 11.8658L18.0954 11.9365L18.1661 12.0072L19.5803 13.4214L19.651 13.4922L19.7217 13.4214L20.4288 12.7143L20.4996 12.6436L20.4288 12.5729L19.0146 11.1587Z" fill="#003E79" stroke="#003E79" stroke-width="0.2"/>
</g>
<defs>
<clipPath id="clip0_12816_1349">
<rect width="32" height="32" fill="white"/>
</clipPath>
</defs>
</svg>
