<svg width="73" height="72" viewBox="0 0 73 72" fill="none" xmlns="http://www.w3.org/2000/svg">
<path d="M38.6146 37.3821C38.5569 36.7344 38.2835 35.8851 37.463 35.1653C37.6213 32.9772 37.6069 27.3199 34.0944 23.2461C31.5897 20.367 27.9045 18.9131 23.1253 18.9131C20.7357 18.9131 18.6195 19.273 16.7913 20.0071C14.9632 20.7269 13.4229 21.8065 12.1705 23.2461C8.64363 27.3055 8.64363 32.9772 8.78754 35.1653C7.98141 35.8851 7.7079 36.7344 7.65035 37.3821C7.3337 40.4196 11.062 43.932 12.3 45.0117C13.4948 47.4157 15.0495 49.4454 16.8057 50.8993C18.7634 52.4972 20.8652 53.3609 23.0677 53.4329H23.082C23.1685 53.4473 23.2549 53.4473 23.3412 53.4473C25.3421 53.4473 27.3863 52.5835 29.4592 50.8849C31.2154 49.4454 32.7701 47.4157 33.9649 45.0117C35.1885 43.932 38.9312 40.4196 38.6146 37.3821ZM31.8632 43.0107C31.7192 43.1402 31.5897 43.2986 31.5033 43.4858C30.4668 45.6451 29.128 47.4301 27.631 48.6681C26.0043 49.9924 24.5504 50.6258 23.1828 50.5682C21.6282 50.4963 20.0879 49.8629 18.6339 48.6681C17.1369 47.4301 15.798 45.6451 14.7616 43.4858C14.6752 43.2986 14.5456 43.1402 14.3873 43.0107C12.6887 41.5712 10.3855 38.9224 10.5006 37.6701C10.515 37.5837 10.5438 37.4398 10.7885 37.2526C13.4948 37.0511 15.0783 35.1509 16.3451 33.6106C17.5687 32.1135 18.3748 31.1922 19.6416 31.1922C20.9371 31.1922 22.463 32.1566 24.2337 33.2507C27.0264 34.9926 30.51 37.1374 35.5051 37.267C35.7211 37.4398 35.7499 37.5837 35.7499 37.6701C35.8794 38.9224 33.5762 41.5712 31.8632 43.0107Z" fill="#061014" fill-opacity="0.9"/>
<path d="M45.7545 70.5486C45.7545 71.3403 45.1068 71.9881 44.315 71.9881H1.94978C1.15806 71.9881 0.510254 71.3403 0.510254 70.5486C0.510254 61.7387 6.13885 53.9796 14.5025 51.2158C15.1646 50.9998 15.8844 51.2877 16.2155 51.9067C17.0792 53.5045 19.9439 57.7079 23.1252 58.3702C26.3066 57.7079 29.1857 53.5045 30.0493 51.9067C30.3804 51.2877 31.1002 50.9998 31.7624 51.2158C40.126 53.9796 45.7545 61.7387 45.7545 70.5486Z" fill="#0795FE"/>
<path d="M51.0292 8.82129C49.2502 8.82129 47.8022 10.2692 47.8022 12.049C47.8022 13.828 49.2502 15.276 51.0292 15.276C52.8083 15.276 54.2562 13.828 54.2562 12.049C54.2562 10.2692 52.8083 8.82129 51.0292 8.82129Z" fill="#061014" fill-opacity="0.9"/>
<path d="M72.1555 11.1248C71.7668 10.6642 62.6259 0.0117188 51.0233 0.0117188C39.4351 0.0117188 30.2941 10.6642 29.9055 11.1248C29.4592 11.6574 29.4592 12.4348 29.9055 12.9819C30.2941 13.4281 39.4351 24.0805 51.0233 24.0805C62.6259 24.0805 71.7668 13.4281 72.1555 12.9819C72.6018 12.4348 72.6018 11.6574 72.1555 11.1248ZM51.0295 18.1548C47.6626 18.1548 44.9234 15.4156 44.9234 12.0488C44.9234 8.68121 47.6626 5.94203 51.0295 5.94203C54.3963 5.94203 57.1355 8.68121 57.1355 12.0488C57.1355 15.4156 54.3963 18.1548 51.0295 18.1548Z" fill="#0795FE"/>
</svg>
