<svg width="49" height="49" viewBox="0 0 49 49" fill="none" xmlns="http://www.w3.org/2000/svg">
<circle cx="24.5" cy="24.5" r="24.5" fill="#005DAF"/>
<g clip-path="url(#clip0_12658_4129)">
<path d="M40 22.2351C39.0035 21.1583 38.4558 20.2808 34.9721 17.7034C31.3201 15.1279 27.5259 13.7666 24 13.7666C20.474 13.7666 16.6798 15.1279 13.0277 17.7034C9.5595 20.2617 8.97733 21.1822 8 22.235C8.99633 23.3116 9.54425 24.1893 13.0277 26.7666C16.3749 29.127 19.8413 30.4667 23.1113 30.6742C23.5659 34.9181 27.1682 38.2343 31.5308 38.2343C36.2003 38.2343 39.9992 34.4354 39.9992 29.7659C39.9992 27.6898 39.2478 25.7862 38.0033 24.3117C39.4255 22.9587 39.2295 23.0949 40 22.2351ZM37.458 22.2353C37.2404 22.4532 36.9656 22.7196 36.6406 23.0175C35.4419 22.1076 33.9947 21.5092 32.4202 21.3442C32.2714 19.9279 31.7731 18.6145 31.0118 17.4926C32.0875 18.0396 33.0484 18.6432 33.8543 19.2094C35.5071 20.3706 36.7681 21.5447 37.458 22.2353ZM24.5247 25.0143C24.3524 25.0467 24.1768 25.063 24 25.063C22.4406 25.063 21.172 23.7944 21.172 22.235C21.172 20.6756 22.4406 19.407 24 19.407C25.5593 19.407 26.828 20.6756 26.828 22.235C26.828 22.4119 26.8117 22.5874 26.7793 22.7597C25.8935 23.3625 25.1274 24.1285 24.5247 25.0143ZM28.6813 21.7913C28.457 19.4055 26.4435 17.5321 24 17.5321C21.4068 17.5321 19.297 19.6418 19.297 22.235C19.297 24.6785 21.1705 26.692 23.5563 26.9164C23.3447 27.5068 23.197 28.1274 23.1214 28.7698C19.8996 28.3389 17.4065 25.5728 17.4065 22.235C17.4065 18.5993 20.3643 15.6415 24 15.6415C27.3378 15.6415 30.1038 18.1347 30.5348 21.3564C29.8924 21.432 29.2718 21.5797 28.6813 21.7913ZM10.5422 22.235C11.2323 21.5443 12.4931 20.3705 14.1456 19.2094C15.1367 18.513 16.0875 17.9471 16.9906 17.4882C16.0702 18.843 15.5316 20.4772 15.5316 22.235C15.5316 23.9911 16.069 25.6239 16.9878 26.978C15.9121 26.4309 14.9516 25.827 14.1456 25.2606C12.4929 24.0994 11.2321 22.9255 10.5422 22.235ZM31.5309 36.3594C27.8952 36.3594 24.9374 33.4016 24.9374 29.7659C24.9374 26.1303 27.8952 23.1725 31.5309 23.1725C35.1666 23.1725 38.1244 26.1303 38.1244 29.7659C38.1244 33.4016 35.1666 36.3594 31.5309 36.3594Z" fill="white"/>
<path d="M30.5938 25.0635H32.4687V26.9384H30.5938V25.0635Z" fill="white"/>
<path d="M30.5938 32.5938H32.4687V34.4687H30.5938V32.5938Z" fill="white"/>
<path d="M26.9893 28.2266L27.9267 26.6029L29.5504 27.5403L28.6129 29.164L26.9893 28.2266Z" fill="white"/>
<path d="M33.5107 31.9922L34.4482 30.3685L36.0719 31.306L35.1344 32.9296L33.5107 31.9922Z" fill="white"/>
<path d="M33.5107 27.54L35.1344 26.6026L36.0719 28.2263L34.4482 29.1637L33.5107 27.54Z" fill="white"/>
<path d="M26.9893 31.3047L28.6129 30.3672L29.5504 31.9909L27.9267 32.9284L26.9893 31.3047Z" fill="white"/>
</g>
<defs>
<clipPath id="clip0_12658_4129">
<rect width="32" height="32" fill="white" transform="translate(8 10)"/>
</clipPath>
</defs>
</svg>
