<svg width="81" height="80" viewBox="0 0 81 80" fill="none" xmlns="http://www.w3.org/2000/svg">
<circle cx="40.5" cy="40" r="40" fill="#003E79"/>
<path d="M65.3375 28.5911C65.3548 28.7507 65.3033 28.8212 65.1321 28.7703C64.3415 28.5356 63.5282 28.5806 62.7211 28.6007C62.3529 28.6098 61.9869 28.7033 61.5957 28.7621C61.5957 35.5919 61.5957 42.4113 61.5957 49.2662C62.8336 49.6313 64.1321 49.7668 65.4756 49.741C65.4997 49.8261 65.4997 49.9112 65.4997 50.0002C65.0873 50.0002 64.675 50.0002 64.2366 49.9847C64.1895 49.9526 64.1686 49.936 64.1476 49.9195C64.1356 49.9464 64.1236 49.9733 64.1116 50.0002C64.0888 50.0002 64.0659 50.0002 64.0259 50.0002C63.8129 49.9658 63.6167 49.9333 63.4212 49.8967C62.749 49.7708 62.0584 49.7041 61.4098 49.5013C60.58 49.2418 59.7639 48.9148 58.9791 48.5381C58.1365 48.1337 57.388 47.5698 56.6795 46.9479C55.3849 45.8116 54.4625 44.4123 53.7344 42.8659C53.68 42.7503 53.6177 42.6342 53.5901 42.5112C53.5674 42.4098 53.5906 42.2979 53.5935 42.1906C53.672 42.2578 53.7504 42.325 53.8195 42.4192C53.8311 42.476 53.852 42.5059 53.8729 42.5358C54.2428 43.2094 54.5885 43.898 54.9907 44.5513C55.2707 45.0061 55.6266 45.4136 55.9525 45.8393C56.0024 45.9046 56.0729 45.9539 56.1644 46.039C56.1644 41.4181 56.1644 36.8425 56.1644 32.2669C56.1452 32.2587 56.1259 32.2504 56.1067 32.2422C55.9375 32.4459 55.7602 32.6434 55.6003 32.8543C54.7882 33.9246 54.1153 35.0813 53.5329 36.2917C53.0254 37.3466 52.6696 38.4601 52.2878 39.5652C51.642 41.4347 50.7259 43.1661 49.5152 44.7294C49.1289 45.2281 48.7319 45.7257 48.2857 46.1684C47.4679 46.9799 46.5706 47.6945 45.5619 48.2632C44.6665 48.768 43.7262 49.1567 42.7316 49.3915C42.1249 49.5346 41.5012 49.6199 40.8803 49.6813C40.3214 49.7365 39.7557 49.7434 39.1934 49.737C37.951 49.7227 36.7297 49.5374 35.5342 49.1978C34.3594 48.8641 33.2538 48.3696 32.2473 47.6689C30.6524 46.5586 29.4302 45.1266 28.6325 43.339C28.5023 43.0472 28.4033 42.7413 28.2898 42.4419C28.3172 42.4156 28.3445 42.3893 28.3719 42.363C28.444 42.4059 28.5161 42.4489 28.5769 42.5228C28.6045 42.6342 28.6434 42.7146 28.6822 42.7949C28.7021 42.8348 28.7219 42.8747 28.732 42.9395C28.7432 42.9944 28.7641 43.0243 28.785 43.0542C29.1107 43.6345 29.4081 44.2333 29.7686 44.7906C30.2851 45.5892 30.9219 46.2884 31.6963 46.9084C31.6963 41.9035 31.6963 36.927 31.6963 31.8656C31.4067 32.1747 31.133 32.4234 30.9109 32.7123C30.2838 33.5281 29.6399 34.335 29.0731 35.1928C28.3475 36.2906 27.797 37.4874 27.355 38.7307C27.1555 39.2918 26.9765 39.8602 26.7752 40.4496C26.751 40.4822 26.743 40.4931 26.7384 40.5065C26.3367 41.3966 25.9668 42.3033 25.5228 43.1715C25.1945 43.8136 24.7893 44.419 24.3818 45.0154C24.0805 45.4564 23.7229 45.8585 23.3862 46.2745C21.9468 48.0528 20.1244 49.2288 17.9129 49.7752C17.4961 49.8782 17.0604 49.9036 16.6213 49.9825C16.1796 50.0002 15.7502 50.0002 15.2966 50.0002C14.9424 49.9479 14.6105 49.9052 14.2832 49.8388C14.151 49.812 13.9475 49.82 14.0081 49.5286C17.6058 50.2693 20.5033 48.9587 22.944 46.4321C22.8925 46.2764 22.8352 46.1819 22.8339 46.0866C22.8257 45.482 22.8277 44.8773 22.8301 44.2726C22.8466 40.2154 22.8626 36.1582 22.8843 32.1011C22.8858 31.8341 22.6873 31.716 22.5314 31.5979C21.9093 31.1269 21.2825 30.6584 20.6269 30.2374C19.8297 29.7254 18.9525 29.3799 17.9972 29.1014C17.9972 29.2331 17.9972 29.3395 17.9972 29.4459C17.9972 35.9937 17.9973 42.5415 17.9965 49.0892C17.9965 49.2436 18.0461 49.4322 17.7612 49.4544C17.7612 42.6493 17.7612 35.8499 17.7612 29.042C16.4708 28.6694 15.1859 28.5464 13.8571 28.5927C13.833 28.5073 13.833 28.4219 13.833 28.3335C14.3824 28.3335 14.9319 28.3335 15.5054 28.3335C15.8511 28.3853 16.1722 28.4403 16.4944 28.4883C17.5299 28.6423 18.525 28.9398 19.4892 29.3456C20.4496 29.7498 21.344 30.2703 22.1574 30.9257C22.7577 31.4095 23.3423 31.9083 23.7828 32.5591C24.0672 32.9793 24.4293 33.3498 24.6851 33.7852C25.0522 34.4101 25.3544 35.0738 25.6834 35.7213C25.7386 35.8299 25.789 35.9409 25.8416 36.0507C25.8119 36.0775 25.7822 36.1042 25.7525 36.131C25.6774 36.0704 25.5649 36.0253 25.5326 35.9467C25.111 34.9225 24.5655 33.9706 23.9016 33.0887C23.6728 32.7849 23.4133 32.5047 23.1678 32.2137C23.1466 32.2215 23.1254 32.2293 23.1042 32.237C23.1042 36.8722 23.1042 41.5073 23.1042 46.1424C23.1221 46.1537 23.14 46.1649 23.1579 46.1762C23.3538 45.9381 23.557 45.7058 23.7444 45.4611C24.5723 44.3799 25.2475 43.2055 25.8326 41.9756C26.3247 40.941 26.6879 39.8587 27.0535 38.7742C27.5051 37.4346 28.1258 36.1696 28.8727 34.9702C29.4429 34.0547 30.0695 33.1823 30.8338 32.4177C31.1294 32.122 31.4217 31.8228 31.7325 31.5047C31.7608 31.4758 31.7688 31.4649 31.7734 31.4516C32.0755 31.2224 32.376 30.991 32.68 30.7643C33.4759 30.1711 34.3348 29.6829 35.2673 29.3577C36.0228 29.0942 36.8031 28.8957 37.5825 28.7119C37.9665 28.6213 38.3735 28.6291 38.7701 28.5927C39.1325 28.5594 39.4945 28.5104 39.8576 28.5002C40.0438 28.495 40.2314 28.5845 40.4193 28.5888C42.0535 28.626 43.6259 28.9593 45.1387 29.5781C45.9909 29.9267 46.7951 30.3713 47.5232 30.9364C48.7072 31.8554 49.6867 32.9594 50.3877 34.3008C50.4348 34.391 50.4882 34.4778 50.5293 34.5927C50.5409 34.6491 50.5618 34.679 50.5827 34.7089C50.6367 34.8169 50.6906 34.925 50.7351 35.0594C50.7465 35.1156 50.7674 35.1455 50.7884 35.1754C50.8082 35.2153 50.828 35.2552 50.8369 35.322C50.8649 35.4293 50.9037 35.5096 50.9426 35.59C50.9623 35.6541 51.0015 35.7199 50.9959 35.7816C50.9908 35.838 50.9373 35.89 50.9051 35.9439C50.8522 35.9007 50.7682 35.8674 50.751 35.8127C50.4826 34.9567 50.0643 34.1747 49.5501 33.4512C49.1111 32.8335 48.6533 32.2228 48.0434 31.7549C48.0189 31.7362 47.9889 31.7247 47.9188 31.6866C47.9188 36.4849 47.9188 41.2474 47.9088 46.0419C47.906 46.0971 47.9132 46.1203 47.9204 46.1436C47.9365 46.1187 47.9526 46.0939 47.9687 46.069C48.5249 45.4123 49.1378 44.7952 49.6227 44.0888C50.2234 43.2135 50.7528 42.2829 51.2486 41.3417C51.7532 40.3837 52.102 39.3559 52.4128 38.3144C52.5778 37.7613 52.8258 37.232 53.0544 36.6999C53.5683 35.504 54.2031 34.3758 54.935 33.301C55.5554 32.39 56.2764 31.5652 57.0924 30.8371C58.2925 29.7663 59.6581 28.974 61.2327 28.5964C61.6476 28.4969 62.0733 28.4433 62.506 28.3511C63.1188 28.3335 63.7196 28.3335 64.3446 28.3335C64.6656 28.399 64.9626 28.4646 65.2823 28.5486C65.3134 28.5784 65.3242 28.5864 65.3375 28.5911ZM33.1142 30.7963C32.8801 30.9652 32.6466 31.1348 32.4119 31.3028C32.1159 31.5146 31.9634 31.7547 31.967 32.1685C31.9926 35.0966 31.9806 38.025 31.9806 40.9533C31.9806 42.9314 31.9823 44.9095 31.9777 46.8876C31.9773 47.067 32.0131 47.1899 32.1832 47.2864C32.5075 47.4705 32.8117 47.6901 33.1323 47.8815C34.4648 48.6768 35.9192 49.1083 37.4424 49.3239C37.8365 49.3797 38.2346 49.4109 38.6319 49.44C39.0106 49.4678 39.3907 49.4782 39.7732 49.4963C39.7732 42.5695 39.7732 35.6915 39.7732 28.8107C37.3574 28.8098 35.1403 29.412 33.1142 30.7963ZM47.6605 36.1864C47.6605 34.6662 47.6579 33.1461 47.6642 31.626C47.6649 31.4503 47.6084 31.3336 47.4675 31.2393C47.2068 31.0648 46.9571 30.8729 46.6923 30.7053C45.8043 30.1434 44.8705 29.6745 43.8486 29.4208C43.0625 29.2257 42.2693 29.0518 41.4711 28.9173C41.0155 28.8404 40.5436 28.8612 40.072 28.8376C40.072 35.7446 40.072 42.6047 40.072 49.5439C40.8117 49.4349 41.5263 49.3576 42.2296 49.2208C44.2357 48.8305 45.971 47.8923 47.4905 46.5264C47.6281 46.4027 47.6638 46.2826 47.6635 46.1103C47.6595 42.8196 47.6605 39.5289 47.6605 36.1864ZM56.4516 43.5468C56.4516 44.4105 56.4492 45.2742 56.455 46.1378C56.4556 46.2332 56.4743 46.3561 56.5339 46.4184C56.7523 46.6467 56.9782 46.8719 57.2254 47.0675C58.2188 47.8535 59.2998 48.4874 60.4904 48.9223C60.7563 49.0194 61.0263 49.1052 61.3213 49.2054C61.3213 42.388 61.3213 35.6294 61.3213 28.8616C61.2738 28.8616 61.2384 28.854 61.2077 28.8627C60.2541 29.135 59.3447 29.5152 58.534 30.0929C57.9678 30.4965 57.4415 30.9568 56.8927 31.3858C56.5137 31.682 56.3786 32.0444 56.3879 32.5435C56.4324 34.9326 56.4374 37.3224 56.4504 39.7121C56.4572 40.973 56.4516 42.234 56.4516 43.5468Z" stroke="white"/>
</svg>
