<svg width="43" height="34" viewBox="0 0 43 34" fill="none" xmlns="http://www.w3.org/2000/svg">
<g id="eye_4383151 1">
<g id="Group">
<path id="Vector" d="M27.153 30.9166L27.0103 30.9628L27.0565 31.1055L27.4184 32.2231L27.4646 32.3658L27.6073 32.3196C27.9924 32.1949 28.3835 32.0567 28.77 31.9089L28.9102 31.8554L28.8566 31.7152L28.4369 30.618L28.3833 30.478L28.2432 30.5315C27.8804 30.6702 27.5136 30.7998 27.153 30.9166Z" fill="#003E79" stroke="#003E79" stroke-width="0.3"/>
<path id="Vector_2" d="M35.8285 17.1086C39.193 16.0028 41.6294 12.8318 41.6294 9.10137C41.6294 7.14854 40.946 5.24508 39.7049 3.7412L39.6094 3.62551L39.4937 3.72099L38.5878 4.46873L38.4721 4.5642L38.5676 4.67988C39.5909 5.91999 40.1547 7.49036 40.1547 9.10137C40.1547 12.9343 37.0361 16.0529 33.2032 16.0529C29.3703 16.0529 26.2517 12.9343 26.2517 9.10137C26.2517 5.26843 29.3702 2.14988 33.2031 2.14988C34.8677 2.14988 36.478 2.74733 37.7372 3.83197L37.8508 3.92987L37.9487 3.81621L38.7154 2.92613L38.8133 2.81248L38.6996 2.71459C37.1727 1.39947 35.2208 0.675195 33.2031 0.675195C28.5568 0.675195 24.777 4.45501 24.777 9.10137C24.777 10.2289 24.9997 11.3057 25.4035 12.2898C24.087 12.0185 22.7805 11.8807 21.5034 11.8807C15.7708 11.8807 10.6894 14.6544 7.4441 16.971L7.44256 16.9721C3.88835 19.5779 2.38682 21.2872 1.63377 22.1444C1.54178 22.2491 1.46095 22.3411 1.38892 22.4205L1.29817 22.5205L1.38812 22.6212C1.45815 22.6996 1.53708 22.7909 1.62714 22.895C2.37411 23.7589 3.88678 25.5082 7.43809 28.1515L7.4396 28.1526C10.6854 30.5063 15.768 33.3246 21.5033 33.3246C23.0865 33.3246 24.7146 33.1104 26.3423 32.6885L26.4875 32.6509L26.4499 32.5057L26.1551 31.3685L26.1175 31.2233L25.9723 31.2609C24.4637 31.6519 22.9601 31.8498 21.5032 31.8498C16.1864 31.8498 11.4089 29.2053 8.32881 26.9758L8.24086 27.0973L8.32881 26.9758C5.85064 25.182 4.05184 23.3682 3.26859 22.5281C4.05376 21.6995 5.85052 19.9171 8.32462 18.1542L8.23758 18.0321L8.32462 18.1542C11.4051 15.9593 16.1838 13.3554 21.5032 13.3554C23.0873 13.3554 24.7273 13.5855 26.3795 14.0402C28.0046 16.3098 30.8452 17.734 33.8059 17.5065C36.7914 19.4655 38.8934 21.5928 39.7452 22.5195C38.4872 23.8673 34.5727 27.7616 29.3828 30.0611L29.2456 30.1219L29.3064 30.259L29.7822 31.333L29.8438 31.4719L29.9819 31.4086C36.5735 28.3843 40.3812 24.0333 41.4207 22.8456C41.5004 22.7545 41.5638 22.682 41.611 22.6302L41.6987 22.5337L41.6153 22.4334L41.5 22.5293L41.6153 22.4333L41.6152 22.4332L41.6148 22.4327L41.6133 22.4309L41.6077 22.4242L41.5858 22.3982C41.5665 22.3754 41.5378 22.3418 41.5002 22.2983C41.4249 22.2112 41.3137 22.0843 41.1692 21.9243C40.8804 21.6043 40.4588 21.152 39.9265 20.6216C38.9122 19.6106 37.4947 18.314 35.8285 17.1086Z" fill="#003E79" stroke="#003E79" stroke-width="0.3"/>
<path id="Vector_3" d="M15.6689 16.7635L15.5607 16.6596L15.4569 16.7678C13.9636 18.3238 13.141 20.3693 13.141 22.5266C13.141 27.1133 16.8723 30.8445 21.4589 30.8445C26.0455 30.8445 29.7768 27.1133 29.7768 22.5266C29.7768 17.9399 26.0455 14.2086 21.4589 14.2086C19.6296 14.2086 17.8931 14.7915 16.4388 15.8939L16.3192 15.9845L16.4098 16.104L17.1194 17.0402L17.21 17.1597L17.3295 17.0691C18.5257 16.1625 19.9532 15.6833 21.4589 15.6833C25.2322 15.6833 28.3021 18.7534 28.3021 22.5265C28.3021 26.2997 25.2322 29.3697 21.4589 29.3697C17.6857 29.3697 14.6157 26.2997 14.6157 22.5265C14.6157 20.7513 15.2922 19.0692 16.5208 17.7889L16.6247 17.6807L16.5164 17.5768L15.6689 16.7635Z" fill="#003E79" stroke="#003E79" stroke-width="0.3"/>
<path id="Vector_4" d="M21.3806 17.5604C18.6982 17.5604 16.516 19.7425 16.516 22.4251C16.516 25.1076 18.6982 27.2897 21.3806 27.2897C21.8184 27.2897 22.2494 27.231 22.6667 27.1166C23.0096 27.2921 23.3979 27.3911 23.8084 27.3911C25.1954 27.3911 26.3237 26.2629 26.3237 24.8758C26.3237 24.4737 26.2284 24.0933 26.0598 23.7558C26.1824 23.3247 26.2453 22.8787 26.2453 22.4251C26.2452 19.7425 24.0631 17.5604 21.3806 17.5604ZM17.9906 22.4283C18.1718 17.8008 24.8249 18.0644 24.7613 22.5457C22.7559 21.6898 20.6281 23.8021 21.4727 25.8147C19.5967 25.8733 17.9819 24.3314 17.9906 22.4283ZM23.8084 25.9164C23.2347 25.9164 22.7678 25.4495 22.7678 24.8758C22.7678 24.3022 23.2347 23.8353 23.8084 23.8353C24.382 23.8353 24.8489 24.3022 24.8489 24.8758C24.8489 25.4495 24.382 25.9164 23.8084 25.9164Z" fill="#003E79" stroke="#003E79" stroke-width="0.3"/>
<path id="Vector_5" d="M34.9676 13.3303H35.1176V13.1803V10.9767H37.3212H37.4712V10.8267V7.29769V7.14769H37.3212H35.1176V4.94409V4.79409H34.9676H31.4386H31.2886V4.94409V7.14769H29.085H28.935V7.29769V10.8267V10.9767H29.085H31.2886V13.1803V13.3303H31.4386H34.9676ZM32.6132 9.50206H30.4096V8.62245H32.6132H32.7632V8.47245V6.26886H33.6429V8.47245V8.62245H33.7929H35.9965V9.50206H33.7929H33.6429V9.65206V11.8557H32.7632V9.65206V9.50206H32.6132Z" fill="#003E79" stroke="#003E79" stroke-width="0.3"/>
<path id="Vector_6" d="M29.0938 4.79409H28.9437V4.94409V6.11878V6.26878H29.0938H30.2684H30.4184V6.11878V4.94409V4.79409H30.2684H29.0938Z" fill="#003E79" stroke="#003E79" stroke-width="0.3"/>
<path id="Vector_7" d="M19.6963 20.6525H19.5463V20.8025V21.9772V22.1272H19.6963H20.871H21.021V21.9772V20.8025V20.6525H20.871H19.6963Z" fill="#003E79" stroke="#003E79" stroke-width="0.3"/>
</g>
</g>
</svg>
