<svg width="24" height="24" viewBox="0 0 24 24" fill="none" xmlns="http://www.w3.org/2000/svg">
<path d="M8.72281 11.681C8.72281 11.9018 8.5462 12.0784 8.32543 12.0784H6.83401C6.61325 12.0784 6.43663 11.9018 6.43663 11.681V10.1896C6.43663 9.96884 6.61325 9.79222 6.83401 9.79222H8.32543C8.5462 9.79222 8.72281 9.96884 8.72281 10.1896V11.681ZM11.8381 10.1945C11.8381 9.97374 11.6615 9.79713 11.4407 9.79713H9.94931C9.72854 9.79713 9.55192 9.97374 9.55192 10.1945V11.6859C9.55192 11.9067 9.72854 12.0833 9.94931 12.0833H11.4407C11.6615 12.0833 11.8381 11.9067 11.8381 11.6859V10.1945ZM14.9534 10.1945C14.9534 9.97374 14.7768 9.79713 14.556 9.79713H13.0646C12.8438 9.79713 12.6672 9.97374 12.6672 10.1945V11.6859C12.6672 11.9067 12.8438 12.0833 13.0646 12.0833H14.556C14.7768 12.0833 14.9534 11.9067 14.9534 11.6859V10.1945ZM8.72281 13.2264C8.72281 13.0056 8.5462 12.829 8.32543 12.829H6.83401C6.61325 12.829 6.43663 13.0056 6.43663 13.2264V14.7178C6.43663 14.9386 6.61325 15.1152 6.83401 15.1152H8.32543C8.5462 15.1152 8.72281 14.9386 8.72281 14.7178V13.2264ZM11.8381 13.2264C11.8381 13.0056 11.6615 12.829 11.4407 12.829H9.94931C9.72854 12.829 9.55192 13.0056 9.55192 13.2264V14.7178C9.55192 14.9386 9.72854 15.1152 9.94931 15.1152H11.4407C11.6615 15.1152 11.8381 14.9386 11.8381 14.7178V13.2264ZM14.556 12.829H13.0646C12.8438 12.829 12.6672 13.0056 12.6672 13.2264V14.7178C12.6672 14.9386 12.8438 15.1152 13.0646 15.1152H14.556C14.7768 15.1152 14.9534 14.9386 14.9534 14.7178V13.2264C14.9534 13.0056 14.7768 12.829 14.556 12.829ZM5.20523 15.8609H3.71872C3.49796 15.8609 3.32134 16.0375 3.32134 16.2583V17.7497C3.32134 17.9705 3.49796 18.1471 3.71872 18.1471H5.21014C5.43091 18.1471 5.60752 17.9705 5.60752 17.7497V16.2583C5.60752 16.0375 5.426 15.8609 5.20523 15.8609ZM5.60752 13.2264C5.60752 13.0056 5.43091 12.829 5.21014 12.829H3.71872C3.49796 12.829 3.32134 13.0056 3.32134 13.2264V14.7178C3.32134 14.9386 3.49796 15.1152 3.71872 15.1152H5.21014C5.43091 15.1152 5.60752 14.9386 5.60752 14.7178V13.2264ZM11.4407 15.8609H9.94931C9.72854 15.8609 9.55192 16.0375 9.55192 16.2583V17.7497C9.55192 17.9705 9.72854 18.1471 9.94931 18.1471H11.4407C11.6615 18.1471 11.8381 17.9705 11.8381 17.7497V16.2583C11.8381 16.0375 11.6615 15.8609 11.4407 15.8609ZM8.32543 15.8609H6.83401C6.61325 15.8609 6.43663 16.0375 6.43663 16.2583V17.7497C6.43663 17.9705 6.61325 18.1471 6.83401 18.1471H8.32543C8.5462 18.1471 8.72281 17.9705 8.72281 17.7497V16.2583C8.72281 16.0375 8.5462 15.8609 8.32543 15.8609ZM17.6713 12.0833C17.8921 12.0833 18.0687 11.9067 18.0687 11.6859V10.1945C18.0687 9.97374 17.8921 9.79713 17.6713 9.79713H16.1799C15.9591 9.79713 15.7825 9.97374 15.7825 10.1945V11.6859C15.7825 11.9067 15.9591 12.0833 16.1799 12.0833H17.6713ZM2.34015 21.385H13.6582C13.4767 20.8159 13.3737 20.2076 13.3688 19.5796H2.34015C2.04579 19.5796 1.8103 19.3392 1.8103 19.0498V8.38911H19.5552V13.349C20.1832 13.354 20.7915 13.4472 21.3606 13.6287V4.65567C21.3606 3.3654 20.3107 2.31552 19.0204 2.31552H16.4007V0.87317C16.4007 0.402197 16.018 0.0195312 15.547 0.0195312H14.2175C13.7465 0.0195312 13.3639 0.402197 13.3639 0.87317V2.32043H7.99673V0.87317C7.99673 0.402197 7.61406 0.0195312 7.14309 0.0195312H5.81357C5.3426 0.0195312 4.95993 0.402197 4.95993 0.87317V2.32043H2.34015C1.04988 2.32043 0 3.37031 0 4.66058V19.0498C0 20.3351 1.04988 21.385 2.34015 21.385ZM24 19.5109C24 21.9786 21.9984 23.9803 19.5307 23.9803C17.063 23.9803 15.0613 21.9786 15.0613 19.5109C15.0613 17.0432 17.063 15.0416 19.5307 15.0416C21.9984 15.0416 24 17.0432 24 19.5109ZM21.7874 18.3531C21.7874 18.2109 21.7334 18.0735 21.6304 17.9754C21.4195 17.7644 21.0809 17.7644 20.87 17.9754L18.9272 19.9181L18.1815 19.1724C17.9706 18.9615 17.6321 18.9615 17.4211 19.1724C17.3181 19.2755 17.2641 19.4079 17.2641 19.5502C17.2641 19.6925 17.3181 19.8298 17.4211 19.928L18.5446 21.0514C18.7555 21.2624 19.094 21.2624 19.305 21.0514L21.6255 18.7309C21.7334 18.6328 21.7874 18.4954 21.7874 18.3531Z" fill="#1E1E1E"/>
</svg>
