<svg width="73" height="62" viewBox="0 0 73 62" fill="none" xmlns="http://www.w3.org/2000/svg">
<g id="button-play--button-television-buttons-movies-play-tv-video-controls">
<g id="button-play--button-television-buttons-movies-play-tv-video-controls_2">
<path id="Vector" d="M7.54785 54.6039C7.56637 55.5268 7.87916 56.4275 8.45216 57.2083C9.02516 57.9891 9.8365 58.6201 10.798 59.0324C11.7581 59.4983 12.8421 59.7432 13.9449 59.7432C15.0477 59.7432 16.1318 59.4983 17.0918 59.0324L61.7163 35.3398C62.6873 34.9382 63.5065 34.3096 64.0802 33.5262C64.6533 32.7427 64.9572 31.8364 64.9572 30.9112C64.9572 29.986 64.6533 29.0796 64.0802 28.2962C63.5065 27.5128 62.6873 26.8841 61.7163 26.4826L17.0918 2.96689C16.1318 2.50119 15.0477 2.25647 13.9449 2.25647C12.8421 2.25647 11.7581 2.50119 10.798 2.96689C9.8365 3.37958 9.02516 4.0106 8.45216 4.79138C7.87916 5.57214 7.56637 6.47282 7.54785 7.39547V54.6039Z" stroke="white" stroke-width="2" stroke-linecap="round" stroke-linejoin="round"/>
</g>
</g>
</svg>
