<svg width="57" height="57" viewBox="0 0 57 57" fill="none" xmlns="http://www.w3.org/2000/svg">
<path d="M28.1536 0C12.609 0 0 12.6018 0 28.1536C0 43.6982 12.6018 56.3072 28.1536 56.3072C43.6982 56.3072 56.3072 43.7054 56.3072 28.1536C56.3072 12.609 43.7054 0 28.1536 0Z" fill="white"/>
<path d="M16.5169 31.7096C15.883 31.7096 15.2633 31.5217 14.7362 31.1695C14.2091 30.8174 13.7982 30.3168 13.5556 29.7312C13.313 29.1455 13.2494 28.5011 13.3731 27.8794C13.4967 27.2576 13.8019 26.6865 14.2502 26.2382C14.6984 25.7899 15.2695 25.4846 15.8912 25.3609C16.5129 25.2372 17.1574 25.3007 17.7431 25.5432C18.3287 25.7858 18.8293 26.1966 19.1815 26.7237C19.5337 27.2507 19.7218 27.8704 19.7218 28.5043C19.7208 29.3541 19.3829 30.1687 18.7821 30.7696C18.1813 31.3705 17.3666 31.7085 16.5169 31.7096ZM16.5169 26.2993C16.0808 26.2993 15.6544 26.4286 15.2917 26.6708C14.9291 26.9131 14.6464 27.2575 14.4794 27.6604C14.3125 28.0634 14.2688 28.5068 14.3539 28.9345C14.4389 29.3623 14.649 29.7552 14.9573 30.0637C15.2657 30.3721 15.6587 30.5821 16.0864 30.6672C16.5142 30.7523 16.9576 30.7086 17.3605 30.5417C17.7635 30.3748 18.1079 30.0921 18.3502 29.7295C18.5925 29.3668 18.7218 28.9405 18.7218 28.5043C18.721 27.9198 18.4884 27.3595 18.0751 26.9462C17.6617 26.533 17.1014 26.3005 16.5169 26.2998V26.2993Z" fill="#003E79"/>
<path d="M17.5826 42.774C17.4499 42.774 17.3228 42.7214 17.229 42.6276C17.1352 42.5338 17.0826 42.4066 17.0826 42.274V36.5877C17.0826 36.5011 17.1051 36.4161 17.1479 36.3408C17.1906 36.2656 17.2522 36.2028 17.3265 36.1584C17.4008 36.1141 17.4854 36.0899 17.5719 36.088C17.6584 36.0862 17.7439 36.1068 17.8201 36.1479L19.9111 37.2785L23.2111 37.4245C23.2269 37.4258 23.2429 37.4236 23.2578 37.418C23.2727 37.4124 23.2862 37.4036 23.2973 37.3922C23.3089 37.3813 23.318 37.3682 23.3243 37.3536C23.3305 37.339 23.3336 37.3233 23.3334 37.3074C23.334 37.0714 23.2548 36.8421 23.1086 36.6569C22.9624 36.4716 22.7579 36.3413 22.5282 36.287L19.6584 35.6014C19.5588 35.5775 19.4688 35.5236 19.4007 35.447L18.2018 34.097C17.8208 33.6681 17.3185 33.3652 16.7613 33.2284C16.2042 33.0916 15.6186 33.1275 15.0823 33.3312C14.5461 33.535 14.0844 33.897 13.7586 34.3692C13.4329 34.8414 13.2584 35.4015 13.2583 35.9752V42.2737C13.2583 42.4063 13.2056 42.5334 13.1119 42.6272C13.0181 42.721 12.8909 42.7737 12.7583 42.7737C12.6257 42.7737 12.4985 42.721 12.4047 42.6272C12.311 42.5334 12.2583 42.4063 12.2583 42.2737V35.9752C12.2583 35.1986 12.4945 34.4403 12.9354 33.8011C13.3764 33.1618 14.0014 32.6718 14.7274 32.396C15.4534 32.1202 16.2461 32.0718 17.0003 32.257C17.7544 32.4423 18.4345 32.8525 18.9501 33.4333L20.0444 34.6657L22.7611 35.3148C23.2096 35.4208 23.6092 35.6754 23.8948 36.0372C24.1803 36.399 24.3351 36.8468 24.3339 37.3078C24.3339 37.4587 24.3034 37.608 24.2441 37.7467C24.1848 37.8855 24.098 38.0108 23.989 38.1151C23.88 38.2194 23.751 38.3005 23.6098 38.3536C23.4686 38.4067 23.318 38.4307 23.1673 38.424L19.7526 38.2729C19.677 38.2695 19.6033 38.2491 19.5368 38.2132L18.0826 37.4268V42.274C18.0826 42.4066 18.0299 42.5338 17.9361 42.6276C17.8423 42.7214 17.7152 42.774 17.5826 42.774Z" fill="#003E79"/>
<path d="M39.4831 31.7096C38.8492 31.7096 38.2295 31.5216 37.7024 31.1695C37.1753 30.8173 36.7645 30.3168 36.5219 29.7311C36.2792 29.1455 36.2157 28.501 36.3394 27.8793C36.463 27.2575 36.7683 26.6864 37.2165 26.2382C37.6647 25.7899 38.2358 25.4846 38.8575 25.3609C39.4793 25.2372 40.1237 25.3007 40.7094 25.5432C41.2951 25.7858 41.7956 26.1966 42.1479 26.7237C42.5001 27.2507 42.6881 27.8704 42.6881 28.5043C42.6872 29.3541 42.3492 30.1688 41.7484 30.7697C41.1475 31.3706 40.3328 31.7086 39.4831 31.7096ZM39.4831 26.2993C39.0469 26.2993 38.6206 26.4286 38.2579 26.6709C37.8953 26.9132 37.6126 27.2576 37.4457 27.6605C37.2788 28.0635 37.2351 28.5068 37.3202 28.9346C37.4053 29.3624 37.6153 29.7553 37.9237 30.0637C38.2321 30.3721 38.625 30.5821 39.0528 30.6672C39.4806 30.7523 39.9239 30.7086 40.3269 30.5417C40.7298 30.3748 41.0742 30.0921 41.3165 29.7295C41.5588 29.3668 41.6881 28.9405 41.6881 28.5043C41.6873 27.9198 41.4548 27.3594 41.0414 26.9462C40.628 26.5329 40.0676 26.3004 39.4831 26.2998V26.2993Z" fill="#003E79"/>
<path d="M43.2416 42.7739C43.109 42.7739 42.9819 42.7212 42.8881 42.6275C42.7943 42.5337 42.7416 42.4065 42.7416 42.2739V35.975C42.7416 35.4013 42.5671 34.8412 42.2413 34.369C41.9155 33.8968 41.4538 33.5348 40.9176 33.3311C40.3813 33.1273 39.7957 33.0914 39.2386 33.2282C38.6814 33.3649 38.179 33.6679 37.798 34.0968L36.5993 35.4468C36.5311 35.5233 36.4412 35.5772 36.3415 35.6012L33.4718 36.2875C33.2421 36.3418 33.0375 36.4721 32.8913 36.6574C32.7451 36.8426 32.6659 37.0719 32.6665 37.3079C32.6665 37.3237 32.6697 37.3394 32.6759 37.354C32.6821 37.3686 32.6912 37.3817 32.7027 37.3927C32.7141 37.4036 32.7277 37.4121 32.7425 37.4177C32.7574 37.4233 32.7732 37.4258 32.789 37.425L36.089 37.279L38.1801 36.1484C38.2563 36.1073 38.3418 36.0867 38.4283 36.0885C38.5148 36.0904 38.5994 36.1146 38.6737 36.1589C38.748 36.2033 38.8096 36.2661 38.8523 36.3413C38.8951 36.4166 38.9176 36.5016 38.9176 36.5882V42.2742C38.9176 42.4068 38.865 42.5339 38.7712 42.6277C38.6774 42.7215 38.5502 42.7742 38.4176 42.7742C38.285 42.7742 38.1579 42.7215 38.0641 42.6277C37.9703 42.5339 37.9176 42.4068 37.9176 42.2742V37.4267L36.4631 38.2125C36.3966 38.2485 36.3229 38.2689 36.2474 38.2723L32.8331 38.4234C32.6824 38.4301 32.5319 38.4061 32.3907 38.353C32.2494 38.2999 32.1204 38.2188 32.0114 38.1145C31.9024 38.0101 31.8156 37.8848 31.7564 37.7461C31.6971 37.6073 31.6665 37.458 31.6665 37.3072C31.6653 36.8462 31.8201 36.3984 32.1057 36.0366C32.3912 35.6747 32.7908 35.4201 33.2394 35.3142L35.956 34.665L37.0503 33.4327C37.5659 32.8521 38.246 32.442 39.0001 32.2569C39.7543 32.0718 40.5469 32.1203 41.2728 32.3961C41.9987 32.6719 42.6235 33.1619 43.0645 33.8011C43.5054 34.4403 43.7416 35.1985 43.7416 35.975V42.2735C43.7417 42.3392 43.7288 42.4043 43.7037 42.465C43.6786 42.5257 43.6418 42.5809 43.5953 42.6273C43.5489 42.6738 43.4938 42.7107 43.4331 42.7358C43.3724 42.761 43.3073 42.7739 43.2416 42.7739Z" fill="#003E79"/>
<path d="M34.6155 26.8599C34.5113 26.86 34.4097 26.8274 34.3249 26.7668L30.44 23.9909H25.2337C24.8517 23.9905 24.4854 23.8385 24.2152 23.5684C23.945 23.2983 23.793 22.932 23.7925 22.5499V14.6672C23.7929 14.2851 23.9449 13.9188 24.2151 13.6486C24.4853 13.3784 24.8516 13.2265 25.2337 13.2261H36.9079C37.29 13.2265 37.6563 13.3784 37.9265 13.6486C38.1967 13.9188 38.3487 14.2851 38.3491 14.6672V22.5499C38.3487 22.9321 38.1967 23.2984 37.9265 23.5686C37.6563 23.8388 37.29 23.9909 36.9079 23.9913H35.1155V26.3599C35.1155 26.4926 35.0628 26.6197 34.969 26.7135C34.8753 26.8073 34.7481 26.8599 34.6155 26.8599ZM25.2337 14.2261C25.1168 14.2262 25.0046 14.2727 24.9219 14.3554C24.8392 14.4381 24.7926 14.5502 24.7925 14.6672V22.5499C24.7926 22.6669 24.8391 22.7791 24.9219 22.8619C25.0046 22.9446 25.1167 22.9912 25.2337 22.9913H30.5999C30.7041 22.9913 30.8057 23.0239 30.8905 23.0844L34.1155 25.3884V23.4909C34.1155 23.3583 34.1682 23.2312 34.2619 23.1374C34.3557 23.0436 34.4829 22.9909 34.6155 22.9909H36.9079C37.0249 22.9908 37.137 22.9442 37.2197 22.8615C37.3024 22.7787 37.349 22.6666 37.3491 22.5496V14.6672C37.3489 14.5502 37.3024 14.4381 37.2197 14.3554C37.137 14.2727 37.0248 14.2262 36.9079 14.2261H25.2337Z" fill="#003E79"/>
<path d="M35.4919 18.2588H26.6499C26.5173 18.2588 26.3901 18.2061 26.2963 18.1123C26.2026 18.0186 26.1499 17.8914 26.1499 17.7588C26.1499 17.6262 26.2026 17.499 26.2963 17.4052C26.3901 17.3115 26.5173 17.2588 26.6499 17.2588H35.492C35.6246 17.2588 35.7518 17.3115 35.8456 17.4052C35.9394 17.499 35.992 17.6262 35.992 17.7588C35.992 17.8914 35.9394 18.0186 35.8456 18.1123C35.7518 18.2061 35.6245 18.2588 35.4919 18.2588Z" fill="#003E79"/>
<path d="M33.67 20.543H33.1157C32.9831 20.543 32.8559 20.4903 32.7622 20.3965C32.6684 20.3028 32.6157 20.1756 32.6157 20.043C32.6157 19.9104 32.6684 19.7832 32.7622 19.6894C32.8559 19.5956 32.9831 19.543 33.1157 19.543H33.67C33.8026 19.543 33.9298 19.5956 34.0235 19.6894C34.1173 19.7832 34.17 19.9104 34.17 20.043C34.17 20.1756 34.1173 20.3028 34.0235 20.3965C33.9298 20.4903 33.8026 20.543 33.67 20.543Z" fill="#003E79"/>
<path d="M31.8474 20.543H26.6499C26.5173 20.543 26.3901 20.4903 26.2963 20.3965C26.2026 20.3028 26.1499 20.1756 26.1499 20.043C26.1499 19.9104 26.2026 19.7832 26.2963 19.6894C26.3901 19.5956 26.5173 19.543 26.6499 19.543H31.8474C31.98 19.543 32.1072 19.5956 32.201 19.6894C32.2947 19.7832 32.3474 19.9104 32.3474 20.043C32.3474 20.1756 32.2947 20.3028 32.201 20.3965C32.1072 20.4903 31.98 20.543 31.8474 20.543Z" fill="#003E79"/>
<path d="M21.8722 28.2252C21.7396 28.2252 21.6124 28.1725 21.5186 28.0787C21.4249 27.985 21.3722 27.8578 21.3722 27.7252V25.6107H19.7831C19.423 25.6104 19.0777 25.4672 18.8231 25.2126C18.5684 24.9581 18.4252 24.6129 18.4248 24.2528V17.0698C18.4252 16.7097 18.5684 16.3645 18.8231 16.1099C19.0777 15.8554 19.423 15.7122 19.7831 15.7119H22.6416C22.7742 15.7119 22.9013 15.7646 22.9951 15.8584C23.0889 15.9521 23.1416 16.0793 23.1416 16.2119C23.1416 16.3445 23.0889 16.4717 22.9951 16.5655C22.9013 16.6592 22.7742 16.7119 22.6416 16.7119H19.7831C19.6881 16.7119 19.5971 16.7497 19.5299 16.8167C19.4627 16.8838 19.4249 16.9749 19.4248 17.0698V24.2528C19.4249 24.3477 19.4626 24.4386 19.5297 24.5057C19.5968 24.5728 19.6878 24.6106 19.7827 24.6107H21.8722C22.0048 24.6107 22.132 24.6633 22.2257 24.7571C22.3195 24.8509 22.3722 24.9781 22.3722 25.1107V26.7533L25.2404 24.7033C25.3252 24.6427 25.4268 24.6102 25.5311 24.6102H30.4214C30.554 24.6102 30.6812 24.6628 30.775 24.7566C30.8688 24.8504 30.9214 24.9776 30.9214 25.1102C30.9214 25.2428 30.8688 25.3699 30.775 25.4637C30.6812 25.5575 30.554 25.6102 30.4214 25.6102H25.6913L22.1623 28.132C22.0776 28.1925 21.9762 28.2251 21.8722 28.2252Z" fill="#003E79"/>
<path d="M35.7314 39.7524H33.7739C33.6413 39.7524 33.5141 39.6998 33.4204 39.606C33.3266 39.5122 33.2739 39.385 33.2739 39.2524C33.2739 39.1198 33.3266 38.9927 33.4204 38.8989C33.5141 38.8051 33.6413 38.7524 33.7739 38.7524H35.7314C35.864 38.7524 35.9912 38.8051 36.085 38.8989C36.1787 38.9927 36.2314 39.1198 36.2314 39.2524C36.2314 39.385 36.1787 39.5122 36.085 39.606C35.9912 39.6998 35.864 39.7524 35.7314 39.7524Z" fill="#003E79"/>
<path d="M32.1666 39.7524H31.6772C31.5446 39.7524 31.4175 39.6998 31.3237 39.606C31.2299 39.5122 31.1772 39.385 31.1772 39.2524C31.1772 39.1198 31.2299 38.9927 31.3237 38.8989C31.4175 38.8051 31.5446 38.7524 31.6772 38.7524H32.1666C32.2992 38.7524 32.4264 38.8051 32.5202 38.8989C32.6139 38.9927 32.6666 39.1198 32.6666 39.2524C32.6666 39.385 32.6139 39.5122 32.5202 39.606C32.4264 39.6998 32.2992 39.7524 32.1666 39.7524Z" fill="#003E79"/>
<path d="M30.2526 39.7524H20.2686C20.1359 39.7524 20.0088 39.6998 19.915 39.606C19.8212 39.5122 19.7686 39.385 19.7686 39.2524C19.7686 39.1198 19.8212 38.9927 19.915 38.8989C20.0088 38.8051 20.1359 38.7524 20.2686 38.7524H30.2526C30.3852 38.7524 30.5123 38.8051 30.6061 38.8989C30.6999 38.9927 30.7526 39.1198 30.7526 39.2524C30.7526 39.385 30.6999 39.5122 30.6061 39.606C30.5123 39.6998 30.3852 39.7524 30.2526 39.7524Z" fill="#003E79"/>
</svg>
