<svg width="72" height="72" viewBox="0 0 72 72" fill="none" xmlns="http://www.w3.org/2000/svg">
<path d="M42.9503 46.8454L55.7019 38.9451C59.3357 36.8626 63.6278 36.5206 67.5118 38.004C69.803 38.9736 70.2653 42.39 68.1037 43.8335L39.1879 63.1415H18.2736L12.5327 47.845C12.5327 47.845 16.1602 32.275 30.3453 38.2305L41.2096 38.3595C43.1694 38.4225 44.7325 40.4687 44.7325 42.9713C44.7325 45.5192 43.1146 47.5846 41.1189 47.5846H30.4869" fill="white"/>
<path d="M67.5115 38.0066C66.9342 37.7918 66.3448 37.6058 65.7479 37.4648L37.2995 56.4607H15.7559L18.2731 63.1441H39.1875L68.1033 43.836C70.2665 42.3916 69.9145 38.9244 67.5115 38.0066Z" fill="#E6E7E8"/>
<path d="M71.9672 40.4383C71.7372 38.1855 70.349 36.3105 68.3447 35.545C63.8095 33.8129 58.7756 34.214 54.533 36.6456C54.5091 36.6593 54.4851 36.6735 54.4616 36.6881L47.0304 41.292C46.4144 38.162 44.1112 35.8383 41.2839 35.7474C41.2682 35.7469 41.2526 35.7466 41.2369 35.7465L30.8153 35.6228C21.088 31.7574 15.6191 36.9743 13.2095 40.4679L17.1808 43.5577C20.0754 39.3612 24.0855 38.4146 29.4401 40.6626C29.7196 40.7799 30.017 40.842 30.3176 40.8456L41.1491 40.9742C42.7008 41.0662 42.6551 44.9715 41.1188 44.9715H30.4867V50.1999H41.1188C42.4868 50.1999 43.7503 49.6587 44.7669 48.7477L56.9053 41.2273C59.9109 39.5181 63.4711 39.2397 66.6789 40.4651C67.1663 40.799 67.2044 41.1845 66.7934 41.6215L38.4783 60.5285H16.3622V65.7569H39.188C39.6517 65.7569 40.1059 65.6179 40.4983 65.3558L69.4138 46.0477C71.219 44.8424 72.1973 42.6929 71.9672 40.4383Z" fill="#061014" fill-opacity="0.9"/>
<path d="M18.7473 68.0111L12.3584 71.7126C11.2299 72.3663 9.81625 71.8593 9.29226 70.6127L0.191254 48.9609C-0.285358 47.8272 0.155254 46.4954 1.19478 45.9275L8.07427 42.1681C9.21487 41.5448 10.6138 42.0845 11.1118 43.3401L19.7222 65.0497C20.1612 66.1561 19.7399 67.436 18.7473 68.0111Z" fill="#0795FE"/>
<path d="M46.2117 5.47255C40.0246 -9.35354 16.0253 8.44489 46.1114 29.0547L46.0957 28.9794C77.6399 8.36941 51.3741 -8.88625 46.2117 5.47255Z" fill="#0795FE"/>
</svg>
