<svg width="40" height="26" viewBox="0 0 40 26" fill="none" xmlns="http://www.w3.org/2000/svg">
<path d="M16.6609 15.6917C13.2874 15.6917 10.4647 13.0655 10.4647 9.78263C10.4647 6.4998 13.2186 3.87354 16.6609 3.87354C20.1033 3.87354 22.8571 6.4998 22.8571 9.78263C22.8571 13.0655 20.1033 15.6917 16.6609 15.6917ZM16.6609 5.05535C13.9071 5.05535 11.6351 7.22202 11.6351 9.84828C11.6351 12.4745 13.9071 14.6412 16.6609 14.6412C19.4148 14.6412 21.6867 12.4745 21.6867 9.84828C21.6867 7.22202 19.4148 5.05535 16.6609 5.05535Z" fill="#384043" stroke="#384043" stroke-width="0.5" stroke-miterlimit="10"/>
<path d="M16.6609 17.9242C6.67814 17.9242 1.99656 10.3737 1.79002 10.0454C1.65232 9.84841 1.65232 9.65144 1.79002 9.45447C1.99656 9.12619 6.67814 1.57568 16.6609 1.57568C23.6145 1.57568 28.0895 5.31811 30.0861 7.55043C30.2926 7.81306 30.2926 8.14134 30.0861 8.33831C29.8107 8.53528 29.4664 8.53528 29.2599 8.33831C27.401 6.2373 23.2702 2.7575 16.7298 2.7575C8.39931 2.7575 3.92427 8.46962 3.02926 9.78275C3.99311 11.0959 8.46816 16.808 16.7298 16.808C18.1756 16.808 19.5525 16.611 20.8606 16.2828C21.2048 16.2171 21.4802 16.4141 21.5491 16.6767C21.6179 17.005 21.4114 17.2676 21.136 17.3333C19.6902 17.6615 18.2444 17.8585 16.7298 17.8585L16.6609 17.9242Z" fill="#384043" stroke="#384043" stroke-width="0.5" stroke-miterlimit="10"/>
<path d="M18.5886 9.78298C18.5886 10.7678 17.7625 11.5557 16.7298 11.5557C15.6971 11.5557 14.8709 10.7678 14.8709 9.78298C14.8709 8.79813 15.6971 8.01025 16.7298 8.01025C17.7625 8.01025 18.5886 8.79813 18.5886 9.78298Z" fill="#384043" stroke="#384043" stroke-width="0.5" stroke-miterlimit="10"/>
<path d="M30.3614 24.3588C26.0241 24.3588 22.4441 20.9447 22.4441 16.8083C22.4441 12.672 26.0241 9.25781 30.3614 9.25781C34.6988 9.25781 38.2788 12.672 38.2788 16.8083C38.2788 20.9447 34.6988 24.3588 30.3614 24.3588ZM30.3614 10.374C26.6437 10.374 23.6145 13.2629 23.6145 16.8083C23.6145 20.3538 26.6437 23.2427 30.3614 23.2427C34.0792 23.2427 37.1084 20.3538 37.1084 16.8083C37.1084 13.2629 34.0792 10.374 30.3614 10.374Z" fill="#384043" stroke="#384043" stroke-width="0.5" stroke-miterlimit="10"/>
<path d="M30.3614 21.9948C29.1222 21.9948 28.0895 21.01 28.0895 19.8282V18.9746H27.1945C25.9552 18.9746 24.9225 17.9898 24.9225 16.808C24.9225 15.6261 25.9552 14.6413 27.1945 14.6413H28.0895V13.7878C28.0895 12.6059 29.1222 11.6211 30.3614 11.6211C31.6007 11.6211 32.6334 12.6059 32.6334 13.7878V14.6413H33.5284C34.7676 14.6413 35.8003 15.6261 35.8003 16.808C35.8003 17.9898 34.7676 18.9746 33.5284 18.9746H32.6334V19.8282C32.6334 21.01 31.6007 21.9948 30.3614 21.9948ZM27.1945 15.7575C26.5749 15.7575 26.0929 16.2171 26.0929 16.808C26.0929 17.3989 26.5749 17.8585 27.1945 17.8585H28.6403C28.6403 17.8585 29.2599 18.1211 29.2599 18.4494V19.8938C29.2599 20.4847 29.7418 20.9443 30.3614 20.9443C30.9811 20.9443 31.463 20.4847 31.463 19.8938V18.4494C31.463 18.4494 31.7384 17.8585 32.0826 17.8585H33.5284C34.148 17.8585 34.63 17.3989 34.63 16.808C34.63 16.2171 34.148 15.7575 33.5284 15.7575H32.0826C32.0826 15.7575 31.463 15.4948 31.463 15.1665V13.7221C31.463 13.1312 30.9811 12.6716 30.3614 12.6716C29.7418 12.6716 29.2599 13.1312 29.2599 13.7221V15.1665C29.2599 15.1665 28.9845 15.7575 28.6403 15.7575H27.1945Z" fill="#01D0FF" stroke="#01D0FF" stroke-width="0.5" stroke-miterlimit="10"/>
</svg>
