<svg width="56" height="56" viewBox="0 0 56 56" fill="none" xmlns="http://www.w3.org/2000/svg">
<circle cx="28" cy="28" r="28" fill="white"/>
<g clip-path="url(#clip0_12816_1137)">
<path d="M39.8703 26.7911L43.8073 16.216C44.0973 15.4224 44.0548 14.5451 43.6891 13.7835C43.3235 13.0216 42.6658 12.4397 41.8652 12.1694C41.0647 11.8985 40.1889 11.9622 39.4358 12.3459C38.6829 12.7297 38.1168 13.4012 37.8657 14.2082L35.2036 22.8961C32.7618 21.3353 30.3415 20.5353 28.0002 20.5353C19.9556 20.5353 13.4117 29.8232 12.189 31.6748C11.94 32.0253 11.9368 32.494 12.1809 32.848C13.4117 34.7113 19.9556 43.9992 28.0002 43.9992C36.0451 43.9992 42.5894 34.7113 43.8122 32.8597C44.0599 32.5087 44.0629 32.0405 43.819 31.6865C42.6478 29.9431 41.3264 28.3051 39.8703 26.7911ZM38.8843 14.5234C39.1541 13.6604 39.9521 13.0721 40.8563 13.0697C41.5322 13.0685 42.1661 13.3973 42.5548 13.9505C42.9431 14.5036 43.0371 15.2115 42.8064 15.8469L38.7623 26.7101L38.7584 26.7203L37.4392 30.2585L36.9207 30.0837L34.8997 29.4004L34.3815 29.2249L36.0292 23.8459L36.0324 23.8369L38.8843 14.5234ZM36.1881 32.8006C36.3717 32.9398 36.4459 33.1809 36.3727 33.3994L35.688 35.4226C35.2752 36.6182 34.0854 37.3652 32.8289 37.2175L35.0645 30.5826L36.0778 30.9256L35.85 31.6189C35.6975 32.0444 35.8334 32.5199 36.1881 32.8006ZM23.7341 27.4678C23.7341 28.0568 23.2567 28.5343 22.6676 28.5343C22.0786 28.5343 21.6011 28.0568 21.6011 27.4678C21.6011 26.8788 22.0786 26.4013 22.6676 26.4013C23.2567 26.4013 23.7341 26.8788 23.7341 27.4678ZM21.7195 29.3684C22.0129 29.5193 22.3378 29.5989 22.6676 29.6011C23.8457 29.6011 24.8007 28.6459 24.8007 27.4678C24.8004 27.0574 24.6806 26.6559 24.4557 26.3122C27.5232 24.4789 31.4827 25.2884 33.5842 28.1786L33.3606 28.9093C33.189 29.4612 33.4902 30.049 34.0385 30.2318L34.0544 30.2372L31.7209 37.1638C31.6484 37.3782 31.6692 37.6132 31.7785 37.8117C31.8137 37.8739 31.8574 37.9308 31.9082 37.9811C29.3404 39.7568 25.9011 39.59 23.5171 37.5747C21.1329 35.5593 20.3962 32.196 21.7195 29.3684ZM28.0002 42.9326C20.5016 42.9326 14.2485 34.0431 13.069 32.2731C14.2485 30.4916 20.5016 21.6021 28.0002 21.6021C30.2128 21.6021 32.5255 22.4018 34.8795 23.9563L33.9648 26.9427C31.3365 23.9878 26.9391 23.4063 23.6328 25.5764C23.335 25.42 23.004 25.3372 22.6676 25.3348C21.4895 25.3348 20.5346 26.2897 20.5346 27.4678C20.5348 27.8806 20.6559 28.2841 20.8829 28.6288C19.1327 32.0378 20.05 36.2094 23.0687 38.5697C26.0876 40.93 30.3573 40.814 33.2434 38.2931C34.8099 38.2511 36.1862 37.2427 36.6983 35.7617L37.3857 33.739C37.6028 33.0928 37.3945 32.3795 36.8638 31.9516L37.0904 31.2652L37.1016 31.2691C37.2132 31.3069 37.3303 31.3262 37.4482 31.3259C37.8923 31.3257 38.2894 31.0491 38.4437 30.6329L39.457 27.9079C40.7257 29.2674 41.8874 30.723 42.9317 32.2614C41.7521 34.0431 35.5002 42.9326 28.0002 42.9326Z" fill="#003E79"/>
<path d="M27.6357 35.9827C27.7558 35.9939 27.8747 35.9997 27.9935 35.9997C29.1616 36.0005 30.263 35.4554 30.9709 34.5263C31.6789 33.5972 31.912 32.3908 31.601 31.2647C31.3815 30.4294 30.8687 29.701 30.1566 29.2123C29.2956 28.6103 28.2218 28.3962 27.1958 28.622C26.9163 28.6825 26.6727 28.8525 26.5186 29.0934C26.3648 29.3346 26.3136 29.627 26.3761 29.906C26.4073 30.0508 26.4085 30.2002 26.3805 30.3454C26.3148 30.6545 26.1166 30.9191 25.8385 31.0692C25.684 31.1544 25.5107 31.1998 25.3342 31.2008H25.3298C24.7547 31.1961 24.2821 31.6534 24.2677 32.2285C24.2638 32.737 24.3675 33.2406 24.5726 33.7061C25.1123 34.9586 26.2806 35.8269 27.6357 35.9827ZM25.3342 32.2673C25.6869 32.2668 26.0341 32.178 26.3436 32.0088C26.905 31.7066 27.3027 31.17 27.4282 30.5449C27.4826 30.2534 27.4811 29.9544 27.4245 29.6634C28.1627 29.5018 28.9346 29.6565 29.5534 30.0901C30.0524 30.436 30.4127 30.9479 30.5699 31.5347C30.8081 32.3842 30.6123 33.2967 30.046 33.9736C29.4797 34.6503 28.616 35.0043 27.7375 34.9193C26.7679 34.8031 25.934 34.1775 25.5512 33.2789C25.4089 32.9598 25.3337 32.6152 25.3305 32.2658L25.3342 32.2673Z" fill="#003E79"/>
<path d="M39.5396 17.8458C39.8211 17.932 40.1191 17.7738 40.2055 17.4921L40.9052 15.2028C41.1998 15.1894 41.4276 14.9399 41.4141 14.6453C41.4007 14.3509 41.1512 14.1229 40.8566 14.1363C40.4211 14.137 40.0356 14.4185 39.9021 14.8332L39.1839 17.1796C39.1424 17.3151 39.1568 17.4616 39.2235 17.5866C39.2901 17.7115 39.4039 17.8048 39.5396 17.8458Z" fill="#003E79"/>
</g>
<defs>
<clipPath id="clip0_12816_1137">
<rect width="32" height="32" fill="white" transform="translate(12 12)"/>
</clipPath>
</defs>
</svg>
