<svg width="25" height="25" viewBox="0 0 25 25" fill="none" xmlns="http://www.w3.org/2000/svg">
    <g id="phone-forwarded" clip-path="url(#clip0_12360_23746)">
        <path id="Vector" d="M19.5 1.75488L23.5 5.75488L19.5 9.75488" stroke="#1B2E35" stroke-width="2"
              stroke-linecap="round" stroke-linejoin="round"/>
        <path id="Vector_2" d="M15.5 5.75488H23.5" stroke="#1B2E35" stroke-width="2" stroke-linecap="round"
              stroke-linejoin="round"/>
        <path id="Vector_3"
              d="M22.5004 17.675V20.675C22.5016 20.9535 22.4445 21.2291 22.3329 21.4843C22.2214 21.7395 22.0577 21.9686 21.8525 22.1568C21.6473 22.3451 21.405 22.4885 21.1412 22.5777C20.8773 22.6669 20.5978 22.7 20.3204 22.675C17.2433 22.3406 14.2874 21.2891 11.6904 19.605C9.27425 18.0696 7.22576 16.0212 5.69042 13.605C4.0004 10.9962 2.94866 8.02597 2.62042 4.93498C2.59543 4.65845 2.6283 4.37974 2.71692 4.1166C2.80555 3.85347 2.94799 3.61167 3.13519 3.4066C3.32238 3.20153 3.55023 3.03769 3.80421 2.9255C4.0582 2.81331 4.33276 2.75524 4.61042 2.75498H7.61042C8.09573 2.7502 8.56621 2.92206 8.93418 3.23851C9.30215 3.55497 9.5425 3.99443 9.61042 4.47498C9.73704 5.43505 9.97187 6.37771 10.3104 7.28498C10.445 7.6429 10.4741 8.03189 10.3943 8.40586C10.3146 8.77983 10.1293 9.12309 9.86042 9.39498L8.59042 10.665C10.014 13.1685 12.0869 15.2414 14.5904 16.665L15.8604 15.395C16.1323 15.1261 16.4756 14.9408 16.8495 14.8611C17.2235 14.7813 17.6125 14.8104 17.9704 14.945C18.8777 15.2835 19.8204 15.5184 20.7804 15.645C21.2662 15.7135 21.7098 15.9582 22.027 16.3325C22.3441 16.7068 22.5126 17.1846 22.5004 17.675Z"
              stroke="#1B2E35" stroke-width="2" stroke-linecap="round" stroke-linejoin="round"/>
    </g>
    <defs>
        <clipPath id="clip0_12360_23746">
            <rect width="24" height="24" fill="white" transform="translate(0.5 0.754883)"/>
        </clipPath>
    </defs>
</svg>
