<svg width="71" height="71" viewBox="0 0 71 71" fill="none" xmlns="http://www.w3.org/2000/svg">
<circle cx="35.5" cy="35.5" r="35.5" fill="#003E79"/>
<path d="M50.25 32.6992C48.3265 32.6992 46.7617 34.264 46.7617 36.1875V37.0907C45.5153 36.6076 44.0452 36.8653 43.0335 37.8772L38.2835 42.6272C37.6246 43.2861 37.2617 44.162 37.2617 45.0938V52.8867C37.2617 53.5015 37.7602 54 38.375 54H46.0938C46.7086 54 47.207 53.5015 47.207 52.8867V50.1011L52.7165 44.5916C53.3754 43.9327 53.7383 43.0567 53.7383 42.125V36.1875C53.7383 34.264 52.1735 32.6992 50.25 32.6992ZM51.5117 42.125C51.5117 42.462 51.3804 42.7789 51.1422 43.0172L45.3066 48.8529C45.0978 49.0616 44.9805 49.3448 44.9805 49.6401V51.7734H39.4883V45.0938C39.4883 44.7568 39.6196 44.4399 39.8578 44.2016L44.6079 39.4515C45.1009 38.9585 45.8988 38.9582 46.3921 39.4516C46.8852 39.9446 46.8853 40.7427 46.3921 41.2359L44.509 43.119C44.0743 43.5538 44.0743 44.2586 44.509 44.6934C44.9437 45.1283 45.6487 45.1281 46.0834 44.6934L47.9665 42.8103C48.6254 42.1515 48.9883 41.2756 48.9883 40.3438V36.1875C48.9883 35.4918 49.5543 34.9258 50.25 34.9258C50.9457 34.9258 51.5117 35.4918 51.5117 36.1875V42.125Z" fill="white"/>
<path d="M28.9666 37.8772C27.9516 36.8622 26.4809 36.6094 25.2385 37.0906L25.2383 36.1875C25.2383 34.264 23.6735 32.6992 21.75 32.6992C19.8265 32.6992 18.2617 34.264 18.2617 36.1875V42.125C18.2617 43.0567 18.6246 43.9327 19.2834 44.5915L24.793 50.1011V52.8867C24.793 53.5015 25.2914 54 25.9062 54H33.625C34.2398 54 34.7383 53.5015 34.7383 52.8867V45.0938C34.7383 44.162 34.3754 43.2861 33.7166 42.6272L28.9666 37.8772ZM32.5117 51.7734H27.0195V49.64C27.0195 49.3447 26.9022 49.0616 26.6934 48.8528L20.8578 43.0171C20.6195 42.7789 20.4883 42.462 20.4883 42.125V36.1875C20.4883 35.4918 21.0543 34.9258 21.75 34.9258C22.4457 34.9258 23.0117 35.4918 23.0117 36.1878V40.3438C23.0117 41.2756 23.3746 42.1515 24.0334 42.8103L25.9166 44.6934C26.3513 45.1281 27.0562 45.1281 27.491 44.6934C27.9257 44.2587 27.9257 43.5538 27.491 43.119L25.6078 41.2359C25.3721 41.0001 25.2416 40.6875 25.2388 40.3546C25.2329 39.6588 25.7926 39.0819 26.5 39.0819C26.837 39.0819 27.1539 39.2132 27.3922 39.4515L32.1422 44.2015C32.3804 44.4398 32.5117 44.7566 32.5117 45.0937V51.7734Z" fill="white"/>
<path d="M46.6133 26.6133C46.6133 20.7611 41.8522 16 36 16C30.1478 16 25.3867 20.7611 25.3867 26.6133C25.3867 32.4655 30.1478 37.2266 36 37.2266C41.8522 37.2266 46.6133 32.4655 46.6133 26.6133ZM27.8021 28.3845C26.6728 23.1528 30.6785 18.2266 36 18.2266C37.441 18.2266 38.7981 18.5919 39.9839 19.2348C39.3402 21.1819 37.5184 22.5312 35.4062 22.5312C33.2715 22.5312 32.423 24.0783 31.7411 25.3214C30.975 26.7179 30.2463 28.0441 27.8021 28.3845ZM36.7042 34.9702C33.2306 35.2607 30.0972 33.3975 28.5755 30.5102C31.7755 29.8872 32.9092 27.8215 33.6932 26.3922C34.3707 25.1571 34.6531 24.7578 35.4062 24.7578C38.1516 24.7578 40.6832 23.1593 41.8371 20.5973C43.3788 22.0937 44.349 24.1755 44.3851 26.4802C42.1805 25.659 39.6225 26.1539 37.8786 27.8981C35.9575 29.819 35.5763 32.6784 36.7042 34.9702ZM38.9754 34.4541C37.9474 32.9262 38.1102 30.8152 39.453 29.4724C40.6997 28.2256 42.597 27.9776 44.0998 28.7897C43.3987 31.3959 41.4705 33.5042 38.9754 34.4541Z" fill="white"/>
<path d="M33.625 31.957C34.2398 31.957 34.7383 31.4586 34.7383 30.8438C34.7383 30.2289 34.2398 29.7305 33.625 29.7305C33.0102 29.7305 32.5117 30.2289 32.5117 30.8438C32.5117 31.4586 33.0102 31.957 33.625 31.957Z" fill="white"/>
</svg>
