<svg width="39" height="24" viewBox="0 0 39 24" fill="none" xmlns="http://www.w3.org/2000/svg">
<g id="IllustartorAsset 3Complex 1" clip-path="url(#clip0_12845_450)">
<g id="&#208;&#161;&#208;&#187;&#208;&#190;&#208;&#185; 1">
<g id="Group">
<path id="Vector" d="M8.76152 15.8536C8.40066 16.569 8.01097 17.3812 7.6556 18.1712C8.53787 18.6837 9.47228 19.1367 10.4492 19.5262C9.98545 18.3701 9.33781 16.9944 8.76152 15.855V15.8536ZM19.3282 4.634C16.0598 4.634 13.3993 7.31216 13.3993 10.6036C13.3993 13.895 16.0598 16.5732 19.3282 16.5732C22.5966 16.5732 25.2585 13.8923 25.2585 10.6036C25.2585 7.31493 22.598 4.634 19.3282 4.634ZM19.3282 13.0994C17.9616 13.0994 16.8502 11.9834 16.8502 10.605C16.8502 9.22652 17.9616 8.1105 19.3282 8.1105C20.6948 8.1105 21.8062 9.22652 21.8062 10.605C21.8062 11.9834 20.6976 13.0994 19.3282 13.0994ZM19.3282 4.634C16.0598 4.634 13.3993 7.31216 13.3993 10.6036C13.3993 13.895 16.0598 16.5732 19.3282 16.5732C22.5966 16.5732 25.2585 13.8923 25.2585 10.6036C25.2585 7.31493 22.598 4.634 19.3282 4.634ZM19.3282 13.0994C17.9616 13.0994 16.8502 11.9834 16.8502 10.605C16.8502 9.22652 17.9616 8.1105 19.3282 8.1105C20.6948 8.1105 21.8062 9.22652 21.8062 10.605C21.8062 11.9834 20.6976 13.0994 19.3282 13.0994ZM19.3282 4.634C16.0598 4.634 13.3993 7.31216 13.3993 10.6036C13.3993 13.895 16.0598 16.5732 19.3282 16.5732C22.5966 16.5732 25.2585 13.8923 25.2585 10.6036C25.2585 7.31493 22.598 4.634 19.3282 4.634ZM19.3282 13.0994C17.9616 13.0994 16.8502 11.9834 16.8502 10.605C16.8502 9.22652 17.9616 8.1105 19.3282 8.1105C20.6948 8.1105 21.8062 9.22652 21.8062 10.605C21.8062 11.9834 20.6976 13.0994 19.3282 13.0994ZM19.3282 4.634C16.0598 4.634 13.3993 7.31216 13.3993 10.6036C13.3993 13.895 16.0598 16.5732 19.3282 16.5732C22.5966 16.5732 25.2585 13.8923 25.2585 10.6036C25.2585 7.31493 22.598 4.634 19.3282 4.634ZM19.3282 13.0994C17.9616 13.0994 16.8502 11.9834 16.8502 10.605C16.8502 9.22652 17.9616 8.1105 19.3282 8.1105C20.6948 8.1105 21.8062 9.22652 21.8062 10.605C21.8062 11.9834 20.6976 13.0994 19.3282 13.0994ZM19.3282 4.634C16.0598 4.634 13.3993 7.31216 13.3993 10.6036C13.3993 13.895 16.0598 16.5732 19.3282 16.5732C22.5966 16.5732 25.2585 13.8923 25.2585 10.6036C25.2585 7.31493 22.598 4.634 19.3282 4.634ZM19.3282 13.0994C17.9616 13.0994 16.8502 11.9834 16.8502 10.605C16.8502 9.22652 17.9616 8.1105 19.3282 8.1105C20.6948 8.1105 21.8062 9.22652 21.8062 10.605C21.8062 11.9834 20.6976 13.0994 19.3282 13.0994ZM19.3282 4.634C16.0598 4.634 13.3993 7.31216 13.3993 10.6036C13.3993 13.895 16.0598 16.5732 19.3282 16.5732C22.5966 16.5732 25.2585 13.8923 25.2585 10.6036C25.2585 7.31493 22.598 4.634 19.3282 4.634ZM19.3282 13.0994C17.9616 13.0994 16.8502 11.9834 16.8502 10.605C16.8502 9.22652 17.9616 8.1105 19.3282 8.1105C20.6948 8.1105 21.8062 9.22652 21.8062 10.605C21.8062 11.9834 20.6976 13.0994 19.3282 13.0994ZM19.3282 4.634C16.0598 4.634 13.3993 7.31216 13.3993 10.6036C13.3993 13.895 16.0598 16.5732 19.3282 16.5732C22.5966 16.5732 25.2585 13.8923 25.2585 10.6036C25.2585 7.31493 22.598 4.634 19.3282 4.634ZM19.3282 13.0994C17.9616 13.0994 16.8502 11.9834 16.8502 10.605C16.8502 9.22652 17.9616 8.1105 19.3282 8.1105C20.6948 8.1105 21.8062 9.22652 21.8062 10.605C21.8062 11.9834 20.6976 13.0994 19.3282 13.0994ZM19.3282 4.634C16.0598 4.634 13.3993 7.31216 13.3993 10.6036C13.3993 13.895 16.0598 16.5732 19.3282 16.5732C22.5966 16.5732 25.2585 13.8923 25.2585 10.6036C25.2585 7.31493 22.598 4.634 19.3282 4.634ZM19.3282 13.0994C17.9616 13.0994 16.8502 11.9834 16.8502 10.605C16.8502 9.22652 17.9616 8.1105 19.3282 8.1105C20.6948 8.1105 21.8062 9.22652 21.8062 10.605C21.8062 11.9834 20.6976 13.0994 19.3282 13.0994ZM19.3282 4.634C16.0598 4.634 13.3993 7.31216 13.3993 10.6036C13.3993 13.895 16.0598 16.5732 19.3282 16.5732C22.5966 16.5732 25.2585 13.8923 25.2585 10.6036C25.2585 7.31493 22.598 4.634 19.3282 4.634ZM19.3282 13.0994C17.9616 13.0994 16.8502 11.9834 16.8502 10.605C16.8502 9.22652 17.9616 8.1105 19.3282 8.1105C20.6948 8.1105 21.8062 9.22652 21.8062 10.605C21.8062 11.9834 20.6976 13.0994 19.3282 13.0994ZM19.3282 4.634C16.0598 4.634 13.3993 7.31216 13.3993 10.6036C13.3993 13.895 16.0598 16.5732 19.3282 16.5732C22.5966 16.5732 25.2585 13.8923 25.2585 10.6036C25.2585 7.31493 22.598 4.634 19.3282 4.634ZM19.3282 13.0994C17.9616 13.0994 16.8502 11.9834 16.8502 10.605C16.8502 9.22652 17.9616 8.1105 19.3282 8.1105C20.6948 8.1105 21.8062 9.22652 21.8062 10.605C21.8062 11.9834 20.6976 13.0994 19.3282 13.0994ZM19.3282 4.634C16.0598 4.634 13.3993 7.31216 13.3993 10.6036C13.3993 13.895 16.0598 16.5732 19.3282 16.5732C22.5966 16.5732 25.2585 13.8923 25.2585 10.6036C25.2585 7.31493 22.598 4.634 19.3282 4.634ZM19.3282 13.0994C17.9616 13.0994 16.8502 11.9834 16.8502 10.605C16.8502 9.22652 17.9616 8.1105 19.3282 8.1105C20.6948 8.1105 21.8062 9.22652 21.8062 10.605C21.8062 11.9834 20.6976 13.0994 19.3282 13.0994ZM19.3282 4.634C16.0598 4.634 13.3993 7.31216 13.3993 10.6036C13.3993 13.895 16.0598 16.5732 19.3282 16.5732C22.5966 16.5732 25.2585 13.8923 25.2585 10.6036C25.2585 7.31493 22.598 4.634 19.3282 4.634ZM19.3282 13.0994C17.9616 13.0994 16.8502 11.9834 16.8502 10.605C16.8502 9.22652 17.9616 8.1105 19.3282 8.1105C20.6948 8.1105 21.8062 9.22652 21.8062 10.605C21.8062 11.9834 20.6976 13.0994 19.3282 13.0994ZM19.3282 4.634C16.0598 4.634 13.3993 7.31216 13.3993 10.6036C13.3993 13.895 16.0598 16.5732 19.3282 16.5732C22.5966 16.5732 25.2585 13.8923 25.2585 10.6036C25.2585 7.31493 22.598 4.634 19.3282 4.634ZM19.3282 13.0994C17.9616 13.0994 16.8502 11.9834 16.8502 10.605C16.8502 9.22652 17.9616 8.1105 19.3282 8.1105C20.6948 8.1105 21.8062 9.22652 21.8062 10.605C21.8062 11.9834 20.6976 13.0994 19.3282 13.0994ZM19.3282 4.634C16.0598 4.634 13.3993 7.31216 13.3993 10.6036C13.3993 13.895 16.0598 16.5732 19.3282 16.5732C22.5966 16.5732 25.2585 13.8923 25.2585 10.6036C25.2585 7.31493 22.598 4.634 19.3282 4.634ZM19.3282 13.0994C17.9616 13.0994 16.8502 11.9834 16.8502 10.605C16.8502 9.22652 17.9616 8.1105 19.3282 8.1105C20.6948 8.1105 21.8062 9.22652 21.8062 10.605C21.8062 11.9834 20.6976 13.0994 19.3282 13.0994ZM19.3282 4.634C16.0598 4.634 13.3993 7.31216 13.3993 10.6036C13.3993 13.895 16.0598 16.5732 19.3282 16.5732C22.5966 16.5732 25.2585 13.8923 25.2585 10.6036C25.2585 7.31493 22.598 4.634 19.3282 4.634ZM19.3282 13.0994C17.9616 13.0994 16.8502 11.9834 16.8502 10.605C16.8502 9.22652 17.9616 8.1105 19.3282 8.1105C20.6948 8.1105 21.8062 9.22652 21.8062 10.605C21.8062 11.9834 20.6976 13.0994 19.3282 13.0994ZM19.3282 4.634C16.0598 4.634 13.3993 7.31216 13.3993 10.6036C13.3993 13.895 16.0598 16.5732 19.3282 16.5732C22.5966 16.5732 25.2585 13.8923 25.2585 10.6036C25.2585 7.31493 22.598 4.634 19.3282 4.634ZM19.3282 13.0994C17.9616 13.0994 16.8502 11.9834 16.8502 10.605C16.8502 9.22652 17.9616 8.1105 19.3282 8.1105C20.6948 8.1105 21.8062 9.22652 21.8062 10.605C21.8062 11.9834 20.6976 13.0994 19.3282 13.0994ZM19.3282 4.634C16.0598 4.634 13.3993 7.31216 13.3993 10.6036C13.3993 13.895 16.0598 16.5732 19.3282 16.5732C22.5966 16.5732 25.2585 13.8923 25.2585 10.6036C25.2585 7.31493 22.598 4.634 19.3282 4.634ZM19.3282 13.0994C17.9616 13.0994 16.8502 11.9834 16.8502 10.605C16.8502 9.22652 17.9616 8.1105 19.3282 8.1105C20.6948 8.1105 21.8062 9.22652 21.8062 10.605C21.8062 11.9834 20.6976 13.0994 19.3282 13.0994ZM19.3282 4.634C16.0598 4.634 13.3993 7.31216 13.3993 10.6036C13.3993 13.895 16.0598 16.5732 19.3282 16.5732C22.5966 16.5732 25.2585 13.8923 25.2585 10.6036C25.2585 7.31493 22.598 4.634 19.3282 4.634ZM19.3282 13.0994C17.9616 13.0994 16.8502 11.9834 16.8502 10.605C16.8502 9.22652 17.9616 8.1105 19.3282 8.1105C20.6948 8.1105 21.8062 9.22652 21.8062 10.605C21.8062 11.9834 20.6976 13.0994 19.3282 13.0994ZM19.3282 4.634C16.0598 4.634 13.3993 7.31216 13.3993 10.6036C13.3993 13.895 16.0598 16.5732 19.3282 16.5732C22.5966 16.5732 25.2585 13.8923 25.2585 10.6036C25.2585 7.31493 22.598 4.634 19.3282 4.634ZM19.3282 13.0994C17.9616 13.0994 16.8502 11.9834 16.8502 10.605C16.8502 9.22652 17.9616 8.1105 19.3282 8.1105C20.6948 8.1105 21.8062 9.22652 21.8062 10.605C21.8062 11.9834 20.6976 13.0994 19.3282 13.0994ZM19.3282 4.634C16.0598 4.634 13.3993 7.31216 13.3993 10.6036C13.3993 13.895 16.0598 16.5732 19.3282 16.5732C22.5966 16.5732 25.2585 13.8923 25.2585 10.6036C25.2585 7.31493 22.598 4.634 19.3282 4.634ZM19.3282 13.0994C17.9616 13.0994 16.8502 11.9834 16.8502 10.605C16.8502 9.22652 17.9616 8.1105 19.3282 8.1105C20.6948 8.1105 21.8062 9.22652 21.8062 10.605C21.8062 11.9834 20.6976 13.0994 19.3282 13.0994ZM19.3282 4.634C16.0598 4.634 13.3993 7.31216 13.3993 10.6036C13.3993 13.895 16.0598 16.5732 19.3282 16.5732C22.5966 16.5732 25.2585 13.8923 25.2585 10.6036C25.2585 7.31493 22.598 4.634 19.3282 4.634ZM19.3282 13.0994C17.9616 13.0994 16.8502 11.9834 16.8502 10.605C16.8502 9.22652 17.9616 8.1105 19.3282 8.1105C20.6948 8.1105 21.8062 9.22652 21.8062 10.605C21.8062 11.9834 20.6976 13.0994 19.3282 13.0994ZM19.3282 4.634C16.0598 4.634 13.3993 7.31216 13.3993 10.6036C13.3993 13.895 16.0598 16.5732 19.3282 16.5732C22.5966 16.5732 25.2585 13.8923 25.2585 10.6036C25.2585 7.31493 22.598 4.634 19.3282 4.634ZM19.3282 13.0994C17.9616 13.0994 16.8502 11.9834 16.8502 10.605C16.8502 9.22652 17.9616 8.1105 19.3282 8.1105C20.6948 8.1105 21.8062 9.22652 21.8062 10.605C21.8062 11.9834 20.6976 13.0994 19.3282 13.0994ZM19.3282 4.634C16.0598 4.634 13.3993 7.31216 13.3993 10.6036C13.3993 13.895 16.0598 16.5732 19.3282 16.5732C22.5966 16.5732 25.2585 13.8923 25.2585 10.6036C25.2585 7.31493 22.598 4.634 19.3282 4.634ZM19.3282 13.0994C17.9616 13.0994 16.8502 11.9834 16.8502 10.605C16.8502 9.22652 17.9616 8.1105 19.3282 8.1105C20.6948 8.1105 21.8062 9.22652 21.8062 10.605C21.8062 11.9834 20.6976 13.0994 19.3282 13.0994ZM19.3282 4.634C16.0598 4.634 13.3993 7.31216 13.3993 10.6036C13.3993 13.895 16.0598 16.5732 19.3282 16.5732C22.5966 16.5732 25.2585 13.8923 25.2585 10.6036C25.2585 7.31493 22.598 4.634 19.3282 4.634ZM19.3282 13.0994C17.9616 13.0994 16.8502 11.9834 16.8502 10.605C16.8502 9.22652 17.9616 8.1105 19.3282 8.1105C20.6948 8.1105 21.8062 9.22652 21.8062 10.605C21.8062 11.9834 20.6976 13.0994 19.3282 13.0994ZM19.3282 4.634C16.0598 4.634 13.3993 7.31216 13.3993 10.6036C13.3993 13.895 16.0598 16.5732 19.3282 16.5732C22.5966 16.5732 25.2585 13.8923 25.2585 10.6036C25.2585 7.31493 22.598 4.634 19.3282 4.634ZM19.3282 13.0994C17.9616 13.0994 16.8502 11.9834 16.8502 10.605C16.8502 9.22652 17.9616 8.1105 19.3282 8.1105C20.6948 8.1105 21.8062 9.22652 21.8062 10.605C21.8062 11.9834 20.6976 13.0994 19.3282 13.0994ZM19.3282 4.634C16.0598 4.634 13.3993 7.31216 13.3993 10.6036C13.3993 13.895 16.0598 16.5732 19.3282 16.5732C22.5966 16.5732 25.2585 13.8923 25.2585 10.6036C25.2585 7.31493 22.598 4.634 19.3282 4.634ZM19.3282 13.0994C17.9616 13.0994 16.8502 11.9834 16.8502 10.605C16.8502 9.22652 17.9616 8.1105 19.3282 8.1105C20.6948 8.1105 21.8062 9.22652 21.8062 10.605C21.8062 11.9834 20.6976 13.0994 19.3282 13.0994ZM19.3282 4.634C16.0598 4.634 13.3993 7.31216 13.3993 10.6036C13.3993 13.895 16.0598 16.5732 19.3282 16.5732C22.5966 16.5732 25.2585 13.8923 25.2585 10.6036C25.2585 7.31493 22.598 4.634 19.3282 4.634ZM19.3282 13.0994C17.9616 13.0994 16.8502 11.9834 16.8502 10.605C16.8502 9.22652 17.9616 8.1105 19.3282 8.1105C20.6948 8.1105 21.8062 9.22652 21.8062 10.605C21.8062 11.9834 20.6976 13.0994 19.3282 13.0994ZM19.3282 4.634C16.0598 4.634 13.3993 7.31216 13.3993 10.6036C13.3993 13.895 16.0598 16.5732 19.3282 16.5732C22.5966 16.5732 25.2585 13.8923 25.2585 10.6036C25.2585 7.31493 22.598 4.634 19.3282 4.634ZM19.3282 13.0994C17.9616 13.0994 16.8502 11.9834 16.8502 10.605C16.8502 9.22652 17.9616 8.1105 19.3282 8.1105C20.6948 8.1105 21.8062 9.22652 21.8062 10.605C21.8062 11.9834 20.6976 13.0994 19.3282 13.0994ZM19.3282 4.634C16.0598 4.634 13.3993 7.31216 13.3993 10.6036C13.3993 13.895 16.0598 16.5732 19.3282 16.5732C22.5966 16.5732 25.2585 13.8923 25.2585 10.6036C25.2585 7.31493 22.598 4.634 19.3282 4.634ZM19.3282 13.0994C17.9616 13.0994 16.8502 11.9834 16.8502 10.605C16.8502 9.22652 17.9616 8.1105 19.3282 8.1105C20.6948 8.1105 21.8062 9.22652 21.8062 10.605C21.8062 11.9834 20.6976 13.0994 19.3282 13.0994ZM19.3282 4.634C16.0598 4.634 13.3993 7.31216 13.3993 10.6036C13.3993 13.895 16.0598 16.5732 19.3282 16.5732C22.5966 16.5732 25.2585 13.8923 25.2585 10.6036C25.2585 7.31493 22.598 4.634 19.3282 4.634ZM19.3282 13.0994C17.9616 13.0994 16.8502 11.9834 16.8502 10.605C16.8502 9.22652 17.9616 8.1105 19.3282 8.1105C20.6948 8.1105 21.8062 9.22652 21.8062 10.605C21.8062 11.9834 20.6976 13.0994 19.3282 13.0994ZM19.3282 4.634C16.0598 4.634 13.3993 7.31216 13.3993 10.6036C13.3993 13.895 16.0598 16.5732 19.3282 16.5732C22.5966 16.5732 25.2585 13.8923 25.2585 10.6036C25.2585 7.31493 22.598 4.634 19.3282 4.634ZM19.3282 13.0994C17.9616 13.0994 16.8502 11.9834 16.8502 10.605C16.8502 9.22652 17.9616 8.1105 19.3282 8.1105C20.6948 8.1105 21.8062 9.22652 21.8062 10.605C21.8062 11.9834 20.6976 13.0994 19.3282 13.0994ZM19.3282 4.634C16.0598 4.634 13.3993 7.31216 13.3993 10.6036C13.3993 13.895 16.0598 16.5732 19.3282 16.5732C22.5966 16.5732 25.2585 13.8923 25.2585 10.6036C25.2585 7.31493 22.598 4.634 19.3282 4.634ZM19.3282 13.0994C17.9616 13.0994 16.8502 11.9834 16.8502 10.605C16.8502 9.22652 17.9616 8.1105 19.3282 8.1105C20.6948 8.1105 21.8062 9.22652 21.8062 10.605C21.8062 11.9834 20.6976 13.0994 19.3282 13.0994ZM19.3282 4.634C16.0598 4.634 13.3993 7.31216 13.3993 10.6036C13.3993 13.895 16.0598 16.5732 19.3282 16.5732C22.5966 16.5732 25.2585 13.8923 25.2585 10.6036C25.2585 7.31493 22.598 4.634 19.3282 4.634ZM19.3282 13.0994C17.9616 13.0994 16.8502 11.9834 16.8502 10.605C16.8502 9.22652 17.9616 8.1105 19.3282 8.1105C20.6948 8.1105 21.8062 9.22652 21.8062 10.605C21.8062 11.9834 20.6976 13.0994 19.3282 13.0994ZM19.3282 4.634C16.0598 4.634 13.3993 7.31216 13.3993 10.6036C13.3993 13.895 16.0598 16.5732 19.3282 16.5732C22.5966 16.5732 25.2585 13.8923 25.2585 10.6036C25.2585 7.31493 22.598 4.634 19.3282 4.634ZM19.3282 13.0994C17.9616 13.0994 16.8502 11.9834 16.8502 10.605C16.8502 9.22652 17.9616 8.1105 19.3282 8.1105C20.6948 8.1105 21.8062 9.22652 21.8062 10.605C21.8062 11.9834 20.6976 13.0994 19.3282 13.0994ZM19.3282 4.634C16.0598 4.634 13.3993 7.31216 13.3993 10.6036C13.3993 13.895 16.0598 16.5732 19.3282 16.5732C22.5966 16.5732 25.2585 13.8923 25.2585 10.6036C25.2585 7.31493 22.598 4.634 19.3282 4.634ZM19.3282 13.0994C17.9616 13.0994 16.8502 11.9834 16.8502 10.605C16.8502 9.22652 17.9616 8.1105 19.3282 8.1105C20.6948 8.1105 21.8062 9.22652 21.8062 10.605C21.8062 11.9834 20.6976 13.0994 19.3282 13.0994ZM19.3282 4.634C16.0598 4.634 13.3993 7.31216 13.3993 10.6036C13.3993 13.895 16.0598 16.5732 19.3282 16.5732C22.5966 16.5732 25.2585 13.8923 25.2585 10.6036C25.2585 7.31493 22.598 4.634 19.3282 4.634ZM19.3282 13.0994C17.9616 13.0994 16.8502 11.9834 16.8502 10.605C16.8502 9.22652 17.9616 8.1105 19.3282 8.1105C20.6948 8.1105 21.8062 9.22652 21.8062 10.605C21.8062 11.9834 20.6976 13.0994 19.3282 13.0994ZM19.3282 4.634C16.0598 4.634 13.3993 7.31216 13.3993 10.6036C13.3993 13.895 16.0598 16.5732 19.3282 16.5732C22.5966 16.5732 25.2585 13.8923 25.2585 10.6036C25.2585 7.31493 22.598 4.634 19.3282 4.634ZM19.3282 13.0994C17.9616 13.0994 16.8502 11.9834 16.8502 10.605C16.8502 9.22652 17.9616 8.1105 19.3282 8.1105C20.6948 8.1105 21.8062 9.22652 21.8062 10.605C21.8062 11.9834 20.6976 13.0994 19.3282 13.0994ZM19.3282 4.634C16.0598 4.634 13.3993 7.31216 13.3993 10.6036C13.3993 13.895 16.0598 16.5732 19.3282 16.5732C22.5966 16.5732 25.2585 13.8923 25.2585 10.6036C25.2585 7.31493 22.598 4.634 19.3282 4.634ZM19.3282 13.0994C17.9616 13.0994 16.8502 11.9834 16.8502 10.605C16.8502 9.22652 17.9616 8.1105 19.3282 8.1105C20.6948 8.1105 21.8062 9.22652 21.8062 10.605C21.8062 11.9834 20.6976 13.0994 19.3282 13.0994ZM19.3282 4.634C16.0598 4.634 13.3993 7.31216 13.3993 10.6036C13.3993 13.895 16.0598 16.5732 19.3282 16.5732C22.5966 16.5732 25.2585 13.8923 25.2585 10.6036C25.2585 7.31493 22.598 4.634 19.3282 4.634ZM19.3282 13.0994C17.9616 13.0994 16.8502 11.9834 16.8502 10.605C16.8502 9.22652 17.9616 8.1105 19.3282 8.1105C20.6948 8.1105 21.8062 9.22652 21.8062 10.605C21.8062 11.9834 20.6976 13.0994 19.3282 13.0994ZM19.3282 4.634C16.0598 4.634 13.3993 7.31216 13.3993 10.6036C13.3993 13.895 16.0598 16.5732 19.3282 16.5732C22.5966 16.5732 25.2585 13.8923 25.2585 10.6036C25.2585 7.31493 22.598 4.634 19.3282 4.634ZM19.3282 13.0994C17.9616 13.0994 16.8502 11.9834 16.8502 10.605C16.8502 9.22652 17.9616 8.1105 19.3282 8.1105C20.6948 8.1105 21.8062 9.22652 21.8062 10.605C21.8062 11.9834 20.6976 13.0994 19.3282 13.0994ZM19.3282 4.634C16.0598 4.634 13.3993 7.31216 13.3993 10.6036C13.3993 13.895 16.0598 16.5732 19.3282 16.5732C22.5966 16.5732 25.2585 13.8923 25.2585 10.6036C25.2585 7.31493 22.598 4.634 19.3282 4.634ZM19.3282 13.0994C17.9616 13.0994 16.8502 11.9834 16.8502 10.605C16.8502 9.22652 17.9616 8.1105 19.3282 8.1105C20.6948 8.1105 21.8062 9.22652 21.8062 10.605C21.8062 11.9834 20.6976 13.0994 19.3282 13.0994ZM19.3282 4.634C16.0598 4.634 13.3993 7.31216 13.3993 10.6036C13.3993 13.895 16.0598 16.5732 19.3282 16.5732C22.5966 16.5732 25.2585 13.8923 25.2585 10.6036C25.2585 7.31493 22.598 4.634 19.3282 4.634ZM19.3282 13.0994C17.9616 13.0994 16.8502 11.9834 16.8502 10.605C16.8502 9.22652 17.9616 8.1105 19.3282 8.1105C20.6948 8.1105 21.8062 9.22652 21.8062 10.605C21.8062 11.9834 20.6976 13.0994 19.3282 13.0994ZM19.3282 4.634C16.0598 4.634 13.3993 7.31216 13.3993 10.6036C13.3993 13.895 16.0598 16.5732 19.3282 16.5732C22.5966 16.5732 25.2585 13.8923 25.2585 10.6036C25.2585 7.31493 22.598 4.634 19.3282 4.634ZM19.3282 13.0994C17.9616 13.0994 16.8502 11.9834 16.8502 10.605C16.8502 9.22652 17.9616 8.1105 19.3282 8.1105C20.6948 8.1105 21.8062 9.22652 21.8062 10.605C21.8062 11.9834 20.6976 13.0994 19.3282 13.0994ZM19.3282 4.634C16.0598 4.634 13.3993 7.31216 13.3993 10.6036C13.3993 13.895 16.0598 16.5732 19.3282 16.5732C22.5966 16.5732 25.2585 13.8923 25.2585 10.6036C25.2585 7.31493 22.598 4.634 19.3282 4.634ZM19.3282 13.0994C17.9616 13.0994 16.8502 11.9834 16.8502 10.605C16.8502 9.22652 17.9616 8.1105 19.3282 8.1105C20.6948 8.1105 21.8062 9.22652 21.8062 10.605C21.8062 11.9834 20.6976 13.0994 19.3282 13.0994ZM19.3282 4.634C16.0598 4.634 13.3993 7.31216 13.3993 10.6036C13.3993 13.895 16.0598 16.5732 19.3282 16.5732C22.5966 16.5732 25.2585 13.8923 25.2585 10.6036C25.2585 7.31493 22.598 4.634 19.3282 4.634ZM19.3282 13.0994C17.9616 13.0994 16.8502 11.9834 16.8502 10.605C16.8502 9.22652 17.9616 8.1105 19.3282 8.1105C20.6948 8.1105 21.8062 9.22652 21.8062 10.605C21.8062 11.9834 20.6976 13.0994 19.3282 13.0994ZM19.3282 4.634C16.0598 4.634 13.3993 7.31216 13.3993 10.6036C13.3993 13.895 16.0598 16.5732 19.3282 16.5732C22.5966 16.5732 25.2585 13.8923 25.2585 10.6036C25.2585 7.31493 22.598 4.634 19.3282 4.634ZM19.3282 13.0994C17.9616 13.0994 16.8502 11.9834 16.8502 10.605C16.8502 9.22652 17.9616 8.1105 19.3282 8.1105C20.6948 8.1105 21.8062 9.22652 21.8062 10.605C21.8062 11.9834 20.6976 13.0994 19.3282 13.0994ZM19.2884 3.33183e-05C10.8787 0.0138454 3.37596 4.29698 0.5 10.605C1.77744 13.4074 3.96871 15.8094 6.74725 17.6119C7.43194 16.1008 8.14819 14.7348 8.29912 14.4572C8.38831 14.2818 8.56806 14.1768 8.7629 14.1768C8.95774 14.1768 9.13748 14.2831 9.22942 14.4572C9.45582 14.884 11.02 17.866 11.7555 20.0027C14.1128 20.7845 16.6773 21.2085 19.3296 21.2085H19.3694C27.7791 21.1947 35.2818 16.9088 38.1578 10.6036C35.2667 4.26797 27.7187 -0.0137788 19.2884 3.33183e-05ZM19.3282 18.1657C15.1885 18.1657 11.82 14.7721 11.82 10.605C11.82 6.43786 15.1885 3.04422 19.3282 3.04422C23.4679 3.04422 26.8392 6.43509 26.8392 10.605C26.8392 14.7748 23.4706 18.1657 19.3282 18.1657ZM19.3282 4.634C16.0598 4.634 13.3993 7.31216 13.3993 10.6036C13.3993 13.895 16.0598 16.5732 19.3282 16.5732C22.5966 16.5732 25.2585 13.8923 25.2585 10.6036C25.2585 7.31493 22.598 4.634 19.3282 4.634ZM19.3282 13.0994C17.9616 13.0994 16.8502 11.9834 16.8502 10.605C16.8502 9.22652 17.9616 8.1105 19.3282 8.1105C20.6948 8.1105 21.8062 9.22652 21.8062 10.605C21.8062 11.9834 20.6976 13.0994 19.3282 13.0994ZM19.3282 4.634C16.0598 4.634 13.3993 7.31216 13.3993 10.6036C13.3993 13.895 16.0598 16.5732 19.3282 16.5732C22.5966 16.5732 25.2585 13.8923 25.2585 10.6036C25.2585 7.31493 22.598 4.634 19.3282 4.634ZM19.3282 13.0994C17.9616 13.0994 16.8502 11.9834 16.8502 10.605C16.8502 9.22652 17.9616 8.1105 19.3282 8.1105C20.6948 8.1105 21.8062 9.22652 21.8062 10.605C21.8062 11.9834 20.6976 13.0994 19.3282 13.0994ZM19.3282 4.634C16.0598 4.634 13.3993 7.31216 13.3993 10.6036C13.3993 13.895 16.0598 16.5732 19.3282 16.5732C22.5966 16.5732 25.2585 13.8923 25.2585 10.6036C25.2585 7.31493 22.598 4.634 19.3282 4.634ZM19.3282 13.0994C17.9616 13.0994 16.8502 11.9834 16.8502 10.605C16.8502 9.22652 17.9616 8.1105 19.3282 8.1105C20.6948 8.1105 21.8062 9.22652 21.8062 10.605C21.8062 11.9834 20.6976 13.0994 19.3282 13.0994ZM19.3282 4.634C16.0598 4.634 13.3993 7.31216 13.3993 10.6036C13.3993 13.895 16.0598 16.5732 19.3282 16.5732C22.5966 16.5732 25.2585 13.8923 25.2585 10.6036C25.2585 7.31493 22.598 4.634 19.3282 4.634ZM19.3282 13.0994C17.9616 13.0994 16.8502 11.9834 16.8502 10.605C16.8502 9.22652 17.9616 8.1105 19.3282 8.1105C20.6948 8.1105 21.8062 9.22652 21.8062 10.605C21.8062 11.9834 20.6976 13.0994 19.3282 13.0994ZM19.3282 4.634C16.0598 4.634 13.3993 7.31216 13.3993 10.6036C13.3993 13.895 16.0598 16.5732 19.3282 16.5732C22.5966 16.5732 25.2585 13.8923 25.2585 10.6036C25.2585 7.31493 22.598 4.634 19.3282 4.634ZM19.3282 13.0994C17.9616 13.0994 16.8502 11.9834 16.8502 10.605C16.8502 9.22652 17.9616 8.1105 19.3282 8.1105C20.6948 8.1105 21.8062 9.22652 21.8062 10.605C21.8062 11.9834 20.6976 13.0994 19.3282 13.0994ZM19.3282 4.634C16.0598 4.634 13.3993 7.31216 13.3993 10.6036C13.3993 13.895 16.0598 16.5732 19.3282 16.5732C22.5966 16.5732 25.2585 13.8923 25.2585 10.6036C25.2585 7.31493 22.598 4.634 19.3282 4.634ZM19.3282 13.0994C17.9616 13.0994 16.8502 11.9834 16.8502 10.605C16.8502 9.22652 17.9616 8.1105 19.3282 8.1105C20.6948 8.1105 21.8062 9.22652 21.8062 10.605C21.8062 11.9834 20.6976 13.0994 19.3282 13.0994ZM19.3282 4.634C16.0598 4.634 13.3993 7.31216 13.3993 10.6036C13.3993 13.895 16.0598 16.5732 19.3282 16.5732C22.5966 16.5732 25.2585 13.8923 25.2585 10.6036C25.2585 7.31493 22.598 4.634 19.3282 4.634ZM19.3282 13.0994C17.9616 13.0994 16.8502 11.9834 16.8502 10.605C16.8502 9.22652 17.9616 8.1105 19.3282 8.1105C20.6948 8.1105 21.8062 9.22652 21.8062 10.605C21.8062 11.9834 20.6976 13.0994 19.3282 13.0994ZM19.3282 4.634C16.0598 4.634 13.3993 7.31216 13.3993 10.6036C13.3993 13.895 16.0598 16.5732 19.3282 16.5732C22.5966 16.5732 25.2585 13.8923 25.2585 10.6036C25.2585 7.31493 22.598 4.634 19.3282 4.634ZM19.3282 13.0994C17.9616 13.0994 16.8502 11.9834 16.8502 10.605C16.8502 9.22652 17.9616 8.1105 19.3282 8.1105C20.6948 8.1105 21.8062 9.22652 21.8062 10.605C21.8062 11.9834 20.6976 13.0994 19.3282 13.0994ZM19.3282 4.634C16.0598 4.634 13.3993 7.31216 13.3993 10.6036C13.3993 13.895 16.0598 16.5732 19.3282 16.5732C22.5966 16.5732 25.2585 13.8923 25.2585 10.6036C25.2585 7.31493 22.598 4.634 19.3282 4.634ZM19.3282 13.0994C17.9616 13.0994 16.8502 11.9834 16.8502 10.605C16.8502 9.22652 17.9616 8.1105 19.3282 8.1105C20.6948 8.1105 21.8062 9.22652 21.8062 10.605C21.8062 11.9834 20.6976 13.0994 19.3282 13.0994ZM19.3282 4.634C16.0598 4.634 13.3993 7.31216 13.3993 10.6036C13.3993 13.895 16.0598 16.5732 19.3282 16.5732C22.5966 16.5732 25.2585 13.8923 25.2585 10.6036C25.2585 7.31493 22.598 4.634 19.3282 4.634ZM19.3282 13.0994C17.9616 13.0994 16.8502 11.9834 16.8502 10.605C16.8502 9.22652 17.9616 8.1105 19.3282 8.1105C20.6948 8.1105 21.8062 9.22652 21.8062 10.605C21.8062 11.9834 20.6976 13.0994 19.3282 13.0994ZM19.3282 4.634C16.0598 4.634 13.3993 7.31216 13.3993 10.6036C13.3993 13.895 16.0598 16.5732 19.3282 16.5732C22.5966 16.5732 25.2585 13.8923 25.2585 10.6036C25.2585 7.31493 22.598 4.634 19.3282 4.634ZM19.3282 13.0994C17.9616 13.0994 16.8502 11.9834 16.8502 10.605C16.8502 9.22652 17.9616 8.1105 19.3282 8.1105C20.6948 8.1105 21.8062 9.22652 21.8062 10.605C21.8062 11.9834 20.6976 13.0994 19.3282 13.0994ZM19.3282 4.634C16.0598 4.634 13.3993 7.31216 13.3993 10.6036C13.3993 13.895 16.0598 16.5732 19.3282 16.5732C22.5966 16.5732 25.2585 13.8923 25.2585 10.6036C25.2585 7.31493 22.598 4.634 19.3282 4.634ZM19.3282 13.0994C17.9616 13.0994 16.8502 11.9834 16.8502 10.605C16.8502 9.22652 17.9616 8.1105 19.3282 8.1105C20.6948 8.1105 21.8062 9.22652 21.8062 10.605C21.8062 11.9834 20.6976 13.0994 19.3282 13.0994ZM19.3282 4.634C16.0598 4.634 13.3993 7.31216 13.3993 10.6036C13.3993 13.895 16.0598 16.5732 19.3282 16.5732C22.5966 16.5732 25.2585 13.8923 25.2585 10.6036C25.2585 7.31493 22.598 4.634 19.3282 4.634ZM19.3282 13.0994C17.9616 13.0994 16.8502 11.9834 16.8502 10.605C16.8502 9.22652 17.9616 8.1105 19.3282 8.1105C20.6948 8.1105 21.8062 9.22652 21.8062 10.605C21.8062 11.9834 20.6976 13.0994 19.3282 13.0994ZM19.3282 4.634C16.0598 4.634 13.3993 7.31216 13.3993 10.6036C13.3993 13.895 16.0598 16.5732 19.3282 16.5732C22.5966 16.5732 25.2585 13.8923 25.2585 10.6036C25.2585 7.31493 22.598 4.634 19.3282 4.634ZM19.3282 13.0994C17.9616 13.0994 16.8502 11.9834 16.8502 10.605C16.8502 9.22652 17.9616 8.1105 19.3282 8.1105C20.6948 8.1105 21.8062 9.22652 21.8062 10.605C21.8062 11.9834 20.6976 13.0994 19.3282 13.0994ZM19.3282 4.634C16.0598 4.634 13.3993 7.31216 13.3993 10.6036C13.3993 13.895 16.0598 16.5732 19.3282 16.5732C22.5966 16.5732 25.2585 13.8923 25.2585 10.6036C25.2585 7.31493 22.598 4.634 19.3282 4.634ZM19.3282 13.0994C17.9616 13.0994 16.8502 11.9834 16.8502 10.605C16.8502 9.22652 17.9616 8.1105 19.3282 8.1105C20.6948 8.1105 21.8062 9.22652 21.8062 10.605C21.8062 11.9834 20.6976 13.0994 19.3282 13.0994ZM19.3282 4.634C16.0598 4.634 13.3993 7.31216 13.3993 10.6036C13.3993 13.895 16.0598 16.5732 19.3282 16.5732C22.5966 16.5732 25.2585 13.8923 25.2585 10.6036C25.2585 7.31493 22.598 4.634 19.3282 4.634ZM19.3282 13.0994C17.9616 13.0994 16.8502 11.9834 16.8502 10.605C16.8502 9.22652 17.9616 8.1105 19.3282 8.1105C20.6948 8.1105 21.8062 9.22652 21.8062 10.605C21.8062 11.9834 20.6976 13.0994 19.3282 13.0994ZM19.3282 4.634C16.0598 4.634 13.3993 7.31216 13.3993 10.6036C13.3993 13.895 16.0598 16.5732 19.3282 16.5732C22.5966 16.5732 25.2585 13.8923 25.2585 10.6036C25.2585 7.31493 22.598 4.634 19.3282 4.634ZM19.3282 13.0994C17.9616 13.0994 16.8502 11.9834 16.8502 10.605C16.8502 9.22652 17.9616 8.1105 19.3282 8.1105C20.6948 8.1105 21.8062 9.22652 21.8062 10.605C21.8062 11.9834 20.6976 13.0994 19.3282 13.0994ZM19.3282 4.634C16.0598 4.634 13.3993 7.31216 13.3993 10.6036C13.3993 13.895 16.0598 16.5732 19.3282 16.5732C22.5966 16.5732 25.2585 13.8923 25.2585 10.6036C25.2585 7.31493 22.598 4.634 19.3282 4.634ZM19.3282 13.0994C17.9616 13.0994 16.8502 11.9834 16.8502 10.605C16.8502 9.22652 17.9616 8.1105 19.3282 8.1105C20.6948 8.1105 21.8062 9.22652 21.8062 10.605C21.8062 11.9834 20.6976 13.0994 19.3282 13.0994ZM19.3282 4.634C16.0598 4.634 13.3993 7.31216 13.3993 10.6036C13.3993 13.895 16.0598 16.5732 19.3282 16.5732C22.5966 16.5732 25.2585 13.8923 25.2585 10.6036C25.2585 7.31493 22.598 4.634 19.3282 4.634ZM19.3282 13.0994C17.9616 13.0994 16.8502 11.9834 16.8502 10.605C16.8502 9.22652 17.9616 8.1105 19.3282 8.1105C20.6948 8.1105 21.8062 9.22652 21.8062 10.605C21.8062 11.9834 20.6976 13.0994 19.3282 13.0994ZM19.3282 4.634C16.0598 4.634 13.3993 7.31216 13.3993 10.6036C13.3993 13.895 16.0598 16.5732 19.3282 16.5732C22.5966 16.5732 25.2585 13.8923 25.2585 10.6036C25.2585 7.31493 22.598 4.634 19.3282 4.634ZM19.3282 13.0994C17.9616 13.0994 16.8502 11.9834 16.8502 10.605C16.8502 9.22652 17.9616 8.1105 19.3282 8.1105C20.6948 8.1105 21.8062 9.22652 21.8062 10.605C21.8062 11.9834 20.6976 13.0994 19.3282 13.0994ZM19.3282 4.634C16.0598 4.634 13.3993 7.31216 13.3993 10.6036C13.3993 13.895 16.0598 16.5732 19.3282 16.5732C22.5966 16.5732 25.2585 13.8923 25.2585 10.6036C25.2585 7.31493 22.598 4.634 19.3282 4.634ZM19.3282 13.0994C17.9616 13.0994 16.8502 11.9834 16.8502 10.605C16.8502 9.22652 17.9616 8.1105 19.3282 8.1105C20.6948 8.1105 21.8062 9.22652 21.8062 10.605C21.8062 11.9834 20.6976 13.0994 19.3282 13.0994ZM19.3282 4.634C16.0598 4.634 13.3993 7.31216 13.3993 10.6036C13.3993 13.895 16.0598 16.5732 19.3282 16.5732C22.5966 16.5732 25.2585 13.8923 25.2585 10.6036C25.2585 7.31493 22.598 4.634 19.3282 4.634ZM19.3282 13.0994C17.9616 13.0994 16.8502 11.9834 16.8502 10.605C16.8502 9.22652 17.9616 8.1105 19.3282 8.1105C20.6948 8.1105 21.8062 9.22652 21.8062 10.605C21.8062 11.9834 20.6976 13.0994 19.3282 13.0994ZM19.3282 4.634C16.0598 4.634 13.3993 7.31216 13.3993 10.6036C13.3993 13.895 16.0598 16.5732 19.3282 16.5732C22.5966 16.5732 25.2585 13.8923 25.2585 10.6036C25.2585 7.31493 22.598 4.634 19.3282 4.634ZM19.3282 13.0994C17.9616 13.0994 16.8502 11.9834 16.8502 10.605C16.8502 9.22652 17.9616 8.1105 19.3282 8.1105C20.6948 8.1105 21.8062 9.22652 21.8062 10.605C21.8062 11.9834 20.6976 13.0994 19.3282 13.0994ZM19.3282 4.634C16.0598 4.634 13.3993 7.31216 13.3993 10.6036C13.3993 13.895 16.0598 16.5732 19.3282 16.5732C22.5966 16.5732 25.2585 13.8923 25.2585 10.6036C25.2585 7.31493 22.598 4.634 19.3282 4.634ZM19.3282 13.0994C17.9616 13.0994 16.8502 11.9834 16.8502 10.605C16.8502 9.22652 17.9616 8.1105 19.3282 8.1105C20.6948 8.1105 21.8062 9.22652 21.8062 10.605C21.8062 11.9834 20.6976 13.0994 19.3282 13.0994ZM19.3282 4.634C16.0598 4.634 13.3993 7.31216 13.3993 10.6036C13.3993 13.895 16.0598 16.5732 19.3282 16.5732C22.5966 16.5732 25.2585 13.8923 25.2585 10.6036C25.2585 7.31493 22.598 4.634 19.3282 4.634ZM19.3282 13.0994C17.9616 13.0994 16.8502 11.9834 16.8502 10.605C16.8502 9.22652 17.9616 8.1105 19.3282 8.1105C20.6948 8.1105 21.8062 9.22652 21.8062 10.605C21.8062 11.9834 20.6976 13.0994 19.3282 13.0994ZM19.3282 4.634C16.0598 4.634 13.3993 7.31216 13.3993 10.6036C13.3993 13.895 16.0598 16.5732 19.3282 16.5732C22.5966 16.5732 25.2585 13.8923 25.2585 10.6036C25.2585 7.31493 22.598 4.634 19.3282 4.634ZM19.3282 13.0994C17.9616 13.0994 16.8502 11.9834 16.8502 10.605C16.8502 9.22652 17.9616 8.1105 19.3282 8.1105C20.6948 8.1105 21.8062 9.22652 21.8062 10.605C21.8062 11.9834 20.6976 13.0994 19.3282 13.0994ZM19.3282 4.634C16.0598 4.634 13.3993 7.31216 13.3993 10.6036C13.3993 13.895 16.0598 16.5732 19.3282 16.5732C22.5966 16.5732 25.2585 13.8923 25.2585 10.6036C25.2585 7.31493 22.598 4.634 19.3282 4.634ZM19.3282 13.0994C17.9616 13.0994 16.8502 11.9834 16.8502 10.605C16.8502 9.22652 17.9616 8.1105 19.3282 8.1105C20.6948 8.1105 21.8062 9.22652 21.8062 10.605C21.8062 11.9834 20.6976 13.0994 19.3282 13.0994ZM19.3282 4.634C16.0598 4.634 13.3993 7.31216 13.3993 10.6036C13.3993 13.895 16.0598 16.5732 19.3282 16.5732C22.5966 16.5732 25.2585 13.8923 25.2585 10.6036C25.2585 7.31493 22.598 4.634 19.3282 4.634ZM19.3282 13.0994C17.9616 13.0994 16.8502 11.9834 16.8502 10.605C16.8502 9.22652 17.9616 8.1105 19.3282 8.1105C20.6948 8.1105 21.8062 9.22652 21.8062 10.605C21.8062 11.9834 20.6976 13.0994 19.3282 13.0994ZM19.3282 4.634C16.0598 4.634 13.3993 7.31216 13.3993 10.6036C13.3993 13.895 16.0598 16.5732 19.3282 16.5732C22.5966 16.5732 25.2585 13.8923 25.2585 10.6036C25.2585 7.31493 22.598 4.634 19.3282 4.634ZM19.3282 13.0994C17.9616 13.0994 16.8502 11.9834 16.8502 10.605C16.8502 9.22652 17.9616 8.1105 19.3282 8.1105C20.6948 8.1105 21.8062 9.22652 21.8062 10.605C21.8062 11.9834 20.6976 13.0994 19.3282 13.0994ZM19.3282 4.634C16.0598 4.634 13.3993 7.31216 13.3993 10.6036C13.3993 13.895 16.0598 16.5732 19.3282 16.5732C22.5966 16.5732 25.2585 13.8923 25.2585 10.6036C25.2585 7.31493 22.598 4.634 19.3282 4.634ZM19.3282 13.0994C17.9616 13.0994 16.8502 11.9834 16.8502 10.605C16.8502 9.22652 17.9616 8.1105 19.3282 8.1105C20.6948 8.1105 21.8062 9.22652 21.8062 10.605C21.8062 11.9834 20.6976 13.0994 19.3282 13.0994ZM19.3282 4.634C16.0598 4.634 13.3993 7.31216 13.3993 10.6036C13.3993 13.895 16.0598 16.5732 19.3282 16.5732C22.5966 16.5732 25.2585 13.8923 25.2585 10.6036C25.2585 7.31493 22.598 4.634 19.3282 4.634ZM19.3282 13.0994C17.9616 13.0994 16.8502 11.9834 16.8502 10.605C16.8502 9.22652 17.9616 8.1105 19.3282 8.1105C20.6948 8.1105 21.8062 9.22652 21.8062 10.605C21.8062 11.9834 20.6976 13.0994 19.3282 13.0994ZM19.3282 4.634C16.0598 4.634 13.3993 7.31216 13.3993 10.6036C13.3993 13.895 16.0598 16.5732 19.3282 16.5732C22.5966 16.5732 25.2585 13.8923 25.2585 10.6036C25.2585 7.31493 22.598 4.634 19.3282 4.634ZM19.3282 13.0994C17.9616 13.0994 16.8502 11.9834 16.8502 10.605C16.8502 9.22652 17.9616 8.1105 19.3282 8.1105C20.6948 8.1105 21.8062 9.22652 21.8062 10.605C21.8062 11.9834 20.6976 13.0994 19.3282 13.0994ZM19.3282 4.634C16.0598 4.634 13.3993 7.31216 13.3993 10.6036C13.3993 13.895 16.0598 16.5732 19.3282 16.5732C22.5966 16.5732 25.2585 13.8923 25.2585 10.6036C25.2585 7.31493 22.598 4.634 19.3282 4.634ZM19.3282 13.0994C17.9616 13.0994 16.8502 11.9834 16.8502 10.605C16.8502 9.22652 17.9616 8.1105 19.3282 8.1105C20.6948 8.1105 21.8062 9.22652 21.8062 10.605C21.8062 11.9834 20.6976 13.0994 19.3282 13.0994ZM19.3282 4.634C16.0598 4.634 13.3993 7.31216 13.3993 10.6036C13.3993 13.895 16.0598 16.5732 19.3282 16.5732C22.5966 16.5732 25.2585 13.8923 25.2585 10.6036C25.2585 7.31493 22.598 4.634 19.3282 4.634ZM19.3282 13.0994C17.9616 13.0994 16.8502 11.9834 16.8502 10.605C16.8502 9.22652 17.9616 8.1105 19.3282 8.1105C20.6948 8.1105 21.8062 9.22652 21.8062 10.605C21.8062 11.9834 20.6976 13.0994 19.3282 13.0994ZM19.3282 4.634C16.0598 4.634 13.3993 7.31216 13.3993 10.6036C13.3993 13.895 16.0598 16.5732 19.3282 16.5732C22.5966 16.5732 25.2585 13.8923 25.2585 10.6036C25.2585 7.31493 22.598 4.634 19.3282 4.634ZM19.3282 13.0994C17.9616 13.0994 16.8502 11.9834 16.8502 10.605C16.8502 9.22652 17.9616 8.1105 19.3282 8.1105C20.6948 8.1105 21.8062 9.22652 21.8062 10.605C21.8062 11.9834 20.6976 13.0994 19.3282 13.0994ZM19.3282 4.634C16.0598 4.634 13.3993 7.31216 13.3993 10.6036C13.3993 13.895 16.0598 16.5732 19.3282 16.5732C22.5966 16.5732 25.2585 13.8923 25.2585 10.6036C25.2585 7.31493 22.598 4.634 19.3282 4.634ZM19.3282 13.0994C17.9616 13.0994 16.8502 11.9834 16.8502 10.605C16.8502 9.22652 17.9616 8.1105 19.3282 8.1105C20.6948 8.1105 21.8062 9.22652 21.8062 10.605C21.8062 11.9834 20.6976 13.0994 19.3282 13.0994ZM19.3282 4.634C16.0598 4.634 13.3993 7.31216 13.3993 10.6036C13.3993 13.895 16.0598 16.5732 19.3282 16.5732C22.5966 16.5732 25.2585 13.8923 25.2585 10.6036C25.2585 7.31493 22.598 4.634 19.3282 4.634ZM19.3282 13.0994C17.9616 13.0994 16.8502 11.9834 16.8502 10.605C16.8502 9.22652 17.9616 8.1105 19.3282 8.1105C20.6948 8.1105 21.8062 9.22652 21.8062 10.605C21.8062 11.9834 20.6976 13.0994 19.3282 13.0994ZM19.3282 4.634C16.0598 4.634 13.3993 7.31216 13.3993 10.6036C13.3993 13.895 16.0598 16.5732 19.3282 16.5732C22.5966 16.5732 25.2585 13.8923 25.2585 10.6036C25.2585 7.31493 22.598 4.634 19.3282 4.634ZM19.3282 13.0994C17.9616 13.0994 16.8502 11.9834 16.8502 10.605C16.8502 9.22652 17.9616 8.1105 19.3282 8.1105C20.6948 8.1105 21.8062 9.22652 21.8062 10.605C21.8062 11.9834 20.6976 13.0994 19.3282 13.0994ZM19.3282 4.634C16.0598 4.634 13.3993 7.31216 13.3993 10.6036C13.3993 13.895 16.0598 16.5732 19.3282 16.5732C22.5966 16.5732 25.2585 13.8923 25.2585 10.6036C25.2585 7.31493 22.598 4.634 19.3282 4.634ZM19.3282 13.0994C17.9616 13.0994 16.8502 11.9834 16.8502 10.605C16.8502 9.22652 17.9616 8.1105 19.3282 8.1105C20.6948 8.1105 21.8062 9.22652 21.8062 10.605C21.8062 11.9834 20.6976 13.0994 19.3282 13.0994ZM19.3282 4.634C16.0598 4.634 13.3993 7.31216 13.3993 10.6036C13.3993 13.895 16.0598 16.5732 19.3282 16.5732C22.5966 16.5732 25.2585 13.8923 25.2585 10.6036C25.2585 7.31493 22.598 4.634 19.3282 4.634ZM19.3282 13.0994C17.9616 13.0994 16.8502 11.9834 16.8502 10.605C16.8502 9.22652 17.9616 8.1105 19.3282 8.1105C20.6948 8.1105 21.8062 9.22652 21.8062 10.605C21.8062 11.9834 20.6976 13.0994 19.3282 13.0994ZM19.3282 4.634C16.0598 4.634 13.3993 7.31216 13.3993 10.6036C13.3993 13.895 16.0598 16.5732 19.3282 16.5732C22.5966 16.5732 25.2585 13.8923 25.2585 10.6036C25.2585 7.31493 22.598 4.634 19.3282 4.634ZM19.3282 13.0994C17.9616 13.0994 16.8502 11.9834 16.8502 10.605C16.8502 9.22652 17.9616 8.1105 19.3282 8.1105C20.6948 8.1105 21.8062 9.22652 21.8062 10.605C21.8062 11.9834 20.6976 13.0994 19.3282 13.0994ZM19.3282 4.634C16.0598 4.634 13.3993 7.31216 13.3993 10.6036C13.3993 13.895 16.0598 16.5732 19.3282 16.5732C22.5966 16.5732 25.2585 13.8923 25.2585 10.6036C25.2585 7.31493 22.598 4.634 19.3282 4.634ZM19.3282 13.0994C17.9616 13.0994 16.8502 11.9834 16.8502 10.605C16.8502 9.22652 17.9616 8.1105 19.3282 8.1105C20.6948 8.1105 21.8062 9.22652 21.8062 10.605C21.8062 11.9834 20.6976 13.0994 19.3282 13.0994ZM19.3282 4.634C16.0598 4.634 13.3993 7.31216 13.3993 10.6036C13.3993 13.895 16.0598 16.5732 19.3282 16.5732C22.5966 16.5732 25.2585 13.8923 25.2585 10.6036C25.2585 7.31493 22.598 4.634 19.3282 4.634ZM19.3282 13.0994C17.9616 13.0994 16.8502 11.9834 16.8502 10.605C16.8502 9.22652 17.9616 8.1105 19.3282 8.1105C20.6948 8.1105 21.8062 9.22652 21.8062 10.605C21.8062 11.9834 20.6976 13.0994 19.3282 13.0994ZM19.3282 4.634C16.0598 4.634 13.3993 7.31216 13.3993 10.6036C13.3993 13.895 16.0598 16.5732 19.3282 16.5732C22.5966 16.5732 25.2585 13.8923 25.2585 10.6036C25.2585 7.31493 22.598 4.634 19.3282 4.634ZM19.3282 13.0994C17.9616 13.0994 16.8502 11.9834 16.8502 10.605C16.8502 9.22652 17.9616 8.1105 19.3282 8.1105C20.6948 8.1105 21.8062 9.22652 21.8062 10.605C21.8062 11.9834 20.6976 13.0994 19.3282 13.0994ZM19.3282 4.634C16.0598 4.634 13.3993 7.31216 13.3993 10.6036C13.3993 13.895 16.0598 16.5732 19.3282 16.5732C22.5966 16.5732 25.2585 13.8923 25.2585 10.6036C25.2585 7.31493 22.598 4.634 19.3282 4.634ZM19.3282 13.0994C17.9616 13.0994 16.8502 11.9834 16.8502 10.605C16.8502 9.22652 17.9616 8.1105 19.3282 8.1105C20.6948 8.1105 21.8062 9.22652 21.8062 10.605C21.8062 11.9834 20.6976 13.0994 19.3282 13.0994ZM8.76152 15.8536C8.40066 16.569 8.01097 17.3812 7.6556 18.1712C8.53787 18.6837 9.47228 19.1367 10.4492 19.5262C9.98545 18.3701 9.33781 16.9944 8.76152 15.855V15.8536ZM19.3282 4.634C16.0598 4.634 13.3993 7.31216 13.3993 10.6036C13.3993 13.895 16.0598 16.5732 19.3282 16.5732C22.5966 16.5732 25.2585 13.8923 25.2585 10.6036C25.2585 7.31493 22.598 4.634 19.3282 4.634ZM19.3282 13.0994C17.9616 13.0994 16.8502 11.9834 16.8502 10.605C16.8502 9.22652 17.9616 8.1105 19.3282 8.1105C20.6948 8.1105 21.8062 9.22652 21.8062 10.605C21.8062 11.9834 20.6976 13.0994 19.3282 13.0994ZM19.3282 4.634C16.0598 4.634 13.3993 7.31216 13.3993 10.6036C13.3993 13.895 16.0598 16.5732 19.3282 16.5732C22.5966 16.5732 25.2585 13.8923 25.2585 10.6036C25.2585 7.31493 22.598 4.634 19.3282 4.634ZM19.3282 13.0994C17.9616 13.0994 16.8502 11.9834 16.8502 10.605C16.8502 9.22652 17.9616 8.1105 19.3282 8.1105C20.6948 8.1105 21.8062 9.22652 21.8062 10.605C21.8062 11.9834 20.6976 13.0994 19.3282 13.0994Z" fill="#003E79"/>
<path id="Vector_2" d="M11.0819 21.6647C11.0819 22.9533 10.0418 24.0003 8.76166 24.0003C7.48147 24.0003 6.44141 22.9533 6.44141 21.6647C6.44141 21.068 6.98614 19.655 7.65573 18.1702C8.01111 17.3802 8.40079 16.5694 8.76166 15.8525C9.33795 16.992 9.98696 18.3677 10.4494 19.5238C10.8253 20.4603 11.0819 21.2517 11.0819 21.6633V21.6647Z" fill="#003E79"/>
</g>
</g>
</g>
<defs>
<clipPath id="clip0_12845_450">
<rect width="38" height="24" fill="white" transform="translate(0.5)"/>
</clipPath>
</defs>
</svg>
