<svg width="32" height="32" viewBox="0 0 32 32" fill="none" xmlns="http://www.w3.org/2000/svg">
<g id="training_3080325 1">
<g id="Meeting-Training-Learning-Presentation-Interview">
<g id="Vector">
<mask id="path-1-outside-1_12816_1427" maskUnits="userSpaceOnUse" x="0" y="6.5" width="25" height="25" fill="black">
<rect fill="white" y="6.5" width="25" height="25"/>
<path d="M23.685 19.135C23.587 18.9044 23.4318 18.7025 23.2341 18.5485C23.0363 18.3945 22.8026 18.2935 22.555 18.255L21.72 18.115C21.4351 18.0661 21.1421 18.101 20.8767 18.2155C20.6113 18.33 20.3849 18.5192 20.225 18.76L19.73 19.5H19.14C18.9881 19.5009 18.8384 19.5362 18.7021 19.6033C18.5658 19.6704 18.4465 19.7675 18.3531 19.8873C18.2598 20.0071 18.1948 20.1466 18.1631 20.2951C18.1314 20.4437 18.1337 20.5975 18.17 20.745L18.475 21.96L16.9 25.785L16.355 23.465C16.2253 22.9006 15.9566 22.3777 15.5732 21.9436C15.1898 21.5096 14.704 21.1784 14.16 20.98C14.5522 20.7212 14.8777 20.3735 15.11 19.965C15.3423 19.5566 15.4749 19.0991 15.4968 18.6297C15.5187 18.1603 15.4295 17.6924 15.2362 17.2641C15.043 16.8358 14.7514 16.4592 14.385 16.165C14.4603 15.9513 14.4992 15.7265 14.5 15.5C14.4997 15.0569 14.3522 14.6264 14.0807 14.2762C13.8092 13.9259 13.4291 13.6758 13 13.565V12C13 10.8065 12.5259 9.66193 11.682 8.81802C10.8381 7.97411 9.69347 7.5 8.5 7.5C7.30653 7.5 6.16193 7.97411 5.31802 8.81802C4.47411 9.66193 4 10.8065 4 12V13.565C3.57094 13.6758 3.19081 13.9259 2.91932 14.2762C2.64782 14.6264 2.50033 15.0569 2.5 15.5C2.50081 15.7265 2.53968 15.9513 2.615 16.165C2.24548 16.4616 1.95198 16.842 1.75883 17.2747C1.56568 17.7074 1.47844 18.1799 1.50435 18.6531C1.53025 19.1262 1.66856 19.5864 1.90779 19.9954C2.14703 20.4044 2.48031 20.7505 2.88 21.005C2.3151 21.3015 1.84163 21.7463 1.51041 22.2916C1.17919 22.8368 1.00274 23.462 1 24.1V30.5C1 30.6326 1.05268 30.7598 1.14645 30.8536C1.24021 30.9473 1.36739 31 1.5 31H12.5C12.6326 31 12.7598 30.9473 12.8536 30.8536C12.9473 30.7598 13 30.6326 13 30.5V29.78C13.0006 29.4336 13.1207 29.0981 13.34 28.83C13.38 28.785 13.42 28.735 13.46 28.68L14.02 30.635C14.0494 30.7398 14.1122 30.8321 14.1988 30.898C14.2854 30.9639 14.3912 30.9997 14.5 31H18.5C18.5991 31.0011 18.6961 30.972 18.7783 30.9166C18.8604 30.8613 18.9238 30.7822 18.96 30.69L22.445 22.235L23.56 20.565C23.6987 20.3561 23.7828 20.1157 23.8047 19.8659C23.8265 19.6161 23.7854 19.3648 23.685 19.135ZM12.5 14.5C12.765 14.5008 13.0189 14.6064 13.2062 14.7938C13.3936 14.9811 13.4992 15.235 13.5 15.5C13.4977 15.7006 13.4387 15.8964 13.33 16.065C13.2927 16.121 13.2677 16.1842 13.2565 16.2506C13.2453 16.3169 13.2482 16.3849 13.265 16.45C13.2799 16.5167 13.3085 16.5796 13.3489 16.6346C13.3894 16.6897 13.4408 16.7358 13.5 16.77C13.8615 16.9778 14.1488 17.2938 14.3214 17.6734C14.4939 18.053 14.5431 18.4772 14.4619 18.8862C14.3808 19.2953 14.1734 19.6686 13.869 19.9536C13.5646 20.2386 13.1785 20.4209 12.765 20.475L10.5 19.65V18.46C11.1073 18.1091 11.6117 17.6047 11.9627 16.9975C12.3138 16.3902 12.499 15.7014 12.5 15V14.5ZM9.83 20.47L10.18 20.595C9.65999 20.8612 9.08418 21 8.5 21C7.91582 21 7.34001 20.8612 6.82 20.595L7.17 20.47C7.26696 20.4356 7.35081 20.3718 7.40994 20.2876C7.46907 20.2034 7.50054 20.1029 7.5 20V18.87C7.82641 18.9559 8.16248 18.9996 8.5 19C8.8374 18.9978 9.17325 18.9541 9.5 18.87V20C9.49946 20.1029 9.53093 20.2034 9.59006 20.2876C9.64919 20.3718 9.73304 20.4356 9.83 20.47ZM8.5 18C7.70472 17.9988 6.94235 17.6824 6.37999 17.12C5.81764 16.5577 5.50119 15.7953 5.5 15V12.97C5.66585 12.9907 5.83286 13.0007 6 13C6.76249 12.9838 7.512 12.7994 8.195 12.46C8.75596 12.177 9.372 12.02 10 12C10.2166 11.9827 10.4345 12.0092 10.6407 12.0779C10.8469 12.1466 11.0371 12.2562 11.2 12.4C11.29 12.465 11.39 12.54 11.5 12.61V15C11.5 15.7956 11.1839 16.5587 10.6213 17.1213C10.0587 17.6839 9.29565 18 8.5 18ZM8.5 8.5C9.38153 8.50125 10.2301 8.83509 10.8762 9.43483C11.5223 10.0346 11.9183 10.856 11.985 11.735C11.925 11.69 11.865 11.645 11.8 11.6C11.2975 11.1794 10.6543 10.965 10 11C9.23751 11.0162 8.488 11.2006 7.805 11.54C7.24404 11.823 6.628 11.98 6 12C5.72948 12.0136 5.45939 11.9657 5.21 11.86C5.147 11.8324 5.07877 11.8187 5.01 11.82C5.05609 10.925 5.44372 10.0818 6.09303 9.46413C6.74233 8.84646 7.60383 8.50137 8.5 8.5ZM2.5 18.5C2.50111 18.1494 2.59402 17.8053 2.76946 17.5017C2.9449 17.1982 3.19677 16.9459 3.5 16.77C3.55917 16.7358 3.61061 16.6897 3.65106 16.6346C3.69151 16.5796 3.72009 16.5167 3.735 16.45C3.75181 16.3849 3.75471 16.3169 3.74351 16.2506C3.73231 16.1842 3.70726 16.121 3.67 16.065C3.56125 15.8964 3.50233 15.7006 3.5 15.5C3.50079 15.235 3.6064 14.9811 3.79377 14.7938C3.98113 14.6064 4.23503 14.5008 4.5 14.5V15C4.49819 15.5256 4.60067 16.0464 4.8015 16.5322C5.00233 17.018 5.29753 17.4591 5.67 17.83C5.917 18.0765 6.1962 18.2884 6.5 18.46V19.65L4.23 20.475C3.75255 20.4084 3.31502 20.1722 2.99737 19.8095C2.67972 19.4469 2.50318 18.9821 2.5 18.5ZM8 30H5V29.78C4.99948 29.2016 4.79799 28.6413 4.43 28.195C4.14323 27.8639 3.98995 27.4379 4 27C4 26.205 4.375 25.83 4.855 25.355C4.9471 25.2597 4.99901 25.1326 5 25V24H4V24.795C3.68597 25.0702 3.43431 25.4092 3.26186 25.7895C3.0894 26.1698 3.00013 26.5825 3 27C2.9873 27.6704 3.2223 28.322 3.66 28.83C3.87934 29.0981 3.99944 29.4336 4 29.78V30H2V24.1C2.00142 23.5872 2.15982 23.0871 2.4539 22.667C2.74798 22.2469 3.16364 21.9269 3.645 21.75L5.35 21.13L8 24.665V30ZM7.095 21.79C8.01074 22.07 8.98926 22.07 9.905 21.79L8.5 23.665L7.095 21.79ZM15.165 30H14.875L13.995 26.91C13.9813 26.5084 13.886 26.1138 13.7149 25.7502C13.5439 25.3866 13.3006 25.0616 13 24.795V24H12V25C12.001 25.1326 12.0529 25.2597 12.145 25.355C12.625 25.83 13 26.205 13 27C13.0101 27.4379 12.8568 27.8639 12.57 28.195C12.202 28.6413 12.0005 29.2016 12 29.78V30H9V24.665L11.65 21.13L13.805 21.915C14.1956 22.057 14.5445 22.2941 14.8204 22.6049C15.0963 22.9157 15.2903 23.2904 15.385 23.695L16.245 27.37L15.165 30ZM18.165 30H16.245L19.335 22.5H21.255L18.165 30ZM22.725 20.01L21.73 21.5H19.39L19.14 20.5H20C20.0824 20.4996 20.1633 20.4788 20.2357 20.4396C20.3081 20.4003 20.3697 20.3438 20.415 20.275L21.055 19.315C21.1087 19.2347 21.1845 19.1717 21.2732 19.1335C21.3619 19.0954 21.4598 19.0837 21.555 19.1L22.395 19.24C22.4777 19.2525 22.5557 19.2863 22.6214 19.338C22.6872 19.3897 22.7383 19.4576 22.77 19.535C22.8024 19.6117 22.8152 19.6953 22.8073 19.7782C22.7995 19.8611 22.7712 19.9407 22.725 20.01Z"/>
</mask>
<path d="M23.685 19.135C23.587 18.9044 23.4318 18.7025 23.2341 18.5485C23.0363 18.3945 22.8026 18.2935 22.555 18.255L21.72 18.115C21.4351 18.0661 21.1421 18.101 20.8767 18.2155C20.6113 18.33 20.3849 18.5192 20.225 18.76L19.73 19.5H19.14C18.9881 19.5009 18.8384 19.5362 18.7021 19.6033C18.5658 19.6704 18.4465 19.7675 18.3531 19.8873C18.2598 20.0071 18.1948 20.1466 18.1631 20.2951C18.1314 20.4437 18.1337 20.5975 18.17 20.745L18.475 21.96L16.9 25.785L16.355 23.465C16.2253 22.9006 15.9566 22.3777 15.5732 21.9436C15.1898 21.5096 14.704 21.1784 14.16 20.98C14.5522 20.7212 14.8777 20.3735 15.11 19.965C15.3423 19.5566 15.4749 19.0991 15.4968 18.6297C15.5187 18.1603 15.4295 17.6924 15.2362 17.2641C15.043 16.8358 14.7514 16.4592 14.385 16.165C14.4603 15.9513 14.4992 15.7265 14.5 15.5C14.4997 15.0569 14.3522 14.6264 14.0807 14.2762C13.8092 13.9259 13.4291 13.6758 13 13.565V12C13 10.8065 12.5259 9.66193 11.682 8.81802C10.8381 7.97411 9.69347 7.5 8.5 7.5C7.30653 7.5 6.16193 7.97411 5.31802 8.81802C4.47411 9.66193 4 10.8065 4 12V13.565C3.57094 13.6758 3.19081 13.9259 2.91932 14.2762C2.64782 14.6264 2.50033 15.0569 2.5 15.5C2.50081 15.7265 2.53968 15.9513 2.615 16.165C2.24548 16.4616 1.95198 16.842 1.75883 17.2747C1.56568 17.7074 1.47844 18.1799 1.50435 18.6531C1.53025 19.1262 1.66856 19.5864 1.90779 19.9954C2.14703 20.4044 2.48031 20.7505 2.88 21.005C2.3151 21.3015 1.84163 21.7463 1.51041 22.2916C1.17919 22.8368 1.00274 23.462 1 24.1V30.5C1 30.6326 1.05268 30.7598 1.14645 30.8536C1.24021 30.9473 1.36739 31 1.5 31H12.5C12.6326 31 12.7598 30.9473 12.8536 30.8536C12.9473 30.7598 13 30.6326 13 30.5V29.78C13.0006 29.4336 13.1207 29.0981 13.34 28.83C13.38 28.785 13.42 28.735 13.46 28.68L14.02 30.635C14.0494 30.7398 14.1122 30.8321 14.1988 30.898C14.2854 30.9639 14.3912 30.9997 14.5 31H18.5C18.5991 31.0011 18.6961 30.972 18.7783 30.9166C18.8604 30.8613 18.9238 30.7822 18.96 30.69L22.445 22.235L23.56 20.565C23.6987 20.3561 23.7828 20.1157 23.8047 19.8659C23.8265 19.6161 23.7854 19.3648 23.685 19.135ZM12.5 14.5C12.765 14.5008 13.0189 14.6064 13.2062 14.7938C13.3936 14.9811 13.4992 15.235 13.5 15.5C13.4977 15.7006 13.4387 15.8964 13.33 16.065C13.2927 16.121 13.2677 16.1842 13.2565 16.2506C13.2453 16.3169 13.2482 16.3849 13.265 16.45C13.2799 16.5167 13.3085 16.5796 13.3489 16.6346C13.3894 16.6897 13.4408 16.7358 13.5 16.77C13.8615 16.9778 14.1488 17.2938 14.3214 17.6734C14.4939 18.053 14.5431 18.4772 14.4619 18.8862C14.3808 19.2953 14.1734 19.6686 13.869 19.9536C13.5646 20.2386 13.1785 20.4209 12.765 20.475L10.5 19.65V18.46C11.1073 18.1091 11.6117 17.6047 11.9627 16.9975C12.3138 16.3902 12.499 15.7014 12.5 15V14.5ZM9.83 20.47L10.18 20.595C9.65999 20.8612 9.08418 21 8.5 21C7.91582 21 7.34001 20.8612 6.82 20.595L7.17 20.47C7.26696 20.4356 7.35081 20.3718 7.40994 20.2876C7.46907 20.2034 7.50054 20.1029 7.5 20V18.87C7.82641 18.9559 8.16248 18.9996 8.5 19C8.8374 18.9978 9.17325 18.9541 9.5 18.87V20C9.49946 20.1029 9.53093 20.2034 9.59006 20.2876C9.64919 20.3718 9.73304 20.4356 9.83 20.47ZM8.5 18C7.70472 17.9988 6.94235 17.6824 6.37999 17.12C5.81764 16.5577 5.50119 15.7953 5.5 15V12.97C5.66585 12.9907 5.83286 13.0007 6 13C6.76249 12.9838 7.512 12.7994 8.195 12.46C8.75596 12.177 9.372 12.02 10 12C10.2166 11.9827 10.4345 12.0092 10.6407 12.0779C10.8469 12.1466 11.0371 12.2562 11.2 12.4C11.29 12.465 11.39 12.54 11.5 12.61V15C11.5 15.7956 11.1839 16.5587 10.6213 17.1213C10.0587 17.6839 9.29565 18 8.5 18ZM8.5 8.5C9.38153 8.50125 10.2301 8.83509 10.8762 9.43483C11.5223 10.0346 11.9183 10.856 11.985 11.735C11.925 11.69 11.865 11.645 11.8 11.6C11.2975 11.1794 10.6543 10.965 10 11C9.23751 11.0162 8.488 11.2006 7.805 11.54C7.24404 11.823 6.628 11.98 6 12C5.72948 12.0136 5.45939 11.9657 5.21 11.86C5.147 11.8324 5.07877 11.8187 5.01 11.82C5.05609 10.925 5.44372 10.0818 6.09303 9.46413C6.74233 8.84646 7.60383 8.50137 8.5 8.5ZM2.5 18.5C2.50111 18.1494 2.59402 17.8053 2.76946 17.5017C2.9449 17.1982 3.19677 16.9459 3.5 16.77C3.55917 16.7358 3.61061 16.6897 3.65106 16.6346C3.69151 16.5796 3.72009 16.5167 3.735 16.45C3.75181 16.3849 3.75471 16.3169 3.74351 16.2506C3.73231 16.1842 3.70726 16.121 3.67 16.065C3.56125 15.8964 3.50233 15.7006 3.5 15.5C3.50079 15.235 3.6064 14.9811 3.79377 14.7938C3.98113 14.6064 4.23503 14.5008 4.5 14.5V15C4.49819 15.5256 4.60067 16.0464 4.8015 16.5322C5.00233 17.018 5.29753 17.4591 5.67 17.83C5.917 18.0765 6.1962 18.2884 6.5 18.46V19.65L4.23 20.475C3.75255 20.4084 3.31502 20.1722 2.99737 19.8095C2.67972 19.4469 2.50318 18.9821 2.5 18.5ZM8 30H5V29.78C4.99948 29.2016 4.79799 28.6413 4.43 28.195C4.14323 27.8639 3.98995 27.4379 4 27C4 26.205 4.375 25.83 4.855 25.355C4.9471 25.2597 4.99901 25.1326 5 25V24H4V24.795C3.68597 25.0702 3.43431 25.4092 3.26186 25.7895C3.0894 26.1698 3.00013 26.5825 3 27C2.9873 27.6704 3.2223 28.322 3.66 28.83C3.87934 29.0981 3.99944 29.4336 4 29.78V30H2V24.1C2.00142 23.5872 2.15982 23.0871 2.4539 22.667C2.74798 22.2469 3.16364 21.9269 3.645 21.75L5.35 21.13L8 24.665V30ZM7.095 21.79C8.01074 22.07 8.98926 22.07 9.905 21.79L8.5 23.665L7.095 21.79ZM15.165 30H14.875L13.995 26.91C13.9813 26.5084 13.886 26.1138 13.7149 25.7502C13.5439 25.3866 13.3006 25.0616 13 24.795V24H12V25C12.001 25.1326 12.0529 25.2597 12.145 25.355C12.625 25.83 13 26.205 13 27C13.0101 27.4379 12.8568 27.8639 12.57 28.195C12.202 28.6413 12.0005 29.2016 12 29.78V30H9V24.665L11.65 21.13L13.805 21.915C14.1956 22.057 14.5445 22.2941 14.8204 22.6049C15.0963 22.9157 15.2903 23.2904 15.385 23.695L16.245 27.37L15.165 30ZM18.165 30H16.245L19.335 22.5H21.255L18.165 30ZM22.725 20.01L21.73 21.5H19.39L19.14 20.5H20C20.0824 20.4996 20.1633 20.4788 20.2357 20.4396C20.3081 20.4003 20.3697 20.3438 20.415 20.275L21.055 19.315C21.1087 19.2347 21.1845 19.1717 21.2732 19.1335C21.3619 19.0954 21.4598 19.0837 21.555 19.1L22.395 19.24C22.4777 19.2525 22.5557 19.2863 22.6214 19.338C22.6872 19.3897 22.7383 19.4576 22.77 19.535C22.8024 19.6117 22.8152 19.6953 22.8073 19.7782C22.7995 19.8611 22.7712 19.9407 22.725 20.01Z" fill="#003E79"/>
<path d="M23.685 19.135C23.587 18.9044 23.4318 18.7025 23.2341 18.5485C23.0363 18.3945 22.8026 18.2935 22.555 18.255L21.72 18.115C21.4351 18.0661 21.1421 18.101 20.8767 18.2155C20.6113 18.33 20.3849 18.5192 20.225 18.76L19.73 19.5H19.14C18.9881 19.5009 18.8384 19.5362 18.7021 19.6033C18.5658 19.6704 18.4465 19.7675 18.3531 19.8873C18.2598 20.0071 18.1948 20.1466 18.1631 20.2951C18.1314 20.4437 18.1337 20.5975 18.17 20.745L18.475 21.96L16.9 25.785L16.355 23.465C16.2253 22.9006 15.9566 22.3777 15.5732 21.9436C15.1898 21.5096 14.704 21.1784 14.16 20.98C14.5522 20.7212 14.8777 20.3735 15.11 19.965C15.3423 19.5566 15.4749 19.0991 15.4968 18.6297C15.5187 18.1603 15.4295 17.6924 15.2362 17.2641C15.043 16.8358 14.7514 16.4592 14.385 16.165C14.4603 15.9513 14.4992 15.7265 14.5 15.5C14.4997 15.0569 14.3522 14.6264 14.0807 14.2762C13.8092 13.9259 13.4291 13.6758 13 13.565V12C13 10.8065 12.5259 9.66193 11.682 8.81802C10.8381 7.97411 9.69347 7.5 8.5 7.5C7.30653 7.5 6.16193 7.97411 5.31802 8.81802C4.47411 9.66193 4 10.8065 4 12V13.565C3.57094 13.6758 3.19081 13.9259 2.91932 14.2762C2.64782 14.6264 2.50033 15.0569 2.5 15.5C2.50081 15.7265 2.53968 15.9513 2.615 16.165C2.24548 16.4616 1.95198 16.842 1.75883 17.2747C1.56568 17.7074 1.47844 18.1799 1.50435 18.6531C1.53025 19.1262 1.66856 19.5864 1.90779 19.9954C2.14703 20.4044 2.48031 20.7505 2.88 21.005C2.3151 21.3015 1.84163 21.7463 1.51041 22.2916C1.17919 22.8368 1.00274 23.462 1 24.1V30.5C1 30.6326 1.05268 30.7598 1.14645 30.8536C1.24021 30.9473 1.36739 31 1.5 31H12.5C12.6326 31 12.7598 30.9473 12.8536 30.8536C12.9473 30.7598 13 30.6326 13 30.5V29.78C13.0006 29.4336 13.1207 29.0981 13.34 28.83C13.38 28.785 13.42 28.735 13.46 28.68L14.02 30.635C14.0494 30.7398 14.1122 30.8321 14.1988 30.898C14.2854 30.9639 14.3912 30.9997 14.5 31H18.5C18.5991 31.0011 18.6961 30.972 18.7783 30.9166C18.8604 30.8613 18.9238 30.7822 18.96 30.69L22.445 22.235L23.56 20.565C23.6987 20.3561 23.7828 20.1157 23.8047 19.8659C23.8265 19.6161 23.7854 19.3648 23.685 19.135ZM12.5 14.5C12.765 14.5008 13.0189 14.6064 13.2062 14.7938C13.3936 14.9811 13.4992 15.235 13.5 15.5C13.4977 15.7006 13.4387 15.8964 13.33 16.065C13.2927 16.121 13.2677 16.1842 13.2565 16.2506C13.2453 16.3169 13.2482 16.3849 13.265 16.45C13.2799 16.5167 13.3085 16.5796 13.3489 16.6346C13.3894 16.6897 13.4408 16.7358 13.5 16.77C13.8615 16.9778 14.1488 17.2938 14.3214 17.6734C14.4939 18.053 14.5431 18.4772 14.4619 18.8862C14.3808 19.2953 14.1734 19.6686 13.869 19.9536C13.5646 20.2386 13.1785 20.4209 12.765 20.475L10.5 19.65V18.46C11.1073 18.1091 11.6117 17.6047 11.9627 16.9975C12.3138 16.3902 12.499 15.7014 12.5 15V14.5ZM9.83 20.47L10.18 20.595C9.65999 20.8612 9.08418 21 8.5 21C7.91582 21 7.34001 20.8612 6.82 20.595L7.17 20.47C7.26696 20.4356 7.35081 20.3718 7.40994 20.2876C7.46907 20.2034 7.50054 20.1029 7.5 20V18.87C7.82641 18.9559 8.16248 18.9996 8.5 19C8.8374 18.9978 9.17325 18.9541 9.5 18.87V20C9.49946 20.1029 9.53093 20.2034 9.59006 20.2876C9.64919 20.3718 9.73304 20.4356 9.83 20.47ZM8.5 18C7.70472 17.9988 6.94235 17.6824 6.37999 17.12C5.81764 16.5577 5.50119 15.7953 5.5 15V12.97C5.66585 12.9907 5.83286 13.0007 6 13C6.76249 12.9838 7.512 12.7994 8.195 12.46C8.75596 12.177 9.372 12.02 10 12C10.2166 11.9827 10.4345 12.0092 10.6407 12.0779C10.8469 12.1466 11.0371 12.2562 11.2 12.4C11.29 12.465 11.39 12.54 11.5 12.61V15C11.5 15.7956 11.1839 16.5587 10.6213 17.1213C10.0587 17.6839 9.29565 18 8.5 18ZM8.5 8.5C9.38153 8.50125 10.2301 8.83509 10.8762 9.43483C11.5223 10.0346 11.9183 10.856 11.985 11.735C11.925 11.69 11.865 11.645 11.8 11.6C11.2975 11.1794 10.6543 10.965 10 11C9.23751 11.0162 8.488 11.2006 7.805 11.54C7.24404 11.823 6.628 11.98 6 12C5.72948 12.0136 5.45939 11.9657 5.21 11.86C5.147 11.8324 5.07877 11.8187 5.01 11.82C5.05609 10.925 5.44372 10.0818 6.09303 9.46413C6.74233 8.84646 7.60383 8.50137 8.5 8.5ZM2.5 18.5C2.50111 18.1494 2.59402 17.8053 2.76946 17.5017C2.9449 17.1982 3.19677 16.9459 3.5 16.77C3.55917 16.7358 3.61061 16.6897 3.65106 16.6346C3.69151 16.5796 3.72009 16.5167 3.735 16.45C3.75181 16.3849 3.75471 16.3169 3.74351 16.2506C3.73231 16.1842 3.70726 16.121 3.67 16.065C3.56125 15.8964 3.50233 15.7006 3.5 15.5C3.50079 15.235 3.6064 14.9811 3.79377 14.7938C3.98113 14.6064 4.23503 14.5008 4.5 14.5V15C4.49819 15.5256 4.60067 16.0464 4.8015 16.5322C5.00233 17.018 5.29753 17.4591 5.67 17.83C5.917 18.0765 6.1962 18.2884 6.5 18.46V19.65L4.23 20.475C3.75255 20.4084 3.31502 20.1722 2.99737 19.8095C2.67972 19.4469 2.50318 18.9821 2.5 18.5ZM8 30H5V29.78C4.99948 29.2016 4.79799 28.6413 4.43 28.195C4.14323 27.8639 3.98995 27.4379 4 27C4 26.205 4.375 25.83 4.855 25.355C4.9471 25.2597 4.99901 25.1326 5 25V24H4V24.795C3.68597 25.0702 3.43431 25.4092 3.26186 25.7895C3.0894 26.1698 3.00013 26.5825 3 27C2.9873 27.6704 3.2223 28.322 3.66 28.83C3.87934 29.0981 3.99944 29.4336 4 29.78V30H2V24.1C2.00142 23.5872 2.15982 23.0871 2.4539 22.667C2.74798 22.2469 3.16364 21.9269 3.645 21.75L5.35 21.13L8 24.665V30ZM7.095 21.79C8.01074 22.07 8.98926 22.07 9.905 21.79L8.5 23.665L7.095 21.79ZM15.165 30H14.875L13.995 26.91C13.9813 26.5084 13.886 26.1138 13.7149 25.7502C13.5439 25.3866 13.3006 25.0616 13 24.795V24H12V25C12.001 25.1326 12.0529 25.2597 12.145 25.355C12.625 25.83 13 26.205 13 27C13.0101 27.4379 12.8568 27.8639 12.57 28.195C12.202 28.6413 12.0005 29.2016 12 29.78V30H9V24.665L11.65 21.13L13.805 21.915C14.1956 22.057 14.5445 22.2941 14.8204 22.6049C15.0963 22.9157 15.2903 23.2904 15.385 23.695L16.245 27.37L15.165 30ZM18.165 30H16.245L19.335 22.5H21.255L18.165 30ZM22.725 20.01L21.73 21.5H19.39L19.14 20.5H20C20.0824 20.4996 20.1633 20.4788 20.2357 20.4396C20.3081 20.4003 20.3697 20.3438 20.415 20.275L21.055 19.315C21.1087 19.2347 21.1845 19.1717 21.2732 19.1335C21.3619 19.0954 21.4598 19.0837 21.555 19.1L22.395 19.24C22.4777 19.2525 22.5557 19.2863 22.6214 19.338C22.6872 19.3897 22.7383 19.4576 22.77 19.535C22.8024 19.6117 22.8152 19.6953 22.8073 19.7782C22.7995 19.8611 22.7712 19.9407 22.725 20.01Z" stroke="#003E79" stroke-width="0.4" mask="url(#path-1-outside-1_12816_1427)"/>
</g>
<path id="Vector_2" d="M7.6 13.5V13.4H7.5H6.5H6.4V13.5V14.5V14.6H6.5H7.5H7.6V14.5V13.5Z" fill="#003E79" stroke="#003E79" stroke-width="0.2"/>
<path id="Vector_3" d="M10.6 13.5V13.4H10.5H9.5H9.4V13.5V14.5V14.6H9.5H10.5H10.6V14.5V13.5Z" fill="#003E79" stroke="#003E79" stroke-width="0.2"/>
<path id="Vector_4" d="M8.1 15.5V15.4H8H7H6.9V15.5C6.9 15.9243 7.06857 16.3313 7.36863 16.6314C7.66869 16.9314 8.07565 17.1 8.5 17.1C8.92435 17.1 9.33131 16.9314 9.63137 16.6314C9.93143 16.3313 10.1 15.9243 10.1 15.5V15.4H10H9H8.9V15.5C8.9 15.6061 8.85786 15.7078 8.78284 15.7828C8.70783 15.8579 8.60609 15.9 8.5 15.9C8.39391 15.9 8.29217 15.8579 8.21716 15.7828C8.14214 15.7078 8.1 15.6061 8.1 15.5Z" fill="#003E79" stroke="#003E79" stroke-width="0.2"/>
<path id="Vector_5" d="M24.5 13.4L24.4998 13.4C24.3815 13.4002 24.2658 13.4352 24.1672 13.5007L24.167 13.5008L22.1 14.8787V14C22.1 13.8409 22.0368 13.6883 21.9243 13.5757C21.8117 13.4632 21.6591 13.4 21.5 13.4H17.5C17.3939 13.4 17.2922 13.3579 17.2172 13.2828C17.1421 13.2078 17.1 13.1061 17.1 13V6C17.1 5.89391 17.1421 5.79217 17.2172 5.71716C17.2922 5.64214 17.3939 5.6 17.5 5.6H29.5C29.6061 5.6 29.7078 5.64214 29.7828 5.71716C29.8579 5.79217 29.9 5.89391 29.9 6V13C29.9 13.1061 29.8579 13.2078 29.7828 13.2828C29.7078 13.3579 29.6061 13.4 29.5 13.4H24.5ZM29.5 4.4H17.5C17.0757 4.4 16.6687 4.56857 16.3686 4.86863C16.0686 5.16869 15.9 5.57565 15.9 6V13C15.9 13.4243 16.0686 13.8313 16.3686 14.1314C16.6687 14.4314 17.0757 14.6 17.5 14.6H20.9V16C20.9 16.1086 20.9295 16.2152 20.9853 16.3084C21.0411 16.4016 21.1212 16.4779 21.2169 16.5291C21.3127 16.5804 21.4206 16.6046 21.5291 16.5994C21.6376 16.5941 21.7426 16.5595 21.833 16.4992C21.833 16.4992 21.833 16.4992 21.833 16.4992L24.6803 14.6H29.5C29.9243 14.6 30.3313 14.4314 30.6314 14.1314C30.9314 13.8313 31.1 13.4243 31.1 13V6C31.1 5.57565 30.9314 5.16869 30.6314 4.86863C30.3313 4.56857 29.9243 4.4 29.5 4.4Z" fill="#003E79" stroke="#003E79" stroke-width="0.2"/>
<path id="Vector_6" d="M28.1 7V6.9H28H21H20.9V7V8V8.1H21H28H28.1V8V7Z" fill="#003E79" stroke="#003E79" stroke-width="0.2"/>
<path id="Vector_7" d="M28.1 9V8.9H28H19H18.9V9V10V10.1H19H28H28.1V10V9Z" fill="#003E79" stroke="#003E79" stroke-width="0.2"/>
<path id="Vector_8" d="M27.1 11V10.9H27H19H18.9V11V12V12.1H19H27H27.1V12V11Z" fill="#003E79" stroke="#003E79" stroke-width="0.2"/>
<path id="Vector_9" d="M20.1 7V6.9H20H19H18.9V7V8V8.1H19H20H20.1V8V7Z" fill="#003E79" stroke="#003E79" stroke-width="0.2"/>
</g>
</g>
</svg>
