<svg width="20" height="21" viewBox="0 0 20 21" fill="none" xmlns="http://www.w3.org/2000/svg">
<g clip-path="url(#clip0_4154_389)">
<path d="M12.5415 5.15267C13.3555 5.31147 14.1035 5.70955 14.6899 6.29595C15.2763 6.88235 15.6744 7.63039 15.8332 8.44434M12.5415 1.81934C14.2326 2.0072 15.8095 2.76448 17.0134 3.96684C18.2173 5.1692 18.9765 6.74518 19.1665 8.436M18.3332 15.086V17.586C18.3341 17.8181 18.2866 18.0478 18.1936 18.2605C18.1006 18.4731 17.9643 18.664 17.7933 18.8209C17.6222 18.9778 17.4203 19.0972 17.2005 19.1716C16.9806 19.2459 16.7477 19.2736 16.5165 19.2527C13.9522 18.974 11.489 18.0978 9.32486 16.6943C7.31139 15.4149 5.60431 13.7078 4.32486 11.6943C2.91651 9.52034 2.04007 7.04516 1.76653 4.46934C1.7457 4.23889 1.77309 4.00664 1.84695 3.78736C1.9208 3.56808 2.03951 3.36658 2.1955 3.19569C2.3515 3.0248 2.54137 2.88826 2.75302 2.79477C2.96468 2.70128 3.19348 2.65289 3.42486 2.65267H5.92486C6.32929 2.64869 6.72136 2.7919 7.028 3.05561C7.33464 3.31932 7.53493 3.68554 7.59153 4.086C7.69705 4.88606 7.89274 5.67161 8.17486 6.42767C8.28698 6.72594 8.31125 7.0501 8.24479 7.36174C8.17832 7.67337 8.02392 7.95943 7.79986 8.186L6.74153 9.24434C7.92783 11.3306 9.65524 13.058 11.7415 14.2443L12.7999 13.186C13.0264 12.9619 13.3125 12.8075 13.6241 12.7411C13.9358 12.6746 14.2599 12.6989 14.5582 12.811C15.3143 13.0931 16.0998 13.2888 16.8999 13.3943C17.3047 13.4514 17.6744 13.6553 17.9386 13.9672C18.2029 14.2792 18.3433 14.6773 18.3332 15.086Z" stroke="#061014" stroke-opacity="0.9" stroke-width="2" stroke-linecap="round" stroke-linejoin="round"/>
</g>
<defs>
<clipPath id="clip0_4154_389">
<rect width="20" height="20" fill="white" transform="translate(0 0.986328)"/>
</clipPath>
</defs>
</svg>
