<svg width="32" height="32" viewBox="0 0 32 32" fill="none" xmlns="http://www.w3.org/2000/svg">
<path fill-rule="evenodd" clip-rule="evenodd" d="M16 32C24.8366 32 32 24.8366 32 16C32 7.1634 24.8366 0 16 0C7.1634 0 0 7.1634 0 16C0 24.8366 7.1634 32 16 32ZM23.2427 20.2426C20.8995 22.5858 17.1005 22.5858 14.7574 20.2426C12.4142 17.8995 12.4142 14.1005 14.7574 11.7574C17.1005 9.4142 20.8995 9.4142 23.2427 11.7574L24.6569 10.3431C21.5327 7.219 16.4674 7.219 13.3432 10.3431C10.219 13.4673 10.219 18.5327 13.3432 21.6569C16.4674 24.781 21.5327 24.781 24.6569 21.6569L23.2427 20.2426ZM7 13V23H9V13H7ZM9.5 10.5C9.5 11.3284 8.8284 12 8 12C7.1716 12 6.5 11.3284 6.5 10.5C6.5 9.6716 7.1716 9 8 9C8.8284 9 9.5 9.6716 9.5 10.5Z" fill="#34DAFF"/>
</svg>
