<svg width="23" height="22" viewBox="0 0 23 22" fill="" xmlns="http://www.w3.org/2000/svg">
    <path d="M15.166 7.33301C16.6247 7.33301 18.0237 7.91247 19.0551 8.94392C20.0866 9.97537 20.666 11.3743 20.666 12.833V19.2497H16.9993V12.833C16.9993 12.3468 16.8062 11.8805 16.4624 11.5366C16.1186 11.1928 15.6522 10.9997 15.166 10.9997C14.6798 10.9997 14.2135 11.1928 13.8697 11.5366C13.5258 11.8805 13.3327 12.3468 13.3327 12.833V19.2497H9.66602V12.833C9.66602 11.3743 10.2455 9.97537 11.2769 8.94392C12.3084 7.91247 13.7073 7.33301 15.166 7.33301Z"
          stroke="#697072" stroke-width="2" stroke-linecap="round" stroke-linejoin="round"/>
    <path d="M6.00065 8.25H2.33398V19.25H6.00065V8.25Z" stroke="#697072" stroke-width="2" stroke-linecap="round"
          stroke-linejoin="round"/>
    <path d="M4.16732 5.49967C5.17984 5.49967 6.00065 4.67886 6.00065 3.66634C6.00065 2.65382 5.17984 1.83301 4.16732 1.83301C3.1548 1.83301 2.33398 2.65382 2.33398 3.66634C2.33398 4.67886 3.1548 5.49967 4.16732 5.49967Z"
          stroke="#697072" stroke-width="2" stroke-linecap="round" stroke-linejoin="round"/>
</svg>
