<svg width="41" height="41" viewBox="0 0 41 41" fill="none" xmlns="http://www.w3.org/2000/svg">
<circle cx="20.5" cy="20.5" r="20.5" fill="#0085FF"/>
<path d="M20.1 20.77C20.1 22.03 19.9633 23.1267 19.69 24.06C19.4233 24.9867 19.05 25.7533 18.57 26.36C18.0967 26.9667 17.5333 27.42 16.88 27.72C16.2333 28.0133 15.5333 28.16 14.78 28.16C14.0267 28.16 13.3267 28.0133 12.68 27.72C12.04 27.42 11.4833 26.9667 11.01 26.36C10.5367 25.7533 10.1667 24.9867 9.9 24.06C9.63333 23.1267 9.5 22.03 9.5 20.77C9.5 19.5033 9.63333 18.4067 9.9 17.48C10.1667 16.5533 10.5367 15.7867 11.01 15.18C11.4833 14.5733 12.04 14.1233 12.68 13.83C13.3267 13.53 14.0267 13.38 14.78 13.38C15.5333 13.38 16.2333 13.53 16.88 13.83C17.5333 14.1233 18.0967 14.5733 18.57 15.18C19.05 15.7867 19.4233 16.5533 19.69 17.48C19.9633 18.4067 20.1 19.5033 20.1 20.77ZM17.55 20.77C17.55 19.7233 17.4733 18.8567 17.32 18.17C17.1667 17.4833 16.96 16.9367 16.7 16.53C16.4467 16.1233 16.1533 15.84 15.82 15.68C15.4867 15.5133 15.14 15.43 14.78 15.43C14.4267 15.43 14.0833 15.5133 13.75 15.68C13.4233 15.84 13.1333 16.1233 12.88 16.53C12.6267 16.9367 12.4233 17.4833 12.27 18.17C12.1233 18.8567 12.05 19.7233 12.05 20.77C12.05 21.8167 12.1233 22.6833 12.27 23.37C12.4233 24.0567 12.6267 24.6033 12.88 25.01C13.1333 25.4167 13.4233 25.7033 13.75 25.87C14.0833 26.03 14.4267 26.11 14.78 26.11C15.14 26.11 15.4867 26.03 15.82 25.87C16.1533 25.7033 16.4467 25.4167 16.7 25.01C16.96 24.6033 17.1667 24.0567 17.32 23.37C17.4733 22.6833 17.55 21.8167 17.55 20.77ZM30.4116 25.7C30.6782 25.7 30.8882 25.7767 31.0416 25.93C31.2016 26.0767 31.2816 26.2733 31.2816 26.52V28H21.3616V27.18C21.3616 27.0133 21.3949 26.84 21.4616 26.66C21.5349 26.4733 21.6482 26.3067 21.8016 26.16L26.1916 21.76C26.5582 21.3867 26.8849 21.03 27.1716 20.69C27.4649 20.35 27.7082 20.0133 27.9016 19.68C28.0949 19.3467 28.2416 19.01 28.3416 18.67C28.4482 18.3233 28.5016 17.96 28.5016 17.58C28.5016 17.2333 28.4516 16.93 28.3516 16.67C28.2516 16.4033 28.1082 16.18 27.9216 16C27.7416 15.82 27.5216 15.6867 27.2616 15.6C27.0082 15.5067 26.7216 15.46 26.4016 15.46C26.1082 15.46 25.8349 15.5033 25.5816 15.59C25.3349 15.67 25.1149 15.7867 24.9216 15.94C24.7282 16.0867 24.5649 16.26 24.4316 16.46C24.2982 16.66 24.1982 16.88 24.1316 17.12C24.0182 17.4267 23.8716 17.63 23.6916 17.73C23.5116 17.83 23.2516 17.8533 22.9116 17.8L21.6116 17.57C21.7116 16.8767 21.9049 16.27 22.1916 15.75C22.4782 15.2233 22.8349 14.7867 23.2616 14.44C23.6949 14.0867 24.1882 13.8233 24.7416 13.65C25.3016 13.47 25.9016 13.38 26.5416 13.38C27.2082 13.38 27.8182 13.48 28.3716 13.68C28.9249 13.8733 29.3982 14.15 29.7916 14.51C30.1849 14.87 30.4916 15.3033 30.7116 15.81C30.9316 16.3167 31.0416 16.88 31.0416 17.5C31.0416 18.0333 30.9616 18.5267 30.8016 18.98C30.6482 19.4333 30.4382 19.8667 30.1716 20.28C29.9116 20.6933 29.6049 21.0933 29.2516 21.48C28.8982 21.8667 28.5282 22.26 28.1416 22.66L24.8816 25.99C25.1949 25.8967 25.5049 25.8267 25.8116 25.78C26.1249 25.7267 26.4216 25.7 26.7016 25.7H30.4116Z" fill="white"/>
</svg>
