<svg width="32" height="32" viewBox="0 0 32 32" fill="none" xmlns="http://www.w3.org/2000/svg">
<g id="doctor_664515 1" clip-path="url(#clip0_12816_1391)">
<g id="Group">
<g id="Group_2">
<g id="Group_3">
<path id="Vector" d="M12.6528 19.0609H10.6713C7.3511 19.0609 4.65957 21.7524 4.65957 25.0726V32V32.15H4.80957H5.87533H6.02533V32V25.0727C6.02652 22.9688 7.4397 21.1369 9.45549 20.5912V25.034C8.30329 25.3944 7.6241 26.5994 7.92929 27.7814C8.24429 29.0015 9.48871 29.7351 10.7088 29.4201C11.9288 29.1051 12.6624 27.8607 12.3475 26.6407C12.1498 25.8749 11.5707 25.269 10.8213 25.0341V20.4267H10.8627L15.4538 26.5481C15.68 26.8498 16.1081 26.9109 16.4098 26.6847L16.4099 26.6846C16.4615 26.6458 16.5075 26.5998 16.5463 26.5481L16.5464 26.5481L21.1374 20.4267H21.1789V24.4633C19.6339 24.7846 18.5161 26.1473 18.5145 27.7368V27.737V28.8028C18.5145 29.1799 18.8202 29.4856 19.1973 29.4856H20.796H20.946V29.3356V28.2699V28.1199H20.796H19.8802V27.737C19.8802 26.6426 20.7674 25.7555 21.8617 25.7555C22.9561 25.7555 23.8433 26.6426 23.8433 27.737V28.1199H22.9275H22.7775V28.2699V29.3356V29.4856H22.9275H24.5261C24.9033 29.4856 25.209 29.1799 25.209 28.8028V27.737V27.7368C25.2074 26.1473 24.0896 24.7846 22.5446 24.4633V20.5912C24.5604 21.1369 25.9737 22.9688 25.9748 25.0727V32V32.15H26.1248H27.1905H27.3405V32V25.0726C27.3405 21.7524 24.649 19.0609 21.3289 19.0609H19.3473V16.8349C21.2845 15.6821 22.4909 13.6136 22.5429 11.3627C23.7338 11.2844 24.6745 10.2925 24.6723 9.08211C24.671 8.2979 24.2671 7.57146 23.6068 7.15567C23.5827 6.65402 23.5115 6.15577 23.3941 5.66749C24.7164 4.54427 24.9137 2.56557 23.8226 1.20176C22.7316 -0.161976 20.758 -0.403922 19.372 0.639379C15.6436 -1.2045 11.1152 0.288685 9.22035 4.00463C8.67041 5.08311 8.38563 6.27721 8.38973 7.48777V7.70239C7.3636 8.36392 7.03689 9.72435 7.66503 10.7832L7.79403 10.7067L7.66503 10.7832C8.05323 11.4375 8.74049 11.8533 9.49532 11.8969C9.71052 13.9474 10.8802 15.7782 12.6528 16.8349V19.0609ZM18.4391 2.58981L18.4391 2.58982C18.2343 2.67132 18.0815 2.84661 18.0286 3.06058C17.6434 4.59768 16.0443 5.60832 14.2495 6.26151C12.5705 6.87257 10.7737 7.1513 9.80179 7.26581C9.91853 3.93235 12.6453 1.26535 16.0008 1.24297C19.2015 1.23196 21.8826 3.64036 22.2295 6.80466H22.1309C20.923 5.75037 19.9645 4.44039 19.3251 2.96956C19.1849 2.6207 18.7887 2.45073 18.4391 2.58981ZM9.45549 10.5226C9.02107 10.451 8.68973 10.0738 8.68973 9.61906C8.68973 9.16436 9.02107 8.78709 9.45549 8.71552V10.5226ZM11.0541 27.2041C11.0541 27.7099 10.6442 28.1199 10.1384 28.1199C9.63258 28.1199 9.22261 27.7099 9.22261 27.2041C9.22261 26.6983 9.63258 26.2884 10.1384 26.2884C10.6442 26.2884 11.0541 26.6984 11.0541 27.2041ZM23.3104 9.08618C23.3104 9.54088 22.979 9.91815 22.5446 9.98972V8.18264C22.979 8.25422 23.3104 8.63153 23.3104 9.08618ZM21.4571 1.24297C22.4795 1.24608 23.3077 2.07445 23.3104 3.097C23.3116 3.5265 23.162 3.94036 22.8915 4.26822C22.3712 3.16047 21.5913 2.19444 20.6181 1.45227C20.8764 1.31744 21.1638 1.24522 21.4571 1.24297ZM10.8213 11.2177V8.50619C11.9658 8.32751 13.5332 8.00106 15.0169 7.41317C16.4688 6.83787 17.8604 6.0044 18.6869 4.79516C19.3366 5.93555 20.1797 6.95492 21.1789 7.80747V11.2177C21.1789 14.0779 18.8602 16.3965 16.0001 16.3965C13.1399 16.3965 10.8213 14.0779 10.8213 11.2177ZM19.4302 20.4267L16.0001 24.9985L12.57 20.4267H13.3357C13.7128 20.4267 14.0185 20.1209 14.0185 19.7438V17.4492C15.3065 17.8666 16.6936 17.8666 17.9816 17.4492V19.7438C17.9816 20.1209 18.2873 20.4267 18.6645 20.4267H19.4302Z" fill="#003E79" stroke="#003E79" stroke-width="0.3"/>
<path id="Vector_2" d="M12.8026 10.302C13.474 10.302 14.0183 9.75772 14.0183 9.08627C14.0183 8.41482 13.474 7.87051 12.8026 7.87051C12.1311 7.87051 11.5868 8.41482 11.5868 9.08627C11.5868 9.75772 12.1311 10.302 12.8026 10.302Z" fill="#003E79" stroke="#003E79" stroke-width="0.3"/>
<path id="Vector_3" d="M19.1971 10.302C19.8686 10.302 20.4129 9.75772 20.4129 9.08627C20.4129 8.41482 19.8686 7.87051 19.1971 7.87051C18.5257 7.87051 17.9813 8.41482 17.9813 9.08627C17.9813 9.75772 18.5257 10.302 19.1971 10.302Z" fill="#003E79" stroke="#003E79" stroke-width="0.3"/>
<path id="Vector_4" d="M15.5573 14.565C16.7048 14.569 17.8062 14.1137 18.616 13.3005L18.7216 13.1945L18.6158 13.0886L17.8591 12.3319L17.7527 12.2255L17.6466 12.3323C17.094 12.8886 16.342 13.2008 15.5579 13.1992H15.5576H14.9341H14.7841V13.3492V14.415V14.565H14.9341H15.5573ZM15.5573 14.565C15.5572 14.565 15.5571 14.565 15.557 14.565L15.5576 14.415M15.5573 14.565H15.5576V14.415M15.5576 14.415H15.0841H14.9341V14.265V13.4992V13.3492H15.0841H15.5576C16.3747 13.3509 17.1587 13.0284 17.738 12.453L17.753 12.438L17.8594 12.5437C17.8593 12.5438 17.8592 12.5439 17.8591 12.5441L18.5097 13.1947C18.5056 13.1988 18.5016 13.2028 18.4975 13.2069L18.4036 13.3007L18.4019 13.299C17.6319 14.0183 16.615 14.4187 15.5576 14.415Z" fill="#003E79" stroke="#003E79" stroke-width="0.3"/>
<path id="Vector_5" d="M16.5328 12.4335H16.6828V12.2835V11.2177V11.0677H16.5328H15.8851L16.6746 8.77265L16.7237 8.6299L16.5807 8.5817L15.5682 8.24066L15.4256 8.19263L15.378 8.33538L14.3122 11.5327L14.3121 11.5331C14.2435 11.7412 14.2789 11.9696 14.4072 12.1471C14.5275 12.3163 14.7184 12.4217 14.9258 12.4333L14.9258 12.4335H14.9341H16.5328Z" fill="#003E79" stroke="#003E79" stroke-width="0.3"/>
</g>
</g>
</g>
</g>
<defs>
<clipPath id="clip0_12816_1391">
<rect width="32" height="32" fill="white"/>
</clipPath>
</defs>
</svg>
