<svg width="57" height="57" viewBox="0 0 57 57" fill="none" xmlns="http://www.w3.org/2000/svg">
<path d="M28.1536 0C12.609 0 0 12.6018 0 28.1536C0 43.6982 12.6018 56.3072 28.1536 56.3072C43.6982 56.3072 56.3072 43.7054 56.3072 28.1536C56.3072 12.609 43.7054 0 28.1536 0Z" fill="white"/>
<g clip-path="url(#clip0_12816_1345)">
<path d="M43.7815 27.7028C43.7098 27.6052 41.9927 25.2875 39.1963 22.9359C37.5481 21.5499 35.8676 20.4442 34.2015 19.6496C32.099 18.6466 30.0125 18.1382 28 18.1382C25.9876 18.1382 23.901 18.6466 21.7985 19.6495C20.1325 20.4442 18.452 21.5499 16.8038 22.9359C14.0073 25.2874 12.2903 27.6051 12.2186 27.7027L12 27.9998L12.2186 28.2969C12.2903 28.3945 14.0073 30.7121 16.8038 33.0637C18.452 34.4497 20.1325 35.5555 21.7985 36.3501C23.9011 37.353 25.9876 37.8615 28 37.8615C30.0125 37.8615 32.099 37.353 34.2015 36.3501C35.8676 35.5554 37.5481 34.4497 39.1963 33.0637C41.9927 30.7121 43.7098 28.3945 43.7815 28.2969L44.0001 27.9998L43.7815 27.7028ZM38.5334 32.3108C36.0622 34.3855 32.2288 36.8587 28.0001 36.8587C23.7714 36.8587 19.9379 34.3855 17.4667 32.3108C15.3273 30.5147 13.8091 28.697 13.2563 27.9998C13.8093 27.3025 15.3274 25.4848 17.4667 23.6888C19.938 21.6142 23.7713 19.141 28 19.141C32.2287 19.141 36.0622 21.6141 38.5334 23.6888C40.6727 25.4848 42.1907 27.3025 42.7437 27.9998C42.1908 28.6972 40.6727 30.5149 38.5334 32.3108Z" fill="#003E79"/>
<path d="M28.0003 20.8125C24.0372 20.8125 20.813 24.0368 20.813 27.9998C20.813 31.9629 24.0372 35.1872 28.0003 35.1872C31.9634 35.1872 35.1876 31.9629 35.1876 27.9998C35.1876 24.0368 31.9633 20.8125 28.0003 20.8125ZM28.0003 34.1843C24.5902 34.1843 21.8159 31.41 21.8159 27.9998C21.8159 24.5897 24.5902 21.8154 28.0003 21.8154C31.4104 21.8154 34.1848 24.5897 34.1848 27.9998C34.1848 31.41 31.4104 34.1843 28.0003 34.1843Z" fill="#003E79"/>
<path d="M28 24.8242C26.2489 24.8242 24.8242 26.2489 24.8242 28C24.8242 29.7512 26.2489 31.1759 28 31.1759C29.7512 31.1759 31.1759 29.7512 31.1759 28C31.1759 26.2489 29.7511 24.8242 28 24.8242ZM28 30.1729C26.8019 30.1729 25.8271 29.1982 25.8271 28C25.8271 26.8018 26.8019 25.827 28 25.827C29.1982 25.827 30.173 26.8018 30.173 28C30.1729 29.1982 29.1981 30.1729 28 30.1729Z" fill="#003E79"/>
<path d="M24.6407 29.499L22.8096 30.3175C22.9711 30.6789 23.1715 31.0247 23.4052 31.3452L25.0259 30.1635C24.8747 29.9561 24.745 29.7325 24.6407 29.499Z" fill="#003E79"/>
<path d="M26.1638 31.187L25.1606 32.924C25.5046 33.1226 25.87 33.2852 26.2469 33.4073L26.8651 31.4992C26.622 31.4203 26.386 31.3154 26.1638 31.187Z" fill="#003E79"/>
<path d="M22.4385 26.8257C22.3578 27.2095 22.3169 27.6044 22.3169 27.9998L22.3171 28.0199L23.272 28.0049H24.3226V27.9927C24.3231 27.7383 24.3496 27.4845 24.4013 27.2384L22.4385 26.8257Z" fill="#003E79"/>
<path d="M27.3981 22.3486C27.0031 22.3902 26.6119 22.4736 26.2354 22.5966L26.8579 24.5034C27.1006 24.424 27.3532 24.3703 27.6083 24.3433L27.3981 22.3486Z" fill="#003E79"/>
<path d="M29.7471 22.5908L29.1309 24.4996C29.3742 24.5781 29.6103 24.6829 29.8327 24.811L30.8338 23.0729C30.4897 22.8747 30.124 22.7125 29.7471 22.5908Z" fill="#003E79"/>
<path d="M24.1911 23.7822C23.8973 24.0477 23.6304 24.3447 23.3979 24.665L25.0211 25.8432C25.172 25.6354 25.3451 25.4429 25.5357 25.2707L24.1911 23.7822Z" fill="#003E79"/>
<path d="M29.1386 31.498C28.8954 31.577 28.6428 31.6305 28.3877 31.6572L28.5958 33.6522C28.9908 33.611 29.3819 33.528 29.7587 33.4056L29.1386 31.498Z" fill="#003E79"/>
<path d="M31.6772 27.9897V28.0002C31.6772 28.2583 31.6505 28.5159 31.5977 28.7655L33.5601 29.1804C33.6417 28.7946 33.683 28.3974 33.683 28.0002V27.9897H31.6772Z" fill="#003E79"/>
<path d="M32.5912 24.6499L30.9717 25.8332C31.1232 26.0405 31.2532 26.264 31.3577 26.4973L33.188 25.6769C33.0261 25.3158 32.8254 24.9703 32.5912 24.6499Z" fill="#003E79"/>
<path d="M30.9761 30.1602C30.8252 30.3676 30.6519 30.5601 30.4609 30.7322L31.8041 32.2219C32.0982 31.9567 32.3653 31.66 32.5981 31.3401L30.9761 30.1602Z" fill="#003E79"/>
<path d="M33.5836 42.8761L30.391 39.0449L29.6206 39.687L33.1139 43.879H43.3776V42.8761H33.5836Z" fill="#003E79"/>
<path d="M21.549 12.1211H12.6226V13.124H21.0794L24.272 16.9551L25.0423 16.313L21.549 12.1211Z" fill="#003E79"/>
<path d="M16.6341 16.6338H12.6226V17.6367H16.6341V16.6338Z" fill="#003E79"/>
<path d="M16.6341 18.6396H12.6226V19.6425H16.6341V18.6396Z" fill="#003E79"/>
<path d="M16.6341 14.6279H12.6226V15.6308H16.6341V14.6279Z" fill="#003E79"/>
<path d="M16.6341 20.6455H12.6226V21.6484H16.6341V20.6455Z" fill="#003E79"/>
<path d="M39.0317 40.2017H38.0288V41.2045H39.0317V40.2017Z" fill="#003E79"/>
<path d="M41.0375 40.2017H40.0347V41.2045H41.0375V40.2017Z" fill="#003E79"/>
<path d="M43.0434 40.2017H42.0405V41.2045H43.0434V40.2017Z" fill="#003E79"/>
<path d="M40.7034 27.4985H36.6919V28.5014H40.7034V27.4985Z" fill="#003E79"/>
<path d="M19.3084 27.4985H15.2969V28.5014H19.3084V27.4985Z" fill="#003E79"/>
<path d="M28.5014 27.4985H27.4985V28.5014H28.5014V27.4985Z" fill="#003E79"/>
<path d="M39.3662 12.1211H38.3633V13.124H39.3662V12.1211Z" fill="#003E79"/>
<path d="M41.3715 12.1211H40.3687V13.124H41.3715V12.1211Z" fill="#003E79"/>
<path d="M43.3774 12.1211H42.3745V13.124H43.3774V12.1211Z" fill="#003E79"/>
<path d="M39.3662 14.127H38.3633V15.1298H39.3662V14.127Z" fill="#003E79"/>
<path d="M43.3774 14.127H42.3745V15.1298H43.3774V14.127Z" fill="#003E79"/>
<path d="M41.3715 14.127H40.3687V15.1298H41.3715V14.127Z" fill="#003E79"/>
<path d="M37.3603 14.127H36.3574V15.1298H37.3603V14.127Z" fill="#003E79"/>
<path d="M43.3774 16.1328H42.3745V17.1357H43.3774V16.1328Z" fill="#003E79"/>
<path d="M37.3603 16.1328H36.3574V17.1357H37.3603V16.1328Z" fill="#003E79"/>
<path d="M35.3544 16.1328H34.3516V17.1357H35.3544V16.1328Z" fill="#003E79"/>
<path d="M41.3715 16.1328H40.3687V17.1357H41.3715V16.1328Z" fill="#003E79"/>
<path d="M39.3662 16.1328H38.3633V17.1357H39.3662V16.1328Z" fill="#003E79"/>
<path d="M15.4641 40.5359V38.6973H14.4612V40.5359H12.6226V41.5388H14.4612V43.3774H15.4641V41.5388H17.3027V40.5359H15.4641Z" fill="#003E79"/>
<path d="M22.6513 38.8643H17.9712V39.8671H22.6513V38.8643Z" fill="#003E79"/>
</g>
<defs>
<clipPath id="clip0_12816_1345">
<rect width="32" height="32" fill="white" transform="translate(12 12)"/>
</clipPath>
</defs>
</svg>
