<svg width="17" height="20" viewBox="0 0 17 20" fill="none" xmlns="http://www.w3.org/2000/svg">
<path d="M15.0001 8.48487C15.0001 13.7879 8.18195 18.3334 8.18195 18.3334C8.18195 18.3334 1.36377 13.7879 1.36377 8.48487C1.36377 6.67657 2.08211 4.94234 3.36077 3.66369C4.63943 2.38503 6.37366 1.66669 8.18195 1.66669C9.99025 1.66669 11.7245 2.38503 13.0031 3.66369C14.2818 4.94234 15.0001 6.67657 15.0001 8.48487Z" stroke="#1E1E1E" stroke-width="2" stroke-linecap="round" stroke-linejoin="round"/>
<path d="M8.18191 10.7576C9.4371 10.7576 10.4546 9.74002 10.4546 8.48482C10.4546 7.22963 9.4371 6.2121 8.18191 6.2121C6.92671 6.2121 5.90918 7.22963 5.90918 8.48482C5.90918 9.74002 6.92671 10.7576 8.18191 10.7576Z" stroke="#1E1E1E" stroke-width="2" stroke-linecap="round" stroke-linejoin="round"/>
</svg>
