<svg width="32" height="32" viewBox="0 0 32 32" fill="none" xmlns="http://www.w3.org/2000/svg">
<g id="coconut-tree_708421 1" clip-path="url(#clip0_13186_76)">
<g id="Group">
<g id="Group_2">
<path id="Vector" d="M21.3929 24.5873C19.6715 24.138 17.8892 23.9069 16.0939 23.8991C16.3017 23.5234 16.4205 23.0918 16.4205 22.6329C16.4205 21.1855 15.2429 20.0079 13.7955 20.0079C12.3482 20.0079 11.1706 21.1855 11.1706 22.6329C11.1706 23.2733 11.4014 23.8606 11.7839 24.3168C11.1024 24.4536 10.4276 24.6233 9.76171 24.8268C9.68702 24.8502 8.32971 25.2781 7.15958 25.7977C7.39402 22.6521 8.08789 19.5327 9.20921 16.5839C9.56864 17.4176 10.3983 18.0027 11.3622 18.0027C12.6544 18.0027 13.7058 16.9514 13.7058 15.6591V15.659C13.7655 15.6635 13.8256 15.6666 13.8865 15.6666C14.0558 15.6666 14.2208 15.6481 14.38 15.6139L16.5615 17.7954C16.681 17.9148 16.8407 17.9784 17.0035 17.9784C17.0802 17.9784 17.1575 17.9643 17.2315 17.9353C17.4628 17.8447 17.6185 17.6256 17.628 17.3772C17.7117 15.1832 17.0158 13.1761 15.7185 11.8642C15.4892 11.5767 15.194 11.3445 14.8557 11.1902H19.8133C20.0618 11.1902 20.2866 11.043 20.386 10.8153C20.4855 10.5876 20.4406 10.3227 20.2717 10.1404C18.9197 8.68122 17.0043 7.84435 15.0167 7.84435C14.5749 7.84435 14.1368 7.88591 13.7077 7.96622L17.4502 4.22371C17.6259 4.04803 17.6808 3.7849 17.5902 3.55359C17.4995 3.32228 17.2803 3.16665 17.0321 3.15721C15.0448 3.08159 13.0982 3.84403 11.6926 5.24953C11.3768 5.56534 11.0936 5.90872 10.845 6.27353V0.625395C10.845 0.376895 10.6978 0.152082 10.4701 0.0526439C10.2425 -0.0468562 9.97746 -0.00191866 9.79515 0.166957C8.40039 1.45933 7.49914 3.65809 7.49914 5.76872C7.49914 6.18934 7.53702 6.60672 7.60995 7.01622C7.20608 6.76591 6.77608 6.55441 6.32495 6.38784C4.46039 5.69934 2.37369 5.82103 0.599878 6.72159C0.378378 6.83409 0.24444 7.06709 0.258877 7.31516C0.273252 7.56322 0.433253 7.77916 0.666316 7.86522L5.11326 9.5071C4.85882 9.57029 4.60695 9.64729 4.35914 9.73904C2.49513 10.4292 0.989441 11.879 0.228252 13.7169C0.13319 13.9464 0.183065 14.2105 0.355378 14.3895C0.47519 14.514 0.638628 14.581 0.805566 14.581C0.878316 14.581 0.951754 14.5682 1.02244 14.542L7.53777 12.1297C6.10839 14.3479 4.9772 16.7399 4.17032 19.2596C3.21782 22.2343 2.73488 25.3263 2.73488 28.4498V28.6408C2.73488 28.9859 3.0147 29.2658 3.35988 29.2658C3.70507 29.2658 3.98488 28.9859 3.98488 28.6408V28.4498C3.98488 27.351 4.04695 26.2608 4.16826 25.1822H5.95614C5.90751 25.7212 5.87133 26.2611 5.84883 26.8013C5.84795 26.8137 5.84764 26.8261 5.84751 26.8386C5.82933 27.2869 5.81976 27.7355 5.81976 28.1838V28.5621C5.81976 28.9073 6.09958 29.1871 6.44476 29.1871C6.78995 29.1871 7.06977 28.9073 7.06977 28.5621V28.1838C7.06977 27.8619 7.07502 27.5398 7.08477 27.2178C8.21758 26.6241 10.1143 26.0261 10.1312 26.0207C11.3737 25.6409 12.651 25.3848 13.9472 25.2529C14.0188 25.2488 14.0894 25.2416 14.1593 25.2319C14.7694 25.1763 15.3834 25.1483 16 25.1483C17.7205 25.1483 19.4289 25.3664 21.0772 25.7966C21.4112 25.8837 21.7526 25.6836 21.8398 25.3497C21.9269 25.0159 21.7269 24.6744 21.3929 24.5873ZM8.64852 14.6512L7.7177 14.2442C7.93058 13.8684 8.15158 13.4963 8.38202 13.1287C8.50771 13.4527 8.70333 13.7418 8.95039 13.9777C8.84708 14.201 8.74696 14.4257 8.64852 14.6512ZM11.362 16.7527C10.759 16.7527 10.2684 16.262 10.2684 15.659C10.2684 15.056 10.759 14.5654 11.362 14.5654C11.965 14.5654 12.4557 15.056 12.4557 15.659C12.4555 16.262 11.965 16.7527 11.362 16.7527ZM12.6392 11.1902H12.917C12.841 11.2248 12.7673 11.2632 12.696 11.3054C12.678 11.2665 12.6592 11.228 12.6392 11.1902ZM15.9275 14.4721C16.0833 14.8702 16.2012 15.2967 16.278 15.7444L15.5275 14.9938C15.684 14.84 15.8188 14.6645 15.9275 14.4721ZM14.9798 13.3231C14.9798 13.9261 14.4892 14.4167 13.8862 14.4167C13.2832 14.4167 12.7925 13.9261 12.7925 13.3231C12.7925 12.7201 13.2832 12.2295 13.8862 12.2295C14.4892 12.2295 14.9798 12.7201 14.9798 13.3231ZM15.0163 9.09441C16.0952 9.09441 17.1484 9.39316 18.0605 9.94029H11.9721C12.8843 9.39322 13.9375 9.09441 15.0163 9.09441ZM12.5762 6.13341C13.3392 5.37047 14.2949 4.83709 15.3268 4.57903L11.0218 8.8841C11.2799 7.85235 11.8133 6.89634 12.5762 6.13341ZM10.5673 11.1902C11.1703 11.1902 11.6609 11.6808 11.6609 12.2838C11.6609 12.8868 11.1703 13.3774 10.5673 13.3774C9.96427 13.3774 9.47365 12.8868 9.47365 12.2838C9.47365 11.6808 9.96427 11.1902 10.5673 11.1902ZM9.59477 2.47477V8.81272C9.04771 7.9006 8.74889 6.84747 8.74889 5.76859C8.74889 4.63903 9.06564 3.45509 9.59477 2.47477ZM2.74301 7.29947C3.78813 7.10209 4.87964 7.18666 5.89176 7.56035C6.90383 7.93403 7.78833 8.5791 8.45446 9.40822L2.74301 7.29947ZM2.23188 12.7614C2.89726 11.9315 3.7812 11.2857 4.79295 10.9111C5.45395 10.6664 6.14858 10.5451 6.84245 10.5451C7.21083 10.5451 7.57889 10.5793 7.94139 10.6474L2.23188 12.7614ZM7.12314 15.3485L8.16989 15.8062C7.99214 16.2594 7.82427 16.7165 7.66608 17.1771L6.45901 16.7405C6.66764 16.2714 6.88902 15.8072 7.12314 15.3485ZM6.09158 23.9323H4.33595C4.4762 23.0386 4.65814 22.1544 4.88101 21.2818L6.47451 21.5891C6.3197 22.3656 6.19189 23.1474 6.09158 23.9323ZM6.74195 20.3677L5.21839 20.0739C5.4412 19.3378 5.69401 18.6111 5.9757 17.8948L7.28139 18.3671C7.0812 19.0281 6.90164 19.6955 6.74195 20.3677ZM14.0179 23.9896C13.9627 23.9948 13.9076 24.0009 13.8525 24.0064C13.8335 24.0072 13.8145 24.0079 13.7953 24.0079C13.0372 24.0079 12.4204 23.3911 12.4204 22.6329C12.4204 21.8747 13.0372 21.258 13.7953 21.258C14.5535 21.258 15.1703 21.8748 15.1703 22.6329C15.1703 23.3153 14.6705 23.8829 14.0179 23.9896Z" fill="#001529"/>
</g>
</g>
<g id="Group_3">
<g id="Group_4">
<path id="Vector_2" d="M26.5312 2.90662C25.1183 2.90662 23.9688 4.05618 23.9688 5.46906C23.9688 6.88194 25.1183 8.0315 26.5312 8.0315C27.9441 8.0315 29.0936 6.88194 29.0936 5.46906C29.0936 4.05612 27.9441 2.90662 26.5312 2.90662ZM26.5312 6.7815C25.8074 6.7815 25.2188 6.19275 25.2188 5.469C25.2188 4.74524 25.8075 4.15656 26.5312 4.15656C27.2549 4.15656 27.8437 4.74531 27.8437 5.469C27.8437 6.19268 27.2549 6.7815 26.5312 6.7815Z" fill="#001529"/>
</g>
</g>
<g id="Group_5">
<g id="Group_6">
<path id="Vector_3" d="M31.375 4.84412H30.5C30.1548 4.84412 29.875 5.12393 29.875 5.46912C29.875 5.81431 30.1548 6.09412 30.5 6.09412H31.375C31.7202 6.09412 32 5.81431 32 5.46912C31.9999 5.12393 31.7202 4.84412 31.375 4.84412Z" fill="#001529"/>
</g>
</g>
<g id="Group_7">
<g id="Group_8">
<path id="Vector_4" d="M22.5625 4.84412H21.6875C21.3423 4.84412 21.0625 5.12393 21.0625 5.46912C21.0625 5.81431 21.3423 6.09412 21.6875 6.09412H22.5625C22.9077 6.09412 23.1875 5.81431 23.1875 5.46912C23.1875 5.12393 22.9077 4.84412 22.5625 4.84412Z" fill="#001529"/>
</g>
</g>
<g id="Group_9">
<g id="Group_10">
<path id="Vector_5" d="M26.5313 8.81274C26.1861 8.81274 25.9062 9.09256 25.9062 9.43775V10.3127C25.9062 10.6579 26.1861 10.9377 26.5313 10.9377C26.8764 10.9377 27.1563 10.6579 27.1563 10.3127V9.43775C27.1562 9.09256 26.8764 8.81274 26.5313 8.81274Z" fill="#001529"/>
</g>
</g>
<g id="Group_11">
<g id="Group_12">
<path id="Vector_6" d="M26.5313 0.000488281C26.1861 0.000488281 25.9062 0.280301 25.9062 0.62549V1.50049C25.9062 1.84568 26.1861 2.12549 26.5313 2.12549C26.8764 2.12549 27.1563 1.84568 27.1563 1.50049V0.62549C27.1562 0.280301 26.8764 0.000488281 26.5313 0.000488281Z" fill="#001529"/>
</g>
</g>
<g id="Group_13">
<g id="Group_14">
<path id="Vector_7" d="M30.3986 8.452L29.7799 7.83332C29.5358 7.58925 29.1401 7.58925 28.896 7.83332C28.6518 8.07738 28.6519 8.47313 28.896 8.71725L29.5147 9.33594C29.6368 9.45801 29.7967 9.51901 29.9566 9.51901C30.1166 9.51901 30.2766 9.45801 30.3986 9.33594C30.6427 9.09188 30.6427 8.69613 30.3986 8.452Z" fill="#001529"/>
</g>
</g>
<g id="Group_15">
<g id="Group_16">
<path id="Vector_8" d="M24.1671 2.2208L23.5485 1.60211C23.3044 1.35805 22.9086 1.35805 22.6645 1.60211C22.4204 1.84618 22.4205 2.24193 22.6645 2.48605L23.2833 3.10474C23.4053 3.22681 23.5653 3.28781 23.7252 3.28781C23.8851 3.28781 24.0451 3.22681 24.1671 3.10474C24.4112 2.86068 24.4112 2.46493 24.1671 2.2208Z" fill="#001529"/>
</g>
</g>
<g id="Group_17">
<g id="Group_18">
<path id="Vector_9" d="M24.1671 7.83334C23.9231 7.58921 23.5273 7.58928 23.2832 7.83334L22.6645 8.45203C22.4204 8.69609 22.4204 9.09184 22.6645 9.33597C22.7866 9.45803 22.9465 9.51903 23.1064 9.51903C23.2664 9.51903 23.4264 9.45797 23.5484 9.33597L24.1671 8.71728C24.4111 8.47315 24.4111 8.07746 24.1671 7.83334Z" fill="#001529"/>
</g>
</g>
<g id="Group_19">
<g id="Group_20">
<path id="Vector_10" d="M30.3986 1.60202C30.1545 1.35789 29.7588 1.35795 29.5146 1.60202L28.8959 2.2207C28.6519 2.46477 28.6519 2.86052 28.8959 3.10464C29.0181 3.22671 29.178 3.28771 29.3379 3.28771C29.4979 3.28771 29.6579 3.22671 29.7799 3.10464L30.3986 2.48596C30.6426 2.24189 30.6426 1.84614 30.3986 1.60202Z" fill="#001529"/>
</g>
</g>
<g id="Group_21">
<g id="Group_22">
<path id="Vector_11" d="M24.1707 25.5223L24.1344 25.5072C23.8153 25.3755 23.4498 25.5272 23.318 25.8462C23.1862 26.1652 23.338 26.5307 23.657 26.6625L23.6923 26.677C23.7705 26.7095 23.8515 26.7248 23.9313 26.7248C24.1765 26.7248 24.4092 26.5795 24.5089 26.3389C24.641 26.0199 24.4895 25.6544 24.1707 25.5223Z" fill="#001529"/>
</g>
</g>
<g id="Group_23">
<g id="Group_24">
<path id="Vector_12" d="M31.8388 30.9564C30.3739 29.3287 28.6766 27.9412 26.794 26.8325C26.4966 26.6572 26.1135 26.7564 25.9383 27.0538C25.7631 27.3512 25.8623 27.7344 26.1597 27.9095C27.5154 28.708 28.7692 29.6601 29.9011 30.7496H2.02715C2.13059 30.5259 2.09547 30.2523 1.91709 30.0609C1.68178 29.8085 1.28634 29.7944 1.03378 30.0297C0.694214 30.3462 0.598026 30.457 0.423464 30.6581C0.356776 30.735 0.276338 30.8277 0.160463 30.9565C-0.00466227 31.14 -0.0463499 31.4034 0.0540878 31.6289C0.154463 31.8543 0.378213 31.9996 0.625026 31.9996H31.3743C31.6212 31.9996 31.8448 31.8544 31.9453 31.6289C32.0457 31.4034 32.004 31.1399 31.8388 30.9564Z" fill="#001529"/>
</g>
</g>
<g id="Group_25">
<g id="Group_26">
<path id="Vector_13" d="M29.3427 13.1803C28.7833 12.1699 27.7035 11.5168 26.5317 11.5168C25.3598 11.5168 24.28 12.17 23.7206 13.1803C22.2488 13.2685 21.0781 14.4995 21.0781 16.0001C21.0781 16.3452 21.3579 16.6251 21.7031 16.6251H31.3601C31.7053 16.6251 31.9851 16.3452 31.9851 16.0001C31.9851 14.4994 30.8146 13.2683 29.3427 13.1803ZM22.4564 15.3752C22.6966 14.8168 23.2486 14.4252 23.8896 14.4252C23.941 14.4252 23.9956 14.4281 24.052 14.4338C24.3331 14.462 24.5984 14.2983 24.6989 14.0341C24.9872 13.2761 25.7238 12.7668 26.5317 12.7668C27.3396 12.7668 28.0761 13.2762 28.3645 14.0342C28.4649 14.2984 28.7303 14.462 29.0113 14.4339C29.0676 14.4282 29.1223 14.4253 29.1739 14.4253C29.8148 14.4253 30.3666 14.8168 30.607 15.3752H22.4564Z" fill="#001529"/>
</g>
</g>
<g id="Group_27">
<g id="Group_28">
<path id="Vector_14" d="M27.0393 18.1249H18.9063C18.5611 18.1249 18.2812 18.4048 18.2812 18.7499C18.2812 19.095 18.5611 19.3749 18.9063 19.3749H27.0393C27.3845 19.3749 27.6643 19.095 27.6643 18.7499C27.6643 18.4048 27.3845 18.1249 27.0393 18.1249Z" fill="#001529"/>
</g>
</g>
<g id="Group_29">
<g id="Group_30">
<path id="Vector_15" d="M23.146 21.058C23.0297 20.9411 22.8691 20.8749 22.7041 20.8749C22.5397 20.8749 22.3785 20.9411 22.2622 21.058C22.146 21.1743 22.0791 21.3349 22.0791 21.4999C22.0791 21.6643 22.146 21.8255 22.2622 21.9417C22.3785 22.0579 22.5397 22.1249 22.7041 22.1249C22.8691 22.1249 23.0297 22.058 23.146 21.9417C23.2629 21.8255 23.3291 21.6643 23.3291 21.4999C23.3292 21.3349 23.2629 21.1743 23.146 21.058Z" fill="#001529"/>
</g>
</g>
<g id="Group_31">
<g id="Group_32">
<path id="Vector_16" d="M31.3749 20.8748H25.4375C25.0923 20.8748 24.8125 21.1546 24.8125 21.4998C24.8125 21.8449 25.0923 22.1248 25.4375 22.1248H31.3749C31.7201 22.1248 31.9999 21.8449 31.9999 21.4998C31.9998 21.1546 31.7201 20.8748 31.3749 20.8748Z" fill="#001529"/>
</g>
</g>
</g>
<defs>
<clipPath id="clip0_13186_76">
<rect width="32" height="32" fill="white"/>
</clipPath>
</defs>
</svg>
