<svg width="66" height="66" viewBox="0 0 66 66" fill="none" xmlns="http://www.w3.org/2000/svg">
<circle cx="33" cy="33" r="33" fill="#D1E8FE"/>
<g clip-path="url(#clip0_13009_1126)">
<path d="M45.8866 40.1163C45.5389 39.8991 45.0812 40.005 44.864 40.3529L44.7631 40.5143C43.9108 41.879 42.7566 43.0204 41.3934 43.8574C41.127 43.9806 40.829 43.9963 40.5501 43.8991C40.2613 43.7988 40.0305 43.5909 39.9001 43.3144C39.7192 42.9302 39.7673 42.4823 40.0262 42.1454L41.3781 40.3853C43.4371 37.7048 46.1208 35.484 49.1391 33.9631L51.5915 32.7275C51.9577 32.5431 52.105 32.0969 51.9206 31.7307C51.7362 31.3649 51.2897 31.2176 50.9236 31.402L48.4712 32.6373C47.7626 32.9945 47.0714 33.3876 46.4009 33.8144C46.0173 30.7528 44.6034 27.9276 42.3513 25.7666C40.0036 23.5136 36.9702 22.2017 33.7422 22.0269V20.4289H34.5238C36.8246 20.4289 38.6963 18.5572 38.6963 16.2567V14.7422C38.6963 14.3322 38.3638 14 37.9541 14H36.4396C35.0135 14 33.753 14.7196 33 15.8143C32.2471 14.7196 30.9866 14 29.5605 14H28.0459C27.6363 14 27.3038 14.3322 27.3038 14.7422V16.2567C27.3038 18.5572 29.1755 20.4289 31.4762 20.4289H32.2579V22.0269C25.7336 22.38 20.4058 27.3599 19.5984 33.8138C18.9278 33.3873 18.2369 32.9942 17.5289 32.6373L15.0765 31.402C14.7101 31.2173 14.2642 31.3649 14.0795 31.7307C13.8951 32.0969 14.0424 32.5431 14.4085 32.7275L16.861 33.9631C19.8793 35.484 22.563 37.7048 24.622 40.3853L25.9742 42.1454C26.2328 42.4823 26.2809 42.9302 26.1 43.3144C25.9696 43.5909 25.7388 43.7988 25.45 43.8991C25.1711 43.9963 24.8734 43.9806 24.6067 43.8574C23.2435 43.0204 22.0893 41.879 21.237 40.5143L21.1364 40.3529C20.9192 40.005 20.4611 39.8991 20.1135 40.1163C19.7659 40.3334 19.6601 40.7912 19.8773 41.1388L19.9781 41.3006C20.952 42.8604 22.2714 44.1647 23.8294 45.1217C23.85 45.1356 23.8714 45.1487 23.8938 45.1608C24.1776 45.3328 24.4681 45.4945 24.767 45.6427L30.0844 48.2801C30.4865 48.4795 30.7364 48.8822 30.7364 49.331C30.7364 49.7259 30.5491 50.0796 30.2224 50.3014C29.8956 50.5231 29.4979 50.5669 29.1308 50.4214L24.2388 48.4816C21.0349 47.2114 18.3494 44.8521 16.6771 41.8381L15.3914 39.5208C15.1925 39.1625 14.7405 39.0332 14.3825 39.232C14.0238 39.4309 13.8945 39.8826 14.0934 40.241L15.3792 42.5583C17.2176 45.8714 20.1698 48.465 23.6917 49.8616L28.5837 51.8011C28.9006 51.9269 29.2329 51.9887 29.5637 51.9887C30.0884 51.9887 30.6094 51.833 31.0564 51.5292C31.7856 51.034 32.2208 50.2121 32.2208 49.331C32.2208 49.2182 32.2126 49.1072 32.199 48.9976C32.4657 49.013 32.7333 49.0214 33 49.0214C33.2668 49.0214 33.5344 49.013 33.8011 48.9973C33.7875 49.1069 33.7793 49.2182 33.7793 49.331C33.7793 50.2121 34.2145 51.034 34.9436 51.5292C35.3907 51.833 35.9117 51.9887 36.4364 51.9887C36.7672 51.9887 37.0998 51.9266 37.4164 51.8011L42.3084 49.8616C43.2782 49.4771 44.2155 48.9973 45.0948 48.436C45.4404 48.2154 45.5416 47.7565 45.3209 47.4109C45.1006 47.0659 44.6419 46.9644 44.2961 47.1848C43.4962 47.6956 42.6433 48.1319 41.7613 48.4816L36.8693 50.4214C36.5022 50.5669 36.1045 50.5231 35.7777 50.3014C35.451 50.0796 35.2637 49.7256 35.2637 49.331C35.2637 48.8819 35.5133 48.4792 35.9155 48.2801L41.2331 45.6427C41.5317 45.4945 41.8225 45.3328 42.1063 45.1608C42.1287 45.1487 42.1501 45.1356 42.1707 45.1217C43.7284 44.1647 45.0481 42.8604 46.022 41.3003L46.1228 41.1388C46.34 40.7912 46.2342 40.3334 45.8866 40.1163ZM40.201 39.4811L38.8488 41.2412C38.7436 41.3783 38.654 41.5241 38.5789 41.6749H34.9645C33.7533 41.6749 32.7675 40.6895 32.7675 39.4779C32.7675 38.5557 33.5175 37.8057 34.4398 37.8057C35.6015 37.8057 36.5466 36.8605 36.5466 35.6988C36.5466 34.082 37.862 32.7666 39.4785 32.7666H44.7095C44.8603 33.4172 44.9588 34.0883 45.0003 34.7763C43.1921 36.1134 41.5674 37.7022 40.201 39.4811ZM33.7518 18.1725C33.7518 16.6901 34.9576 15.4844 36.4396 15.4844H37.212V16.2567C37.212 17.7388 36.0062 18.9445 34.5238 18.9445H33.7518V18.1725ZM32.2486 18.9445H31.4762C29.9939 18.9445 28.7881 17.7388 28.7881 16.2567V15.4844H29.5605C31.0425 15.4844 32.2486 16.6901 32.2486 18.1725V18.9445ZM22.0809 30.467H25.4793C25.8893 30.467 26.2215 30.1347 26.2215 29.7248C26.2215 29.3149 25.8893 28.9826 25.4793 28.9826H22.8991C23.2388 28.4576 23.6189 27.9609 24.0344 27.4971H32.9383C33.655 27.4971 34.238 28.0801 34.238 28.7968V29.2435C34.238 29.9599 33.655 30.5429 32.9383 30.5429C31.4032 30.5429 30.1545 31.7919 30.1545 33.3267V33.4108C30.1545 34.1272 29.5715 34.7102 28.8548 34.7102H21.0039C21.1036 33.1997 21.4793 31.7693 22.0809 30.467ZM35.2562 46.9502C34.9979 47.0784 34.7685 47.2445 34.5708 47.4384C34.5534 47.4393 34.536 47.4402 34.5186 47.4422C33.5309 47.5669 32.5052 47.5683 31.5171 47.4468C31.4887 47.4431 31.4606 47.4416 31.4325 47.4413C31.2342 47.2462 31.0037 47.0789 30.7442 46.9502L26.6523 44.9208C26.9875 44.6689 27.2588 44.3378 27.4429 43.947C27.8619 43.0578 27.7502 42.0208 27.1513 41.2412L25.7991 39.4811C24.8882 38.2947 23.8619 37.1933 22.7431 36.1946H28.8548C30.3899 36.1946 31.6389 34.9456 31.6389 33.4105V33.3267C31.6389 32.6103 32.2216 32.0273 32.9383 32.0273C34.4734 32.0273 35.7224 30.7784 35.7224 29.2432V28.7965C35.7224 27.2617 34.4734 26.0127 32.9383 26.0127H25.6263C27.6659 24.4295 30.227 23.4904 33 23.4904C38.1524 23.4904 42.554 26.7071 44.263 31.2822H39.4785C37.0435 31.2822 35.0622 33.2632 35.0622 35.6985C35.0622 36.0418 34.783 36.321 34.4398 36.321C32.6991 36.321 31.2832 37.7372 31.2832 39.4776C31.2832 41.5076 32.9345 43.1593 34.9648 43.1593H38.329C38.3629 43.4274 38.438 43.6933 38.5575 43.9467C38.7416 44.3378 39.0126 44.6686 39.3478 44.9205L35.2562 46.9502Z" fill="#001529"/>
<path d="M46.5382 45.4317L46.5167 45.452C46.2199 45.7343 46.208 46.2043 46.4906 46.5012C46.6365 46.6545 46.8322 46.7319 47.0284 46.7319C47.2123 46.7319 47.3961 46.6641 47.5399 46.5273L47.5541 46.5136C47.853 46.2333 47.8678 45.7636 47.5871 45.4647C47.3065 45.1661 46.8371 45.1513 46.5382 45.4317Z" fill="#001529"/>
<path d="M51.6178 39.232C51.2592 39.0331 50.8075 39.1624 50.6086 39.5211L49.3228 41.8384C49.0564 42.3182 48.7604 42.7887 48.4426 43.2364C48.2055 43.5706 48.284 44.0339 48.6183 44.2711C48.7488 44.3636 48.8987 44.4082 49.0474 44.4082C49.2796 44.4082 49.5087 44.2992 49.6533 44.0954C50.0024 43.6031 50.328 43.0859 50.6208 42.5585L51.9066 40.2412C52.1054 39.8826 51.9761 39.4309 51.6178 39.232Z" fill="#001529"/>
<path d="M28.4482 30.4673C28.6434 30.4673 28.8347 30.3878 28.973 30.2498C29.111 30.1116 29.1904 29.9202 29.1904 29.7251C29.1904 29.5297 29.111 29.3383 28.973 29.1995C28.8347 29.0615 28.6434 28.9829 28.4482 28.9829C28.2528 28.9829 28.0615 29.0615 27.9235 29.1995C27.7846 29.3383 27.7061 29.5297 27.7061 29.7251C27.7061 29.9202 27.7846 30.1116 27.9235 30.2498C28.0615 30.3878 28.2528 30.4673 28.4482 30.4673Z" fill="#001529"/>
</g>
<defs>
<clipPath id="clip0_13009_1126">
<rect width="38" height="38" fill="white" transform="translate(14 14)"/>
</clipPath>
</defs>
</svg>
