<?xml version="1.0" encoding="UTF-8"?>
<svg xmlns="http://www.w3.org/2000/svg" xmlns:xlink="http://www.w3.org/1999/xlink" viewBox="0 0 133.77 99.33">
  <defs>
    <style>
      .cls-1 {
        fill: #fff;
      }

      .cls-2 {
        fill: url(#_Áåçûìÿííûé_ãðàäèåíò_486-2);
      }

      .cls-3 {
        fill: #dbdbdb;
      }

      .cls-4 {
        fill: #c361d4;
        opacity: .51;
      }

      .cls-4, .cls-5, .cls-6, .cls-7, .cls-8, .cls-9 {
        mix-blend-mode: multiply;
      }

      .cls-10 {
        isolation: isolate;
      }

      .cls-5 {
        fill: url(#_Áåçûìÿííûé_ãðàäèåíò_396);
      }

      .cls-5, .cls-9 {
        opacity: .28;
      }

      .cls-11 {
        fill: #8d8d8d;
      }

      .cls-12 {
        opacity: .55;
      }

      .cls-12, .cls-13, .cls-8 {
        fill: #13a0c0;
      }

      .cls-12, .cls-14, .cls-15 {
        mix-blend-mode: screen;
      }

      .cls-6 {
        opacity: .71;
      }

      .cls-6, .cls-16 {
        fill: #4f2e4b;
      }

      .cls-17 {
        fill: #631600;
      }

      .cls-18 {
        fill: url(#_Áåçûìÿííûé_ãðàäèåíò_486);
      }

      .cls-7 {
        fill: #909090;
        opacity: .46;
      }

      .cls-19 {
        fill: #ff4a00;
      }

      .cls-14 {
        fill: url(#_Áåçûìÿííûé_ãðàäèåíò_396-2);
      }

      .cls-14, .cls-15 {
        opacity: .25;
      }

      .cls-20 {
        fill: #006c9f;
      }

      .cls-8 {
        opacity: .48;
      }

      .cls-9 {
        fill: url(#_Áåçûìÿííûé_ãðàäèåíò_396-4);
      }

      .cls-21 {
        fill: url(#_Áåçûìÿííûé_ãðàäèåíò_491);
      }

      .cls-15 {
        fill: url(#_Áåçûìÿííûé_ãðàäèåíò_396-3);
      }
    </style>
    <radialGradient id="_Áåçûìÿííûé_ãðàäèåíò_491" data-name="Áåçûìÿííûé ãðàäèåíò 491" cx="70.23" cy="22.43" fx="70.23" fy="22.43" r="53.13" gradientUnits="userSpaceOnUse">
      <stop offset="0" stop-color="#ffc0e3"/>
      <stop offset=".77" stop-color="#ea7dc1"/>
      <stop offset="1" stop-color="#e468b7"/>
    </radialGradient>
    <radialGradient id="_Áåçûìÿííûé_ãðàäèåíò_396" data-name="Áåçûìÿííûé ãðàäèåíò 396" cx="68.31" cy="46.09" fx="68.31" fy="46.09" r="27.48" gradientUnits="userSpaceOnUse">
      <stop offset="0" stop-color="#ffbda6"/>
      <stop offset=".24" stop-color="#febaa6"/>
      <stop offset=".43" stop-color="#fbb0a6"/>
      <stop offset=".59" stop-color="#f6a0a7"/>
      <stop offset=".74" stop-color="#ee89a7"/>
      <stop offset=".88" stop-color="#e56ca8"/>
      <stop offset="1" stop-color="#dc4daa"/>
    </radialGradient>
    <radialGradient id="_Áåçûìÿííûé_ãðàäèåíò_396-2" data-name="Áåçûìÿííûé ãðàäèåíò 396" cx="61.17" cy="6.4" fx="61.17" fy="6.4" r="55.21" xlink:href="#_Áåçûìÿííûé_ãðàäèåíò_396"/>
    <radialGradient id="_Áåçûìÿííûé_ãðàäèåíò_396-3" data-name="Áåçûìÿííûé ãðàäèåíò 396" cx="61.17" cy="6.4" fx="61.17" fy="6.4" r="55.21" xlink:href="#_Áåçûìÿííûé_ãðàäèåíò_396"/>
    <radialGradient id="_Áåçûìÿííûé_ãðàäèåíò_396-4" data-name="Áåçûìÿííûé ãðàäèåíò 396" cx="71.09" cy="57.32" fx="71.09" fy="57.32" r="18.45" xlink:href="#_Áåçûìÿííûé_ãðàäèåíò_396"/>
    <linearGradient id="_Áåçûìÿííûé_ãðàäèåíò_486" data-name="Áåçûìÿííûé ãðàäèåíò 486" x1="92.42" y1="78.88" x2="94.31" y2="83.13" gradientTransform="translate(-26.31 -54.93) rotate(2.88)" gradientUnits="userSpaceOnUse">
      <stop offset="0" stop-color="#c361d4"/>
      <stop offset="1" stop-color="#6d1e56"/>
    </linearGradient>
    <linearGradient id="_Áåçûìÿííûé_ãðàäèåíò_486-2" data-name="Áåçûìÿííûé ãðàäèåíò 486" x1="100.89" y1="76.87" x2="102.78" y2="81.12" xlink:href="#_Áåçûìÿííûé_ãðàäèåíò_486"/>
  </defs>
  <g class="cls-10">
    <g id="Layer_2" data-name="Layer 2">
      <g id="Layer_1-2" data-name="Layer 1">
        <g>
          <g>
            <g>
              <path class="cls-21" d="M71.55,81.25l-5.96,.4c-5.64,.38-10.77-3.22-12.33-8.65-1.85-6.43-3.97-15.9-4.75-27.43-.76-11.17,0-20.23,.96-26.47,.84-5.55,5.44-9.77,11.04-10.15l6.11-.41c5.61-.38,10.74,3.19,12.31,8.59,1.83,6.27,3.89,15.48,4.66,26.78,.77,11.3-.04,20.7-1,27.16-.83,5.56-5.43,9.8-11.04,10.18Z"/>
              <path class="cls-5" d="M78.93,17.13c-.82-2.81-2.59-5.12-4.9-6.64,6.95,8.78,6.39,24.15,5.73,34.72-.55,8.89-1.09,21.07-8.72,27.05-2.47,1.94-5.79,3.01-8.92,2.89-3.14-.12-6.24-1.12-8.6-3.27-.28-.26-.55-.53-.8-.81,.18,.67,.36,1.32,.54,1.94,1.56,5.43,6.7,9.03,12.33,8.65l5.96-.4c5.61-.38,10.21-4.61,11.04-10.18,.96-6.46,1.77-15.87,1-27.16-.77-11.3-2.84-20.51-4.66-26.78Z"/>
              <path class="cls-14" d="M56.84,66.24c-1.73,1.6-3.6,2.42-4.44,.07-.93-2.62-1.33-5.2-1.79-7.93-.75-4.41-1.28-8.86-1.58-13.33-.74-10.88,0-19.71,.9-25.79,.81-5.41,5.23-9.51,10.62-9.88l5.89-.4c3.05-.21,7.17,.94,8.96,3.61,2.3,3.44-1.96,7.1-3.68,9.85-1.42,2.25-2.62,4.64-3.48,7.15-1.71,4.98-2.84,10.16-3.9,15.31-1.48,7.17-1.72,16.02-7.5,21.35Z"/>
              <path class="cls-15" d="M54.78,30.02c1.25-6.38,3.9-12.27,9.24-16.25,1.45-1.08,2.83-1.3,4.56-1.82,.74-.22,3.43-.86,2.65-2.15-.49-.81-3.36-.91-4.15-.86,0,0-6.12,.42-6.12,.42-5.6,.38-10.19,4.6-11.04,10.15-.95,6.24-1.72,15.3-.96,26.47,.27,3.9,.7,7.8,1.3,11.67,.09,.59,.72,3.16,1.53,3.29,1.04,.16,1.35-1.9,1.47-2.6,1.61-9.39-.33-18.91,1.51-28.3Z"/>
              <path class="cls-9" d="M81.82,40.87c-.08,3.41-.12,6.8-.24,10.21-.17,4.62-.61,9.3-1.91,13.76-.92,3.15-2.49,5.96-4.9,8.23-2.29,2.15-5.03,3.9-8.07,4.77-2.03,.58-3.95,.64-6.03,.53-1.05-.06-2.43,.08-.76,1.25,1.31,.92,3.72,.97,5.25,.87l5.83-.4c5.49-.37,9.99-4.51,10.8-9.96,.7-4.72,1.1-9.48,1.23-14.25,.2-7.2-.53-14.55-1.04-21.74,.14,2.07-.1,4.26-.15,6.34,0,.13,0,.26,0,.39Z"/>
            </g>
            <g>
              <path class="cls-16" d="M69.5,54.24l.04,.41c.05,.49-.04,.71-.3,.74l-3.26,.35,.31,2.85,3.11-.33c.27-.03,.4,.17,.45,.66l.04,.41c.05,.49-.04,.71-.3,.74l-3.11,.33,.48,4.48c.03,.29-.18,.48-.69,.53l-.34,.04c-.52,.06-.76-.08-.79-.37l-1.11-10.35c-.04-.41,.09-.6,.44-.64l4.58-.49c.27-.03,.4,.17,.45,.66Z"/>
              <path class="cls-16" d="M76.3,60.36c.02,.21-.31,.78-.47,.79l-3.38,.36c.22,1.29,.82,1.71,1.77,1.61,.88-.09,1.39-.65,1.53-.66,.23-.02,.63,.63,.66,.87,.06,.58-1.2,1.12-2.09,1.21-2.14,.23-3.26-1.04-3.51-3.41-.29-2.69,.72-3.97,2.51-4.16,1.83-.2,2.77,1.26,2.99,3.38Zm-3.99-.1l2.42-.26c-.11-1.06-.54-1.69-1.28-1.61-.71,.08-1.14,.62-1.13,1.87Z"/>
            </g>
          </g>
          <g>
            <path class="cls-13" d="M0,85.85H89.71c1.03,0,2.22,.15,3.23-.06,1.31-.27,2.43-1.3,3.81-1.35,1.61-.07,2.81,1.08,4.3,1.4,1.4,.3,3.12,0,4.58,0,1.07,0,3.8-.53,4.77,0,0,0,23.35,12.54,23.36,12.55-1.06-.57-4.01,0-5.17,0-1.8,0-3.67,.18-5.41-.25-1.58-.39-3.11-1.43-4.79-1.29-1.88,.16-3.47,1.37-5.34,1.54-1.4,.13-2.87,0-4.28,0H12.33L0,85.85Z"/>
            <path class="cls-20" d="M0,85.85v1.61l12.41,11.77H81.52c10.1,0,20.23,.17,30.32,.06,2.74-.03,5.28-2.1,8.05-1.58,1.35,.25,2.65,.8,3.95,1.23,1.21,.4,2.25,.4,3.53,.29,2.1-.19,4.3,0,6.4,0v-.83h-5.29c-1.88,0-3.56,.14-5.34-.48-1.54-.53-3.38-1.32-5.03-1.07-1.39,.21-2.63,.95-3.97,1.34-1.25,.36-2.45,.21-3.73,.21H12.33L0,85.85Z"/>
            <path class="cls-12" d="M10.2,85.85H0l12.33,12.55H107.89c1.33,0,2.67,.06,4,0,2.52-.12,5.07-1.93,7.57-1.55,2.3,.35,4.65,1.86,6.98,1.81,2.41-.05,4.88-.26,7.33-.26l-23.36-12.55c.56,.32,1.12,.65,1.68,.97,2.3,1.34,4.59,2.7,6.86,4.1,1.85,1.14,4.74,2.38,6.13,4.09,2.14,2.63-3.91,.94-5.12,.44-2.06-.85-3.92-2.11-5.85-3.22-.99-.57-1.99-1.14-3.04-1.58-.47-.2-2.46-.52-2.69-.84,1.17,1.62,3.7,2.35,4.6,4.33,1.58,3.47-4.1,2.59-5.93,2.65-2.65,.08-5.31,.15-7.96,.22-6.04,.15-12.08,.29-18.12,.4-15.04,.29-30.09,.52-45.14,.51-5.31,0-10.63-.01-15.93-.19-.98-.03-5.87,.39-6.52-.62-1.34-2.06-8.69-9.02-7.83-9.65s4.66-1.61,4.66-1.61Z"/>
            <path class="cls-8" d="M103.4,90.06c0,1.54-19.94,2.78-44.53,2.78s-44.54-1.25-44.54-2.78,19.94-2.78,44.54-2.78,44.53,1.24,44.53,2.78Z"/>
            <path class="cls-12" d="M19.33,95.48c-.65-.33-1.39-.56-2.13-.6-.79-.04-1.52-.13-2.16,.39-.1,.08-.18,.26-.14,.39,.58,1.84,3.41,1.65,4.54,.47,.21-.22,.15-.51-.11-.65Z"/>
            <path class="cls-12" d="M22.77,96.31c-.26-.22-.57-.26-.94-.23-.39,.03-.75,.17-1,.49-.11,.15-.06,.38,.08,.48,.33,.23,.73,.24,1.11,.15,.2-.05,.36-.11,.52-.24,.05-.06,.06-.07,.02-.02,.03-.02,.06-.04,.09-.06,.07-.05,.13-.13,.18-.2,.08-.13,.05-.26-.06-.36Z"/>
            <path class="cls-8" d="M101.1,93.11c-1.3-.38-2.57-.42-3.92-.38-1.35,.04-2.7,0-4.01,.34-.24,.06-.26,.35-.04,.46,2.3,1.11,5.67,1.18,7.99,.11,.21-.1,.22-.46-.02-.53Z"/>
            <path class="cls-8" d="M102.85,92.21c-.45-.55-1.34-.44-1.96-.33-.11,.02-.21,.1-.25,.21-.02,.04-.03,.08-.02,.13,.04,.36,.63,.47,.91,.54,.44,.1,.9,.15,1.28-.14,.12-.1,.13-.29,.03-.41Z"/>
            <g>
              <g>
                <path class="cls-11" d="M89.92,.95c-1.35-.13-2.57,.68-3.03,1.89-.56-.25-1.35-.44-2.23-.52-.81-.08-1.56-.04-2.15,.07-.24-1.25-1.28-2.25-2.62-2.37-1.62-.15-3.06,1.04-3.21,2.66-.15,1.62,1.04,3.06,2.66,3.21,1.33,.12,2.54-.66,3.01-1.85,.55,.22,1.28,.4,2.1,.47,.88,.08,1.69,.04,2.29-.1,.23,1.27,1.28,2.29,2.62,2.42,1.62,.15,3.06-1.04,3.21-2.66,.15-1.62-1.04-3.06-2.66-3.21Z"/>
                <path class="cls-7" d="M92.22,2.47c.3,1.1-.1,2.33-1.32,2.82-1.97,.78-3.67-1.69-3.37-3.46-.28,.28-.5,.63-.64,1.01-.12-.05-.24-.1-.37-.14-.04,.1-.11,.2-.2,.29-.73,.61-1.95,.6-2.79,.24-.38-.16-.76-.43-.84-.86-.06,0-.11,.02-.17,.03-.06-.32-.18-.63-.34-.91,.08,1.23-.89,2.72-1.99,3.18-1.01,.43-2.34,.29-3.17-.34,.45,.85,1.3,1.47,2.33,1.56,1.33,.12,2.54-.66,3.01-1.85,.55,.22,1.28,.4,2.1,.47,.88,.08,1.69,.04,2.29-.1,.23,1.27,1.28,2.29,2.62,2.42,1.62,.15,3.06-1.04,3.21-2.66,.06-.61-.08-1.19-.35-1.69Z"/>
              </g>
              <path class="cls-16" d="M86.37,4.86s-.01,.02-.02,.03c-.52,.63-2.37,1.43-3.03,.64-.2-.24-.04-.54-.16-.75-.17-.3-.51-.46-.68-.83-.38-.81-.17-1.98,.41-2.6,.86-.92,2.74-.72,3.56,.18,.73,.81,.58,2.49-.07,3.32Z"/>
              <path class="cls-16" d="M63.23,75.25c.04-.35-.09-.64-.54-.77-1.94-.54-3.76,1.92-4.75,3.18-1.52,1.93-3.02,3.87-4.53,5.81-1.38,1.76-3.18,5.03-5.93,3.92-1.21-.49-2.22-1.38-3.41-1.91-1.23-.56-2.4-.38-3.71-.33-1.54,.06-2.89,.06-4.41-.18-1.08-.17-2.17-.36-3.27-.41-.83-.03-1.69,.12-2.49,.02-2.79-.36-1.57,1.88-1.36,3.55,.12,.94-.79,2.09,.06,2.81,.5,.42,2.55,.49,2.29-.61-.15-.66-1.18-.33-1.43-1.04-.37-1.08,.4-2.02,1.22-2.61,1.06-.77,1.78-.88,2.99-.59,2.07,.49,4.15,.97,6.22,1.48,2.02,.49,4.04,.99,6.06,1.51,.53,.14,1.05,.28,1.59,.4,.67,.16,1.45,.38,2.14,.09,.48-.21,1-1.04,1.36-1.42,1.67-1.77,3.54-3.37,5.23-5.13,1.76-1.84,3.68-3.53,5.3-5.5,.33-.4,1.28-1.49,1.38-2.26Z"/>
              <path class="cls-16" d="M51.52,43.35c-.47-3.67-3.53-10.48-3.88-11.59-1.02-3.22-1.1-6.59-2.38-9.7-1.77-4.3-3.1-8.64-2.87-13.36,.03-.53,.57-2.21,.27-2.61-.6-.81-1.91-.04-2.17,.64-.79,2.09,.65,4.98,1.07,7.02,.56,2.72,.99,5.47,1.49,8.21,.26,1.41,.46,2.87,.85,4.25,.32,1.11,.95,1.84,1.42,2.89,1.48,3.3,1.93,7.1,2.88,10.58,.36,1.33,.73,2.7,1.34,3.94,.87,1.75,2.31,2.39,1.97-.28Z"/>
              <g>
                <path class="cls-11" d="M36.84,3.65c1.35,0,2.49,.92,2.84,2.16,.58-.2,1.38-.32,2.27-.32,.82,0,1.56,.1,2.13,.27,.36-1.22,1.49-2.12,2.83-2.12,1.63,0,2.95,1.32,2.95,2.95s-1.32,2.95-2.95,2.95c-1.34,0-2.47-.9-2.83-2.12-.57,.17-1.31,.27-2.13,.27-.88,0-1.68-.12-2.27-.32-.34,1.25-1.48,2.16-2.84,2.16-1.63,0-2.95-1.32-2.95-2.95s1.32-2.95,2.95-2.95Z"/>
                <path class="cls-7" d="M34.4,4.95c-.4,1.07-.12,2.33,1.05,2.93,1.89,.96,3.82-1.34,3.68-3.13,.25,.31,.44,.67,.55,1.06,.12-.04,.25-.08,.38-.11,.03,.11,.09,.21,.18,.3,.67,.67,1.88,.77,2.75,.5,.4-.12,.79-.36,.92-.78,.05,.01,.11,.03,.16,.04,.09-.32,.24-.61,.43-.87-.2,1.21,.63,2.79,1.68,3.35,.97,.52,2.31,.5,3.19-.04-.53,.81-1.43,1.34-2.47,1.34-1.34,0-2.47-.9-2.83-2.12-.57,.17-1.31,.27-2.13,.27-.88,0-1.68-.12-2.27-.32-.34,1.25-1.48,2.16-2.84,2.16-1.63,0-2.95-1.32-2.95-2.95,0-.61,.19-1.18,.51-1.65Z"/>
              </g>
              <path class="cls-16" d="M40.01,7.88s.01,.02,.02,.03c.46,.67,2.22,1.65,2.96,.92,.22-.22,.09-.53,.23-.73,.2-.29,.55-.41,.76-.76,.45-.77,.36-1.95-.16-2.62-.77-1-2.66-.97-3.56-.15-.8,.74-.81,2.42-.23,3.31Z"/>
              <path class="cls-16" d="M85.81,2.32c-.62-.4-1.5-.25-1.9,.39-1.13,1.77,1.07,3.73,1.23,5.44,.37,4.1-2.08,7.83-3.14,11.63-.38,1.36-.03,2.57-.1,3.92-.05,1-.32,2.07-.6,3.08,.25,1.23,.49,2.5,.71,3.83,.39-2.95,.92-5.83,2.45-8.13,1.05-1.58,1.03-4,1.24-5.85,.29-2.47,.32-4.97,.72-7.43,.27-1.68,1.28-5.65-.61-6.87Z"/>
              <path class="cls-16" d="M90.22,88.55c-3.44-1.55-2.88-5.03-2.82-8.17,.04-2.16,.14-4.32,.23-6.48,.08-1.9,.69-3.81,.52-5.7-1.62-.2-3.45,.14-5.24,.62-.1,.78-.21,1.54-.31,2.25,0,0,0,0,0,.01,1.15-.52,2.31-.95,3.51-1.13-.21,1.21-.64,2.31-1.08,3.49-.74,2.02,.21,3.46,.59,5.37,.44,2.17,.57,4.57,.35,6.78-.12,1.18-.19,2.05-.1,2.69,.18,1.28,.29,1.76,1.67,1.87,1.09,.09,2.19-.16,3.27-.06,.56,.06,2.21,.03,2.38-.71,.21-.95-2.39-.57-2.96-.83Z"/>
            </g>
          </g>
          <g>
            <path class="cls-4" d="M59.63,36.39c1.5,2.01,4.92,.41,6.33-1.1,1.48-1.57,1.68-4.25,1.62-6.36-.06-2.33-.5-7.83-3.26-8.12-5.33-.57-6.69,10.64-5.33,14.37,.18,.49,.39,.89,.63,1.21Z"/>
            <path class="cls-4" d="M69.27,33.63c2.21,2.09,6.67,.34,6.85-2.9,.15-2.63-1.33-5.45-2.55-7.61-.97-1.73-3.91-4.82-5.22-1.95-1.16,2.53-.27,6.37-.05,9.03,.1,1.22,.15,2.66,.97,3.43Z"/>
            <path class="cls-1" d="M59.63,36.45c1.51,1.87,4.92,.39,6.33-.99,1.48-1.45,1.67-3.92,1.6-5.86-.07-2.15-.53-7.23-3.29-7.51-5.33-.55-6.65,9.8-5.27,13.25,.18,.45,.39,.82,.63,1.12Z"/>
            <path class="cls-1" d="M69.26,33.94c2.22,1.94,6.67,.34,6.84-2.65,.14-2.43-1.35-5.04-2.57-7.03-.98-1.6-3.93-4.46-5.23-1.82-1.15,2.33-.24,5.88-.02,8.34,.1,1.12,.17,2.46,.98,3.17Z"/>
            <path class="cls-16" d="M63.12,17c1.04-.3,2.19,.02,2.6,1.29,.3,.94,0,1.12-.78,1.21-.73,.09-1.41,.13-2.16,.31-.43,.11-1.43,.68-1.84,.58-1.36-.33,.6-2.38,1.02-2.75,.33-.3,.73-.52,1.15-.64Z"/>
            <path class="cls-16" d="M69.5,14.86c-1.02,.11-1.62,.88-2.04,1.76-.66,1.4,.34,.97,1.21,.82,.61-.1,1.22-.07,1.85-.08,.54,0,1.29,.12,1.39-.57,.17-1.12-1.4-2.02-2.34-1.94-.02,0-.04,0-.07,0Z"/>
            <path class="cls-3" d="M67.2,29.74c-.03-.99-.16-2.67-.59-4.12,.31,1.27,.42,2.59,.45,3.43,.07,1.77-.11,4.03-1.54,5.35-1.28,1.18-4.26,2.42-5.84,1.18,.09,.15,.18,.29,.28,.41,1.38,1.7,4.49,.36,5.78-.9,1.35-1.32,1.52-3.58,1.46-5.35Z"/>
            <path class="cls-3" d="M69.63,33.17c-.54-.44-.72-1.16-.82-1.89,0,0-.01,0-.02-.01,.08,.93,.17,1.97,.83,2.54,1.7,1.48,4.91,.57,5.73-1.45-1.22,1.57-4.11,2.14-5.72,.81Z"/>
            <g>
              <path class="cls-18" d="M65.54,30.83c-.07,1.48-1.33,2.61-2.81,2.54s-2.61-1.33-2.54-2.81c.07-1.48,1.33-2.61,2.81-2.54,1.47,.07,2.61,1.33,2.54,2.81Z"/>
              <path class="cls-16" d="M64.81,30.79c-.05,1.07-.97,1.9-2.04,1.84-1.07-.05-1.9-.97-1.85-2.04,.05-1.07,.97-1.9,2.04-1.84s1.9,.97,1.85,2.04Z"/>
              <path class="cls-1" d="M62.71,29.1c-.02-.15-.08-.29-.17-.42-.05-.05-.1-.1-.16-.16-.12-.09-.26-.15-.41-.17-.12-.02-.23-.01-.34,.03-.11,.02-.21,.07-.31,.14-.09,.07-.16,.15-.21,.25-.06,.09-.1,.2-.12,.31,0,.08,0,.15,0,.23,.02,.15,.08,.29,.17,.42,.05,.05,.1,.1,.16,.16,.12,.09,.26,.15,.41,.17,.12,.02,.23,.01,.34-.03,.11-.02,.21-.07,.31-.14,.09-.07,.16-.15,.21-.25,.06-.09,.1-.2,.12-.31,0-.08,0-.15,0-.23Z"/>
              <path class="cls-1" d="M61.28,30.27c-.57-.03-.71,.86-.13,.89,.57,.03,.71-.86,.13-.89Z"/>
              <path class="cls-1" d="M64.72,31.38c0-.07-.03-.13-.07-.18-.02-.02-.04-.05-.07-.07-.05-.04-.11-.06-.18-.07-.05,0-.1,0-.15,.01-.05,0-.09,.03-.13,.06-.04,.03-.07,.06-.09,.11-.03,.04-.05,.08-.05,.13,0,.03,0,.07,0,.1,0,.07,.03,.13,.07,.18,.02,.02,.04,.05,.07,.07,.05,.04,.11,.06,.18,.07,.05,0,.1,0,.15-.01,.05,0,.09-.03,.13-.06,.04-.03,.07-.06,.09-.11,.03-.04,.05-.08,.05-.13,0-.03,0-.07,0-.1Z"/>
            </g>
            <g>
              <path class="cls-2" d="M74.11,29.25c-.07,1.48-1.33,2.61-2.8,2.54-1.48-.07-2.61-1.33-2.54-2.81,.07-1.48,1.33-2.61,2.81-2.54,1.47,.07,2.61,1.33,2.54,2.81Z"/>
              <path class="cls-16" d="M73.32,29.21c-.05,1.04-.94,1.84-1.98,1.79-1.04-.05-1.84-.94-1.79-1.98,.05-1.04,.94-1.84,1.98-1.79,1.04,.05,1.84,.94,1.79,1.98Z"/>
              <path class="cls-1" d="M71.28,27.52c-.02-.15-.08-.29-.17-.42-.05-.05-.1-.1-.16-.16-.12-.09-.26-.15-.41-.17-.12-.02-.23-.01-.34,.03-.11,.02-.21,.07-.31,.14-.09,.07-.16,.15-.21,.25-.07,.09-.1,.2-.12,.31,0,.08,0,.15,0,.23,.02,.15,.08,.29,.17,.42,.05,.05,.1,.1,.15,.16,.12,.09,.26,.15,.41,.17,.12,.02,.23,.01,.34-.03,.12-.02,.22-.07,.31-.14,.09-.07,.16-.15,.21-.25,.07-.09,.11-.2,.12-.31,0-.08,0-.15,0-.23Z"/>
              <path class="cls-1" d="M69.84,28.69c-.57-.03-.7,.86-.13,.89,.57,.03,.71-.86,.13-.89Z"/>
              <path class="cls-1" d="M73.29,29.8c0-.07-.03-.13-.07-.18-.02-.02-.04-.04-.07-.07-.05-.04-.11-.06-.17-.07-.05,0-.1,0-.15,.01-.05,0-.09,.03-.13,.06-.04,.03-.07,.06-.09,.11-.03,.04-.04,.08-.05,.13v.1c0,.07,.03,.13,.07,.18,.02,.02,.04,.04,.07,.07,.05,.04,.11,.06,.18,.07,.05,0,.1,0,.15-.01,.05,0,.09-.03,.13-.06,.04-.03,.07-.06,.09-.11,.03-.04,.05-.08,.05-.13v-.1Z"/>
            </g>
            <path class="cls-17" d="M63.63,38.25s7.72,.91,9.99-1.96c0,0-2.33,8.31-5.38,8.57-3.05,.26-4.61-6.61-4.61-6.61Z"/>
            <path class="cls-1" d="M72.33,37.31c-3.06,1.6-8.7,.94-8.7,.94,0,0,.15,.65,.44,1.55,2.17,1.18,4.79,1.4,7.25,1,.45-1.13,.75-2.3,1.01-3.48Z"/>
            <path class="cls-19" d="M67.63,42.53c-.76-.86-1.9-1.45-2.91-1.04,.77,1.74,1.95,3.51,3.53,3.37,.2-.02,.39-.07,.58-.15-.27-.8-.64-1.55-1.2-2.18Z"/>
            <path class="cls-1" d="M68.76,43.79c-1-.03-1.99-.15-2.96-.38,.66,.9,1.48,1.53,2.44,1.44,.25-.02,.49-.1,.73-.22-.07-.28-.14-.57-.21-.85Z"/>
            <path class="cls-6" d="M65.73,18.29c-.12-.38-.31-.67-.55-.89-.02,.03-.04,.06-.06,.09,.07,.06,.14,.13,.2,.21,.22,.27,.14,.64-.2,.76-.94,.33-2.12,.49-3.11,.36-.29-.04-.62-.13-.82-.34-.6,.74-1.14,1.7-.24,1.92,.41,.1,1.41-.47,1.84-.58,.75-.18,1.43-.23,2.16-.31,.77-.09,1.08-.27,.78-1.21Z"/>
            <path class="cls-6" d="M71.52,15.7s0,.03,0,.04c-.13,.78-1.15,1.05-1.81,1.01-.63-.03-1.46-.23-1.89-.76-.13,.2-.25,.41-.35,.63-.66,1.4,.34,.97,1.21,.82,.61-.1,1.22-.07,1.85-.08,.54,0,1.29,.12,1.39-.57,.06-.41-.11-.78-.39-1.1Z"/>
          </g>
        </g>
      </g>
    </g>
  </g>
</svg>