<?xml version="1.0" encoding="UTF-8"?>
<svg xmlns="http://www.w3.org/2000/svg" xmlns:xlink="http://www.w3.org/1999/xlink" viewBox="0 0 131.87 122.21">
  <defs>
    <style>
      .cls-1 {
        fill: #fff;
      }

      .cls-2 {
        fill: url(#_Áåçûìÿííûé_ãðàäèåíò_49);
      }

      .cls-3 {
        isolation: isolate;
      }

      .cls-4 {
        fill: #ffe572;
      }

      .cls-5 {
        fill: url(#_Áåçûìÿííûé_ãðàäèåíò_49-2);
      }

      .cls-6 {
        fill: #00a9ff;
      }

      .cls-7 {
        fill: #ffbd27;
      }

      .cls-8 {
        fill: #f06408;
      }

      .cls-9 {
        fill: #29d1ff;
      }

      .cls-10 {
        fill: #ffca52;
      }

      .cls-11, .cls-12 {
        fill: #aceaff;
      }

      .cls-13 {
        fill: #e7e7e7;
      }

      .cls-14 {
        fill: #ffd26c;
      }

      .cls-15 {
        fill: #ff9f00;
      }

      .cls-12 {
        mix-blend-mode: screen;
        opacity: .4;
      }

      .cls-16 {
        fill: #ff8108;
      }

      .cls-17 {
        fill: #853408;
      }

      .cls-18 {
        fill: #4a0e08;
      }

      .cls-19 {
        fill: #761b0d;
      }

      .cls-20 {
        fill: #ff5157;
      }

      .cls-21 {
        fill: #e3e3e3;
      }
    </style>
    <linearGradient id="_Áåçûìÿííûé_ãðàäèåíò_49" data-name="Áåçûìÿííûé ãðàäèåíò 49" x1="40.12" y1="29.43" x2="42.27" y2="33.63" gradientUnits="userSpaceOnUse">
      <stop offset="0" stop-color="#ffca52"/>
      <stop offset="1" stop-color="#9c5e1b"/>
    </linearGradient>
    <linearGradient id="_Áåçûìÿííûé_ãðàäèåíò_49-2" data-name="Áåçûìÿííûé ãðàäèåíò 49" x1="48.67" y1="28.74" x2="50.83" y2="32.94" xlink:href="#_Áåçûìÿííûé_ãðàäèåíò_49"/>
  </defs>
  <g class="cls-3">
    <g id="Layer_2" data-name="Layer 2">
      <g id="_Ñëîé_2" data-name="Ñëîé 2">
        <g>
          <g>
            <path class="cls-10" d="M78.94,54.1c.71,1.27,1.53,2.49,2.34,3.7,1.05,1.56,2.14,3.09,3.15,4.67,.73,1.15,1.82,2.44,2.11,3.78,.58,2.66-2.45,4.53-4.45,5.55-1.31,.67-2.51,1.56-3.91,2.05-.9,.32-1.88,.27-2.75,.62-2.66,1.09-4.53,2.94-7.61,2.92-1.96,0-3.95-.73-5.85-.25-1.73,.44-3.12,1.81-4.87,2.17-1.02,.21-2.08,.06-3.12-.02-2.98-.22-5.76,.32-8.59,1.19-.9,.27-1.69,.38-2.62,.37-.46,0-.91-.03-1.37-.02-2.09,.06-4.63-.38-6.63,.18-.86,.24-1.63,.75-2.51,.9-.92,.16-1.86-.08-2.8-.04-2.66,.11-4.86,2.44-7.53,2.49-1.98,.04-3.85-1.21-5.82-1.05-2.14,.18-4.6,1.88-6.13,.37-1.04-1.02-.54-2.47-.36-3.71,.28-1.97,.44-3.58,0-5.59-1.01-4.5,2.42-8.65,3.98-13,1.11-3.08,1.27-6.41,1.88-9.63,1.24-6.57,4.24-12.63,6.19-18.99,.96-3.11,1.2-6.28,1.95-9.42,.52-2.2,1.74-3.24,2.67-5.07,.87-1.69,1.17-3.82,1.77-5.63,1.1-3.34,2.4-6.62,3.88-9.81,.78-1.68,1.72-3.95,3.72-2.27,2.09,1.75,3.29,4.31,5.36,6.12,1.3,1.15,2.08,2.85,3.01,4.3,1.4,2.17,2.87,4.29,4.41,6.36,1.26,1.69,2.53,2.62,4.09,3.93,1.92,1.61,3.44,3.93,5.05,5.84,1.74,2.07,3.48,4.13,5.21,6.2,1.27,1.51,2.54,3.03,3.82,4.54,2.74,3.26,5.29,6.75,8.21,9.85,.63,.67,1.31,1.3,1.85,2.05,.8,1.12,1.27,2.41,1.9,3.62,.12,.24,.25,.47,.38,.7Z"/>
            <path class="cls-7" d="M78.94,69.31c-2.83,.64-6.1,.6-8.1,2.71-.25,.26-.48,.56-.82,.68-.53,.19-1.1-.13-1.61-.37-1.14-.51-2.45-.6-3.66-.29-.6,.15-1.19,.4-1.71,.74-.22,.15-.39,.36-.6,.51-.5,.36-1.17,.39-1.77,.48-2.79,.44-5.77,.21-8.23-1.19-.48-.27-1.02-.6-1.54-.43-.86,.27-.84,1.48-.64,2.36-1.94,.24-3.89,.48-5.84,.71-.55,.07-1.14,.13-1.65-.11-.65-.31-.98-1.02-1.53-1.49-1.58-1.37-3.38-.1-5.01,.36-.55,.15-1.12,.2-1.62,.5-.31,.18-.57,.44-.81,.7-.73,.78-1.33,1.69-2.4,2.03-.74,.24-1.68,.22-2.14-.51-.24-.39-.29-.89-.58-1.24-.56-.68-1.64-.45-2.49-.2-2.71,.81-5.83,1.17-8.2-.37-.3-.19-.6-.43-.74-.76-.66-1.55,2.44-2.52,2.27-4.2,.03,.3-1.74-.25-1.88-.34-.53-.33-1.07-.95-1.1-1.61-.01-.31,.11-.7,.24-.98,.32-.7,.97-1.23,1.63-1.61,.95-.54,2.03-.91,2.8-1.69,2.34-2.38,.36-6.73,2.13-9.55,.91-1.45,2.79-2.51,2.69-4.21-.05-1.03-.86-1.89-1.03-2.91-.2-1.22,.53-2.39,.69-3.61,.3-2.22-1.88-5.07-.07-6.91,.69-.7,1.23-1.31,1.37-2.33,.2-1.51-.43-2.92-.86-4.32-.1-.34-.2-.68-.27-1.03-.32-1.59,.15-3.63,1.71-4.1,.35-.1,.73-.13,1.02-.35,.88-.7-.22-2.14,.11-3.22,.14-.45,.52-.78,.85-1.12,1.66-1.71,2.31-4.13,2.9-6.44,.58-2.28,1.16-4.6,1.11-6.95-.03-1.4-.3-2.8-.14-4.19,.08-.75,.31-1.56,.75-2.19,.07-.1,.14-.19,.2-.28-1.16,0-1.83,1.59-2.42,2.86-1.48,3.19-2.78,6.47-3.88,9.81-.6,1.81-.9,3.94-1.77,5.63-.94,1.83-2.15,2.88-2.67,5.07-.75,3.14-.99,6.3-1.95,9.42-1.96,6.36-4.96,12.41-6.19,18.99-.61,3.22-.77,6.54-1.88,9.63-1.56,4.34-4.98,8.49-3.98,13,.45,2.01,.29,3.62,0,5.59-.18,1.24-.67,2.69,.36,3.71,1.53,1.5,3.99-.2,6.13-.37,1.98-.16,3.84,1.08,5.82,1.05,2.67-.05,4.87-2.39,7.53-2.49,.93-.04,1.88,.21,2.8,.04,.88-.15,1.65-.66,2.51-.9,2.01-.56,4.54-.12,6.63-.18,.46-.01,.91,.01,1.37,.02,.93,0,1.72-.1,2.62-.37,2.83-.86,5.61-1.41,8.59-1.19,1.04,.08,2.1,.23,3.12,.02,1.75-.36,3.14-1.73,4.87-2.17,1.9-.48,3.89,.24,5.85,.25,3.08,.01,4.95-1.84,7.61-2.92,.88-.36,1.85-.31,2.75-.62,1.4-.49,2.6-1.38,3.91-2.05,1.99-1.02,5.02-2.89,4.45-5.55-.2-.94-.81-1.87-1.41-2.74-.46-.08-.92-.12-1.39-.12,1.11,2.68-1.97,5.27-4.8,5.91Z"/>
            <path class="cls-15" d="M86.54,66.25c-.02-.1-.06-.21-.09-.31-1.19,3.75-5.64,5.72-9.53,7.03-5.52,1.86-11.18,3.74-17,3.55-2.29-.08-4.72-.45-6.95,.26-.86,.27-1.61,.71-2.51,.88-.84,.15-1.66,.38-2.49,.53-3.1,.55-6.27,.38-9.39,.19-.56-.03-1.13-.07-1.64-.3-.28-.13-.54-.31-.85-.37-.41-.07-.82,.11-1.2,.29-1.55,.74-3.11,1.65-4.73,2.22-.47,.16-.91,.19-1.4,.2-1.78,.06-3.59,.5-5.1-.8-.35-.3-.67-.69-1.13-.8-.33-.08-.68,0-1.01,.11-1.32,.4-2.63,1.01-4,.91-1.14-.08-1.98-.78-2.53-1.73-.71-1.23-.4-2.44,.39-3.65-.95-.89-2.84-.23-3.57-1.32-.28-.42-.27-.97-.22-1.47,.35-3.43,2.06-6.7,4.68-8.94,.75-.65,1.64-1.32,1.76-2.3,.16-1.3-1.12-2.48-.9-3.78,.24-1.43,2.14-2.05,2.56-3.44,.17-.55,.07-1.15,.04-1.72-.08-1.58,.36-3.15,.37-4.74s-.56-3.36-1.99-4.04c2.16-2.77,3.66-6.05,4.34-9.5,.72-3.69,.77-8.02,3.71-10.35-.67-.11-1.18-.83-1.06-1.5,.12-.67,.85-1.17,1.51-1.04-.78-2.55,2.2-4.74,2.53-7.38,.01-.09,.02-.18,.02-.27,.05-.79-.15-1.58-.31-2.37-.29,.79-.56,1.58-.82,2.38-.6,1.81-.9,3.94-1.77,5.63-.94,1.83-2.15,2.88-2.67,5.07-.75,3.14-.99,6.3-1.95,9.42-1.96,6.36-4.96,12.41-6.19,18.99-.61,3.22-.77,6.54-1.88,9.63-1.56,4.34-4.98,8.49-3.98,13,.45,2.01,.29,3.62,0,5.59-.18,1.24-.67,2.69,.36,3.71,1.53,1.5,3.99-.2,6.13-.37,1.98-.16,3.84,1.08,5.82,1.05,2.67-.05,4.87-2.39,7.53-2.49,.93-.04,1.88,.21,2.8,.04,.88-.15,1.65-.66,2.51-.9,2.01-.56,4.54-.12,6.63-.18,.46-.01,.91,.01,1.37,.02,.93,0,1.72-.1,2.62-.37,2.83-.86,5.61-1.41,8.59-1.19,1.04,.08,2.1,.23,3.12,.02,1.75-.36,3.14-1.73,4.87-2.17,1.9-.48,3.89,.24,5.85,.25,3.08,.01,4.95-1.84,7.61-2.92,.88-.36,1.85-.31,2.75-.62,1.4-.49,2.6-1.38,3.91-2.05,1.99-1.02,5.02-2.89,4.45-5.55Z"/>
            <path class="cls-7" d="M32.42,37.74c-.49-.98-1.55-1.53-2.63-1.4-1.14,.14-1.84,1.13-1.9,2.23-.03,.55,.1,1.11,.21,1.65,.13,.62,.26,1.25,.39,1.87,.06,.29,.12,.58,.19,.88-.03,.45-.1,.9-.18,1.34-.1,.54-.17,1.08,.07,1.59,.44,.98,1.67,1.21,2.57,.72,.89-.49,1.22-1.51,1.43-2.44,.25-1.11,.35-2.22,.37-3.35,.02-1.04-.03-2.14-.5-3.09Z"/>
            <path class="cls-7" d="M36.26,38.88c-.06-.16-.13-.32-.29-.41-.16-.09-.32-.11-.5-.08-.41,.06-.78,.45-.81,.86-.01,.12,0,.24,.04,.36-.02,.13-.04,.25-.04,.38,0,.47,.13,.94,.39,1.33,.1,.15,.23,.25,.42,.26,.19,0,.34-.09,.44-.23,.5-.7,.64-1.65,.34-2.46Z"/>
            <path class="cls-7" d="M32.4,27.51c-.22-.44-.58-.88-1.01-1.12-.7-.39-1.55-.29-1.99,.42-.35,.55-.31,1.36-.15,1.96,.08,.31,.21,.6,.39,.86,.09,.13,.18,.25,.28,.36,.05,.28,.13,.55,.26,.79,.12,.23,.29,.46,.51,.61,.3,.2,.69,.19,.99,0,.43-.26,.71-.75,.89-1.21,.33-.85,.25-1.87-.17-2.68Z"/>
            <path class="cls-7" d="M79.01,61.32c-.2-1.17-.98-2.24-1.85-3.02-1.04-.93-2.42-1.58-3.81-1-1.23,.52-2.06,1.96-2.74,3.04-.09,.14-.16,.28-.25,.42-.57,.62-1.06,1.31-1.45,2.05-.28,.53-.64,1.14-.69,1.74-.07,.73,.38,1.37,1.08,1.58,.52,.16,1.06,.04,1.57-.09,.69-.18,1.38-.36,2.07-.57,1.31-.39,2.6-.83,3.88-1.32,.56-.22,1.22-.39,1.67-.79,.6-.53,.64-1.33,.52-2.06Z"/>
            <path class="cls-7" d="M70.83,48.81c-.66-.56-1.45-1.03-2.36-.89-.45,.07-.86,.34-1.11,.73-.27,.44-.27,.93-.23,1.42,.12,1.41,.46,2.78,1.01,4.07-.01,.23,0,.46,.03,.69,.08,.52,.45,.9,.95,1.02,.4,.31,.98,.33,1.39-.05,.12-.11,.23-.23,.33-.36,.23-.14,.44-.31,.62-.49,.57-.58,.9-1.34,1.02-2.13,.24-1.5-.52-3.05-1.65-4Z"/>
            <path class="cls-7" d="M47.72,68.18c-.4-.36-.9-.57-1.44-.56-.48,.01-.97,.13-1.38,.4-.74,.49-1.16,1.21-1.48,2-.1,.12-.21,.24-.3,.37-.16,.22-.14,.51-.01,.75,.03,.48,.43,.86,.93,.92,.26,.03,.51,.02,.76-.02,.48,.11,.98,.14,1.45,.07,.91-.14,1.62-.77,1.95-1.62,.3-.76,.14-1.75-.48-2.31Z"/>
            <path class="cls-7" d="M54.88,68.67s-.04-.09-.07-.13c-.06-.09-.11-.18-.19-.25-.11-.11-.24-.21-.37-.27-.2-.1-.37-.15-.59-.19-.16-.02-.32-.01-.47,.02-.22,.04-.44,.15-.61,.3-.21,.18-.34,.46-.35,.74,0,.17,.04,.35,.11,.51-.02,.13-.01,.28,.02,.41,.07,.32,.27,.58,.54,.76,.28,.19,.64,.24,.97,.17,.36-.08,.65-.3,.87-.59,.18-.24,.31-.58,.3-.88-.01-.22-.05-.39-.14-.59Z"/>
            <g>
              <path class="cls-15" d="M28.57,72.95c-.73-.24-1.52-.04-2.18,.31-.94,.49-1.77,1.25-2.37,2.14-.31,.28-.54,.64-.57,1.05-.11,.31-.11,.62,.1,.92,.24,.33,.6,.42,.99,.38,.23-.03,.47-.09,.68-.2,.04,0,.08-.01,.11-.02,.65-.09,1.29-.24,1.92-.44,1.14-.36,2.68-.98,2.65-2.43-.02-.81-.58-1.48-1.34-1.72Z"/>
              <path class="cls-15" d="M28.22,74.85s0-.01,0,0h0Z"/>
            </g>
            <path class="cls-15" d="M33.76,73.91c0-.14-.04-.29-.2-.33-.04-.01-.08-.01-.11,0,0,0,0,0,0,0,0,0-.01,0-.02,0,0,0-.01,0-.02,0,0,0,0,0,0,0-.04,0-.08,0-.12,.02,0,0,0,0,0,0,0,0,0,0,.01,0,0,0-.01,0-.02,0-.08-.04-.16-.05-.24-.05-.01,0-.02,0-.03,0-.05-.01-.1-.03-.15-.05-.02,0-.04-.02-.05-.03,0,0,0,0,0,0-.01-.02-.02-.04-.03-.06,0,.01,.01,.03,.02,.04h0c-.05-.12-.11-.21-.23-.28-.12-.08-.3-.11-.44-.07-.14,.04-.28,.12-.36,.26-.07,.13-.12,.29-.07,.43,.01,.05,.04,.1,.06,.14,0,0,0,0,0,0,.05,.12,.09,.25,.14,.37,.03,.06,.07,.11,.1,.17,.07,.11,.14,.19,.24,.25,.13,.12,.34,.17,.51,.08,.06-.03,.1-.08,.13-.13,.09,0,.17,0,.26-.03,.07-.01,.13-.04,.19-.07,.08-.04,.16-.12,.21-.2,0-.02,.01-.03,.02-.05,.12-.11,.22-.24,.22-.4Z"/>
            <path class="cls-15" d="M32.64,43.33c-.07-.86-.28-1.75-.63-2.54-.32-.72-.92-1.34-1.75-1.36-.39,0-.71,.24-.85,.6-.66,1.82-.67,3.88-.02,5.71,.02,.05,.04,.09,.06,.14,.03,.1,.04,.2,.07,.3,.08,.26,.31,.51,.6,.5,1.72-.05,2.64-1.79,2.52-3.35Z"/>
            <path class="cls-15" d="M30.04,37.02s-.02-.06-.04-.09c0-.11,0-.22-.03-.33-.05-.19-.14-.37-.28-.5-.07-.06-.14-.13-.23-.17-.06-.03-.14-.07-.21-.09-.07-.02-.15-.03-.23-.04-.12,0-.23,.02-.33,.08-.1,.05-.18,.13-.24,.22-.04,.08-.09,.16-.1,.25-.02,.09-.04,.18-.04,.27,0,.07,0,.15,.02,.22,.01,.04,.03,.09,.05,.13,.02,.06,.05,.13,.08,.18,.1,.16,.21,.29,.37,.4,.02,.01,.04,.02,.05,.03,.06,.03,.13,.06,.19,.09,.04,.02,.09,.03,.14,.03,0,0,0,0,0,0,.09,.03,.19,.03,.28,0,0,0,0,0,0,0,.08-.02,.15-.05,.22-.1,.04-.02,.07-.05,.09-.09,.03-.02,.06-.03,.08-.06,.12-.11,.17-.28,.13-.44Z"/>
            <path class="cls-15" d="M74.51,58.41c-.42-.79-1.76-.53-2.4-.19-.98,.53-1.91,1.27-2.51,2.21-.64,.99-1.09,2.79-.26,3.8,1.36-.48,2.53-1.55,3.62-2.47,.91-.77,1.92-1.79,1.69-2.97-.03-.15-.07-.28-.13-.39Z"/>
            <g>
              <path class="cls-15" d="M48.08,24h0s0,0,0,0c0,0,0,0,0-.02,0,0,0,0,0,0Z"/>
              <path class="cls-15" d="M49.33,23.07c-.19-.39-.51-.7-.86-.94-.36-.25-.8-.41-1.23-.5-.26-.06-.5-.02-.7,.16-.19,.18-.25,.43-.21,.68,.03,.17,.07,.34,.13,.51,.03,.08,.06,.16,.09,.24,0,.36,.13,.69,.24,1.03,.13,.39,.28,.78,.43,1.16,.09,.22,.35,.34,.57,.35,.83,.07,1.54-.62,1.7-1.4,.09-.45,.05-.88-.15-1.29Z"/>
            </g>
            <path class="cls-7" d="M37.86,16.6c-.01-.12-.05-.23-.1-.34-.13-.62-.49-1.24-1.04-1.55-.86-.48-1.81-.05-2.42,.62-.42,.46-.77,.95-1.07,1.48-.11,.1-.21,.22-.32,.35-.21,.27-.38,.59-.53,.9-.16,.35-.29,.7-.38,1.07-.09,.37-.17,.77-.1,1.15,.08,.39,.38,.7,.77,.79,.35,.08,.69,0,1.02-.12,.7-.24,1.42-.49,2.06-.87,1.14-.67,2.02-1.78,2.07-3.11,.04-.12,.06-.24,.05-.38Z"/>
            <path class="cls-7" d="M29.17,56.78c-.08-.83-.54-1.53-1.36-1.78-.4-.12-.82-.1-1.19,.1-.06,.03-.11,.06-.15,.1-.26,.02-.52,.09-.76,.23-.68,.39-1,1.07-1.11,1.82-.1,.71,0,1.49,.18,2.18,.08,.33,.19,.66,.32,.98,.05,.2,.13,.4,.25,.56,.09,.18,.19,.36,.3,.54,.35,.56,1.14,.62,1.52,.05,.13-.21,.26-.42,.37-.64,0-.01,.02-.02,.03-.03,.47-.57,.83-1.2,1.12-1.88,.3-.69,.55-1.47,.48-2.22Z"/>
            <path class="cls-14" d="M35.83,12.73c.54-.03,1.08-.05,1.62-.08,.36-.02,.74-.03,1.08,.08,.84,.29,1.17,1.21,1.55,1.92,.2,.38,.42,.64,.71,.95,.57,.63,.53,1.55,.41,2.36-.27,1.88-1.36,3.54-2.42,5.12-.54,.8-1.08,1.61-1.61,2.41-.36,.53-.72,1.21-.41,1.77,.19,.34,.58,.51,.91,.72,1.78,1.07,2.87,3.69,2.45,5.76-.13,.63-.45,1.28-.35,1.93,.13,.85,.97,1.59,1.75,1.87,.69,.25,2.12-.09,2.48,.75,.1,.23,.07,.48,.02,.73-.18,.91-.58,1.76-.7,2.68-.11,.92,.16,1.99,.98,2.41,.77,.4,1.76,.11,2.52,.51,.84,.44,1.08,1.53,1.72,2.22,1.98,2.11,6.18-.48,8.22,1.57,.61,.61,.84,1.48,1.28,2.22,.44,.73,1.33,1.37,2.12,1.04,.92-.4,1.07-1.85,2.03-2.13,.81-.24,1.8,.5,2.46-.03,.27-.21,.37-.56,.45-.89,.1-.4,.21-.8,.31-1.19,.4-1.54,.6-2.89,.14-4.43-.44-1.47-1.27-2.59-2.26-3.76-3.32-3.92-6.63-7.83-9.95-11.75-.19-.22-.39-.45-.65-.57-.99-.43-1.79,.87-2.7,1.44-1.65,1.03-3.86-.6-4.34-2.48-.48-1.88,.09-3.85,.21-5.79,.19-2.99-.84-6-2.66-8.36-.48-.62-1-1.34-1.69-1.73-.65-.37-1.09-.73-1.59-1.32-.57-.69-1.11-1.4-1.6-2.15-.12-.18-1.25-2.17-1.26-2.16-.78,.25-1.07,1.22-1.01,2.04,.06,.82,.34,1.63,.2,2.44-.12,.69-.52,1.29-.79,1.93-.26,.65-.35,1.46,.11,1.99,.09,0,.17,0,.26-.01Z"/>
            <path class="cls-14" d="M64.84,60.11c-.26-.9-.94-2.94-.47-3.06-.69,.18-1.48-.2-1.78-.85-.13-.28-.17-.6-.35-.85-.29-.4-.86-.51-1.33-.38-.48,.12-.88,.43-1.27,.73-1.36,1.04-2.83,2.25-3.11,3.95-.07,.41-.06,.84-.21,1.23-.12,.32-.34,.6-.53,.89-.5,.78-.76,1.73-.71,2.66,0,.14,.02,.29,.13,.38,.1,.09,.26,.09,.39,.08,.76-.04,1.52-.09,2.28-.13,.28-.02,.58,.02,.85,0,.95-.07,1.99-.71,2.82-1.16,.44,0,.89-.17,1.29-.46,.57-.41,.94-1,1.47-1.44,.45-.36,.67-.55,.62-1.19,0-.06-.04-.2-.09-.39Z"/>
            <path class="cls-14" d="M56.45,53.65c.16-.58,.28-1.17,.09-1.73-.22-.63-.78-1.07-1.31-1.48-.61-.47-1.32-.96-2.08-.81-.84,.17-1.34,1.12-1.28,1.98,.06,.86,.53,1.62,1,2.34,.32,.48,.8,1.05,.92,1.63,.09,.39-.16,.75-.09,1.12,.26,1.32,1.42-.07,1.73-.48,.14-.19,.29-.38,.4-.59,.16-.29,.24-.57,.3-.89,.07-.35,.2-.72,.3-1.09Z"/>
            <path class="cls-4" d="M66.64,44.8c-.08-1.84-1.2-3.5-2.02-5.09-.82-1.57-1.6-3.35-3.39-3.99-.77-.28-1.4,.62-1.06,1.29,.85,1.68,1.45,3.45,1.79,5.3,.15,.78,.29,1.56,.5,2.31,.06,.76,.1,1.56,.28,2.29,.19,.78,.82,1.38,1.67,1.2,1.47-.3,2.3-1.93,2.23-3.33Z"/>
            <g>
              <path class="cls-4" d="M59.54,33.11c0-.12-.02-.24-.03-.36-.02-.35-.15-.7-.34-.98-.21-.33-.47-.59-.79-.82-.17-.12-.39-.12-.57-.05-.17,.07-.35,.22-.39,.41-.03,.13-.05,.26-.06,.39,0,.13,0,.27,.02,.4,.03,.23,.1,.43,.18,.64,.08,.2,.2,.39,.34,.55,.17,.19,.39,.4,.65,.44,.19,.09,.41,.16,.6,.1,.25-.08,.37-.28,.34-.51,.02-.07,.03-.13,.03-.21Z"/>
              <path class="cls-4" d="M59.5,32.67s0,.05,0,.08c0,.02,0,.05,0,.07,0-.05,0-.1-.01-.14Z"/>
            </g>
            <path class="cls-4" d="M65.57,60.71c-.62-.21-1.18,.13-1.58,.57-.16,.17-.31,.35-.46,.53-.53,.41-.85,1.06-.97,1.74-.05,.2-.09,.41-.1,.62-.01,.3,.17,.59,.44,.71,.11,.05,.24,.07,.37,.06,0,0,0,0,0,0,.48,.21,1.03,.06,1.46-.19,.46-.27,.83-.64,1.16-1.06,.34-.43,.65-.94,.67-1.5,.02-.64-.36-1.27-.98-1.49Zm-.54,1.73s-.02,.05-.03,.07c-.04,.08-.08,.16-.12,.23-.08,.14-.17,.27-.27,.4,.02-.11,.02-.22,0-.33,.01-.01,.03-.04,.05-.06,.02-.02,.04-.05,.04-.05,.03-.03,.06-.06,.08-.1,.05-.06,.11-.13,.17-.19,.05-.05,.09-.1,.14-.15,0,0,0,.01,0,.02,0,.02-.01,.04-.02,.05-.01,.04-.02,.07-.03,.11Z"/>
            <path class="cls-4" d="M35.21,3.23c-.16-.53-.61-.92-1.18-.92-1.09,0-1.67,1.26-2.04,2.1-.09,.19-.16,.39-.23,.6-.03,.05-.07,.11-.1,.16-.4,.78-.8,1.71-.78,2.6,.02,.89,.52,1.84,1.54,1.79,1.03-.04,1.58-1.05,1.93-1.9,.4-.99,.67-2.01,.84-3.06,.07-.45,.16-.93,.02-1.37Z"/>
            <path class="cls-4" d="M31.98,12.5s0-.06-.01-.09c0-.11-.01-.15-.04-.22-.01-.03-.02-.06-.03-.09,0-.02,0-.03,0-.05-.02-.04-.03-.09-.05-.13-.03-.06-.07-.11-.13-.15-.03-.03-.07-.06-.11-.07-.06-.03-.12-.05-.19-.05-.09,0-.18,.02-.27,.06-.06,.03-.11,.07-.15,.13-.03,.03-.05,.08-.07,.12,0-.02,.01-.03,.02-.05-.01,.02-.02,.04-.03,.06,0,.01-.02,.02-.02,.04,0,0,0,0,0,.01-.02,.05-.05,.09-.07,.14-.04,.09-.05,.19-.05,.29,0,.1,.02,.2,.04,.3,.04,.18,.14,.37,.3,.46,.06,.04,.13,.07,.21,.07,.07,.02,.15,.02,.22,0,.05-.02,.09-.04,.14-.05,.09-.05,.16-.11,.21-.2,.02-.05,.04-.09,.07-.14,0-.05,.02-.1,.03-.15,0-.01,0-.02,0-.03,0-.07-.01-.14-.03-.21Z"/>
            <path class="cls-4" d="M40.9,9.41c-.02-.13-.07-.25-.11-.37-.03-.08-.07-.16-.11-.23-.07-.11-.15-.22-.25-.32-.15-.15-.36-.22-.57-.17-.1,.02-.2,.07-.27,.15-.08,.07-.13,.16-.16,.26-.05,.1-.06,.22-.08,.33-.01,.11,0,.23,.02,.34,0,0,0,0,0,.01,.02,.05,.04,.1,.06,.15,0,0,0,.01,.01,.02,.03,.05,.07,.1,.11,.15,.02,.02,.04,.04,.05,.07,.04,.04,.08,.07,.12,.1,.04,.03,.08,.07,.12,.09,.07,.04,.15,.07,.23,.07,0,0,.02,0,.02,0,.01,0,.02,.02,.03,.03,.03,.02,.07,.04,.1,.06,.12,.08,.27,.08,.4,.04,.12-.05,.24-.15,.27-.28,.02-.07,.03-.15,.04-.23,0-.08,0-.17-.02-.25Z"/>
            <g>
              <path class="cls-4" d="M24.33,66.47s0,0-.01,0c0,0,0,0,.01,0Z"/>
              <path class="cls-4" d="M25.04,64.8c-.02-.18-.18-.29-.33-.35-.22-.1-.49-.08-.7,.04-.18,.09-.34,.25-.43,.43-.07,.12-.12,.26-.14,.4-.02,.08-.05,.16-.06,.23-.02,.14,.02,.29,.08,.41,.02,.04,.03,.08,.06,.11,.04,.06,.08,.12,.14,.16,.06,.04,.13,.05,.2,.05,.06,.04,.13,.06,.2,.07,.03,.01,.05,.03,.08,.04,.07,.03,.12,.06,.2,.07,.02,0,.11,0,.12,0,0,0,0,0,.01,0,0,0-.01,0-.02,0,.14,0,.22-.11,.21-.25,0,0,0,.01,0-.02,0-.07-.01-.13-.04-.19,0,0,0-.02-.01-.03,.09-.08,.17-.18,.24-.27,.08-.11,.14-.24,.17-.37,.05-.18,.05-.35,.03-.53Z"/>
            </g>
          </g>
          <g>
            <path class="cls-19" d="M56.18,37.69c.33-.9-14.84,4.14-19.23,2.64,0,0-1.05,7.56,1.8,10.14,2.85,2.58,11.08,4.55,17.43-12.77Z"/>
            <path class="cls-20" d="M36.9,45.9h0c.22,1.78,.73,3.56,1.85,4.57,1.33,1.2,3.83,2.27,6.76,1.32l.17-2.31s-4.61-5.79-8.78-3.58Z"/>
            <path class="cls-1" d="M47.46,50.87c-.11-.34-.22-.65-.34-.89-.43-.84-4.39-.35-6.51-.37-.8,0-1.49,.27-2.06,.65,.07,.07,.14,.14,.21,.21,1.62,1.46,4.96,2.73,8.71,.4Z"/>
            <path class="cls-1" d="M54.09,37.9c-4.25,.94-13.81,3.57-17.15,2.43,0,0-.04,.32-.09,.84,.49,1.29,1.35,2.81,2.83,3.71,2.93,1.77,11.81-1.76,12.53-2.47,.62-.62,1.46-3.5,1.87-4.5Z"/>
            <path class="cls-1" d="M45.35,31.49c0,3.92-1.27,6.85-4.05,6.85s-5.04-3.18-5.04-7.09,3.73-6.71,6.51-6.71,2.57,3.04,2.57,6.95Z"/>
            <path class="cls-1" d="M46.37,30.36c0,3.6,1.16,6.3,3.72,6.3s4.63-2.92,4.63-6.52-3.42-6.17-5.98-6.17-2.36,2.79-2.36,6.39Z"/>
            <path class="cls-17" d="M43.59,20.51c-.13-.63-.89-1.21-1.46-1.42-.64-.24-1.37-.24-2.01-.02-1.16,.41-2.02,1.4-2.63,2.47-.17,.29-.32,.63-.25,.96,.19,.84,1.19,.65,1.81,.63,1.28-.06,2.37-.58,3.51-1.21,.54-.3,1.15-.8,1.02-1.41Z"/>
            <path class="cls-17" d="M46.72,23.13c.13-.63,.89-1.21,1.46-1.42,.64-.24,1.37-.24,2.01-.02,1.16,.41,2.02,1.4,2.63,2.47,.17,.29,.32,.63,.25,.96-.19,.84-1.19,.65-1.81,.63-1.28-.06-2.37-.58-3.51-1.21-.54-.3-1.15-.8-1.02-1.41Z"/>
            <path class="cls-13" d="M38.6,50.32c.05,.05,.1,.1,.15,.15,1.62,1.46,4.96,2.73,8.71,.4-.06-.19-.12-.37-.19-.54-2.78,.89-5.55,1.23-8.67,0Z"/>
            <path class="cls-13" d="M47.82,40.62c2.01-.58,3.98-1.26,5.97-1.89,.12-.33,.22-.62,.31-.83-4.25,.94-13.81,3.57-17.15,2.43,0,0-.04,.32-.09,.84,.04,.1,.08,.21,.13,.31,3.36,1.13,7.61,.08,10.84-.85Z"/>
            <path class="cls-21" d="M41.5,37.11c-2.61,0-4.72-2.98-4.72-6.65,0-.33,.04-.64,.09-.95-.21,.59-.33,1.23-.33,1.9,0,3.67,2.11,6.65,4.72,6.65,1.97,0,3.13-1.57,3.58-3.92-.56,1.81-1.65,2.97-3.34,2.97Z"/>
            <path class="cls-21" d="M50.35,35.27c-2.35,0-3.42-2.48-3.42-5.79,0-1.42-.03-2.71,.12-3.71-.41,1.06-.35,2.73-.35,4.64,0,3.31,1.07,5.79,3.42,5.79,1.97,0,3.63-1.89,4.11-4.46-.67,2.08-2.15,3.53-3.87,3.53Z"/>
            <g>
              <path class="cls-2" d="M43.58,31.67c0,1.28-1.03,2.31-2.31,2.31s-2.31-1.03-2.31-2.31,1.03-2.31,2.31-2.31,2.31,1.03,2.31,2.31Z"/>
              <path class="cls-17" d="M42.8,31.67c0,.84-.68,1.53-1.53,1.53s-1.53-.68-1.53-1.53,.68-1.53,1.53-1.53,1.53,.68,1.53,1.53Z"/>
              <path class="cls-1" d="M43.34,30.63c-.02-.07-.05-.13-.1-.18-.03-.02-.05-.04-.08-.06-.06-.04-.12-.06-.19-.06-.05,0-.1,0-.15,.03-.05,.01-.09,.04-.13,.08-.04,.03-.07,.07-.08,.12-.02,.04-.04,.09-.04,.14,0,.03,0,.07,0,.1,.02,.07,.05,.13,.1,.18,.03,.02,.05,.04,.08,.06,.06,.04,.12,.06,.19,.06,.05,0,.1,0,.15-.03,.05-.01,.09-.04,.13-.08,.04-.03,.07-.07,.08-.12,.02-.04,.04-.09,.04-.14v-.1Z"/>
              <path class="cls-1" d="M43.64,32.58s-.03-.07-.06-.1c-.01-.03-.02-.06-.03-.08-.03-.04-.06-.1-.11-.14-.04-.04-.09-.08-.14-.11-.05-.03-.1-.05-.16-.07-.06-.01-.12-.03-.17-.02-.12,0-.23,.03-.33,.09-.1,.07-.17,.13-.24,.23-.03,.04-.06,.09-.08,.13-.04,.07-.07,.15-.1,.23-.02,.06-.03,.12-.04,.18,0,.02,0,.03,0,.04,0,.05,0,.1,.02,.15,.04,.14,.12,.26,.25,.35,0,0,.02,.01,.03,.01,.04,.02,.08,.04,.12,.05,.03,0,.05,.01,.08,.02,.03,0,.06,.01,.09,.01,.01,0,.03,0,.04,0,.02,0,.04,0,.06,.01,.04,0,.07,.01,.11,.01,.07,0,.15,0,.22-.03,.12-.04,.19-.08,.28-.15,.14-.11,.23-.3,.23-.48,0-.12-.02-.23-.07-.34Z"/>
              <path class="cls-1" d="M40.49,32.31c-.02-.19-.07-.37-.14-.55-.07-.18-.14-.39-.34-.45-.23-.07-.46,.08-.53,.3-.03,.09-.04,.19-.03,.29,0,.1,.02,.2,.04,.3,.05,.19,.13,.41,.3,.51,.05,.05,.1,.1,.16,.13,.12,.07,.27,.06,.38-.04,.14-.12,.16-.32,.15-.49Z"/>
            </g>
            <g>
              <path class="cls-5" d="M52.13,30.98c0,1.28-1.03,2.31-2.31,2.31s-2.31-1.03-2.31-2.31,1.03-2.31,2.31-2.31,2.31,1.03,2.31,2.31Z"/>
              <path class="cls-17" d="M51.35,30.98c0,.84-.68,1.53-1.53,1.53s-1.53-.68-1.53-1.53,.68-1.53,1.53-1.53,1.53,.68,1.53,1.53Z"/>
              <path class="cls-1" d="M51.9,29.94c-.02-.07-.05-.13-.1-.18-.03-.02-.05-.04-.08-.06-.06-.04-.12-.06-.19-.06-.05,0-.1,0-.15,.03-.05,.01-.09,.04-.13,.08-.04,.03-.07,.07-.08,.12-.02,.04-.04,.09-.04,.14,0,.03,0,.07,0,.1,.02,.07,.05,.13,.09,.18,.03,.02,.05,.04,.08,.06,.06,.04,.12,.06,.19,.06,.05,0,.1,0,.15-.03,.05-.01,.09-.04,.13-.08,.04-.03,.07-.07,.08-.12,.02-.04,.04-.09,.04-.14v-.1Z"/>
              <path class="cls-1" d="M52.19,31.9s-.03-.07-.06-.1c-.01-.03-.02-.06-.04-.08-.03-.04-.06-.1-.11-.14-.04-.04-.09-.08-.14-.11-.05-.03-.1-.05-.16-.07-.06-.01-.12-.03-.17-.02-.12,0-.23,.03-.33,.09-.1,.07-.17,.13-.24,.23-.03,.04-.06,.09-.08,.13-.04,.07-.07,.15-.1,.23-.02,.06-.03,.12-.04,.18,0,.01,0,.03,0,.04,0,.05,0,.1,.02,.15,.04,.14,.12,.26,.24,.35,0,0,.02,.01,.03,.02,.04,.02,.08,.04,.12,.05,.03,0,.05,.01,.08,.02,.03,0,.06,.01,.09,.01,.01,0,.03,0,.04,0,.02,0,.04,0,.06,.01,.04,0,.07,.01,.11,.01,.07,0,.15,0,.22-.03,.12-.04,.19-.08,.28-.15,.14-.11,.22-.3,.23-.48,0-.12-.03-.23-.07-.34Z"/>
              <path class="cls-1" d="M49.04,31.63c-.02-.19-.07-.37-.14-.55-.07-.18-.14-.39-.34-.45-.23-.07-.46,.08-.53,.3-.03,.09-.04,.19-.03,.29,0,.1,.02,.2,.04,.3,.05,.19,.13,.41,.3,.51,.05,.05,.1,.1,.16,.13,.12,.07,.27,.06,.38-.04,.14-.12,.16-.31,.15-.49Z"/>
            </g>
          </g>
          <g>
            <path class="cls-17" d="M62.62,107.78c-.69-.28-1.27-.98-1.72-1.64-.12-.18-.23-.35-.33-.51-.1-.15-.19-.31-.28-.47-.71-1.29-1.16-2.71-1.56-4.12-1.98-7.05-3.14-14.32-3.47-21.63-.42-.03-.85-.07-1.27-.1-.83-.06-1.64-.06-2.44-.01,.09,.27,.18,.55,.28,.82,.64,1.76,1.52,3.51,1.45,5.38-.04,1.01-.37,1.99-.4,3-.06,1.57,.58,3.07,1.2,4.51,.81,1.88,1.63,3.77,2.45,5.66,.76,1.76,1.58,3.32,1.8,5.26,.18,1.62,.03,3.29-.48,4.84,0,.03,3.25,.36,3.56,.37,.61,.01,1.22,0,1.83-.03,.32-.02,1.21,.05,1.35-.38,.19-.59-1.55-.77-1.94-.93Z"/>
            <path class="cls-17" d="M51.14,108.06c-.71-.21-1.37-.84-1.88-1.45-.14-.16-.27-.32-.39-.48-.11-.14-.22-.29-.32-.44-.84-1.21-1.44-2.57-1.98-3.94-2.68-6.73-4.59-13.76-5.69-20.91-1.21,0-2.53-.13-3.8-.1,.14,.32,.28,.63,.43,.93,.82,1.68,1.88,3.33,2,5.2,.06,1.01-.16,2.02-.09,3.03,.11,1.56,.9,2.99,1.67,4.36,1.01,1.79,2.02,3.58,3.03,5.37,.94,1.67,1.92,3.14,2.34,5.04,.35,1.6,.37,3.27,.03,4.87,0,.03,3.27,.02,3.58,0,.61-.05,1.21-.12,1.81-.22,.32-.05,1.21-.08,1.3-.52,.13-.61-1.63-.6-2.03-.72Z"/>
            <path class="cls-17" d="M95.38,46.49c-.61-.49-1.27-.99-2.04-1.11-.39-.06-.79-.02-1.18,.03-1.99,.22-4,.52-6,.58-3.29,.1-6.58,.2-9.87,.3-.91,.03-1.81,.05-2.72,.07,.41,.46,.82,.92,1.24,1.36,.63,.67,1.31,1.3,1.85,2.05,0,0,0,0,0,.01,.1-.02,.19-.05,.29-.07,.82-.17,1.65-.33,2.47-.5,.9-.18,1.79-.36,2.69-.54,.75-.15,1.5-.3,2.26-.45,1.04-.21,2.09-.39,3.12-.63,.15-.03,.27-.09,.41-.15,.34-.13,.74-.12,1.1-.14,.13-.01,.26-.02,.38,.02,.2,.06,.35,.23,.5,.37,.61,.57,1.52,.81,2.33,.6,.21,.73,1.23,.94,1.89,.56,.36-.21,.64-.52,.78-.9,.15-.39,.42-.72,.59-1.11,.02-.06,.05-.12,.04-.18-.02-.08-.08-.13-.14-.18Z"/>
            <path class="cls-8" d="M58.24,108.87c.16-.21,1.54-.07,1.77-.08,1.66-.04,3.32-.06,4.98-.1,5.62-.13,11.06-.75,16.28-2.92,.17,1.09-.42,2.17-1.15,3-.88,1.01-2,1.81-3.23,2.34-1.14,.49-1.94,.58-3.1,.25-1.38-.39-3.01-.17-4.43-.17-1.68,0-3.36,0-5.04,0-1.48,0-2.96,0-4.43,0-1.13,0-2.25,0-3.38,0,0,0,1.73-2.32,1.73-2.33Z"/>
            <path class="cls-16" d="M41.32,108.54c.11-.2,1.73-.03,1.93-.03,1.79,0,3.58,.03,5.37,.04,.93,0,1.85-.11,2.78-.17,1.5-.1,3.01-.22,4.51-.41,2.97-.36,5.92-.95,8.73-2.02,.86-.33,1.71-.7,2.54-1.12,.54,.32,.5,1.13,.26,1.71-.67,1.62-2.23,2.69-3.8,3.46-1.39,.68-2.86,1.2-4.37,1.54-1.14,.25-1.96-.15-3.07-.21-1.98-.1-3.99,0-5.97,0-3.41,0-6.83,0-10.24,0h-.28s1.63-2.78,1.63-2.79Z"/>
            <path class="cls-9" d="M81.15,109.45c.79-.13,1.5-.6,2.24-.94,.81-.37,1.82-.59,2.56-.08-.51,.28-.84,.85-.83,1.43,.83-.1,1.66-.2,2.49-.3,.3-.04,.64-.06,.86,.15,.22,.21,.05,.7-.23,.61,.6,.18,1.15,.25,1.77,.25,.5,0,.99,.11,1.5,.1,1.37-.02,2.73-.1,4.09-.25,3.21-.35,6.6-1.02,9.55,.3-1.76,.25-3.53,.49-5.29,.74-.75,.1-1.58,.12-2.27,.42-.71,.31-1.57,.33-2.33,.45-2.44,.41-4.9,.73-7.36,.97-.57,.05-1.13,.11-1.7,.15-5.02,.41-10.07,.48-15.11,.55-1.13,.01-2.28,.03-3.34-.36-.48-.18-.94-.43-1.44-.56-1.33-.35-2.7,.21-4.02,.57-1.79,.48-3.66,.56-5.52,.64-4.53,.19-9.06,.38-13.59,.58-.45,.02-.93,.03-1.31-.22-.38-.25-.55-.86-.2-1.15-5.06-.45-10.13,0-15.18,.38-2.47,.19-4.93,.37-7.41,.43-.53,.01-1.07-.03-1.59-.03-.24,0-.5,.09-.74,.12-.65,.09-1.32,.05-1.96,.15-.13,.02-.25,.06-.37,.08-.38,.05-.79-.11-1.15-.22-.41-.12-.88-.36-.9-.78-.02-.27,.17-.52,.38-.7,.53-.48,1.23-.74,1.93-.93,2.13-.57,4.41-.57,6.55,0,.13,.04,.28,.07,.39-.02,.14-.11,0-.23-.08-.27-.07-.04-.14-.05-.22-.11-.09-.07-.18-.14-.28-.21-.46-.3-.99-.5-1.52-.65-.96-.27-1.97-.37-2.93-.67-.21-.07-.45-.18-.49-.4-.04-.28,.28-.47,.55-.55,2.77-.9,5.93-.52,8.41,1,.55,.34,1.1,.75,1.75,.8,.07-.51-.61-1.09-.22-1.43,.22-.19,.55-.04,.79,.12,.68,.43,1.32,.96,2.02,1.36,.09,.05,.19,.1,.29,.08,.25-.04,.28-.4,.17-.63-.1-.23-.28-.47-.2-.71,.13-.4,.74-.29,1.11-.09,1.24,.68,2.48,1.5,3.89,1.6,.39,.03,.81-.01,1.13-.24,.37-.26,.56-.72,.93-.97,.5-.34,1.17-.23,1.74-.02,1.26,.46,2.53,.7,3.81,1.06,.2,.06,.36,.14,.57,.15,.63,.04,1.26,.05,1.89,.07,1.26,.03,2.52,.03,3.77,.02,2.52-.04,5.03-.15,7.55-.28,.53-.03,1.06-.05,1.58-.08,1.65-.09,3.38-.19,4.82-1.01,.39-.22,.95-.46,1.2-.09,.09,.12,.1,.29,.2,.41,.31,.36,.75-.08,1.08,.07,.1,.04,.13,.14,.18,.22,.18,.29,.47,.34,.79,.35,2.05,.05,4.11,.02,6.16-.1,1.5-.08,2.95-.23,4.37-.69,.56-.18,1.1-.41,1.62-.67,1.05-.53,2.01-1.22,2.85-2.04,.19-.19,.39-.39,.64-.48,.25-.09,.58-.04,.71,.2,.15,.28-.04,.62-.23,.87-.37,.51-.74,1.02-1.1,1.53,.08,0,.16-.02,.24-.03Z"/>
            <path class="cls-16" d="M83.66,49.87c2.96-1.33,6.05-2.38,9.21-3.13,.57,.22,.59,1.09,.18,1.54-.4,.46-1.04,.61-1.63,.75-2.21,.54-4.37,1.29-6.43,2.24-.57,.26-1.57,.78-2.09,.15-.55-.67,.19-1.3,.77-1.55Z"/>
            <path class="cls-17" d="M72.46,54.43c.72-.28,1.43-.55,2.15-.83,.99-.38,1.99-.74,2.97-1.14,.14-.06,.25-.14,.38-.21,.31-.19,.71-.24,1.06-.33,.12-.03,.25-.06,.38-.05,.21,.02,.38,.17,.56,.28,.7,.46,1.64,.54,2.4,.2,.33,.68,1.38,.72,1.96,.24,.32-.26,.54-.62,.62-1.02,.08-.41,.29-.78,.39-1.2,.01-.06,.03-.13,0-.18-.03-.07-.1-.12-.17-.15-.69-.38-1.41-.76-2.2-.75-.39,0-.78,.12-1.16,.23-1.93,.55-3.86,1.19-5.82,1.59-3.23,.65-6.45,1.3-9.68,1.95-3.12,.63-6.25,1.26-9.43,1.47-6.84,.45-13.68-1.08-20.53-.76-1.06,.05-2.46,.52-2.34,1.58,.58,.25,1.23,.64,1.86,.75,2.36,.42,4.91,.41,7.31,.59,2.46,.18,4.91,.36,7.37,.48,1.38,.07,2.75,.14,4.13,.2,1.68,.07,3.36,.14,5.04,.19,1.57,.05,3.03-.13,4.58-.43,.58-.11,1.18-.32,1.78-.37,.12,0,.23,0,.35-.01,.38-.06,.77-.28,1.13-.42,.78-.3,1.57-.6,2.35-.9,.85-.33,1.7-.66,2.56-.98Z"/>
            <path class="cls-18" d="M131.77,47.65c-1.41-.01-2.82,.08-4.23,.12l-4.17,.14c-2.78,.09-5.56,.19-8.34,.28-5.58,.19-11.16,.37-16.73,.55-3.13,.1-6.27,.18-9.4,.34-.17,0-.18,.27-.01,.26,5.58-.1,11.16-.36,16.73-.56,5.58-.2,11.16-.39,16.73-.58,1.57-.05,3.13-.11,4.7-.16,1.56-.05,3.14-.06,4.7-.18,.14-.01,.16-.22,0-.22Z"/>
            <path class="cls-6" d="M87.58,115.06c1.58,2.67,4.97,3.65,8.07,3.83-2.63,1.1-5.71,1.08-8.32-.05-.95-.41-1.88-.97-2.91-.95-1.06,.02-2,.66-2.92,1.19-1.27,.72-2.63,1.26-4.05,1.61,1.97-1.21,3.82-2.6,5.53-4.16-.1,.09-.47,.11-.61,.15-.22,.06-.44,.12-.66,.19-.44,.14-.87,.29-1.3,.47-.85,.35-1.67,.78-2.45,1.27-.75,.47-1.33,1.08-2.03,1.61-.77,.58-1.57,1.11-2.47,1.47-2.65,1.05-5.63,.33-8.38-.41,2.48-.39,4.73-2.06,5.82-4.32-1.68-.15-2.85,1.59-4.36,2.33-1.28,.63-2.8,.52-4.19,.22-1.35-.29-2.66-.73-3.91-1.33-.67-.32-1.36-.7-2.1-.71-.56,0-1.09,.19-1.61,.38-2.24,.83-4.5,1.65-6.85,2-2.36,.35-4.85,.19-6.99-.88-.46-.23-.96-.69-.76-1.15,.21-.48,1.08-.67,.91-1.16-.07-.21-.31-.3-.52-.36-.85-.23-1.74-.34-2.63-.33-.72,.01-1.44,.19-2.16,.07-1.9-.31-3.89-.04-5.8,.02-4.62,.14-9.23,.27-13.85,.41-1.22,.04-2.53,.21-3.75,.08-.27-.03-.48-.06-.76-.04-.76,.07-1.52,.16-2.28,.23-3.05,.25-6.11,.32-9.17,.21-.38-.47,.38-1.02,.98-1.15,3.26-.69,6.57-1.04,9.87-1.22,1.21-.07,2.3-.73,3.34-1.27,.33-.17,.67-.34,1.03-.45,2.42-.74,5.25,1.09,7.48-.1-.59-1-1.45-1.84-2.46-2.41,1.27-.66,2.83-.07,4.06,.68s2.47,1.67,3.9,1.68c.02-.33,.04-.65,.06-.98,.01-.2,.91,.04,1.01,.09,.07,.04,.13,.09,.2,.14,.18,.13,.37,.19,.58,.27,.48,.18,.96,.35,1.45,.53,.25,.09,.61,.12,.68-.13,.03-.12-.03-.24-.01-.36,.05-.34,.55-.3,.87-.16,.64,.28,1.27,.56,1.91,.85,.39,.17,.94,.29,1.15-.07,.06-.1,.07-.22,.12-.32,.13-.29,.49-.41,.81-.37,.32,.04,.6,.19,.89,.33,.66,.31,1.38,.5,2.11,.58,.37,.04,.75,.05,1.12,.03,.33-.02,.66-.11,.99-.08,.75,.08,1.53-.02,2.29-.06,.84-.04,1.68-.08,2.52-.12,3.36-.16,6.72-.32,10.08-.48,1.9-.09,3.8-.18,5.7-.27,2.08,.09,4.17,.18,6.25,.27,1.39,.06,2.89-.08,4.24,.33,.46,.14,.88,.28,1.37,.29,1.64,.05,3.31-.14,4.95-.24,3.33-.21,6.66-.47,9.99-.76,.86-.08,1.74-.21,2.6-.18,.32,.01,.56,0,.89-.07,.78-.17,1.57-.33,2.35-.47,1.58-.27,3.17-.46,4.77-.57,3.19-.21,6.41-.09,9.58,.35,.89,.13,1.77,.28,2.65,.45-.41-.08-1.07,.13-1.49,.19-.5,.06-1,.12-1.49,.19-1,.13-1.99,.25-2.99,.38-1.38,.18-2.97,.44-4.14,1.22-.84,.55-1.59,1.27-2.54,1.62-.87,.32-1.82,.29-2.74,.26-1.05-.03-2.11-.07-3.16-.1-.97-.03-1.97-.14-2.94-.09-.27,.01-.53,.1-.8,.09-.87-.02-1.73-.24-2.62-.23,0,.01,.01,.02,.02,.03Z"/>
            <path class="cls-11" d="M87.55,114.27c3.24-.05,6.55-.66,9.75-.13,1.25,.2,2.74,.5,3.61-.41-1.46,.16-2.98-.34-4.07-1.32,.91-.31,1.84-.58,2.78-.8,.86-.2,1.82-.24,2.65-.53,.8-.28,1.74-.2,2.58-.2,.98,0,1.95,.04,2.93,.1,1.46,.1,2.91,.26,4.35,.48-.77-.15-1.54-.28-2.31-.39-3.17-.45-6.39-.56-9.58-.35-1.6,.11-3.19,.29-4.77,.57-.97,.17-2.06,.59-3.04,.54-.31-.02-.59-.16-.9-.17-.5-.02-1.03,.08-1.52,.12-2.15,.19-4.31,.38-6.46,.58,.33-.29,.66-.58,1-.87-1.57,.36-3.13,.73-4.7,1.09,.5-.45,1-.9,1.49-1.35-4.06,1.15-8.33,1.13-12.55,1.11-3.89-.02-7.79-.13-11.68,.06-3.36,.16-6.72,.32-10.08,.48-.84,.04-1.68,.08-2.52,.12-.76,.04-1.54,.13-2.29,.06-.33-.03-.66,.06-.99,.08-.37,.02-.75,.01-1.12-.03-.73-.08-1.44-.27-2.11-.58-.29-.13-.57-.29-.89-.33-.32-.04-.68,.08-.81,.37-.05,.1-.06,.22-.12,.32-.21,.37-.77,.25-1.15,.07-.64-.28-1.27-.56-1.91-.85-.31-.14-.82-.18-.87,.16-.02,.12,.04,.24,.01,.36-.07,.25-.43,.22-.68,.13-.48-.18-.96-.35-1.45-.53-.21-.08-.4-.14-.58-.27-.07-.05-.12-.1-.2-.14-.1-.05-1-.28-1.01-.09-.02,.33-.04,.65-.06,.98-1.44-.01-2.67-.94-3.9-1.68s-2.78-1.34-4.06-.68c1.01,.57,1.87,1.41,2.46,2.41-2.23,1.19-5.06-.64-7.48,.1-.36,.11-.7,.27-1.03,.45-1.05,.54-2.14,1.21-3.34,1.27-3.3,.18-6.61,.54-9.87,1.22-.56,.12-1.27,.62-1.03,1.07,3.25-.72,6.33-1.56,9.71-1.65,3.19-.09,5.83-2.07,9.03-1.74,1.47,.15,2.88,.39,4.36,.21,.38-.04,.74-.16,1.11-.23,1-.18,2.02,.31,2.92,.68,2.08,.86,4.37,1.18,6.6,.91-.47-.33-.94-.66-1.41-.99,2.08-.32,4.15,1.2,6.22,.77,.63-.13,1.22-.44,1.85-.57,1.49-.31,2.98,.38,4.48,.65,2.07,.36,4.19-.1,6.26-.48,4.21-.78,8.49-1.24,12.77-1.25,3.55,0,7.09,.29,10.62,.58-.7,.53-1.4,1.05-2.11,1.58,.89-.19,1.78-.37,2.67-.56,.67-.14,1.44-.43,2.12-.44,.24,0,.49,.06,.74,.08,.73,.04,1.46,.1,2.18,.2,1.47,.21,2.92,.55,4.32,1.03-.5-.26-1.97-1.05-1.63-1.89,1.53,.43,3.09,.54,4.68,.51Z"/>
            <path class="cls-9" d="M88.04,105.22c-.39-.18-.86-.05-1.24,.11-.2,.09-.39,.21-.55,.35-.07,.06-.14,.13-.2,.2-.1,.11-.16,.2-.18,.36-.05,.07-.09,.15-.13,.24-.09,.23,.08,.46,.28,.54,.7,.28,1.58,.07,2.09-.47,.17-.18,.34-.41,.35-.67,.01-.3-.16-.54-.42-.66Z"/>
            <path class="cls-9" d="M85.07,105.52s-.07-.08-.12-.1c-.02-.01-.05-.02-.08-.02-.04-.01-.08-.01-.12,0-.07,0-.13,.03-.19,.06-.06,.02-.11,.07-.16,.11-.08,.07-.13,.16-.17,.25-.03,.04-.05,.08-.07,.13-.02,.04-.02,.08-.03,.13,0,.02,0,.04,0,.06,0,.1,.02,.17,.06,.26,.04,.09,.15,.15,.25,.16,.06,0,.11,0,.16-.04,.05-.03,.08-.06,.11-.11l.39-.53s.02-.05,.03-.07c0-.03,0-.05,.01-.08,0-.07-.02-.14-.06-.2Z"/>
            <path class="cls-9" d="M90.8,107.98l-.06-.09c-.05-.05-.11-.09-.18-.11-.03-.01-.05-.02-.08-.03-.06-.01-.12-.03-.18-.03-.04,0-.09,0-.13,0-.05,0-.09,0-.14,.02-.06,.01-.12,.04-.18,.06-.01,0-.03,.01-.04,.02,0,0-.01,0-.02,0-.03,.02-.08,.05-.1,.07-.04,.04-.07,.08-.1,.12-.01,.01-.03,.02-.04,.03-.02,.02-.04,.05-.06,.07-.03,.04-.04,.08-.05,.13-.02,.08,0,.16,.04,.24,.07,.15,.22,.25,.37,.3,.13,.04,.27,.04,.4,.02,.27-.05,.52-.25,.59-.52,.03-.1,.03-.23-.03-.32Z"/>
            <path class="cls-9" d="M29.45,107.96s-.02-.06-.03-.09c-.02-.05-.04-.11-.07-.16-.06-.09-.11-.19-.19-.27-.1-.11-.23-.17-.36-.23-.22-.09-.5-.11-.73-.02-.06,.01-.11,.03-.15,.07-.05,.03-.08,.07-.11,.11-.06,.1-.07,.2-.05,.31,.03,.16,.1,.29,.2,.41,.03,.04,.08,.07,.12,.1,0,.02,.02,.04,.03,.06,0,.02,0,.05,.02,.07,.03,.06,.08,.09,.13,.13,.02,.02,.05,.04,.08,.05,.1,.06,.2,.08,.32,.09,.17,.02,.36-.02,.5-.11,.1-.06,.18-.14,.24-.24,.05-.09,.08-.19,.05-.29Z"/>
            <path class="cls-9" d="M14.46,109.39c-.36-.39-.88-.61-1.41-.64-.24-.01-.49,.02-.72,.09-.13,.04-.27,.09-.39,.16-.08,.05-.16,.12-.23,.19-.15,.07-.28,.17-.38,.31-.05,.07-.09,.16-.12,.24,0,.03-.02,.05-.02,.08,0,0-.04,.23-.02,.1,.02-.12-.02,.11-.02,.13-.01,.46,.38,.9,.82,.99,.4,.08,.8,0,1.18-.14,.41-.14,.79-.32,1.15-.56,.16-.11,.27-.23,.3-.43,.03-.19-.02-.37-.15-.52Z"/>
            <g>
              <path class="cls-9" d="M10.02,111.53s.02-.01,.02-.02c0,0-.01,.01-.02,.01,0,0,0,0,0,0Z"/>
              <path class="cls-9" d="M10.34,111.31s0-.09,0-.09c0,0,0,0,0,0,0-.01-.01-.03-.02-.04-.01-.04-.04-.08-.07-.12,0,0,0,0,0,0,0,0,0,0,0,0-.02-.02-.05-.04-.07-.06,0,0,0,0-.01,0-.03-.02-.06-.03-.09-.04-.03-.01-.08-.02-.11-.02,0,0-.02,0-.03,0-.03,0-.07,0-.1,0,0,0,0,0-.01,0-.02,0-.06,.02-.09,.03,0,0-.06,.04-.07,.05h0s-.08,.11-.05,.07c0,0,0,0,0,0,0,0-.03,.07-.03,.07,0,0,0,0,0,0,0,0-.02,.01-.03,.02-.01,.01-.02,.02-.02,.04,0,.01-.01,.03-.01,.04,0,.04,0,.08,.02,.12,.04,.07,.09,.13,.16,.17,.04,.02,.08,.04,.13,.06,0,0,0,0,.01,0,.04,.02,.07,.04,.12,.04,.03,0,.06,0,.08,0,.04,0,.08-.01,.12-.03,0,0,0,0,.02,0,.01,0,.06-.04,.07-.05,0,0,0,0,0,0,.01-.01,.02-.02,.03-.04,.03-.04,.03-.03,.05-.08,0-.01,.02-.03,.02-.04,0,0,0,0,0,0,0,0,.01-.08,.02-.09,0,0,0,0,0,0h0Z"/>
            </g>
            <path class="cls-6" d="M77.11,109.81c-.1-.18-.25-.25-.44-.28-.24-.04-.48,0-.72,.03-.21,.03-.41,.08-.6,.15-.14,.05-.26,.1-.38,.18-.12,.08-.22,.15-.28,.29-.03,.06-.04,.12-.05,.19-.08,.11-.15,.22-.2,.35-.07,.22,.06,.47,.29,.54,.46,.15,.94,.1,1.38-.08,.2-.08,.39-.2,.56-.34,.17-.14,.3-.33,.44-.51,.11-.15,.1-.38,.02-.53Z"/>
            <path class="cls-6" d="M73.09,110.56s-.03-.07-.05-.1c-.03-.05-.07-.08-.11-.11,0,0-.01-.01-.02-.02-.06-.04-.12-.05-.18-.06-.07,0-.13,.01-.19,.05,0,0-.01,0-.02,.01-.03,.02-.06,.04-.09,.06-.04,.04-.07,.08-.09,.13-.02,.03-.03,.06-.03,.1-.01,.05-.01,.11,0,.16,.01,.04,.03,.08,.05,.12,0,0,0,.01,.01,.02,.06,.12,.19,.2,.33,.21,.07,0,.14-.01,.2-.05,.06-.03,.11-.08,.15-.14,0,0,0-.01,.01-.02,0,0,0,0,0,0,0,0,0,0,0,0,0-.02,.02-.03,.02-.05,.01-.02,.02-.03,.02-.05,0-.04,.01-.07,.02-.11,0-.06,0-.11-.03-.16Z"/>
            <path class="cls-9" d="M92.94,108.54s0-.04,0-.06c0,0,0,0,0-.01,0-.02-.01-.04-.02-.06,0-.02-.02-.03-.04-.05-.02-.02-.04-.03-.06-.05-.02-.01-.04-.02-.07-.03-.01,0-.02,0-.03,0-.02,0-.05-.01-.08,0,0,0,0,0-.01,0,0,0,0,0,0,0-.02,0-.04,0-.06-.01-.02,0-.04,0-.06,0-.03,0-.06,.02-.08,.04-.03,.02-.05,.04-.06,.06,0,0-.02,.05-.03,.05,0,0,0,.04,0,.03,0,.01,0,.02,0,.04,0,0,0,0,0,0h0s0,.05,0,.07c0,0,0,0,0,.01,0,.02,.01,.04,.02,.06,0,0,0,0,0,0,0,0,0,0,0,0,.01,.02,.02,.03,.04,.05,0,0,0,0,.01,.01,.02,.02,.04,.04,.07,.05,.02,.01,.04,.02,.06,.03,0,0,.01,0,.02,0,.03,0,.05,.01,.08,.02,.01,0,.02,0,.03,0,.02,0,.04,0,.06,0,.02,0,.04-.01,.06-.02,.02-.01,.05-.03,.06-.04,0,0,0,0,0,0,.01-.01,.02-.03,.04-.04,0-.01,.01-.02,.02-.04,0-.01,.01-.02,.02-.04,0-.02,0-.04,0-.05,0,0,0,0,0,0,0,0,0,0,0,0Z"/>
            <path class="cls-12" d="M53.1,113.49c.59,0,1.21,.23,1.78,.36,3.87,.92,7.53,3.38,11.64,2.97-1.46,1.11-3.52,.86-5.28,.34-1.75-.53-3.53-1.29-5.34-1.06-1.89,.24-3.46,1.5-5.22,2.24-2.35,.98-5.1,.96-7.45-.05-.27-.12-.57-.29-.61-.59-.02-.21,.1-.41,.23-.58,.58-.74,1.35-1.31,2.22-1.67,2.05-.84,4.31-1.18,6.46-1.72,.51-.12,1.03-.25,1.56-.24Z"/>
            <path class="cls-12" d="M65.79,115.06c.94,.05,1.89-.03,2.81-.22,.51-.11,1.09-.21,1.52-.51,.94-.67,2.07-1.14,3.2-1.36,.73-.14,1.75-.06,2.08,.75-1.26,.61-2.52,1.23-3.77,1.84-.62,.3-1.26,.61-1.94,.73-1.64,.29-3.25-.5-4.71-1.3,.26,.03,.53,.06,.8,.07Z"/>
          </g>
        </g>
      </g>
    </g>
  </g>
</svg>