<?xml version="1.0" encoding="UTF-8"?>
<svg id="Layer_2" data-name="Layer 2" xmlns="http://www.w3.org/2000/svg" viewBox="0 0 738.69 706.08">
  <defs>
    <style>
      .cls-1 {
        fill: #f16978;
      }

      .cls-2 {
        fill: #e5a016;
      }

      .cls-3 {
        opacity: .69;
      }

      .cls-4 {
        fill: #fff;
      }

      .cls-5 {
        fill: #a6e3ff;
      }

      .cls-6 {
        fill: #5e94ea;
      }

      .cls-7 {
        fill: #5488d3;
      }

      .cls-8 {
        fill: none;
        stroke: #9d613a;
        stroke-miterlimit: 10;
        stroke-width: 4px;
      }

      .cls-9 {
        fill: #a86b42;
      }

      .cls-10 {
        fill: #f13d1c;
      }

      .cls-11 {
        fill: #f5f7f7;
      }

      .cls-12 {
        fill: #9d613a;
      }

      .cls-13 {
        fill: #f4e598;
      }

      .cls-14 {
        fill: #939899;
      }

      .cls-15 {
        fill: #f3efef;
      }

      .cls-16 {
        fill: #9f683c;
      }

      .cls-17 {
        fill: #eaeaea;
      }

      .cls-18 {
        fill: #44332b;
      }

      .cls-19 {
        fill: #e5e5e5;
      }

      .cls-20 {
        opacity: .1;
      }

      .cls-21 {
        fill: #4d82c1;
      }

      .cls-22 {
        fill: #dd341d;
      }

      .cls-23 {
        fill: #e26174;
      }

      .cls-24 {
        fill: #b27544;
      }

      .cls-25 {
        fill: #f44831;
      }

      .cls-26 {
        fill: #f7cd1c;
      }

      .cls-27 {
        fill: #8075a0;
      }

      .cls-28 {
        fill: #d12f1e;
      }

      .cls-29 {
        fill: #f9e8eb;
      }

      .cls-30 {
        fill: #ececec;
      }

      .cls-31 {
        opacity: .56;
      }

      .cls-32 {
        fill: #f24a33;
      }

      .cls-33 {
        fill: #353332;
      }
    </style>
  </defs>
  <g id="Layer_1-2" data-name="Layer 1">
    <g>
      <path class="cls-4" d="M15.72,440.13s4.21,1.74,11.56,5.04c1.87,.76,3.95,1.6,6.23,2.52,1.13,.47,2.31,.95,3.53,1.46,.61,.25,1.23,.51,1.87,.77,.64,.24,1.3,.49,1.97,.74,2.65,1.01,5.48,2.09,8.49,3.24,3.01,1.12,6.23,2.2,9.56,3.41,13.4,4.67,29.42,9.63,47.33,14.45,17.9,4.85,37.72,9.42,58.61,14.12,41.78,9.26,80.33,17.02,108.28,24.12,13.95,3.53,25.22,6.88,32.7,9.83,3.75,1.44,6.53,2.77,8.32,3.72,1.74,1,2.65,1.53,2.65,1.53,0,0-1.01-.24-2.94-.71-1.95-.42-4.89-.96-8.77-1.46-7.74-1.05-19.23-1.85-33.49-2.86-14.26-1.02-31.33-2.22-50.25-4.38-18.92-2.13-39.71-5.26-61.27-10.02-21.54-4.87-41.79-10.86-59.69-17.76-17.92-6.85-33.5-14.4-46.1-21.52-3.13-1.82-6.14-3.49-8.91-5.21-2.75-1.75-5.34-3.39-7.76-4.93-.6-.39-1.2-.77-1.78-1.14-.57-.4-1.13-.79-1.67-1.17-1.09-.76-2.14-1.5-3.15-2.21-2-1.42-3.83-2.71-5.47-3.87-6.39-4.94-9.84-7.7-9.84-7.7Z"/>
      <path class="cls-4" d="M0,471.39s4.02,2.28,11,6.5c.44,.26,.88,.54,1.34,.81,.47,.26,.96,.52,1.46,.8,.99,.54,2.04,1.12,3.13,1.71,2.16,1.2,4.5,2.5,7.02,3.9,2.54,1.35,5.32,2.69,8.2,4.18,1.44,.74,2.92,1.5,4.44,2.28,1.55,.72,3.14,1.45,4.78,2.21,12.95,6.14,28.59,12.6,46.29,18.38,17.69,5.8,37.38,11.07,58.41,15.37,41.98,8.78,81.42,13.04,110.27,17.42,14.4,2.19,26.14,4.42,33.88,6.85,3.88,1.19,6.73,2.38,8.54,3.28,1.73,.96,2.64,1.47,2.64,1.47,0,0-1-.22-2.9-.64-1.94-.36-4.88-.75-8.79-.98-7.81-.5-19.44-.19-33.92,.16-14.5,.35-31.89,.72-51.3-.13-9.7-.45-19.9-1.13-30.44-2.39-2.64-.29-5.3-.6-7.97-1-2.68-.39-5.37-.78-8.09-1.17-5.41-.94-10.92-1.83-16.44-3.06-22.14-4.54-42.72-11.45-60.63-19.41-17.93-7.95-33.11-17.08-45.09-25.63-1.5-1.06-2.97-2.1-4.4-3.11-1.38-1.08-2.72-2.13-4.03-3.15-2.6-2.06-5.08-3.94-7.31-5.81-2.19-1.92-4.22-3.71-6.1-5.36-.93-.82-1.82-1.61-2.67-2.37-.42-.38-.83-.75-1.24-1.11-.39-.38-.76-.75-1.13-1.11-5.83-5.74-8.97-8.94-8.97-8.94Z"/>
      <g>
        <path class="cls-20" d="M735.01,622.3c-2.03-16.79-14.82-32.07-39.41-40.17-62.67-20.65-111.94-11.95-259.98-45.48-110.8-25.1-177.09-39.56-177.09-39.56-35.18-6.07-86.69-8.99-112.43,12.92-15.82,13.46-25.33,45.36-16.06,62.94,1,9.41,4.98,17.38,12.94,21.34,50.28,25.01,124.5,9.98,232.05,27.53,115.93,18.91,216.08,71.79,216.08,71.79,40.9,17.12,90.53,20.74,128.96-16.01,17.6-16.82,23.06-37.84,14.94-55.31Z"/>
        <path class="cls-4" d="M532.54,411.11c1.66-2.48,3.86-5.82,6.69-4.87,2.17,.73,2.97,3.59,2.55,5.84-10.3,55.42-76.94,32.51-88.61,26.82,.25,.12,4.67-19.5,5.96-20.33,3.65-2.36,5.11-.15,8.72,1.12,24.59,8.62,58.32,.95,64.69-8.58Z"/>
        <path class="cls-27" d="M465.73,551.36c-14.49,12.75-37.26,25.02-54.91,21.96-1.78-.31-6.84-3.35-6.61-4.73,.23-1.38,2.33-3.81,3.3-4.81,1.19-1.23,2.38-2.32,4.86-4.4,12.61-10.57,29.68-11.46,43.52-20.35,3.53-2.27,7-4.88,11.1-5.75,3.11-.66,7.57-1.83,9.89,.48,3.07,3.06,1.22,6.72-11.15,17.6Z"/>
        <g>
          <path class="cls-7" d="M570.28,659.36s-100.14-52.88-216.08-71.79c-107.56-17.54-181.78-2.51-232.05-27.53-22.88-11.38-12.96-55.86,6.5-72.42,25.75-21.91,77.25-18.99,112.43-12.92,0,0,66.29,14.46,177.09,39.56,148.05,33.53,197.32,24.83,259.98,45.48,45.94,15.14,50.68,55.32,21.08,83.62-38.44,36.74-88.06,33.13-128.96,16.01Z"/>
          <path class="cls-6" d="M566.9,647.49s-100.14-52.88-216.08-71.79c-107.56-17.54-181.78-2.51-232.05-27.53-22.88-11.38-12.96-55.86,6.5-72.42,25.75-21.91,77.25-18.99,112.43-12.92,0,0,66.29,14.46,177.09,39.56,148.05,33.53,197.32,24.83,259.98,45.48,45.94,15.14,50.68,55.32,21.08,83.62-38.44,36.74-87.76,33.61-128.96,16.01Z"/>
          <path class="cls-21" d="M385.8,543.63c-8.19,.97-15.59,7.11-23.91,10.97-15.46,7.18-32.75,9.27-49.36,5.16-8.58-2.12,1.92-8.69,1.82-13.86-.05-2.53-.67-5.09-.13-7.56,.87-4,4.48-6.72,7.83-9.08,6.22-4.37,12.43-8.74,18.65-13.11,5.77-4.05,11.6-8.14,18.11-10.85,12.14-5.05,25.88-4.96,38.82-2.65,12.94,2.31,25.4,6.74,38.1,10.16,6.43,1.73,12.92,3.22,19.41,4.7,10.17,2.32,20.34,4.64,30.5,6.96,18.85,4.3,37.79,8.61,57.08,9.86,3.7,.24,8.48,1.33,8.82,5.02,.35,3.76-4.38,5.7-8.13,6.14-19.88,2.36-41.05-2.67-59.45,5.24-5.11,2.2-9.77,5.31-14.57,8.13-11.35,6.66-23.66,11.69-36.42,14.89-9.11,2.29-19.02,3.59-27.7,0-2.71-1.12-5.59-3.39-5.19-6.29,.37-2.69,3.32-4.16,4.78-6.45,2.77-4.32-.48-10.13-4.64-13.13-5.22-3.77-9.93-4.78-14.4-4.26Z"/>
        </g>
        <path class="cls-30" d="M358.35,37.91c2.9-2.34,33.63-19.05,66.05-19.64,9.81-.18,7.82,30.1,9.28,39.99,1.11,7.51,4.19,14.58,6.09,21.93,1.9,7.35,5.82,33.14-14,39.56-6.28,2.04-8.86,4.71-16.85-10.1-1.32-2.45-7.64-21.67-8.99-24.09-16.97-33.02-54.34-37.37-41.59-47.65Z"/>
        <path class="cls-4" d="M381.36,31.36c1.5,1.88,3.78,2.92,5.94,3.99,21.06,10.44,37.52,29.78,44.45,52.24,1.71,5.54,2.92,11.38,6.1,16.22,3.18,4.85,9.06,8.54,14.67,7.08,6.82-1.79,9.71-9.69,11.56-16.49,3.71-13.71,7.44-27.56,7.92-41.75,.38-11.54-1.42-23.15-5.3-34.02-1.75-4.91-4.14-9.94-8.51-12.78-5.38-3.5-12.38-2.85-18.68-1.66-12.94,2.45-25.94,6.55-37.66,12.62-5.33,2.76-26.26,7.33-20.47,14.56Z"/>
        <path class="cls-17" d="M337.68,509.05c3.3,14.22-18.02,19.67-12.33,32.24,10.24,22.65,36.88,3.37,42.47-5.04,4.22-6.36,5.68-9.46,7.47-16.76,7.58-30.87-56.21-30.03-16.26-70.67,1.83-1.86,1.04-5.45-.4-7.53-.76-1.09-1.96-1.77-3.16-2.34-12.52-6.01-23.37-16.28-35.03-4.04-15.52,16.28-20.11,44.8,17.25,74.15Z"/>
        <path class="cls-4" d="M384.65,461.04c-64.47-11.28-74.1-49.08-76.86-61.96-8.01-37.35,7.28-105.71,74.72-149.39,4.63-2.96,15.07-33.39,14.9-34.24-4.49-22.67-110.6-61.87-58.1-163.15,2.56-4.94,36.01-61.87,130.39-16.14,7.05,3.42,16.34,6.9,21.66,13.46,14.04,7.95,144.03,36.89,141,119.15-.82,9.6-6.68,18.25-14.22,24.26-7.53,6.01-29.02,42.1-124.05,21.77-.22,.94-2.18,1.18-2.39,2.13-1.86,8.57,1.62,21.33,2.53,30.05,1.09,10.41,2.35,20.81,3.6,31.2,2.28,18.91,4.08,37.61,4.9,56.53,1.47,33.89-12.9,144.72-118.1,126.33Z"/>
        <g>
          <path class="cls-19" d="M332.99,505.29c.02,.7,7.19,.78,7.89,.89,10.79,1.73,25.43,9.17,35.84,5.84-.76-1.13-9.4-12.64-9.82-12.92-9.68,4.93-33.96,4.43-33.9,6.19Z"/>
          <path class="cls-16" d="M366.23,540.51c.29-.26,2.11-1.21,2.44-1.42,.41-.27,.83-.54,1.24-.81,.32-.21,.64-.42,.99-.57,.07-.03,.15-.06,.23-.04,.07,.02,.12,.07,.17,.12,.66,.77,1.13,3.26,1.18,3.39-.77-.11-6.05-.84-6.24-.66Z"/>
          <path class="cls-26" d="M330.84,512.97c-.89,1.67-2.68,2.63-4.37,3.46-6.09,2.98-15.62,9.66-13.95,20.96,2.91,19.63,21.7,24.36,49.35,8.11,1.65-3.86,7.09-6.92,9.78-8.8,3.62-2.53,5.69,3.16,9.51-.09,6.32-5.36-.05-18.39-4.54-28.57-.58-1.32-3.66-11.77-5.06-11.42-14.27,3.57-27.14,7.52-41.31,8.87-.75,.07-1.34-4.06-1.81-3.48-2.1,2.57,3.59,8.75,2.41,10.96Z"/>
          <path class="cls-12" d="M358.43,515.06s-.28-.31-.87-.67c-.57-.37-1.44-.76-2.53-1.06-2.19-.61-5.27-.87-8.68-1.09-3.41-.22-6.54-.38-8.86-.33-1.16,.03-2.11,.11-2.78,.22-.33,.05-.6,.11-.78,.16-.18,.04-.28,.07-.28,.07,0,0,.08-.06,.23-.16,.15-.11,.38-.26,.68-.43,.6-.34,1.52-.75,2.68-1.1,2.32-.71,5.64-1.2,9.29-.96,3.65,.24,6.92,1.2,9.05,2.49,1.07,.64,1.82,1.36,2.25,1.92,.44,.56,.56,.96,.58,.94Z"/>
          <path class="cls-1" d="M351.99,519.1s-.07-.06-.21-.17c-.13-.11-.33-.28-.6-.44-.53-.35-1.33-.73-2.33-1.01-2.01-.58-4.84-.75-7.97-.86-3.14-.11-6.03-.14-8.17-.02-2.14,.09-3.55,.47-3.55,.47,0,0,.07-.05,.21-.15,.14-.1,.34-.25,.61-.41,.54-.33,1.37-.75,2.43-1.13,2.11-.77,5.18-1.4,8.58-1.28,3.4,.11,6.49,.99,8.45,2.27,.98,.62,1.66,1.33,2.04,1.87,.2,.26,.32,.49,.39,.65,.08,.15,.12,.23,.12,.23Z"/>
          <path class="cls-12" d="M346.23,524.04s-.28-.21-.74-.55c-.21-.19-.53-.34-.87-.53-.33-.21-.73-.38-1.18-.55-1.75-.74-4.25-1.21-7.01-1.62-2.77-.37-5.34-.66-7.27-.63-.97,0-1.77,.07-2.34,.16-.56,.1-.9,.15-.9,.15,0,0,.27-.19,.74-.52,.49-.31,1.25-.71,2.23-1.03,1.96-.69,4.83-1.06,7.93-.64,3.09,.46,5.78,1.69,7.36,3.1,.4,.34,.74,.66,1,1.01,.27,.32,.5,.59,.63,.87,.27,.5,.43,.8,.43,.8Z"/>
          <path class="cls-2" d="M364.01,540.96c15.51-12.28,20.13-16.73,19.25-20.21,1.35,2.49,1.81,9.06,1.84,11.59,.04,3.23-9.65,7.59-12.63,8.84-.49-.59-.89-2.55-1.37-3.13-6.57,2.74-4.63,5.7-6.23,7.52-9.69,6.95-21.39,9.81-31.11,10.51-4.1,.29-11.51-.66-13.88-4.7,17.19,5.43,38.9-6.26,44.14-10.42Z"/>
          <path class="cls-13" d="M321.18,543.01c4.29,4.59,31.8-1.36,38.51-11.63"/>
        </g>
        <path class="cls-12" d="M470.33,421.73c-.83-.94-1.17-2.2-1.46-3.41-.49-2-.89-4.17-.04-6.04,.83-1.8,2.65-2.9,3.92-4.42,1.21-1.43,1.91-3.2,2.6-4.93,1.44-3.65,2.89-7.3,4.33-10.95,1.29-3.26,2.74-6.72,5.66-8.64,2.93-1.93,7.76-1.28,8.85,2.05,.35,1.07,1.59,2.29,1.32,3.38-2.18,8.58-4.5,13.72-6.23,17.75-1.37,3.19-4.47,12.04-8.69,16.18-3.1,3.03-7.1,2.62-10.25-.96Z"/>
        <path class="cls-9" d="M317.99,522.13c33.97-11.91,42.5,17.69,48.31,25.76,2.96-.91,7.38-2.46,11.95-5.17-7.1-6.76-21.09-40.36-53-27.12-1.5,.62-9.06,5.39-7.26,6.53Z"/>
        <path class="cls-4" d="M432.83,518.21c-1.08,9.53-18.17,17.69-12.01,31.35,8.05,17.83,30.39,3.69,44.28-6.74,6.1-4.58,10.47-12.19,8.4-23.77-4.83-27.06-60.92-32.44-24.04-66.85,1.91-1.78,.59-5.52-1.02-7.47-.85-1.03-2.1-1.6-3.34-2.07-12.98-4.96-24.63-14.3-35.25-1.14-14.12,17.5-16.67,50.51,22.97,76.68Z"/>
        <g>
          <path class="cls-19" d="M427.16,513.14c.02,.7,5.19,1.05,5.89,1.16,10.79,1.73,26.11,5.01,36.51,1.67-.76-1.13,4.12-3.06-4.91-12.01-2.36,8.71-37.53,7.42-37.48,9.18Z"/>
          <path class="cls-16" d="M458.4,548.62c.29-.26,2.11-1.21,2.44-1.42,.41-.27,.83-.54,1.24-.81,.32-.21,.64-.42,.99-.57,.07-.03,.15-.06,.23-.04,.07,.02,.12,.07,.17,.12,.66,.77,1.13,3.26,1.18,3.39-.77-.11-6.05-.84-6.24-.66Z"/>
          <path class="cls-26" d="M423.02,521.08c-.89,1.67-2.68,2.63-4.37,3.46-6.09,2.98-15.62,9.66-13.95,20.96,2.91,19.63,21.7,24.36,49.35,8.11,1.65-3.86,7.09-6.92,9.78-8.8,3.62-2.53,6.36-1,10.19-4.25,6.32-5.36,1.81-19.18-2.69-29.36-.58-1.32-3.86-5.66-5.27-5.31-14.27,3.57-29.91,5.6-44.15,5.5-3.81-.03,2.29,7.49,1.12,9.69Z"/>
          <path class="cls-1" d="M450.6,523.17s-.28-.31-.87-.67c-.57-.37-1.44-.76-2.53-1.06-2.19-.61-5.27-.87-8.68-1.09-3.41-.22-6.54-.38-8.86-.33-1.16,.03-2.11,.11-2.78,.22-.33,.05-.6,.11-.78,.16-.18,.04-.28,.07-.28,.07,0,0,.08-.06,.23-.16,.15-.11,.38-.26,.68-.43,.6-.34,1.52-.75,2.68-1.1,2.32-.71,5.64-1.2,9.29-.96,3.65,.24,6.92,1.2,9.05,2.49,1.07,.64,1.82,1.36,2.25,1.92,.44,.56,.56,.96,.58,.94Z"/>
          <path class="cls-1" d="M444.16,527.21s-.07-.06-.21-.17c-.13-.11-.33-.28-.6-.44-.53-.35-1.33-.73-2.33-1.01-2.01-.58-4.84-.75-7.97-.86-3.14-.11-6.03-.14-8.17-.02-2.14,.09-3.55,.47-3.55,.47,0,0,.07-.05,.21-.15,.14-.1,.34-.25,.61-.41,.54-.33,1.37-.75,2.43-1.13,2.11-.77,5.18-1.4,8.58-1.28,3.4,.11,6.49,.99,8.45,2.27,.98,.62,1.66,1.33,2.04,1.87,.2,.26,.32,.49,.39,.65,.08,.15,.12,.23,.12,.23Z"/>
          <path class="cls-12" d="M438.4,532.15s-.28-.21-.74-.55c-.21-.19-.53-.34-.87-.53-.33-.21-.73-.38-1.18-.55-1.75-.74-4.25-1.21-7.01-1.62-2.77-.37-5.34-.66-7.27-.63-.97,0-1.77,.07-2.34,.16-.56,.1-.9,.15-.9,.15,0,0,.27-.19,.74-.52,.49-.31,1.25-.71,2.23-1.03,1.96-.69,4.83-1.06,7.93-.64,3.09,.46,5.78,1.69,7.36,3.1,.4,.34,.74,.66,1,1.01,.27,.32,.5,.59,.63,.87,.27,.5,.43,.8,.43,.8Z"/>
          <path class="cls-2" d="M456.19,549.07c15.51-12.28,20.8-20.89,19.92-24.37,1.35,2.49,1.81,9.06,1.84,11.59,.04,3.23-10.32,11.75-13.3,13-.49-.59-.89-2.55-1.37-3.13-6.57,2.74-.19,6.1-1.79,7.93-9.69,6.95-25.83,9.41-35.56,10.1-4.1,.29-11.51-.66-13.88-4.7,17.19,5.43,38.9-6.26,44.14-10.42Z"/>
          <path class="cls-13" d="M413.35,551.12c4.29,4.59,31.8-1.36,38.51-11.63"/>
        </g>
        <path class="cls-18" d="M629.45,123.75c-42.23-23.28-64.87,31.66-56.57,51.15,9.03,21.21,31.7,24.32,41.47,21.11,39.62-12.62,39.49-58.82,15.11-72.27Z"/>
        <path class="cls-30" d="M452.99,27.52c-2.14-3.06-120.45,52.15-150.33,64.74-9.04,3.81,15.34,29.53,19.91,35.59,5.64,7.49,20.55,35.32,39.93,52.01-12.6-22.21-14.25-69.18-10.05-77.33,30.34-26.35,29.39-38.3,40.73-49.18,28.73-27.57,63.31-18.64,59.81-25.83Z"/>
        <path class="cls-12" d="M452.13,85.26c12.77,3.63,26.21,8.44,34.03,19.16,3,4.12,5.04,9.3,4.04,14.3-2.42,12.13-19.08,14.62-26.88,24.23-4.88,6.01-6.07,14.68-11.88,19.8-5.79,5.11-14.33,5.14-22.05,4.89-13.56-.44-28.29-1.3-38.57-10.16-8.81-7.58-12.44-19.51-14.45-30.96-1.64-9.34-1.62-40.87,2.33-50.34,12.73-30.53,60.47,5.39,73.42,9.08Z"/>
        <path class="cls-12" d="M484.05,90.82c22.28,5.2,37.73-17.24,28.28-33.08-21.22-8.68-31.74-13.61-46.46-23.75-16.77-11.54-43.28-4.22-61.29,5.27-2.33,1.23-4.64,2.63-6.25,4.72-2.53,3.29-2.83,8.13-.74,11.72,3.25,5.55,9.82,5.56,15.37,6.63,8.53,1.65,16.82,4.28,24.92,7.4,15.8,6.09,29.7,17.24,46.17,21.08Z"/>
        <path class="cls-17" d="M439.7,185.51c12.13,22.78,68.16,35.79,97.61,35.14-65.03-13.81-92.89-27.92-97.61-35.14Z"/>
        <g>
          <path class="cls-22" d="M324.76,174.01c-17.7-19.05-40.5-35.71-66.48-36.9-4.9,10.76-6.98,22.79-5.97,34.57,.22,2.55,.62,5.21,2.1,7.3,1.41,1.99,3.63,3.23,5.77,4.4,22.7,12.43,45.4,24.86,68.1,37.29,8,4.38,16.15,17.1,24.97,19.41,6.9,1.81,21.91,2.59,28.78,.64-1.49-2.52,4.75-11.22,8.2-18.42-1.06-2.74-1.27-2.93-2.44-8.26-11.54,5.57-32.73-3.82-37.98-10.23-8.23-10.03-16.2-20.29-25.04-29.8Z"/>
          <path class="cls-10" d="M342.85,218.64c-9.28-12.47-16.61-27.14-29.66-35.57-11.16-7.21-24.95-8.8-38.21-9.63-19.25-1.21-38.57-1.25-57.82-.09-3.83,.23-8.27,.87-10.2,4.19-2.31,3.99,.53,8.82,1.85,13.23,2.32,7.77-.32,16.01-1.98,23.95-1.66,7.93-1.92,17.26,3.84,22.97,26.89-9.54,55.99-12.78,84.31-9.38,5.63,.68,11.38,1.66,16.27,4.53,6.66,3.91,10.91,10.8,16.4,16.22,15.93,15.74,40.43,17.89,62.79,19.13,.96-7.04,.9-14.21-.17-21.23-1.88-12.28-11.45-6.03-19.73-7.52-11.31-2.03-21.14-11.99-27.69-20.79Z"/>
          <path class="cls-25" d="M321.49,211.89c-1.66-4.66-8.62-18.33-3.25-25.01,3.24,2.29,7.59,6.51,8.37,8.94,.61,1.91,.79,3.92,.8,5.93,.11,15.51,2.22,31.11-.22,46.3-5.56-11.86-1.03-23.97-5.69-36.16Z"/>
          <path class="cls-22" d="M205.97,223.01c1.4-14.83,2.81-12.66,3.84-15.77,1.02-3.11,3.12-6.16,6.28-7.03,2.13-.59,4.39-.09,6.6-.04,2.21,.06,4.73-.54,5.79-2.47-3.23-1.4-6.94-.39-10.47-.46-3.52-.07-7.59-2.23-9.83-8.57,8.43-1.41,19.47,3.05,27.85,4.72,10.28,2.05,20.56,4.1,30.83,6.14,3.15,.63,7.56,1.8,8.26,5.35-10.89,.58-21.64-1.82-32.63-.54-12.37,1.43-26.06,11.88-36.51,18.67Z"/>
          <path class="cls-22" d="M187.51,172.8s.28-.19,.81-.47c.53-.28,1.3-.63,2.29-.94,1.95-.62,4.81-1,7.76-.21,2.94,.8,5.22,2.57,6.6,4.1,.7,.77,1.19,1.46,1.51,1.97,.32,.51,.47,.81,.47,.81,0,0-.3-.06-.83-.17-.53-.12-1.28-.29-2.18-.49-1.81-.42-4.23-.97-6.83-1.67-2.6-.7-4.94-1.45-6.7-2-.87-.28-1.59-.51-2.1-.68-.5-.17-.79-.27-.79-.27Z"/>
          <path class="cls-22" d="M186.01,182.17s.2-.29,.61-.76c.41-.48,1.05-1.1,1.95-1.75,.9-.65,2.07-1.28,3.45-1.73,1.38-.44,2.99-.7,4.66-.6,1.67,.11,3.23,.58,4.55,1.19,1.32,.64,2.4,1.4,3.21,2.17,.81,.76,1.38,1.46,1.72,1.99,.35,.52,.51,.83,.51,.83,0,0-.32-.07-.86-.18-.54-.13-1.33-.28-2.28-.45-.94-.18-2.06-.33-3.27-.48-1.22-.13-2.53-.25-3.91-.34-2.75-.17-5.28-.2-7.19-.1-.95,.05-1.75,.09-2.29,.15-.55,.04-.87,.07-.87,.07Z"/>
          <path class="cls-22" d="M191,191.7s.89-1,2.55-2.09c1.64-1.08,4.09-2.22,6.93-2.42,1.41-.1,2.89,.04,4.19,.44,1.31,.39,2.44,1.06,3.22,1.78,.79,.72,1.2,1.49,1.38,2.02,.1,.26,.13,.48,.16,.62,.02,.14,.03,.22,.03,.22,0,0-.06-.03-.18-.07-.12-.05-.27-.13-.49-.2-.42-.16-1.02-.32-1.78-.39-1.51-.17-3.6,.08-6.22,.3-2.64,.19-5.06,.13-6.85,.03-1.79-.1-2.95-.25-2.95-.25Z"/>
          <path class="cls-22" d="M189.61,198.86s4.41-3.24,9.98-3.41c1.38-.04,2.74,.09,4.04,.41,1.29,.31,2.46,.83,3.33,1.43,.88,.6,1.44,1.25,1.75,1.73,.16,.24,.26,.44,.32,.57,.06,.13,.09,.21,.09,.21,0,0-.27-.06-.74-.12-.47-.07-1.13-.11-1.95-.09-1.63,.02-3.86,.48-6.71,.58-5.57,.17-10.1-1.31-10.1-1.31Z"/>
          <path class="cls-22" d="M191.02,207.13s.34-.06,.88-.16c.55-.11,1.29-.27,2.13-.51,1.69-.46,3.62-1.24,5.97-1.57,2.36-.34,4.81-.04,6.57,.45,1.77,.47,2.92,1.05,2.92,1.05,0,0-.95,.58-2.51,1.28-1.59,.68-3.7,1.53-6.36,1.91-2.65,.38-5.31-.02-7.05-.8-.88-.37-1.52-.81-1.94-1.12-.41-.33-.62-.53-.62-.53Z"/>
          <path class="cls-22" d="M196.96,217.15s.68-.76,1.59-1.61c.93-.85,2.02-1.79,3.32-2.16,1.3-.37,2.73-.15,3.97,.08,1.22,.24,2.2,.53,2.2,.53,0,0-.33,.7-1.12,1.58-.78,.87-2.09,1.89-3.77,2.37-1.68,.48-3.31,.3-4.43-.03-1.12-.32-1.76-.75-1.76-.75Z"/>
          <path class="cls-22" d="M190.46,220.51s.1-.25,.48-.57c.37-.33,1.11-.67,2.09-.71,.97-.07,2.19,.25,3.23,.72,1.05,.47,1.97,1.01,2.66,1.36,.68,.35,1.4,.7,2.26,1.03,.84,.32,1.75,.62,2.56,.89,.81,.27,1.52,.52,2.01,.72,.49,.19,.78,.33,.78,.33,0,0-.22,.15-.63,.39-.41,.24-1.01,.57-1.82,.9-.8,.32-1.82,.65-3.08,.75-1.25,.11-2.81-.06-4.27-.83-1.45-.77-2.29-1.73-2.95-2.43-.66-.72-1.1-1.23-1.58-1.63-.46-.39-.87-.63-1.19-.76-.32-.13-.53-.16-.53-.16Z"/>
          <path class="cls-22" d="M187.98,234.85s1.13-.74,2.87-1.55c1.74-.8,4.06-1.69,6.66-1.98,2.6-.29,5.06,.06,6.94,.45,1.88,.4,3.15,.87,3.15,.87,0,0-.98,.67-2.68,1.45-1.69,.77-4.13,1.62-6.91,1.93-2.78,.31-5.33,.02-7.13-.36-1.81-.38-2.9-.82-2.9-.82Z"/>
          <path class="cls-22" d="M194.16,245.74s.91-1.02,2.37-2.26c1.48-1.25,3.47-2.74,5.89-3.76,2.4-1.03,4.95-1.36,6.71-1.61,.9-.14,1.67-.36,2.22-.6,.55-.24,.88-.45,.88-.45,0,0-.05,.34-.29,.91-.24,.57-.72,1.35-1.47,2.1-.74,.76-1.7,1.48-2.71,2.14-1.03,.68-2.22,1.33-3.52,1.88-2.61,1.1-5.17,1.53-7.03,1.66-1.86,.13-3.04,0-3.04,0Z"/>
          <path class="cls-22" d="M242.62,137.38s.21-.23,.6-.58c.4-.35,.99-.81,1.78-1.27,1.55-.91,3.93-1.74,6.54-1.47,2.61,.27,4.77,1.58,6.11,2.79,.68,.61,1.17,1.18,1.48,1.61,.32,.43,.47,.69,.47,.69,0,0-1.06,.01-2.64-.03-1.59-.05-3.68-.12-5.93-.35-2.25-.23-4.3-.59-5.85-.87-1.54-.28-2.56-.51-2.56-.51Z"/>
          <path class="cls-22" d="M239.85,143.88s.35,0,.91-.03c.56-.03,1.33-.14,2.16-.33,1.69-.37,3.59-1.17,6.07-1.42,2.54-.28,5.3,.4,6.91,1.57,.81,.57,1.33,1.17,1.62,1.63,.29,.46,.39,.74,.39,.74,0,0-.26-.02-.69-.07-.43-.04-1.05-.04-1.79,.01-1.49,.09-3.46,.56-5.98,.83-2.59,.28-5.31-.09-7.09-.99-.89-.43-1.53-.93-1.93-1.31-.39-.38-.57-.62-.57-.62Z"/>
          <path class="cls-22" d="M246.17,154.5s.77-.63,1.84-1.25c1.08-.62,2.41-1.24,3.8-1.19,1.39,.05,2.68,.78,3.71,1.48,1.02,.7,1.75,1.38,1.75,1.38,0,0-.57,.49-1.57,.97-1,.49-2.46,.95-4.07,.89-1.62-.06-3.02-.64-3.97-1.2-.95-.56-1.47-1.09-1.47-1.09Z"/>
          <path class="cls-22" d="M239.05,159.66s.27-.13,.8-.26c.52-.13,1.31-.23,2.24-.23,.93,0,1.99,.08,2.97,.11,.98,0,1.94,.01,2.94,.02,2.06,.03,4.32,.24,6.12,.51,1.8,.27,3.04,.65,3.04,.65,0,0-.84,.73-2.37,1.62-1.52,.86-3.86,1.97-6.9,1.95-1.5-.03-2.98-.41-4.16-.98-1.16-.57-1.97-1.21-2.63-1.73-.61-.5-1.13-.92-1.49-1.22-.35-.28-.56-.44-.56-.44Z"/>
          <path class="cls-22" d="M241.97,169.73s.81-.69,1.92-1.42c1.13-.74,2.5-1.54,4.04-1.75,1.54-.21,3.08,.2,4.37,.61,1.27,.41,2.23,.86,2.23,.86,0,0-.51,.65-1.54,1.4-1.01,.75-2.58,1.57-4.44,1.82-1.86,.25-3.58-.13-4.74-.58-1.17-.45-1.83-.94-1.83-.94Z"/>
        </g>
        <path class="cls-4" d="M584.92,170.57c-6.17-14.5-1.45-35.46,20.65-40.36-9.3,4.6-25.1,12.94-20.65,40.36Z"/>
        <path class="cls-18" d="M576.66,214.35s-63.37,7.68-78.45-33.84l-2.16-7.38,.15,7.69c-.22,5.07-7.86,13.16-7.86,13.16,4.41-1.17,8.09-5.26,9.45-9.57,4.07,8.98,21.98,40.43,78.88,29.94Z"/>
        <path class="cls-4" d="M513.88,278.96c21.66-4.71,41.45-18.82,60.7-26.28,15.87-6.15,16.32,26.96,.44,32.41-8.52,5.84-37.35,25.91-58.61,30.83-21.27,4.92-43.73,5.06-63.55-.73,2.49-7.29,6.97-14.1,11.41-20.82,3.13-4.73,3.98-7.34,7.15-12.05,3.88-5.75,5.65-5.01,12.19-3.23,9.45,2.58,20.03,2.09,30.28-.14Z"/>
        <g>
          <path class="cls-4" d="M554.76,254.71c.62-6.29,8.6-13.78,14.74-15.41,7.96-2.11,14.53-2.17,19.91,4.28,2.57,3.08,4.22,7.77,1.82,10.85,5,.14,9.86,3.52,11.75,8.18s.7,10.32-2.88,13.69c-.35,.33-.75,.67-.87,1.14-.18,.67,.23,1.36,.57,1.99,2.45,4.6,1.09,10.58-2.64,14.03-3.73,3.45-11.24,4.93-16.31,3.76-5.06-1.18-30.34,.79-26.1-42.51Z"/>
          <path class="cls-4" d="M573.66,280.92c8.9,3.67,25.16-2.23,26.19-4.65-3.33,7.88-16.54,9.51-26.19,4.65Z"/>
          <path class="cls-4" d="M569.8,269.23c9.51-.33,21.18-12.49,21.63-15.1,.83,8.89-10.94,15.55-21.63,15.1Z"/>
        </g>
        <path class="cls-12" d="M562.43,196.02c.45,1.61,2.17,2.53,3.84,2.07,1.67-.47,2.66-2.15,2.21-3.76s-2.17-2.53-3.84-2.07c-1.67,.47-2.66,2.15-2.21,3.76Z"/>
        <path class="cls-12" d="M522.33,182.35c.45,1.61,2.17,2.53,3.84,2.07,1.67-.47,2.66-2.15,2.21-3.76-.45-1.61-2.17-2.53-3.84-2.07s-2.66,2.15-2.21,3.76Z"/>
        <path class="cls-12" d="M544.95,177.77c-.11,1.67,1.19,3.11,2.92,3.23,1.73,.12,3.22-1.14,3.34-2.8,.11-1.67-1.19-3.11-2.92-3.23-1.73-.12-3.22,1.14-3.34,2.8Z"/>
        <path class="cls-12" d="M540.64,196.35c-.11,1.67,1.19,3.11,2.92,3.23,1.73,.12,3.22-1.14,3.34-2.8,.11-1.67-1.19-3.11-2.92-3.23-1.73-.12-3.22,1.14-3.34,2.8Z"/>
        <path class="cls-17" d="M523.99,441.35c6.92-4.7,2.2-3.55-13.61-.35-30.67,6.2-38.03-5.53-39.8-5.05-1.75,2.64-5.19,6.62-6.84,7.01,24.43,9.2,48.83,6.16,60.25-1.6Z"/>
        <path class="cls-4" d="M341.08,271.08c-21.28-6.21-40.03-21.67-58.71-30.45-15.4-7.24-18.17,25.76-2.7,32.3,8.09,6.42,35.44,28.46,56.31,34.85,20.87,6.39,43.27,8.1,63.45,3.72-1.97-7.45-5.97-14.55-9.93-21.57-2.79-4.94-3.45-7.6-6.29-12.52-3.47-6-5.29-5.39-11.93-4.07-9.61,1.91-20.13,.68-30.2-2.26Z"/>
        <path class="cls-17" d="M405.74,276.63c8.63-1.59,93.99,.07,91.31-9.34-1.1-3.88-2.61-7.06-6.29-8.7-3.68-1.64-7.89-1.33-11.91-1.01-22.07,1.75-44.21,2.56-66.34,2.41-2.96-.02-6-.04-8.79,.94-2.93,1.04-5.36,3.11-7.76,5.09-7.62,6.31-9.83-14.45-21.64-13.48-3.15,.26-9.17,8.34-18.88,18.41-1.34,1.79,13.58,12.42,50.3,5.67Z"/>
        <path class="cls-32" d="M497.05,267.29c-38.7,5.76-118.13,8.5-133.74-5.91-4.59-19.47,26.55-50.59,31.61-52.6,8.67-3.44,75.08,9.79,97.46,6.14,20.62,1.57,17.27,50.04,4.67,52.37Z"/>
        <path class="cls-22" d="M444.72,230.01c18.35,.49,54.42-5.07,55.03-1.33,1.37,5.74-12.22,6.74-21.35,6.99-.9,.02-.95,1.35-.05,1.44,8.72,.84,21.58,1.7,21.34,3.12-1.88,11.96-61.59,1.34-72.53-2-39.37-12-42.88-14.02-42.16-18.4,.17,.12,1.63-4.64,5.65-8.01,2-1.67,2.84,3.01,4.62,4.15,4.94,3.17,9.8,6.02,15.33,8.09,10.86,4.07,22.56,5.64,34.1,5.95Z"/>
        <g class="cls-31">
          <path class="cls-14" d="M534.59,451.95s.64-.52,1.44-1.61c.81-1.08,1.88-2.7,3.09-4.74,2.42-4.1,5.46-9.9,8.19-16.52,2.76-6.61,4.46-12.9,4.85-17.63,.21-2.36,.14-4.31,.02-5.66-.05-.68-.16-1.2-.19-1.56-.05-.36-.07-.55-.07-.55,0,0,.06,.18,.18,.52,.11,.34,.31,.84,.48,1.51,.36,1.33,.75,3.3,.86,5.76,.25,4.93-.93,11.77-3.8,18.62-2.84,6.87-6.52,12.49-9.5,16.27-1.5,1.89-2.83,3.33-3.83,4.26-.5,.46-.93,.8-1.23,1.02-.32,.2-.49,.31-.49,.31Z"/>
        </g>
        <g class="cls-31">
          <path class="cls-14" d="M554.13,434.81s.16-.4,.41-1.06c.1-.35,.22-.76,.35-1.23,.1-.49,.25-1.02,.36-1.63,.47-2.41,.94-5.7,1.41-9.32,.51-3.62,.88-6.9,.96-9.36,.04-.62,.02-1.17,0-1.67,0-.5-.01-.93-.06-1.28-.06-.7-.09-1.12-.09-1.12,0,0,.17,.37,.47,1.01,.17,.33,.32,.74,.47,1.23,.16,.49,.35,1.04,.46,1.67,.57,2.5,.84,6.07,.29,9.89-.5,3.82-1.64,7.15-2.75,9.43-.26,.57-.58,1.07-.81,1.51-.27,.43-.53,.79-.73,1.08-.48,.56-.75,.85-.75,.85Z"/>
        </g>
        <path class="cls-22" d="M493.26,214.32s-.17,.1-.49,.29c-.32,.2-.81,.46-1.49,.75-1.34,.58-3.4,1.25-6,1.76-5.22,1.05-12.57,1.48-20.53,.7-7.96-.78-15.02-2.54-20.06-4.05-2.52-.76-4.55-1.46-5.94-1.96-1.39-.51-2.18-.8-2.18-.8,0,0,.83,0,2.3,.07,1.47,.06,3.59,.18,6.2,.35,5.22,.34,12.38,.92,20.2,1.68,7.83,.76,14.86,1.49,19.92,1.63,2.53,.08,4.56,.02,5.94-.12,.69-.07,1.22-.14,1.57-.22,.36-.06,.55-.09,.55-.09Z"/>
        <path class="cls-28" d="M497.65,238.64s-.43-.13-.55-.08c-.21,0-.48,.04-.83,.07-.69,.08-1.71,.2-3.01,.35-2.61,.27-6.38,.71-11.14,.65-.3,0-.61-.02-.91-.03-.41-.02-.83-.07-1.26-.11-.87-.09-1.76-.23-2.61-.44-.42-.11-.82-.24-1.21-.37-.35-.15-.74-.3-1.04-.49-.64-.37-1.18-.79-1.52-1.47-.21-.3-.28-.81-.17-1.12,.12-.29,.29-.49,.47-.71,.37-.42,.89-.85,1.8-1.24,.91-.38,2.09-.7,3.34-.99,1.01-.22,2.04-.43,3.07-.66,3.08-.63,6.31-1.16,9.68-1.61,1.67-.22,3.43-.42,5.15-.58,.38-.04,.72-.09,.99-.15,.14-.03,.27-.07,.36-.11,0,0,0,0,0,0,0,0,0,0,0,0h0s0,0,0-.02c-.01,0,.03,0-.06,0h-.24s-.54-.01-.54-.01l-1.27,.02c-1.69,.04-3.36,.07-5,.11-3.29,.06-6.47,.12-9.5,.17-6.06,.08-11.53,.05-16.12-.06-4.59-.1-8.31-.29-10.87-.46-2.56-.17-3.97-.33-3.97-.33,0,0,5.63-.58,14.71-1.52,4.55-.47,9.98-1.03,16.02-1.56,3.02-.26,6.2-.52,9.51-.73,1.65-.11,3.34-.2,5.06-.28,.43-.02,.86-.04,1.3-.05,.22,0,.49-.01,.75-.01h.41c.13,.01,.39,.04,.59,.06,1.73,.16,3.29,1.01,4.01,2.44,.32,.6,.51,1.43,.45,2.25-.13,1.61-1.15,3.18-2.71,4-.36,.2-.84,.39-1.16,.49-.31,.1-.6,.17-.89,.22-.57,.11-1.09,.16-1.57,.2-1.72,.12-3.39,.27-5.05,.42-3.31,.31-6.51,.65-9.52,1.05-.34,.05-.67,.09-1.01,.14-.13,.01-.12,0-.2,0-.11,0-.24,0-.39,.01-.15,.01-.32,.03-.5,.06-.09,.02-.19,.04-.27,.09-.09,.06-.06,.14-.05,.19,.08,.23,.32,.34,.59,.46,.14,.06,.3,.11,.48,.16,.1,.03,.15,.05,.31,.08,.28,.04,.57,.09,.85,.13,4.5,.62,8.27,.79,10.86,.95,1.3,.08,2.32,.14,3,.18,.35,.03,.61,.05,.83,.08,.11,.02,.15,.01,.34,.06,.14,.04,.2,.07,.2,.07Z"/>
        <path class="cls-33" d="M456.52,103.66s.12,.08,.37,.28c.26,.18,.57,.56,.93,1.11,.71,1.12,1.41,3.07,1.67,5.55,.28,2.49,.11,5.48-.75,8.65-.86,3.16-2.41,6.52-4.97,9.48-2.52,2.97-5.87,5.19-9.28,6.28-3.43,1.1-6.8,1-9.27,.24-2.5-.75-4.11-2.05-5.11-2.92-.97-.98-1.4-1.57-1.4-1.57,0,0,.69,0,1.84,.04,1.16-.07,2.77-.13,4.52-.64,1.76-.5,3.6-1.42,5.45-2.75,1.84-1.36,3.73-3.17,5.57-5.35,3.7-4.34,6.72-9.11,8.45-12.67,.87-1.78,1.43-3.27,1.68-4.25,.11-.48,.21-.88,.23-1.11,.04-.25,.06-.38,.06-.38Z"/>
        <path class="cls-33" d="M430.86,138.77s.09,0,.26,.02c.17,.01,.4,.04,.7,.02,.6,0,1.43-.12,2.37-.43,1.89-.6,4.2-1.91,6.77-3.41,2.38-1.37,4.73-2.71,6.75-3.87,.89-.51,1.6-.95,2.1-1.27,.5-.33,.78-.54,.78-.54,0,0-.62,1.22-2.04,2.76-1.41,1.56-3.56,3.52-6.34,5.13-2.77,1.62-5.69,2.48-7.91,2.46-1.1,0-2-.21-2.58-.45-.29-.1-.5-.23-.65-.31-.14-.08-.22-.12-.22-.12Z"/>
        <path class="cls-33" d="M477.89,81.35s.22-.09,.63-.27c.41-.16,.93-.49,1.52-.89,1.18-.84,2.54-2.21,3.99-3.9,2.9-3.39,6.21-8.08,9.51-12.71,1.66-2.33,3.12-4.47,4.29-6.59,1.15-2.11,2.01-4.27,2.4-6.39,.41-2.12,.34-4.08,.29-5.52-.14-1.44-.22-2.27-.22-2.27,0,0,.58,.49,1.6,1.49,.92,1.07,2.31,2.71,3.3,5.27,1,2.52,1.49,5.93,.94,9.52-.55,3.58-2.07,7.24-4.34,10.4-2.26,3.19-4.98,5.64-7.67,7.49-2.7,1.84-5.39,3.09-7.79,3.84-2.4,.75-4.5,1.01-6.03,.94-.78-.05-1.36-.11-1.8-.24-.41-.11-.63-.17-.63-.17Z"/>
        <path class="cls-33" d="M505.38,45.25s.06,.05,.18,.13c.11,.09,.3,.22,.48,.43,.4,.41,.9,1.13,1.26,2.15,.75,2.04,.82,5.15-.08,8.22-.89,3.09-2.46,5.58-3.78,7.2-.66,.81-1.28,1.41-1.72,1.79-.45,.38-.72,.53-.72,.53,0,0,.6-1.06,1.32-2.93,.73-1.86,1.65-4.45,2.47-7.32,.83-2.86,1.33-5.47,1.26-7.33-.02-.93-.18-1.66-.35-2.14-.07-.25-.17-.43-.22-.55-.06-.13-.09-.19-.09-.19Z"/>
        <path class="cls-28" d="M369.42,237s-.92-.2-2.59-.64c-.82-.24-1.82-.59-2.99-1-1.13-.48-2.46-.98-3.83-1.7-2.79-1.38-5.99-3.36-9.22-5.94-3.24-2.58-6.51-5.74-9.62-9.31-3.11-3.57-5.75-7.18-8.07-10.5-2.32-3.33-4.3-6.46-5.8-9.18-1.51-2.72-2.56-5.01-3.21-6.61-.65-1.61-.94-2.52-.94-2.52,0,0,.56,.76,1.57,2.14,1.03,1.36,2.55,3.3,4.51,5.62,4.02,4.64,9.52,11.01,15.56,18,3.02,3.47,5.95,6.69,8.75,9.46,2.79,2.77,5.46,5.09,7.82,6.89,1.16,.93,2.29,1.66,3.25,2.36,1,.63,1.85,1.19,2.57,1.63,1.45,.83,2.26,1.3,2.26,1.3Z"/>
        <path class="cls-28" d="M465.25,268.02s-1.59,.29-4.45,.8c-2.87,.49-7.03,1.15-12.19,1.81-10.31,1.31-24.7,2.61-40.65,2.03-7.97-.3-15.55-1.07-22.39-2.11-3.41-.54-6.68-1.03-9.75-1.9-3.05-.86-5.86-2.14-7.98-3.89-2.17-1.72-3.48-3.98-4.05-5.99-.59-2.03-.58-3.88-.22-5.25,.35-1.38,.94-2.29,1.41-2.81,.21-.28,.44-.44,.56-.57,.13-.12,.19-.18,.19-.18,0,0-.05,.07-.15,.22-.09,.15-.28,.34-.43,.65-.35,.58-.73,1.53-.85,2.82-.11,1.28,.13,2.92,.9,4.61,.37,.85,.91,1.7,1.58,2.49,.67,.79,1.47,1.48,2.48,2.12,1.98,1.27,4.49,2.13,7.36,2.65,2.85,.54,6.1,.77,9.51,1.09,6.81,.59,14.29,1.06,22.16,1.34,15.72,.57,29.97,.45,40.28,.33,10.31-.15,16.7-.25,16.7-.25Z"/>
        <path class="cls-28" d="M338.01,252.76s-.3-.04-.88-.12c-.58-.08-1.43-.23-2.52-.5-2.17-.53-5.32-1.6-8.82-3.81-1.74-1.11-3.56-2.5-5.3-4.26-1.77-1.74-3.34-3.91-4.89-5.96-.79-1.02-1.59-2.02-2.47-2.9-.87-.89-1.82-1.62-2.9-2.29-2.17-1.31-4.78-2.22-7.61-2.92-11.61-2.73-22.59-4.01-30.6-4.53-4.01-.26-7.29-.35-9.56-.39-2.27-.03-3.55-.05-3.55-.05,0,0,.31-.06,.9-.19,.59-.12,1.46-.31,2.58-.5,2.25-.41,5.52-.91,9.61-1.24,8.16-.66,19.57-.57,31.87,2.34,3.1,.78,6.22,1.91,8.92,3.76,1.34,.92,2.59,2.03,3.58,3.21,1.01,1.17,1.83,2.38,2.57,3.52,1.47,2.32,2.65,4.36,4.05,6.08,1.37,1.75,2.85,3.23,4.29,4.48,2.9,2.5,5.65,4.04,7.61,4.97,.98,.47,1.76,.79,2.3,.99,.54,.21,.82,.31,.82,.31Z"/>
        <path class="cls-23" d="M327.48,180.9s-.83-.85-2.3-2.36c-1.47-1.51-3.68-3.58-6.45-6.05-5.55-4.92-13.47-11.25-22.73-17.35-4.62-3.05-9.18-5.75-13.41-7.99-4.26-2.17-8.36-3.81-11.82-5.22-3.47-1.39-6.29-2.55-8.22-3.4-1.93-.85-2.98-1.36-2.98-1.36,0,0,1.14,.21,3.2,.6,2.06,.39,5.04,.93,8.73,1.72,3.68,.81,8.1,1.88,12.86,3.75,4.72,1.94,9.66,4.49,14.51,7.7,9.72,6.42,17.08,14,21.77,19.87,2.35,2.95,4.08,5.45,5.18,7.25,.57,.88,.95,1.61,1.24,2.08,.27,.48,.42,.73,.42,.73Z"/>
        <g>
          <path class="cls-4" d="M299.59,250.53c2.42-5.84-1.1-16.21-5.76-20.54-6.03-5.61-11.8-8.75-19.59-5.59-3.72,1.51-7.38,4.87-6.71,8.71-4.48-2.23-10.35-1.54-14.22,1.69s-5.47,8.78-3.9,13.43c.16,.46,.34,.94,.23,1.42-.16,.68-.85,1.09-1.44,1.49-4.33,2.9-5.94,8.83-4.27,13.62,1.67,4.8,7.6,9.64,12.62,10.99,5.02,1.34,26.4,14.97,43.03-25.23Z"/>
          <path class="cls-4" d="M270.59,264.76c-9.58-.95-21.15-13.81-20.92-16.42-.77,8.52,10.12,16.17,20.92,16.42Z"/>
          <path class="cls-4" d="M279.5,256.26c-8.24-4.77-12.82-20.98-11.98-23.5-4.91,7.45,2.34,18.87,11.98,23.5Z"/>
        </g>
        <g class="cls-31">
          <path class="cls-14" d="M176.58,183.32s-.14-.32-.37-.92c-.24-.6-.5-1.5-.71-2.64-.22-1.14-.33-2.53-.25-4.08,.1-1.54,.38-3.24,.97-4.94,.6-1.69,1.43-3.2,2.32-4.47,.91-1.26,1.86-2.28,2.75-3.04,.88-.76,1.64-1.3,2.2-1.63,.55-.33,.87-.5,.87-.5,0,0-.21,.29-.59,.78-.39,.49-.9,1.23-1.49,2.15-.6,.91-1.24,2.05-1.88,3.32-.62,1.29-1.24,2.72-1.78,4.26-1.07,3.08-1.63,6.01-1.84,8.17-.11,1.08-.17,1.97-.17,2.58-.02,.61-.03,.96-.03,.96Z"/>
        </g>
        <g class="cls-31">
          <path class="cls-14" d="M172.86,172.16s-.09-.17-.22-.5c-.14-.33-.29-.82-.39-1.44-.21-1.23-.14-3.04,.75-4.75,.89-1.7,2.34-2.81,3.48-3.33,.57-.27,1.06-.42,1.41-.5,.35-.08,.54-.1,.54-.1,0,0-.44,.59-1.06,1.51-.63,.92-1.38,2.2-2.12,3.62-.74,1.42-1.35,2.76-1.75,3.79-.4,1.02-.63,1.71-.63,1.71Z"/>
        </g>
        <g class="cls-31">
          <path class="cls-14" d="M219.38,145.12s0-.47,.02-1.26c0-.41,.03-.91,.12-1.48,.09-.57,.15-1.25,.35-1.95,.17-.72,.38-1.51,.7-2.32,.28-.84,.7-1.67,1.14-2.56,.95-1.74,2.22-3.54,3.86-5.16,1.65-1.6,3.49-2.84,5.25-3.75,.9-.42,1.75-.82,2.59-1.08,.82-.31,1.62-.5,2.34-.65,.71-.18,1.39-.24,1.97-.31,.58-.08,1.08-.09,1.49-.09,.79,0,1.26,.01,1.26,.01,0,0-.43,.14-1.19,.38-.38,.11-.84,.26-1.36,.48-.52,.21-1.12,.41-1.75,.73-.64,.29-1.33,.61-2.04,1.03-.73,.37-1.45,.87-2.23,1.35-1.51,1.04-3.08,2.28-4.58,3.74-1.49,1.47-2.75,3.02-3.82,4.5-.5,.76-1,1.47-1.39,2.18-.43,.69-.76,1.37-1.06,2-.33,.61-.54,1.21-.76,1.72-.23,.51-.38,.96-.5,1.34-.26,.74-.4,1.16-.4,1.16Z"/>
        </g>
        <g class="cls-31">
          <path class="cls-14" d="M215.82,146.69s-.14-.12-.37-.36c-.24-.24-.54-.61-.84-1.11-.61-.99-1.17-2.59-.96-4.36,.21-1.77,1.12-3.2,1.94-4.03,.41-.42,.79-.71,1.08-.89,.28-.18,.45-.26,.45-.26,0,0-.16,.73-.37,1.67-.21,1.01-.41,2.35-.58,3.82-.17,1.46-.28,2.81-.31,3.83-.02,.95-.03,1.69-.03,1.69Z"/>
        </g>
        <path class="cls-24" d="M411.61,528.96c36.44-14.9,43.47,18.42,50.27,26.92,3.28-1.57,8.27-5.21,13.85-9.28-8.14-6.98-20.9-41.06-55.02-24.83-1.6,.76-11.13,6.04-9.1,7.19Z"/>
        <path class="cls-4" d="M560.59,622.78s5.54-1.23,15.56-3.31c5.01-1.02,11.14-2.26,18.25-3.69,3.56-.7,7.36-1.44,11.39-2.23,2.02-.39,4.09-.78,6.22-1.19,1.06-.2,2.14-.41,3.23-.61,.58-.11,1.17-.22,1.76-.33,.79-.14,1.58-.27,2.37-.41,4.29,3.01,8.85,6.2,13.63,9.56,1.14,.8,2.28,1.61,3.45,2.43l.44,.31c.14,.1,.32,.23,.34,.24l.35,.22,.67,.41c.86,.52,1.57,.94,2.16,1.26-.24-.83-.48-1.67-.73-2.53-.1-.32-.2-.65-.31-.98-.02-.05-.02-.03-.04-.15l-.11-.5-.22-1c-.14-.67-.29-1.34-.43-2.01-.58-2.7-1.16-5.43-1.75-8.21-.29-1.39-.59-2.79-.89-4.19-.52-2.59-1.04-5.2-1.56-7.82,3.29-1.16,6.62-2.33,9.98-3.51,2.2-.78,4.43-1.58,6.68-2.38l1.69-.6,.39-.14h.02s.04-.04,.04-.04c.05-.03,.08-.06,.11-.09,.05-.05,.06-.08,.05-.1-.17-.03-.24-.04-.27-.03-2.88-1.23-5.8-2.48-8.75-3.75-4.75-2.06-9.47-4.11-14.13-6.13-1.41-3.55-2.81-7.08-4.19-10.57-.29-.73-.57-1.45-.85-2.17-.05-.13-.04-.1-.04-.1h0s0-.03,0-.03v-.04c-.01-.06-.02-.15-.04-.25-.06,.02-.14,.05-.24,.11l-.04,.02h-.02s-.27,.25-.27,.25l-1.06,.95c-.71,.63-1.42,1.26-2.12,1.89-1.41,1.25-2.81,2.49-4.2,3.73-1.8,1.6-3.58,3.19-5.35,4.77-1.39-.04-2.77-.08-4.15-.13-.83-.03-1.67-.07-2.49-.1-1.66-.07-3.3-.14-4.93-.21-3.26-.15-6.47-.29-9.63-.43-.79-.04-1.57-.07-2.36-.11l-1.17-.06-.58-.03c-.13,0-.12,0-.15-.01h-.08c-.48-.07-.95-.13-1.42-.18-1.03-.12-2.25-.25-3.66-.38,.62,.65,1.42,1.44,2.39,2.37,.26,.24,.51,.48,.76,.72l.41,.38,.23,.21,.45,.38c1.19,1.02,2.36,2.02,3.51,3.01,2.3,1.99,4.53,3.91,6.69,5.77,2.7,2.3,5.31,4.53,7.82,6.67-2.12,1.13-4.18,2.24-6.19,3.32-.88,.46-1.75,.92-2.61,1.37-.75,.39-1.5,.77-2.23,1.15-2.93,1.51-5.69,2.92-8.26,4.25-5.16,2.62-9.6,4.87-13.21,6.7-7.26,3.6-11.23,5.57-11.23,5.57,0,0,13.35-8.47,36.06-22.88-.42-.29-.86-.58-1.3-.88-.2-.14-.41-.27-.61-.41l-.15-.1-.07-.05-.14-.1-.84-.63c-2.25-1.68-4.59-3.43-7.02-5.24-1.21-.91-2.45-1.83-3.7-2.78-2.03-1.55-4.09-3.13-6.19-4.74-4.69-3.6-9.53-7.33-14.54-11.18,9.36,.05,19.17,.1,29.4,.16,5.75,0,11.74,.01,17.94,.02l.06-.08v-.02s.02,0,.02,0l.12-.11,.5-.47c.67-.63,1.34-1.26,2.01-1.9,1.35-1.27,2.71-2.55,4.08-3.84,4.36-4.06,8.79-8.19,13.29-12.39,2.9,7.08,5.86,14.33,8.88,21.71,3.61,1.55,7.27,3.12,10.97,4.71,10.96,4.75,21.76,9.43,30.86,13.37-8.81,2.94-17.5,5.83-25.79,8.59-2.29,.75-4.52,1.48-6.68,2.18-.54,.18-1.07,.35-1.6,.52l-.72,.23h-.05c-.07,.02-.14,.03-.21,.04v.13s0,.08,0,.08c0,.08-.03-.11,.06,.4,.25,1.46,.51,2.9,.75,4.33,.49,2.86,.98,5.67,1.45,8.4,1.6,9.06,3.11,17.64,4.49,25.47-4.45-3.47-8.82-6.87-13.08-10.2-1.86-1.46-3.7-2.9-5.52-4.32-1.12-.89-2.22-1.77-3.31-2.64-2.17-1.74-4.28-3.42-6.32-5.05-1.02-.82-2.02-1.62-3.01-2.41-.46-.37-.93-.75-1.38-1.11l-.43-.38c-8.66,.98-16.46,1.86-23.29,2.64-7.22,.79-13.42,1.47-18.46,2.03-10.1,1.05-15.61,1.63-15.61,1.63Z"/>
        <path class="cls-4" d="M533.17,612.35c-1.19,2.9-6.71,3.39-12.33,1.09-5.62-2.3-9.2-6.52-8.01-9.43,1.19-2.9,6.71-3.39,12.33-1.09,5.62,2.3,9.2,6.52,8.01,9.43Z"/>
        <path class="cls-4" d="M489.82,595.36c-.86,2.69-5.78,3.53-10.99,1.87-5.21-1.66-8.74-5.2-7.87-7.89,.86-2.69,5.78-3.53,10.99-1.87,5.21,1.66,8.74,5.2,7.87,7.89Z"/>
        <path class="cls-4" d="M455.77,584.7c-.57,2.34-4.69,3.35-9.21,2.25-4.52-1.09-7.73-3.88-7.16-6.21,.57-2.34,4.69-3.35,9.21-2.25,4.52,1.09,7.73,3.88,7.16,6.21Z"/>
        <path class="cls-29" d="M415.82,571.47c-.36,2.13-3.99,3.3-8.11,2.6-4.12-.69-7.17-2.98-6.81-5.11,.36-2.13,3.99-3.3,8.11-2.6,4.12,.69,7.17,2.98,6.81,5.11Z"/>
        <path class="cls-4" d="M375.96,565.16c-.13,1.75-2.97,2.97-6.36,2.73-3.39-.24-6.03-1.86-5.9-3.61,.13-1.75,2.97-2.97,6.36-2.73s6.03,1.86,5.9,3.61Z"/>
        <path class="cls-29" d="M340.39,561.6c-.05,1.75-2.84,3.1-6.23,3.01-3.39-.09-6.1-1.59-6.05-3.35,.05-1.75,2.84-3.1,6.23-3.01s6.1,1.59,6.05,3.35Z"/>
        <path class="cls-4" d="M294.42,558.42c-.03,1.54-2.46,2.75-5.44,2.7-2.98-.05-5.37-1.34-5.35-2.88,.03-1.54,2.46-2.75,5.44-2.7,2.98,.05,5.37,1.34,5.35,2.88Z"/>
        <path class="cls-4" d="M256.74,556.09c.17,1.34-1.79,2.7-4.38,3.03-2.59,.33-4.83-.48-5-1.82-.17-1.34,1.79-2.7,4.38-3.03,2.59-.33,4.83,.48,5,1.82Z"/>
        <path class="cls-4" d="M219.5,555.57c-.03,1.23-1.97,2.18-4.35,2.13s-4.28-1.09-4.25-2.32c.03-1.23,1.97-2.18,4.35-2.13,2.37,.05,4.28,1.09,4.25,2.32Z"/>
        <path class="cls-4" d="M175.47,552.39c-.22,1.21-2.3,1.84-4.63,1.41-2.34-.43-4.05-1.76-3.83-2.96s2.3-1.84,4.63-1.41c2.34,.43,4.05,1.76,3.83,2.96Z"/>
        <path class="cls-24" d="M471.09,551.1c4.02-3.07,7.91-6.91,8.87-11.88,.77-4-.48-8.08-1.72-11.95-1.67-5.23-5.29-18.66-9.29-26.85-1.26-2.59-8.54-3.91-10.03-1.45-2.8,4.64-33.82,13.9-40.51,8.61,.98,1.14,2.12,6.76,3.1,7.9,3.47,3.58,37.44,.14,39.75-7.76,3.74,3.94,5.61,9.26,7.2,14.46,2.56,8.37,4.4,18.29-.99,25.18-2.66,3.39-6.57,4.4-10.44,6.32-5.93,2.93-26.94,11.51-38.2,9.94,5.11,5.81,38.92-2.34,52.25-12.51Z"/>
        <path class="cls-9" d="M386.87,532.4c1.49-3.79-10.65-32.69-16.79-39.35-1.95-2.12-7.78-3.35-9.21-.86-2.7,4.7-28.88,12.31-34.32,6.98-1.03,1.74,1.41,7.43,2.41,8.55,3.55,3.5,35.32,.85,37.45-7.1,12.18,18.47,13.7,32.79,10.68,37.07-2.49,3.52-6.76,4.98-10.58,6.98-5.86,3.07-26.5,12.6-37.79,11.28,5.23,5.69,50.18-3.32,58.15-23.55Z"/>
        <rect class="cls-8" x="455.25" y="532.53" width="7.91" height="8.64" transform="translate(631.87 -148.18) rotate(54.69)"/>
        <rect class="cls-8" x="451.35" y="502.83" width="7.91" height="8.64" transform="translate(707.11 -126.17) rotate(63.6)"/>
        <path class="cls-6" d="M411.37,132.56c2.19-6.12,56.27-91.86,78.59-107.22,12.12-8.34,44.5,18.08,47.84,40.9-30.4,14.45-45.42,36.24-48.59,69.75-.92,9.8-7.44,24.78-14.02,30.19-19.86,18.64-45.53-3.95-53.47-1.43-4.28,1.36-17.32,6.91-15.6,15.22-4.42-10.06-7.09-12.68-11.49-22.27,4.12-12.58,12.25-12.54,16.75-25.14Z"/>
        <path class="cls-5" d="M431.3,117.58c9.44-21.2,53.48-84.28,65.56-86.09,4.27-.64,29.36,6.55,35.22,30.55-13.33,4.58-27.88,19.77-34.51,27.55-21.13,24.83-4.04,41.23-31.17,69.29-16.36,16.93-47.6-13.25-35.11-41.3Z"/>
        <path class="cls-7" d="M437.79,178.26c-5.08-1.12-9.58-4.45-14.76-4.93-6.67-.62-33.39,23.15-36.31,29.19-2.78,1.5-20.7-15.11-19.99-18.32,1.55-7.04,45.2-52.96,46.06-54.6,5.07,15.92,16.06,32.92,30.77,40.83,16.98,9.08,32.55-3.32,39.73-15.55-2.13,7.96-12.25,30.7-45.49,23.37Z"/>
        <g class="cls-3">
          <path class="cls-4" d="M457.87,138.75s-2.9-9.24-4.11-20.99c-1.22-11.75-.28-21.44-.28-21.44,0,0,1.6,9.52,2.81,21.22,1.21,11.7,1.57,21.21,1.57,21.21Z"/>
        </g>
        <g class="cls-3">
          <path class="cls-4" d="M464.34,108.2s-.19-.32-.49-.93c-.31-.61-.71-1.52-1.09-2.67-.79-2.31-1.47-5.63-1.69-9.26-.22-3.64-.06-6.9-.02-9.31,.04-1.2,.04-2.19,.04-2.88,0-.67,0-1.08,0-1.08,0,0,.14,.36,.38,1,.24,.65,.55,1.6,.83,2.79,.6,2.38,1.07,5.72,1.3,9.35,.22,3.63,.26,6.88,.41,9.22,.06,1.17,.14,2.12,.22,2.77,.07,.65,.11,1.02,.11,1.02Z"/>
        </g>
        <g>
          <path class="cls-10" d="M399.47,.29c-15.44,1.97-82.38,6.21-97.08,35.05-26.02,51.06,3.51,94.76,36.05,130.78,10.94,12.11,20.24,14.73,47.98,23.14,4.63,5.34,8.67,11.09,11.72,17.56,6.18,13.12,7.8,28.39,16.11,40.27,8.32,11.88,28.2,17.72,36.67,5.94,3.77-5.24,3.95-12.23,3.24-18.65-3.23-29.28-21.46-54.7-41.6-76.2-13.67-14.6-35.94-26.98-38.4-46.83-15.43-46.55,37.2-83.18,59.43-87.22,7.23-1.31,14.18-.38,19.19,1.76,7.36,3.15,11.57,8.37,14.98,8.46C463.35,6.01,414.9-1.68,399.47,.29Z"/>
          <path class="cls-22" d="M388.65,177.17c6.07,6.06,9.03,14.49,11.8,22.61-2.08-8.03-11.05-11.87-19.02-14.16-10.27-2.95-20.87-5.25-30.3-10.29-7.06-3.77-18-11.94-18.27-20.61,3.89-.87,9.01,3.95,12.75,5.49,4.8,1.98,9.89,3.17,14.9,4.47,9.94,2.57,20.62,4.98,28.14,12.49Z"/>
          <ellipse class="cls-11" cx="281.86" cy="33.21" rx="26.56" ry="26.95" transform="translate(128.07 271.75) rotate(-63.91)"/>
          <path class="cls-22" d="M262.21,51.03s-.03-.09-.1-.26c-.08-.17-.15-.43-.32-.74-.31-.63-.89-1.47-1.76-2.39-.86-.93-2.01-1.91-3.28-3.14-.62-.62-1.29-1.31-1.84-2.18-.55-.86-.99-1.95-.95-3.17,.03-1.22,.5-2.42,1-3.57,.5-1.14,1.03-2.31,1.47-3.54,.43-1.22,.81-2.51,.86-3.8,.08-1.29-.18-2.54-.81-3.68-.32-.59-.81-1.25-1.19-2.22-.18-.48-.34-1.12-.28-1.77,.04-.64,.27-1.29,.63-1.83,.72-1.05,1.64-1.6,2.47-2.06,.43-.23,.85-.42,1.27-.59,.39-.17,.78-.33,1.18-.5,1.58-.66,3.19-1.34,4.83-2.03l.6-.25,.11-.06,.18-.11,.14-.1s-.14-.06-.18-.1c-.06-.04-.11-.08-.15-.12l-.03-.03c-.03-.05-.14-.27-.19-.41-.13-.31-.23-.63-.3-.95-.3-1.29-.25-2.71,.39-4.09,.67-1.34,1.63-2.22,2.65-2.91,1.02-.67,2.08-1.11,3.11-1.45,1.04-.33,2.03-.58,3.11-.77,1.07-.19,2.21-.29,3.41-.24,1.2,.06,2.48,.3,3.71,.85,.61,.28,1.22,.64,1.73,1.03,.51,.39,.93,.77,1.3,1.11,.68,.63,1.25,1.11,1.61,1.27,.18,.09,.3,.11,.42,.12,.14,.01,.39,0,.78-.08,.39-.07,.92-.19,1.57-.24,.64-.05,1.28-.03,1.88,.07,1.22,.19,2.33,.62,3.29,1.18,1.93,1.13,3.41,2.68,4.47,4.53,.5,.9,.81,1.63,1.13,2.1,.31,.47,.58,.7,1.03,.94,.87,.47,2.41,.55,4.09,.67,.85,.07,1.76,.16,2.71,.4,.93,.22,1.97,.7,2.77,1.3,1.65,1.22,2.66,2.97,3.07,4.82,.19,.94,.2,1.92-.04,2.89-.23,.96-.73,1.89-1.44,2.59l-1.14-2.44c2.42-.09,4.42,1.34,5.2,2.71-.6,.94-1.15,1.82-1.76,2.65-.33,.47-.52,.69-.74,.97-.22,.28-.45,.54-.67,.8-.91,1.04-1.85,1.99-2.8,2.84-.95,.85-1.92,1.6-2.87,2.28-.25,.19-.43,.29-.63,.43-.2,.14-.4,.25-.59,.37-.2,.12-.4,.24-.6,.36l-.31,.18c-.08,.06-.29,.12-.14,.19,.65,.62,1.21,1.38,1.72,2.38,.48,.94,.76,1.91,.86,2.8,.05,.44,.06,.85,.03,1.23,.06,.23-.2,.27-.37,.35-.17,.07-.34,.15-.51,.22-.69,.3-1.32,.56-1.88,.8-2.33,.98-3.58,1.51-3.58,1.51,0,0,1.1-.64,3.24-1.88,.27-.15,.55-.32,.85-.49,.25-.15,.51-.3,.78-.46,.17-.13,.42-.21,.54-.38-.01-.25-.05-.5-.11-.74-.04-.14-.05-.2-.12-.42-.06-.2-.14-.39-.21-.6-.17-.4-.37-.8-.62-1.19-.13-.19-.26-.39-.4-.58-.05-.08-.18-.23-.31-.38-.12-.15-.24-.29-.42-.45-.64-.63-1.46-1.3-2.23-1.92,.02-.11,.21-.22,.36-.33l.47-.34c.32-.23,.65-.47,.98-.71,.33-.24,.7-.5,.98-.73l.46-.36c.15-.12,.33-.26,.41-.33,.81-.69,1.63-1.46,2.44-2.32,.81-.86,1.62-1.8,2.39-2.85,.19-.26,.38-.53,.57-.8l.28-.41,.14-.2,.04-.07c.1-.18,.18-.35,.25-.51,.08-.08-.06-.12-.13-.17-.08-.04-.16-.08-.24-.1-.17-.05-.34-.07-.51-.04l-4.76,.82,3.28-3.98c.42-.51,.62-1.32,.37-2.29-.24-.95-.88-1.92-1.72-2.49-.2-.16-.43-.26-.65-.37-.22-.08-.45-.17-.75-.23-.57-.13-1.24-.18-2-.21-.76-.03-1.59-.03-2.53-.1-.93-.07-2-.21-3.11-.67-1.1-.44-2.23-1.3-2.93-2.28-.7-.95-1.09-1.83-1.46-2.45-.67-1.13-1.73-2.18-2.88-2.82-.58-.32-1.17-.52-1.73-.6-.61-.07-.88-.04-1.96,.19-.52,.1-1.2,.21-2,.15-.8-.07-1.57-.31-2.2-.64-1.27-.67-2.04-1.47-2.72-2.07-.36-.32-.67-.6-.95-.8-.27-.2-.53-.34-.83-.47-.59-.26-1.29-.39-2.05-.43-1.51-.07-3.32,.29-4.89,.76-.76,.24-1.46,.54-1.98,.88-.26,.17-.49,.35-.66,.54-.17,.18-.33,.41-.38,.51-.14,.28-.2,.75-.1,1.18,.02,.11,.06,.21,.09,.31,0,.03,.02,.05,.03,.07l.02,.04s.04,.09,.07,.14c.06,.09,.1,.18,.21,.26l.41,.23,.41,.23c.13,.08,.26,.15,.49,.25l1.21,.55c.99,.45,1.98,.89,2.97,1.33-.73,.29-1.46,.58-2.18,.87-.84,.31-1.67,.62-2.49,.92-1.45,.53-2.88,1.06-4.29,1.58-1.68,.6-3.33,1.19-4.95,1.77-.4,.14-.8,.28-1.19,.43-.36,.13-.7,.26-1.01,.4-.61,.27-1.08,.62-1.21,.8-.05,.06-.09,.13-.1,.22-.02,.07-.02,.16,.05,.41,.13,.46,.52,1.11,.9,1.94,.79,1.73,.98,3.68,.72,5.34-.24,1.68-.82,3.13-1.41,4.42-.61,1.29-1.26,2.44-1.86,3.51-.59,1.04-1.01,1.96-1.11,2.78-.22,1.61,.87,3.22,1.93,4.51,1.07,1.31,2.12,2.45,2.88,3.49,.76,1.04,1.25,1.96,1.48,2.64,.13,.33,.18,.61,.23,.78,.05,.18,.07,.27,.07,.27Z"/>
          <path class="cls-22" d="M286.84,23.61s.43,.26,1.18,.8c.75,.54,1.83,1.36,3.09,2.51,.63,.58,1.31,1.23,2,1.98,.35,.38,.7,.77,1.06,1.19,.36,.43,.71,.83,1.1,1.4l.14,.22,.16,.29c.1,.21,.2,.42,.29,.64,.16,.44,.26,.92,.25,1.4,0,.98-.53,1.94-1.41,2.55-.42,.31-1.04,.61-1.17,.71-.11,.07-.2,.13-.24,.18-.03,.03-.03,.04-.04,.05,0,0,0,.01,0,0l-.08-.11c-.06-.07-.12-.14-.19-.2-.09-.1-.17-.17-.24-.21-.01-.02-.11-.06-.06-.04,0,0,.02,0,.02,0h0s.07,.02-.07-.02h.02s.03,.01,.03,.01h.07c.14,.04,.27,.05,.59,.05h.25s0,0,0,0c0,0,0,.02,.01,.03l.07,.35c.06,.31,.11,.63,.12,.94,0,.26-.03,.51-.08,.77-.03,.26-.12,.5-.22,.75-.21,.48-.52,.93-.93,1.28-.77,.74-2,1.11-3.07,1.22-.88,.08-1.71,.01-2.55-.19-.4-.09-.91-.27-1.2-.39-.34-.13-.65-.27-.95-.41-.8-.36-1.49-.7-2.06-.91-.59-.22-.98-.27-1.26-.27l1.29-1.67c-.21-.06-.06,.04,.4-.12-.02,0,.01,.14,.11,.29,.2,.33,.61,.74,1.04,1.11,.22,.18,.46,.36,.7,.53,.3,.21,.62,.42,.91,.65,.6,.46,1.18,.98,1.7,1.6,.23,.29,.59,.77,.78,1.2,.2,.45,.33,.9,.34,1.36,.04,.91-.35,1.75-.95,2.3-.29,.28-.62,.5-.96,.68-.31,.16-.57,.25-.85,.35-.55,.18-1.07,.3-1.58,.37-2.02,.25-3.55-.18-4.5-.55-.48-.19-.83-.37-1.05-.51-.22-.13-.34-.21-.34-.21,0,0,.52,.11,1.47,.13,.94,.02,2.34-.08,3.82-.71,.36-.16,.73-.35,1.08-.58,.17-.12,.36-.24,.48-.36,.06-.06,.11-.14,.15-.21,.08-.14,.08-.32,.02-.46-.03-.07-.08-.13-.13-.18-.03-.02-.05-.05-.08-.06-.02,0-.07-.04-.15-.12-.32-.27-.76-.56-1.26-.83-.25-.14-.51-.27-.79-.41-.35-.18-.71-.37-1.07-.59-.71-.45-1.44-.95-2.16-1.78-.35-.42-.72-.93-.97-1.65-.26-.7-.33-1.67-.06-2.5l.41-1.29,1.37-.27c1.23-.25,2.5-.05,3.5,.27,1.02,.32,1.88,.74,2.66,1.09l.78,.34c.14,.06,.22,.09,.3,.11,.08,.03,.17,.05,.26,.08,.36,.1,.76,.13,1.07,.12,.05,.02,.11,.05,.15-.02v-.03c.04,.1-.02-.28-.02-.64,0-.36,.07-.88,.28-1.33,.19-.45,.49-.83,.77-1.11,.58-.53,1.06-.72,1.41-.89,.46-.2,.36-.13,.43-.15,.1,0,.21-.07,.24-.17,.02-.05,.03-.11,.03-.16-.01-.09,.03-.05-.08-.31-.16-.39-.44-.9-.67-1.35-.25-.45-.48-.89-.71-1.32-.47-.84-.92-1.61-1.35-2.31-.85-1.39-1.58-2.47-2.08-3.21-.51-.74-.79-1.14-.79-1.14Z"/>
          <ellipse class="cls-15" cx="435.29" cy="302.4" rx="16.15" ry="17.01" transform="translate(-72.22 149.59) rotate(-18.03)"/>
          <path class="cls-22" d="M451.21,303.52s-.09,.21-.22,.61c-.11,.41-.22,1-.22,1.73,0,.73,.08,1.59,.16,2.59,.05,.99,.19,2.18-.43,3.45-.31,.64-.94,1.16-1.62,1.51-.69,.35-1.38,.59-2.07,.9-1.37,.58-2.81,1.35-3.48,2.5-.17,.28-.28,.6-.38,.92l-.16,.67c-.09,.35-.19,.7-.34,1.03-.29,.66-.79,1.23-1.48,1.53-.68,.3-1.47,.31-2.25,.13-.2-.04-.39-.1-.59-.16-.19-.06-.42-.15-.53-.19l-.75-.31c-.46-.19-.93-.39-1.41-.59-.47-.2-.95-.4-1.43-.61-.12-.03-.21-.04-.3-.05-.09,.02-.27-.1-.15,.13,.02,.1,.02,.19,0,.25-.17,.33-.61,.92-1.1,1.3-.5,.41-1.1,.71-1.76,.86-1.65,.34-2.91-.1-3.94-.55-1.04-.49-1.84-1-2.7-1.66-.85-.67-1.72-1.5-2.39-2.68-.33-.58-.6-1.25-.74-1.96-.14-.71-.15-1.29-.17-1.74-.01-.51-.06-.87-.09-.94,0,0,0,0,0,0,0,0,.04,.03-.1-.09l-.64-.48c-.3-.24-.64-.57-.9-.88-.53-.65-.89-1.35-1.13-2.04-.47-1.39-.53-2.74-.34-4.06,.09-.66,.33-1.38,.47-1.77,.15-.43,.21-.67,.22-.78,0-.12,0-.26-.08-.48-.09-.22-.26-.51-.5-.83-.47-.66-1.18-1.41-1.78-2.49-.29-.52-.54-1.22-.64-1.86-.1-.65-.08-1.29,.03-1.9,.23-1.21,.8-2.34,1.78-3.16,.17-.11,.41-.18,.68-.17,.06,0,.03-.02,.01-.03l-.04-.06s-.05-.09-.07-.14c-.04-.1-.06-.21-.08-.34-.02-.14-.03-.28-.05-.42-.02-.2-.02-.39,0-.59l.05-1.04,.89-.16c1.91-.33,3.72-.34,5.35-.15,.41,.05,.8,.11,1.19,.18,.19,.04,.38,.08,.57,.11l.4,.11c.29,.09,.57,.17,.85,.26,.15,.05,.3,.1,.44,.15l.23,.08s.04,.02,.05,.01v-.04s0-.09,0-.09c.02-.52,.15-1.08,.37-1.65,.24-.62,.56-1.14,.91-1.53,.18-.19,.35-.36,.54-.49l.07-.05s.06,.02,.09,.03l.17,.08c.11,.05,.22,.11,.32,.16,.38,.2,.73,.37,1.04,.53,1.38,.7,2.13,1.08,2.13,1.08,0,0-.75-.2-2.21-.6-.32-.09-.51-.12-.78-.19-.13-.03-.26-.06-.39-.08-.1,.12-.19,.25-.27,.39-.16,.29-.26,.58-.33,.95-.2,.79-.02,2.21,.08,3.49-.08,.01-.12,.07-.24,.05l-.35-.07c-.24-.04-.49-.09-.74-.14-.52-.09-1.05-.18-1.6-.28-.28-.03-.56-.07-.85-.1-.17-.02-.25-.02-.33-.02h-.26c-.34-.02-.7-.02-1.06-.02-1.44,.03-3.02,.24-4.66,.74l1.33-1.7s.01,.1,.03,.15l.02,.09c.04,.08,.05,.21,.16,.33-.3,1-.36,1.61-.4,1.91-.17,.18-.45,.69-.92,1.8-.16,.26-.38,.65-.41,1.11,0,.22-.01,.45,.05,.64,.07,.22,.1,.33,.25,.57,.29,.46,.85,1.03,1.56,1.83,.35,.41,.74,.88,1.1,1.52,.35,.63,.64,1.46,.68,2.33,.04,.89-.16,1.66-.31,2.18l-.18,.66c-.03,.15-.06,.31-.08,.47-.08,.65,0,1.37,.21,1.9,.1,.27,.23,.48,.36,.62,.07,.09,.11,.11,.22,.2l.65,.47c.29,.22,.75,.64,1.04,1.06,.3,.43,.54,.94,.68,1.42,.26,.92,.25,1.63,.28,2.16,.04,.97,.08,1.08,.33,1.57,.24,.43,.69,.91,1.24,1.34,.55,.44,1.23,.89,1.73,1.12,.26,.12,.49,.21,.66,.25,.16,.04,.31,.03,.28,.04,.02,0,.03,0,.05,0,.01,0,0,0,.03-.02,0,0,.02-.02,.03-.03,.02-.03,0,.04,.07-.12,.87-.83,1.38-1.34,1.54-1.52,.09-.1,.13-.15,.14-.18-.03,0,.12-.11,.2-.17l.27-.22c.36-.28,.69-.54,.98-.77,.91,.47,1.82,.93,2.71,1.38,.47,.25,.93,.49,1.39,.74,.46,.24,.91,.48,1.36,.72l.6,.31,.15,.09c.16,.11,.43,.08,.51-.12l.07-.14c.05-.14,.15-.47,.28-.74,.24-.58,.58-1.11,.96-1.58,.79-.93,1.75-1.54,2.63-1.94,.89-.41,1.73-.65,2.5-.86,.78-.21,1.52-.36,2-.53,.51-.19,.78-.35,1.01-.66,.47-.62,.64-1.72,.74-2.66,.1-.96,.18-1.85,.33-2.58,.14-.74,.37-1.32,.56-1.7,.21-.37,.33-.56,.33-.56Z"/>
          <path class="cls-22" d="M450.26,12.88c1.86,.88,3.71,1.82,5.38,3.04,2.94,2.16,5.21,5.14,6.79,8.42-6.4-4.79-15.29-3.69-23.17-2.37-5.77,.97-11.55,1.94-17.32,2.91-1.85,.31-3.72,.62-5.58,.43-2.04-.21-3.97-1.01-5.86-1.8-9.35-3.92-18.7-7.83-28.05-11.75-1.92-.77-3.86-1.51-5.77-2.32-2.99-1.28-4.82-1.19-1.98-3.57,4.89-4.11,18.64-3.5,24.7-3.65,17.47-.42,35.05,3.19,50.86,10.66Z"/>
          <path class="cls-1" d="M428.94,304.27s-.27-1.22-.32-3.34c-.01-1.07,0-2.31,.25-3.82,.05-.21,.08-.38,.2-.67,.12-.27,.28-.54,.5-.75,.43-.45,1.12-.6,1.78-.43,.37,.09,.55,.17,.71,.21,.08,.02,.14,.03,.19,.04,.03,0,.03,0,.04,0,0,.02,0-.05,0,.03v.16c-.01,.14,.03,.23,.01,.18h0c.04,.07,0,0,0,0l-.07-.09s-.07-.09-.12-.14l-.09-.09h0s0-.03,.12-.2c.11-.16,.23-.33,.36-.47,.46-.45,1.13-.7,1.81-.58,.34,.06,.67,.18,.98,.37,.32,.19,.47,.32,.68,.51,.18,.18,.36,.36,.51,.56l.06,.07s0,0,0,0h0s0,0,0,0c0,0,0,0,0,0,0,0,0,.03,.02,.15,.04,.18,.17,.26,.24,.27,.08,0,.09-.08,.15-.32,.02-.05,.03-.15,.07-.45,.04-.25,.1-.52,.24-.81,.26-.56,.76-.94,1.3-1.02,.26-.04,.53-.02,.77,.03,.21,.05,.4,.12,.57,.2,.34,.15,.64,.34,.91,.53,1.06,.79,1.57,1.69,1.85,2.3,.27,.62,.33,.97,.33,.97,0,0-.18-.31-.6-.78-.41-.47-1.1-1.11-2.08-1.53-.24-.1-.5-.19-.77-.25-.13-.03-.26-.05-.37-.05-.07,0-.11,.02-.16,.04-.1,.04-.15,.14-.16,.23v.25c0,.09,0,.38,.08,.8,.17,.78,.48,1.77,.5,2.4,.06,.63,.02,1.11-.09,1.52-.11,.41-.27,.76-.58,1.08-.16,.17-.37,.3-.62,.46l-.55,.35c-.26-.21-.54-.43-.84-.67-.26-.22-.56-.51-.91-1.11-.32-.53-.63-1.44-.93-2.28-.07-.22-.16-.39-.25-.57-.04-.1-.09-.17-.15-.26l-.07-.1c-.08-.1-.16-.2-.24-.28-.23-.2-.17-.16-.18-.18-.01-.01-.03-.02-.05-.01h-.02s-.14,.2-.27,.33c-.25,.32-.93,.66-1.42,.61-.48-.02-.76-.15-.99-.24-.23-.1-.4-.18-.38-.18-.04-.04-.12-.06-.18-.02-.03,.02-.06,.04-.08,.07-.02,0-.1,.19-.15,.31-.42,1.22-.73,2.47-.95,3.44-.44,1.99-.61,3.2-.61,3.2Z"/>
          <path class="cls-15" d="M450.27,254.14c5.09-6.87,6.52-16.54,5.61-25.04-1.76-16.45-11.58-34.78-21.96-47.66-10.39-12.88-19.16-20.91-30.77-32.7-9.64-9.79-24.69-25.79-28.53-38.98-6.34-21.8,4.58-49.14,21.59-64.19,36.7-32.47,55.09-19.9,64.48-14.9,.85,.8,2.52,2.81,7.07,3.69,.06-2.24-2.72-5.98-6.54-8.39-15.5-9.78-35.56-6.83-51.01,3.03-15.45,9.86-51.2,36-40.95,80.33,6.73,29.12,47.26,56.9,60.62,74.45,23.21,30.48,24.18,54,17.81,64.59-5.13,8.54-17.38,7.12-25.21-.07-7.37-6.77-13.63-17.35-16.74-20.89,10.22,41.03,39.44,33.61,44.53,26.74Z"/>
          <path class="cls-22" d="M418.09,29.03s-.39,.28-1.12,.81c-.74,.52-1.82,1.32-3.18,2.36-2.73,2.08-6.62,5.16-11.07,9.3-4.44,4.14-9.47,9.34-14.14,15.72-4.66,6.36-8.99,13.95-11.41,22.56-1.22,4.29-1.83,8.62-1.97,12.83-.11,4.18,.24,8.36,.88,12.21,.66,3.86,1.67,7.46,2.92,10.75,1.25,3.29,2.74,6.24,4.23,8.89,3,5.28,5.98,9.29,8.06,12.03,1.03,1.39,1.88,2.42,2.44,3.14,.56,.72,.86,1.1,.86,1.1,0,0-.35-.33-1.01-.96-.65-.64-1.65-1.54-2.85-2.8-2.43-2.47-5.91-6.14-9.52-11.28-1.79-2.58-3.61-5.53-5.21-8.91-1.59-3.37-2.94-7.17-3.85-11.28-.9-4.12-1.46-8.45-1.47-13.08,.02-4.6,.63-9.39,1.98-14.07,2.67-9.41,7.64-17.36,12.87-23.72,5.27-6.38,10.86-11.27,15.75-15.02,4.91-3.74,9.15-6.35,12.13-8.06,1.49-.85,2.66-1.48,3.46-1.9,.8-.41,1.22-.63,1.22-.63Z"/>
          <path class="cls-22" d="M466.74,33.53s-.17-.44-.56-1.08c-.39-.65-1.03-1.46-1.91-2.21-.89-.76-1.97-1.43-3.24-2.07-1.27-.65-2.73-1.28-4.33-2.17-3.15-1.8-5.5-3.76-7.59-4.96-1.03-.61-1.97-1.06-2.66-1.33-.69-.27-1.12-.42-1.12-.42,0,0,.38-.15,1.11-.32,.73-.18,1.82-.31,3.17-.24,1.35,.06,2.92,.38,4.54,.93,1.62,.55,3.28,1.33,4.89,2.24,1.6,.89,3.2,1.93,4.51,3.18,1.31,1.23,2.29,2.69,2.79,4,.52,1.32,.63,2.49,.59,3.26-.04,.78-.17,1.19-.17,1.19Z"/>
          <path class="cls-22" d="M453.18,26.57s-.36-.31-1.01-.71c-.65-.41-1.61-.86-2.76-1.17-1.16-.32-2.47-.48-3.94-.54-1.47-.07-3.12-.06-4.96-.2-3.62-.29-6.91-1.04-9.39-1.71-2.47-.67-4.08-1.27-4.08-1.27,0,0,1.5-.57,4-1.09,2.49-.52,6.02-.95,9.88-.64,1.9,.15,3.82,.45,5.55,1.05,1.73,.58,3.25,1.49,4.29,2.46,1.06,.97,1.68,1.97,2.01,2.69,.33,.72,.41,1.14,.41,1.14Z"/>
          <path class="cls-22" d="M422.41,26.88s-.41,.05-1.04,.23c-.64,.17-1.45,.51-2.39,.95-1.91,.91-4.43,2.02-7.11,2.85-2.69,.83-5.21,1.36-7.24,1.95-1.01,.31-1.86,.51-2.44,.88-.29,.18-.51,.38-.65,.53-.14,.15-.21,.25-.21,.25,0,0,0-.11,.02-.31,.02-.2,.08-.52,.23-.88,.14-.36,.37-.76,.65-1.15,.28-.4,.59-.76,.96-1.2,1.47-1.67,4.07-3.61,7.29-4.6,3.23-.99,6.22-.95,8.38-.69,1.11,.14,2.04,.41,2.65,.68,.61,.27,.9,.49,.9,.49Z"/>
          <path class="cls-22" d="M399.96,41.18s-.26,.22-.75,.56c-.48,.34-1.18,.8-2.01,1.3-.84,.51-1.77,1.08-2.72,1.65-.96,.59-1.79,1.17-2.81,1.83-1.01,.65-2.15,1.32-3.27,1.83-1.1,.5-2.09,.85-2.95,1.23-.85,.37-1.57,.77-2.07,1.12-.5,.35-.79,.6-.79,.6,0,0,0-.08,.02-.24,.01-.16,.05-.39,.11-.69,.12-.6,.42-1.45,.98-2.37,.55-.92,1.34-1.88,2.23-2.78,.87-.88,1.86-1.82,3.2-2.69,1.32-.87,2.9-1.45,4.24-1.68,1.36-.24,2.55-.23,3.52-.16,.97,.07,1.74,.2,2.26,.31,.53,.1,.81,.18,.81,.18Z"/>
          <path class="cls-22" d="M382.28,60.16s-.15,.24-.4,.62c-.27,.39-.62,.92-1.01,1.49-.83,1.17-1.76,2.54-3.04,3.54-1.27,1.01-2.82,1.61-4.15,2.15-.64,.25-1.24,.48-1.68,.65-.43,.16-.7,.25-.7,.25,0,0,0-.22,.06-.62,.05-.4,.16-.97,.39-1.65,.44-1.35,1.44-3.15,3.15-4.5,1.71-1.35,3.68-1.9,5.08-2.02,.71-.06,1.28-.04,1.68,0,.4,.04,.61,.08,.61,.08Z"/>
          <path class="cls-22" d="M371.74,84.41s.31,1.21,.48,2.92c.16,1.72,.22,3.91-.39,6.11-.61,2.2-1.78,4.06-2.8,5.45-1.02,1.39-1.91,2.27-1.91,2.27,0,0-.29-1.02-.42-2.68-.13-1.65-.08-3.94,.58-6.32,.66-2.39,1.79-4.36,2.74-5.69,.96-1.34,1.72-2.05,1.72-2.05Z"/>
          <path class="cls-22" d="M374.97,110.38s-.05,.35-.07,.9c-.02,.55,.05,1.3,.28,2.06,.43,1.54,1.41,3.13,2.05,5.31,.68,2.24,.63,4.65,.36,6.39-.26,1.76-.71,2.94-.71,2.94,0,0-.69-.83-1.55-2.24-.87-1.44-1.91-3.36-2.65-5.8-.37-1.25-.55-2.56-.52-3.81,.03-1.24,.3-2.43,.73-3.35,.43-.93,.99-1.56,1.41-1.92,.43-.35,.69-.49,.69-.49Z"/>
          <path class="cls-22" d="M385.38,130.05s.21,.25,.52,.67c.31,.43,.75,1.03,1.23,1.73,.96,1.43,2.11,3.19,2.85,5.24,.74,2.04,1,4.14,1.18,5.85,.09,.85,.14,1.59,.18,2.12,.03,.53,.04,.85,.04,.85,0,0-.23-.14-.63-.41-.4-.27-.95-.7-1.58-1.29-1.25-1.17-2.75-3.07-3.64-5.53-.89-2.46-.95-4.87-.74-6.55,.1-.85,.25-1.52,.38-1.98,.13-.46,.22-.71,.22-.71Z"/>
          <path class="cls-22" d="M399.12,145.84s.19,.24,.49,.64c.3,.41,.71,.98,1.16,1.59,.91,1.29,2.03,2.78,2.77,4.51,.75,1.73,1.07,3.57,1.39,5.12,.14,.75,.27,1.44,.37,1.94,.09,.49,.13,.79,.13,.79,0,0-.23-.08-.65-.26-.42-.18-.99-.48-1.65-.94-1.32-.9-2.96-2.53-3.93-4.8-.97-2.27-1.03-4.56-.77-6.13,.12-.79,.3-1.41,.45-1.83,.15-.42,.25-.64,.25-.64Z"/>
          <path class="cls-22" d="M411.24,157.72s.14,.32,.41,.8c.26,.49,.69,1.11,1.23,1.72,1.09,1.25,2.64,2.39,4.1,4.11,1.52,1.76,2.64,4.17,2.81,6.07,.1,.94,.02,1.72-.11,2.23-.13,.51-.26,.78-.26,.78,0,0-.16-.2-.44-.53-.28-.33-.7-.78-1.23-1.29-1.06-1.04-2.69-2.26-4.4-4.23-1.75-2.03-2.77-4.61-2.78-6.61-.02-.99,.15-1.78,.34-2.29,.18-.51,.33-.77,.33-.77Z"/>
          <path class="cls-22" d="M426.3,173.14s.8,.86,1.75,2.09c.94,1.25,2.04,2.79,2.66,4.61,.62,1.82,.7,3.71,.72,5.28,.01,1.55-.09,2.73-.09,2.73,0,0-.85-.48-1.95-1.54-1.1-1.06-2.41-2.77-3.15-4.95-.74-2.19-.75-4.33-.53-5.82,.22-1.5,.6-2.39,.6-2.39Z"/>
          <path class="cls-22" d="M438.49,188.73s.83,.99,1.79,2.49c.96,1.51,2.08,3.49,2.68,5.77,.61,2.28,.62,4.55,.54,6.35-.09,1.78-.31,3.06-.31,3.06,0,0-.83-.74-1.87-2.15-1.04-1.4-2.26-3.52-2.93-6.06-.67-2.55-.66-4.97-.45-6.69,.21-1.72,.56-2.77,.56-2.77Z"/>
          <path class="cls-22" d="M448.2,206.6s.51,1.02,1.06,2.37c.54,1.37,1.17,3.01,1.26,4.75,.09,1.74-.35,3.44-.75,4.86-.4,1.41-.8,2.47-.8,2.47,0,0-.7-.61-1.47-1.83-.78-1.21-1.58-3.09-1.7-5.27-.11-2.18,.5-4.12,1.14-5.4,.32-.64,.64-1.13,.88-1.46,.24-.33,.39-.5,.39-.5Z"/>
          <path class="cls-22" d="M453.8,230.78s1.75,2.85,.83,4.08c-.92,1.23-4.15,.38-4.15,.38,0,0-.56-1.98,.36-3.21,.92-1.23,2.96-1.25,2.96-1.25Z"/>
          <path class="cls-22" d="M454.25,245.03s-.42,.72-.89,1.45c-.49,.73-.99,1.49-1.51,1.52-.52,.03-1.1-.67-1.67-1.34-.56-.68-1.05-1.34-1.05-1.34,0,0,.17-.47,.58-.97,.4-.5,1.08-1.02,1.89-1.07,.81-.04,1.54,.4,1.99,.85,.46,.45,.67,.9,.67,.9Z"/>
          <path class="cls-15" d="M434.31,295.17s-.08-.78-.41-1.94c-.32-1.18-.84-2.82-1.47-4.83-1.27-4.02-2.96-9.5-4.27-15.64-1.31-6.14-2.02-11.79-2.78-15.89-.39-2.05-.8-3.7-1.34-4.84-.25-.57-.58-1.01-.87-1.29-.32-.26-.52-.4-.52-.4,0,0,.21,.06,.63,.21,.38,.17,.89,.5,1.37,.97,1,.95,2.06,2.47,3.08,4.41,2.04,3.89,4.05,9.49,5.4,15.81,1.35,6.32,1.8,12.16,1.82,16.41,0,2.13-.1,3.86-.26,5.08-.15,1.21-.38,1.93-.38,1.93Z"/>
          <path class="cls-15" d="M434.36,293.81s-.11-.67-.25-1.88c-.06-.61-.16-1.36-.2-2.22-.04-.86-.06-1.85-.07-2.94,0-1.09,.09-2.28,.17-3.56,.11-1.28,.3-2.63,.53-4.06,.52-2.83,1.3-5.92,2.5-9.01,2.4-6.2,5.8-11.19,8.46-14.61,2.67-3.42,4.58-5.43,4.58-5.43,0,0-.78,2.6-2.32,6.6-1.56,3.98-3.67,9.4-5.99,15.32-1.15,2.96-2.17,5.79-3.11,8.36-.44,1.3-.87,2.53-1.27,3.69-.38,1.16-.73,2.25-1.06,3.24-.31,1-.59,1.9-.84,2.7-.23,.8-.43,1.49-.6,2.06-.34,1.13-.53,1.76-.53,1.76Z"/>
          <path class="cls-22" d="M439.21,259.52s.4-.85,.56-1.78c.2-.94,.06-1.83,.36-2.24,.29-.41,1.18-.57,2.01-1.06,.83-.45,1.5-1.11,1.5-1.11,0,0,.11,.1,.29,.31,.18,.21,.39,.55,.56,1.01,.35,.91,.35,2.4-.52,3.61-.87,1.21-2.28,1.68-3.24,1.64-.49-.01-.87-.1-1.13-.21-.26-.1-.38-.18-.38-.18Z"/>
          <path class="cls-22" d="M416.85,252.71s1.15-.26,2.75-.33c1.6-.08,3.6-.01,5.41,.48,1.81,.5,3.29,1.34,4.73,1.87,.36,.15,.69,.25,1.01,.35,.32,.11,.6,.19,.84,.24,.49,.13,.79,.21,.79,.21,0,0-.18,.18-.54,.48-.18,.16-.41,.33-.69,.5-.28,.18-.62,.38-1.01,.54-.78,.37-1.78,.61-2.89,.71-1.11,.08-2.32-.03-3.5-.35-2.36-.65-4.08-1.93-5.2-2.92-1.12-1.01-1.7-1.79-1.7-1.79Z"/>
          <path class="cls-22" d="M420.75,245.69s-.17,.19-.53,.47c-.18,.15-.42,.31-.7,.44-.29,.14-.63,.31-1.02,.4-.79,.24-1.78,.28-2.83,.09-1.04-.21-2.1-.68-2.98-1.4-1.78-1.47-2.46-3.48-2.71-4.99-.25-1.53-.11-2.63-.11-2.63,0,0,.82,.41,1.94,1.14,1.13,.73,2.55,1.75,3.88,2.83,.63,.53,1.23,1.03,1.81,1.51,.55,.43,1.06,.86,1.54,1.15,.23,.18,.46,.29,.67,.42,.21,.13,.39,.23,.55,.3,.32,.17,.51,.26,.51,.26Z"/>
          <path class="cls-22" d="M442.81,252s-.4,.22-1.16,.65c-.38,.22-.89,.39-1.48,.66-.3,.14-.64,.2-.99,.32-.36,.1-.74,.24-1.16,.29-1.65,.35-3.81,.41-6.23-.18-2.42-.57-5.05-1.77-7.68-3.5-2.63-1.73-5.28-3.96-7.89-6.57-.64-.66-1.29-1.34-1.95-2.02-.63-.71-1.27-1.43-1.92-2.17-1.31-1.46-2.57-3.09-3.78-4.79-2.42-3.42-4.6-7.24-6.54-11.32-1.92-4.09-3.69-8.3-5.53-12.62-1.83-4.31-3.61-8.48-5.48-12.43-.23-.52-.48-.93-.71-1.37-.24-.44-.48-.87-.71-1.31-.24-.43-.56-.78-.83-1.17l-.42-.58c-.13-.2-.28-.38-.45-.54-.66-.65-1.26-1.36-2.04-1.87-.38-.26-.7-.59-1.12-.81-.41-.23-.81-.46-1.21-.69-.39-.25-.84-.42-1.26-.62-.43-.19-.86-.38-1.29-.57-.9-.32-1.78-.67-2.67-.97-1.83-.59-3.6-1.16-5.32-1.71-3.48-1.1-6.7-2.29-9.57-3.5-5.75-2.43-10-5.17-12.9-7.02-2.79-2.01-4.35-3.13-4.35-3.13,0,0,1.69,.89,4.73,2.49,3.11,1.46,7.57,3.64,13.38,5.46,2.9,.92,6.12,1.78,9.63,2.61,1.77,.41,3.6,.85,5.52,1.35,.96,.27,1.94,.56,2.94,.87,.5,.19,1,.38,1.51,.57,.51,.18,1.02,.38,1.52,.65,.5,.25,1.01,.51,1.52,.77,.5,.28,.98,.64,1.47,.96,1.02,.61,1.84,1.5,2.74,2.32,.44,.42,.77,.92,1.16,1.39,.36,.48,.8,.93,1.08,1.46,.31,.51,.61,1.03,.92,1.55l.46,.78,.39,.75c2.05,4.02,3.94,8.26,5.78,12.61,1.84,4.33,3.56,8.61,5.29,12.58,1.76,3.96,3.67,7.65,5.77,10.98,1.06,1.66,2.13,3.22,3.3,4.71,.58,.74,1.13,1.49,1.7,2.2,.58,.7,1.16,1.39,1.72,2.07,2.3,2.66,4.61,4.97,6.9,6.8,2.29,1.84,4.57,3.17,6.7,3.94,2.13,.78,4.09,.98,5.68,.86,.4,0,.77-.07,1.12-.12,.35-.06,.69-.08,.98-.17,.6-.17,1.12-.27,1.52-.42,.81-.3,1.23-.46,1.23-.46Z"/>
          <path class="cls-15" d="M373.5,181.74c-14.7-17.67-22.29-40.7-23.02-63.68-.74-22.98,5.1-45.88,14.86-66.7,3.63-7.75,7.88-15.34,13.82-21.51,3.35-3.47,7.19-6.44,11.22-9.08,12.1-7.92,26.07-12.97,40.44-14.59-15.17-2.92-31.77,2.4-43.86,12.01-35.89,28.56-40.38,74.56-40.67,90.69-.43,24.17,5.88,56.61,24.24,72.34"/>
          <path class="cls-15" d="M333.28,155.89c-9.5-4.97-11.11-29.17-11.07-31.81,.06-4.21-1.81-8.18-2.84-12.27-1.42-5.64-1.23-11.68,.56-17.22,.7-2.16,1.64-4.29,1.7-6.56,.08-3.23-1.62-6.2-2.58-9.29-2.08-6.72-.36-14.47,4.36-19.68,2.46-2.72,5.79-4.99,6.76-8.53,.64-2.37,.37-4.89,.14-7.33-1.63-16.97,10.27-23.76,12.75-26.98,2.82-3.65,18.76-11.5,23.37-11.63-5.42,.94-20.94,6.69-25.59,9.63-5.48,3.47-9.03,9.21-12.39,14.75-2.75,4.53-5.6,9.61-4.64,14.82,.29,1.57,.93,3.11,.86,4.71-.11,2.54-1.94,4.63-3.51,6.63-4.8,6.09-8.14,13.96-6.55,21.55,.57,2.71,1.74,5.28,2.13,8.02,.33,2.34,.08,4.72-.14,7.07-2.07,22.09,3.17,61.77,16.7,64.12Z"/>
          <g>
            <path class="cls-15" d="M420.99,225.7s.22,.07,.65,.2c.42,.12,1.04,.29,1.81,.44,.77,.15,1.71,.27,2.74,.28,1.08,.03,2.08-.1,2.87-.61,.83-.54,1.28-1.51,1.28-2.31,0-.18,0-.42-.02-.64-.02-.22-.07-.41-.12-.67-.1-.48-.27-1-.48-1.58-.22-.58-.5-1.22-.82-1.94-.33-.74-.67-1.43-1.01-2-.34-.57-.69-1.03-.98-1.31-.31-.3-.45-.37-.74-.54-.27-.14-.71-.33-1.3-.53-.33-.1-.66-.21-.99-.31l-.53-.16-.23-.07-.1-.03h-.02c-.07-.16-.24-.41-.61-.48-.34-.06-.7,.1-.98,.46-.07,.09-.14,.19-.21,.3-.04,.03-.06,.19-.08,.31l-.07,.41c-.08,.55-.14,1.21-.21,1.76-.28,2.26-.44,4.16-.1,5.84,.32,1.68,1.09,3.07,1.85,3.93,.38,.44,.74,.74,.99,.95,.26,.2,.4,.3,.4,.3,0,0-.17-.01-.48-.04-.32-.04-.79-.11-1.39-.3-1.18-.37-2.84-1.26-4.31-2.97-1.51-1.72-2.6-4.19-3.32-6.67-.19-.64-.35-1.19-.52-1.9l-.12-.55c-.04-.2-.08-.36-.12-.68-.07-.58-.13-1.17-.13-1.77-.06-2.4,.75-4.92,2.68-6.67,1.02-.89,2.28-1.57,3.71-1.89,1.42-.33,3.04-.3,4.59-.06l.85,.14,.68,.13c.44,.09,.92,.19,1.44,.32,1.03,.26,2.21,.63,3.48,1.31,1.54,.81,2.97,2.1,3.89,3.38,.96,1.29,1.56,2.59,2,3.79,.43,1.21,.7,2.33,.91,3.39,.21,1.08,.36,2.24,.39,3.45,.03,1.21-.09,2.5-.43,3.76-.16,.61-.4,1.29-.69,1.89-.29,.59-.63,1.15-1.05,1.72-1.66,2.22-4.05,3.36-6.17,3.41-2.07,.08-3.96-.82-4.83-1.4-1.03-.63-1.82-1.29-2.41-1.86-.59-.57-.99-1.05-1.25-1.39-.26-.33-.38-.52-.38-.52Z"/>
            <path class="cls-15" d="M418.56,196.15s1.57,.89,3.15,2.05c1.58,1.18,3.18,2.56,3.2,4.01,.02,1.45-1.55,2.88-3.1,4.1-1.55,1.21-3.1,2.14-3.1,2.14,0,0-.97-.56-1.96-1.62-.99-1.06-1.99-2.66-2.01-4.5-.02-1.84,.93-3.46,1.9-4.53,.96-1.08,1.92-1.65,1.92-1.65Z"/>
            <path class="cls-15" d="M406.01,210.56s.99-1.04,2.44-1.94c1.44-.89,3.43-1.66,5.38-.86,.96,.39,1.82,1.19,2.42,2.14,.62,.97,.99,2.24,.87,3.28-.19,1.01-.78,1.67-1.26,2.02-.5,.35-.8,.45-.8,.45,0,0-.12-.13-.32-.28-.2-.15-.56-.31-.94-.32-.33,.13-.66,.22-1.15,.18-.52-.03-1.09-.17-1.76-.44-1.31-.54-2.55-1.57-3.45-2.5-.9-.92-1.43-1.73-1.43-1.73Z"/>
            <path class="cls-15" d="M411.72,223.39s-.14-.29-.27-.77c-.14-.48-.24-1.17-.22-1.9,.03-1.48,.65-3.15,1.91-3.57,1.25-.42,2.76,.55,3.68,1.71,.46,.57,.79,1.19,.97,1.66,.18,.47,.24,.78,.24,.78,0,0-.36,.63-.78,1.35-.43,.71-.95,1.49-1.7,1.74-.74,.25-1.63-.06-2.4-.37-.76-.33-1.43-.62-1.43-.62Z"/>
            <path class="cls-15" d="M420.11,234.36s-.32-.04-.81-.23c-.48-.18-1.12-.54-1.71-1.07-1.2-1.05-2.15-2.79-1.73-4.25,.42-1.46,2.07-2.28,3.56-2.63,1.5-.36,2.85-.26,2.85-.26,0,0,.37,.74,.67,1.72,.3,.98,.55,2.2,.25,3.26-.3,1.06-1.11,1.82-1.8,2.4-.7,.57-1.29,1.04-1.29,1.04Z"/>
            <path class="cls-15" d="M431.66,236.48s-6.73,1.79-8.02-.32c-1.29-2.11,3.33-7.31,3.33-7.31,0,0,4.04-.11,5.33,1.99,1.29,2.11-.65,5.63-.65,5.63Z"/>
            <path class="cls-15" d="M441.55,232.28c-.1-.2-3.85,.63-5.67-1.11-1.8-1.75-1.1-5.5-1.42-5.63,.15,0,3.03,.1,4.95,1.97,.96,.93,1.5,2.1,1.79,3.04,.15,.47,.23,.89,.28,1.2,.05,.32,.07,.52,.07,.52Z"/>
            <path class="cls-15" d="M444.48,221.4c-.21-.09-2.5,3-5.01,2.87-2.51-.15-4.43-3.44-4.75-3.33,.11-.11,2.36-1.91,5.04-1.75,1.34,.07,2.51,.6,3.35,1.13,.42,.26,.76,.52,.99,.73,.25,.21,.39,.35,.39,.35Z"/>
            <path class="cls-15" d="M440.94,213.64s-.41,.81-1.08,1.6c-.67,.79-1.51,1.58-2.33,1.58-.83,0-1.49-.77-2.18-1.46-.33-.34-.7-.64-1.04-.81-.34-.15-.61-.2-.61-.2-.03,.03,.24-.82,1-1.45,.72-.64,1.76-1.16,2.81-1.17,1.05,0,1.92,.49,2.51,.96,.59,.48,.92,.93,.92,.93Z"/>
            <path class="cls-15" d="M430.17,197.41s.99,1.45,2.09,3.05c1.05,1.59,2.23,3.11,1.96,4.13-.27,1.02-2.04,1.76-3.75,2.63-1.74,.85-3.32,1.63-3.32,1.63,0,0-.92-.61-1.75-1.84-.83-1.21-1.5-3.12-1-5.03,.51-1.91,2.03-3.22,3.35-3.85,1.32-.65,2.43-.72,2.43-.72Z"/>
          </g>
          <g>
            <path class="cls-15" d="M345.27,31.04s.08,.18,.22,.52c.15,.33,.37,.81,.69,1.36,.32,.55,.74,1.18,1.28,1.79,.51,.61,1.23,1.2,1.8,1.12,.54-.06,1.02-.39,1.38-.81,.19-.22,.23-.42,.38-.69,.14-.29,.29-.6,.44-.9,.3-.65,.96-1.8,1.2-2.49,.31-.88,0-.62,.05-.67,0,0,.08-.01,.17-.17,.09-.14,.19-.46,.13-.82-.15-.7-.74-1.07-1.69-1.04-.12,0-.25,.01-.38,.03l-.2,.02-.27,.1c-.35,.13-.69,.27-1.02,.41-.64,.28-1.23,.59-1.74,.97-1.03,.75-1.74,1.77-2.06,2.61-.17,.42-.26,.77-.31,1.01-.05,.25-.07,.38-.07,.38,0,0-.07-.11-.19-.31-.12-.21-.29-.53-.44-.98-.31-.9-.52-2.4-.1-4.13,.21-.88,.58-1.78,1.05-2.64,.24-.43,.5-.86,.78-1.27l.21-.31,.34-.42c.24-.27,.48-.55,.72-.83,1.97-2.32,4.88-4.42,8.36-3.61,1.78,.43,3.34,1.52,4.5,3.27,.59,.87,1.07,1.93,1.49,3.04,.43,1.1,.78,2.28,.9,3.5,.15,1.43-.03,2.87-.49,4.19-.11,.33-.25,.66-.38,.97-.13,.28-.26,.54-.4,.79-.28,.49-.57,.94-.87,1.34-.59,.8-1.2,1.44-1.78,1.99-.58,.56-1.24,1.13-2.01,1.66-.76,.53-1.64,1.03-2.61,1.38-.94,.35-2.13,.58-3.15,.55-1.05-.02-2.07-.24-3.02-.65-.95-.42-1.84-1.06-2.48-1.87-.66-.81-.98-1.64-1.15-2.31-.17-.69-.21-1.26-.21-1.74,0-.98,.13-1.79,.28-2.44,.15-.64,.33-1.12,.46-1.43,.13-.31,.21-.47,.21-.47Z"/>
            <path class="cls-15" d="M362.28,17.54s.29,1.72,.46,3.53c.15,1.82,.24,3.71-.58,4.26-.82,.56-2.54-.22-4.18-1.03-1.63-.82-3.12-1.72-3.12-1.72,0,0-.21-.99-.1-2.21,.1-1.22,.56-2.68,1.7-3.45,1.14-.77,2.66-.65,3.82-.29,1.17,.35,2,.92,2,.92Z"/>
            <path class="cls-15" d="M348.54,16.22s1.35,.07,2.8,.47c1.44,.41,3.04,1.22,3.35,2.81,.16,.77-.06,1.7-.53,2.51-.47,.84-1.28,1.65-2.15,1.98-.83,.21-1.63,.03-2.14-.18-.52-.22-.78-.4-.78-.4,0,0-.01-.15-.06-.35-.05-.21-.17-.54-.41-.8-.36-.06-.65-.09-.89-.31-.26-.24-.44-.56-.53-1.02-.17-.91,.14-2.09,.52-3.04,.37-.95,.82-1.66,.82-1.66Z"/>
            <path class="cls-15" d="M343.32,24.94s.14-.28,.42-.68c.28-.4,.72-.9,1.26-1.32,1.08-.87,2.59-1.42,3.39-.78,.81,.63,.64,2.24,.05,3.49-.29,.63-.67,1.17-.99,1.54-.32,.36-.57,.56-.57,.56,0,0-.67,.16-1.37,.35-.7,.18-1.45,.37-1.84,.06-.39-.3-.39-1.07-.38-1.8,.02-.72,.02-1.41,.02-1.41Z"/>
            <path class="cls-15" d="M340.38,34.26s-.17-.26-.34-.73c-.17-.46-.3-1.14-.29-1.86,.01-1.46,.62-3.08,1.72-3.42,1.1-.34,2.37,.65,3.24,1.76,.89,1.1,1.4,2.3,1.4,2.3,0,0-.27,.7-.68,1.45-.42,.75-.97,1.55-1.67,1.77-.7,.23-1.47-.16-2.13-.54-.33-.19-.64-.37-.87-.51-.23-.13-.39-.21-.39-.21Z"/>
            <path class="cls-15" d="M343.86,41.97s-5.43-4.12-4.68-5.73c.75-1.61,7.4-.1,7.4-.1,0,0,2.56,2.8,1.81,4.41-.75,1.61-4.53,1.43-4.53,1.43Z"/>
            <path class="cls-15" d="M350.11,46.14c.1-.2-2.81-2.3-2.49-4.06,.33-1.75,3.79-2.64,3.74-2.97,.07,.12,1.63,1.99,1.26,3.91-.35,1.92-2.44,3.06-2.51,3.12Z"/>
            <path class="cls-15" d="M357.8,43.43c-.06-.22-3.63,.1-4.54-1.44-.89-1.54,1.14-4.47,.88-4.69,.13,.05,2.53,.44,3.51,2.13,.99,1.68,.15,3.91,.15,4Z"/>
            <path class="cls-15" d="M361.04,38.19s-.85,.19-1.8,.22c-.94,.03-1.95-.04-2.26-.5-.31-.47,.12-1.26,.44-2.1,.17-.41,.27-.85,.27-1.2,0-.33,0-.56,0-.56,0,0,.12-.07,.36-.15,.25-.06,.66-.06,1.07,.01,.8,.13,1.66,.52,2.1,1.18,.44,.66,.39,1.45,.23,2.05-.16,.61-.41,1.04-.41,1.04Z"/>
            <path class="cls-15" d="M366.32,24.96s-.51,1.67-.94,3.4c-.47,1.73-.7,3.48-1.3,3.68-.6,.2-1.84-1.05-3.26-2.14-1.39-1.11-2.81-2.13-2.81-2.13,0,0-.14-1,.19-2.23,.31-1.21,1.18-2.65,2.65-3.14,1.46-.49,3.02,.13,3.99,.91,.99,.78,1.49,1.66,1.49,1.66Z"/>
          </g>
          <g>
            <path class="cls-15" d="M329.13,73.13s.12,.11,.34,.33c.22,.2,.55,.49,.97,.8,.42,.3,.94,.62,1.52,.88,.56,.27,1.29,.43,1.59,.07,.28-.33,.34-.78,.29-1.18-.01-.09-.06-.2-.09-.26l.04,.06h.01s0,.02,0,.02c.1,.15-.14-.2-.12-.16h0s0-.01,0-.01v-.03s-.06-.13-.06-.13c-.07-.18-.12-.37-.15-.61-.03-.24-.03-.54,0-.9,.01-.18,.03-.35,.02-.5v-.21s-.02-.04-.03-.04c-.01,0-.02-.01-.03-.02-.16-.1-.28-.08-.27-.08,0,0,.03,0,.05-.06l-.28-.52c-.07-.15-.11-.25-.1-.31,0-.02,0-.02,.01-.04-.03,.03,.12-.12,.17-.18l.23-.25c.28-.31,.51-.58,.68-.81,.35-.47,.52-.81,.59-1.01,.07-.22,.05-.2,.05-.19,0-.02,0,.11,.12,.34,.11,.22,.33,.59,.68,.99l.29,.32s-.03-.03-.05-.04c-.04-.02-.09-.03-.15-.03-.24,0-.55,.11-.91,.32-.74,.44-1.41,.75-2,1.08-.6,.33-1.13,.69-1.56,1.15-.43,.45-.76,.98-.94,1.49-.19,.51-.26,1-.26,1.34-.01,.35,.01,.54,.01,.54,0,0-.15-.1-.39-.33-.24-.23-.58-.61-.9-1.17-.31-.56-.59-1.29-.72-2.17-.13-.88-.08-1.92,.11-2.89,.19-.98,.51-1.94,.8-2.78,.17-.46,.42-1.03,.86-1.69,.44-.64,1.09-1.46,2.38-2.17,1.29-.73,3.31-.96,4.89-.4,1.58,.53,2.51,1.36,3.16,1.98,.33,.32,.59,.62,.82,.88,.22,.26,.37,.43,.61,.74,.61,.81,1.15,1.72,1.5,2.71,.71,1.98,.54,4.13-.13,5.96-.18,.51-.34,.84-.5,1.15-.16,.32-.32,.6-.49,.87-.33,.54-.72,1.12-1.21,1.71-.49,.58-1.09,1.18-1.81,1.68-.69,.49-1.63,.97-2.48,1.17-.87,.22-1.76,.27-2.66,.14-.89-.13-1.79-.47-2.53-1-.75-.53-1.2-1.15-1.48-1.67-.28-.52-.42-.97-.51-1.35-.18-.76-.22-1.42-.21-1.94,.03-1.05,.21-1.58,.21-1.58Z"/>
            <path class="cls-15" d="M338.45,59.82s.85,1.48,1.66,3.03c.8,1.56,1.61,3.13,1.18,3.65-.43,.52-2.13,.01-3.81-.48-1.67-.51-3.29-1.07-3.29-1.07,0,0-.55-.78-.9-1.81-.36-1.02-.5-2.32,.17-3.13,.67-.81,1.97-.91,3.04-.74,1.07,.16,1.94,.56,1.94,.56Z"/>
            <path class="cls-15" d="M328.57,62.19s1.23-.42,2.61-.62c1.37-.19,2.96-.11,3.54,1.02,.29,.55,.28,1.34,.01,2.12-.14,.42-.33,.79-.59,1.19-.25,.39-.6,.58-.93,.77-.68,.36-1.49,.43-2.02,.42-.54-.02-.85-.07-.85-.07,0,0-.08-.09-.23-.21-.14-.12-.39-.3-.7-.42-.16-.05-.32-.15-.48-.06-.04,.01-.07,.03-.11,.05h-.02s-.01,.02-.01,.02h0s0,0,0,0c-.22,.04,.3-.05,.24-.04h0s-.03,0-.03,0l-.24,.03c-.14,.02-.16,.02-.23,.04-.27-.02-.47-.12-.61-.39-.26-.52-.12-1.49,.1-2.33,.22-.84,.53-1.53,.53-1.53Z"/>
            <path class="cls-15" d="M326.93,69.51s.03-.31,.15-.77c.12-.46,.35-1.07,.68-1.64,.66-1.16,1.78-2.15,2.54-1.84,.76,.31,.89,1.8,.56,3.1-.16,.65-.41,1.24-.65,1.66-.24,.42-.43,.66-.43,.66,0,0-.54,.39-1.05,.85-.51,.44-1.02,.92-1.28,.81-.27-.11-.3-.8-.37-1.48-.05-.68-.16-1.34-.16-1.34Z"/>
            <path class="cls-15" d="M327.04,76.5s-.25-.19-.57-.55c-.32-.36-.68-.92-.92-1.56-.51-1.28-.55-2.86,.2-3.36,.75-.5,2.04,.22,3.04,1.11,1.01,.89,1.74,1.93,1.74,1.93,0,0,.03,.7,0,1.46-.04,.76-.14,1.57-.55,1.84-.4,.27-1.07-.03-1.69-.33-.32-.15-.62-.3-.85-.4-.23-.1-.39-.15-.39-.15Z"/>
            <path class="cls-15" d="M331.21,81.1s-6.43-2.06-6.23-3.35,6.95-1.3,6.95-1.3c0,0,3.3,1.59,3.1,2.87-.2,1.28-3.82,1.78-3.82,1.78Z"/>
            <path class="cls-15" d="M336.24,82.7c.03-.22-3.34-1.02-3.47-2.29-.12-1.27,3.02-2.68,2.9-2.99,.09,.1,2.03,1.05,2.16,2.5,.15,1.44-1.56,2.71-1.59,2.79Z"/>
            <path class="cls-15" d="M341.05,79.09c-.12-.19-3.19,1.41-4.12,.53-.93-.88,.53-4.01,.23-4.16,.13,.02,2.22-.53,3.27,.48,1.05,.99,.6,3.07,.62,3.15Z"/>
            <path class="cls-15" d="M342.22,74.72s-.71,.47-1.52,.85c-.81,.38-1.68,.7-1.96,.46-.29-.24,.04-1.03,.22-1.87,.11-.41,.1-.85,.08-1.17-.03-.32-.05-.53-.05-.53,.02,.02,.29-.46,1.06-.59,.7-.15,1.49-.11,1.96,.28,.46,.39,.52,1.05,.45,1.59-.07,.54-.24,.98-.24,.98Z"/>
            <path class="cls-15" d="M342.96,64.11s.09,1.72,.33,3.42c.21,1.72,.71,3.34,.44,3.53-.27,.19-1.62-.85-3.16-1.64-1.51-.82-3.09-1.5-3.09-1.5,0,0-.48-.83-.64-1.95-.17-1.11,.07-2.55,1.1-3.26,1.03-.71,2.45-.43,3.43,.12,.99,.54,1.6,1.28,1.6,1.28Z"/>
          </g>
          <g>
            <path class="cls-15" d="M327.91,110.33s.15,.07,.42,.21c.27,.13,.67,.3,1.17,.46,.49,.16,1.08,.31,1.72,.38,.62,.08,1.36,.01,1.54-.41,.17-.4,.08-.85-.08-1.21-.04-.09-.12-.18-.16-.22l.05,.04h.01s0,.01,0,.01c.14,.11-.19-.14-.16-.12h0s0,0,0,0l-.02-.03-.09-.11c-.12-.15-.23-.31-.33-.54-.1-.22-.19-.5-.27-.86-.04-.17-.08-.34-.13-.48l-.07-.2s-.03-.04-.04-.03c-.01,0-.03,0-.04,0-.18-.05-.29,0-.29,0,0,0,.03,0,.03-.07l-.42-.41c-.11-.12-.18-.21-.19-.27,0-.02,0-.02,0-.04-.02,.04,.08-.15,.11-.22l.14-.3c.18-.38,.31-.7,.4-.98,.19-.55,.24-.93,.25-1.14,0-.24-.02-.21,0-.2,0-.02,.04,.1,.22,.29,.17,.18,.49,.46,.95,.74l.37,.21s-.04-.02-.06-.02c-.05,0-.1,0-.15,.02-.23,.07-.49,.28-.77,.58-.57,.65-1.11,1.14-1.58,1.64-.47,.5-.87,1-1.14,1.57-.27,.56-.42,1.16-.44,1.71-.03,.54,.06,1.03,.16,1.36,.1,.33,.18,.52,.18,.52,0,0-.17-.05-.47-.19-.3-.14-.74-.4-1.21-.84-.47-.44-.96-1.05-1.35-1.85-.4-.8-.66-1.8-.78-2.79-.12-1-.11-2-.09-2.89,.02-.49,.09-1.11,.31-1.87,.22-.74,.59-1.73,1.61-2.79,1.01-1.09,2.86-1.92,4.54-1.88,1.67,.02,2.8,.53,3.61,.92,.41,.2,.75,.41,1.05,.58,.29,.18,.49,.3,.81,.52,.83,.59,1.62,1.29,2.25,2.12,1.28,1.67,1.78,3.77,1.69,5.72-.02,.55-.07,.9-.12,1.25-.06,.35-.12,.67-.2,.98-.15,.61-.35,1.29-.64,1.99-.29,.7-.68,1.45-1.21,2.15-.51,.68-1.26,1.42-2.01,1.87-.76,.47-1.6,.8-2.49,.95-.89,.14-1.85,.1-2.71-.18-.87-.28-1.49-.73-1.92-1.14-.43-.41-.7-.79-.9-1.13-.4-.67-.64-1.28-.79-1.79-.29-1.01-.28-1.57-.28-1.57Z"/>
            <path class="cls-15" d="M332.73,94.82s1.26,1.15,2.51,2.38c1.24,1.24,2.49,2.49,2.24,3.12-.25,.62-2.02,.66-3.77,.7-1.75,.02-3.46-.01-3.46-.01,0,0-.76-.58-1.41-1.45-.66-.86-1.18-2.06-.79-3.04,.39-.98,1.6-1.47,2.67-1.63,1.07-.17,2.02-.06,2.02-.06Z"/>
            <path class="cls-15" d="M324.04,100.08s1.04-.78,2.3-1.39c1.25-.6,2.78-1.01,3.69-.11,.44,.43,.67,1.19,.66,2.01,0,.45-.07,.85-.2,1.31-.12,.45-.4,.74-.65,1.02-.54,.55-1.29,.87-1.79,1.02-.52,.15-.83,.19-.83,.19,0,0-.11-.06-.28-.13-.17-.07-.47-.17-.79-.19-.17,0-.35-.05-.47,.09-.03,.03-.06,.05-.08,.08l-.02,.02h0s0,.01,0,.01h0c-.2,.1,.27-.14,.22-.11h0s-.03,.02-.03,.02l-.22,.11c-.13,.06-.14,.07-.21,.1-.26,.06-.49,.03-.7-.18-.41-.41-.57-1.38-.61-2.25-.05-.86,.04-1.62,.04-1.62Z"/>
            <path class="cls-15" d="M324.72,107.55s-.06-.31-.09-.78c-.03-.48,0-1.12,.15-1.77,.27-1.3,1.04-2.59,1.86-2.53,.82,.06,1.4,1.45,1.48,2.78,.05,.66-.01,1.31-.11,1.78-.1,.47-.21,.76-.21,.76,0,0-.39,.54-.74,1.13-.35,.58-.69,1.19-.98,1.16-.29-.02-.53-.67-.8-1.29-.25-.63-.56-1.22-.56-1.22Z"/>
            <path class="cls-15" d="M326.96,114.18s-.29-.1-.71-.35c-.41-.25-.92-.67-1.35-1.2-.88-1.07-1.4-2.56-.84-3.26,.56-.7,2.01-.42,3.23,.13,1.24,.53,2.25,1.31,2.25,1.31,0,0,.25,.66,.44,1.39,.19,.74,.34,1.54,.04,1.92-.3,.38-1.03,.3-1.71,.2-.35-.05-.68-.09-.93-.12-.25-.03-.42-.02-.42-.02Z"/>
            <path class="cls-15" d="M332.33,117.28s-6.75,0-6.95-1.29,6.22-3.36,6.22-3.36c0,0,3.62,.5,3.82,1.79s-3.09,2.86-3.09,2.86Z"/>
            <path class="cls-15" d="M337.6,117.28c-.04-.22-3.49,.05-4-1.12-.51-1.17,2.06-3.48,1.85-3.74,.11,.07,2.25,.39,2.82,1.72,.58,1.33-.66,3.06-.67,3.14Z"/>
            <path class="cls-15" d="M341.08,112.37c-.17-.14-2.61,2.32-3.76,1.77-1.15-.56-.72-3.98-1.05-4.03,.13-.02,1.95-1.18,3.26-.54,1.31,.62,1.5,2.74,1.55,2.81Z"/>
            <path class="cls-15" d="M340.87,107.86s-.53,.67-1.19,1.27c-.66,.6-1.38,1.18-1.73,1.04-.35-.14-.28-.99-.36-1.85-.02-.42-.17-.84-.28-1.14-.12-.29-.21-.49-.21-.49,.03,.01,.14-.53,.83-.89,.62-.36,1.39-.56,1.95-.33,.56,.23,.81,.84,.91,1.38,.1,.54,.07,1.01,.07,1.01Z"/>
            <path class="cls-15" d="M338.33,97.53s.61,1.61,1.36,3.16c.72,1.57,1.7,2.97,1.5,3.23-.2,.27-1.8-.31-3.51-.6-1.69-.32-3.4-.49-3.4-.49,0,0-.71-.64-1.2-1.66-.5-1-.71-2.45,.05-3.44,.76-.99,2.2-1.16,3.3-.93,1.11,.21,1.91,.74,1.91,.74Z"/>
          </g>
          <g>
            <path class="cls-15" d="M334.82,146.57s.62-.04,1.5-.3c.44-.13,.94-.32,1.42-.6,.47-.28,.9-.64,1.23-1.16,.33-.52,.47-1.18,.45-1.71,0-.54-.16-.95-.29-1.2-.29-.51-.35-.36-.32-.35,0,0-.03-.07-.28-.18-.17-.08-.49-.16-.8-.1-.32,.05-.62,.2-.9,.43-.28,.24-.57,.53-.76,1.07-.21,.47-.41,.91-.52,1.37-.24,.94-.09,1.88,.11,2.5,.2,.63,.4,.97,.4,.97,0,0-.38,.1-1.09,.01-.69-.09-1.73-.41-2.75-1.32-.52-.47-1.01-1.07-1.41-1.66-.37-.5-.83-1.43-1.19-2.39-.34-.97-.54-2.07-.37-3.21,.17-1.17,.72-2.2,1.29-2.88,.39-.45,.79-.89,1.54-1.31,.74-.43,1.87-.8,3.26-.81,.58,0,1.18,.05,1.81,.14,.62,.09,1.29,.21,2.05,.48,.74,.26,1.61,.64,2.5,1.4l.33,.27c.11,.1,.21,.23,.32,.34,.21,.24,.44,.44,.63,.7,.39,.54,.77,1.08,1.05,1.69,1.23,2.41,1.43,4.77,1.16,5.99-.24,1.3-.64,1.94-.99,2.46-.72,.98-1.43,1.49-2.29,1.91-.85,.4-1.78,.58-2.67,.49-.44-.04-.87-.15-1.25-.29-.17-.07-.39-.15-.58-.25-.19-.09-.35-.18-.49-.28-.57-.37-.98-.75-1.28-1.09-.6-.67-.79-1.12-.79-1.12Z"/>
            <path class="cls-15" d="M332.16,133.67s1.65,.34,3.34,.7c1.68,.38,3.37,.72,3.42,1.21,.06,.49-1.51,1.21-3.05,1.97-1.56,.74-3.09,1.46-3.09,1.46,0,0-.92-.07-1.89-.41-.96-.33-1.97-.97-2.07-1.83-.1-.87,.73-1.71,1.59-2.25,.86-.55,1.74-.83,1.74-.83Z"/>
            <path class="cls-15" d="M328.39,140.88s.47-1.2,1.15-2.35c.69-1.15,1.67-2.27,2.71-1.96,.5,.14,.99,.67,1.29,1.35,.39,.75,.31,1.52,.11,2.22-.21,.7-.68,1.36-1.01,1.75-.34,.39-.57,.6-.57,.6,0,0-.42,.1-.97,.45-.25,.18-.57,.38-.59,.66-.13,.22-.25,.33-.46,.27-.37-.11-.81-.86-1.14-1.58-.33-.72-.54-1.41-.54-1.41Z"/>
            <path class="cls-15" d="M331.91,145.76s-.21-.23-.48-.62c-.27-.39-.57-.96-.78-1.57-.44-1.23-.48-2.68,.17-2.97,.65-.29,1.72,.68,2.35,1.83,.66,1.14,.84,2.4,.84,2.4,0,0-.09,.67-.02,1.33,.04,.66,.13,1.32-.02,1.39-.16,.07-.6-.43-1.07-.9-.47-.48-.99-.88-.99-.88Z"/>
            <path class="cls-15" d="M336.05,149.29s-.3,.06-.78,.07c-.47,0-1.12-.08-1.75-.3-1.28-.42-2.46-1.36-2.33-2.1,.13-.74,1.51-1.06,2.82-1.08,1.31-.03,2.56,.22,2.56,.22,0,0,.55,.41,1.1,.86,.55,.46,1.1,.97,1.04,1.31-.06,.34-.72,.48-1.37,.64-.33,.08-.65,.16-.88,.23-.24,.07-.39,.14-.39,.14Z"/>
            <path class="cls-15" d="M340.99,149.28s-5.8,3.4-6.42,2.58c-.63-.82,4.15-5.54,4.15-5.54,0,0,3.29-1.46,3.92-.65,.63,.82-1.64,3.61-1.64,3.61Z"/>
            <path class="cls-15" d="M344.53,147.36c-.14-.17-2.87,1.87-3.66,1.26-.78-.61,.56-3.74,.25-3.87,.13,.01,1.96-.86,2.88-.14,.92,.71,.49,2.67,.53,2.75Z"/>
            <path class="cls-15" d="M344.99,142.57c-.22-.04-.95,3.29-1.95,3.34-.99,.05-2.02-3.19-2.34-3.09,.11-.07,.92-1.93,2.09-1.99,1.16-.06,2.12,1.7,2.2,1.73Z"/>
            <path class="cls-15" d="M343.09,139.5s-.11,.84-.33,1.68c-.22,.84-.49,1.69-.76,1.72-.28,.03-.52-.77-.95-1.51-.19-.37-.5-.69-.72-.91-.23-.22-.38-.36-.38-.36,0,0-.02-.12-.02-.32,0-.19,.02-.47,.22-.78,.31-.58,.8-1.12,1.3-1.17,.5-.05,.93,.37,1.2,.79,.28,.43,.44,.86,.44,.86Z"/>
            <path class="cls-15" d="M337.12,133.28s1.33,1.06,2.77,1.96c1.43,.93,3,1.55,2.97,1.71-.02,.17-1.71,.27-3.35,.73-1.65,.42-3.24,1.03-3.24,1.03,0,0-.92-.16-1.84-.71-.91-.53-1.79-1.55-1.62-2.62,.17-1.07,1.31-1.77,2.34-1.99,1.04-.24,1.96-.11,1.96-.11Z"/>
          </g>
        </g>
        <path class="cls-4" d="M168.59,430.15c.4,3-1.71,5.75-4.71,6.15-3,.4-5.75-1.71-6.15-4.71-.4-3,1.71-5.75,4.71-6.15,3-.4,5.75,1.71,6.15,4.71Z"/>
        <path class="cls-4" d="M253.43,622.9c.4,3-1.71,5.75-4.71,6.15s-5.75-1.71-6.15-4.71c-.4-3,1.71-5.75,4.71-6.15s5.75,1.71,6.15,4.71Z"/>
        <path class="cls-4" d="M643.58,478c.4,3-1.71,5.75-4.71,6.15s-5.75-1.71-6.15-4.71c-.4-3,1.71-5.75,4.71-6.15s5.75,1.71,6.15,4.71Z"/>
        <path class="cls-4" d="M100.14,447.49c.2,1.5-.86,2.87-2.35,3.07-1.5,.2-2.87-.86-3.07-2.35s.86-2.87,2.35-3.07,2.87,.86,3.07,2.35Z"/>
        <path class="cls-4" d="M141.64,372.02c.2,1.5-.86,2.87-2.35,3.07-1.5,.2-2.87-.86-3.07-2.35-.2-1.5,.86-2.87,2.35-3.07s2.87,.86,3.07,2.35Z"/>
        <path class="cls-4" d="M58.19,416.17c.2,1.5-.86,2.87-2.35,3.07-1.5,.2-2.87-.86-3.07-2.35-.2-1.5,.86-2.87,2.35-3.07s2.87,.86,3.07,2.35Z"/>
        <path class="cls-4" d="M232.52,604.87c.2,1.5-.86,2.87-2.35,3.07-1.5,.2-2.87-.86-3.07-2.35-.2-1.5,.86-2.87,2.35-3.07,1.5-.2,2.87,.86,3.07,2.35Z"/>
        <path class="cls-4" d="M578.6,511.62c.2,1.5-.86,2.87-2.35,3.07s-2.87-.86-3.07-2.35,.86-2.87,2.35-3.07c1.5-.2,2.87,.86,3.07,2.35Z"/>
        <path class="cls-4" d="M639.55,510.18c.2,1.5-.86,2.87-2.35,3.07s-2.87-.86-3.07-2.35c-.2-1.5,.86-2.87,2.35-3.07,1.5-.2,2.87,.86,3.07,2.35Z"/>
        <path class="cls-4" d="M117.74,393.99c.49,3.69-2.11,7.08-5.8,7.57-3.69,.49-7.08-2.11-7.57-5.8-.49-3.69,2.11-7.08,5.8-7.57,3.69-.49,7.08,2.11,7.57,5.8Z"/>
        <path class="cls-4" d="M177.47,632.95c.49,3.69-2.11,7.08-5.8,7.57-3.69,.49-7.08-2.11-7.57-5.8-.49-3.69,2.11-7.08,5.8-7.57s7.08,2.11,7.57,5.8Z"/>
        <path class="cls-4" d="M676.25,517.99c.49,3.69-2.11,7.08-5.8,7.57-3.69,.49-7.08-2.11-7.57-5.8s2.11-7.08,5.8-7.57,7.08,2.11,7.57,5.8Z"/>
        <path class="cls-4" d="M197.63,598.12c.49,3.69-2.11,7.08-5.8,7.57s-7.08-2.11-7.57-5.8,2.11-7.08,5.8-7.57c3.69-.49,7.08,2.11,7.57,5.8Z"/>
      </g>
    </g>
  </g>
</svg>