<?xml version="1.0" encoding="UTF-8"?>
<svg xmlns="http://www.w3.org/2000/svg" xmlns:xlink="http://www.w3.org/1999/xlink" viewBox="0 0 101.35 123.04">
  <defs>
    <style>
      .cls-1 {
        fill: #fff;
      }

      .cls-2 {
        fill: #007cf9;
      }

      .cls-3 {
        fill: #0059f9;
      }

      .cls-4 {
        isolation: isolate;
      }

      .cls-5 {
        fill: #ffe572;
      }

      .cls-6 {
        fill: url(#_Áåçûìÿííûé_ãðàäèåíò_64);
      }

      .cls-7 {
        fill: #c51b5c;
      }

      .cls-8 {
        fill: #ffbd27;
      }

      .cls-9, .cls-10, .cls-11 {
        mix-blend-mode: screen;
      }

      .cls-9, .cls-12 {
        fill: #0092f9;
      }

      .cls-13 {
        fill: #ffca52;
      }

      .cls-10, .cls-14 {
        fill: #b1cfff;
      }

      .cls-10, .cls-11, .cls-15 {
        opacity: .46;
      }

      .cls-16 {
        fill: #72caf9;
      }

      .cls-17 {
        fill: #b3e3f9;
      }

      .cls-18 {
        fill: #ffd26c;
      }

      .cls-19 {
        fill: #d4d4d4;
      }

      .cls-20 {
        fill: #ff9f00;
      }

      .cls-21 {
        fill: #eaeaea;
      }

      .cls-22 {
        fill: url(#_Áåçûìÿííûé_ãðàäèåíò_64-2);
      }

      .cls-23 {
        fill: #853408;
      }

      .cls-24 {
        fill: #431600;
      }

      .cls-25 {
        fill: #761b0d;
      }

      .cls-26 {
        fill: #004090;
      }

      .cls-15 {
        mix-blend-mode: multiply;
      }

      .cls-27 {
        fill: #22acf6;
      }
    </style>
    <linearGradient id="_Áåçûìÿííûé_ãðàäèåíò_64" data-name="Áåçûìÿííûé ãðàäèåíò 64" x1="57.14" y1="34.68" x2="57.52" y2="27.74" gradientUnits="userSpaceOnUse">
      <stop offset="0" stop-color="#761b0d"/>
      <stop offset="1" stop-color="#bb590d"/>
    </linearGradient>
    <linearGradient id="_Áåçûìÿííûé_ãðàäèåíò_64-2" data-name="Áåçûìÿííûé ãðàäèåíò 64" x1="989.98" y1="34.68" x2="990.37" y2="27.74" gradientTransform="translate(1030.39) rotate(-180) scale(1 -1)" xlink:href="#_Áåçûìÿííûé_ãðàäèåíò_64"/>
  </defs>
  <g class="cls-4">
    <g id="Layer_2" data-name="Layer 2">
      <g id="_Ñëîé_2" data-name="Ñëîé 2">
        <g>
          <g>
            <path class="cls-13" d="M90.89,76.7c-.62-1.52-1.23-2.64-1.27-4.3-.05-1.99-1.38-3.89-2.15-5.73-.91-2.17-2.24-4.16-3.22-6.32-2.04-4.51-3.22-9.29-5.45-13.73-1.11-2.22-2.48-4.34-3.85-6.45-2.39-2.61-4.53-5.55-6.33-8.58-2.01-2.4-3.6-5.11-5.1-7.86-1.7-3.14-3.53-6.19-5.32-9.27-.94-1.62-1.86-3.25-2.84-4.84-1.44-1.73-2.82-3.51-4.16-5.32,0-.22-.65-.74-.77-.99-.13-.26-.2-.56-.32-.82-.31-.65-.89-1.19-1.36-1.73-.21-.25-.44-.51-.74-.64-.72-.31-1.51,.2-2.1,.72-1.16,1.02-2.26,2.18-3.09,3.48-4.78,7.49-8.81,15.46-12.68,23.34-7.16,14.6-13.13,29.65-17.85,44.99-.45,1.45-.68,3.15-1.37,4.53-.11,.21-.36,.37-.46,.61-.22,.54-.25,1.08-.11,1.63,.28,1.09,1.19,2.1,2.33,2.6,1.96,.86,4.27,.65,6.45,.44,11.84-1.16,23.74-1.82,35.66-2.05,9.23-.18,18.47-.1,27.69,.18,2.54,.08,9.95-.05,8.4-3.87Z"/>
            <path class="cls-8" d="M90.89,76.7c-.62-1.52-1.23-2.64-1.27-4.3-.05-1.99-1.38-3.89-2.15-5.73-.91-2.17-2.24-4.16-3.22-6.32-2.04-4.51-3.22-9.29-5.45-13.73-1.11-2.22-2.48-4.34-3.85-6.45-2.39-2.61-4.53-5.55-6.33-8.58-2.01-2.4-3.6-5.11-5.1-7.86-1.7-3.14-3.53-6.19-5.32-9.27-.94-1.62-1.86-3.25-2.84-4.84-1.44-1.73-2.82-3.51-4.16-5.32-.18-.21-.36-.42-.54-.63-.14-.16-.23-.34-.29-.51-.03-.04-.05-.07-.08-.11-.07-.08-.14-.17-.21-.25-.09-.11-.16-.22-.21-.34-.04-.06-.09-.13-.14-.19-.04-.03-.08-.06-.11-.09,.2,.57,.56,1.17,.95,1.61,5.6,6.36,6.48,15.05,11.26,21.9,1.36,1.95,3.06,3.79,3.76,6,.34,1.1,.43,2.26,.96,3.31,.6,1.18,1.71,2.1,2.62,3.12,1.26,1.42,2.19,3.11,2.82,4.9,.31,.88-.03,2.06-.11,2.98-.1,1.04-.31,2.12-.31,3.16-.08,.83-.16,1.67-.48,2.43-.38,.91-1.07,1.68-1.34,2.62-.55,1.99,.91,3.92,2.27,5.46,.19,.21,.39,.44,.67,.49,.19,.04,.38,0,.56-.03,2.2-.35,3.76,1.28,4.76,3.01,.39,.68,.7,1.46,.16,2.15-.52,.66-1.74,1.03-.97,2,.65,.82,2.76,1.39,2.55,2.7-.13,.84-1.32,1.15-2.27,1.26-2.96,.36-5.92,.72-8.88,1.08,2.33-.08,4.68,.62,6.47,1.92-1.15,.84-2.32,.75-3.69,.93-3.4,.44-6.93,.51-10.42,.42,1.01-.23,1.96-.6,2.74-1.23,.37-.3,.65-.69,.64-1.15-.02-.5-.38-.9-.87-1.12-.87-.38-1.9-.54-2.87-.54-.19,0-.39,.01-.59,.02,.08-.03,.16-.07,.25-.1,.38-.14,.07-.64-.31-.5-.87,.32-1.75,.63-2.51,1.13-.87,.32-1.65,.78-2.2,1.41-.06,.07-.11,.14-.16,.21-.14,.12-.27,.24-.37,.38-.28,.39-.25,.85-.02,1.22-1.57-.08-3.15-.11-4.7,.08-2.88,.35-5.59,1.42-8.45,1.83-5.36,.77-10.9-.83-16.24,0-1.56,.24-3.21,.68-4.68,.17-.54-.19-1.11-.5-1.64-.32-.72,.24-.8,1.15-1.42,1.54-1.04,.65-2.27-.61-2.67-1.68-.31-.82-.56-1.66-.75-2.5-.43-1.93-.56-3.91-.37-5.86,.03-.31,.07-.62,.12-.93-.54,1.66-1.07,3.31-1.58,4.98-.45,1.45-.68,3.15-1.37,4.53-.11,.21-.36,.37-.46,.61-.22,.54-.25,1.08-.11,1.63,.28,1.09,1.19,2.1,2.33,2.6,1.96,.86,4.27,.65,6.45,.44,11.84-1.16,23.74-1.82,35.66-2.05,9.23-.18,18.47-.1,27.69,.18,2.54,.08,9.95-.05,8.4-3.87Z"/>
            <path class="cls-20" d="M91.52,76.56s-.01-.04-.02-.06c-.26-.83-.82-1.58-.97-2.43-.06-.38-.05-.76-.09-1.15-.13-1.06-.77-2-1.29-2.95-.25-.47-.4-.97-.65-1.44-.08-.15-.2-.28-.3-.42-.33-.45-.53-.97-.74-1.46-.91-2.17-2.24-4.16-3.22-6.32-2.04-4.51-3.22-9.29-5.45-13.73-1.11-2.22-2.48-4.34-3.85-6.45-2.39-2.61-4.53-5.55-6.33-8.58-2.01-2.4-3.6-5.11-5.1-7.86-1.7-3.14-3.53-6.19-5.32-9.27-.01-.02-.03-.05-.04-.07,.74,2.07,1.6,4.1,2.58,6.09,.7,1.41,1.46,2.78,2.27,4.14,.31,.53,.44,.99,.61,1.55,.28,.88,.82,1.71,1.22,2.55,.71,1.52,1.39,3.06,2.32,4.5,1.13,1.75,2.57,3.26,3.86,4.88,.7,.88,1.25,1.82,1.84,2.75,.34,.53,.91,.87,1.26,1.42,.74,1.17,.95,2.7,.42,4-.58,1.4-1.87,3.02-.89,4.18,.33,.39,.84,.57,1.29,.81,1.28,.67,1.83,1.84,2.53,3,.28,.46,.36,.96,.39,1.49,.09,1.18-.11,2.38,.18,3.54,.34,1.32,1.29,2.39,2.03,3.54,.74,1.15,1.31,2.6,.79,3.86-.06,.16-.15,.31-.16,.48-.08,1.09,1.86,1.19,1.93,2.39,.07,1.21-.4,2.5-1.59,2.98-1.62,.66-3.93-.29-4.96,1.13,.9,.33,1.99,1.23,1.43,2-.21,.29-.57,.39-.91,.48-.33,.09-.66,.17-.99,.24-5.95,1.38-11.99,1.81-17.99,.4-.69-.16-1.37-.34-2.07-.43-1.3-.16-2.61,.02-3.87,.37-.64,.18-1.25,.42-1.87,.64-1.22,.43-2.6,.71-3.88,.94-4.3,.76-8.72-.12-13.07,.23-2.93,.24-5.87,1.03-8.76,.52-1.49-.26-3.33-.87-4.79-.2-.79,.36-1.04,1.22-1.75,1.68-.27,.17-.52,.21-.84,.19-1.11-.05-2.25-.27-3.33-.5-.23-.05-.58-.06-.79-.17-.84-.46-1.31-2.07-1.41-2.94-.02-.15-.04-.28-.06-.4-.06,.16-.13,.31-.21,.46-.11,.21-.36,.37-.46,.61-.22,.54-.25,1.08-.11,1.63,.28,1.09,1.19,2.1,2.33,2.6,1.96,.86,4.27,.65,6.45,.44,11.84-1.16,23.74-1.82,35.66-2.05,9.23-.18,18.47-.1,27.69,.18,1.02,.03,2.05,.01,3.06-.07,.47-.04,.93-.11,1.4-.09,.27,.01,.54,.02,.8,.02,.56,0,1.13-.02,1.69-.06,.22-.02,.44-.04,.63-.14,.19-.1,.32-.28,.44-.44,.33-.47,.83-.97,.97-1.52,.06-.24,.1-.5,.12-.74,.04-.34-.09-.65-.09-.97Z"/>
            <g>
              <path class="cls-8" d="M53.63,71.11s.03,0,.04,0h0s-.03,0-.04,0Z"/>
              <path class="cls-8" d="M52.26,70.18c-.24,.13-.46,.29-.63,.49-.65,.15-.8,.84-.61,1.34,.1,.27,.28,.49,.53,.64t0,0c.13,.11,.3,.18,.48,.2,.14,.04,.29,.06,.43,0,.27-.02,.53-.08,.77-.16,.44-.16,.83-.43,1.19-.71,.39-.3,.81-.7,.77-1.19-.09-1.25-2.05-1.08-2.92-.61Z"/>
              <path class="cls-8" d="M52.67,71.81s0,.02,0,.04c0,0,0,0,0,0,0-.01,0-.03,0-.04Z"/>
              <path class="cls-8" d="M52.69,71.64s0,.02,0,.03c0,0,0,.01,0,.02,0,0,0,0,0,0,.03-.07,.02-.08,.01-.06Z"/>
              <path class="cls-8" d="M52.74,71.52s0,0,0,.01c0,.01-.01,.03-.02,.04,0,0,0-.01,.03-.06Z"/>
            </g>
            <path class="cls-20" d="M62.25,70.98c-.42-.57-1.15-.85-1.91-.89-1.55-.1-3.06,.83-3.86,1.93,0,.01-.01,.03-.02,.04-.41,.43-.71,.97-.43,1.5,.3,.58,1.1,.74,1.76,.71,.73-.04,1.47-.14,2.17-.35,.7-.22,1.46-.48,1.96-.97,.05-.05,.1-.11,.15-.16-.09,.1-.08,.09,.01-.01,.05-.06,.11-.11,.16-.18,.1-.14,.18-.3,.23-.46,.11-.39,.04-.81-.21-1.15Z"/>
            <path class="cls-20" d="M74.18,54.54c-.16-.16-.36-.27-.59-.33-.7-.16-1.41,.39-1.68,1.07-.42,1.08-.23,3.66,1.43,3.44,.55-.07,1.2-.42,1.43-.93,.24-.54,.2-1.17,.09-1.74-.1-.55-.31-1.15-.69-1.52Z"/>
            <path class="cls-20" d="M69.42,47.8c-.14-.12-.31-.18-.51-.16-.19,.02-.37,.1-.47,.25-.22,.31-.32,.71-.3,1.07,0,.11,.02,.22,.06,.33,.04,.11,.09,.21,.15,.31,.07,.12,.17,.22,.3,.29,.03,.01,.06,.03,.08,.04,.11,.08,.23,.15,.38,.2,.21,.07,.51-.03,.62-.2,.43-.67,.31-1.58-.33-2.12Z"/>
            <path class="cls-20" d="M27.12,71.7c-1.94-.36-4.21,.32-5.18,1.91-.33,.54-.5,1.18-.1,1.74,.35,.49,.95,.72,1.58,.8,.68,.09,1.4-.05,2.08-.29,.4-.04,.78-.13,1.12-.24,.58-.18,1.11-.43,1.6-.77,.44-.3,.99-.69,1.12-1.18,.28-1.08-1.23-1.79-2.22-1.98Z"/>
            <g>
              <path class="cls-20" d="M32.84,75.64c.33-.06,.62-.2,.74-.58,.5-1.62-2.29-1.95-3.07-.9-.23,.31-.27,.81-.11,1.16,.23,.49,.9,.47,1.37,.4,.31-.05,.72-.01,1.07-.07Z"/>
              <path class="cls-20" d="M32.24,74.76h0s.02,0,.03,0c.05,0-.11,0-.03,0Z"/>
            </g>
            <path class="cls-8" d="M24.91,52.83c-.02-.22-.04-.44-.06-.66-.13-1.2-.25-2.4-.36-3.59-.11-1.22-.18-2.57,.57-3.55,.44-.58,1.14-1.42,.56-1.86-1.02,.53-1.56,1.66-1.98,2.73-2.1,5.32-3.1,11.09-5.91,16.08-1.1,1.95-2.51,3.91-2.48,6.14,1.45-1.29,3.47-1.91,5.39-1.66,.59,.08,1.2,.23,1.77,.05,.38-.12,.69-.38,.98-.65,.93-.86,1.91-2,2.36-3.21,.14-.39,.14-.74,.12-1.15-.05-1.14,.03-2.29-.04-3.44-.06-.91-.26-1.65-.54-2.5-.27-.84-.32-1.82-.39-2.74Z"/>
            <path class="cls-8" d="M45.43,9.07c.23-.44,.4-.91,.47-1.4,.1-.64,0-1.31,.03-1.95,.02-.38,.27-1.27-.29-1.29-.38-.01-.74,.48-.9,.71-3.47,5.08-6.49,10.4-9.03,15.89-.16,.34-.32,.72-.21,1.08,.22,.76,1.43,.9,2.26,.61,.53-.19,.99-.48,1.5-.69,.39-.16,.89-.18,1.19-.45,.99-.89,1.92-1.89,2.66-2.95,.34-.48,.59-1.01,.58-1.58-.02-.65-.46-1.04-.81-1.57-.63-.97-.47-2.07,.14-3.01,.73-1.12,1.79-2.19,2.41-3.4Z"/>
            <path class="cls-18" d="M45.22,19.92c-.09,.08-.18,.15-.27,.23-1.56,1.32-2.83,2.72-4.64,3.82-1.87,1.13-3.94,2.01-6.12,2.56-2.11,3.9-3.78,7.99-4.98,12.18,1,.03,2.01,.06,3.01,.09-2.36,3.85-3.69,8.18-3.85,12.56-.06,1.68,.14,3.35,.09,5.01-.02,.73,.1,1.46,.22,2.19,.23,1.34,.53,2.83-.17,4.08-.88,1.57-3.19,2.62-2.78,4.37,.3,1.28,1.86,1.7,3.12,2.03,1.27,.33,2.76,1.25,2.48,2.53,1.05-.68,2.22-1.39,3.47-1.25,1.26,.15,2.25,1.13,3.4,1.67,2.38,1.12,5.55,.02,6.73-2.34,.33-.65,.55-1.41,1.15-1.81,.74-.5,1.67-.24,2.5-.31,.62-.06,1.06-.37,1.61-.6,.78-.33,1.65-.22,2.47-.23,.93-.02,1.88-.1,2.73-.49,1.37-.62,2.28-1.92,3.12-3.17,.08-.12,.17-.26,.18-.41,.02-.32-.3-.55-.48-.81-.76-1.09,.81-2.76,.03-3.83-.42-.57-1.32-.57-1.91-.19-.6,.38-.95,1.03-1.28,1.66-.36,.69-.74,1.42-1.44,1.81-.56,.32-1.25,.56-1.87,.75-.49,.15-.97,.2-1.48,.2-1.91,0-4.99,.02-6.07-1.85-.33-.58-.4-1.27-.72-1.86-.83-1.52-3.1-1.81-3.85-3.37-.4-.83-.25-1.81-.28-2.73-.11-3.41-2.7-6.33-2.96-9.73-.04-.59,.02-1.26,.47-1.65,1.13-.98,2.85,.9,4.27,.43,.96-.32,1.29-1.55,2.17-2.04,.42-.24,.92-.28,1.38-.39,1.19-.28,2.33-1.11,2.91-2.2,.23-.45,.22-.93,.4-1.39,.25-.69,.81-1.3,1.23-1.89,1.7-2.46,3.41-4.94,4.36-7.69,.12-.35,.23-.7,.32-1.06,.46-1.77,.56-3.64,.09-5.42-.41-1.54-1.58-2.83-1.92-4.38-.12-.56-.07-1.11-.14-1.67-.05-.35-.23-.52-.36-.82-.38-.88,.31-1.82,.22-2.73-.03-.32-.16-.63-.29-.93-.85-2.01-1.71-4.02-2.56-6.03,.04,.75-.07,1.54-.47,2.18-.4,.64-1.14,1.1-1.89,1.03,.95,1.19,1.06,2.98,.27,4.28-.28,.46-.66,.85-.93,1.31-.51,.85-.62,1.92-.36,2.87,.13,.45,.32,.81,.63,1.16,.69,.79,.52,2.04,.1,2.95-.26,.57-.63,.93-1.08,1.31Z"/>
            <path class="cls-18" d="M53.41,32.87c1.39-.4,2.75,.57,3.82,1.45,1.07,.87,2.55,1.78,3.87,1.23,1.27-.53,1.46-2.06,1.24-3.28-.29-1.64-1.06-4.26-2.87-5.12-2.01-.95-3.35,.68-4.14,2.07-.69,1.2-1.33,2.42-1.92,3.66Z"/>
            <path class="cls-5" d="M45.34,8.69s-.02-.03-.03-.05c-.31-.4-.85-.68-1.34-.54-.31,.08-.56,.31-.79,.53-1.78,1.73-3.18,3.86-4.06,6.18-.24,.62-.44,1.27-.37,1.93,.06,.66,.46,1.32,1.09,1.53,.66,.21,1.41-.1,1.99-.41,1-.53,1.92-1.22,2.72-2.02,.83-.83,1.41-1.79,1.55-2.98,.11-.94-.02-1.89-.22-2.81-.1-.48-.24-.97-.52-1.37Z"/>
            <path class="cls-5" d="M47.67,4.66c0-.08,0-.15,0-.21,.02-.54,0-1.07-.03-1.61-.02-.37-.16-.85-.53-.88-.22-.02-.41,.13-.56,.28-.87,.82-1.55,1.85-1.96,2.98-.11,.31-.2,.68-.05,.97,.18,.34,.62,.46,1,.38,.3-.07,.53-.24,.79-.39,.33-.19,.53-.27,.83-.57,.15-.15,.4-.35,.47-.55,.04-.11,.04-.26,.03-.4Z"/>
            <g class="cls-15">
              <path class="cls-13" d="M63.61,42.15c.49-.22,.91-.63,1.29-1.03,.53-.55,1.05-1.1,1.58-1.64,.51-.53,1.17-1.05,1.57-1.66,.21-.31,.17-.84,.43-1.09,.37-.36,1.17-.02,1.59,.06,.19,.04,.37-.25,.53-.7,1.04,.39,2.74,2.53,2.74,2.53,0,0,0-.13-.02-.35-1.74-2.11-3.32-4.37-4.7-6.69-1.86-2.22-3.37-4.72-4.77-7.27-4.24-.69-10.99-.72-11.59,.05-.71,.9-2.73,1.38-3.32,1.43-.59-.05-2.61-.53-3.32-1.43-.75-.95-11.09-.68-14.15,.59-.44,.9-.88,1.79-1.32,2.68-1.6,3.25-3.13,6.53-4.6,9.82,.55-.57,1.21-1.18,1.72-1.37l-.02-.12c.17,.52,.36,.86,.56,.81,.76-.15,1.4-.38,1.52,0,.13,.38,3.94,4.78,5.21,4.76,1.27-.02,9.18,.36,10.45-.82,.16,.88,.03,1.7,.89,3.15,.8,1.36,2.78,1.6,3.04,1.53,.26,.07,2.24-.17,3.04-1.53,.86-1.45,.73-2.27,.89-3.15,0-.02,0-.04,0-.06,.02,.02,.03,.04,.05,.06,.45,.42,1.24,.51,1.82,.6,1.12,.17,2.25,.22,3.38,.25,.77,.02,1.71-.18,2.47,0,.87,.21,1.66,.84,2.6,.7,.16-.02,.31-.07,.45-.13Zm-14.67-8.67h0s.03,0,.04,.01c-.01,0-.03,0-.04-.01Z"/>
            </g>
            <path class="cls-5" d="M37.12,23.75c-.29-.18-.67-.25-1.03-.17-.63,.14-1.03,.63-1.36,1.08-.39,.52-.76,1.06-1.1,1.61-1.35,2.18-2.41,4.62-2.77,7.09-.04,.29,.34,.57,.66,.48,.42-.11,.81-.27,1.18-.46,.13,.07,.3,.09,.48,0,2.9-1.34,5.86-3.69,5.89-6.8,0-1.02-.53-2.94-1.94-2.84Z"/>
            <path class="cls-5" d="M28.32,38.59c-.02-.25-.05-.49-.13-.74-.03-.08-.07-.16-.14-.19-.08-.03-.17,.03-.23,.08-1.12,.88-1.97,2.12-2.39,3.48-.04,.14-.08,.29-.04,.44,.11,.37,.65,.39,1,.22,.31-.15,.6-.26,.92-.38,.11-.04,.13-.07,.21-.15,.43-.46,.77-1.15,.85-1.77,.03-.24-.03-.48-.04-.72,0-.09,0-.19,0-.28Z"/>
            <path class="cls-5" d="M69.64,57.18c-.32-.36-.83-.61-1.36-.5-.53,.11-.81,.51-1.02,.91-.31,.6-.37,1.28-.24,1.93,.14,.71,.56,1.4,1.17,1.87,.25,.2,.59,.28,.91,.13,.35-.17,.6-.44,.75-.75,.35-.48,.56-1.02,.55-1.6,0-.72-.25-1.43-.76-2.01Z"/>
            <path class="cls-5" d="M71.97,61.97c-.02-.07-.06-.13-.12-.18-.02-.02-.05-.03-.07-.05-.04-.07-.08-.13-.15-.19-.11-.1-.22-.15-.36-.2-.02,0-.04-.01-.06-.02-.07-.01-.15-.03-.22-.03-.07,0-.15,0-.22,.02-.02,0-.05,0-.07,.01-.16,.04-.26,.09-.39,.18,0,0-.02,.01-.03,.02,0,0,0,0-.01,.01-.03,.03-.08,.08-.1,.11-.03,.04-.05,.09-.08,.14,0,0,0,.02-.01,.03-.03,.07-.04,.15-.04,.22,0,.14,.03,.22,.09,.35,0,.01,.01,.02,.02,.03,.04,.05,.08,.1,.12,.15,.01,.01,.02,.02,.03,.03,.05,.04,.1,.08,.16,.11,.07,.04,.15,.07,.23,.1,.03,.01,.07,.02,.1,.03,.09,.02,.17,.03,.26,.04,.02,0,.04,0,.06,0,.07,0,.15,0,.22-.02,.09-.01,.18-.04,.25-.08,0,0,.01,0,.02-.01,.05-.03,.1-.06,.15-.09,.05-.04,.09-.09,.13-.14,.08-.11,.11-.22,.13-.35,0-.08,0-.15-.04-.21Z"/>
            <path class="cls-5" d="M20.28,70.54c.12-.44,.12-1.17-.25-1.47-.37-.31-.96-.5-1.43-.55-1.21-.14-2.41,.54-3.05,1.4-.64,.87-.79,2.14-.73,3.2,.03,.46,.18,1.01,.62,1.14,.35,.1,.71-.13,1.01-.34,.78-.56,1.56-1.12,2.33-1.69,.59-.43,1.22-.9,1.46-1.59,0-.03,.02-.06,.03-.09Z"/>
            <path class="cls-5" d="M27.44,47.48c-.02-.2-.02-.56-.18-.72-.17-.17-.49-.09-.66,.03-.93,.71-1.13,1.85-1.11,2.96,.02,.94,.24,1.87,.66,2.71,.08,.17,.2,.35,.38,.38,.31,.05,.49-.32,.56-.62,.35-1.49,.47-3.03,.35-4.56,0-.06,0-.12-.02-.17Z"/>
            <path class="cls-8" d="M85.29,74.25c-.91-.46-1.96-.55-2.95-.32-1.05,.24-2.13,.87-2.73,1.79-.31,.47-.25,1.21,.16,1.61,.34,.33,.85,.5,1.31,.37,.19,.07,.37,.14,.56,.2,.44,.15,.88,.27,1.33,.36,.58,.12,1.16,.21,1.75,.08,.6-.14,1.16-.48,1.51-.99,.76-1.1,.16-2.53-.95-3.1Z"/>
            <path class="cls-8" d="M86.51,72.1c.01-.13-.02-.26-.09-.37,0-.05,.02-.1,.03-.15,0-.08,0-.16-.02-.23,0-.05-.02-.09-.03-.14-.03-.1-.07-.2-.11-.29-.02-.04-.04-.08-.07-.12-.12-.18-.27-.33-.45-.45-.08-.06-.18-.09-.27-.1-.1-.03-.2-.02-.3,0-.06,.02-.13,.05-.19,.07-.12,.06-.21,.15-.28,.27-.05,.1-.11,.21-.13,.32-.03,.11-.05,.23-.05,.35,0,.26,.05,.47,.15,.71,.02,.05,.05,.1,.08,.15,.11,.18,.21,.26,.37,.39,.04,.03,.09,.07,.14,.09,.1,.05,.21,.1,.32,.13,.06,.01,.12,.02,.18,.03,.1,0,.19,0,.28-.05,.06-.01,.12-.04,.16-.09,.05-.03,.09-.08,.13-.13,0,0,0,0-.01,.01,0,0,0,0,0,0,0,0,.01-.02,.02-.03,.01-.02,.03-.03,.04-.04,0,0,0-.02,.01-.03,0,0,0,0,.01-.01,.04-.06,.06-.12,.07-.2,0-.03,0-.06,0-.1,0,0,0,.02,0,.03,0-.01,0-.03,0-.04Z"/>
            <path class="cls-8" d="M81.44,58.97c-.09-.42-.24-.84-.43-1.23-.22-.45-.52-.92-.97-1.17-.71-.39-1.51-.27-2.11,.26-.39,.34-.63,.86-.72,1.36-.15,.85,.03,1.78,.48,2.52,.33,.55,.79,1.11,1.43,1.22,.02,.02,.04,.04,.06,.06,.34,.3,.73,.46,1.19,.36,.44-.1,.76-.42,.91-.84,.29-.82,.34-1.69,.17-2.54Z"/>
            <path class="cls-8" d="M77.06,48.8s0-.02,0-.04c-.02-.06-.04-.13-.07-.19-.03-.07-.08-.14-.13-.19-.04-.04-.1-.08-.14-.11,0,0-.01,0-.02-.01-.05-.03-.12-.06-.18-.08-.01,0-.02,0-.03-.01-.05-.01-.12-.02-.18-.03,0,0-.02,0-.02,0-.23-.01-.45,.11-.57,.3-.06,.1-.09,.2-.1,.31,0,.12,.02,.23,.08,.33,0,.01,.02,.03,.03,.04,.02,.04,.04,.07,.07,.11,0,.01,.02,.02,.03,.04,.02,.03,.04,.06,.05,.1,0,0,0,0,0,.01,0,0,0,.02,0,.03,.01,.07,.05,.13,.09,.19,.04,.06,.08,.1,.14,.14,.03,.02,.09,.04,.12,.05,.06,.02,.12,.03,.19,.02,.02,0,.05,0,.07,0,.03,0,.11-.04,.13-.05,.05-.02,.09-.06,.13-.1,.01-.01,.03-.02,.04-.03,.09-.07,.07-.05,.16-.16,0,0,.01-.02,.02-.03,.03-.05,.06-.11,.08-.17,0-.01,0-.02,.01-.03,.01-.06,.03-.12,.03-.19,0-.08,0-.16-.02-.24Z"/>
            <path class="cls-13" d="M55.61,76.35c-.32-.35-.85-.52-1.31-.52-.44,0-.83,.11-1.24,.26-.67,.26-1.29,.8-1.62,1.43-.19,.36-.24,.75-.04,1.12,.17,.31,.56,.61,.94,.58,.23-.01,.47-.02,.7-.05,.03,0,.06-.01,.09-.02,.03,0,.06,.02,.09,.03,.38,.11,.76,.14,1.15,.1,.67-.08,1.17-.55,1.44-1.14,.02-.05,.04-.09,.05-.14,.02-.05,.05-.14,.03-.11,.04-.09,.08-.18,.1-.28,.1-.46-.05-.93-.37-1.27Z"/>
            <path class="cls-13" d="M59.21,78.21c-.02-.05-.04-.11-.06-.16,0,0,0-.01,0-.02,0-.01-.01-.02-.02-.03-.03-.05-.06-.1-.1-.14,0,0,0,0,0,0-.07-.08-.11-.09-.19-.13-.04-.02-.06-.03-.1-.04-.04,0-.12-.03-.18-.03-.01,0-.14,.01-.15,.01,0,0,0,0,0,0-.05,.01-.1,.04-.15,.06-.09,.05-.15,.11-.21,.19-.02,.03-.04,.07-.05,.11-.02,0-.04,.02-.07,.03-.04,.03-.07,.05-.11,.08-.05,.05-.09,.1-.11,.17-.02,.04-.04,.08-.04,.13-.01,.05-.02,.09,0,.14,0,.05,0,.1,.03,.14,.02,.07,.05,.13,.11,.18,.01,.02,.02,.03,.04,.05,.04,.04,.08,.08,.13,.11,.03,.02,.1,.05,.14,.06,0,0,.01,0,.02,0,.02,0,.04,.01,.06,.02,.07,.02,.14,.03,.2,.04,.02,0,.04,0,.06,0,.07,0,.14,0,.21-.02,0,0,.02,0,.03,0,.05-.02,.11-.04,.16-.06,.06-.03,.13-.08,.17-.12,.1-.08,.15-.19,.2-.3,0-.01,0-.02,.01-.03,.01-.05,.02-.11,.03-.16,0,0,0-.01,0-.02,0-.07,0-.16-.03-.23Z"/>
            <path class="cls-13" d="M83.08,66.87s0-.08-.01-.12c-.02-.08-.06-.14-.11-.2-.01-.01-.02-.02-.03-.04,.02,.03,.04,.06,.06,.09-.03-.04-.05-.08-.08-.11-.01-.01-.02-.02-.03-.03,0,0,0,0,0,0-.01-.02-.02-.04-.03-.06,0,0,0-.02,0-.03h0c0-.07-.02-.13-.06-.19-.04-.05-.09-.09-.15-.11-.05-.01-.1-.02-.15,0-.06,.01-.15,.07-.18,.13-.02,.05-.05,.09-.06,.14,0,.03-.02,.06-.02,.09-.02,.08-.04,.17-.04,.25,0,.06,0,.12,.02,.18,0,.06,.04,.13,.07,.18,.06,.1,.15,.19,.26,.22,.07,.02,.16,.03,.23,0,.04-.01,.07-.02,.11-.04,.03-.02,0,.02,.08-.06,.02-.02,.04-.05,.06-.07h0c.03-.08,.07-.14,.07-.23Z"/>
            <path class="cls-5" d="M31.93,64.15c-.3-.37-.82-.51-1.28-.4-.45,.1-.78,.42-1.05,.78-.18,.24-.32,.53-.41,.81-.08,.28-.14,.58-.12,.87,0,.2,.02,.4,.07,.59,.05,.21,.13,.42,.28,.58,.14,.15,.33,.25,.53,.3,.23,.05,.46,.06,.68,.01,.1-.01,.2-.03,.29-.08,.58-.3,1-.85,1.23-1.46,.25-.66,.23-1.45-.23-2.01Z"/>
            <path class="cls-5" d="M33.74,67.93c-.02-.05-.07-.1-.11-.15-.01-.01-.02-.03-.03-.04-.02-.03-.05-.06-.07-.09-.05-.06-.11-.1-.18-.13-.04-.02-.08-.04-.12-.05-.03-.01-.08-.02-.12-.02-.01,0-.02,0-.04,0-.03,0-.07,0-.1,0-.05,.01-.1,.03-.14,.07-.03,.02-.05,.04-.07,.07-.04,.04-.06,.08-.07,.13v.04s-.03,.09-.03,.12c0,.03,0,.09,.01,.13,.01,.07,.03,.15,.07,.21,.02,.03,.04,.06,.06,.1,0,.01,.02,.03,.03,.04,.03,.05,.06,.11,.11,.15,.04,.05,.09,.09,.16,.11,.06,.03,.12,.05,.18,.05,.04,0,.09,0,.13-.01,.07-.01,.13-.04,.18-.08,.04-.02,.07-.05,.09-.09,.04-.05,.08-.1,.09-.16,0-.04,.01-.08,.02-.13,0-.09-.02-.18-.06-.26Z"/>
          </g>
          <g>
            <g>
              <path class="cls-1" d="M64.66,31.87c0,6.38-3.36,9.77-7.69,9.77s-8.02-3.38-8.02-9.77,2.5-10.83,6.84-10.83,8.87,4.45,8.87,10.83Z"/>
              <path class="cls-23" d="M59.55,16.22c-.32-.73-1-1.3-1.67-1.7-.7-.41-1.46-.75-2.22-1.03-1.42-.51-3.12-.62-4.45,.2-.74,.45-1.49,1.2-1.57,2.1-.05,.61,.2,1.1,.59,1.46,.32,.67,1.01,1.12,1.69,1.36,1.51,.53,3.2,.71,4.79,.72,.72,0,1.51-.03,2.12-.46,.91-.63,1.16-1.67,.72-2.68Z"/>
              <path class="cls-19" d="M57.09,39.12c-4.05,0-7.49-3.16-7.49-9.13,0-.22,0-.43,.02-.64-.1,.79-.15,1.62-.15,2.49,0,5.96,3.44,9.13,7.49,9.13s7.08-3.07,7.18-8.84c-.66,4.58-3.5,7-7.04,7Z"/>
              <circle class="cls-6" cx="57.29" cy="31.97" r="4.33"/>
              <path class="cls-24" d="M60.06,31.97c0,1.53-1.24,2.77-2.77,2.77s-2.77-1.24-2.77-2.77,1.24-2.77,2.77-2.77,2.77,1.24,2.77,2.77Z"/>
              <path class="cls-1" d="M60.62,29.42c-.05-.21-.15-.39-.29-.55-.08-.06-.16-.13-.24-.19-.18-.11-.37-.17-.58-.18-.17-.01-.32,.02-.47,.09-.15,.04-.29,.12-.4,.24-.12,.1-.2,.23-.26,.37-.08,.14-.12,.28-.12,.44,.01,.11,.02,.21,.03,.32,.05,.21,.15,.39,.29,.55,.08,.06,.16,.13,.24,.19,.18,.11,.37,.17,.58,.18,.17,.01,.32-.02,.47-.09,.15-.04,.29-.12,.4-.24,.12-.1,.2-.23,.26-.37,.08-.14,.12-.28,.12-.44,0-.11-.02-.21-.03-.32Z"/>
              <path class="cls-1" d="M62.63,31.79c-.06-.27-.19-.5-.38-.71-.1-.08-.2-.16-.3-.25-.23-.14-.48-.22-.75-.23-.21-.02-.41,.02-.6,.11-.2,.06-.37,.16-.51,.3-.15,.13-.26,.29-.33,.48-.1,.17-.15,.36-.15,.57,.01,.14,.03,.27,.04,.41,.06,.27,.19,.5,.38,.71,.1,.08,.2,.16,.3,.25,.23,.14,.48,.22,.75,.23,.21,.02,.41-.02,.6-.11,.2-.05,.37-.16,.51-.3,.15-.13,.26-.29,.33-.48,.1-.17,.15-.36,.15-.57-.01-.14-.03-.27-.04-.41Z"/>
              <path class="cls-1" d="M54.87,33.92c-.02-.11-.06-.2-.13-.28-.03-.05-.07-.09-.12-.12,.01,0,.02,.02,.03,.03,0,0,0,0,0,0-.01-.01-.03-.02-.04-.04,0,0,0,0,0,0h0s-.05-.05-.08-.07c0,0,0,0-.01,0h0s0,0,0,0c-.02-.01-.04-.02-.06-.03,0,0-.02,0-.02-.01-.08-.05-.18-.07-.27-.07-.07,0-.13,.01-.2,.02-.13,.03-.24,.09-.34,.18,0,0,0,0-.01,.01-.04,.05-.09,.1-.13,.16,0,0,0,0,0,0-.03,.06-.06,.12-.08,.18-.04,.1-.04,.2-.02,.3,0,.07,.01,.14,.05,.2,.03,.1,.08,.19,.15,.26,0,0,0,0,0,0,.05,.04,.1,.08,.15,.12,.06,.03,.12,.06,.18,.08,.07,.01,.13,.02,.2,.03,.11,0,.21-.01,.3-.06,.07-.02,.13-.05,.18-.1,.06-.03,.11-.08,.14-.14,.05-.05,.08-.1,.1-.17,.05-.09,.08-.18,.08-.29h0c0-.07-.01-.14-.02-.21Z"/>
            </g>
            <g>
              <path class="cls-1" d="M32.88,31.87c0,6.38,3.36,9.77,7.7,9.77s8.01-3.38,8.01-9.77-2.5-10.83-6.84-10.83-8.87,4.45-8.87,10.83Z"/>
              <path class="cls-23" d="M38,16.22c.32-.73,1-1.3,1.67-1.7,.7-.41,1.46-.75,2.22-1.03,1.42-.51,3.12-.62,4.46,.2,.74,.45,1.49,1.2,1.57,2.1,.05,.61-.2,1.1-.59,1.46-.32,.67-1.01,1.12-1.69,1.36-1.51,.53-3.2,.71-4.79,.72-.72,0-1.51-.03-2.12-.46-.91-.63-1.16-1.67-.72-2.68Z"/>
              <path class="cls-19" d="M40.45,39.12c4.05,0,7.49-3.16,7.49-9.13,0-.22,0-.43-.02-.64,.1,.79,.15,1.62,.15,2.49,0,5.96-3.44,9.13-7.49,9.13s-7.08-3.07-7.18-8.84c.66,4.58,3.5,7,7.04,7Z"/>
              <path class="cls-22" d="M35.93,31.97c0,2.39,1.94,4.33,4.33,4.33s4.33-1.94,4.33-4.33-1.94-4.33-4.33-4.33-4.33,1.94-4.33,4.33Z"/>
              <path class="cls-24" d="M37.49,31.97c0,1.53,1.24,2.77,2.77,2.77s2.77-1.24,2.77-2.77-1.24-2.77-2.77-2.77-2.77,1.24-2.77,2.77Z"/>
              <path class="cls-1" d="M36.92,29.42c.05-.21,.15-.39,.29-.55,.08-.06,.16-.13,.24-.19,.18-.11,.37-.17,.58-.18,.17-.01,.32,.02,.47,.09,.15,.04,.29,.12,.4,.24,.12,.1,.2,.23,.26,.37,.08,.14,.12,.28,.12,.44,0,.11-.02,.21-.03,.32-.05,.21-.15,.39-.29,.55-.08,.06-.16,.13-.24,.19-.18,.11-.37,.17-.58,.18-.17,.01-.32-.02-.47-.09-.15-.04-.29-.12-.4-.24-.12-.1-.2-.23-.26-.37-.08-.14-.12-.28-.12-.44,.01-.11,.02-.21,.03-.32Z"/>
              <path class="cls-1" d="M34.91,31.79c.06-.27,.19-.5,.38-.71,.1-.08,.2-.16,.3-.25,.23-.14,.48-.22,.75-.23,.21-.02,.41,.02,.6,.11,.2,.06,.37,.16,.51,.3,.15,.13,.26,.29,.33,.48,.1,.17,.15,.36,.15,.57-.01,.14-.03,.27-.04,.41-.06,.27-.19,.5-.38,.71-.1,.08-.2,.16-.3,.25-.23,.14-.48,.22-.75,.23-.21,.02-.41-.02-.6-.11-.2-.05-.37-.16-.51-.3-.15-.13-.26-.29-.33-.48-.1-.17-.15-.36-.15-.57,.01-.14,.03-.27,.04-.41Z"/>
              <path class="cls-1" d="M42.66,34.12h0c0,.11,.03,.2,.08,.29,.02,.06,.06,.12,.1,.17,.04,.06,.08,.1,.14,.14,.05,.05,.11,.08,.18,.1,.09,.05,.2,.06,.3,.06,.07-.01,.13-.02,.2-.03,.06-.03,.12-.06,.18-.08,.05-.04,.1-.08,.15-.12h0c.08-.08,.13-.16,.15-.26,.03-.06,.05-.13,.05-.2,.02-.1,.01-.2-.03-.3-.03-.06-.05-.12-.08-.18,0,0,0,0,0,0-.04-.05-.08-.11-.13-.16,0,0,0,0-.01-.01-.1-.09-.21-.15-.34-.18-.07,0-.13-.01-.2-.02-.1,0-.19,.02-.27,.07,0,0-.02,0-.02,.01-.02,.01-.04,.02-.06,.03,0,0,0,0,0,0,0,0,0,0,0,0,0,0,0,0-.01,0-.03,.02-.06,.04-.08,.07,0,0,0,0,0,0h0s-.03,.02-.04,.04c0,0,0,0,0,0,.01,0,.02-.02,.03-.03-.05,.03-.09,.07-.12,.12-.07,.08-.11,.17-.13,.28,0,.07-.01,.14-.02,.21Z"/>
            </g>
            <path class="cls-25" d="M38.49,41.96c.05,.24,14.32,3.23,20.64-.4,0,0-4.12,17.65-10.06,17.65s-10.58-17.25-10.58-17.25Z"/>
            <path class="cls-7" d="M49.07,59.21c2.1,0,3.97-2.21,5.51-5.06-2.73-5.58-6.75-2.01-6.75-2.01-2.14-1.7-4.21-.91-5.54,.02,1.82,3.73,4.18,7.05,6.78,7.05Z"/>
            <path class="cls-1" d="M40.26,42.4c.77,1.54,3.44,6.92,8.66,7.35,5.05,.41,8.08-5.5,8.76-7.52-5.25,1.96-13.76,.88-17.42,.17Z"/>
            <path class="cls-1" d="M48.78,55.6c-.92-.04-2.53,.7-3.59,1.24,1.2,1.43,2.51,2.37,3.89,2.37,1.23,0,2.38-.76,3.43-1.96-1.05-.65-2.77-1.62-3.73-1.66Z"/>
            <path class="cls-21" d="M57.26,43.27c.18-.4,.33-.76,.42-1.04-5.25,1.96-13.76,.88-17.42,.17,.08,.16,.18,.36,.3,.6,5.11,2.95,11.31,2.06,16.7,.28Z"/>
            <path class="cls-21" d="M46.91,58.45c.7,.48,1.42,.76,2.16,.76,.98,0,1.92-.49,2.79-1.3-1.61,.63-3.42,.98-4.95,.55Z"/>
          </g>
          <g>
            <path class="cls-17" d="M65.23,55.53c.49,.05,1.73-1.28,2.09-2.36,.16-.47-.13-1.48-.37-1.57-1.98-.72-4.39-.99-6.15-2.15-.25-.17-.52-.34-.82-.39-.38-.06-.75,.1-1.08,.29-.53,.29-1.33,.18-1.76,.61-.09,.09,.13,.89,.1,1.01-.12,.63,6.88,4.45,7.99,4.56Z"/>
            <path class="cls-16" d="M65.12,54.74c.71,.07,2.62-2.84,1.83-3.13-1.98-.72-4.5-1.79-6.26-2.95-.25-.17-.52-.34-.82-.39-.38-.06-.75,.1-1.08,.29-.53,.29-1.02,.66-1.45,1.09-.09,.09-.18,.19-.21,.31-.12,.63,6.87,4.67,7.98,4.78Z"/>
            <g>
              <path class="cls-12" d="M67.99,27.31c-.23-.98-.23-2.91-2.91-4.11-2.68-1.2-12.39-1.47-13.09-.58-.65,.82-2.51,1.26-3.05,1.31-.54-.05-2.4-.49-3.05-1.31-.7-.89-10.41-.62-13.09,.58-2.68,1.21-2.68,3.13-2.92,4.11-.23,.98-1.52,2.34-1.52,2.34,0,0,.47,4.51,1.17,4.37,.7-.14,1.28-.35,1.4,0,.12,.35,3.62,4.39,4.78,4.37,1.17-.01,8.43,.33,9.59-.75,1.15-1.06,1.73-5.95,3.63-6.67,1.9,.72,2.48,5.6,3.63,6.67,1.17,1.08,8.43,.74,9.59,.75,1.17,.01,4.66-4.02,4.78-4.37,.12-.35,.7-.14,1.4,0,.7,.14,1.17-4.37,1.17-4.37,0,0-1.28-1.36-1.52-2.34Zm-23.59,9c-.83,.92-8.92,1.19-9.53,.61-.61-.58-3.59-3.89-3.76-4.79-.18-.9-.32-5.16,0-5.91,.19-.44,.37-1.38,1.84-1.83,2.92-.9,8.41-1.13,11.37-.54,1.71,.34,2.64,2.51,2.71,3.19,.26,2.46-2.07,8.65-2.62,9.26Zm21.93-3.78c-.17,.9-3.15,4.21-3.76,4.79-.61,.58-8.71,.3-9.53-.61-.55-.61-2.89-6.8-2.62-9.26,.07-.68,1-2.85,2.71-3.19,2.96-.59,8.45-.35,11.37,.54,1.47,.45,1.65,1.38,1.84,1.82,.32,.75,.18,5.01,0,5.91Z"/>
              <path class="cls-9" d="M30.49,27.5c-.06-.04-.11-.08-.16-.13,0,.01,0,.03,0,.05-.21,.9-1.12,1.98-1.48,2.39,.09,.8,.22,1.65,.36,2.35,.18-.29,.36-.59,.54-.89,.36-.61,.55-1.29,.73-1.98-.01-.62,0-1.24,.02-1.78Z"/>
              <path class="cls-9" d="M48.27,30.39c-.17-.77-.44-1.54-.81-2.3-.13,1.42-.63,3.32-1.19,4.98,.54-.96,1.21-1.86,2-2.68Z"/>
              <path class="cls-9" d="M44.96,36.28c-.08,.15-.16,.27-.22,.33-.95,1.05-6.99,1.06-7.05,1.06-.39,0-.72,0-1.02-.02,.18,.11,.36,.21,.54,.31,.53,0,1.16,.02,1.83,.02,3.65,0,5.09-.28,5.66-.5,.07-.41,.16-.81,.27-1.21Z"/>
              <path class="cls-9" d="M41.57,22.92c1.59,0,3.15,.16,4.63,.55-.26-.16-.48-.34-.64-.55-.19-.15-1.37-.37-3.8-.37-2.81,0-6.46,.31-8.27,.88,2.61-.53,5.54-.5,8.08-.51Z"/>
              <path class="cls-9" d="M52.13,24.17c.28-.16,.58-.29,.9-.35,.74-.15,1.65-.25,2.66-.29,1.61-.25,3.23-.4,4.85-.35,1.82,.06,3.56,.37,5.22,.93-.25-.17-.54-.34-.88-.49-1.54-.69-5.67-1.07-8.77-1.07-2.43,0-3.6,.22-3.78,.35-.43,.55-1.27,.94-2.02,1.18,.62,.13,1.22,.15,1.82,.09Z"/>
              <path class="cls-9" d="M68.37,28.97c.01,1.6-.35,3.07-1.01,4.42,.22,0,.46,.06,.74,.12,.06,.01,.12,.03,.18,.04,.27-.46,.59-2.19,.77-3.75-.16-.18-.42-.48-.68-.84Z"/>
              <g class="cls-11">
                <path class="cls-14" d="M66.33,26.63c-.19-.44-.37-1.38-1.84-1.82-2.92-.9-8.41-1.13-11.37-.54-1.71,.34-2.64,2.51-2.71,3.19-.26,2.46,2.07,8.65,2.62,9.26,.83,.92,8.92,1.19,9.53,.61,.61-.58,3.59-3.89,3.76-4.79,.18-.9,.32-5.16,0-5.91Z"/>
                <path class="cls-14" d="M44.32,23.86c-2.96-.59-8.45-.35-11.37,.54-1.47,.45-1.65,1.38-1.84,1.83-.32,.75-.18,5.01,0,5.91,.17,.9,3.15,4.21,3.76,4.79,.61,.58,8.71,.3,9.53-.61,.55-.61,2.89-6.8,2.62-9.26-.07-.68-1-2.85-2.71-3.19Z"/>
              </g>
              <path class="cls-10" d="M48.94,30.99h0s-.02,0-.03,0c0,0-.02,0-.03,0h0c-1.88,.34-3.72,5.87-3.58,6.67,.15,.81,.03,1.56,.82,2.89,.74,1.25,2.55,1.47,2.79,1.4,.23,.07,2.05-.16,2.79-1.4,.79-1.33,.67-2.08,.82-2.89,.14-.8-1.7-6.33-3.58-6.66Z"/>
              <path class="cls-26" d="M69.47,30.02s1.32,1.64,1.56,2.72c.24,1.09,.31,2.97,.31,2.97,0,0-1.55-1.96-2.51-2.32l.64-3.37Z"/>
              <path class="cls-26" d="M28.4,30.02s-1.32,1.64-1.56,2.72c-.24,1.09-.31,2.97-.31,2.97,0,0,1.55-1.96,2.51-2.32l-.64-3.37Z"/>
              <g class="cls-11">
                <path class="cls-14" d="M60.39,24.09c-1.08-.1-2.19-.15-3.27-.15-2.06,1.4-4.15,2.74-6.17,4.19-.17,.16-.34,.31-.52,.47,.08,.72,.25,1.57,.48,2.43,3.19-2.27,6.32-4.63,9.48-6.94Z"/>
                <path class="cls-14" d="M52.5,35.57c4.44-3.29,9.05-6.32,13.69-9.31-.17-.42-.48-.97-1.34-1.34-4.37,3.1-8.67,6.31-12.73,9.82,.12,.31,.24,.6,.35,.85,.01,0,.02-.02,.03-.03Z"/>
                <path class="cls-14" d="M54.91,37.29c2.67,.42,7.21,.46,7.66,.03,.61-.58,3.59-3.89,3.76-4.79,.09-.46,.17-1.82,.19-3.12-3.93,2.54-7.83,5.12-11.61,7.88Z"/>
                <path class="cls-14" d="M31.68,33.17c3.46-3.27,7.03-6.44,10.63-9.56-.49-.04-1.01-.06-1.54-.06-2.49,1.97-4.97,3.94-7.3,6.13-.81,.76-1.6,1.53-2.38,2.31,0,.06,.02,.11,.02,.16,.04,.22,.26,.59,.57,1.03Z"/>
                <path class="cls-14" d="M34.87,36.93c.13,.13,.62,.21,1.31,.26,.67-.61,1.34-1.23,2.02-1.84,2.87-2.57,5.9-5,8.83-7.52,.02-.28,.02-.54,0-.77-.05-.49-.55-1.75-1.46-2.54-4.11,3.55-8.18,7.14-12.12,10.87,.63,.72,1.19,1.33,1.42,1.54Z"/>
                <path class="cls-14" d="M40.45,37.12c1.88-.14,3.6-.42,3.95-.81,.28-.31,1-2.01,1.62-3.94-1.87,1.57-3.75,3.14-5.57,4.76Z"/>
                <path class="cls-14" d="M31.47,27.68c1.45-1.36,2.95-2.63,4.47-3.87-1.13,.14-2.16,.34-2.99,.6-1.47,.45-1.65,1.38-1.84,1.83-.12,.28-.18,1.07-.19,1.98,.18-.17,.36-.36,.55-.53Z"/>
              </g>
              <path class="cls-10" d="M48.38,32.61s-.08-.03-.13-.04c-.17,0-.31,.12-.43,.25-.34,.38-.58,.84-.92,1.22-.14,.15-.24,.32-.33,.5-.28,.6-.49,1.24-.67,1.87-.09,.33-.24,.75-.18,1.1,.13,.72,.03,1.38,.72,2.56,.39,.66,1.15,1.04,1.88,1.19,.36,.07,.59,.09,.84-.19,.28-.31,.33-.77,.16-1.15-.2-.47-.61-.82-.88-1.25-.49-.77-.53-1.74-.39-2.64,.14-.9,.43-1.77,.56-2.67,.04-.28-.01-.65-.23-.76Z"/>
            </g>
            <path class="cls-27" d="M60.72,50.15s-.48,1.83,2.52,1.98c3,.14,2.89-.53,2.78-.63-.11-.1-5.31-1.35-5.31-1.35Z"/>
            <path class="cls-12" d="M60.72,50.15s6.18-6.2,7.17-7.75c.99-1.55,4.51-22.38,4.12-25.42-.39-3.04-3.75-6.51-2.94-8.1,.81-1.59,3.38-2.29,3.76-1.36,.38,.93,3.27,7,3.27,9.17s-3.57,25.17-4.1,26.4c-.53,1.23-5.85,7.92-7.08,8.36-1.23,.43-4.42,.35-4.21-1.29Z"/>
            <path class="cls-2" d="M69.7,34.63c1.86-6.37,3.22-13.22,3.5-19.88-.34-.81-.7-1.61-1.07-2.41-.66-1.43-1.77-3.01-1.95-4.64-.45,.3-.86,.69-1.1,1.17-.81,1.59,2.55,5.06,2.94,8.1,.24,1.91-1.06,10.89-2.31,17.65Z"/>
            <path class="cls-2" d="M74.68,25.2c-.81,4.15-1.62,8.44-2.96,12.46-1.89,5.68-5.5,10.03-9.98,13.77,.99,.34,2.44,.27,3.18,.01,1.23-.43,6.55-7.13,7.08-8.36,.4-.94,2.57-14.52,3.58-21.88-.05-.16-.11-.31-.16-.47-.21,1.5-.46,2.99-.75,4.47Z"/>
            <path class="cls-9" d="M70.5,30.02c-.14,.82-.27,1.64-.41,2.45,1.36-.23,2.57,.09,3.71,.67,.14-.9,.29-1.81,.43-2.74-1.12-.65-2.32-.92-3.73-.39Z"/>
            <path class="cls-9" d="M73.82,13.45c.56,1.81,.25,3.75-.06,5.61-.7,4.24-1.4,8.49-2.1,12.73,.54-.5,.77-1.25,.96-1.96,.74-2.7,1.42-5.42,2.06-8.14,.28-1.19,.55-2.39,.63-3.61,.16-2.39-.41-4.77-1.34-6.96-.24-.56-.5-1.11-.78-1.64-.22-.43-.46-1.1-.86-1.39-.32-.23-.74-.18-.75,.28-.02,.55,.33,1.17,.56,1.65,.56,1.14,1.3,2.2,1.67,3.43Z"/>
          </g>
          <g>
            <g>
              <path class="cls-23" d="M39.42,104.08c-.04-.32-.08-.64-.1-.96-.08-.9-.09-1.81-.05-2.71,.1-2.06,.51-4.09,.61-6.15,.1-2.06-.15-4.21-1.25-5.95-.3-.48-.67-.93-.91-1.45-.43-.95-.38-2.02-.23-3.02,.06-.42,.08-.77,.07-1.19-.01-.54,.1-1.09,.2-1.63-1.11,.06-2.21,.13-3.32,.2,.83,4.61,1.66,9.22,2.49,13.83,.43,2.39,.85,4.82,.7,7.26-.07,1.1-.2,2.36-.67,3.38-.15,.32-.33,.51-.63,.69-.79,.47-1.6,.93-2.41,1.36-.48,.25-.97,.5-1.45,.76-.18,.09-.36,.2-.46,.37-.16,.31,.07,.71,.39,.85,.32,.14,.69,.1,1.03,.05,1.61-.23,3.19-.61,4.73-1.14,.67-.23,1.37-.52,1.73-1.12,.29-.48-.06-1.1-.18-1.61-.13-.6-.24-1.2-.32-1.81Z"/>
              <path class="cls-12" d="M41.31,105.68c-.16-.36-.38-.7-.62-1.01-.15-.19-1.17-1.05-1.33-.56-.04,.11,.02,.26,.03,.37,.02,.15,.02,.3,0,.46-.05,.29-.2,.56-.43,.74-.11,.09-.26,.16-.39,.12-.24-.08-.23-.42-.19-.67,.1-.67,.03-1.41-.37-1.96-.1-.14-.27-.27-.42-.21-.06,.03-.11,.09-.15,.14-.39,.5-.82,.98-1.27,1.43-.71,.7-1.49,1.34-2.33,1.88-.42,.27-.85,.53-1.29,.76-1.34,.7-2.77,1.17-4.15,1.78-2.7,1.2-5.3,2.36-8.19,3.03-2.02,.47-4.08,.76-6.14,.96,.99,.56,1.59,1.55,1.2,3.01-.19,.73-.56,1.42-1.03,2.06,3.09-1.24,7.26-2.79,9.79-.64,.73,.62,1.18,1.48,1.18,2.45,0,.72-.21,1.6-.6,2.21-.08,.12-.2,.22-.28,.34-.12,.2-.19,.44-.27,.66,1.03-.58,1.9-1.41,2.74-2.24,2.14-2.11,4.2-4.3,6.17-6.57,1.58-1.82,3.17-3.73,5.31-4.83,.86-.44,1.8-.73,2.64-1.23,.35-.21,.49-.46,.59-.86,.11-.43,.06-.89-.08-1.3-.04-.11-.08-.22-.13-.33Z"/>
              <path class="cls-3" d="M14.25,118.02l15.15-8.12c.2-.11,.07-.41-.15-.34-9.57,3.29-15.17,3.38-15.17,3.38,.99,.56,1.59,1.55,1.2,3.01-.19,.73-.56,1.42-1.03,2.06Z"/>
              <path class="cls-3" d="M32.43,110.27c-.48-.91-18.19,7.75-18.19,7.75,3.09-1.24,7.26-2.79,9.79-.64,1.77,1.5,1.29,3.51,.22,5.34,.77-.88,8.97-10.93,8.17-12.45Z"/>
              <path class="cls-2" d="M41.44,106.02c-.04-.11-.08-.22-.13-.33-.04-.08-.08-.15-.12-.23-.19,.93-.83,1.75-1.94,2.43-.87,.54-1.87,.86-2.89,.93-.13,0-.67,.09-.81,.03-.19,.38-.65,1.37-.61,1.29-1.56,2.7-3.79,5.15-5.75,7.55-1.3,1.58-2.99,4.09-4.99,5.01-.04,.12-.08,.24-.12,.35,1.03-.58,1.9-1.41,2.74-2.24,2.14-2.11,4.2-4.3,6.17-6.57,1.58-1.82,3.17-3.73,5.31-4.83,.86-.44,1.8-.73,2.64-1.23,.35-.21,.49-.46,.59-.86,.11-.43,.06-.89-.08-1.3Z"/>
            </g>
            <g>
              <path class="cls-23" d="M64.42,108.48c-.48-.25-.97-.5-1.45-.76-.81-.42-1.63-.88-2.41-1.36-.3-.18-.48-.37-.63-.69-.47-1.01-.6-2.27-.67-3.38-.15-2.44,.27-4.87,.7-7.26,.89-4.92,1.77-9.83,2.66-14.75-1.2,0-2.4,.02-3.6,.03,0,.03,0,.06,.01,.1,.11,.72,.32,1.48,.3,2.22-.01,.42,0,.77,.07,1.19,.15,1.01,.2,2.08-.23,3.02-.24,.52-.6,.97-.91,1.45-1.1,1.74-1.34,3.9-1.25,5.95,.1,2.06,.51,4.09,.61,6.15,.04,.9,.03,1.81-.05,2.71-.03,.32-.06,.64-.1,.96-.08,.61-.19,1.21-.32,1.81-.11,.51-.46,1.13-.18,1.61,.36,.6,1.07,.9,1.73,1.12,1.54,.52,3.12,.91,4.73,1.14,.35,.05,.71,.09,1.03-.05,.32-.14,.55-.54,.39-.85-.09-.18-.28-.28-.46-.37Z"/>
              <path class="cls-12" d="M55.59,105.68c.16-.36,.38-.7,.62-1.01,.15-.19,1.17-1.05,1.33-.56,.04,.11-.02,.26-.03,.37-.02,.15-.02,.3,0,.46,.05,.29,.2,.56,.43,.74,.11,.09,.26,.16,.39,.12,.24-.08,.23-.42,.19-.67-.1-.67-.03-1.41,.37-1.96,.1-.14,.27-.27,.42-.21,.06,.03,.11,.09,.15,.14,.39,.5,.82,.98,1.27,1.43,.71,.7,1.49,1.34,2.33,1.88,.42,.27,.85,.53,1.29,.76,1.34,.7,2.77,1.17,4.15,1.78,2.7,1.2,5.3,2.36,8.19,3.03,2.02,.47,4.08,.76,6.14,.96-.99,.56-1.59,1.55-1.2,3.01,.19,.73,.56,1.42,1.03,2.06-3.09-1.24-7.26-2.79-9.79-.64-.73,.62-1.18,1.48-1.18,2.45,0,.72,.21,1.6,.6,2.21,.08,.12,.2,.22,.28,.34,.12,.2,.19,.44,.27,.66-1.03-.58-1.9-1.41-2.74-2.24-2.14-2.11-4.2-4.3-6.17-6.57-1.58-1.82-3.17-3.73-5.31-4.83-.86-.44-1.8-.73-2.64-1.23-.35-.21-.49-.46-.59-.86-.11-.43-.06-.89,.08-1.3,.04-.11,.08-.22,.13-.33Z"/>
              <path class="cls-3" d="M82.66,118.02l-15.15-8.12c-.2-.11-.07-.41,.15-.34,9.57,3.29,15.17,3.38,15.17,3.38-.99,.56-1.59,1.55-1.2,3.01,.19,.73,.56,1.42,1.03,2.06Z"/>
              <path class="cls-3" d="M64.47,110.27c.48-.91,18.19,7.75,18.19,7.75-3.09-1.24-7.26-2.79-9.79-.64-1.77,1.5-1.29,3.51-.22,5.34-.77-.88-8.97-10.93-8.17-12.45Z"/>
              <path class="cls-2" d="M55.46,106.02c.04-.11,.08-.22,.13-.33,.04-.08,.08-.15,.12-.23,.19,.93,.83,1.75,1.94,2.43,.87,.54,1.87,.86,2.89,.93,.13,0,.67,.09,.81,.03,.19,.38,.65,1.37,.61,1.29,1.56,2.7,3.79,5.15,5.75,7.55,1.3,1.58,2.99,4.09,4.99,5.01,.04,.12,.08,.24,.12,.35-1.03-.58-1.9-1.41-2.74-2.24-2.14-2.11-4.2-4.3-6.17-6.57-1.58-1.82-3.17-3.73-5.31-4.83-.86-.44-1.8-.73-2.64-1.23-.35-.21-.49-.46-.59-.86-.11-.43-.06-.89,.08-1.3Z"/>
            </g>
            <path class="cls-23" d="M100.54,35.34c-.68-.77-1.42-.36-2.26-.14-.2-.86-.33-1.68-.72-2.49-.21-.43-.48-.87-.9-1.09-.43-.22-1.04-.15-1.28,.27-.26,.47,.05,1.04,.28,1.53,.35,.77,.47,1.64,.36,2.47-.09,.62-.24,1.28-.56,1.82-.8,1.34-2.29,2.15-3.66,2.79-.39,.18-.77,.36-1.16,.53-1.93,.87-3.89,1.74-5.62,2.98-.73,.52-1.08,1.29-1.84,1.8-.81,.55-1.74,.91-2.71,1.03-.5,.06-1.01,.07-1.52,.06,.5,1.02,.96,2.06,1.38,3.12,2.73-.44,5.42-1.08,7.75-2.5,.12-.07,.24-.15,.36-.23,2.11-1.38,3.75-3.34,5.56-5.09,1-.96,2.21-1.92,3.59-1.85,.61,.03,1.2,.26,1.8,.17,1.04-.16,1.71-1.24,1.9-2.27,.19-1.05-.03-2.1-.74-2.91Z"/>
            <path class="cls-23" d="M13.28,47.51c2.12,1.29,4.54,1.94,7.02,2.37,.4-1,.8-2,1.21-3-.21,0-.41-.02-.62-.05-.97-.12-1.9-.48-2.71-1.03-.76-.51-1.11-1.28-1.84-1.8-1.73-1.24-3.69-2.1-5.62-2.98-.39-.18-.77-.35-1.16-.53-1.37-.64-2.86-1.44-3.66-2.79-.32-.54-.48-1.2-.56-1.82-.11-.84,0-1.7,.36-2.47,.23-.49,.54-1.06,.28-1.53-.23-.42-.85-.5-1.27-.27-.43,.22-.7,.66-.91,1.09-.39,.81-.52,1.63-.72,2.49-.84-.22-1.59-.64-2.26,.14-.71,.81-.93,1.86-.74,2.91,.19,1.04,.86,2.12,1.9,2.27,.6,.09,1.2-.14,1.8-.17,1.38-.07,2.59,.89,3.59,1.85,1.81,1.75,3.45,3.71,5.56,5.09,.12,.08,.24,.15,.36,.23Z"/>
          </g>
        </g>
      </g>
    </g>
  </g>
</svg>