<?xml version="1.0" encoding="UTF-8"?>
<svg xmlns="http://www.w3.org/2000/svg" viewBox="0 0 416.66 559.87">
  <defs>
    <style>
      .cls-1 {
        fill: #ffae3b;
      }

      .cls-2 {
        fill: #262626;
      }

      .cls-3 {
        fill: #5b7482;
      }

      .cls-4 {
        fill: #ec1d24;
      }

      .cls-5, .cls-6 {
        fill: #fff;
      }

      .cls-7 {
        fill: #1e8ace;
      }

      .cls-8, .cls-9, .cls-10, .cls-11, .cls-12, .cls-13 {
        mix-blend-mode: multiply;
      }

      .cls-8, .cls-9, .cls-11, .cls-12 {
        opacity: .5;
      }

      .cls-8, .cls-14 {
        fill: #ec8e3f;
      }

      .cls-15 {
        fill: #ced8e4;
      }

      .cls-16 {
        fill: #cc121e;
      }

      .cls-17 {
        fill: #fdee22;
      }

      .cls-18 {
        fill: #f0f7ff;
      }

      .cls-19 {
        fill: #feb03c;
      }

      .cls-20 {
        fill: #eb8e3f;
      }

      .cls-21 {
        fill: #bfcbd7;
      }

      .cls-6 {
        opacity: .3;
      }

      .cls-22 {
        fill: #d36716;
      }

      .cls-23 {
        fill: #7e5136;
      }

      .cls-24 {
        fill: #dee8f3;
      }

      .cls-25 {
        isolation: isolate;
      }

      .cls-26 {
        fill: #4d4d4d;
      }

      .cls-27 {
        fill: #dee8f2;
      }

      .cls-28 {
        fill: #757474;
      }

      .cls-29 {
        fill: #33b1ec;
      }

      .cls-30 {
        fill: #a60a18;
      }

      .cls-31 {
        fill: #a2653c;
      }

      .cls-32 {
        fill: #829aae;
      }

      .cls-33 {
        fill: #fd3;
      }

      .cls-9, .cls-34 {
        fill: #efb260;
      }

      .cls-35 {
        fill: #144683;
      }

      .cls-36 {
        fill: #8c0009;
      }

      .cls-37 {
        fill: #333;
      }

      .cls-38 {
        fill: #ab4d05;
      }

      .cls-39 {
        fill: #f00c15;
      }

      .cls-40 {
        opacity: .2;
      }

      .cls-40, .cls-41, .cls-42 {
        fill: #fad47b;
      }

      .cls-40, .cls-42 {
        mix-blend-mode: screen;
      }

      .cls-43 {
        fill: #f5b057;
      }

      .cls-44 {
        fill: #9db5c6;
      }

      .cls-45, .cls-13 {
        fill: #9db2c7;
      }

      .cls-46 {
        fill: #f55a25;
      }

      .cls-10 {
        fill: #db843f;
        opacity: .8;
      }

      .cls-11 {
        fill: #d87830;
      }

      .cls-47 {
        fill: #fcc930;
      }

      .cls-48 {
        fill: #fbd52c;
      }

      .cls-49 {
        fill: #0f6cb2;
      }

      .cls-50 {
        fill: #b80611;
      }

      .cls-51 {
        fill: #161616;
      }

      .cls-52 {
        fill: #f6c467;
      }

      .cls-13 {
        opacity: .6;
      }

      .cls-53 {
        fill: #289bda;
      }

      .cls-54 {
        fill: #9f1320;
      }

      .cls-55 {
        fill: #bf5c0a;
      }

      .cls-56 {
        fill: #f99223;
      }

      .cls-57 {
        fill: #e67e15;
      }

      .cls-58 {
        fill: #fcc432;
      }

      .cls-42 {
        opacity: .4;
      }

      .cls-59 {
        fill: #fd9201;
      }

      .cls-60 {
        fill: #f99123;
      }

      .cls-61 {
        fill: #4b4646;
      }

      .cls-62 {
        fill: #dfe9f3;
      }

      .cls-63 {
        fill: #fca601;
      }

      .cls-64 {
        fill: #540000;
      }

      .cls-65 {
        fill: #e07911;
      }

      .cls-66 {
        fill: #d31926;
      }
    </style>
  </defs>
  <g class="cls-25">
    <g id="Layer_2" data-name="Layer 2">
      <g id="_Ñëîé_1" data-name="Ñëîé 1">
        <g>
          <path class="cls-37" d="M333.06,263.4s67.7,15.52,81.3,54.06c13.61,38.54-37.74,48.68-37.74,48.68,0,0-51.24-31.69-51.4-65.1-.16-33.4,7.83-37.64,7.83-37.64Z"/>
          <g>
            <g>
              <path class="cls-37" d="M120.95,273.22s-21.39,11.1-46.34,1.83c-25.11-9.34-59.14-41.93-71.15-35.45-12.02,6.48,7.95,86.62,50.12,110.06,42.17,23.44,85.85-6.43,96.64-28.96,12.26-25.6-19.09-54.74-29.27-47.48Z"/>
              <path class="cls-51" d="M60.29,271.26c-20.26-16.14-43.55-29.67-45.03-30.52,15.8,6.49,40.17,27.17,59.35,34.31,24.95,9.28,46.34-1.83,46.34-1.83,2.51-1.79,6.32-1.36,10.44,.69-.7,.65-1.58,1.3-2.65,1.96-33.05,20.34-47.52,12.07-68.45-4.6Z"/>
              <path class="cls-21" d="M28.81,322.42C13.26,300.52-3.3,246.83,7.56,246.27c10.86-.56,48.49,38.92,77.21,47.2,28.72,8.28,55.07-13.41,55.07-13.41,9.74,9.39,17.56,25.61,10.36,40.62-1.52,3.17-3.71,6.49-6.44,9.78-53.15,50.16-99.23,14.11-114.96-8.05Z"/>
              <g>
                <path class="cls-44" d="M28.81,322.42c-5.93-8.35-12-21.33-16.65-34.21,8.93,21.44,30.23,52.16,58.56,59.84,34.58,9.38,78.74-30.74,38.79-37.61-50.52-8.69-78.41-50.22-78.41-50.22h0c15.95,12.05,36.41,28.28,53.67,33.25,28.72,8.28,55.07-13.41,55.07-13.41,9.74,9.39,17.56,25.61,10.36,40.62-1.52,3.17-3.71,6.49-6.44,9.78-53.15,50.16-99.23,14.11-114.96-8.05Z"/>
                <path class="cls-3" d="M31.4,325.84c8.7,10.42,23.16,21.38,44.11,26.51,28.63,7.02,68.55-26.46,66.31-41.8-2.24-15.35-28.19-7.13-50.61-11.59-30.39-6.04-60.09-38.74-60.09-38.74,15.95,12.05,36.41,28.28,53.67,33.25,28.72,8.28,55.07-13.41,55.07-13.41,9.74,9.39,17.56,25.61,10.36,40.62-1.52,3.17-3.71,6.49-6.44,9.78-50.5,47.65-94.6,17.5-112.38-4.64Z"/>
                <path class="cls-44" d="M8.11,275.71s0,.03,0,.04c-.2-.69-.39-1.37-.58-2.05,.21,.56,.41,1.22,.57,2.01Z"/>
              </g>
            </g>
            <g>
              <g>
                <path class="cls-58" d="M147.91,529.09s-24.71,13.39-16.26,21.68,26.31-1.59,31.73,1.12c5.42,2.71,10.68,9.09,22.16,7.81,11.48-1.28,11.8-11.32,21.52-10.04,9.73,1.28,43.05,3.03,8.29-20.57-34.76-23.6-67.44,0-67.44,0Z"/>
                <path class="cls-19" d="M215.35,529.09c-.94-.64-1.87-1.22-2.81-1.79l-59.38-1.32c-3.35,1.74-5.26,3.11-5.26,3.11,0,0-9.89,5.36-15.01,11.4h0s4.88-5.37,21.76,0c17.96,5.71,22.11,8.8,47.94,2.74,20.63-4.84,25.69,3.3,17.58,4.36-3.93,.51-1.14,1.5,2.84,2.36,9.15-1.23,14.14-6.05-7.67-20.86Z"/>
                <path class="cls-56" d="M215.35,529.09c-34.76-23.6-67.44,0-67.44,0,0,0-2.71,1.47-6.02,3.73,7.92,5.08,17.81,9.45,29.67,11.15,35.71,5.1,42.17-11.33,51.84-4.74,9.67,6.59-2.33,10.91-14,8.03-11.68-2.88-13.72,7.62-23.28,10.52-9.56,2.9-16.37-6.48-21.15-8.61-4.78-2.13-12.76,4.25-25.72,2.76-12.97-1.49-6.35-11.45-6.35-11.45-2.98,3.51-4.35,7.24-1.25,10.28,8.45,8.29,26.31-1.59,31.73,1.12,5.42,2.71,10.68,9.09,22.16,7.81s11.8-11.32,21.52-10.04c9.73,1.28,43.05,3.03,8.29-20.57Z"/>
                <path class="cls-22" d="M215.35,529.09c-2.06-1.4-4.11-2.62-6.15-3.7-11.64,.09-47.52,.6-60.91,3.44-.25,.17-.38,.26-.38,.26,0,0-1.94,1.05-4.54,2.74,0,0,0,0,0,0,0,0,22.23,15.11,47.96,10.33,25.72-4.78,27.62-9.63,33.67-4.54,3.57,3,6.39,7.05,4.83,9.78,2.75-2.86,.26-8.31-14.48-18.31Z"/>
                <path class="cls-62" d="M124.72,269.02s-57.33,98.08-26.72,189.28c30.61,91.2,79.4,91.84,120.06,74.62,40.65-17.22,63.32-54.85,118.95-44.64,55.63,10.2,91.98-53.57,67.11-102.68-24.87-49.11-82.13-73.5-74.87-128.91,7.26-55.41-181.88-41-204.54,12.33Z"/>
                <path class="cls-18" d="M325.81,451.42c3.44-5.82,4.54-14.73,16.01-20.93,11.46-6.2,17.74,2.35,26.05-4.96,8.31-7.31,26.88-20.53,32.6,24.04,7.92-14.76,9.75-31.58,5.22-41.66-24.93-55.55-96.13-59.45-97.96-123.48-1.82-64.02-166.98,12.22-166.98,12.22,0,0-61.25,74.87-29.39,169.29,33.73,99.96,104.58,71.43,129.79,36.35,20.94-29.13,27.56-44.58,62.68-36.28,5.27-8.68,18.95-9.5,21.97-14.61Z"/>
                <path class="cls-37" d="M356.3,342c33.63,26.47,38.28,28.36,49.4,46.92-.5-1.11-1.01-2.22-1.57-3.33-23.1-45.62-74.14-69.91-75.46-117.55l-11.27,9.81s-2.25,31.75,38.9,64.14Z"/>
                <path class="cls-51" d="M329.26,277.86s1.1,22.28,13.64,37.8c12.54,15.52,35.29,33.79,35.29,33.79,0,0,0,0,0-.01-21.02-23.61-44.04-43.92-48.7-72.64-.11,.28-.19,.63-.23,1.07Z"/>
                <path class="cls-37" d="M125.67,267.01c-.34,.66-.66,1.33-.95,2.01,0,0-57.33,98.08-26.72,189.28,2.25,6.7,4.6,12.91,7.04,18.66,0,0,0,0,0,0-34.1-126.75,34.73-194.36,34.73-194.36-3.59-7.57-8.43-12.57-14.11-15.59Z"/>
                <path class="cls-13" d="M329.26,256.69c.29-2.18,.27-4.24-.03-6.21-65.79,.92-180.84,4.86-205.91,21.05-1.04,1.92-2.62,4.92-4.52,8.83,0,0,9.89,11.02,30.94,20.94-8.58,4.19-14.95,9.05-16.66,14.14,0,0-59.63,83.23,18.76,150.51,0,0-7.52-59.1,22.81-64.09,24.98-4.12,12,28.7,12,28.7,0,0,16.76-6.99,15.21-17.86-1.42-9.94-27.21-60.27,1.74-96.97,15.54,1.58,33.34,1.5,53.52-1.25,33.68-4.59,58.32-13.87,76.13-23.98-3.93-10.1-5.65-21.14-3.99-33.82Z"/>
                <g>
                  <path class="cls-35" d="M191.44,426.41s9.03-11.27-10.52-30.4c0,0,46.77,8.08,10.52,30.4Z"/>
                  <path class="cls-53" d="M155.88,295.02s-29.04,11.49-39.95,66.98,33.55,92.47,33.55,92.47c0,0-4.3-29.97,25.36-46.24,29.67-16.26,39.55,4.78,16.59,18.18,0,0,16.58-7.97,13.39-19.13s-33.68-49.05-2.97-101.59l-45.98-10.67Z"/>
                  <path class="cls-7" d="M197.01,314.92c-1.23-4.17-2.38-7.94-3.36-11.14l-37.77-8.77s-29.04,11.49-39.95,66.98c-3.95,20.11-.63,37.78,5.2,52.15-.12-.33-10.2-28.42,0-59.8,11.56-35.56,30.15-40.18,38.58-30.93,8.44,9.25,7.92,43.88,42.14,77.1h0c-7.41-14.93-23.62-45.46-4.85-85.6Z"/>
                  <path class="cls-49" d="M201.86,305.69l-45.98-10.67s-18.13,7.2-31.12,37.6c.76-1.27,16.59-27.74,36.94-27.46,20.82,.28,15.72,59.79,34.68,83.82-7.92-18.37-15.49-47.41,5.48-83.29Z"/>
                  <path class="cls-35" d="M151.84,297.25s16,7.99,47.42,13.17c.82-1.57,1.68-3.14,2.61-4.73l-45.98-10.67s-1.54,.62-4.04,2.23Z"/>
                  <path class="cls-24" d="M382.77,115.2c.74-1.78,1.77-5.09,.5-7.62-1.01-2.02-4.39-3.19-8.09-2.67,.29-.24,.48-.41,.48-.41,0,0-2.9-6.7-12.13,1.45-4.91,4.33-11.51,4.46-17.62,4.35-1.3-2.5-4.36-6.88-9.6-6.16-4.64,.63-4.31,3.77-.48,6.57-1.29,.28-2.47,.71-3.45,1.39-6.7,4.71-2.54,11.23-2.54,11.23,0,0-9.36,12.2-1.45,26.98,9.79,18.29,48.35,22.27,55.05,.54,.03-.11,.08-.21,.13-.32,3.38-2.44,8.45-7.73,8.93-17.79,.42-8.92-4.02-14.77-9.74-17.55Z"/>
                  <path class="cls-44" d="M374.23,105.95s5.32-2.03,7.41,1.95c2.09,3.98-5.18,8.96-5.18,8.96,0,0,11-.48,14.11,8.05,3.11,8.53-1.51,17.3-7.09,20.89,0,0,1.38,5.27-5.64,13.71,2.54-2.23,4.51-5.09,5.61-8.65,.03-.11,.08-.21,.13-.32,3.38-2.44,8.45-7.73,8.93-17.79,.42-8.92-4.02-14.77-9.74-17.55,.74-1.78,1.77-5.09,.5-7.62-1.01-2.02-4.39-3.19-8.09-2.67,.29-.24,.48-.41,.48-.41,0,0-2.9-6.7-12.13,1.45,0,0,9.5-7.16,10.7,0Z"/>
                  <path class="cls-15" d="M339.27,141.76c-.62-19.25,14.23-24.04,14.23-24.04l-5.31-7.4c-.76,0-1.52,0-2.27-.02-.75-1.44-2.08-3.49-4.07-4.84l-8.44-.1c-1.2,1.32-.23,3.42,2.43,5.36-1.29,.28-2.47,.71-3.45,1.39-6.7,4.71-2.54,11.23-2.54,11.23,0,0-9.36,12.2-1.45,26.98,7.08,13.22,29.17,18.96,43.42,12.92-12.7,4.42-31.94-2.25-32.56-21.48Z"/>
                  <path class="cls-44" d="M349.1,164.43c-5.71-1.56-17.89-11.4-15.34-27.14,2.55-15.73,12.97-21.53,12.97-21.53l-13.7-8.41c.31,1.05,1.26,2.23,2.81,3.36-1.29,.28-2.47,.71-3.45,1.39-6.7,4.71-2.54,11.23-2.54,11.23,0,0-9.36,12.2-1.45,26.98,3.78,7.06,11.85,11.99,20.72,14.12-.01,0-.01,0-.02,0Z"/>
                  <path class="cls-18" d="M387.69,123.45c-6.65-7.94-17.99-2.51-18.95-3.26-.95-.75,14.46-8.08,9.98-10.73-4.48-2.65-9.64,5.57-9.64,5.57,0,0,4.81-10.29,1.44-9.78-4.5,.68-6.06,13.17-6.06,13.17,0,0-.15-.06-.38-.13-1.56-.63-2.8-.67-3.7-.26-2.72,.54-11.28,.99-15.13,15.75-4.03,15.47,13.49,31.67,28.68,22.93,7.33-4.22,6.46-21.07,1.38-20.99,12.12,2.82,18.34-5.12,12.36-12.27Z"/>
                  <path class="cls-39" d="M364.16,107.75c-1.28-9.78-20.14-90.14-98.43-105.44-78.28-15.31-122.87,50.6-122.87,50.6,0,0,169.01,37.2,191.33,54.85,18.76,14.83,25.8,9.99,25.94,5.67,2.85,.04,4.55-1.72,4.04-5.67Z"/>
                  <path class="cls-16" d="M360.12,113.42c2.85,.04,4.55-1.72,4.04-5.67-.52-4.02-4.03-19.98-13.41-38.44,3.06,7.91,11.28,32.38,8.73,36.42-2.55,4.04-2.02-1.38-11.16-23.34-9.14-21.96-8.08-10.25-5.21-3.66,2.87,6.59,16.26,30.51,9.35,29.17-6.15-1.19-14.11-50.91-51.6-76.26-63.43-42.89-128.79-7.69-128.89-7.66-19.02,13.99-29.12,28.92-29.12,28.92,0,0,169.01,37.2,191.33,54.85,18.76,14.83,25.8,9.99,25.94,5.67Z"/>
                  <path class="cls-30" d="M358.41,86.94c.37,1.09,3.14,9.38,4.18,18.44,1.12,9.73-4.7,6.14-5.82,1.68-1.12-4.46-12.12-30.3-13.15-32.37-1.04-2.07,0,.64,.24,3.03,.24,2.39,7.44,14.08,7.65,15.78,.21,1.7,11.05,24.98,2.13,22.64-8.93-2.34-12.86-23.92-15.2-29.33-2.34-5.42-17.47-50.42-68.08-64.1-57.29-15.48-104.63,6.16-104.63,6.16l-.05,.04c-14.94,12.36-22.81,23.99-22.81,23.99,0,0,169.01,37.2,191.33,54.85,18.76,14.83,25.8,9.99,25.94,5.67,2.85,.04,4.55-1.72,4.04-5.67-.35-2.65-1.99-10.49-5.75-20.81Z"/>
                  <path class="cls-36" d="M353.49,117.72s0,0,0,0c-11.94-2.35-14.37-16.67-14.37-16.67l-2.11,8.84c7.42,5.42,12.79,7.53,16.48,7.83Z"/>
                  <path class="cls-36" d="M287.8,33.27c-65.36-30.86-127.91,.95-128.61,1.34-10.72,10.01-16.33,18.29-16.33,18.29,0,0,15.53,3.42,37.79,8.67,66.18-2.2,155.29-5.58,107.15-28.3Z"/>
                  <path class="cls-27" d="M125.43,138.77s-27.73-38.73,9.35-79.37c46.17-50.59,152.21-50.29,188.78,2.46,36.56,52.75-2.13,81.06-2.13,81.06l-196-4.15Z"/>
                  <path class="cls-15" d="M335.2,83.65c.62,3.8,.57,7.39-.38,10.64-7.87,26.93-22.71-30.69-97.11-36.49-81.83-6.38-103.14,60.8-113.28,50.11-9.92-10.46-.44-33.58-.02-34.59-20.68,35.13,1.02,65.45,1.02,65.45l196,4.15s28.08-20.56,13.77-59.27Z"/>
                  <path class="cls-44" d="M333.97,111.46c-9.09,10.22-32.53-47.67-102.04-50.9-69.52-3.23-96.76,50.93-106.08,56.23-9.32,5.3-9.4-22.5-9.4-22.5,0,0-.01,.01-.01,.02-4.65,25.41,8.99,44.47,8.99,44.47l196,4.15s21.71-15.89,17.23-46.04c-.56,6.03-1.92,11.46-4.69,14.58Z"/>
                  <path class="cls-32" d="M125.43,138.77l9.04,.19c1.32-11.74,2.09-27.06-4.25-19.2-9.78,12.12-14.28-7.37-14.28-7.37,1.96,15.84,9.5,26.38,9.5,26.38Z"/>
                  <path class="cls-32" d="M339.27,105.76s-1.46,12.4-7.2,15.06c-5.74,2.66-16.37-15.33-16.37-15.33,0,0-17.02,25.54-24.14,36.79l29.87,.63s17.46-12.77,17.84-37.15c0,0,0,0,0,0Z"/>
                  <path class="cls-18" d="M332.55,169.8c.5-3.76,.78-7.57,.78-11.45,0-52.83-47.45-95.66-105.99-95.66s-105.99,42.83-105.99,95.66c0,1.93,.08,3.85,.21,5.75-11.56,11.66-18.24,25.42-18.24,40.17,0,42.03,54.25,76.11,121.17,76.11s121.17-34.07,121.17-76.11c0-12.41-4.73-24.12-13.11-34.47Z"/>
                  <path class="cls-5" d="M284.36,77.72l-16.21-7.68c-12.56-4.73-26.34-7.36-40.8-7.36-45.82,0-84.85,26.25-99.64,62.99l6.26,17.25s2.14,15.41,6.79,16.16c4.65,.75-4.7-20.49,3.91-41.31,11-26.6,44.12-28.12,60.05-3,15.93,25.12,17.24,51.27,22.65,44.34s9.32-53.69,40.82-60.92c26.54-6.1,41.12,13.28,40.91,36.36-.13,13.6,1.36,40.99,8.97,8.37,5.25-22.5-8.09-42.75-16.87-53.16-5.14-4.51-10.78-8.54-16.84-12.04Z"/>
                  <path class="cls-62" d="M142.43,173.27s8.4-4.83,4.2-6.26c-4.2-1.43-7.57,.88-7.73,0-.16-.88,1.99-3.19,7.97-2.87,5.98,.32-5.25-10.39-2.2-34.92,3.93-31.68,45.65-42.44,62.82-1.45,12.12,28.94,0,66.13,0,66.13,0,0,1.01-35.66-65.05-20.63Z"/>
                  <path class="cls-62" d="M306.44,169.15s-7.7-3.12-3.4-4.22c4.69-1.2,7.52-.48,7.68-1.36s-.66-1.75-6.75-1.99c-5.98-.23,4.6-7.84,1.55-32.37-3.93-31.68-45.65-42.44-62.82-1.45-12.12,28.94,0,66.13,0,66.13,0,0,20.48-22.82,63.74-24.74Z"/>
                  <ellipse class="cls-21" cx="270.22" cy="159.32" rx="26.51" ry="22.19" transform="translate(-42.65 136.58) rotate(-26.37)"/>
                  <ellipse class="cls-21" cx="179.02" cy="159.32" rx="22.19" ry="26.51" transform="translate(-43.23 248.97) rotate(-63.63)"/>
                  <path class="cls-61" d="M248.43,164.89c1.62-4.29,4.62-8.08,8.49-10.89,1.94-1.39,4.11-2.57,6.47-3.29l.88-.29,.9-.2c.6-.12,1.21-.26,1.82-.37,1.23-.08,2.47-.28,3.7-.19,2.47,0,4.88,.56,7.18,1.26,2.28,.78,4.43,1.84,6.42,3.09,3.92,2.58,7.31,5.85,9.64,9.81-3.81-2.49-7.61-4.65-11.49-6.34-1.96-.8-3.92-1.51-5.9-2-.5-.13-1-.21-1.49-.32-.5-.11-.99-.22-1.49-.25l-1.49-.2-1.49-.05c-1-.11-1.97,.07-2.97,.08-.97,.17-1.97,.23-2.93,.52-1.95,.41-3.85,1.17-5.71,2.08-3.73,1.83-7.22,4.44-10.53,7.55Z"/>
                  <path class="cls-61" d="M203.5,164.89c-3.32-3.1-6.8-5.72-10.53-7.55-1.86-.9-3.75-1.66-5.71-2.08-.96-.29-1.96-.35-2.93-.52-.99-.01-1.97-.19-2.97-.08l-1.49,.05-1.49,.2c-.5,.03-1,.14-1.49,.25-.5,.11-1,.19-1.49,.32-1.98,.5-3.94,1.2-5.9,2-3.89,1.69-7.68,3.85-11.49,6.34,2.33-3.96,5.72-7.23,9.64-9.81,1.99-1.25,4.14-2.31,6.42-3.09,2.3-.7,4.71-1.26,7.18-1.26,1.23-.09,2.47,.11,3.7,.19,.61,.1,1.21,.24,1.82,.37l.9,.2,.88,.29c2.36,.71,4.53,1.89,6.47,3.29,3.87,2.81,6.87,6.6,8.49,10.89Z"/>
                  <g>
                    <path class="cls-28" d="M174.32,104.6c.31,1.12-1.8,2.68-4.71,3.48-2.91,.8-5.51,.53-5.82-.59-.31-1.12,1.8-2.68,4.71-3.48,2.91-.8,5.51-.53,5.82,.59Z"/>
                    <path class="cls-28" d="M275.46,104.6c-.31,1.12,1.8,2.68,4.71,3.48,2.91,.8,5.51,.53,5.82-.59,.31-1.12-1.8-2.68-4.71-3.48-2.91-.8-5.51-.53-5.82,.59Z"/>
                  </g>
                  <path class="cls-62" d="M314.76,171.52c22.54,7.11,38.22,70.24-45.36,91.94-77.34,20.09-137.67-14.73-148.19-42.27-12.68-33.19,15.69-49.67,15.69-49.67,0,0-10.52,1.64-24.69,4.07-5.74,8.85-8.9,18.53-8.9,28.67,0,42.03,54.25,76.11,121.17,76.11s121.17-34.07,121.17-76.11c0-12.41-4.73-24.12-13.11-34.47,.17-1.28,.3-2.57,.42-3.86-14.71,1.72-28.85,2.23-18.21,5.58Z"/>
                  <g>
                    <path class="cls-45" d="M337.55,188.68c13.14,35.22-24.27,55.65-24.27,55.65-14.57,11.05-71.87,27.92-100.8,35.67,3.95,.24,7.96,.37,12.02,.37,66.92,0,121.17-34.07,121.17-76.11,0-9.95-3.05-19.44-8.57-28.15-2.37,.48-2.73,4.03,.45,12.57Z"/>
                    <path class="cls-45" d="M149.48,253.36c-59.17-21.27-35.74-67.38-35.74-67.38-3,.97-5.69,2.14-8.1,3.46-1.51,4.8-2.32,9.75-2.32,14.82,0,35.32,38.3,65.01,90.24,73.6-2.94-5.07-12.66-13.21-44.08-24.5Z"/>
                  </g>
                  <path class="cls-62" d="M267.65,181.98c16.26-13.04,42.84-10.03,39.86-12.26s-12.26-.94-12.26-.94c5.95-7.22,12.66-4.24,11.15-5.67s-7.17,.48-7.49,.32c-.32-.16,1.19-4.34,1.19-4.34l-1.19,.06-3.18,8.5s-26.32,6.11-39.06,13.37c-1.22,.7-6.24-.41-7.34-.34l-7.69,4.66s-24.69,5.23-39.51-6.42c-14.83-11.66-44.48-9.02-44.48-9.02l-2.28-3.74c-8.65-3.05-17.18,.4-11.86,0,5.31-.4,11.48,3.02,11.48,3.02-10.75,1.79-23.08,9.02-5.08,4.15,22.4-6.06,45.17,7.22,45.61,9.9,1.16,7-5.9,6.41-16.19,4.05-8.45-1.94-10.93,6.38-4.67,10.63,31.46,21.37,35.77,48.26,52.91,46.34,17.14-1.91,47.42-43.02,47.42-43.02,6.78,.16,11.24-6.82,7.73-10.54-3.51-3.73-10.12-.3-15.86-1.98-5.74-1.67,.8-6.71,.8-6.71Z"/>
                  <path class="cls-21" d="M187.43,203.06s20.27,20.09,29.52,32.34c4.18,5.53,13.31,7.73,26.66-3.81,13.28-11.47,27.76-33.95,27.76-33.95l-83.94,5.42Z"/>
                  <path class="cls-60" d="M180.24,197.15s16.01,12.41,28.42,26.46c14.46,16.37,21.96,15.77,38.25,1.51,12.76-11.16,25.76-25.54,26.7-31.91,.75-5.08-93.36,3.94-93.36,3.94Z"/>
                  <path class="cls-1" d="M241.63,209.6l-37.14,.57s-9.23-5.2-8.7-3.29c.53,1.91,4.48,4.82,19.98,20.87,6.36,6.58,14.49,13.04,34.3-8.18,19.81-21.23-8.45-9.96-8.45-9.96Z"/>
                  <path class="cls-65" d="M263.71,191.66c-.1,.14-19.72,26.85-5.97,15.22,8.84-7.47,4.08,2.61-2.45,9.07-6.54,6.46-19.77,18.97-28.37,18.81-8.6-.16-15.56-9.81-21.77-16.58-6.22-6.78-17.81-15.2-13.95-15.12s13.3,7.11,13.3,7.11c-1.97-3.58-9.14-9.07-16.02-13.78-5.1,.46-8.23,.76-8.23,.76,0,0,16.01,12.41,28.42,26.46,14.46,16.37,21.96,15.77,38.25,1.51,12.76-11.16,25.76-25.54,26.7-31.91,.15-1.04-3.69-1.49-9.89-1.55Z"/>
                  <path class="cls-38" d="M272.9,195.45l-6.45-2.62-7.43,12.66s5.36-5.97,7.59-5.05c2.16,.89-10.18,15.62-10.93,16.51,8.1-8,15.02-16.25,17.22-21.5Z"/>
                  <path class="cls-38" d="M192.31,207.34s0,0,0,0c-2.16-2.35-5.44-5.94-4.16-6.89,1.28-.95,10.81,4.64,10.81,4.64l11.19-8.56-26.8,.33c-1.99,.18-3.11,.29-3.11,.29,0,0,5.25,4.07,12.07,10.19Z"/>
                  <path class="cls-64" d="M184.39,196.38c7.85,4.3,13.34,5.57,28.3,21.91,11.24,12.28,14.84,10.97,21.15,8.08,10.2-4.68,24.91-19.49,31.91-29.07,5.04-6.91-85.71-3.31-81.37-.93Z"/>
                  <path class="cls-18" d="M304.38,170.78s-25.59-2.74-50.07,13.32c-27.26,17.88,16.63,5.17,16.63,5.17l33.44-18.49Z"/>
                  <path class="cls-62" d="M303.97,170.82s-21.71,1.13-32.07,11.31c-7.04,6.92,3.68,7.05,3.68,7.05,0,0-15.14,3.96-16.82-3.86-1.68-7.82,26.32-15.12,45.21-14.49Z"/>
                  <path class="cls-18" d="M144.67,174.57s32.58-13.07,59.2,5.74c26.63,18.81-18.64,7.18-18.64,7.18l-40.56-12.92Z"/>
                  <path class="cls-62" d="M149.48,173.11s28.98-3.2,37.36,7.64c5.65,7.3-4.68,7.94-4.68,7.94,0,0,20.82,.69,22.5-7.13,1.68-7.82-34.07-15.54-55.18-8.44Z"/>
                  <path class="cls-45" d="M303.97,170.82s-19.21-3.67-50.35,11.63l.96,3.53s23.92-15.83,49.39-15.16Z"/>
                  <path class="cls-45" d="M144.67,174.57s29.44-15.82,62.82,4.07l-2.22,3.82s-24.44-20.05-60.6-7.89Z"/>
                  <path class="cls-37" d="M332.55,169.8c.5-3.76,.78-7.57,.78-11.45,0-52.83-47.45-95.66-105.99-95.66s-105.99,42.83-105.99,95.66c0,1.93,.08,3.85,.21,5.75-11.56,11.66-18.24,25.42-18.24,40.17,0,6.52,1.31,12.85,3.77,18.89-11.62-40.7,29.82-51.63,29.82-51.63-9.78-39.12,4.06-82.15,41.64-84.18,31.44-1.7,48.45,39.97,48.45,39.97l.09-.98,.09,.98s17.01-41.67,48.45-39.97c37.58,2.03,48.92,45.07,39.14,84.18,0,0,27.21,10.97,30.84,35.1,.04-.78,.06-1.57,.06-2.36,0-12.41-4.73-24.12-13.11-34.47Z"/>
                  <path class="cls-51" d="M252.75,91.5c-16.34,8.62-35.84,7.88-52.39-.32-14.48-7.17-26.56-3.35-26.56-3.35l.02,.02c1.54-.24,3.1-.43,4.72-.52,31.44-1.7,48.45,39.97,48.45,39.97l.09-.98,.09,.98s17.01-41.67,48.45-39.97c.76,.04,1.5,.13,2.24,.2-.08-.02-.15-.03-.24-.05-9.6-1.66-17.91,.34-24.87,4.01Z"/>
                  <path class="cls-1" d="M174.2,190.95s.24-3.14,9.48-2.55c9.99,.64,23.4-19.81,43.7-19.81,18.16,0,35.59,18.81,42.03,20.12,5.74,1.17,11.51-.89,11.51,3.9,0,.06-.11,.57-.11,.57,0,0-2.22,3.66-9.44,4.45-10.5,1.16-21.18,1.12-37.52,12.2,0,0-6.22,5.5-14.91,1.83-8.69-3.67-14.35-9.01-26.31-11.8-11.96-2.79-18.37-4.54-18.43-8.93Z"/>
                  <path class="cls-1" d="M174.2,190.95s.24-3.14,9.48-2.55c9.99,.64,23.4-19.81,43.7-19.81,18.16,0,35.59,18.81,42.03,20.12,5.74,1.17,11.55-.95,11.55,3.84,0,.14-.3,.97-.3,.97,0,0,.26,3.1-9.29,4.12-10.51,1.12-21.18,1.12-37.52,12.2,0,0-6.22,5.5-14.91,1.83-8.69-3.67-14.35-9.01-26.31-11.8-11.96-2.79-18.37-4.54-18.43-8.93Z"/>
                  <path class="cls-47" d="M244.54,176.3c-6.62-7.19-15.32-7.22-17.17-7.14-1.84-.08-10.55-.05-17.17,7.14-7.14,7.76-12.14,20.4-29.26,20.46,2.96,1.03,6.86,1.98,11.68,3.11,11.96,2.79,17.62,8.13,26.31,11.8,8.69,3.67,14.91-1.83,14.91-1.83,16.34-11.08,27-11.24,37.52-12.2,2.35-.21,4.1-.56,5.44-.96-.25,0-.52,.02-.8,.03-18.92,1.06-24.02-12.33-31.46-20.41Z"/>
                  <path class="cls-48" d="M219.83,211.29c8.69,3.67,14.91-1.83,14.91-1.83,5.65-3.83,10.61-6.34,15.13-8.04-7.82-1.36-9.26-15.08-12.58-23.16-3.25-7.9-7.12-9.48-8.63-9.48-.12,0-.22,0-.31,0-.03,0-.06,0-.08,0-.02,0-.06,0-.08,0-.09,0-.19,0-.31,0-1.51,0-5.68,.79-8.92,8.69-4.01,9.74-6.77,25.81-16.83,24.82,6.68,2.81,11.4,6.35,17.71,9.01Z"/>
                  <path class="cls-33" d="M222.05,186.19s-.31-15.84,5.53-13.71c5.84,2.13-.75,35.4-2.77,32.42s-2.76-18.71-2.76-18.71Z"/>
                  <path class="cls-60" d="M176.66,191.83c.32-3.14,8.82-1.81,10.2-2.39s9.61-6.98,9.61-6.98l.05-.04c-4.88,3.49-9.11,6.21-12.85,5.98-9.24-.59-9.48,2.55-9.48,2.55,.06,4.39,6.47,6.14,18.43,8.93,.16,.04,.31,.08,.48,.12,2.75,.27,4.63,.45,4.63,.45,0,0-21.39-5.48-21.07-8.62Z"/>
                  <path class="cls-60" d="M269.4,188.71c-2.79-.57-7.66-4.44-13.76-8.63,.02,.02,8.98,8.21,12.08,9.81,3.11,1.59,9.02,.48,9.89,3.43,.87,2.95-19.87,5.03-19.87,5.03,0,0,1.17,.19,3,.48,3.69-.56,7.17-.81,10.62-1.18,9.55-1.02,9.29-4.12,9.29-4.12,0,0,.3-.83,.3-.97,0-4.79-5.81-2.67-11.55-3.84Z"/>
                  <path class="cls-17" d="M238.88,181.86c1.58,2.44,4.08,3.62,5.6,2.64,1.52-.98,1.47-3.75-.1-6.19-1.58-2.44-4.08-3.62-5.6-2.64-1.52,.98-1.47,3.75,.1,6.19Z"/>
                  <path class="cls-17" d="M215.45,181.86c-1.58,2.44-4.08,3.62-5.6,2.64s-1.47-3.75,.1-6.19c1.58-2.44,4.08-3.62,5.6-2.64s1.47,3.75-.1,6.19Z"/>
                  <path class="cls-57" d="M215.45,182.33c-1.58,2.44-4.08,3.62-5.6,2.64s-1.47-3.75,.1-6.19c1.58-2.44,4.08-3.62,5.6-2.64s1.47,3.75-.1,6.19Z"/>
                  <path class="cls-55" d="M210.89,181.62c-.7,1.08-1.08,2.22-1.17,3.24,.04,.03,.08,.08,.13,.11,1.52,.98,4.03-.2,5.6-2.64,.7-1.08,1.08-2.22,1.17-3.24-.04-.03-.08-.08-.13-.11-1.52-.98-4.03,.2-5.6,2.64Z"/>
                  <path class="cls-57" d="M238.88,182.33c1.58,2.44,4.08,3.62,5.6,2.64,1.52-.98,1.47-3.75-.1-6.19-1.58-2.44-4.08-3.62-5.6-2.64-1.52,.98-1.47,3.75,.1,6.19Z"/>
                  <path class="cls-55" d="M243.44,181.62c.7,1.08,1.08,2.22,1.17,3.24-.04,.03-.08,.08-.13,.11-1.52,.98-4.03-.2-5.6-2.64-.7-1.08-1.08-2.22-1.17-3.24,.04-.03,.08-.08,.13-.11,1.52-.98,4.03,.2,5.6,2.64Z"/>
                  <path class="cls-65" d="M176.81,195.87c4.81,3.29,9.46,2.1,19.87,5.71,6.89,2.39,15.26,6.11,20.51,9.65,13.18,8.89,19.84-8.26,39.49-11.27,19.66-3.01,23.34-.76,24.26-7.43,0,0-1.45,3.81-11.25,4.47-12.1,.81-21.27,2.45-30.4,8.48-9.13,6.02-13.01,8.15-17.97,6.38-4.96-1.77-14.45-8.38-23.61-11.41-5.79-1.91-20.6-4.31-22.24-8.16-1.64-3.85-3.31,.42,1.32,3.59Z"/>
                  <g>
                    <path class="cls-38" d="M235.24,209.6c5.6-3.52,12.03-8.2,21.45-9.64,11.22-1.72,17.23-1.72,20.5-2.65,.89-.39,1.5-.66,1.77-.78-2.76,1.23-12.76,1.7-23.32,2.97-10.57,1.27-20.33,10.05-20.41,10.11Z"/>
                    <path class="cls-38" d="M279.02,196.5s-.03,.01-.05,.02c.01,0,.03-.01,.04-.02,0,0,0,0,0,0Z"/>
                  </g>
                  <path class="cls-38" d="M174.65,193.77c.48,.69,1.17,1.42,2.16,2.1,4.81,3.29,9.46,2.1,19.87,5.71,4.06,1.41,8.63,3.28,12.78,5.3h0s-9.58-6.37-21.33-8.07c-10.16-1.47-12.93-4.3-13.49-5.04Z"/>
                  <path class="cls-47" d="M242.99,221.69s-7.39,6.27-12.28,7.49c-4.89,1.22,2.07,3.19,8.13-1.81s11.48-11.69,4.15-5.69Z"/>
                  <path class="cls-47" d="M219.87,227.91s1.7,2.07,3.99,2.29c2.29,.21-5.69-4.36-3.99-2.29Z"/>
                  <path class="cls-50" d="M233.85,226.37c1.74-.8,3.62-1.91,5.57-3.22-4.91-9.48-10.97-7.43-13.32-6.13-5.93-4.33-16.01-3.51-14.64-.06,0,0,0,0,0,0,.41,.44,.82,.88,1.24,1.34,11.24,12.28,14.84,10.97,21.15,8.08Z"/>
                  <path class="cls-66" d="M226.92,220.05s-5.25-6.28-10.83-4.36c-3.49,1.21,4.63,10.28,12.33,10.63s3-14.24-1.5-6.27Z"/>
                  <path class="cls-54" d="M227.87,216.26c.61-.16,4.98-1.2,6.51,1.77,1.65,3.19-1.01,8.93-6.01,9.62-5,.69-13.88-7.44-15.04-10.1-1.12-2.56,2.64-3.42,2.95-3.48-3.21,.05-5.52,1.12-4.82,2.89,0,0,0,0,0,0,.41,.44,.82,.88,1.24,1.34,11.24,12.28,14.84,10.97,21.15,8.08,1.74-.8,3.62-1.91,5.57-3.22-3.95-7.62-8.64-7.79-11.54-6.89Z"/>
                  <path class="cls-4" d="M221.03,218.58s-1.51-2.29-2.79-1.69,4.82,4.25,2.79,1.69Z"/>
                  <path class="cls-4" d="M223.06,219.48s-.62-.52-.5,0c.12,.52,1.43,1.25,.5,0Z"/>
                  <g>
                    <path class="cls-26" d="M127.77,166.13c-8.93-30.11,7.74-55.27,9.63-58.37-10.15,14.68-16.04,32-16.04,50.58,0,1.93,.08,3.85,.21,5.75-8.14,8.21-13.85,17.46-16.52,27.37,4.99-16.85,22.72-25.33,22.72-25.33Z"/>
                    <path class="cls-26" d="M103.63,198.81s0-.04,0-.06c0,.02,0,.04,0,.06Z"/>
                  </g>
                  <path class="cls-26" d="M343.12,188.68c-2.21-6.65-5.79-12.99-10.56-18.88,.5-3.76,.78-7.57,.78-11.45,0-18.52-5.85-35.8-15.94-50.44,1.16,2.14,18.74,31.45,8.61,60.87,0,0,9.68,3.48,17.11,19.9Z"/>
                  <path class="cls-2" d="M227.35,62.68c-27.54,0-52.62,9.48-71.47,25.02,16.23-11.66,42.34-25,97.68-15.64,29.81,5.05,56.32,25.32,71.62,49.42-15.99-34.53-53.76-58.8-97.83-58.8Z"/>
                  <path d="M240.69,63.46c-4.38-.5-8.82-.78-13.35-.78-.17,0-.33,.01-.49,.01,.37,.24,.72,.49,1.11,.73,0,0-2.18-.48-5.07-.64-2.11,.08-4.2,.2-6.28,.38-2.97,.62-5.67,2-6.88,4.85-3.35,7.9,18.44-2.67,18.44-2.67,0,0-11.03,9.86-7.12,13.92,3.91,4.06,11.58-13.54,11.58-13.54,0,0,4.33-.73,8.05-2.27Z"/>
                  <path class="cls-29" d="M343.7,242.53c4.26-5.97,9.02-16.82,1.25-29.97,0,0-19.78,52.19-125.2,52.83-79,.48-110.74-38.01-110.74-38.01,0,0-3.36,22.7,7.8,31.63,2.03,1.62,4.19,3.03,6.37,4.26-2.05,3.65-3.88,13.01,17.57,26.67,28.04,17.86,82.7,24.87,125.2,14.99,38.42-8.93,58.52-25.94,58.5-31.72,7.22-4.04,14.73-10.05,18.66-18.66,3.49-7.63,2.77-10.88,.58-12.01Z"/>
                  <path class="cls-53" d="M343.7,242.53c2.41-3.38,4.99-8.33,5.35-14.37l-14.66-.38c-14.47,15.46-46.84,37.19-114.64,37.6-1.95,.01-3.84-.02-5.73-.05,7.43,.64,17.55,.86,31.36,.28,53.21-2.21,48.84,6.04,32.25,10.23-16.58,4.19-61.01,8.78-47.7,13.46,13.31,4.68,24.63,17.83-13.33,15.99-37.96-1.84-41.23-14.07-30.65-13.01,10.58,1.06,21.52,2.98,26.73-4,5.21-6.98-7.76-12.58-31.75-20.5-15.4-5.08-11.02-6.44-5.92-6.76-12.65-2.72-23.3-6.45-32.11-10.44-13.38-2.65-25.46-4.22-33.39-5.08,1.07,5.15,3.21,10.25,7.28,13.51,2.03,1.62,4.19,3.03,6.37,4.26-2.05,3.65-3.88,13.01,17.57,26.67,28.04,17.86,82.7,24.87,125.2,14.99,38.42-8.93,58.52-25.94,58.5-31.72,7.22-4.04,14.73-10.05,18.66-18.66,3.49-7.63,2.77-10.88,.58-12.01Z"/>
                  <g>
                    <path class="cls-7" d="M324.46,273.2c7.22-4.04,14.73-10.05,18.66-18.66,3.49-7.63,2.77-10.88,.58-12.01,2.68-3.75,5.56-9.44,5.39-16.41l-35.81,18.2s-.02,.01-.07,.03c-2.27,1.32-4.68,2.63-7.26,3.9-7.04,4.09-10.25,8.48-7.9,12.73,4.46,8.11,33.38-1.35,21.21,6.36-12.16,7.7-66.6,17.17-66.46,23.23,.14,6.06,33.5,4.45-5.06,12.44-21.16,4.38-63.5,3.72-90.1-11.8-16.57-9.66-21.77-18.39,5.66-9.78,27.42,8.61,48.32,9.09,38.57,.21-17.62-16.03-72.18-18.24-71.33-27.42,.34-3.63,18.81,.42,32.08,3.63-25.71-7.58-41.33-19.04-48.62-25.54-1.67,.41-3.52,.86-5.43,1.34-.16,7.39,.84,19.41,8.26,25.35,2.03,1.62,4.19,3.03,6.37,4.26-2.05,3.65-3.88,13.01,17.57,26.67,28.04,17.86,82.7,24.87,125.2,14.99,38.42-8.93,58.52-25.94,58.5-31.72Z"/>
                    <path class="cls-7" d="M174.9,260.99s0,0-.01,0c-.01,0-.03,0-.05,0,.02,0,.06,.02,.06,.02Z"/>
                  </g>
                  <path class="cls-49" d="M324.46,273.2c7.22-4.04,14.73-10.05,18.66-18.66,3.49-7.63,2.77-10.88,.58-12.01,4.26-5.97,9.02-16.82,1.25-29.97,0,0-6.47,17.03-31.66,31.76h0s31.53-15.39,30.68-8.46c-.85,6.93-16.16,8.8-27.64,12.84-11.48,4.04-14.88,8.29-11.95,12.3,2.93,4.01,32.57-11.45,28.53,0s-71,26.82-68.62,31.92c2.38,5.1,19.2-7.22,23.55-4.64,4.35,2.58,.35,9.96-32.16,15.69-32.51,5.74-81.36,2.55-107.24-12.76-25.88-15.31-17.84-29.34,6.95-18.07s47.84,15.52,39.8,8.93c-8.04-6.59-20.87-10.2-37.45-13.82-16.58-3.61-36.75-6.3-41.24-16.16-4.49-9.86,9.13-8.83,9.13-8.83-5.88-4.9-11.52-9.06-16.93-12.59-.45,6.62-.41,21.5,8.13,28.33,2.03,1.62,4.19,3.03,6.37,4.26-2.05,3.65-3.88,13.01,17.57,26.67,28.04,17.86,82.7,24.87,125.2,14.99,38.42-8.93,58.52-25.94,58.5-31.72Z"/>
                  <path class="cls-5" d="M154.55,175.53s-24.02,4.09-29.34,24.92c-5.31,20.82,33.24,43.64,66.38,39.47,32.3-4.06-21.52-37.98-25.86-45.33-2.51-4.24-4.17-9.56,8.47-11.7,12.64-2.14-2.96-9.68-19.65-7.36Z"/>
                  <path class="cls-5" d="M299.81,177.38c9.51,1.47,27.07,4.6,29.34,24.92,2.39,21.36-31.72,44.14-64.85,39.97-32.3-4.06,20-38.48,24.34-45.82,2.51-4.24,4.17-9.56-8.47-11.7-12.64-2.14,3-9.94,19.65-7.36Z"/>
                  <path class="cls-18" d="M172.73,35.26s-34.21,15.94-43.48,36.35c-9.27,20.41-5.1,36.75,6.12,27.21,11.6-9.87,46.79-50.76,114.71-41.46,55.51,7.6,71.24,46.32,80.18,34.72,8.93-11.6-41.13-97-157.52-56.83Z"/>
                  <path class="cls-5" d="M164.05,41.85c-10.78,4.87-32.13,20.83-32.46,34.44-.47,19.63,19.57,1.91,41.14-10.63,21.57-12.54,67.07-20.77,107.67-2.41,40.6,18.36-11-69.02-116.35-21.4Z"/>
                  <path class="cls-5" d="M380.77,123.69c0,2.03-1.64,3.67-3.67,3.67s-3.67-1.64-3.67-3.67,1.64-3.67,3.67-3.67,3.67,1.64,3.67,3.67Z"/>
                  <circle class="cls-5" cx="384.3" cy="126.51" r=".58"/>
                  <path class="cls-5" d="M383.59,129.86c0,.78-.63,1.41-1.41,1.41s-1.41-.63-1.41-1.41,.63-1.41,1.41-1.41,1.41,.63,1.41,1.41Z"/>
                  <path class="cls-35" d="M132.66,266.34c18.92,.43,41.67,14.03,41.99,11.52s-17.97-7.91-38.8-11.95c-20.74-4.02-24.93-15.56-24.97-15.66,1.25,3.4,3.14,6.51,5.94,8.75,2.03,1.62,4.19,3.03,6.37,4.26-1.76,3.14-3.34,10.5,9.86,21.18,0,0-19.31-18.53-.4-18.1Z"/>
                  <g>
                    <path class="cls-35" d="M330.26,248.05c-16.9,5.53-18.17,8.5-12.86,7.65,5.31-.85,22.32-12.56,25.72-11.38,3.05,1.06-.66,12.25-4.59,17.51,1.8-2.19,3.37-4.62,4.59-7.3,3.49-7.63,2.77-10.88,.58-12.01,2.52-3.53,5.21-8.75,5.39-15.15,0,.01-1.93,15.16-18.83,20.68Z"/>
                    <path class="cls-35" d="M337.16,263.4c-4.36,4.13-14.22,11.32-29.42,14.46-15.22,3.14-32.9,11.01-26.82,10.37,6.08-.64,37.09-17.55,41.15-10.37,1.59-1.9,2.4-3.51,2.4-4.66,4.42-2.48,8.95-5.7,12.7-9.8Z"/>
                  </g>
                  <g>
                    <path class="cls-35" d="M242.75,264.35s0,0,0,0c-7.17,.62-14.82,.98-22.99,1.03-79,.48-110.74-38.01-110.74-38.01,0,0-.18,1.24-.32,3.24h0s40.07,42.8,134.05,33.73Z"/>
                    <path class="cls-35" d="M346.26,214.98c-.39-.8-.82-1.61-1.31-2.43,0,0-12.47,32.86-70.29,46.75,49.13-11.26,66.21-33.96,71.6-44.32Z"/>
                  </g>
                  <g>
                    <path class="cls-29" d="M174.84,408.24c11.95-6.55,20.69-7.04,25.36-4.42-.02-.01-.04-.03-.06-.04-32.1-21.68-38.37-51.02-44.11-66.01-5.74-14.99-31.28-3.51-35.4,35.08-4.88,45.79,28.84,81.63,28.84,81.63,0,0-4.3-29.97,25.36-46.24Z"/>
                    <path class="cls-29" d="M205.02,408.12c-.85-1.06-1.92-2.11-3.24-3.15,4.91,4.56,2.18,14.13-10.35,21.44,0,0,15.74-7.57,13.59-18.29Z"/>
                  </g>
                  <path class="cls-46" d="M282.53,8.26c-17.57-6.72-52.08-9.99-75.26,0-37.48,16.16,23.81-17.01,84.77,9.35,52.34,22.64,62.18,76.67,64.47,78.87,2.6,2.5-13.39-65.05-73.98-88.22Z"/>
                </g>
                <path class="cls-45" d="M367.62,486.27c-.39,.11-23,6.38-45.76-4.69-22.96-11.16-40.5-12.12-64.09,14.03-23.59,26.14-37.24,37.47-64.69,44.88,8.51-1.44,16.91-4.15,24.99-7.57,40.65-17.22,63.32-54.85,118.95-44.64,11.07,2.03,21.38,1.12,30.6-2.01Z"/>
                <path class="cls-26" d="M97.14,455.61c-1.5-7.5-3.6-15.51-4.45-24.3-6.8-70.58,22.79-143.85,22.79-143.85-14.62,32.23-39.35,101.73-18.33,168.16Z"/>
                <path class="cls-48" d="M132.9,548.3c2.14,2.68,9.13,3.04,12.78,2.79,10.46-.73,15.75-6.43,20.73-2.79,6.09,4.45,10.52,10.04,18.89,8.69,7.14-1.16-4.54,.21-10.68-4.46-8.27-6.29-7.65-7.57-13.47-6.86-5.82,.72-14.75,5.02-24.87,1.99-4.27-1.28-5.18-1.62-3.37,.64Z"/>
                <g>
                  <path class="cls-38" d="M162.9,549.95c-2.7-.92-7.59,2.36-17.5,3.96,7.33-.87,14.79-3.61,17.97-2.02,4.9,2.45,9.68,7.87,19.02,7.96-9.08-.72-17.87-9.35-19.5-9.9Z"/>
                  <path class="cls-38" d="M222.18,550.05c-2.51,.18-7.34,.28-12.3-.97-7.17-1.81-8.13-.96-13.82,4.73-5.13,5.13-11.97,5.94-13.26,6.05,.88,0,1.78-.04,2.74-.15,11.48-1.28,11.8-11.32,21.52-10.04,3.44,.45,9.83,.96,15.12,.39Z"/>
                </g>
                <path class="cls-58" d="M386.26,513.8c-25.46,13.61-80.18-27.62-77.76-39.88,2.43-12.26,18.9-11.98,22.01-17.58,3.11-5.59,3.9-14.28,14.66-20.01,10.76-5.73,17.03,2.84,24.74-4.07,7.72-6.91,23.66-22.2,30.48,21.62,6.55,42.08-2.17,53.52-14.14,59.92Z"/>
                <path class="cls-19" d="M400.4,453.88c-3.54-22.74-9.54-29.55-15.56-29.89-6.42,4.45-14.32,10.46-2.58,5.71,17.45-7.06,17.62,63.46,3.59,74.09-17.81,13.49-54.85-8.5-65.26-18.49-10.42-9.99-2.77-17.23-2.77-17.23-3.71,.66-6.28,4.9-8.06,10.98,8.31,15.73,53.93,46.82,76.51,34.74,11.96-6.4,20.69-17.84,14.14-59.92Z"/>
                <path class="cls-56" d="M369.91,432.26c-7.72,6.91-13.98-1.66-24.74,4.07-10.76,5.73-11.55,14.42-14.66,20.01-3.11,5.59-19.59,5.32-22.01,17.58-1.15,5.83,10.64,18.23,26.06,28.15h0s-24.52-17.2-20.78-27.91c3.74-10.71,14.14-8.85,20.78-13.74,6.64-4.89,1.11-15.73,10.89-21.47,9.78-5.74,16.85,3.16,25.35-1.31,8.5-4.46,11.32-11.13,19.4-8.79,9.36,2.71,12.16,48.14,12.42,51.71,.12-7.18-.55-15.93-2.22-26.69-6.82-43.82-22.77-28.53-30.48-21.62Z"/>
                <path class="cls-38" d="M330.51,456.34c-2.29,4.12-11.84,5.06-17.67,10.17h0s5.83-4.07,14.65-5.34c8.79-1.27,2.81-6.56,9.19-17.54-3.17,4.46-4.21,9.19-6.16,12.71Z"/>
                <path class="cls-38" d="M371.52,433.19c2.95-3.43,5.42-6.78,10.44-8.85,.13-.05,.21-.09,.29-.13-4.7,1.04-9.2,5.24-12.34,8.05-6.2,5.55-11.47,1.11-18.89,2.13,.11,0,5.96,.25,10.94,1.75,5.02,1.51,6.62,.48,9.57-2.95Z"/>
                <path class="cls-48" d="M346.47,452.62c-1.86,3.37-1.66,7.28-6.44,11.58-4.78,4.3-20.57,6.54-16.42,13.07,3.8,6,32.53,4.46,50.54-9.09,18.02-13.55,15.94-36.19,8.93-30.61-7.02,5.58-9.75,7.17-16.44,7.97-6.7,.8-15.25-1.82-20.16,7.07Z"/>
              </g>
              <g>
                <path class="cls-37" d="M233.16,61.35s-9.19-6.04-4.18-17.85c4.36-10.28,22.04-8.16,24.58-3.56,0,0-.1-5.67-13.06-6.16-12.97-.49-34.46,15.15-12.53,28.53,0,0-14.87-3.3-18.23,4.6-3.35,7.9,18.44-2.67,18.44-2.67,0,0-11.03,9.86-7.12,13.92,3.91,4.06,10.27-14.67,10.27-14.67,0,0,15.23-1.23,14.66-6.35-.58-5.12-12.83,4.21-12.83,4.21Z"/>
                <path d="M226.04,45.2c-5.58,11.9,7.12,16.15,7.12,16.15,0,0-9.19-6.04-4.18-17.85,2.97-7.01,12.13-8.25,18.47-6.88h0s-15.28-4.5-21.41,8.58Z"/>
                <path class="cls-26" d="M237.48,58.41c2.08-1.19,4.99-2.49,6.38-1.47,2.28,1.68-1.06,3.95-1.1,3.98,2-.93,3.4-2.16,3.22-3.78-.35-3.08-4.91-.93-8.5,1.27Z"/>
                <path class="cls-26" d="M227.65,72.37c-1.5,2.86-4.98,6.74-6.56,4.06-1.47-2.49,2.56-7.42,3.63-8.65-2.85,3.24-6.05,7.89-3.66,10.38,1.95,2.03,4.51-1.62,6.59-5.79Z"/>
                <path class="cls-26" d="M213.53,69.64c-1.6,.13-3.01-.39-2.16-2.32,2.95-6.65,16.39-5.06,16.4-5.06-1.74-.35-14.9-2.73-18.03,4.64-1.18,2.79,.77,3.27,3.79,2.73Z"/>
                <path class="cls-26" d="M224.11,41.29c6.16-7.35,17.43-7.45,17.64-7.45-.4-.03-.82-.05-1.25-.07-11.92-.45-31.02,12.73-16.98,25.26-1.93-2.6-5.57-10.38,.6-17.74Z"/>
              </g>
            </g>
          </g>
          <g>
            <g>
              <path class="cls-39" d="M343.21,335.13s8.91,1.09,6.53,9.56c-2.38,8.46-11.77,2.59-11.77,2.59l-3.14-28.7s16.55-8.38,27.93,1.96c11.37,10.34,18.78,56.92-25.94,52.98l.93-9.79s26.2,2.8,24.8-21.17c-1.4-23.97-20.49-15.72-20.49-15.72l1.15,8.3Z"/>
              <path class="cls-16" d="M359.67,331.39c1.5,2.57,2.58,6.16,2.87,11.17,1.07,18.38-14.07,21.02-21.2,21.25h0s8.9,6.22,17.08,3.89c8.18-2.33,11.32-14.98,10.76-21.6-.57-6.62,.34-7.74,1.96-5.34-.59-5.19-2.06-10.09-3.99-13.98l-3.61-.37-3.87,4.99Z"/>
              <path class="cls-36" d="M361.7,330.2c-5.79-10.1-19.64-3.37-19.64-3.37,0,0,19.09-8.25,20.49,15.72,1.14,19.67-16.27,21.31-22.57,21.27l-.19,.18s8.47,2.51,17.62-1.98c9.15-4.48,10.1-21.74,4.3-31.84Z"/>
              <path class="cls-39" d="M238.29,315.84s-23.04,89.91,52.73,87.06c75.78-2.85,41.87-93.09,41.87-93.09l-94.6,6.03Z"/>
              <path class="cls-16" d="M308.22,395.28c-10.85,6.42-21.83,7.96-31.98,6.88,4.45,.68,9.37,.95,14.79,.75,75.78-2.85,41.87-93.09,41.87-93.09l-1.57,.1-7.53,3.82s22.64,58.95-15.57,81.55Z"/>
              <g class="cls-12">
                <path class="cls-63" d="M284.5,402.41c-2.8,.13-5.56,.03-8.27-.26,1.7,.26,3.49,.44,5.32,.58,.98-.07,1.96-.19,2.95-.32Z"/>
                <path class="cls-30" d="M332.89,309.81l-1.57,.1-2.63,1.33c3.33,9.6,27.06,83.98-35.2,91.52,72.54-4.72,39.4-92.95,39.4-92.95Z"/>
              </g>
              <path class="cls-46" d="M240.78,329.5c-2.57,25.54,3.68,57.64,26.55,66.11,42.92,15.91,56.92-28.94,50.48-49.81-6.44-20.88-76.17-24.9-77.03-16.3Z"/>
              <path class="cls-59" d="M246.33,361.59c.01,.25,.24,.45,.49,.44,1.25-.05,1.9-.07,3.22-.12-.81,.7-1.2,1.03-1.96,1.66-.19,.16-.19,.45,0,.65,.11,.12,.26,.18,.4,.18,.1,0,.2-.03,.28-.09,1.1-.91,1.68-1.4,2.9-2.46,1.37-.06,2.07-.08,3.51-.14-1.69,1.48-2.5,2.18-4,3.42-.19,.16-.19,.46,.01,.68,.2,.22,.52,.27,.71,.11,1.72-1.41,2.67-2.22,4.65-3.96,.87,1.6,1.34,2.42,2.3,4.06,.09,.15,.24,.26,.4,.3,.04,.01,.09,.02,.13,.02,.12,0,.24-.04,.33-.11,2.15-1.82,3.31-2.84,5.69-4.94,0,0,.01-.02,.02-.02,.2,0,.3-.01,.5-.02,1.37,2.13,2.08,3.22,3.51,5.36-.36,.4-.54,.6-.9,1-.01,0-.02,0-.03,0-3.13,.44-4.65,.63-7.57,.91-.16,.02-.3,.1-.37,.24-.07,.14-.06,.31,.02,.47,.85,1.71,1.29,2.56,2.17,4.26-2.57,.12-3.81,.13-6.17,.05-.26,0-.39,.2-.28,.46,.1,.25,.36,.46,.61,.5,.02,0,.04,0,.06,0,2.01,.11,3.07,.12,5.25,.07-.82,.9-1.2,1.32-1.91,2.09-1.55-.07-2.3-.13-3.74-.3-.25-.03-.35,.15-.23,.4,.11,.23,.38,.45,.61,.51,.02,0,.04,0,.06,.01,.97,.14,1.47,.19,2.49,.28-.65,.71-.94,1.03-1.47,1.6-.11,.12,0,.39,.25,.61,.12,.11,.26,.19,.37,.23,.12,.04,.21,.03,.27-.03,.57-.62,.89-.97,1.6-1.75,.2,1.13,.31,1.68,.57,2.75,.06,.24,.32,.51,.58,.61,.02,0,.04,.01,.06,.02,.23,.06,.37-.06,.32-.28-.32-1.48-.46-2.25-.68-3.85,0-.04-.03-.09-.04-.13,.73-.8,1.12-1.23,1.95-2.14,.16,2.32,.27,3.43,.59,5.55,.04,.26,.3,.53,.57,.61,.02,0,.04,.01,.06,.01,.24,.04,.41-.1,.38-.34-.31-2.33-.42-3.56-.54-6.12,1.78,.71,2.68,1.07,4.47,1.74,.17,.06,.34,.05,.47-.03,.13-.08,.21-.22,.21-.39,0-2.92,.02-4.45,.14-7.6,0-.11-.03-.22-.09-.31,.23-.26,.35-.39,.59-.65,.59,.89,.89,1.33,1.48,2.2,1.91-.04,2.89-.08,4.83-.17,.03,.47,.04,.7,.06,1.16-.1,.04-.19,.1-.26,.19-1.85,2.59-2.75,3.84-4.36,6.16-.09,.13-.11,.3-.05,.46,.06,.16,.18,.3,.34,.37,1.74,.79,2.61,1.17,4.31,1.87-1.53,2.15-2.26,3.17-3.52,5.03-.14,.21-.06,.52,.18,.7,.1,.08,.21,.11,.32,.12,.15,0,.29-.05,.37-.17,1.17-1.72,1.84-2.65,3.24-4.62,.08,1.46,.12,2.17,.21,3.56-.04,.03-.07,.06-.1,.09-.98,1.38-1.45,2.05-2.29,3.28-.14,.2-.06,.5,.16,.67,.09,.07,.2,.11,.3,.11,.14,0,.27-.06,.35-.18,.63-.91,.96-1.39,1.66-2.39,.09,1.43,.13,2.13,.21,3.48,.02,.26,.23,.46,.48,.44,.25-.01,.45-.24,.44-.49-.05-1.25-.07-1.89-.12-3.22,.7,.81,1.03,1.2,1.66,1.96,.09,.11,.23,.16,.36,.14,.1-.01,.2-.06,.28-.14,.2-.19,.25-.49,.09-.68-.91-1.1-1.4-1.68-2.46-2.9-.06-1.37-.08-2.07-.14-3.51,1.48,1.69,2.18,2.5,3.42,4,.09,.11,.23,.16,.38,.14,.1-.02,.21-.07,.3-.15,.22-.2,.27-.52,.11-.71-1.41-1.72-2.22-2.67-3.96-4.65,1.6-.87,2.42-1.34,4.06-2.3,.15-.09,.26-.24,.3-.4,.04-.17,0-.33-.1-.45-1.82-2.15-2.84-3.31-4.94-5.69,0,0-.02-.01-.02-.02-.03-.53-.04-.79-.06-1.32,1.89-.11,2.83-.17,4.68-.32,.43-.81,.65-1.22,1.08-2.04,.26,.23,.39,.35,.64,.58,0,0,0,.02,0,.03,.44,3.13,.63,4.65,.91,7.57,.02,.16,.1,.3,.24,.37,.14,.07,.31,.06,.47-.02,1.71-.85,2.56-1.29,4.26-2.17,.12,2.57,.13,3.81,.05,6.17,0,.24,.17,.37,.4,.3,.02,0,.04-.01,.06-.02,.27-.11,.49-.41,.51-.67,.11-2.01,.12-3.07,.06-5.25,.9,.82,1.32,1.2,2.09,1.91-.07,1.55-.13,2.3-.3,3.74-.03,.23,.12,.33,.35,.25,.02,0,.04-.01,.06-.02,.25-.12,.48-.42,.52-.66,.14-.97,.19-1.47,.28-2.49,.71,.65,1.03,.94,1.6,1.47,.06,.05,.16,.05,.27,0s.23-.14,.35-.26c.22-.25,.31-.53,.19-.64-.62-.57-.97-.89-1.75-1.6,1.13-.2,1.68-.31,2.75-.57,.02,0,.04,0,.05-.02,.22-.08,.46-.32,.56-.57,.1-.26-.02-.43-.26-.38-1.48,.32-2.25,.46-3.85,.68-.05,0-.09,.03-.14,.04-.8-.73-1.23-1.12-2.14-1.95,2.32-.16,3.43-.27,5.55-.59,.02,0,.04,0,.06-.01,.24-.07,.48-.3,.56-.56,.08-.28-.06-.47-.33-.44-2.33,.31-3.56,.42-6.12,.54,.71-1.78,1.07-2.68,1.74-4.48,.06-.17,.05-.34-.03-.47-.08-.13-.22-.21-.39-.21-2.92,0-4.45-.02-7.6-.14-.12,0-.22,.03-.32,.09-.3-.27-.45-.41-.75-.68,1.26-2.4,1.89-3.63,3.09-6.02,.15,0,.23-.01,.37-.02,0,0,.01,.02,.02,.02,2.59,1.85,3.84,2.75,6.16,4.37,.1,.07,.21,.09,.33,.08,.04,0,.08-.01,.13-.03,.16-.06,.3-.18,.37-.34,.79-1.74,1.17-2.61,1.87-4.31,2.15,1.54,3.17,2.26,5.02,3.52,.21,.14,.52,.06,.7-.18,.18-.24,.15-.54-.05-.69-1.61-1.1-2.49-1.73-4.33-3.03,1.43-.09,2.14-.13,3.5-.22,1.32,.93,1.95,1.38,3.14,2.19,.09,.06,.19,.08,.29,.07,.14-.02,.28-.1,.38-.23,.17-.22,.14-.52-.07-.66-.81-.56-1.24-.86-2.11-1.47,1.32-.08,1.96-.13,3.21-.21,.26-.02,.46-.24,.45-.49-.01-.25-.23-.44-.49-.43-1.35,.06-2.05,.09-3.48,.15,.92-.79,1.36-1.17,2.21-1.87,.19-.16,.19-.45,0-.65-.19-.2-.49-.25-.68-.09-1.15,.94-1.76,1.47-3.03,2.57-.04,.03-.06,.07-.08,.11-1.39,.06-2.11,.09-3.56,.16,1.81-1.59,2.68-2.34,4.27-3.65,.19-.16,.19-.46-.01-.68-.2-.22-.52-.27-.71-.11-1.72,1.41-2.67,2.22-4.65,3.96-.87-1.6-1.34-2.42-2.3-4.06-.09-.15-.24-.26-.4-.3-.17-.04-.33,0-.45,.1-2.15,1.82-3.3,2.84-5.69,4.94-.09,.08-.13,.18-.16,.28-.15,0-.23,.01-.38,.02-1.45-2.27-2.21-3.43-3.73-5.7,.35-.38,.52-.58,.86-.95,.08,.04,.16,.06,.25,.06,.02,0,.05,0,.07,0,3.13-.44,4.65-.63,7.57-.91,.16-.02,.3-.1,.37-.24,.07-.14,.06-.31-.02-.47-.85-1.71-1.29-2.56-2.17-4.26,2.57-.12,3.81-.13,6.17-.05,.26,0,.39-.2,.28-.46-.11-.26-.4-.5-.67-.51-2.14-.12-3.27-.12-5.6-.06,.83-.92,1.23-1.35,1.95-2.14,.03,0,.05,.02,.08,.03,.02,0,.04,0,.06,0,1.62,.07,2.4,.13,3.91,.31,.25,.03,.35-.15,.23-.4-.12-.25-.41-.49-.66-.52-1.09-.15-1.65-.22-2.8-.31,.71-.78,1.03-1.13,1.6-1.74,.11-.12,0-.39-.25-.61s-.53-.31-.64-.19c-.52,.57-.82,.9-1.47,1.6-.18-1-.29-1.49-.51-2.44-.06-.24-.32-.51-.58-.61-.27-.1-.43,.02-.38,.26,.31,1.42,.44,2.16,.66,3.68-.71,.78-1.09,1.2-1.91,2.09-.16-2.17-.27-3.21-.57-5.2-.04-.26-.3-.53-.57-.61-.28-.09-.47,.06-.44,.33,.31,2.33,.42,3.56,.54,6.12-1.78-.71-2.68-1.07-4.48-1.74-.17-.06-.34-.05-.47,.03-.13,.08-.21,.22-.21,.39,0,2.92-.02,4.45-.14,7.6,0,.01,0,.02,0,.03-.3,.33-.46,.5-.76,.84-.42-.63-.64-.95-1.06-1.58-1.87,.04-2.82,.08-4.72,.17-.04-.75-.06-1.12-.11-1.87,0,0,.02-.01,.02-.02,1.85-2.59,2.75-3.84,4.36-6.16,.09-.13,.11-.3,.05-.46-.06-.16-.18-.3-.34-.37-1.74-.79-2.61-1.17-4.31-1.87,1.53-2.15,2.26-3.17,3.52-5.03,.14-.21,.06-.52-.18-.7-.24-.18-.54-.16-.69,.05-1.1,1.61-1.73,2.49-3.03,4.33-.09-1.43-.13-2.13-.22-3.5,.93-1.32,1.38-1.95,2.19-3.14,.14-.2,.06-.5-.16-.67-.22-.17-.52-.14-.66,.07-.56,.81-.86,1.24-1.47,2.11-.08-1.32-.13-1.96-.21-3.21-.02-.26-.24-.46-.49-.45-.25,.01-.44,.23-.43,.49,.06,1.35,.09,2.05,.15,3.48-.79-.92-1.17-1.36-1.87-2.21-.16-.19-.44-.19-.65,0-.2,.19-.25,.49-.09,.68,.94,1.15,1.46,1.76,2.57,3.03,.03,.04,.07,.05,.11,.08,.06,1.39,.09,2.11,.16,3.57-1.59-1.81-2.34-2.68-3.65-4.27-.16-.19-.46-.19-.68,.01-.22,.2-.27,.52-.11,.71,1.41,1.72,2.22,2.67,3.96,4.65-1.6,.87-2.42,1.34-4.06,2.3-.15,.09-.26,.24-.3,.4-.04,.17,0,.33,.1,.45,1.82,2.15,2.84,3.31,4.94,5.69,.08,.09,.18,.14,.28,.17,.03,.68,.05,1.02,.08,1.7-1.94,.11-2.91,.17-4.82,.32-.42,.79-.63,1.19-1.05,1.99-.34-.31-.52-.47-.85-.77,.04-.1,.07-.21,.06-.32-.44-3.13-.63-4.65-.91-7.57-.02-.16-.1-.3-.24-.37-.14-.07-.31-.06-.47,.02-1.71,.85-2.56,1.29-4.26,2.17-.12-2.57-.13-3.81-.05-6.17,0-.26-.19-.4-.46-.28-.26,.11-.49,.41-.51,.67-.12,2.14-.12,3.27-.06,5.6-.92-.83-1.35-1.23-2.14-1.95,.01-.05,.03-.09,.03-.14,.07-1.62,.13-2.4,.31-3.91,.03-.25-.14-.36-.4-.23-.25,.12-.48,.42-.52,.66-.15,1.09-.21,1.65-.3,2.8-.78-.71-1.13-1.03-1.74-1.6-.12-.11-.39,0-.61,.25-.22,.25-.31,.53-.19,.64,.57,.52,.9,.82,1.6,1.47-1,.18-1.49,.29-2.44,.51-.24,.05-.51,.32-.61,.58-.1,.26,.02,.43,.26,.38,1.42-.31,2.16-.44,3.68-.66,.78,.71,1.2,1.09,2.09,1.91-2.17,.16-3.21,.27-5.2,.57-.26,.03-.53,.3-.61,.57-.08,.28,.06,.47,.33,.44,2.33-.31,3.56-.42,6.12-.54-.71,1.78-1.07,2.68-1.74,4.47-.06,.17-.05,.34,.03,.47,.08,.13,.22,.21,.39,.21,2.92-.01,4.45,.02,7.6,.14,.01,0,.02,0,.03,0,.47,.43,.71,.65,1.2,1.08-1.2,2.3-1.81,3.48-2.95,5.77-.2,.01-.3,.02-.51,.03-.04-.1-.1-.19-.19-.26-2.59-1.85-3.84-2.75-6.16-4.37-.13-.09-.3-.11-.46-.05-.16,.06-.3,.18-.37,.34-.79,1.74-1.17,2.61-1.87,4.31-2.15-1.54-3.17-2.26-5.03-3.52-.21-.14-.52-.06-.7,.18-.18,.24-.15,.54,.05,.69,1.72,1.17,2.65,1.84,4.62,3.24-1.46,.08-2.17,.12-3.56,.21-.03-.04-.05-.07-.09-.1-1.38-.98-2.05-1.45-3.28-2.29-.2-.14-.5-.06-.67,.16-.17,.22-.14,.52,.07,.66,.91,.63,1.39,.96,2.39,1.66-1.43,.08-2.13,.13-3.48,.21-.26,.02-.46,.23-.44,.48Zm16.03-13.36c1.51,1.38,2.34,2.13,4.06,3.7-2.24-.06-3.33-.07-5.45-.05,.54-1.46,.82-2.2,1.38-3.65Zm5.09,2.99c-1.86-1.68-2.74-2.49-4.36-3.95,1.48-.76,2.22-1.13,3.71-1.86,.2,2.26,.33,3.43,.64,5.82Zm7.49-10.22c.11,2.47,.17,3.74,.3,6.36-1.61-1.82-2.4-2.71-3.84-4.39,1.43-.82,2.14-1.21,3.54-1.97Zm1.47,5.99c-.14-2.44-.21-3.63-.35-5.94,1.38,.57,2.09,.87,3.51,1.49-1.2,1.7-1.84,2.6-3.16,4.45Zm11.66-1.1c-1.38,1.51-2.13,2.34-3.7,4.06,.06-2.24,.07-3.33,.05-5.45,1.46,.54,2.2,.82,3.65,1.38Zm-2.99,5.09c1.68-1.86,2.48-2.74,3.95-4.36,.76,1.48,1.13,2.22,1.86,3.71-2.26,.2-3.43,.33-5.81,.64Zm5.23,20.87c-1.61-1.47-2.5-2.27-4.35-3.96,2.4,.07,3.57,.08,5.84,.06-.58,1.57-.88,2.35-1.48,3.9Zm-4.95-2.86c1.73,1.57,2.55,2.31,4.07,3.69-1.38,.71-2.08,1.06-3.48,1.74-.19-2.11-.31-3.2-.59-5.43Zm-7.32,9.71c-.1-2.31-.15-3.5-.27-5.94,1.5,1.7,2.23,2.53,3.58,4.1-1.33,.76-2,1.14-3.31,1.84Zm-1.46-6.19c.15,2.61,.22,3.89,.36,6.36-1.47-.6-2.24-.92-3.75-1.59,1.28-1.82,1.98-2.78,3.39-4.77Zm-12.14,1.32c1.47-1.61,2.27-2.5,3.96-4.35-.07,2.4-.08,3.57-.06,5.84-1.57-.58-2.35-.88-3.9-1.48Zm2.86-4.95c-1.57,1.73-2.31,2.55-3.69,4.07-.71-1.38-1.06-2.08-1.74-3.48,2.11-.19,3.2-.31,5.43-.59Zm-3.52-8.78c-2.61,.15-3.89,.22-6.36,.36,.6-1.47,.92-2.24,1.59-3.75,1.82,1.28,2.78,1.98,4.76,3.39Zm31.53-1.64c-2.47,.11-3.74,.17-6.36,.3,1.82-1.61,2.71-2.4,4.39-3.84,.82,1.43,1.21,2.14,1.97,3.54Zm-5.99,1.47c2.44-.14,3.63-.21,5.94-.35-.57,1.38-.87,2.1-1.49,3.51-1.7-1.2-2.6-1.85-4.44-3.17Zm-21.42,1.06c.16-.12,.26-.3,.25-.51,0-.16-.08-.3-.18-.4,1.45-2.89,2.22-4.38,3.72-7.26,3.46-.24,5.28-.34,8.75-.46,1.79,2.68,2.69,4.05,4.42,6.75-.14,.12-.23,.29-.22,.49,.01,.25,.18,.46,.4,.54-1.48,2.96-2.27,4.48-3.81,7.41-3.45,.25-5.26,.35-8.73,.46-1.86-2.78-2.81-4.21-4.61-7.01Zm-10.3,.58c2.31-.1,3.5-.15,5.94-.27-1.7,1.5-2.53,2.23-4.1,3.58-.76-1.33-1.14-2-1.84-3.31Z"/>
              <path class="cls-30" d="M238.29,315.84s48.6,16.28,94.6-6.03c0,0-55.45-8.74-94.6,6.03Z"/>
              <path class="cls-36" d="M243.34,317.26c12.9,3.25,48.58,9.85,83.95-4.93-14.06-1.65-52.88-4.88-83.95,4.93Z"/>
              <path class="cls-64" d="M320.82,314.79c-16.2-1.44-45.3-2.61-70.79,3.95,15.04,2.96,42.55,5.85,70.79-3.95Z"/>
              <path class="cls-5" d="M245.68,360.61c.01,.25,.24,.45,.49,.44,1.25-.05,1.9-.07,3.22-.12-.81,.7-1.2,1.03-1.96,1.66-.19,.16-.19,.45,0,.65,.11,.12,.26,.18,.4,.18,.1,0,.2-.03,.28-.09,1.1-.91,1.68-1.4,2.9-2.46,1.37-.06,2.07-.08,3.51-.14-1.69,1.48-2.5,2.18-4,3.42-.19,.16-.19,.46,.01,.68,.2,.22,.52,.27,.71,.11,1.72-1.41,2.67-2.22,4.65-3.96,.87,1.6,1.34,2.42,2.3,4.06,.09,.15,.24,.26,.4,.3,.04,.01,.09,.02,.13,.02,.12,0,.24-.04,.33-.11,2.15-1.82,3.31-2.84,5.69-4.94,0,0,.01-.02,.02-.02,.2,0,.3-.01,.5-.02,1.37,2.13,2.08,3.22,3.51,5.36-.36,.4-.54,.6-.9,1-.01,0-.02,0-.03,0-3.13,.44-4.65,.63-7.57,.91-.16,.02-.3,.1-.37,.24-.07,.14-.06,.31,.02,.47,.85,1.71,1.29,2.56,2.17,4.26-2.57,.12-3.81,.13-6.17,.05-.26,0-.39,.2-.28,.46,.1,.25,.36,.46,.61,.5,.02,0,.04,0,.06,0,2.01,.11,3.07,.12,5.25,.07-.82,.9-1.2,1.32-1.91,2.09-1.55-.07-2.3-.13-3.74-.3-.25-.03-.35,.15-.23,.4,.11,.23,.38,.45,.61,.51,.02,0,.04,0,.06,.01,.97,.14,1.47,.19,2.49,.28-.65,.71-.94,1.03-1.47,1.6-.11,.12,0,.39,.25,.61,.12,.11,.26,.19,.37,.23,.12,.04,.21,.03,.27-.03,.57-.62,.89-.97,1.6-1.75,.2,1.13,.31,1.68,.57,2.75,.06,.24,.32,.51,.58,.61,.02,0,.04,.01,.06,.02,.23,.06,.37-.06,.32-.28-.32-1.48-.46-2.25-.68-3.85,0-.04-.03-.09-.04-.13,.73-.8,1.12-1.23,1.95-2.14,.16,2.32,.27,3.43,.59,5.55,.04,.26,.3,.53,.57,.61,.02,0,.04,.01,.06,.01,.24,.04,.41-.1,.38-.34-.31-2.33-.42-3.56-.54-6.12,1.78,.71,2.68,1.07,4.47,1.74,.17,.06,.34,.05,.47-.03,.13-.08,.21-.22,.21-.39,0-2.92,.02-4.45,.14-7.6,0-.11-.03-.22-.09-.31,.23-.26,.35-.39,.59-.65,.59,.89,.89,1.33,1.48,2.2,1.91-.04,2.89-.08,4.83-.17,.03,.47,.04,.7,.06,1.16-.1,.04-.19,.1-.26,.19-1.85,2.59-2.75,3.84-4.36,6.16-.09,.13-.11,.3-.05,.46,.06,.16,.18,.3,.34,.37,1.74,.79,2.61,1.17,4.31,1.87-1.53,2.15-2.26,3.17-3.52,5.03-.14,.21-.06,.52,.18,.7,.1,.07,.21,.11,.32,.12,.15,0,.29-.05,.37-.17,1.17-1.72,1.84-2.65,3.24-4.62,.08,1.46,.12,2.17,.21,3.56-.04,.03-.07,.06-.1,.09-.98,1.38-1.45,2.05-2.29,3.28-.14,.2-.06,.5,.16,.67,.09,.07,.2,.11,.3,.11,.14,0,.27-.06,.35-.18,.63-.91,.96-1.39,1.66-2.39,.09,1.43,.13,2.13,.21,3.48,.02,.26,.23,.46,.48,.44s.45-.24,.44-.49c-.05-1.25-.07-1.89-.12-3.22,.7,.81,1.03,1.2,1.66,1.96,.09,.11,.23,.16,.36,.14,.1-.01,.2-.06,.28-.14,.2-.19,.25-.49,.09-.68-.91-1.1-1.4-1.68-2.46-2.9-.06-1.37-.08-2.07-.14-3.51,1.48,1.69,2.18,2.5,3.42,4,.09,.11,.23,.16,.38,.14,.1-.02,.21-.07,.3-.15,.22-.2,.27-.52,.11-.71-1.41-1.72-2.22-2.67-3.96-4.65,1.6-.87,2.42-1.34,4.06-2.3,.15-.09,.26-.24,.3-.4,.04-.17,0-.33-.1-.45-1.82-2.15-2.84-3.31-4.94-5.69,0,0-.02-.01-.02-.02-.03-.53-.04-.79-.06-1.32,1.89-.11,2.83-.17,4.68-.32,.43-.81,.65-1.22,1.08-2.04,.26,.23,.39,.35,.64,.58,0,0,0,.02,0,.03,.44,3.13,.63,4.65,.91,7.57,.02,.16,.1,.3,.24,.37,.14,.07,.31,.06,.47-.02,1.71-.85,2.56-1.29,4.26-2.17,.12,2.57,.13,3.81,.05,6.17,0,.24,.17,.37,.4,.3,.02,0,.04-.01,.06-.02,.27-.11,.49-.41,.51-.67,.11-2.01,.12-3.07,.06-5.25,.9,.82,1.32,1.2,2.09,1.91-.07,1.55-.13,2.3-.3,3.74-.03,.23,.12,.33,.35,.25,.02,0,.04-.01,.06-.02,.25-.12,.48-.42,.52-.66,.14-.97,.19-1.47,.28-2.49,.71,.65,1.03,.94,1.6,1.47,.06,.05,.16,.05,.27,0,.11-.05,.23-.14,.35-.26,.22-.25,.31-.53,.19-.64-.62-.57-.97-.89-1.75-1.6,1.13-.2,1.68-.31,2.75-.57,.02,0,.04,0,.05-.02,.22-.08,.47-.32,.55-.57,.1-.26-.02-.43-.26-.38-1.48,.32-2.25,.46-3.85,.68-.05,0-.09,.03-.14,.04-.8-.73-1.23-1.12-2.14-1.95,2.32-.16,3.43-.27,5.55-.59,.02,0,.04,0,.06-.01,.24-.07,.48-.3,.56-.56,.08-.28-.06-.47-.33-.44-2.33,.31-3.56,.42-6.12,.54,.71-1.78,1.07-2.68,1.74-4.48,.06-.16,.05-.34-.03-.47-.08-.13-.22-.21-.39-.21-2.92,0-4.45-.02-7.6-.14-.12,0-.22,.03-.32,.09-.3-.27-.45-.41-.75-.68,1.26-2.4,1.89-3.63,3.09-6.02,.15,0,.23-.01,.37-.02,0,0,.01,.02,.02,.02,2.59,1.85,3.84,2.75,6.16,4.37,.1,.07,.21,.09,.33,.08,.04,0,.08-.01,.13-.03,.16-.06,.3-.18,.37-.34,.79-1.74,1.17-2.61,1.87-4.31,2.15,1.54,3.17,2.26,5.02,3.52,.21,.14,.52,.06,.7-.18,.18-.24,.15-.54-.05-.69-1.61-1.1-2.49-1.73-4.33-3.03,1.43-.09,2.13-.13,3.5-.22,1.32,.93,1.95,1.38,3.14,2.19,.09,.06,.19,.08,.29,.07,.14-.02,.28-.1,.38-.23,.17-.22,.14-.52-.07-.66-.81-.56-1.24-.86-2.11-1.47,1.32-.08,1.96-.13,3.21-.21,.26-.02,.46-.23,.45-.49-.01-.25-.23-.44-.49-.43-1.35,.06-2.05,.09-3.48,.15,.92-.79,1.36-1.17,2.21-1.87,.19-.16,.19-.45,0-.65-.19-.2-.49-.25-.68-.09-1.15,.94-1.76,1.47-3.03,2.57-.04,.03-.06,.07-.08,.11-1.39,.06-2.11,.09-3.56,.16,1.81-1.59,2.68-2.34,4.27-3.65,.19-.16,.19-.46-.01-.68-.2-.22-.52-.27-.71-.11-1.72,1.41-2.67,2.22-4.65,3.96-.87-1.6-1.34-2.42-2.3-4.06-.09-.15-.24-.26-.4-.3-.17-.04-.33,0-.45,.1-2.15,1.82-3.3,2.84-5.69,4.94-.09,.08-.13,.18-.17,.28-.15,0-.23,.01-.38,.02-1.45-2.27-2.21-3.43-3.73-5.7,.35-.38,.52-.58,.86-.95,.08,.04,.16,.06,.25,.06,.02,0,.05,0,.07,0,3.13-.44,4.65-.63,7.57-.91,.16-.02,.3-.1,.37-.24,.07-.14,.06-.31-.02-.47-.85-1.71-1.29-2.56-2.17-4.26,2.57-.12,3.81-.13,6.17-.05,.26,0,.39-.2,.28-.46-.11-.26-.4-.5-.67-.51-2.14-.12-3.27-.12-5.6-.06,.83-.92,1.23-1.35,1.95-2.14,.03,0,.05,.02,.08,.02,.02,0,.04,0,.06,0,1.62,.07,2.4,.13,3.91,.31,.25,.03,.35-.15,.23-.4-.12-.25-.41-.49-.66-.52-1.09-.15-1.65-.22-2.8-.31,.71-.78,1.03-1.13,1.6-1.74,.11-.12,0-.39-.25-.61-.25-.22-.53-.31-.64-.19-.52,.57-.82,.9-1.47,1.6-.18-1-.29-1.49-.51-2.44-.06-.24-.32-.51-.58-.61-.27-.1-.43,.02-.38,.26,.31,1.42,.44,2.16,.66,3.68-.71,.78-1.09,1.2-1.91,2.09-.16-2.17-.27-3.21-.57-5.2-.04-.26-.3-.53-.57-.61-.28-.09-.47,.06-.44,.33,.31,2.33,.42,3.56,.54,6.12-1.78-.71-2.68-1.07-4.48-1.74-.17-.06-.34-.05-.47,.03-.13,.08-.21,.22-.21,.39,0,2.92-.02,4.45-.14,7.6,0,.01,0,.02,0,.03-.3,.33-.46,.5-.76,.84-.42-.63-.64-.95-1.06-1.58-1.87,.04-2.82,.08-4.72,.17-.04-.75-.06-1.12-.11-1.87,0,0,.02-.01,.02-.02,1.85-2.59,2.75-3.84,4.36-6.16,.09-.13,.11-.3,.05-.46-.06-.16-.18-.3-.34-.37-1.74-.79-2.61-1.17-4.31-1.87,1.54-2.15,2.26-3.17,3.52-5.03,.14-.21,.06-.52-.18-.7-.24-.18-.54-.15-.69,.05-1.1,1.61-1.73,2.49-3.03,4.33-.09-1.43-.13-2.13-.22-3.5,.93-1.32,1.38-1.95,2.19-3.14,.14-.2,.06-.5-.16-.67-.22-.17-.52-.14-.66,.07-.56,.81-.86,1.24-1.47,2.11-.08-1.32-.13-1.96-.21-3.21-.02-.26-.24-.46-.49-.45-.25,.01-.44,.23-.43,.49,.06,1.35,.09,2.05,.15,3.48-.79-.92-1.17-1.36-1.87-2.21-.16-.19-.45-.19-.65,0-.2,.19-.25,.49-.09,.68,.94,1.15,1.46,1.76,2.57,3.03,.03,.04,.07,.05,.11,.08,.06,1.39,.09,2.11,.16,3.57-1.59-1.81-2.34-2.68-3.65-4.27-.16-.19-.46-.19-.68,.01-.22,.2-.27,.52-.11,.71,1.41,1.72,2.22,2.67,3.96,4.65-1.6,.87-2.42,1.34-4.06,2.3-.15,.09-.26,.24-.3,.4-.04,.17,0,.33,.1,.45,1.82,2.15,2.84,3.31,4.94,5.69,.08,.09,.18,.14,.28,.17,.03,.68,.05,1.02,.08,1.7-1.94,.11-2.91,.17-4.82,.32-.42,.79-.63,1.19-1.05,1.99-.34-.31-.52-.47-.85-.77,.04-.1,.07-.21,.06-.32-.44-3.13-.63-4.65-.91-7.57-.02-.16-.1-.3-.24-.37-.14-.07-.31-.06-.47,.02-1.71,.85-2.56,1.29-4.26,2.17-.12-2.57-.13-3.81-.05-6.17,0-.26-.19-.4-.46-.28-.26,.11-.49,.41-.51,.67-.12,2.14-.13,3.27-.06,5.6-.92-.83-1.35-1.23-2.14-1.95,.01-.05,.03-.09,.03-.14,.07-1.62,.13-2.4,.31-3.91,.03-.25-.14-.36-.4-.23-.25,.12-.48,.42-.52,.66-.15,1.09-.21,1.65-.3,2.8-.78-.71-1.13-1.03-1.74-1.6-.12-.11-.39,0-.61,.25-.22,.25-.31,.53-.19,.64,.57,.52,.9,.82,1.6,1.47-1,.18-1.49,.29-2.44,.51-.24,.05-.51,.32-.61,.58-.1,.26,.02,.43,.26,.38,1.42-.31,2.16-.44,3.68-.66,.78,.71,1.2,1.09,2.09,1.91-2.17,.16-3.21,.27-5.2,.57-.26,.03-.53,.3-.61,.57-.08,.28,.06,.47,.33,.44,2.33-.31,3.56-.42,6.12-.54-.71,1.78-1.07,2.68-1.74,4.47-.06,.17-.05,.34,.03,.47,.08,.13,.22,.21,.39,.21,2.92,0,4.45,.02,7.6,.14,.01,0,.02,0,.03,0,.47,.43,.71,.65,1.2,1.08-1.2,2.3-1.81,3.48-2.95,5.77-.2,.01-.3,.02-.51,.03-.04-.1-.1-.19-.19-.26-2.59-1.85-3.84-2.75-6.16-4.37-.13-.09-.3-.11-.46-.05-.16,.06-.3,.18-.37,.34-.79,1.74-1.17,2.61-1.87,4.31-2.15-1.54-3.17-2.26-5.03-3.52-.21-.14-.52-.06-.7,.18-.18,.24-.16,.54,.05,.69,1.72,1.17,2.65,1.84,4.62,3.24-1.46,.08-2.17,.12-3.56,.21-.03-.04-.05-.07-.09-.1-1.38-.98-2.05-1.45-3.28-2.29-.2-.14-.5-.06-.67,.16-.17,.22-.14,.52,.07,.66,.91,.63,1.39,.96,2.39,1.66-1.43,.09-2.13,.13-3.48,.21-.26,.02-.46,.23-.44,.48Zm16.03-13.36c1.51,1.38,2.34,2.13,4.06,3.7-2.24-.06-3.33-.07-5.45-.05,.54-1.46,.82-2.2,1.38-3.65Zm5.09,2.99c-1.86-1.68-2.74-2.49-4.36-3.95,1.48-.76,2.22-1.13,3.71-1.86,.2,2.26,.33,3.43,.64,5.82Zm7.49-10.22c.11,2.47,.17,3.74,.3,6.36-1.61-1.82-2.4-2.71-3.84-4.4,1.43-.82,2.14-1.21,3.54-1.97Zm1.47,5.99c-.14-2.44-.21-3.63-.35-5.94,1.38,.57,2.09,.87,3.51,1.49-1.2,1.7-1.84,2.6-3.16,4.45Zm11.66-1.1c-1.38,1.51-2.13,2.34-3.7,4.06,.06-2.24,.07-3.33,.05-5.45,1.46,.54,2.2,.82,3.65,1.38Zm-2.99,5.09c1.68-1.86,2.48-2.74,3.95-4.36,.76,1.48,1.13,2.22,1.86,3.71-2.26,.2-3.43,.33-5.82,.64Zm5.23,20.87c-1.61-1.47-2.5-2.27-4.35-3.96,2.4,.07,3.57,.08,5.84,.06-.58,1.57-.88,2.35-1.48,3.9Zm-4.95-2.86c1.73,1.57,2.55,2.31,4.07,3.69-1.38,.71-2.08,1.06-3.48,1.74-.19-2.11-.31-3.2-.59-5.43Zm-7.32,9.71c-.1-2.31-.15-3.5-.27-5.94,1.5,1.7,2.23,2.53,3.58,4.1-1.33,.76-2,1.14-3.31,1.84Zm-1.46-6.19c.15,2.61,.22,3.89,.36,6.36-1.47-.6-2.24-.92-3.75-1.59,1.28-1.82,1.98-2.78,3.39-4.76Zm-12.14,1.32c1.47-1.61,2.27-2.5,3.96-4.35-.07,2.4-.08,3.57-.06,5.84-1.57-.58-2.35-.88-3.9-1.48Zm2.86-4.95c-1.56,1.73-2.31,2.55-3.69,4.07-.71-1.38-1.06-2.08-1.74-3.48,2.11-.19,3.2-.31,5.43-.59Zm-3.52-8.78c-2.61,.14-3.89,.22-6.36,.36,.6-1.47,.92-2.24,1.59-3.75,1.82,1.28,2.78,1.98,4.76,3.39Zm31.53-1.64c-2.47,.11-3.74,.17-6.36,.3,1.82-1.61,2.71-2.4,4.39-3.84,.82,1.43,1.21,2.14,1.97,3.54Zm-5.99,1.47c2.44-.14,3.63-.21,5.94-.35-.57,1.38-.87,2.1-1.49,3.51-1.7-1.2-2.6-1.85-4.44-3.17Zm-21.42,1.06c.16-.12,.26-.3,.25-.51,0-.16-.08-.3-.18-.4,1.45-2.89,2.22-4.38,3.72-7.26,3.46-.24,5.28-.34,8.75-.46,1.79,2.68,2.69,4.05,4.42,6.75-.14,.12-.23,.29-.22,.49,.01,.25,.18,.46,.4,.54-1.48,2.96-2.27,4.48-3.81,7.41-3.45,.25-5.26,.35-8.73,.46-1.86-2.78-2.81-4.21-4.61-7.01Zm-10.3,.58c2.31-.1,3.5-.15,5.94-.27-1.7,1.5-2.53,2.23-4.1,3.58-.76-1.33-1.14-2-1.84-3.31Z"/>
            </g>
            <path class="cls-6" d="M268.16,255.18s3.43,8.19-7.92,17.08c-8.51,6.67,3.81,13.48,12.25,20.67,8.44,7.19,1.53,25.55,1.53,25.55,0,0,15.47-19.15,6.46-27.83-9.02-8.68-14.72-11.57-10.06-19.89,4.66-8.32,4.54-10.84-2.26-15.58Z"/>
            <path class="cls-6" d="M288.26,273.45s-11.25,8.13-4.35,14.88c6.9,6.76,8.8,21.47,2.46,26.33,0,0,18.46-12.14,9.95-20.84-8.51-8.7-8.85-15.77-8.06-20.37Z"/>
          </g>
          <g>
            <g>
              <path class="cls-52" d="M166.19,285.82s9.8,4.05,9.4,5.25c-.4,1.2-2.8,2.78-6.2,2.29-3.4-.49-6.8-7.78-3.2-7.53Z"/>
              <path class="cls-14" d="M166.19,285.82s.27,.11,.69,.29c-2.31-.49-.19,3.39,.94,4.69,1.13,1.3,4.8,1.67,6.03,.73,1.23-.93-.29-2.23-.3-2.23,1.27,.73,2.16,1.39,2.03,1.76-.4,1.2-2.8,2.78-6.2,2.29-3.4-.49-6.8-7.78-3.2-7.53Z"/>
              <path class="cls-41" d="M168.32,286.99s3.57,1.25,3.05,2.22c-.52,.97-3,.65-3.55,.18-.55-.47-2.12-3.35,.5-2.4Z"/>
            </g>
            <g>
              <path class="cls-52" d="M161.99,343.68c1.91-.5,5.38,5.58,4.89,6.18-.49,.6-3.69,1.6-4.89,0-1.2-1.6-1.49-5.79,0-6.18Z"/>
              <path class="cls-14" d="M161.99,343.68c.2-.05,.42,0,.65,.08-1.74-.37-1.06,4.51,.07,5.62,1.15,1.12,3.4,.35,3.62,0,.21-.33-.07-1.38-.1-1.52,.51,.97,.81,1.79,.65,1.99-.49,.6-3.69,1.6-4.89,0-1.2-1.6-1.49-5.79,0-6.18Z"/>
              <path class="cls-41" d="M163.27,344.56s2.6,2.7,2.35,3.65-2.7-.7-2.92-1.82c-.22-1.12-.75-2.87,.57-1.82Z"/>
            </g>
            <g>
              <path class="cls-52" d="M120.79,397.9s.04,3.01,0,4.08c-.04,1.07-2.86,.44-3.55,0-.69-.44,3.54-6.15,3.55-4.08Z"/>
              <path class="cls-14" d="M120.18,397.58c-.76,.7-2.1,3.04-2.12,3.7-.02,.77,1.65,.92,2.09,.85,.71-.11,.65-1.86,.65-1.86,0,.67,0,1.33-.02,1.72-.04,1.07-2.86,.44-3.55,0-.53-.33,1.8-3.72,2.95-4.4Z"/>
              <path class="cls-41" d="M120.55,398.75s0,1.9-.26,2.54c-.26,.64-1.15,.13-.94-.49,.21-.62,1.13-3.97,1.2-2.05Z"/>
            </g>
            <g>
              <path class="cls-52" d="M202.45,332.83s1.7,.56,2.28,.82c.58,.26-.83,3.09-1.34,3.72-.5,.64-2.11-4.94-.94-4.54Z"/>
              <path class="cls-14" d="M202.05,333.4c.11,.94,.91,2.81,1.27,2.96,.42,.17,1.13-1.55,1.26-2.02,.2-.77-.79-1.05-.8-1.05,.38,.13,.74,.27,.95,.36,.58,.25-.83,3.09-1.34,3.72-.38,.48-1.4-2.63-1.35-3.97Z"/>
              <path class="cls-41" d="M202.84,333.25s1.06,.38,1.32,.79c.26,.4-.36,1.23-.63,.89-.27-.34-1.79-1.98-.69-1.67Z"/>
            </g>
          </g>
          <g>
            <path class="cls-20" d="M73.63,202.02c3.22,0,6.38,.29,9.45,.8,3.67,.64,7.62,19.08,11.97,19.08s7.79-.16,10.29,4.99c2.49,5.14,7.64,13.25,10.26,14.28,2.62,1.03,.65,3.49,2.21,5.18,1.56,1.69,7.17-.75,8.26-.75s2.55,.72,2.62,.75c.84,3.88,1.3,7.9,1.3,12.03,0,31.12-28.82,59.93-59.94,59.93s-59.94-28.81-59.94-59.93,32.4-56.35,63.52-56.35Z"/>
            <g>
              <path class="cls-52" d="M108.32,236.15c-1.98-2.25-2.2-5.15-3.77-8.2-1.57-3.06-4.94-3.3-4.94-3.3l-3.35-2.74c3.79,.02,6.82,.33,9.08,4.98,2.49,5.14,7.64,13.25,10.26,14.28,1.9,.75,1.4,2.24,1.56,3.65-2.11-.64-3.57-1.34-2.97-1.97,1.69-1.77-3.88-4.45-5.87-6.7Z"/>
              <path class="cls-52" d="M127.09,246.99s-1.66-.27-3.79-.69c1.26-.35,2.34-.7,2.76-.7,1.07,0,2.55,.72,2.62,.75,.84,3.88,1.3,7.9,1.3,12.03,0,3.41-.36,6.79-1.02,10.11,1.49-13.97-1.87-21.49-1.87-21.49Z"/>
              <path class="cls-52" d="M74.22,202.85c-3.23-.8-7.32-.46-10.12-.05,3.16-.5,6.35-.78,9.53-.78s6.38,.29,9.45,.81c2.55,.44,5.23,9.45,8.08,14.92l-14.53-11.86s3.01-1.69-2.42-3.03Z"/>
            </g>
            <path class="cls-11" d="M70.04,318.3c-10.92,0-21.56-3.56-30.77-9.51-7.14-16.92-20.29-48.28-26.96-64.41,6.22-19.39,24.72-34.73,45.27-40.2-3.5,3.22-6.9,8.16-8.74,15.8-4.77,19.86,55.33,95.63,77.08,57.99,.25-.44,.49-.84,.72-1.24-8.43,23.23-31.78,41.57-56.61,41.57Z"/>
            <g>
              <path class="cls-11" d="M103.12,253.15c1.44-4.94,11.2-10.43,13.25-11.54,1.42,1.18,.07,3.25,1.44,4.73,1.56,1.69,7.17-.75,8.26-.75s2.55,.72,2.62,.75c.01,.05,.02,.1,.03,.15-11.31,3.38-26.86,11-25.59,6.66Z"/>
              <path class="cls-11" d="M84.1,203.46c3.38,3.27,7,18.44,10.95,18.44,3.05,0,5.64-.04,7.77,1.68-6.03,1.43-8.23,4.76-8.23,4.76,0,0-26.38-4.25-22.84-15.03,3.44-10.48,11.89-9.89,12.35-9.85Z"/>
            </g>
            <path class="cls-52" d="M66.34,205.72c3.22,0,6.38,.29,9.45,.81,3.67,.64,7.62,19.08,11.97,19.08s7.79-.16,10.29,4.99c2.49,5.14,7.64,13.25,10.26,14.28,2.62,1.03,.65,3.49,2.21,5.18,1.56,1.69,7.17-.75,8.26-.75s2.55,.72,2.62,.75c.84,3.88,1.3,7.9,1.3,12.03,0,31.12-25.23,56.35-56.35,56.35s-56.36-25.23-56.36-56.35,25.23-56.35,56.36-56.35Z"/>
            <path class="cls-9" d="M44.85,283.59s.41,2.87,0,4.41-5.59-1.28-5.59-1.28c0,0,2.9-9.52,3.7-9.62,.8-.1,1.89,6.48,1.89,6.48Z"/>
            <path class="cls-43" d="M10.92,251.87c4.58,28.22,29.06,49.76,58.57,49.76,22.93,0,42.8-13.01,52.69-32.04-3.68,27.57-27.27,48.83-55.84,48.83-31.12,0-56.35-25.23-56.35-56.35,0-3.49,.33-6.89,.94-10.2Z"/>
            <path class="cls-8" d="M10.92,251.87c-4.68,33.28,26.91,57.29,57.66,57.29,23.87,0,44.27-14.5,52.78-35.05-5.52,25.34-28.04,44.32-55.03,44.32-31.12,0-56.35-25.23-56.35-56.35,0-3.49,.33-6.89,.94-10.2Z"/>
            <path class="cls-41" d="M75.79,206.52c3.67,.64,7.62,19.08,11.97,19.08s7.79-.16,10.29,4.99c2.49,5.14,7.64,13.25,10.26,14.28,2.62,1.03,.65,3.49,2.21,5.18,1.56,1.69,7.17-.75,8.26-.75s2.55,.72,2.62,.75c0,.04,.01,.07,.02,.11-4.88,18.89-23.59,32.97-45.99,32.97-26.1,0-47.27-19.11-47.27-42.69,0-10.8,4.47-20.63,11.79-28.15,7.87-4.18,16.85-6.56,26.38-6.56,3.22,0,6.38,.29,9.45,.81Z"/>
            <path class="cls-34" d="M41.81,240.51s7.51,5.98,7.43,7.53c-.08,1.55-11.98,5.09-14.32,4.2-2.33-.88-2.67-9.13-1.58-10.84,1.09-1.71,8.47-.89,8.47-.89Z"/>
            <path class="cls-9" d="M84.53,281.87s2.04,2.6,1.86,3.95c-.1,.72-3.68,5.47-5.77,5.55-1.71,.07-4.93-3.78-5.47-5.47-.54-1.69,1.67-5.47,1.67-5.47l7.71,1.44Z"/>
            <path class="cls-34" d="M109.62,260.16s2.35,3.82,2.03,5.51c-.32,1.69-6.19,3.3-6.92,3.3s-7.72-5.63-5.63-8.36,10.52-.44,10.52-.44Z"/>
            <path class="cls-34" d="M69.02,227.25s3.54,3.6,3.54,5.01-5.23,4.11-6.48,4.33c-1.24,.21-2.37-6.22-2.21-7.03,.16-.8,5.15-2.31,5.15-2.31Z"/>
            <path class="cls-23" d="M69.02,227.25s2.36,2.68,1.82,3.43c-.54,.75-4.01,4.83-5.17,4.61-1.16-.21-2.15-6.86-2.14-8.04,.01-1.18,4.59-1.12,5.48,0Z"/>
            <path class="cls-23" d="M39.74,238.83s7.23,5.63,8.17,7.91c.94,2.28-9.24,3.9-12.03,3.95-2.79,.05-3.79-8.11-2.54-9.29,1.25-1.17,4.04-3.53,6.4-2.57Z"/>
            <path class="cls-23" d="M79.3,277.11c2.65,.41,7.25,6.83,6.61,8.43-.64,1.6-4.02,4.64-5.79,4.41s-4.18-3.43-4.5-4.41c-.32-.97,1.88-8.7,3.69-8.43Z"/>
            <path class="cls-23" d="M101.38,259.15s5.06-1.12,7.1,0c2.04,1.12,2.47,4.13,2.04,5.09-.43,.97-4.21,2.91-5.97,2.64-1.76-.28-9.84-6.6-3.17-7.73Z"/>
            <path class="cls-23" d="M44.17,282.32s.41,2.87,0,4.41c-.41,1.54-4.91,0-4.91,0,0,0,2.9-9.52,3.7-9.62,.8-.1,1.21,5.21,1.21,5.21Z"/>
            <path class="cls-31" d="M103.76,259.71s3.38-.72,4.58,.45c1.21,1.16,1.73,2.69,0,3.58-1.73,.88-10.78-3.06-4.58-4.02Z"/>
            <path class="cls-31" d="M80.36,278.37s4.14,4.58,4.1,5.95c-.04,1.37-2.99,4.3-3.69,3.58-.7-.72-3.07-12.14-.42-9.53Z"/>
            <path class="cls-31" d="M43.49,281.7s.94,4.08,0,4.72c-.94,.64-2.63-.19-2.33-.62,.29-.43,1.58-9.52,2.33-4.1Z"/>
            <path class="cls-31" d="M39.34,239.93c2.08,.45,6.46,4.53,6.33,5.71-.13,1.18-12.44-2.01-12.06-3.35,.38-1.34,4.22-2.69,5.74-2.36Z"/>
            <path class="cls-31" d="M67.44,228.86s-1.26,4.56-1.58,4.28c-.32-.28-2.14-4.79-1.55-5.48,.59-.7,3.81-1.23,3.14,1.21Z"/>
            <path class="cls-10" d="M79.3,317.46s-7.95-5.07-10.28-7.96c-2.33-2.9,1.18-12.95,.47-12.23-.71,.72-2.34,11.1-2.57,11.86-.23,.77-5.14-2.77-5.86-2.85-.72-.08,16.43,11.18,16.43,11.18h1.81Z"/>
            <path class="cls-10" d="M74.79,254.45s-3.57,5.29-4.11,6.42c-.54,1.13,1.93,6.38,1.72,7.24-.21,.86-9.76,2.52-10.88,2.68-1.13,.16,8.74-2.88,9.01-3.91,.27-1.03-5.9-7.03-7.61-8.48-1.72-1.45,4.55,3.06,5.2,2.84,.65-.22,9.53-11.12,6.68-6.79Z"/>
            <path class="cls-10" d="M10.92,251.87s20.46,5.03,23.99,7.28c3.54,2.25,10.39,14.38,8.35,12.56-2.04-1.82-8.27-10.95-9.16-10.79-.88,.16-3.22,8.2-3.94,7.96-.72-.24,1.53-7.63,.24-8.68-1.29-1.05-19.49-8.33-19.49-8.33Z"/>
            <path class="cls-10" d="M122.18,257.04s-9.02,14.54-10.5,15.89c-1.48,1.35-9.68-.38-10.65,0-.97,.38,9.6,1.24,9.87,2.47,.27,1.23,.05,4.56,.27,4.13,.21-.43,11.01-22.49,11.01-22.49Z"/>
            <path class="cls-10" d="M78.78,225.82s-13.64-8.04-15.24-8.08-8.84,2.91-9.75,2.91,8.87-4.5,10.07-4.4c1.19,.11,18.78,10.83,14.92,9.57Z"/>
            <path class="cls-40" d="M75.79,206.52c3.67,.64,7.62,19.08,11.97,19.08s7.79-.16,10.29,4.99c2.49,5.14,7.64,13.25,10.26,14.28,2.62,1.03,.65,3.49,2.21,5.18,1.56,1.69,7.17-.75,8.26-.75,.39,0,.82,.1,1.24,.23-6.48,13.54-21.84,23.07-39.76,23.07-23.78,0-43.06-16.76-43.06-37.43,0-10.76,5.25-20.43,13.61-27.26,4.93-1.41,10.14-2.18,15.53-2.18,3.22,0,6.38,.29,9.45,.81Z"/>
            <path class="cls-42" d="M122.21,263.2c0-4.13-.46-8.15-1.3-12.03-.06-.03-1.55-.75-2.62-.75s-6.7,2.44-8.26,.75c-1.56-1.69,.41-4.14-2.21-5.18-2.62-1.03-7.76-9.14-10.26-14.28-2.49-5.14-5.92-4.99-10.29-4.99s-8.29-18.44-11.97-19.08c-3.08-.52-6.23-.81-9.45-.81-23.08,0-42.91,13.89-51.63,33.75,8.45-20.47,28.59-34.88,52.11-34.88,3.22,0,6.38,.29,9.45,.81,3.67,.64,7.62,19.08,11.97,19.08s7.79-.16,10.29,4.99c2.49,5.14,7.64,13.25,10.26,14.28,2.62,1.03,.65,3.49,2.21,5.18,1.56,1.69,7.17-.75,8.26-.75s2.55,.72,2.62,.75c.84,3.88,1.3,7.9,1.3,12.03,0,8.04-1.7,15.68-4.73,22.6,2.73-6.62,4.25-13.87,4.25-21.47Z"/>
          </g>
          <path class="cls-37" d="M1.09,242.76s12.94-24.54,27.94-6.42c15,18.12,7.11,61.23-13.97,67.96,0,0-18.44-35.76-13.97-61.55Z"/>
          <path class="cls-26" d="M29.02,236.34c-10.12-12.22-19.29-5.04-24.19,.93,5.2-4.81,12.95-8.04,21.34,2.11,11.98,14.48,9.34,44.9-2.95,59.98,14.68-13.6,18.66-47.48,5.8-63.02Z"/>
          <path class="cls-37" d="M349.97,323.68c-8,9.16-8.65,41.19,20.85,42.71,29.51,1.52,32.06-36.75,23.56-53.33-8.5-16.58-16.19-21.7-44.41,10.62Z"/>
          <path class="cls-26" d="M411.72,345.71c4.83-7.04,6.87-16.27,2.64-28.25-10.07-28.51-49.73-44.42-69.69-50.77,.04,.01,75.79,28.65,67.43,76.41-.16,.91-.28,1.77-.38,2.61Z"/>
          <path class="cls-51" d="M376.31,309.14s-32.25,11.72-30.05,38.86c0,0-7.79-18.77,14.11-34.72,0,0,9.03-15.63,9.35-14.67,.32,.96-4.94,11.15-2.71,11.08,2.23-.07,19.53-5.77,9.3-.54Z"/>
        </g>
      </g>
    </g>
  </g>
</svg>