<?xml version="1.0" encoding="UTF-8"?>
<svg id="Layer_2" data-name="Layer 2" xmlns="http://www.w3.org/2000/svg" viewBox="0 0 638.57 647.06">
  <defs>
    <style>
      .cls-1 {
        fill: #a07048;
      }

      .cls-2 {
        fill: #f9c262;
      }

      .cls-3 {
        fill: #fff;
      }

      .cls-4 {
        fill: #3f8e48;
      }

      .cls-5 {
        fill: #2d6c32;
      }

      .cls-6 {
        fill: #a36a43;
      }

      .cls-7 {
        fill: #f7523c;
      }

      .cls-8 {
        fill: #af7248;
      }

      .cls-9 {
        fill: #f13d1c;
      }

      .cls-10 {
        fill: #9d613a;
      }

      .cls-11 {
        fill: #f3efef;
      }

      .cls-12 {
        fill: #9f683c;
      }

      .cls-13 {
        fill: #4bb75d;
      }

      .cls-14 {
        fill: #eaeaea;
      }

      .cls-15 {
        fill: #47a554;
      }

      .cls-16 {
        fill: #44332b;
      }

      .cls-17 {
        opacity: .1;
      }

      .cls-18 {
        fill: #b27544;
      }

      .cls-19 {
        fill: #bf7c4f;
      }

      .cls-20 {
        fill: #ffbd39;
      }

      .cls-21 {
        fill: #ce8959;
      }

      .cls-22 {
        fill: #ed5b48;
      }

      .cls-23 {
        fill: #ececec;
      }

      .cls-24 {
        fill: #e03620;
      }

      .cls-25 {
        fill: #353332;
      }
    </style>
  </defs>
  <g id="Layer_1-2" data-name="Layer 1">
    <g>
      <ellipse class="cls-17" cx="285.96" cy="527.69" rx="297.18" ry="87.75" transform="translate(-138.54 103.39) rotate(-16.56)"/>
      <path class="cls-3" d="M596.6,316.19s-.75,1.23-2.19,3.57c-.72,1.17-1.62,2.62-2.68,4.33-.54,.85-1.09,1.79-1.74,2.75-.66,.95-1.36,1.97-2.1,3.05-5.79,8.73-15.03,20.85-27.81,34.7-12.74,13.89-29.3,29.19-48.91,44.66-9.84,7.68-20.4,15.49-31.7,23.04-1.41,.95-2.82,1.91-4.24,2.87-1.44,.93-2.88,1.87-4.33,2.81-2.91,1.87-5.83,3.77-8.8,5.63-5.98,3.67-12.04,7.41-18.3,10.98-12.47,7.22-24.86,13.89-37.02,19.93-6.05,3.09-12.1,5.9-17.99,8.72-5.94,2.71-11.74,5.42-17.47,7.87-22.85,10.01-43.91,17.89-61.76,23.94-17.85,6.07-32.51,10.3-42.67,13.03-5.08,1.39-9.05,2.37-11.74,3.03-2.69,.66-4.1,1-4.1,1,0,0,1.37-.49,3.99-1.43,2.62-.93,6.48-2.29,11.42-4.13,9.89-3.65,24.13-9.08,41.48-16.32,17.35-7.23,37.82-16.25,60.11-27.06,5.6-2.65,11.25-5.54,17.06-8.4,5.75-2.97,11.67-5.92,17.6-9.1,5.97-3.1,11.96-6.4,18.06-9.72,6.05-3.4,12.22-6.79,18.35-10.4,6.18-3.53,12.18-7.2,18.12-10.75,5.86-3.68,11.7-7.2,17.29-10.89,2.8-1.84,5.62-3.58,8.33-5.44,2.72-1.83,5.42-3.65,8.09-5.45,2.68-1.79,5.24-3.67,7.83-5.46,2.57-1.81,5.14-3.57,7.59-5.42,19.85-14.46,36.9-28.55,50.32-41.33,13.44-12.74,23.53-23.88,30.01-31.95,.83-.99,1.62-1.93,2.35-2.81,.73-.89,1.35-1.76,1.97-2.54,1.21-1.58,2.24-2.92,3.07-4.01,1.66-2.16,2.54-3.3,2.54-3.3Z"/>
      <path class="cls-3" d="M627.63,335.09s-.47,1.2-1.38,3.47c-.92,2.27-2.24,5.65-4.04,9.95-3.78,8.52-9.34,20.88-17.7,35.44-8.34,14.55-19.54,31.26-33.93,48.34-.9,1.07-1.78,2.16-2.71,3.23-.94,1.05-1.89,2.11-2.84,3.18-1.92,2.12-3.82,4.31-5.83,6.43-2.03,2.1-4.08,4.23-6.16,6.38-1.03,1.09-2.1,2.13-3.19,3.17-1.08,1.05-2.17,2.1-3.27,3.15-8.8,8.4-18.31,16.71-28.62,24.49-10.28,7.82-20.73,14.88-31.1,21.23-10.38,6.34-20.73,11.87-30.72,16.83-20.02,9.86-38.76,17.07-54.66,22.48-15.91,5.41-29.02,8.98-38.1,11.32-4.53,1.19-8.08,2.01-10.48,2.59-2.4,.56-3.66,.86-3.66,.86,0,0,1.22-.44,3.55-1.28,2.33-.84,5.77-2.05,10.16-3.7,8.8-3.25,21.5-8.04,36.86-14.6,3.84-1.64,7.86-3.37,12-5.26,4.17-1.83,8.43-3.88,12.87-5.95,8.81-4.27,18.18-8.9,27.78-14.22,9.61-5.3,19.55-11.09,29.56-17.52,10-6.45,20.1-13.49,30.11-21.12,10.03-7.6,19.39-15.56,28.12-23.56,4.42-3.95,8.53-8.06,12.62-12.03,2.01-2.02,3.94-4.07,5.89-6.06,.97-1,1.93-2,2.89-2.99,.93-1.02,1.85-2.03,2.76-3.04,14.71-16.04,26.68-31.65,35.93-45.3,9.29-13.64,15.89-25.27,20.48-33.29,4.38-8.15,6.8-12.65,6.8-12.65Z"/>
      <path class="cls-8" d="M474.07,415.28s-4.82,3.24-13.71,8.81c-8.9,5.55-21.86,13.46-38.2,22.65-16.35,9.18-36.06,19.68-58.43,30.41-22.36,10.74-47.41,21.68-74.38,31.55-26.97,9.88-53.32,17.71-77.73,23.25-3.06,.67-6.08,1.33-9.05,1.98-1.49,.32-2.97,.64-4.44,.95-1.47,.31-2.98,.56-4.44,.84-5.91,1.06-11.68,1.94-17.33,2.48-11.28,1.09-22.05,1.15-31.74-.71-4.83-.93-9.37-2.38-13.36-4.4-3.99-2.01-7.37-4.6-9.93-7.49-2.58-2.88-4.32-6.01-5.49-8.98-1.17-2.98-1.8-5.81-2.23-8.34-.72-5.12-.6-9.1-.44-11.79,.06-1.34,.2-2.37,.25-3.06,.07-.69,.1-1.04,.1-1.04,0,0,.04,.35,.11,1.04,.09,.68,.15,1.71,.35,3.02,.35,2.63,.98,6.52,2.5,11.12,1.6,4.52,4.16,9.83,9.02,13.73,2.41,1.96,5.35,3.56,8.78,4.71,3.43,1.15,7.35,1.84,11.61,2.1,8.53,.52,18.29-.64,28.67-2.73,5.2-1.04,10.57-2.38,16.09-3.88,2.75-.72,5.57-1.59,8.43-2.45,2.86-.85,5.75-1.72,8.69-2.59,23.43-7.13,48.93-15.93,75.51-25.68,26.59-9.75,51.77-19.46,74.6-28.48,22.84-9.01,43.34-17.28,60.56-24.26,34.41-14.08,55.64-22.77,55.64-22.77Z"/>
      <path class="cls-24" d="M375.06,422.81s-4.5,2.9-4.55-.15c-.05-3.05,23.18-110.77,24.43-113.53,1.26-2.76,3.44,1.16,3.44,1.16,0,0,2.86,1.16,2.93,4.14,.08,2.98-22.13,109.76-23.37,112.39-1.23,2.64-2.88-4.01-2.88-4.01Z"/>
      <path class="cls-24" d="M404.43,428.02s-4.5,2.75-4.55-.15c-.05-2.89,23.18-104.82,24.43-107.43,1.26-2.61,3.44,1.1,3.44,1.1,0,0,2.86,1.09,2.93,3.92,.08,2.82-22.13,103.86-23.37,106.36-1.23,2.49-2.88-3.79-2.88-3.79Z"/>
      <path class="cls-21" d="M242.27,581.4c-3.46-14.13-11.33-46.91-17.08-70.84-3.15-13.1-5.59-23.3-6.19-25.72l5.42-1.33c.59,2.43,3.04,12.63,6.19,25.74,5.75,23.93,13.62,56.71,17.07,70.82l-5.42,1.33Z"/>
      <path class="cls-21" d="M390.83,524.65c-.28-1.03-.84-3.4-1.68-6.97-3.56-15.18-13.03-55.52-20.16-68.2l4.87-2.74c7.52,13.37,16.78,52.81,20.73,69.66,.8,3.39,1.37,5.84,1.63,6.77l-5.38,1.48Z"/>
      <g>
        <path class="cls-24" d="M93.07,474.83c.58,1.55,41.36,55.31,43.2,58.49,.44-5.78,1.07-25.92-1.99-30.22-3.06-4.31-2.7-4.53-6.45-7.83-8.33-7.34-13.62-10.14-17.99-21.77-1.06-2.82-9.49-4.54-10.84-7.15-1.22-2.37-3.01-5.1-4.9-6.6-1.4,2.48-1.54,13.75-1.05,15.09Z"/>
        <path class="cls-7" d="M437.77,427.18c-.13-5.25-.22-2.39-.11-7.93-40.11,14.31-80.68,22.27-121.36,33.65-57.08,15.98-112.14,42.82-169.67,55.84-9.79,2.22-10.64,3.22-10.24,11.73,.11,2.35-.31,10.03-.11,12.84,68.01-23.35,218.2-79.22,301.5-106.15Z"/>
        <path class="cls-9" d="M136.38,520.48c85.73-28.65,214.81-71.89,301.27-101.23-18.18-6.96-75.57-37.74-77.64-38.58-22.93,6.3-194,59.44-265.9,79.07-2.02,7.88,34.98,45.97,42.27,60.74Z"/>
      </g>
      <path class="cls-19" d="M511.38,469.04s-5.2,3.43-14.77,9.33c-9.58,5.88-23.54,14.27-41.12,24.02-17.58,9.75-38.78,20.91-62.81,32.34-24.02,11.45-50.9,23.12-79.83,33.71-28.92,10.59-57.16,19.04-83.3,25.06-3.27,.73-6.51,1.44-9.7,2.15-1.6,.35-3.18,.69-4.75,1.04-1.58,.34-3.19,.62-4.76,.92-6.32,1.15-12.5,2.13-18.55,2.73-12.07,1.22-23.59,1.34-33.97-.6-5.17-.97-10.03-2.49-14.3-4.63-4.27-2.12-7.91-4.87-10.67-7.95-2.78-3.07-4.67-6.4-5.94-9.58-1.28-3.19-1.98-6.21-2.45-8.94-.82-5.49-.72-9.77-.58-12.66,.05-1.44,.19-2.55,.24-3.28,.06-.74,.1-1.11,.1-1.11,0,0,.04,.38,.12,1.11,.09,.73,.15,1.83,.36,3.25,.37,2.83,1.02,7.02,2.64,11.99,1.7,4.88,4.45,10.65,9.71,14.93,2.61,2.14,5.8,3.9,9.52,5.16,3.72,1.27,7.96,2.03,12.56,2.33,9.21,.6,19.73-.62,30.9-2.85,5.6-1.1,11.38-2.53,17.31-4.13,2.96-.77,5.99-1.7,9.06-2.62,3.07-.91,6.18-1.83,9.33-2.77,25.17-7.61,52.56-17.03,81.09-27.5,28.54-10.47,55.56-20.92,80.05-30.64,24.49-9.71,46.48-18.64,64.92-26.18,36.86-15.24,59.61-24.65,59.61-24.65Z"/>
      <path class="cls-24" d="M107.74,459.26c-3.97-13.05,48.45-20.86,55.17-22.22,16.57-3.36,33.24-6.24,49.88-9.26,17.71-3.21,34.38-8.5,52.35-9.96,14.16-1.15,28.38-1.27,42.58-1.4,12.68-.12,25.37-.23,38.05-.35,8.29-.08,55.23-7.41,59.72-.44,4.15,6.44-35.9,23.51-41.53,28.71-5.63,5.2-13.28,7.47-20.65,9.59-14.44,4.15-28.88,8.3-43.31,12.45-9.49,2.73-19.08,5.47-28.94,5.92-4.1,.19-8.24-.03-12.23-1.01-3.3-.82-6.45-2.15-9.66-3.29-11.87-4.25-26.39-7.24-38.75-4.12-9.4,2.37-19.19,2.85-28.19,7.15-25.12,11.99-67.95,9.71-74.48-11.75Z"/>
      <path class="cls-14" d="M138.48,410.77c-9.48,.98-36.88-.95-39.9,4.16-17.75,30.02,11.77,33.15,21.39,35.99,7.27,2.14,15.17,3.98,22.26,1.61,7.58-2.54,12.96-10.59,18.47-16.18,8.9-9.02,20.14-19.67,33.36-21.38,12.88-1.66,29.69,8.69,40.89,14.06,2.89,1.39,5.96,2.81,9.15,2.5,4.02-.39,7.31-3.51,9.27-7.04,3.35-6.03,3.56-13.68,.56-19.89-3.87-8.02-12.18-12.81-20.22-16.63-5.7-2.71-11.51-5.18-17.42-7.41-3.93-1.48-7.92-2.86-12.07-3.47-13.72-2.04-26.77,4.51-36.69,13.48-7.14,6.46-18.77,19.14-29.05,20.21Z"/>
      <g>
        <path class="cls-14" d="M145.62,407.71c-.45,.53,5.2,24.32,15.07,28.83,.2-1.34,10.39-9.94,15.25-13.56-15.54,8.96-27.18-9.18-30.33-15.27Z"/>
        <path class="cls-12" d="M126.35,454.88c.38,0,2.36,.52,2.74,.59,.49,.08,.97,.16,1.46,.23,.37,.06,.75,.12,1.11,.24,.07,.02,.15,.06,.2,.12,.04,.06,.04,.13,.04,.2-.03,1.01-1.35,3.15-1.4,3.28-.49-.59-3.88-4.66-4.14-4.66Z"/>
        <path class="cls-20" d="M118.76,410.97c-1.88-.08-3.72,.14-5.53-.39-6.47-1.89-17.94-3.34-24.27,6.08-10.99,16.37-.35,32.42,30.85,38.96,3.79-1.73,9.84-.34,13.07,.07,4.36,.56,5.35,3.52,10.33,3.69,8.23,.29,14.16-12.89,17.66-23.38-5.5-6.19-14.61-26.91-15.05-28.49-3.8,1.27-8.22,4.3-27.05,3.45Z"/>
        <path class="cls-3" d="M137.61,430.96s0-.41-.17-1.07c-.16-.66-.53-1.53-1.12-2.48-1.18-1.93-3.25-4.2-5.62-6.65-2.37-2.45-4.58-4.65-6.33-6.13-.87-.74-1.64-1.31-2.2-1.67-.28-.18-.51-.31-.68-.39-.16-.09-.25-.13-.25-.13,0,0,.1,.01,.28,.03,.18,.02,.45,.07,.78,.15,.67,.16,1.61,.48,2.69,1,2.17,1.04,4.92,2.91,7.44,5.52,2.51,2.61,4.29,5.49,5,7.85,.36,1.17,.44,2.2,.38,2.9-.04,.7-.22,1.07-.2,1.07Z"/>
        <path class="cls-3" d="M130.17,429.62s-.01-.09-.03-.26c-.02-.17-.05-.42-.13-.72-.15-.61-.46-1.43-1.01-2.31-1.07-1.79-3.02-3.83-5.26-6.01-2.24-2.18-4.36-4.12-6.03-5.45-1.65-1.34-2.94-1.98-2.94-1.98,0,0,.09,0,.25,.03,.17,.02,.41,.05,.72,.11,.62,.12,1.5,.37,2.53,.8,2.06,.86,4.71,2.45,7.13,4.81,2.42,2.35,4.1,5.05,4.7,7.28,.31,1.11,.34,2.07,.27,2.72-.03,.32-.09,.57-.14,.74-.04,.16-.07,.25-.07,.25Z"/>
        <path class="cls-3" d="M122.64,429.4s-.06-.34-.16-.89c-.03-.28-.15-.61-.27-.97-.1-.37-.28-.77-.48-1.2-.77-1.73-2.28-3.77-4.03-5.93-1.79-2.14-3.51-4.05-4.97-5.3-.72-.64-1.36-1.11-1.84-1.42-.48-.29-.77-.47-.77-.47,0,0,.33,.05,.89,.12,.57,.11,1.38,.32,2.32,.75,1.89,.81,4.23,2.46,6.22,4.84,1.96,2.4,3.12,5.08,3.35,7.16,.03,.26,.05,.5,.08,.73,.02,.23,0,.46-.01,.67-.02,.41-.02,.76-.11,1.05-.13,.55-.21,.87-.21,.87Z"/>
        <path class="cls-18" d="M124.42,453.73c19.61,1.35,29.26-1.44,30.94-4.59-.68,2.73-4.73,7.87-6.4,9.75-2.13,2.4-15.45,1.73-18.47,.66,.03-.76,1.05-2.47,1.09-3.22-6.66-2.38-7.22,1.09-9.61,1.36-11.77-1.37-22.28-7.09-29.89-13.08-3.21-2.53-8.02-8.18-7.06-12.74,9,15.49,32.78,21.41,39.41,21.87Z"/>
        <path class="cls-2" d="M127.46,443.08s-.13,.07-.36,.21c-.24,.13-.6,.36-1.11,.55-.99,.44-2.56,.88-4.55,1.06-3.99,.39-9.64-.44-15.1-3.03-5.47-2.58-9.69-6.34-12.05-9.6-1.19-1.62-1.86-3.16-2.05-4.21-.19-1.07,.09-1.49,.06-1.48,.03,0,.07,.42,.61,1.16,.53,.74,1.55,1.75,3.01,2.82,2.91,2.16,7.4,4.67,12.47,7.05,5.06,2.39,9.8,4.18,13.31,4.94,1.75,.39,3.2,.55,4.2,.56,.51,.03,.88,0,1.15-.01,.27,0,.41-.01,.41-.01Z"/>
      </g>
      <path class="cls-14" d="M229.94,264.71c-21.99,1.26-41.36-8.1-63.01-4.61-16.69,2.7-20.16,22.88-3.49,23.86,11.97,12.67,52.27,17.76,73.94,16.8,21.67-.96,43.21-6.81,60.65-17.64-4.32-6.32-10.43-11.64-16.47-16.89-4.25-3.69-5.76-5.97-10.06-9.63-5.24-4.47-6.74-3.29-12.53,.16-8.36,4.99-18.62,7.34-29.02,7.94Z"/>
      <path class="cls-3" d="M317.51,457.5c58.41-16.66,64.69-47.27,69.46-59.45,19.57,4.63,39.26-5.27,54.74-18.12,15.47-12.85,24.43-33.17,23.47-53.25-.37-7.85-2.13-23-11.15-18.87-12.22,4.68-14.74,87.43-75.31,50.59-6.08-7.2-4.43-68.69-72.36-105.44-4.72-2.74-16.4-32.5-16.27-33.35,3.48-22.7,43.25-44.94,36.94-102.27,1.81-12.54-8.81-27.07-18.61-35.1-4.27-3.5-9.28-6-13.67-9.36-7.39-5.65-31.82-39.69-84.14-28.15-7.6,1.68-15.93,7.56-20.92,14.3-13.6,8.49-141.4,42.82-134.85,124.35,1.23,9.5,7.42,17.83,15.16,23.47s30.62,40.55,124.09,16.28c.26,.92,2.22,1.08,2.46,2.01-1.21,76.58-32.65,174.45,50.7,222.15,.65,.37,29.76,24.94,70.27,10.21Z"/>
      <path class="cls-16" d="M55.78,138.54c40.92-24.93,65.77,28.64,58.37,48.35-8.05,21.45-30.42,25.51-40.26,22.75-39.87-10.83-41.74-56.69-18.11-71.09Z"/>
      <path class="cls-10" d="M230.17,92.7c-12.52,4.16-25.66,9.5-32.96,20.49-2.8,4.22-4.6,9.45-3.4,14.37,2.92,11.94,19.57,13.7,27.72,22.9,5.11,5.76,6.66,14.31,12.64,19.15,5.97,4.82,14.45,4.49,22.11,3.91,13.45-1.02,28.03-2.51,37.85-11.75,8.42-7.91,11.51-19.91,13.01-31.36,1.22-9.35-.15-40.64-4.48-49.87-13.95-29.76-59.8,7.96-72.5,12.17Z"/>
      <path class="cls-10" d="M198.72,99.59c-4.67,2.37-9.5,4.68-14.7,5.25-5.2,.58-10.91-.88-14.22-4.93-5.24-6.42-8.95-27.75-.58-31.94,20.69-9.53,30.92-14.88,45.1-25.57,16.15-12.18,42.79-6.05,61.07,2.6,2.36,1.12,4.72,2.41,6.4,4.42,2.65,3.16,3.16,7.95,1.24,11.6-2.98,5.65-9.51,5.94-14.97,7.24-8.4,2-16.51,4.97-24.42,8.42-15.42,6.72-29.94,15.31-44.93,22.92Z"/>
      <path class="cls-14" d="M246.82,191.69c-11.06,23.14-66.13,38.47-95.4,39.09,63.96-16.51,91.01-31.72,95.4-39.09Z"/>
      <path class="cls-3" d="M102.01,183.11c5.5-14.66-.09-35.27-22.24-39.18,9.43,4.17,25.48,11.76,22.24,39.18Z"/>
      <path class="cls-16" d="M112.1,226.22s63.24,4.9,76.43-36.97l1.83-7.42,.18,7.64c.43,5.03,8.37,12.73,8.37,12.73-4.43-.97-8.26-4.88-9.79-9.1-3.66,9.09-20.08,41.09-77.02,33.12Z"/>
      <path class="cls-10" d="M125.43,207.41c-.38,1.62-2.04,2.61-3.72,2.22-1.68-.39-2.73-2.02-2.35-3.64,.38-1.62,2.04-2.61,3.72-2.22,1.68,.39,2.73,2.02,2.35,3.64Z"/>
      <path class="cls-10" d="M164.65,192.11c-.38,1.62-2.04,2.61-3.72,2.22s-2.73-2.02-2.35-3.64c.38-1.62,2.04-2.61,3.72-2.22,1.68,.39,2.73,2.02,2.35,3.64Z"/>
      <path class="cls-10" d="M142,188.54c.19,1.65-1.05,3.14-2.76,3.34-1.71,.19-3.25-.99-3.44-2.64-.19-1.65,1.05-3.14,2.76-3.34,1.71-.19,3.25,.99,3.44,2.64Z"/>
      <path class="cls-10" d="M147.07,206.79c.19,1.65-1.05,3.14-2.76,3.34-1.71,.19-3.25-.99-3.44-2.64-.19-1.65,1.05-3.14,2.76-3.34,1.71-.19,3.25,.99,3.44,2.64Z"/>
      <path class="cls-14" d="M446.86,375.13c10.79-11.82,15.36-20.22,17.83-37.17-7.14,17.13-17.18,34.9-25.96,40.26-26.55,16.19-49.68,10.02-51.18,11.05,.62,2.77,.83,5.21-.58,8.78,21.62,6.19,50.08-12.17,59.89-22.92Z"/>
      <path class="cls-14" d="M266,283.02c-24.27,10.89-32.43,16.71-74.52,15.3-5.08,2.88,5.44,.54-4.89,13.4-21.06,26.56,63.52,29.93,80.09,25.75,16.57-4.18,42.32-16.91,43.56-31.08-7.08-.47-6.34,1.32-11.84-1.77-3.87-2.18-7.71-4.39-11.6-6.53-4.76-2.62-7.28-14.01-11.04-10.07-5.24,5.48-1.82-7.1-9.76-4.99Z"/>
      <path class="cls-3" d="M234.97,297.36c-21.58,4.41-45.23-.47-65.73,.48-16.89,.78-4.02,31.06,12.61,29.64,10.09,1.89,44.35,8.56,65.66,4.5,21.31-4.06,41.78-12.96,57.48-26.17-5.19-5.63-11.99-10.02-18.73-14.35-4.74-3.04-6.56-5.08-11.34-8.08-5.83-3.67-7.15-2.29-12.38,1.96-7.56,6.14-17.37,9.94-27.58,12.02Z"/>
      <path class="cls-23" d="M340.38,317.22c-7.43,3.97-16.64,4.46-24.45,1.3-1.09-.44-2.18-.97-2.95-1.85-1.78-2.02-1.35-5.1-2.16-7.66-1.45-4.54-21.96-26.48-26.36-28.31-8.05-3.35-9.46-1.42-14.22-1.75-.49-.03-.43-.9-.82-1.19-.64-.46-1.52-.33-2.3-.17-20.32,4-73.44,1.49-73.72-2.23-.3-3.99,2.29-7.12,5.87-8.91,3.58-1.79,7.78-1.66,11.78-1.51,21.98,.79,44,.64,65.97-.46,2.94-.15,5.95-.3,8.77,.56,2.96,.9,5.46,2.85,7.92,4.72,7.84,5.94,16.02,11.43,24.48,16.43,9.98,5.9,15.11-.91,26.87-.45,3.14,.12,10.96,9.31,10.55,12.66-.27,2.2-3.23,6.83-4.39,8.67-2.67,4.24-6.42,7.8-10.84,10.16Z"/>
      <path class="cls-15" d="M193.4,275.09c38.67,4.05,117.65,3.36,132.52-11.62,3.72-19.53-28.54-49.08-33.64-50.86-8.75-3.05-74.11,12.95-96.49,10.29-20.4,2.44-14.63,55.6-2.38,52.19Z"/>
      <path class="cls-4" d="M243.76,236.09c-18.19,1.28-54.24-2.69-54.69,1.05-1.12,5.76,12.42,6.17,21.49,6.02,.9-.01,1,1.3,.11,1.43-8.62,1.21-21.35,2.62-21.06,4.01,2.38,11.8,61.2-1.32,71.92-5.1,38.57-13.61,41.97-15.77,41.06-20.08-.16,.12-1.81-4.54-5.96-7.71-2.05-1.57-2.69,3.11-4.41,4.32-4.77,3.36-9.47,6.39-14.87,8.69-10.61,4.51-22.15,6.57-33.6,7.38Z"/>
      <path class="cls-13" d="M253.5,15.27c16.56-.08,87.76-4.95,107.29,23.41,34.58,50.22,9.53,100.43-19.76,142.98-9.85,14.3-19.3,18.37-47.38,31.11-4.14,6.27-7.6,12.91-9.91,20.16-4.69,14.71-4.26,31.03-11.37,44.73-7.12,13.7-27.27,22.63-37.85,11.39-4.71-5-5.87-12.35-6.02-19.22-.68-31.33,15-60.69,33.23-86.18,12.38-17.31,34.14-33.48,33.96-54.76,9.77-51.25-50.85-82.54-74.86-83.69-7.81-.38-15.01,1.58-19.99,4.53-7.33,4.35-11.23,7.33-14.49,10.23,.7-30.51,50.6-44.61,67.14-44.69Z"/>
      <path class="cls-15" d="M289.61,200.32c-5.56,7.24-7.5,16.54-9.29,25.5,1.07-8.76,10-14.07,18.09-17.59,10.42-4.54,21.28-8.45,30.52-15.08,6.92-4.96,17.32-15.11,16.4-24.29-4.23-.38-8.95,5.42-12.68,7.57-4.79,2.76-9.98,4.72-15.09,6.79-10.12,4.1-21.05,8.13-27.94,17.1Z"/>
      <ellipse class="cls-11" cx="382.14" cy="33.57" rx="28.67" ry="28.26" transform="translate(45.36 217.25) rotate(-33.63)"/>
      <path class="cls-5" d="M406.87,49.77s0-.08,.02-.23c.02-.15,0-.38,.07-.69,.1-.61,.38-1.52,.95-2.66,.56-1.15,1.45-2.49,2.39-4.13,.46-.82,.95-1.71,1.26-2.72,.32-1,.43-2.13,.12-3.2-.31-1.08-1.01-2.07-1.81-3.09-.81-1.03-1.68-2.12-2.5-3.34-.81-1.23-1.62-2.59-2.11-4.21-.51-1.61-.61-3.52-.09-5.34,.25-.88,.56-1.64,.65-2.25,.08-.62-.03-.84-.3-1.12-.29-.29-.9-.58-1.62-.79-.36-.1-.75-.19-1.16-.27-.44-.09-.88-.17-1.32-.26-1.78-.36-3.6-.72-5.46-1.09-.59-.11-2.72-.58-4.38-.94-.88-.19-1.77-.39-2.66-.58l-.34-.07-.17-.04-.07-.02-.24-.08-.54-.16-.86-.23c.9-.57,1.81-1.14,2.72-1.71l1.09-.7,.27-.17c.1-.06,.18-.11,.21-.16l.3-.29c.18-.19,.47-.4,.51-.63l.05-.18c.02-.13,.05-.26,.05-.39,.05-.53-.12-1.08-.34-1.41-.09-.12-.32-.37-.55-.54-.24-.18-.52-.35-.85-.49-.65-.29-1.45-.5-2.32-.64-1.78-.26-3.74-.36-5.34-.05-.81,.16-1.53,.43-2.13,.8-.3,.2-.55,.39-.83,.67-.28,.28-.58,.63-.92,1.04-.63,.73-1.34,1.68-2.59,2.51-.62,.41-1.39,.74-2.19,.88-.79,.14-1.48,.11-2.01,.08-1.1-.09-1.43-.08-2.08,.08-.59,.16-1.21,.46-1.78,.88-1.15,.84-2.13,2.08-2.72,3.38-.31,.68-.6,1.63-1.16,2.68-.55,1.07-1.54,2.12-2.6,2.73-1.07,.64-2.15,.94-3.11,1.15-.97,.2-1.86,.31-2.67,.44-.81,.12-1.55,.26-2.18,.47-.65,.21-1.1,.47-1.57,.85-.93,.74-1.54,1.95-1.73,3.11-.17,1.19,.13,2.26,.83,2.91l1.4,1.3c.47,.44,.17,1.22-.47,1.23l-1.74,.03c-.13,0-.26,0-.39,.03-.11,.01-.16,.02-.25,.04-.16,.03-.31,.08-.47,.15-.15,.07-.31,.16-.45,.26-.07,.05-.14,.11-.21,.17l-.1,.1,.06,.1c.17,.28,.37,.59,.6,.89,.37,.48,.89,1.07,1.34,1.56,.94,1.02,1.91,1.95,2.89,2.8,.98,.85,1.98,1.61,2.97,2.29,.26,.19,.46,.31,.78,.52,.31,.2,.61,.38,.91,.56,1.98,.83,.45,2.11,.05,2.64-.42,.56-.68,.99-.93,1.49-.49,.98-.8,1.98-.93,2.95-.06,.49-.08,.99-.05,1.48v.18s0,.07,.02,.09l.08,.04,.31,.14c.21,.09,.41,.19,.61,.28,.77,.35,1.47,.66,2.1,.95,2.44,1.13,2.47,1.32-.04,.51-.67-.22-1.42-.47-2.26-.74-.27-.09-.56-.19-.84-.3-.14-.05-.28-.11-.43-.17,0,0-.69-.24-.53-2.22,0-.17,0-.36,.02-.55,0-.14,.02-.28,.03-.42,.02-.29,.08-.57,.13-.87,.12-.58,.28-1.17,.51-1.77,.12-.29,.24-.59,.39-.89,.06-.14,.16-.31,.22-.42l.1-.19c.14-.25,.29-.48,.47-.69,.08-.05-.05-.06-.09-.09l-.18-.07c-.12-.05-.23-.1-.35-.15-.27-.12-.31-.12-.99-.5-1.08-.6-2.19-1.29-3.32-2.1-1.12-.8-2.27-1.72-3.39-2.76-.56-.53-1.11-1.06-1.68-1.67-3.23-4.3-.94-5.2-.45-5.57,.49-.37,1.06-.7,1.7-.94,.32-.12,.67-.23,1-.3,.27-.06,.56-.1,.86-.12l-1.05,3.32c-.86-.67-1.53-1.61-1.92-2.62-.39-1.01-.53-2.08-.44-3.1,.16-2.04,.99-4.04,2.55-5.59,.38-.4,.83-.73,1.29-1.05l.74-.43c.25-.13,.49-.22,.73-.34,.98-.4,1.94-.63,2.84-.81,1.78-.35,3.43-.6,4.34-1.19,.46-.31,.75-.58,1.02-1.1,.29-.52,.53-1.32,.92-2.33,.87-2.11,2.23-3.97,4.12-5.43,.95-.73,2.06-1.33,3.33-1.69,.63-.19,1.3-.28,1.98-.32,.69-.03,1.25,.03,1.66,.05,.89,.03,.9-.01,1.34-.27,.41-.27,.96-.91,1.62-1.7,.36-.42,.76-.9,1.26-1.37,.5-.48,1.1-.93,1.71-1.28,1.22-.72,2.53-1.11,3.77-1.32,1.25-.21,2.45-.23,3.6-.18,1.15,.06,2.23,.18,3.38,.39,1.14,.23,2.31,.54,3.47,1.14,.58,.3,1.15,.66,1.68,1.12,.52,.46,1,.98,1.42,1.68,.78,1.36,.98,2.82,.81,4.19-.03,.35-.12,.69-.21,1.02l-.15,.45c.03-.1,0-.02,0-.04-.02,.03-.04,.05-.07,.08-.01,.03-.12,.06-.08,.07l.09,.04c.15,.05-.21-.02,1.09,.3,1.84,.47,3.65,.92,5.41,1.37,.45,.11,.89,.23,1.33,.34,.47,.12,.96,.27,1.45,.45,.97,.37,2.08,.84,3.05,1.96,.47,.56,.83,1.31,.94,2.06,.12,.75,.03,1.44-.1,1.99-.28,1.11-.69,1.87-.9,2.5-.9,2.41,.03,5.05,1.36,7.39,.66,1.18,1.4,2.29,2.13,3.41,.74,1.13,1.5,2.41,1.76,3.9,.27,1.5-.06,2.93-.54,4.03-.48,1.12-1.09,2-1.65,2.79-1.14,1.57-2.14,2.76-2.81,3.8-.68,1.03-1.06,1.86-1.24,2.43-.1,.28-.12,.51-.17,.65-.03,.15-.05,.22-.05,.22Z"/>
      <path class="cls-5" d="M374.59,23.46s-.23,.44-.65,1.23c-.41,.8-1.01,1.97-1.69,3.46-.68,1.49-1.45,3.31-2.2,5.4-.19,.52-.35,1.03-.42,1.52-.07,.49,0,.92,.19,1.06,.14,.16,.59,.32,1.23,.48,.32,.09,.68,.18,1.11,.38,.41,.18,.96,.62,1.2,1.2,.27,.66,.21,1.17,.22,1.52,0,.37,.04,.48,.09,.57,.05,.13,.34,.3,.89,.35,.53,.03,1.18-.06,1.77-.27,.31-.1,.57-.23,.86-.39,.31-.18,.64-.38,.97-.59,.73-.46,1.49-.95,2.36-1.37,.46-.2,.77-.39,1.71-.6,.81-.2,1.49-.12,2.24-.13,.2,.61,.5,1.2,.5,1.87,.02,.66-.21,1.41-.58,2.01-.54,.87-1.14,1.44-1.77,1.97-.32,.26-.63,.5-.96,.72-.32,.22-.58,.39-.86,.6-.54,.4-1.03,.81-1.43,1.25-.81,.89-1.05,1.79-.36,2.48,.33,.35,.8,.63,1.28,.85,.48,.22,.96,.4,1.43,.53,1.91,.51,3.59,.38,4.7,.2,.56-.1,.99-.21,1.28-.29,.29-.09,.44-.13,.44-.13,0,0-.14,.07-.41,.21-.27,.13-.68,.32-1.22,.51-1.09,.37-2.78,.8-4.95,.54-.54-.07-1.1-.19-1.68-.37-.57-.18-1.2-.42-1.81-.91-.63-.46-1.18-1.41-1.12-2.36,.03-.96,.47-1.73,.92-2.38,.47-.64,1.02-1.19,1.6-1.69,.28-.25,.6-.5,.88-.72,.27-.21,.52-.43,.77-.66,.49-.45,.95-.99,1.21-1.46,.03-.08,0-.09-.02-.1-.02,0-.03,.01-.03,.02h0s.02,0,0,0l-.12,.04c-.16,.07-.33,.14-.5,.23-.68,.34-1.41,.82-2.2,1.31-.35,.22-.71,.44-1.09,.65-.43,.22-.87,.42-1.32,.56-.9,.27-1.82,.41-2.81,.29-.49-.05-1.02-.2-1.54-.49-.51-.29-1.01-.8-1.24-1.42-.1-.29-.18-.6-.2-.88-.02-.27,0-.5,0-.68,.03-.36,0-.57,.01-.54-.01-.03,.02-.03-.15-.14-.15-.09-.42-.19-.72-.3-.3-.11-.65-.22-1.04-.41-.38-.18-.82-.48-1.14-.93-.32-.44-.45-.97-.47-1.41-.02-.45,.04-.84,.12-1.19,.17-.7,.45-1.29,.7-1.8,1-2.06,2.02-3.79,2.92-5.18,.9-1.39,1.68-2.45,2.23-3.16,.55-.7,.86-1.08,.86-1.08Z"/>
      <ellipse class="cls-11" cx="257.9" cy="338.92" rx="18.1" ry="17.18" transform="translate(-122.31 530.81) rotate(-79.51)"/>
      <path class="cls-5" d="M240.35,343.07s.13,.14,.36,.45c.22,.32,.49,.84,.73,1.59,.25,.75,.45,1.72,.73,2.84,.29,1.08,.7,2.49,1.88,3.27,1.2,.73,2.89,.57,4.65,.94,.89,.16,1.82,.4,2.74,.88,.92,.47,1.78,1.24,2.34,2.24,.27,.49,.47,.96,.7,1.3,.24,.35,.43,.44,.68,.45,.26,.01,.67-.14,1.07-.38,.4-.23,.83-.55,1.29-.88,.91-.65,1.84-1.31,2.79-1.98,.69-.48,1.39-.96,2.09-1.45,.46-.31,.92-.63,1.38-.94l.35-.24c.13-.09,.13-.07,.2-.12,.05-.03,.09-.05,.25-.14l.39-.24c-.26,1.28-.54,2.44-.61,3.17l.09,.4c.03,.14,.05,.11,.07,.17,.04,.08,.1,.15,.15,.23,.23,.29,.57,.5,.85,.55,.61,.12,1.61-.3,2.48-1.01,.91-.72,1.8-1.59,2.36-2.51,.28-.46,.48-.94,.57-1.41,.09-.46,.06-.96-.01-1.66-.05-.61-.14-1.35,.06-2.22,.1-.43,.29-.88,.56-1.26,.26-.38,.55-.65,.78-.86,.47-.43,.64-.63,.86-1.03,.2-.37,.32-.82,.38-1.28,.12-.93,0-1.95-.34-2.81-.18-.46-.46-1-.67-1.69-.21-.69-.23-1.53-.06-2.23,.37-1.44,1.17-2.36,1.73-3.22,.59-.86,1.01-1.61,1.06-2.38,.07-.79-.18-1.62-.63-2.25-.46-.63-1.1-1-1.73-.94l-2,.16,1.31-1.42c.12-.13,.22-.27,.31-.43,.04-.07,.09-.17,.12-.24,.02-.04,.04-.09,.06-.14,.05-.17,.14-.46,.04-.6l-.32-.06c-.14-.02-.16-.03-.41-.05-.44-.04-.87-.06-1.3-.06-.85-.01-1.68,.03-2.47,.11-.79,.09-1.55,.22-2.27,.38-.18,.04-.36,.08-.53,.13-.2,.05-.42,.11-.62,.17-.2,.06-.4,.12-.59,.18l-.28,.09-.14,.04c-.05,.02-.09,.03-.09-.02,0-.48-.03-.94-.09-1.35-.06-.42-.14-.71-.25-1.05-.21-.65-.52-1.22-.88-1.7-.18-.24-.4-.47-.62-.67-.06-.04-.11-.12-.17-.13l-.19,.08c-.13,.06-.26,.11-.39,.16-.48,.2-.91,.39-1.31,.56-1.53,.64-2.37,.99-2.37,.99,0,0,.74-.4,2.17-1.19,.38-.2,.8-.43,1.27-.69,.16-.08,.32-.18,.49-.25l.26-.12,.13-.06s.08,.04,.12,.06c.32,.23,.63,.49,.94,.8,.49,.53,.88,1.11,1.19,1.83,.08,.18,.15,.36,.21,.55,.05,.15,.09,.31,.14,.47,.05,.17,.08,.34,.1,.51,.1,0,.28-.11,.41-.15l.21-.08c.17-.06,.34-.11,.52-.17,.72-.23,1.5-.43,2.33-.58,.83-.16,1.71-.27,2.65-.32,.47-.02,.95-.04,1.44-.03,.17,0,.7,.03,1.08,.06,.41,.03,.83,.07,1.26,.11,.12,.62,.23,1.33,.09,2.11-.03,.2-.09,.39-.15,.59-.07,.21-.11,.3-.18,.46-.13,.28-.3,.57-.52,.84l-.91-1.63c1.34-.21,2.67,.49,3.44,1.44,.78,.96,1.25,2.17,1.24,3.48,0,.64-.14,1.35-.38,1.93-.24,.59-.54,1.11-.84,1.59-.6,.95-1.21,1.81-1.36,2.55-.08,.38-.08,.69,.03,1.06,.11,.38,.35,.85,.62,1.45,.54,1.27,.75,2.65,.6,4.08-.08,.71-.26,1.44-.62,2.14-.31,.68-.97,1.4-1.39,1.76-.43,.41-.5,.53-.58,.87-.07,.34-.04,.86,.02,1.48,.07,.66,.13,1.54-.06,2.4-.19,.84-.54,1.59-.96,2.24-.87,1.31-1.91,2.24-3.03,3.1-.58,.42-1.21,.82-1.97,1.09-.76,.27-1.59,.42-2.56,.18-.92-.25-1.62-.82-2.11-1.5-.23-.3-.49-.88-.44-.8,0-.02,0-.04,0-.07,.03-.09-.02-.04-.06-.02l-.07,.03-.71,.46c-.98,.63-1.94,1.26-2.88,1.86-.46,.29-.94,.63-1.52,.92-.57,.27-1.24,.57-2.14,.48-.44-.05-.89-.24-1.23-.51-.35-.28-.57-.6-.74-.88-.32-.57-.48-1.07-.67-1.44-.7-1.49-2.31-2.22-3.92-2.62-.81-.21-1.62-.35-2.43-.51-.82-.16-1.71-.39-2.44-.95-.72-.57-1.15-1.31-1.4-1.99-.25-.68-.38-1.32-.47-1.9-.19-1.17-.28-2.12-.45-2.87-.16-.75-.36-1.28-.54-1.61-.18-.32-.29-.48-.29-.48Z"/>
      <path class="cls-15" d="M201.69,35.64c-1.84,1.19-3.66,2.44-5.25,3.96-2.8,2.68-4.78,6.15-5.99,9.83,6.08-5.95,15.61-6.03,24.11-5.73,6.22,.22,12.45,.43,18.67,.65,1.99,.07,4.01,.14,5.95-.33,2.12-.51,4.04-1.62,5.93-2.72,9.31-5.44,18.63-10.87,27.95-16.31,1.92-1.08,3.86-2.13,5.76-3.25,2.97-1.77,4.92-1.92,1.59-4.05-5.73-3.66-20.15-1.09-26.56-.4-18.49,1.99-36.53,8.26-52.16,18.35Z"/>
      <path class="cls-5" d="M265.67,339.87s-.47-1.28-1.37-3.32c-.45-1-1.03-2.26-1.73-3.49-.08-.13-.18-.27-.27-.36-.06-.05-.12-.09-.18-.11-.13-.05-.27,.02-.34,.1-.05,.04-.27,.19-.47,.31-.22,.13-.49,.31-.98,.38-.48,.1-1.16-.17-1.42-.44-.15-.12-.25-.23-.32-.3-.01,0-.03,0-.04-.01-.04,0-.08,.01-.09,.04-.02,.02,.01,0-.04,.06-.07,.07-.15,.16-.22,.27-.07,.11-.15,.22-.21,.35-.04,.08-.05,.09-.11,.22-.08,.16-.13,.38-.19,.59-.2,.84-.36,1.83-.61,2.48-.57,1.48-.99,1.56-1.64,2.29-.29-.15-1.02-.42-1.34-.74-.35-.33-.55-.72-.69-1.19-.14-.48-.2-1.05-.17-1.77,0-.74,.24-1.74,.26-2.43,.02-1.01-.04-1.24-.46-1.43-.17-.07-.51-.02-.81,.07-.32,.09-.61,.22-.89,.36-1.11,.58-1.87,1.38-2.32,1.97-.46,.59-.66,.98-.66,.98,0,0,.07-.41,.37-1.13,.3-.7,.84-1.74,1.97-2.69,.29-.23,.61-.46,.98-.66,.38-.19,.8-.42,1.52-.41,.67,.01,1.33,.41,1.71,1.03,.19,.31,.29,.58,.36,.87,.04,.14,.07,.28,.09,.41l.04,.28c.07,.33,.15,.26,.22,.08,0-.07,0-.09,0-.09h0s-.01,.03,.02-.03c.05-.12,.12-.23,.19-.35,.13-.23,.28-.44,.45-.65,.18-.21,.36-.4,.59-.59,.27-.23,.62-.42,.96-.53,.7-.23,1.44-.08,1.98,.32,.17,.13,.33,.29,.47,.45l.14,.16h0s0,0,0,0l-.04,.05c-.06,.09-.1,.13-.13,.19-.05,.07-.11,.22-.08,.14-.02,.03,0,.01,0-.17,0-.01-.04-.29-.05-.26h.03s.1-.04,.18-.08c.18-.08,.31-.16,.66-.32,.71-.33,1.53-.3,2.11,.13,.29,.2,.53,.49,.71,.77,.15,.24,.24,.45,.33,.66,.56,1.56,.85,2.83,1.07,3.96,.42,2.23,.46,3.56,.46,3.56Z"/>
      <path class="cls-11" d="M235.36,290.11c-6.33-6.54-9.19-16.53-9.42-25.63-.44-17.6,7.35-38.3,16.51-53.33,9.16-15.04,17.29-24.73,27.89-38.79,8.8-11.68,22.44-30.65,24.64-45.1,3.64-23.88-11.69-51.19-31.73-64.69-43.24-29.12-72.23-4.18-76.91-2.61-.38-2.35,1.91-5.91,5.59-8.98,14.98-12.48,36.56-12.17,54.23-3.92,17.67,8.24,59.03,30.82,54.41,79-3.03,31.66-41.9,66.62-53.54,86.99-20.23,35.4-17.96,60.33-9.76,70.62,6.61,8.3,19.33,5.08,26.58-3.59,6.83-8.17,11.96-20.2,14.73-24.37-5.05,44.7-36.9,40.96-43.23,34.42Z"/>
      <path class="cls-5" d="M236.91,50.38s10.17,2.14,19.59,7.8c5.76,3.06,12.38,7.31,18.76,13.26,3.18,2.97,6.28,6.37,9.1,10.2,2.83,3.83,5.3,8.15,7.27,12.82,1.96,4.68,3.19,9.52,3.82,14.26,.6,4.75,.63,9.35,.26,13.71-.39,4.36-1.26,8.45-2.43,12.15-1.18,3.7-2.65,7-4.15,9.92-3.34,6.77-11.45,17.84-11.45,17.84,0,0,1.87-3.47,2.86-5.01,2-3.05,4.85-7.52,7.56-13.41,1.34-2.95,2.64-6.24,3.66-9.89,1.01-3.65,1.72-7.64,1.97-11.87,.24-4.23,.12-8.73-.54-13.27-.68-4.54-1.89-9.18-3.8-13.66-3.76-9.01-9.57-16.51-15.6-22.44-6.07-5.93-12.4-10.34-17.93-13.61-5.56-3.25-10.34-5.36-13.68-6.69-1.68-.66-5.26-2.09-5.26-2.09Z"/>
      <path class="cls-5" d="M186.35,59.96c-.14-.7-.19-1.78,.14-3.09,.31-1.3,1.05-2.81,2.19-4.19,1.13-1.39,2.61-2.65,4.17-3.82,1.56-1.17,3.16-2.21,4.73-2.99,1.56-.78,3.08-1.3,4.38-1.54,1.3-.25,2.37-.26,3.09-.18,.72,.07,1.1,.16,1.1,.16,0,0-.39,.06-1.06,.21-.68,.14-1.63,.44-2.75,.93-2.26,.97-5.01,2.97-8.09,5.33-1.56,1.16-3,2.21-4.14,3.3-1.15,1.08-1.99,2.2-2.52,3.25-.54,1.04-1.23,2.62-1.23,2.62Z"/>
      <path class="cls-5" d="M201.63,50.89s.01-.39,.21-1.1c.2-.7,.64-1.72,1.52-2.79,.87-1.06,2.2-2.14,3.84-2.95,1.64-.82,3.55-1.39,5.52-1.81,3.97-.85,7.68-.9,10.34-.71,2.66,.19,4.29,.56,4.29,.56,0,0-1.67,.28-4.19,.7-2.58,.45-6.09,1.11-9.94,1.94-1.93,.41-3.72,.79-5.25,1.32-1.54,.51-2.8,1.18-3.77,1.9-.97,.72-1.62,1.47-2.01,2.02-.39,.56-.56,.91-.56,.91Z"/>
      <path class="cls-5" d="M233.53,47.58s.22-.24,.74-.57c.51-.34,1.34-.73,2.43-1.01,2.15-.55,5.24-.99,8.64-.42,3.4,.57,6.25,2.18,7.92,3.65,.84,.74,1.48,1.42,1.73,1.98,.13,.27,.18,.49,.2,.63,.02,.14,.01,.22,.01,.22,0,0-.12-.26-.51-.59-.38-.34-1.12-.7-2.08-1.14-1.91-.86-4.62-1.72-7.73-2.24-3.1-.53-6.01-.73-8.1-.81-2.06-.1-3.25,.32-3.25,.32Z"/>
      <path class="cls-5" d="M258.73,59.65s.3-.12,.83-.29c.54-.17,1.31-.41,2.3-.61,.98-.2,2.19-.37,3.56-.31,1.36,.05,2.94,.4,4.37,1.09,1.44,.69,2.6,1.53,3.64,2.32,1.05,.8,1.95,1.66,2.58,2.48,.63,.82,.99,1.58,1.16,2.11,.17,.53,.2,.83,.2,.83,0,0-.17-.24-.53-.61-.35-.38-.91-.86-1.67-1.37-.76-.51-1.73-1.03-2.86-1.61-1.15-.58-2.37-1.27-3.62-1.86-2.44-1.21-4.93-1.56-6.84-1.8-1.84-.21-3.11-.36-3.11-.36Z"/>
      <path class="cls-5" d="M279.84,77.19s.21-.07,.6-.17c.39-.1,.96-.2,1.67-.23,1.41-.08,3.44,.21,5.31,1.32,1.87,1.12,3.09,2.78,3.69,4.06,.31,.64,.49,1.19,.59,1.58,.1,.39,.13,.61,.13,.61,0,0-.17-.14-.45-.37-.28-.24-.7-.57-1.21-.97-1.02-.79-2.45-1.77-4.07-2.74-1.62-.96-3.15-1.75-4.32-2.27-.58-.26-1.07-.47-1.41-.6-.33-.14-.53-.22-.53-.22Z"/>
      <path class="cls-5" d="M293.48,100.73s.89,.65,2.06,1.91c1.17,1.26,2.6,3.16,3.61,5.54,1.01,2.38,1.38,4.74,1.47,6.45,.1,1.72-.05,2.81-.05,2.81,0,0-.47-.94-1.16-2.45-.69-1.51-1.64-3.56-2.61-5.85-.97-2.28-1.79-4.38-2.38-5.91-.59-1.53-.94-2.51-.94-2.51Z"/>
      <path class="cls-5" d="M293.93,128.85s.24,.08,.67,.32c.42,.25,1,.71,1.52,1.49,.52,.77,.94,1.84,1.13,3.05,.19,1.21,.18,2.54-.02,3.87-.43,2.62-1.25,4.83-1.95,6.45-.7,1.61-1.29,2.58-1.29,2.58,0,0-.03-1.08,.04-2.81,.07-1.71,.28-4.11,.69-6.62,.39-2.47,.56-4.62,.21-6.08-.16-.73-.42-1.29-.63-1.67-.23-.36-.37-.58-.37-.58Z"/>
      <path class="cls-5" d="M285.3,150.29s.12,.24,.32,.69c.2,.45,.44,1.11,.65,1.96,.44,1.68,.7,4.14,.12,6.75-.58,2.61-1.85,4.73-2.95,6.08-.55,.68-1.05,1.18-1.42,1.51-.37,.33-.58,.5-.58,.5,0,0,.09-.26,.24-.69,.16-.44,.37-1.08,.62-1.86,.5-1.57,1.09-3.72,1.62-6.09,.52-2.38,.88-4.56,1.08-6.18,.17-1.55,.3-2.65,.3-2.65Z"/>
      <path class="cls-5" d="M273.03,168.93s.13,.21,.34,.61c.21,.4,.47,.99,.7,1.76,.47,1.52,.72,3.82,.05,6.21-.68,2.38-2.1,4.22-3.3,5.27-.6,.54-1.13,.91-1.52,1.14-.39,.23-.61,.34-.61,.34,0,0,.11-.22,.3-.59,.2-.37,.47-.92,.77-1.59,.62-1.34,1.33-3.2,1.92-5.28,.58-2.08,.95-4.03,1.12-5.48,.09-.72,.15-1.32,.17-1.74,.03-.41,.05-.65,.05-.65Z"/>
      <path class="cls-5" d="M261.94,183.31s.17,.2,.42,.64c.25,.43,.52,1.12,.64,2.05,.28,1.85-.36,4.53-1.86,6.82-1.48,2.26-3.1,3.86-4.11,5.26-.51,.69-.91,1.29-1.16,1.74-.24,.44-.39,.71-.39,.71,0,0-.02-.28,0-.8,.02-.52,.13-1.27,.38-2.16,.49-1.8,1.75-4.01,3.15-6.14,1.37-2.11,2.38-4.05,2.73-5.57,.18-.75,.24-1.39,.23-1.84,0-.45-.02-.7-.02-.7Z"/>
      <path class="cls-5" d="M248.16,201.43s.51,.85,.93,2.35c.42,1.49,.71,3.66,.24,5.98-.47,2.31-1.57,4.22-2.53,5.43-.97,1.22-1.77,1.82-1.77,1.82,0,0,.25-.98,.6-2.32,.36-1.41,.79-3.34,1.21-5.45,.42-2.11,.76-4.04,.97-5.47,.2-1.35,.34-2.34,.34-2.34Z"/>
      <path class="cls-5" d="M237.48,219.56s.5,1.03,.94,2.78c.44,1.74,.78,4.24,.43,6.96-.35,2.71-1.31,5.05-2.18,6.63-.87,1.59-1.62,2.46-1.62,2.46,0,0,.16-1.16,.4-2.81,.25-1.72,.55-4.06,.88-6.63,.31-2.48,.59-4.79,.82-6.61,.19-1.63,.33-2.78,.33-2.78Z"/>
      <path class="cls-5" d="M229.82,240.14s.72,.59,1.54,1.8c.82,1.19,1.69,3.07,1.87,5.28,.17,2.21-.39,4.2-1.02,5.51-.62,1.32-1.24,2.02-1.24,2.02,0,0,0-.94-.01-2.22-.02-1.35-.11-3.16-.26-5.14-.16-1.97-.36-3.77-.55-5.09-.19-1.25-.33-2.17-.33-2.17Z"/>
      <path class="cls-5" d="M227.53,266.78s2.12-.22,3.26,.96c1.14,1.17,.87,3.29,.87,3.29,0,0-1.56-.35-2.7-1.52-1.14-1.17-1.43-2.72-1.43-2.72Z"/>
      <path class="cls-5" d="M230.23,282.19s.14-.48,.52-1c.37-.51,1.01-1.05,1.81-1.11,.79-.06,1.51,.38,1.96,.83,.46,.45,.67,.91,.67,.91,0,0-.31,.18-.77,.36-.46,.19-1.04,.39-1.68,.44-.64,.05-1.24-.07-1.72-.18-.47-.12-.8-.24-.8-.24Z"/>
      <path class="cls-11" d="M259.48,330.68s-.38-.5-.84-1.69c-.47-1.18-1.01-2.96-1.48-5.18-.94-4.45-1.64-10.7-1.1-17.55,.54-6.85,2.25-13,4.19-17.19,.97-2.09,2.04-3.69,2.95-4.54,.44-.43,.85-.64,1.08-.72,.23-.04,.35-.07,.35-.07,.01,.04-.33,.21-.77,1.22-.43,.98-.84,2.65-1.17,4.77-.65,4.27-1.06,10.32-1.58,16.98-.55,6.63-1.05,12.65-1.42,17.06-.16,2.18-.26,3.94-.27,5.13-.01,.6,0,1.05,.02,1.34,.02,.29,.03,.44,.03,.44Z"/>
      <path class="cls-11" d="M259.26,329.32s-.39-.63-1.04-1.76c-.65-1.15-1.57-2.78-2.68-4.74-1.14-2-2.47-4.33-3.92-6.86-1.48-2.55-3.05-5.35-4.68-8.31-3.24-5.92-5.98-11.51-7.85-15.73-1.88-4.21-2.72-7-2.72-7,0,0,1.9,2.09,4.84,5.59,2.92,3.51,6.84,8.56,10.22,14.75,1.69,3.09,3.04,6.18,4.14,9.02,.51,1.44,.99,2.8,1.39,4.1,.37,1.31,.73,2.51,.99,3.63,.24,1.12,.46,2.14,.66,3.03,.18,.89,.28,1.68,.38,2.31,.18,1.26,.27,1.97,.27,1.97Z"/>
      <path class="cls-5" d="M247.82,293.07s-.1,.1-.3,.23c-.2,.14-.52,.3-.94,.4-.83,.21-2.17,0-3.08-.97-.91-.98-1.03-2.32-.77-3.14,.12-.42,.3-.72,.46-.92,.15-.19,.25-.28,.25-.28,0,0,.19,.42,.53,.93,.34,.52,.84,1.09,1.39,1.68,.56,.59,1.09,1.12,1.59,1.49,.48,.37,.88,.59,.88,.59Z"/>
      <path class="cls-5" d="M269.73,282.98s-.5,.88-1.53,2.08c-1.03,1.18-2.63,2.71-4.9,3.67-1.13,.47-2.31,.73-3.39,.79-1.09,.03-2.08-.08-2.86-.35-.39-.1-.73-.27-1.02-.4-.29-.13-.52-.27-.71-.41-.37-.25-.55-.4-.55-.4,0,0,.24,0,.65,.02,.2,.02,.45,.02,.74,0,.29-.01,.6-.01,.96-.07,.7-.05,1.51-.26,2.39-.49,.88-.26,1.83-.62,2.83-1.03,1.99-.84,3.81-1.75,5.17-2.38,1.35-.64,2.23-1.01,2.23-1.01Z"/>
      <path class="cls-5" d="M265.44,278.25s.23-.14,.58-.35c.18-.1,.4-.23,.64-.41,.24-.17,.51-.33,.78-.56,.56-.4,1.13-.97,1.74-1.56,.66-.7,1.28-1.35,1.9-2.01,1.35-1.44,2.72-2.78,3.81-3.74,1.08-.96,1.87-1.52,1.87-1.52,0,0-.24,.87-.8,2.2-.57,1.32-1.48,3.14-3.05,4.81-.79,.83-1.66,1.52-2.54,2.03-.9,.49-1.75,.84-2.51,.97-.37,.1-.72,.12-1.02,.15-.3,.04-.56,.03-.77,.02-.4-.03-.65-.04-.65-.04Z"/>
      <path class="cls-5" d="M242.57,287.9s.5,.12,1.46,.35c.47,.12,1.09,.16,1.79,.27,.35,.06,.74,.03,1.15,.05,.41,0,.85,.04,1.31-.02,1.84-.09,4.08-.6,6.37-1.8,2.3-1.18,4.64-3,6.89-5.33,4.46-4.68,8.76-11.26,12.47-18.94,1.79-3.88,3.32-8.11,4.63-12.59,1.29-4.49,2.5-9.23,3.84-14.05,1.33-4.83,2.73-9.54,4.31-14.02,.79-2.27,1.79-4.54,3.24-6.46,1.41-1.95,3.2-3.55,5.09-4.76,1.89-1.24,3.85-2.16,5.75-2.98,1.91-.82,3.77-1.54,5.56-2.26,3.58-1.42,6.87-2.82,9.81-4.25,5.88-2.86,10.37-5.75,13.4-7.82,1.51-1.05,2.68-1.88,3.45-2.46,.78-.57,1.19-.88,1.19-.88,0,0-.39,.33-1.14,.96-2.43,3.21-10.6,8.12-16.44,11.29-2.91,1.59-6.2,3.15-9.76,4.7-3.52,1.59-7.41,3.07-10.83,5.43-1.71,1.17-3.22,2.64-4.44,4.4-1.23,1.76-2.08,3.78-2.81,5.98-1.49,4.44-2.84,9.11-4.16,13.93-1.33,4.82-2.57,9.52-3.96,14.07-1.41,4.54-3.07,8.84-5.01,12.78-.98,1.96-2.01,3.85-3.12,5.59-.55,.87-1.08,1.74-1.63,2.58-.57,.83-1.12,1.64-1.67,2.44-2.26,3.16-4.6,5.95-7.02,8.24-2.41,2.28-4.93,4.04-7.38,5.12-2.44,1.1-4.78,1.5-6.66,1.47-.47,.04-.91-.03-1.33-.06-.41-.05-.8-.04-1.16-.13-.7-.15-1.31-.23-1.78-.39-.93-.29-1.43-.44-1.43-.44Z"/>
      <path class="cls-11" d="M306.22,203.02c13.04-20.69,17.82-46.04,15.39-70.38-2.43-24.34-11.79-47.68-24.98-68.27-4.91-7.67-10.45-15.08-17.58-20.75-4.02-3.19-8.48-5.79-13.11-8.01-13.87-6.67-29.31-10.04-44.69-9.74,15.59-5.19,33.85-1.91,47.94,6.54,41.85,25.11,53.01,73,55.56,89.97,3.83,25.44,1.7,60.53-15.47,79.69"/>
      <path class="cls-11" d="M345.04,170.15c9.33-6.57,7.64-32.32,7.23-35.09-.65-4.44,.77-8.88,1.29-13.34,.71-6.15-.34-12.5-3-18.09-1.04-2.18-2.33-4.3-2.71-6.68-.54-3.4,.85-6.76,1.42-10.16,1.25-7.37-1.64-15.31-7.35-20.15-2.98-2.53-6.81-4.45-8.32-8.05-1.01-2.41-1.07-5.1-1.17-7.71-.66-18.13-14.15-23.63-17.22-26.67-3.48-3.46-21.39-9.51-26.27-9.01,5.85,.24,23.02,4.13,28.34,6.59,6.26,2.89,10.81,8.45,15.13,13.83,3.53,4.4,7.25,9.35,6.97,14.98-.09,1.7-.54,3.41-.25,5.08,.47,2.67,2.69,4.61,4.63,6.5,5.92,5.75,10.54,13.59,9.92,21.82-.22,2.94-1.1,5.81-1.13,8.75-.02,2.51,.58,4.99,1.14,7.44,5.27,23.01,5.29,65.6-8.66,69.96Z"/>
      <path class="cls-11" d="M259.78,253.91s-.04,.2-.15,.58c-.11,.38-.31,.94-.66,1.63-.35,.69-.87,1.52-1.64,2.39-.38,.43-.83,.88-1.41,1.31-.61,.44-1.37,.83-2.27,1.04-.92,.21-1.98,.19-3.06-.12-1.07-.3-2.2-.97-3.09-1.75-.46-.4-.88-.86-1.26-1.37-.39-.52-.73-1.11-1-1.67-.56-1.15-.91-2.39-1.12-3.62-.2-1.22-.26-2.42-.25-3.57,.01-1.13,.09-2.34,.34-3.66,.26-1.31,.68-2.74,1.48-4.21,.76-1.44,2.07-2.96,3.53-3.98,1.2-.84,2.36-1.37,3.38-1.76,1.07-.39,1.82-.62,2.91-.91l.93-.22c.41-.09,.81-.16,1.22-.21,.81-.1,1.61-.13,2.38-.06,1.54,.13,2.95,.69,4.1,1.52,2.18,1.62,3.14,4.23,3.19,6.61,.01,.3,.02,.59,0,.9-.01,.23-.04,.43-.06,.65-.05,.42-.11,.81-.19,1.18-.15,.74-.32,1.35-.49,2.03-.69,2.64-1.79,5.09-3.22,6.59-1.4,1.52-2.88,2.12-3.81,2.26-.47,.08-.82,.06-1.05,.04-.22-.03-.34-.05-.34-.05,0,0,.08-.07,.22-.2,.14-.14,.35-.33,.57-.63,.45-.57,.98-1.54,1.24-2.88,.26-1.31,.22-3.03-.06-5.32-.07-.55-.14-1.24-.22-1.79-.04-.27-.09-.54-.14-.78-.03-.12-.05-.25-.08-.35-.02,0-.04-.04-.06-.06-.17-.19-.38-.27-.56-.22-.09,.03-.17,.08-.21,.13-.02,.03-.04,.05-.05,.08v.04s-.2,.07-.33,.13c-.56,.22-1.47,.59-2.06,.85-.62,.28-1.09,.54-1.37,.75-.31,.24-.48,.39-.76,.8-.26,.39-.52,.96-.76,1.63-.23,.68-.43,1.47-.6,2.3-.17,.81-.29,1.52-.35,2.13-.06,.61-.07,1.13-.03,1.56,.03,.24,.03,.38,.07,.55,.04,.17,.09,.34,.15,.51,.17,.35,.18,.5,.35,.72,.15,.2,.36,.38,.6,.49,.24,.11,.51,.16,.78,.16,.38-.03,.83-.13,1.26-.27,.85-.26,1.58-.57,2.17-.87,.59-.29,1.03-.57,1.33-.76,.3-.2,.46-.3,.46-.3Z"/>
      <path class="cls-11" d="M257.54,225.32s1.79,.24,3.66,1.06c1.88,.8,3.84,2.25,4.07,4.18,.23,1.93-1.33,3.81-2.97,5.03-1.63,1.24-3.31,1.9-3.31,1.9,0,0-.86-.71-1.77-1.76-.9-1.06-1.86-2.42-2.05-3.98-.19-1.55,.42-3.1,1.05-4.33,.63-1.22,1.31-2.11,1.31-2.11Z"/>
      <path class="cls-11" d="M275.04,235.69s-.24,1.44-.87,3.06c-.63,1.62-1.58,3.39-2.89,4.15-.68,.38-1.34,.49-2.06,.47-.69,0-1.36-.16-2.1-.09-.67,.01-1.37,.57-1.71,.97-.35,.41-.58,.75-.58,.75,0,0-.23-.19-.6-.63-.22-.22-.33-.53-.5-.91-.18-.35-.17-.99-.14-1.61,.14-1.18,.68-2.36,1.38-3.3,.69-.91,1.55-1.71,2.5-2.25,1.91-1.1,3.83-1.18,5.24-1.07,1.41,.12,2.34,.46,2.34,.46Z"/>
      <path class="cls-11" d="M273.02,250.2s-1.14,.77-2.19,1.69c-1.08,.9-2.13,1.89-2.95,1.73-.83-.16-1.43-1.47-2.1-2.7-.63-1.25-1.42-2.38-1.42-2.38,0,0,.1-.18,.33-.46,.22-.28,.57-.64,1.03-.97,.91-.68,2.26-1.23,3.62-.97,1.36,.27,2.39,1.28,2.97,2.24,.6,.96,.71,1.82,.71,1.82Z"/>
      <path class="cls-11" d="M266.87,265.08s-.32-.19-.8-.44c-.48-.25-1.14-.53-1.84-.79-1.38-.54-2.87-1.03-3.33-2.12-.47-1.09,.11-2.66,.75-4.05,.65-1.38,1.36-2.57,1.36-2.57,0,0,.88,.14,1.95,.67,1.06,.53,2.31,1.46,2.95,2.93,.63,1.47,.5,3.15,.07,4.4-.21,.62-.48,1.13-.71,1.46-.23,.34-.39,.5-.39,.5Z"/>
      <path class="cls-11" d="M255.51,270.21s-5.22-4.66-4.15-7.06,8.03-1.64,8.03-1.64c0,0,2.32,3.39,1.25,5.79-1.07,2.4-5.13,2.91-5.13,2.91Z"/>
      <path class="cls-11" d="M242.96,266.58c-.16,.16-1.52-3.75,.27-5.98,.89-1.11,2.36-1.58,3.61-1.72,.62-.07,1.19-.06,1.58,0,.39,.06,.57,.19,.57,.19,.05-.12-.13,2.59-1.79,4.71-.84,1.06-1.92,1.76-2.78,2.2-.43,.22-.8,.38-1.06,.48-.25,.09-.4,.12-.4,.12Z"/>
      <path class="cls-11" d="M237.51,256.28c-.22,.02,1.3-3.83,4.12-4.35,1.4-.26,2.82,.35,3.86,1.06,.52,.35,.94,.73,1.19,1.03,.26,.3,.31,.52,.31,.52,.12-.06-1.79,1.87-4.43,2.39-1.32,.25-2.6,.07-3.54-.15-.47-.11-.85-.24-1.12-.33-.25-.1-.38-.16-.38-.16Z"/>
      <path class="cls-11" d="M239.84,247.7s.25-.89,.73-1.84c.48-.94,1.26-1.94,2.37-2.09,1.1-.14,2.32,.64,2.99,1.57,.35,.47,.51,.96,.53,1.31,0,.36-.09,.54-.09,.54-.03,0-.31,.29-.77,.68-.48,.38-1.15,.84-2.02,.95-.88,.11-1.8-.16-2.52-.46-.72-.3-1.21-.66-1.21-.66Z"/>
      <path class="cls-11" d="M246.14,229.57s1.65-.66,3.69-.65c2.02-.03,4.45,.77,5.25,2.7,.79,1.93-.37,4.22-1.83,5.62-1.45,1.44-3.08,2.14-3.08,2.14,0,0-.92-.56-1.93-1.27-1.01-.73-2.13-1.54-2.57-2.63-.45-1.09-.23-2.43-.02-3.66,.22-1.21,.49-2.24,.49-2.24Z"/>
      <path class="cls-11" d="M311.82,41.05s.14,.09,.38,.3c.24,.23,.56,.48,.94,.98,.37,.49,.8,1.21,1.08,2.23,.28,1,.43,2.33-.12,3.61-1.05,2.56-4.9,4.55-9.31,2.7-1.06-.41-2.32-1.24-2.9-1.58-.71-.45-1.46-.99-2.21-1.72-.74-.72-1.51-1.62-2.13-2.82-.31-.6-.59-1.25-.78-1.98-.19-.72-.31-1.5-.33-2.2-.02-.6,.01-1.15,.07-1.65,.03-.25,.07-.49,.11-.72l.09-.45,.1-.46c.29-1.22,.64-2.42,1.13-3.44,.98-2.06,2.51-3.42,4.34-4.03,1.76-.56,3.55-.28,5.02,.48,1.49,.74,2.71,1.94,3.64,2.98,1.36,1.71,2.26,3.5,2.5,5.1,.23,1.58-.17,2.73-.57,3.31-.2,.3-.39,.49-.53,.61-.14,.11-.21,.17-.21,.17,0,0-.05-.3-.29-.74-.23-.42-.66-.98-1.37-1.51-.34-.25-.77-.49-1.29-.76-.26-.13-.55-.26-.86-.41-.16-.07-.33-.14-.49-.22l-.26-.11-.13-.06h-.06c-.57-.01-.88,.2-.94,.57-.02,.19,.06,.35,.11,.41,.03,.03,.05,.05,.07,.06h0s0-.03,0,.04l-.02,.23c0,.13,0,.22,0,.27,.01,.09-.03,0,.02,.19,.04,.15,.18,.43,.41,.77,.23,.34,.55,.73,.93,1.14,.52,.52,.28,.42,.36,.58,.05,.23,.22,.54,.54,.76,.31,.23,.77,.35,1.17,.27,.79-.18,1.22-.95,1.49-1.6,.27-.61,.27-1.34,.29-1.3Z"/>
      <path class="cls-11" d="M315.13,31.2s.13,1.32,.5,2.59c.33,1.28,.8,2.52,.43,2.9-.37,.38-1.62-.06-2.91-.36-1.28-.34-2.61-.42-2.61-.42,0,0-.45-.66-.61-1.63-.18-.96-.07-2.16,.68-2.93,.75-.76,1.95-.89,2.9-.73,.96,.15,1.63,.58,1.63,.58Z"/>
      <path class="cls-11" d="M321.95,40.82s-.3,.18-.71,.48c-.41,.3-.91,.75-1.4,1.23-.97,.95-1.86,2.01-2.64,1.87-.78-.14-1.42-1.46-1.97-2.74-.54-1.29-.98-2.54-.98-2.54,0,0,.44-.66,1.21-1.27,.77-.61,1.88-1.17,3.07-.96,1.19,.21,2.18,1.16,2.75,2.11,.28,.47,.46,.93,.56,1.27,.09,.35,.11,.55,.11,.55Z"/>
      <path class="cls-11" d="M320.72,49.71s-6.44,2.3-7.46,.7c-1.02-1.6,3.77-6.48,3.77-6.48,0,0,3.78-.58,4.8,1.02,1.02,1.59-1.11,4.76-1.11,4.76Z"/>
      <path class="cls-11" d="M313.39,55.94c.06,.21-3.72-.22-4.35-2.2-.32-.98,.2-2.14,.84-3.01,.32-.43,.66-.8,.94-1.02,.27-.23,.5-.25,.47-.26-.03-.11,1.97,.91,2.59,2.72,.58,1.82-.48,3.85-.48,3.77Z"/>
      <path class="cls-11" d="M305.07,55.28c-.09,.2-2.67-2.6-1.85-4.51,.4-.95,1.55-1.48,2.6-1.73,.52-.12,1.02-.17,1.38-.16,.35,0,.55,.14,.53,.11,.05-.1,.89,1.98,.17,3.75-.75,1.76-2.88,2.6-2.83,2.54Z"/>
      <path class="cls-11" d="M300.83,50.52s-.65-.6-1.25-1.35c-.59-.75-1.1-1.72-.73-2.47,.36-.75,1.56-1.11,2.58-1.02,.52,.04,.96,.22,1.22,.42,.28,.2,.41,.37,.41,.37-.24,.14,.88,1.37,.34,2.48-.27,.54-.9,.93-1.48,1.19-.58,.26-1.1,.38-1.1,.38Z"/>
      <path class="cls-11" d="M292.29,39.91s.18-1.71,1.01-3.41c.79-1.69,2.38-3.3,3.99-2.99,1.6,.31,2.48,2.41,2.57,4.27,.13,1.88-.35,3.54-.35,3.54,0,0-.77,.52-1.68,1.12-.9,.56-1.79,1.18-2.5,1.04-.71-.14-1.3-1.05-1.91-1.91-.61-.91-1.12-1.68-1.12-1.68Z"/>
      <path class="cls-11" d="M334.59,82.27s.11,.09,.28,.27c.17,.19,.42,.48,.66,.91,.24,.43,.49,1,.63,1.72,.12,.7,.25,1.69-.57,2.85-.84,1.13-2.4,1.84-4.02,1.83-.8,.02-1.75-.21-2.5-.51-.78-.31-1.49-.75-2.1-1.21-.61-.46-1.14-.96-1.6-1.43-.46-.48-.92-1.04-1.36-1.77-1.03-1.74-1.58-4.03-1.06-6.21,.12-.54,.3-1.07,.52-1.58,.22-.51,.51-1.04,.68-1.3,.21-.33,.35-.53,.57-.83,.21-.3,.46-.63,.78-.99,.62-.7,1.5-1.61,3.02-2.26,1.51-.67,3.45-.57,4.7,.04,1.26,.59,1.89,1.34,2.33,1.96,.43,.63,.68,1.22,.83,1.7,.28,.94,.56,1.97,.65,2.94,.1,.97,.02,1.9-.23,2.61-.24,.72-.61,1.22-.97,1.56-.36,.34-.69,.52-.93,.62-.23,.1-.37,.13-.37,.13,0,0,0-.09-.05-.25-.03-.16-.1-.39-.24-.64-.13-.25-.34-.53-.6-.75-.26-.22-.57-.42-1-.7-.42-.28-.95-.61-1.64-1.11-.31-.22-.56-.33-.71-.34-.04,0-.06,.01-.08,.02,.05-.06,.19-.24,.27-.36l.25-.37c.3-.46,.47-.86,.55-1.12,.08-.25,.07-.37,.07-.33,0-.03-.02-.01,.1,.22,.11,.22,.35,.56,.8,1.02l.39,.37,.48,.42,.26,.21h0s0,.02,0,.04c-.01,.06-.06,.17-.14,.34l-.26,.57c-.1,.22-.04,.14-.05,.16h0s-.07-.03-.12,.1c.07,.4,.5,1.32,.59,1.64,.06,.19,.07,.3,.03,.4-.02,.03,0,.01-.05,.09l-.03,.06c-.7,1.31-.19,.36-.35,.65h0s0,0,0,0h0s0-.03,0-.03l.03-.06c.03-.07,.03-.07,.02-.03-.02,.09-.06,.4,0,.69,.04,.28,.16,.52,.19,.55v.02s-.1-.14-.1-.14c-.06-.06-.12-.13-.22-.21-.09-.07-.2-.17-.32-.25,.02,.01,.05,.02,.08,.03,.12,0,.29-.09,.45-.23,.33-.27,.59-.57,.8-.83,.42-.53,.62-.91,.62-.91Z"/>
      <path class="cls-11" d="M324.27,72.2s1.24-1.17,2.77-2.09c1.52-.94,3.37-1.58,4.19-.82,.82,.76,.32,2.65-.5,4.24-.81,1.6-1.87,2.93-1.87,2.93,0,0-.9,.28-1.91,.47-1.01,.19-2.1,.31-2.64-.18-.54-.5-.49-1.59-.38-2.61,.12-1.01,.34-1.93,.34-1.93Z"/>
      <path class="cls-11" d="M334.75,69.52s.92,.94,1.75,2.06c.83,1.12,1.61,2.38,1.41,2.97-.12,.31-.45,.41-.94,.49-.23,0-.52,.06-.8,.07-.31,.02-.59,.19-.87,.35-.55,.33-.91,.73-1.22,1.04-.3,.33-.49,.55-.49,.55,0,0-.24,0-.64-.06-.39-.07-.9-.29-1.37-.73-.46-.35-.86-1.36-.97-2.13-.13-.76-.09-1.52,.13-2.13,.45-1.24,1.49-1.84,2.38-2.15,.89-.3,1.65-.34,1.65-.34Z"/>
      <path class="cls-11" d="M339.3,75.72s-.16,1.3-.02,2.57c.09,1.28,.38,2.53,.11,2.68-.27,.16-1.19-.73-2.24-1.47-1.03-.77-2.22-1.29-2.22-1.29,0,0-.3-.69-.29-1.57,0-.87,.27-1.89,1.01-2.31,.74-.42,1.75-.13,2.48,.33,.75,.45,1.18,1.06,1.18,1.06Z"/>
      <path class="cls-11" d="M342.42,83.97s-.32,.11-.76,.32c-.45,.21-1,.55-1.53,.93-1.06,.76-2,1.66-2.47,1.42-.47-.23-.48-1.58-.49-2.91,.02-1.33,.04-2.62,.04-2.62,0,0,.5-.54,1.25-.97,.74-.43,1.74-.75,2.58-.34,.84,.41,1.32,1.47,1.46,2.43,.07,.47,.07,.92,.03,1.24-.04,.32-.1,.5-.1,.5Z"/>
      <path class="cls-11" d="M339.91,90.05s-6.71,.81-7.1-.52c-.39-1.33,5.69-4.28,5.69-4.28,0,0,3.68,.1,4.07,1.42,.39,1.33-2.65,3.38-2.65,3.38Z"/>
      <path class="cls-11" d="M333.29,92.99c0,.22-3.46-.82-3.5-2.36-.02-.76,.8-1.49,1.65-1.97,.42-.24,.85-.42,1.17-.51,.33-.09,.53-.04,.53-.04,0-.12,1.67,.99,1.73,2.36,.04,1.37-1.59,2.6-1.58,2.52Z"/>
      <path class="cls-11" d="M327.57,90.99c-.14,.17-2.08-2.88-1.1-4.08,.48-.59,1.58-.6,2.54-.41,.48,.09,.92,.24,1.22,.38,.31,.15,.43,.32,.43,.32,.07-.1,.62,1.84-.24,2.92-.87,1.06-2.9,.93-2.85,.87Z"/>
      <path class="cls-11" d="M325.54,86.82s-.51-.7-.95-1.48c-.44-.79-.76-1.72-.33-2.2,.43-.47,1.54-.37,2.4,.08,.44,.21,.74,.54,.94,.8,.2,.27,.3,.46,.3,.46,.02-.01-.07,.47,.14,.87,.15,.43,.25,.92-.03,1.22-.54,.6-2.47,.25-2.47,.25Z"/>
      <path class="cls-11" d="M321.47,77.92s.52-1.61,1.59-3.06c1.03-1.46,2.74-2.65,3.91-2.05,1.17,.6,1.2,2.69,.61,4.38-.56,1.71-1.57,3.07-1.57,3.07,0,0-.84,.4-1.68,.83-.86,.42-1.66,.94-2.02,.75-.36-.18-.4-1.13-.56-2.08-.15-.98-.29-1.85-.29-1.85Z"/>
      <path class="cls-11" d="M341.23,120.35s.07,.11,.18,.34c.11,.23,.25,.58,.35,1.06,.1,.48,.16,1.1,.08,1.83-.1,.7-.28,1.68-1.41,2.53-1.14,.82-2.85,1.02-4.39,.52-.77-.23-1.6-.73-2.23-1.25-.65-.54-1.19-1.17-1.63-1.8-.44-.63-.79-1.26-1.08-1.85-.29-.59-.56-1.27-.76-2.1-.45-1.97-.28-4.32,.89-6.24,.28-.48,.62-.93,.98-1.35,.36-.42,.8-.83,1.04-1.03,.3-.25,.5-.4,.79-.62,.29-.22,.63-.46,1.04-.7,.81-.47,1.92-1.08,3.57-1.23,1.65-.17,3.46,.51,4.46,1.47,1.02,.95,1.39,1.86,1.62,2.58,.22,.73,.28,1.37,.27,1.88-.02,.98-.07,2.04-.28,3-.2,.96-.56,1.82-1.02,2.42-.45,.61-.95,.98-1.4,1.19-.44,.22-.82,.29-1.07,.31-.25,.02-.39,.01-.39,.01,0,0,.02-.09,.03-.25,.01-.16,.02-.4-.03-.68-.05-.28-.16-.6-.34-.89-.18-.29-.42-.57-.73-.97-.32-.4-.72-.87-1.22-1.56-.23-.3-.43-.49-.57-.54-.04-.02-.06,0-.08,0,.07-.04,.25-.17,.37-.26l.35-.27c.43-.35,.71-.67,.86-.9,.15-.21,.18-.33,.17-.29,.01-.03-.02-.02,.02,.24,.04,.24,.16,.64,.45,1.22l.26,.47,.33,.54,.19,.28h0s0,.03-.01,.04c-.03,.05-.11,.15-.23,.28l-.43,.46c-.16,.18-.08,.12-.09,.14h0s-.06-.05-.14,.06c-.05,.41,.08,1.41,.06,1.74,0,.2-.03,.31-.09,.39-.03,.03,0,.01-.08,.07l-.05,.05c-1.07,1.03-.29,.29-.53,.52h0s0,0,0,0h0s.01-.02,.01-.02l.05-.05c.05-.06,.05-.06,.03-.03-.05,.08-.18,.36-.22,.65-.05,.28,0,.54,.02,.58v.02s-.06-.16-.06-.16c-.04-.08-.08-.16-.14-.26-.06-.1-.14-.22-.23-.34,.02,.02,.04,.04,.07,.05,.11,.04,.3,0,.5-.08,.39-.16,.74-.36,1.02-.55,.56-.38,.87-.67,.87-.67Z"/>
      <path class="cls-11" d="M334.47,107.61s1.54-.73,3.28-1.15c1.73-.43,3.69-.48,4.24,.49,.55,.97-.5,2.63-1.77,3.89-1.25,1.28-2.68,2.21-2.68,2.21,0,0-.94,0-1.96-.13-1.02-.13-2.09-.34-2.46-.98-.36-.64,.02-1.67,.43-2.6,.42-.93,.91-1.74,.91-1.74Z"/>
      <path class="cls-11" d="M345.27,108.25s.59,1.17,1.03,2.5c.45,1.32,.81,2.75,.43,3.26-.21,.26-.55,.25-1.05,.18-.22-.06-.51-.1-.79-.18-.3-.08-.62,0-.94,.07-.63,.15-1.09,.42-1.48,.62-.39,.22-.64,.37-.64,.37,0,0-.23-.07-.59-.25-.35-.19-.77-.55-1.08-1.12-.33-.47-.4-1.55-.28-2.32,.11-.76,.37-1.47,.77-1.99,.81-1.05,1.98-1.29,2.92-1.32,.94-.02,1.68,.18,1.68,.18Z"/>
      <path class="cls-11" d="M347.7,115.55s-.54,1.19-.81,2.44c-.3,1.25-.41,2.52-.72,2.58-.31,.07-.91-1.06-1.68-2.09-.74-1.05-1.72-1.91-1.72-1.91,0,0-.07-.75,.2-1.58,.26-.83,.83-1.71,1.67-1.89,.83-.17,1.7,.41,2.26,1.07,.57,.66,.8,1.37,.8,1.37Z"/>
      <path class="cls-11" d="M348.16,124.36s-.34,0-.82,.07c-.49,.06-1.12,.22-1.74,.42-1.24,.39-2.41,.97-2.78,.6-.38-.36,.02-1.66,.42-2.92,.42-1.26,.84-2.48,.84-2.48,0,0,.64-.36,1.48-.54,.84-.19,1.88-.18,2.56,.47,.68,.65,.81,1.8,.65,2.76-.08,.47-.22,.9-.35,1.18-.13,.29-.25,.45-.25,.45Z"/>
      <path class="cls-11" d="M343.92,129.37s-6.64-1.28-6.6-2.66,6.73-2.34,6.73-2.34c0,0,3.47,1.21,3.44,2.6-.03,1.38-3.56,2.41-3.56,2.41Z"/>
      <path class="cls-11" d="M336.72,130.16c-.06,.21-3.04-1.83-2.61-3.32,.21-.73,1.22-1.17,2.17-1.37,.48-.1,.94-.14,1.28-.13,.34,.01,.52,.12,.52,.12,.03-.12,1.29,1.45,.93,2.78-.38,1.32-2.31,1.99-2.28,1.92Z"/>
      <path class="cls-11" d="M331.88,126.5c-.18,.12-1.1-3.38,.19-4.22,.64-.42,1.69-.09,2.54,.38,.43,.23,.81,.51,1.05,.74,.25,.23,.31,.43,.31,.43,.1-.07,.02,1.94-1.12,2.71-1.15,.75-3.05,0-2.98-.04Z"/>
      <path class="cls-11" d="M331.21,121.91s-.27-.82-.45-1.7c-.18-.88-.2-1.87,.36-2.19,.55-.32,1.58,.12,2.26,.8,.36,.34,.54,.75,.65,1.05,.11,.32,.14,.53,.14,.53,.02,0-.21,.42-.13,.87,0,.45-.04,.95-.4,1.15-.7,.41-2.43-.52-2.43-.52Z"/>
      <path class="cls-11" d="M330.06,112.19s.99-1.38,2.45-2.43c1.42-1.08,3.42-1.69,4.35-.76,.93,.93,.32,2.93-.76,4.35-1.05,1.46-2.43,2.45-2.43,2.45,0,0-.92,.12-1.86,.28-.95,.14-1.86,.39-2.15,.1-.29-.29-.04-1.2,.1-2.15,.15-.97,.29-1.85,.29-1.85Z"/>
      <path class="cls-11" d="M339.85,158.17s.03,.12,.05,.35c.02,.23,.03,.56-.04,.98-.07,.42-.22,.94-.54,1.5-.16,.28-.36,.57-.67,.85-.36,.28-.66,.51-1.06,.67-.78,.33-1.69,.37-2.6,.13-.92-.28-1.79-.71-2.66-1.83-.42-.58-.86-1.4-1.04-2.71-.17-1.29,0-3.09,.62-4.84,.59-1.78,1.8-3.28,3.01-4.12,1.23-.87,2.44-1.25,3.63-1.54,1.59-.4,3.07-.31,4.05,.05,.99,.35,1.59,.83,2.15,1.42,.71,.74,1.31,1.89,1.41,3.02,.12,1.13-.14,2.21-.54,3.14-.79,1.88-1.87,3.05-2.92,3.57-1.05,.53-2.03,.5-2.53,.26-.26-.11-.42-.26-.51-.36-.09-.11-.13-.17-.13-.17,0,0,.06-.17,.05-.44,0-.14-.02-.3-.06-.49,.01-.24-.01-.49-.08-.75-.13-.51-.44-.96-.75-1.19-.29-.24-.68-.26-.92-.11-.18,.11-.19,.18-.19,.18,.02,0-.05-.1-.2,.19-.15,.25-.22,1.01,.2,1.54,.05,.06,.1,.12,.16,.17l.04,.04s.01,.01,.02,.02h0s0,0,0,0c.04,.32-.09-.71,.09,.71v-.02s0-.04,0-.04c-.02-.13-.04-.26-.07-.42l-.02-.11v.02s.02,.03,.03,.04c.01,.02,.04,.04,.06,.06,.05,.04,.12,.07,.2,.09,.31,.09,.62,.14,.89,.15,.53,.03,.88-.01,.88-.01Z"/>
      <path class="cls-11" d="M339.89,147.01s1.69,.02,3.4,.36c1.71,.33,3.44,1.05,3.46,1.97,.01,.93-1.69,1.7-3.4,2.08-1.7,.39-3.39,.46-3.39,.46,0,0-.84-.38-1.68-.85-.84-.48-1.69-1-1.7-1.55,0-.54,.83-1.09,1.66-1.59,.83-.49,1.65-.89,1.65-.89Z"/>
      <path class="cls-11" d="M347.42,151.28s.03,1.29-.08,2.63c-.11,1.34-.3,2.72-.69,2.89-.22,.09-.43-.13-.76-.48-.24-.41-.83-.74-1.38-1-.57-.25-1.04-.34-1.46-.46-.42-.1-.71-.17-.71-.17,0,0-.16-.17-.36-.47-.2-.3-.38-.76-.4-1.32,0-.55,.1-1.17,.57-1.81,.39-.57,.88-1.02,1.38-1.24,1.02-.45,2-.05,2.71,.42,.71,.47,1.18,1.02,1.18,1.02Z"/>
      <path class="cls-11" d="M346.57,157.33s-1.01,.81-1.77,1.83c-.79,.99-1.39,2.1-1.58,2.04-.19-.05-.06-1.31-.17-2.58-.08-1.27-.44-2.5-.44-2.5,0,0,.2-.68,.77-1.3,.55-.62,1.36-1.13,2.06-.92,.7,.21,1.08,1.1,1.19,1.91,.12,.81-.06,1.52-.06,1.52Z"/>
      <path class="cls-11" d="M343.63,163.86s-.3-.14-.76-.29c-.46-.15-1.09-.28-1.73-.35-1.27-.15-2.54-.07-2.65-.43-.11-.35,.91-1.17,1.91-2,1-.82,1.99-1.63,1.99-1.63,0,0,.71-.07,1.49,.09,.78,.15,1.65,.52,1.88,1.27,.24,.75-.23,1.69-.83,2.36-.3,.33-.63,.59-.88,.76-.26,.17-.43,.23-.43,.23Z"/>
      <path class="cls-11" d="M338.82,165.88s-5.33-4.1-4.78-5.05c.55-.95,6.77,1.61,6.77,1.61,0,0,2.58,2.53,2.04,3.48-.55,.95-4.02-.03-4.02-.03Z"/>
      <path class="cls-11" d="M333.26,163.56s.12,.07,.06,.03c-.02-.02-.04-.04-.08-.07-.06-.07-.16-.16-.25-.3-.18-.27-.39-.67-.57-1.09-.36-.85-.58-1.83-.15-2.27,.43-.44,1.43-.24,2.29,.1,.43,.17,.83,.38,1.09,.57,.27,.19,.36,.38,.36,.38,.09-.08,.63,1.74-.11,2.51-.38,.39-1.03,.44-1.58,.4-.28-.02-.52-.06-.7-.11-.1-.01-.14-.06-.19-.07-.02,0-.04-.02-.05-.02,0,0-.03-.02-.07-.04-.03-.02-.04-.03-.04-.03Z"/>
      <path class="cls-11" d="M331.25,159.2s.04,.13,.02,.07c0-.02,0-.06-.01-.11,0-.09-.02-.23,0-.39,.04-.32,.14-.76,.28-1.2,.29-.88,.76-1.76,1.37-1.82,.61-.05,1.24,.75,1.66,1.57,.21,.41,.38,.83,.45,1.15,.08,.32,.02,.52,.02,.52,.12,0-.66,1.73-1.73,1.82-.54,.04-1.07-.34-1.46-.73-.2-.2-.35-.39-.46-.54-.06-.07-.07-.14-.1-.18-.01-.02-.02-.04-.03-.05,0,.01-.01-.03-.02-.07,0-.03-.01-.05-.01-.05Z"/>
      <path class="cls-11" d="M332.52,155.86s.11-.84,.3-1.7c.2-.85,.55-1.72,1.09-1.74,.53-.02,1.12,.86,1.32,1.77,.12,.46,.05,.89,0,1.21-.07,.32-.14,.52-.14,.52,0,0-.07,.08-.18,.2-.11,.13-.25,.31-.27,.53-.14,.42-.32,.84-.62,.84-.59,.02-1.5-1.65-1.5-1.65Z"/>
      <path class="cls-11" d="M335.12,148.67s1.49-.79,3.22-1.12c1.71-.36,3.69-.09,4.01,1,.32,1.1-1.19,2.4-2.83,3.02-1.63,.66-3.31,.8-3.31,.8,0,0-.87-.26-1.76-.45-.89-.21-1.79-.28-1.86-.5-.07-.22,.66-.76,1.29-1.42,.65-.64,1.24-1.33,1.24-1.33Z"/>
      <path class="cls-10" d="M365,366.89c-1.93,1.53-4.51,1.96-6.97,2.06-4.81,.19-9.87-.81-13.58-3.88-3.71-3.07-5.64-8.55-3.64-12.94,1.56-3.42,5.06-5.54,7.19-8.64,4.29-6.23,2.84-15.94,8.92-20.43,3.12-2.31,7.83-2.68,10.97-.41,2.76,4.36,8.28,28.43,10.72,35.58-3.31,2.27-10.56,6.23-13.62,8.66Z"/>
      <path class="cls-5" d="M194.56,223.68s.56,.04,1.5,.12c.24,.02,.5,.05,.79,.07,.29,0,.61,0,.94,.01,.68,0,1.43,.05,2.27-.02,.42-.02,.86-.04,1.31-.06,.46-.05,.93-.1,1.41-.15,.97-.07,2-.27,3.08-.4,2.16-.37,4.52-.83,7.03-1.31,5.01-.99,9.76-1.56,13.2-1.48,.86-.01,1.64,.07,2.31,.11,.68,.04,1.26,.12,1.73,.2,.92,.16,1.46,.25,1.46,.25,0,0-.53,.05-1.46,.15-.47,.04-1.04,.1-1.7,.2-.66,.1-1.41,.18-2.23,.35-3.31,.54-7.78,1.71-12.88,2.72-2.55,.49-5.04,.81-7.31,.94-1.15,.02-2.23,.08-3.25,0-.51-.03-1-.05-1.47-.09-.47-.06-.92-.12-1.35-.18-.86-.09-1.62-.3-2.29-.45-.67-.14-1.23-.32-1.69-.49-.9-.32-1.4-.5-1.4-.5Z"/>
      <path class="cls-5" d="M191.98,247.62s.03,.05,.09,.15c.02,.03,.08,.17,.07,.14h0s.01,0,.09-.02c.13-.03,.36-.06,.66-.1,.61-.07,1.5-.17,2.65-.31,2.3-.26,5.65-.59,9.72-1.26,2.01-.36,4.28-.76,6.41-1.62,.25-.12,.52-.23,.75-.37,.14-.09,.16-.1,.21-.14l.12-.11c.07-.08,.13-.17,.15-.27,.05-.11-.04-.2-.15-.23-.1-.04-.2-.06-.29-.07h-.08s-.22-.06-.22-.06l-.46-.09c-.63-.11-1.28-.21-1.95-.3-5.35-.63-11.39-.98-17.65-1.24-.81-.03-1.72-.07-2.67-.38-.48-.16-.94-.37-1.41-.71-.46-.35-.83-.77-1.1-1.26-.28-.49-.46-1.06-.47-1.7-.01-.63,.21-1.32,.6-1.81,.38-.52,.91-.86,1.39-1.07,.49-.21,.95-.31,1.39-.37,.89-.12,1.66-.08,2.38-.08,.73,0,1.46,0,2.18,0,1.43,.01,2.84,.03,4.22,.04,5.49,.07,10.44,.2,14.6,.34,8.31,.28,13.46,.62,13.46,.62,0,0-5.17,.3-13.49,.65-4.16,.18-9.12,.36-14.62,.54-1.37,.04-2.78,.08-4.22,.12-.72,.02-1.45,.04-2.18,.06-.75,.02-1.45,.02-2.03,.13-.6,.1-1,.33-1.09,.51-.06,.12-.08,.18-.07,.32,0,.14,.07,.32,.18,.5,.37,.7,1.61,.99,3.16,1,6.38,.28,12.38,.77,17.88,1.67,.69,.12,1.37,.25,2.05,.41,.43,.11,2.05,.48,2.66,1.15l.21,.27c.03,.12,.06,.22,.08,.34,.03,.06-.01,.13,.07,.17l-.02,.18-.04,.36c-.1,.22-.14,.46-.28,.67-.17,.2-.28,.42-.49,.6l-.64,.51c-.11,.08-.24,.14-.36,.2l-.25,.13c-.32,.15-.64,.28-.95,.39-2.5,.81-4.77,1.02-6.86,1.24-4.16,.36-7.51,.36-9.82,.39-1.15,0-2.04,.01-2.65,.02-.3,0-.53,.01-.66,.02-.08,0-.12,.01-.09,0h0s-.05-.12-.07-.15c-.06-.1-.09-.15-.09-.15Z"/>
      <path class="cls-25" d="M223.58,110.23s.05,.24,.14,.67c.07,.43,.29,1,.57,1.66,.59,1.32,1.65,2.91,3.01,4.66,2.73,3.5,6.65,7.65,10.49,11.77,1.93,2.08,3.72,3.93,5.54,5.49,1.82,1.54,3.74,2.82,5.73,3.63,1.98,.83,3.9,1.16,5.31,1.4,1.43,.16,2.26,.25,2.26,.25,0,0-.59,.47-1.77,1.26-1.22,.69-3.1,1.71-5.79,2.17-2.66,.48-6.08,.27-9.47-.98-3.37-1.25-6.64-3.47-9.27-6.31-2.66-2.84-4.5-5.98-5.76-8.97-1.25-3-1.93-5.87-2.17-8.36-.25-2.49-.08-4.59,.3-6.07,.2-.75,.39-1.31,.59-1.71,.19-.38,.29-.58,.29-.58Z"/>
      <path class="cls-25" d="M253.24,144.2s-.06,.05-.16,.15c-.11,.09-.27,.25-.52,.39-.48,.31-1.28,.66-2.34,.8-2.13,.32-5.18-.23-7.99-1.72-2.83-1.48-4.94-3.51-6.25-5.13-.66-.81-1.12-1.53-1.4-2.04-.28-.51-.38-.81-.38-.81,0,0,.91,.8,2.59,1.87,1.66,1.08,4.01,2.49,6.63,3.86,2.62,1.38,5.06,2.39,6.88,2.69,.91,.16,1.65,.15,2.15,.08,.26-.02,.45-.08,.58-.1,.13-.03,.21-.04,.21-.04Z"/>
      <path class="cls-25" d="M203.99,86.8s-.1,.11-.34,.3c-.23,.22-.66,.44-1.27,.69-1.23,.47-3.27,.77-5.74,.53-2.48-.22-5.37-.98-8.29-2.44-2.91-1.47-5.87-3.65-8.25-6.73-2.39-3.05-3.88-6.75-4.26-10.3-.38-3.56,.39-6.83,1.63-9.08,1.24-2.29,2.83-3.59,3.87-4.39,1.16-.75,1.81-1.05,1.81-1.05,0,0-.14,.68-.4,1.78-.16,1.14-.42,2.72-.27,4.52,.14,1.81,.67,3.78,1.6,5.84,.96,2.06,2.34,4.25,4.09,6.48,3.49,4.47,7.52,8.36,10.63,10.76,1.56,1.21,2.89,2.05,3.8,2.49,.44,.21,.81,.38,1.03,.45,.24,.09,.36,.13,.36,.13Z"/>
      <path class="cls-25" d="M174.94,54.81s-.02,.09-.07,.25c-.04,.16-.12,.38-.16,.68-.11,.59-.16,1.42-.05,2.39,.21,1.96,1.03,4.47,1.97,7.27,.85,2.59,1.69,5.14,2.42,7.35,.32,.96,.6,1.75,.82,2.3,.22,.55,.36,.87,.36,.87,0,0-1.06-.84-2.28-2.54-1.23-1.68-2.72-4.17-3.73-7.2-1.02-3.02-1.28-6.04-.82-8.19,.22-1.08,.61-1.91,.95-2.42,.16-.26,.32-.44,.43-.57,.1-.12,.16-.19,.16-.19Z"/>
      <path class="cls-3" d="M187.41,325.61c.94,5.21-3.77,13.07-8.35,15.79-5.93,3.52-11.21,5.07-17.02,1.11-2.78-1.9-5.18-5.29-3.95-8.32-4.06,1.04-8.75-.58-11.34-3.9-2.59-3.32-2.93-8.15-.81-11.69,.21-.35,.45-.71,.44-1.12,0-.58-.5-1.04-.91-1.47-3.03-3.14-3.3-8.28-1.09-11.91,2.21-3.63,7.93-6.55,12.28-6.76,4.35-.21,24.26-7.58,30.76,28.27Z"/>
      <path class="cls-14" d="M166.19,308.82c-8.01-.92-19.76,7.56-20.03,9.74,.88-7.11,11.15-11.45,20.03-9.74Z"/>
      <path class="cls-14" d="M171.98,317.35c-7.59,2.45-14.21,14.91-13.97,17.11-2.7-6.97,5.26-15.03,13.97-17.11Z"/>
      <path class="cls-14" d="M173.38,285.66c-1.94,4.11-9.16,7.24-13.71,6.86-5.9-.5-10.36-2.06-12.44-7.73-.99-2.71-.97-6.28,1.4-7.78-3.35-1.3-5.82-4.77-5.97-8.39-.15-3.61,2.03-7.16,5.27-8.57,.32-.14,.67-.27,.87-.56,.29-.41,.17-.98,.1-1.49-.55-3.71,1.83-7.43,5.19-8.86,3.36-1.43,8.81-.61,11.95,1.41,3.14,2.02,20.72,6.82,7.36,35.1Z"/>
      <path class="cls-1" d="M166.95,263.35c-5.13-4.64-17.57-4.59-18.85-3.2,4.16-4.52,13.5-2.43,18.85,3.2Z"/>
      <path class="cls-1" d="M166.73,272.19c-6.52-2.08-17.37,3.31-18.3,4.98,1.59-6.22,11.18-7.87,18.3-4.98Z"/>
      <path class="cls-3" d="M299.85,453.25c2.09-1.37,3.98-3.08,5.32-5.19,3.07-4.83,2.85-11.04,1.68-16.64-.44-2.1-1.04-4.24-2.4-5.9-1.17-1.43-2.81-2.37-4.43-3.27-16.98-9.42-35.82-16.82-55.22-16.11-13.34,.48-26.92,5.4-36.8,14.52-4.83,4.46-7.33,9.76-10.93,15.04-4.35,6.37-10.28,11.49-14.14,18.27-1.32,2.31-2.91,4.67-5.36,5.72-3.79,1.63-10.68,3.56-14.7,2.64-11.72-2.68-19.39,4.4-21.19,16.29-1.74,11.5,8.79,16.45,19.61,20.72,.18,.08,.36,.16,.54,.23,19.01,8.03,37.56-2.41,51.06-15.67,6.48-6.37,12.16-13.51,17.39-20.92,2.02-2.87,4.48-5.35,6.34-8.33,3.63-5.84,6.97-8.89,13-6.47,.32,.13,40.24,11.59,50.22,5.05Z"/>
      <g>
        <path class="cls-14" d="M180.58,457.45c-.45,.54,3.19,4.19,3.63,4.73,6.92,8.37,16.21,20.86,26.16,25.19,.17-1.35,5.96-6.63,9.58-11.02-7.48,4.96-38.26-20.24-39.37-18.9Z"/>
        <path class="cls-12" d="M180.64,504.42c.38,0,2.37,.48,2.75,.54,.49,.07,.97,.14,1.46,.21,.37,.05,.75,.11,1.11,.22,.07,.02,.15,.05,.2,.12,.04,.06,.05,.13,.04,.2-.01,1.01-1.29,3.18-1.34,3.3-.5-.58-3.96-4.59-4.22-4.59Z"/>
        <path class="cls-20" d="M172.28,460.66c-1.76,.66-3.72,.21-5.53-.29-6.5-1.77-18-3.03-24.16,6.5-10.7,16.56,.22,32.42,31.52,38.42,3.76-1.79,9.83-.52,13.07-.16,4.36,.48,5.41,3.42,10.39,3.51,8.24,.14,13.93-13.14,17.25-23.69,.43-1.37-.19-2.84-1.47-3.5-13-6.7-25.15-18.48-36.62-26.77-.6-.44-1.35-.66-2.09-.53-3.25,.55-.05,5.63-2.37,6.51Z"/>
        <path class="cls-3" d="M191.48,480.31s0-.41-.19-1.06c-.18-.65-.55-1.52-1.16-2.46-1.21-1.9-3.33-4.14-5.73-6.55-2.41-2.41-4.66-4.57-6.44-6.02-.89-.73-1.66-1.28-2.23-1.63-.29-.17-.52-.3-.68-.38-.16-.08-.25-.13-.25-.13,0,0,.1,.01,.28,.03,.18,.01,.45,.06,.78,.13,.67,.15,1.61,.45,2.71,.95,2.19,1,4.97,2.82,7.54,5.39,2.56,2.56,4.38,5.41,5.13,7.76,.38,1.17,.48,2.19,.44,2.89-.03,.7-.2,1.08-.18,1.08Z"/>
        <path class="cls-3" d="M184.02,479.1s-.01-.09-.04-.26c-.02-.17-.06-.42-.14-.72-.16-.61-.49-1.42-1.05-2.29-1.1-1.77-3.08-3.78-5.36-5.92-2.28-2.14-4.44-4.05-6.13-5.34-1.67-1.31-2.97-1.93-2.97-1.93,0,0,.09,0,.25,.02,.17,.01,.41,.04,.72,.1,.62,.11,1.51,.35,2.54,.76,2.07,.82,4.76,2.37,7.22,4.68,2.46,2.31,4.19,4.98,4.82,7.2,.33,1.1,.38,2.06,.31,2.71-.02,.32-.08,.57-.13,.74-.04,.16-.06,.25-.06,.25Z"/>
        <path class="cls-3" d="M176.48,479.01s-.07-.34-.18-.89c-.03-.28-.16-.6-.29-.97-.1-.37-.29-.77-.5-1.19-.8-1.72-2.34-3.73-4.14-5.86-1.83-2.1-3.58-3.99-5.07-5.21-.73-.63-1.38-1.08-1.86-1.39-.48-.28-.78-.46-.78-.46,0,0,.33,.04,.89,.11,.57,.1,1.39,.3,2.33,.71,1.9,.78,4.27,2.39,6.3,4.73,2,2.37,3.21,5.03,3.47,7.1,.03,.25,.06,.5,.09,.73,.02,.23,0,.46,0,.67-.01,.41,0,.76-.09,1.05-.12,.55-.19,.87-.19,.87Z"/>
        <path class="cls-18" d="M178.69,503.31c19.63,1,29.23-1.96,30.86-5.13-.63,2.75-4.59,7.95-6.23,9.86-2.09,2.43-15.41,2-18.46,.98,.02-.76,1.01-2.48,1.03-3.24-6.7-2.26-7.2,1.21-9.59,1.53-11.79-1.16-22.4-6.7-30.12-12.56-3.26-2.47-8.16-8.04-7.29-12.61,9.27,15.33,33.15,20.83,39.78,21.17Z"/>
        <path class="cls-2" d="M181.54,492.61s-.13,.08-.36,.22c-.24,.14-.6,.37-1.1,.57-.99,.46-2.54,.93-4.53,1.14-3.98,.46-9.64-.27-15.15-2.76-5.52-2.48-9.8-6.17-12.21-9.39-1.21-1.6-1.92-3.13-2.12-4.17-.21-1.07,.07-1.49,.03-1.48,.03,0,.08,.42,.63,1.15,.55,.73,1.58,1.72,3.06,2.76,2.95,2.11,7.48,4.54,12.59,6.83,5.11,2.3,9.87,4.01,13.4,4.7,1.76,.36,3.21,.49,4.21,.48,.51,.03,.88-.02,1.15-.03,.27-.01,.41-.02,.41-.02Z"/>
      </g>
      <path class="cls-14" d="M335.95,451.14s-.42,.19-1.23,.55c-.81,.36-2,.89-3.55,1.53-3.11,1.27-7.64,3.07-13.42,4.78-5.78,1.71-12.82,3.37-20.83,4.05-7.98,.67-17.01,.28-26.01-2.35-4.49-1.31-8.72-3.1-12.59-5.18-1.94-1.04-3.78-2.15-5.56-3.25-1.77-1.09-3.49-2.25-5.16-3.03-.84-.38-1.64-.61-2.09-.35-.83,.37-1.61,.82-2.33,1.34-1.45,1.05-2.67,2.35-3.82,3.67-2.28,2.7-4.4,5.23-6.35,7.53-7.8,9.19-12.75,14.81-12.75,14.81,0,0,4.55-5.99,11.88-15.61,1.85-2.4,3.87-5.03,6.04-7.84,1.13-1.4,2.39-2.86,4-4.09,.81-.62,1.67-1.15,2.65-1.61,.72-.32,1.46-.28,2.06-.17,.6,.12,1.13,.31,1.63,.53,1.96,.88,3.66,1.99,5.47,3.04,1.79,1.06,3.61,2.11,5.51,3.08,3.79,1.96,7.88,3.64,12.21,4.89,8.68,2.51,17.39,3.03,25.2,2.57,7.84-.45,14.83-1.8,20.61-3.21,5.79-1.41,10.38-2.92,13.54-3.97,1.58-.53,2.8-.97,3.63-1.27,.83-.3,1.26-.45,1.26-.45Z"/>
      <path class="cls-14" d="M292.6,410.99s-.33-.17-.95-.48c-.63-.3-1.52-.81-2.72-1.35-2.37-1.14-5.88-2.64-10.34-4.02-2.23-.71-4.71-1.31-7.39-1.86-2.69-.5-5.58-.91-8.63-1.12-3.06-.18-6.27-.19-9.58,.05-3.31,.26-6.72,.78-10.15,1.57-6.87,1.56-13.13,4.18-18.5,7.15-5.37,2.99-9.83,6.35-13.38,9.41-3.54,3.07-6.17,5.85-7.95,7.8-1.73,1.99-3.06,3.1-3.06,3.1,0,0,3.89-10.35,23.47-22.08,5.42-3.25,11.87-6.11,19.01-7.71,3.56-.81,7.1-1.3,10.54-1.51,3.44-.17,6.75-.06,9.89,.25,3.14,.32,6.08,.89,8.79,1.53,2.7,.71,5.19,1.47,7.39,2.33,4.42,1.69,7.81,3.47,10.08,4.8,1.15,.64,1.99,1.23,2.58,1.58,.58,.37,.89,.56,.89,.56Z"/>
      <path class="cls-9" d="M344.75,281.57c9.7,1.76,46.26,6.73,56.21,10.17,3.59,1.25,7.18,2.65,10.78,4.32,3.6,1.66,7.21,3.58,10.9,6.15,.46,.31,.92,.64,1.39,1.01l.91,.7c.34,.26,.66,.53,.97,.81l1.86,1.68c.64,.54,1.15,1.19,1.72,1.78l.84,.91,.74,.97c.48,.65,1.02,1.27,1.42,1.96,.41,.68,.86,1.35,1.19,2.07,.32,.72,.68,1.42,.98,2.14,1.15,2.9,1.66,6,1.53,9.07-.07,.76-.15,1.52-.26,2.28-.15,.75-.31,1.49-.49,2.23-.46,1.45-.96,2.9-1.6,4.24-.49,.85-1.01,1.68-1.54,2.51-.61,.79-1.2,1.58-1.92,2.31l-1.04,1.11-1.12,1.05c-.73,.71-1.53,1.36-2.32,2.02l-.59,.49c-.2,.17-.4,.33-.55,.45l-.74,.57c-.48,.38-.95,.72-1.42,1.07-.94,.7-1.86,1.35-2.79,2-3.68,2.57-7.29,4.87-10.88,7.1-7.17,4.43-14.25,8.47-21.22,12.35-13.94,7.72-27.46,14.68-40.35,21.14-12.88,6.45-25.18,12.35-36.55,17.86-2.83,1.38-5.63,2.74-8.25,4.07-.63,.33-1.26,.66-1.89,.98l-.81,.44-.87,.54c-1.17,.7-2.27,1.49-3.38,2.26-2.17,1.6-4.2,3.34-6.1,5.17-1.89,1.83-3.61,3.79-5.22,5.77-3.18,4-5.82,8.2-7.94,12.41-2.14,4.2-3.81,8.38-5.09,12.4-2.56,8.05-3.7,15.4-4.12,21.45-.44,6.07-.17,10.86,.08,14.1,.13,1.62-.49,1.78-.91,.21-.84-3.14-1.98-7.85-2.6-14.09-.63-6.22-.75-13.99,.64-22.97,.69-4.49,1.78-9.27,3.46-14.23,.81-2.49,1.83-5.01,2.95-7.57,1.17-2.54,2.47-5.13,3.99-7.7,3.04-5.13,6.91-10.24,11.77-14.91,1.24-1.14,2.49-2.31,3.85-3.38l1.01-.82c.31-.26,.84-.64,1.18-.88,.75-.54,1.43-1,2.11-1.46,2.7-1.82,5.33-3.51,8.04-5.23,10.8-6.86,22.35-13.96,34.56-21.5,12.19-7.54,25.05-15.46,38.24-23.86,6.58-4.2,13.27-8.52,19.84-13,26.53-14.9-.34-26.86-34.77-27.47-3.83-6.53-7.91-13.75-15.82-25.23Z"/>
      <g>
        <path class="cls-15" d="M312.43,313.94c13.6,9.79,31.47-4.89,39.99-10.23-3.96-18.61-16.08-26.62-29.73-37.58-.94-1.58-6.02,11.77-37.92,9.42,8.68,11.39,30.73,29.18,27.66,38.39Z"/>
        <path class="cls-4" d="M302.24,273.61c-.52-.23,3.17-1.13,7.66-2.24,1.57-.39,3.27-.8,4.77-.18,.76,.31,1.4,.87,2.03,1.4,5.81,4.94,20.89,10.77,27.98,13.69-12.84-1.51-40.7-.46-42.45-12.67Z"/>
        <path class="cls-13" d="M356.37,294.3c2.44-6.28,9.51-11.56,15.58-12.44-.44-19.44-19.71-22.9-45.73-22.28-.01,1.64,3.96,1.65-17.53,15.28,6.8,6.4,31.64,3.4,47.68,19.44Z"/>
        <path class="cls-5" d="M284.77,275.55v-.18c4.58-.81,18.18-2.66,24.79-4.75,3.3-1.07,6.33-2.37,9.01-3.77,2.71-1.37,5-2.8,6.35-4.6,.9-1.6,1.16-1.59,1.3-2.67,.63,1.14,1,1.08-.31,3.33-1.28,2.24-6.42,13.99-32.6,13.18-4.65,.17-8.53-.53-8.53-.53Z"/>
        <path class="cls-5" d="M352.84,290.1s.06-.02,.16-.06c.1-.03,.27-.12,.48-.15,.44-.11,1.14-.1,1.96,.21,.82,.32,1.68,.96,2.43,1.81,.74,.85,1.38,1.9,1.86,3.03,.87,2.06,1.61,3.87,2.61,4.97,.49,.54,1.06,.91,1.51,1.07,.22,.11,.41,.13,.54,.18,.13,.04,.2,.06,.2,.06,0,0-.07,.02-.19,.05-.13,.02-.32,.1-.57,.1-.51,.07-1.3,0-2.15-.39-1.72-.79-3.32-2.76-4.28-5.07-.88-2.11-1.74-3.87-2.68-4.79-.46-.45-.93-.73-1.28-.85-.35-.13-.58-.18-.58-.18Z"/>
        <path class="cls-5" d="M357.35,286.29s.85-.3,2.17,.38c1.32,.65,2.64,2.34,3.26,4.26,.61,1.83,.85,3.4,1.35,4.56,.24,.57,.53,1.06,.78,1.37,.25,.32,.42,.5,.42,.5,0,0-.22-.03-.62-.15-.4-.12-.95-.39-1.53-.86-1.18-.94-2.2-2.73-2.81-4.6-.59-1.79-1.11-3.26-1.74-4.16-.31-.45-.62-.78-.87-.97-.25-.2-.41-.31-.41-.31Z"/>
        <path class="cls-5" d="M368.06,279.06s.16-.06,.44-.09c.29-.04,.72-.05,1.23,.07,.52,.12,1.12,.37,1.68,.83,.56,.45,1.05,1.17,1.31,1.89,.51,1.46,.35,2.6,.45,3.51,.04,.45,.14,.85,.24,1.15,.12,.28,.19,.46,.19,.46,0,0-.16-.04-.45-.16-.28-.13-.68-.38-1.06-.78-.79-.8-1.34-2.16-1.75-3.3-.21-.59-.39-1.02-.62-1.45-.23-.42-.48-.81-.73-1.12-.49-.63-.93-1-.93-1Z"/>
        <path class="cls-5" d="M365.99,282.64s.15-.05,.45-.08c.29-.03,.73-.02,1.25,.12,1.05,.27,2.33,1.21,3.05,2.52,.72,1.3,.88,2.54,1.05,3.5,.16,.96,.32,1.68,.32,1.68,0,0-.61-.26-1.36-.96-.76-.69-1.58-1.82-2.23-2.98-.64-1.15-1.15-2.12-1.63-2.78-.47-.66-.9-1.03-.9-1.03Z"/>
        <path class="cls-5" d="M360.98,284.87s.76-.18,1.94-.08c.59,.05,1.3,.18,2.05,.57,.74,.37,1.55,1.07,1.99,2.09,.41,1.04,.36,1.78,.45,2.3,.07,.55,.26,1.1,.5,1.57,.24,.47,.54,.86,.77,1.12,.24,.26,.39,.4,.39,.4,0,0-.19,.01-.54-.04-.35-.05-.86-.18-1.43-.51-.57-.33-1.2-.87-1.65-1.68-.46-.84-.6-1.69-.83-2.18-.41-1-1.43-1.87-2.26-2.5-.78-.59-1.39-1.06-1.39-1.06Z"/>
        <path class="cls-5" d="M349.75,302.22s.17,.15,.47,.37c.3,.22,.74,.48,1.28,.73,.54,.25,1.17,.51,1.88,.87,.7,.36,1.53,.88,2.2,1.7,1.34,1.64,1.55,3.49,1.57,4.73,0,1.27-.19,2.08-.19,2.08,0,0-.42-.65-1.01-1.66-.6-1.01-1.36-2.37-2.33-3.53-.92-1.11-2.3-2.19-3.03-3.31-.38-.54-.6-1.06-.71-1.42-.11-.36-.13-.57-.13-.57Z"/>
        <path class="cls-5" d="M344.6,304.03s.57,.74,1.59,1.18c.51,.25,1.11,.49,1.79,.89,.69,.41,1.43,1.08,1.94,1.89,1.05,1.64,1.17,3.37,1.12,4.56-.06,1.21-.28,1.99-.28,1.99,0,0-.4-.62-.94-1.61-.55-.98-1.23-2.31-2.05-3.57-.42-.64-.8-1.17-1.26-1.68-.46-.53-.95-1.08-1.29-1.62-.35-.54-.54-1.08-.6-1.45-.07-.37-.05-.58-.05-.58Z"/>
        <path class="cls-5" d="M340.56,307.64s.19,0,.55,.02c.36,.02,.86,.11,1.47,.31,1.2,.39,2.78,1.41,3.75,3.14,.97,1.73,1.01,3.61,.72,4.84-.14,.62-.33,1.1-.5,1.42-.16,.32-.27,.48-.27,.48,0,0-.05-.19-.13-.49-.07-.31-.2-.75-.37-1.27-.34-1.05-.92-2.38-1.68-3.75-.77-1.37-1.61-2.55-2.32-3.38-.35-.41-.66-.75-.88-.97-.21-.22-.34-.36-.34-.36Z"/>
        <path class="cls-5" d="M336.38,309.13s.18-.02,.49,.09c.31,.1,.77,.4,1.14,.96,.78,1.11,.94,2.96,1.19,4.27,.26,1.44,.54,2.84,.89,3.95,.34,1.1,.67,1.89,.67,1.89,0,0-.17-.08-.48-.25-.3-.18-.73-.45-1.2-.87-.93-.83-2.03-2.33-2.38-4.29-.09-.48-.12-.97-.12-1.43,0-.44,.04-.84,.08-1.2,.07-.72,.13-1.3,.12-1.76-.01-.46-.1-.79-.2-1.02-.1-.23-.21-.35-.2-.36Z"/>
        <path class="cls-5" d="M332.32,309.72s.09,.19,.2,.56c.1,.37,.21,.93,.22,1.62,.05,1.39-.39,3.25-.64,4.85-.11,.81-.17,1.51-.09,2.25,.06,.72,.22,1.42,.43,2.02,.21,.6,.46,1.1,.66,1.44,.2,.35,.34,.55,.34,.55,0,0-.21-.06-.58-.23-.36-.17-.88-.47-1.42-.98-.54-.51-1.1-1.23-1.48-2.17-.4-.93-.54-2.13-.37-3.26,.18-1.13,.56-2.07,.93-2.85,.37-.79,.73-1.43,1-1.98,.28-.55,.47-.99,.6-1.31,.12-.31,.19-.5,.19-.5Z"/>
        <path class="cls-5" d="M326.23,312.1s.12,.15,.28,.47c.16,.32,.34,.81,.44,1.45,.23,1.29-.02,3.07-.35,4.6-.15,.77-.3,1.46-.35,2.08-.05,.62,0,1.25,.16,1.79,.15,.54,.4,.99,.64,1.29,.24,.3,.42,.45,.42,.45,.04-.02-.98,.07-2.07-.98-.52-.51-1.01-1.25-1.26-2.19-.25-.95-.22-1.98-.03-2.96,.43-1.96,1.22-3.28,1.59-4.31,.4-1.01,.52-1.7,.52-1.7Z"/>
        <path class="cls-5" d="M321.57,307.93s.14,.21,.24,.69c.1,.47,.07,1.25-.21,2.13-.26,.88-.76,1.85-1.07,2.82-.33,.99-.59,2.08-.74,3.24-.32,2.32-.22,4.55,.12,6.23,.16,.84,.37,1.54,.53,2.03,.16,.47,.27,.77,.27,.77,0,0-.22-.2-.59-.54-.36-.37-.87-.93-1.36-1.73-1-1.57-1.89-4.21-1.48-7.13,.2-1.45,.71-2.78,1.36-3.87,.67-1.12,1.39-1.83,1.87-2.47,.5-.63,.78-1.15,.92-1.54,.13-.39,.15-.63,.15-.63Z"/>
        <path class="cls-5" d="M313.76,309.8s.14,.16,.34,.48c.2,.32,.46,.79,.68,1.43,.22,.63,.39,1.43,.41,2.32,.02,.9-.17,1.89-.38,2.72-.21,.85-.36,1.46-.41,2.19-.06,.71-.04,1.43-.02,2.07,.02,.59,.04,1.15,.05,1.56,0,.38,0,.6,0,.6,0,0-.13-.16-.35-.43-.22-.28-.54-.7-.88-1.27-.33-.57-.71-1.3-.92-2.24-.24-.92-.19-2.12,.07-3.09,.25-1,.54-1.74,.73-2.45,.2-.72,.34-1.38,.44-1.96,.2-1.15,.25-1.92,.25-1.92Z"/>
        <path class="cls-11" d="M358.63,272.49c-.78,.77-1.37,1.71-1.96,2.65-1.9,3.03-3.81,6.06-5.71,9.09-.72,1.14-1.36,3.09-1.39,4.44-.79-.41-3.04-1.68-3.84-2.09,4.07-4.41,6.4-11.16,11.18-14.79,1.12-.85,2.39-1.48,3.7-1.99,2.13-.84,4.55-1.51,6.85-1.28-.17,1.37-7.23,2.4-8.84,3.99Z"/>
        <path class="cls-11" d="M349.94,295.58c-5.67,3.31-17.78,9.36-24.35,9.34-4.64-.02-9.39,1.7-13.85,2.97-1.22-2.44-2.54-4.36-3.27-5.58,2.01-1.16,5.18-1.08,7.67-1.07,11.74,.09,22.31-2.73,32.38-8.77,.61,1.11,.74,1.42,1.42,3.11Z"/>
      </g>
      <path class="cls-22" d="M432.63,321.66c-1.23,1.37-19.84,33.11-109.36,57.96,3.54-2.67,7.82-5.33,11.72-7.44,16.7-8.99,70.59-44.64,71.73-49.46,.33-1.39-1.41-1.47-.34-2.41,.53-.47,1.23-.71,1.91-.92,5.92-1.79,12.22-2,18.09-3.96,2.56-.86,5.1-3.47,6.99-1.04,1.53,1.96,.78,5.59-.74,7.28Z"/>
      <path class="cls-19" d="M182.56,336.84s.02,.29,.05,.86c.05,.57,.03,1.43-.05,2.55-.22,2.23-.99,5.59-3.35,9.32-2.32,3.7-6.22,7.73-11.85,10.7-2.79,1.5-5.95,2.78-9.37,3.88-3.43,1.09-7.11,2.02-10.97,2.92-7.71,1.82-16.12,3.88-25.01,6.55-8.87,2.68-18.2,6.02-27.52,10.48-4.62,2.3-9.3,4.77-13.76,7.78-2.29,1.41-4.41,3.11-6.63,4.71-1.05,.87-2.1,1.75-3.16,2.63-.52,.45-1.07,.87-1.58,1.34l-1.5,1.43c-8.16,7.54-14.81,17.12-19.49,27.94-4.7,10.82-7.28,22.24-8.32,33.38-.53,5.57-.61,11.12-.4,16.47,.27,5.36,1.01,10.57,2.26,15.51,2.41,9.87,7.37,18.67,14.63,23.92,3.6,2.63,7.67,4.32,11.77,5.21,2.05,.48,4.11,.68,6.14,.84,2.03,.09,4.03,.11,5.98-.03,7.83-.5,14.77-2.56,20.72-4.62,5.96-2.08,11.02-4.13,15.2-5.64,4.18-1.53,7.46-2.58,9.7-3.22,1.12-.33,1.98-.54,2.55-.69,.58-.15,.87-.22,.87-.22,0,0-.29,.1-.86,.28-.57,.18-1.42,.45-2.51,.85-2.2,.77-5.42,2.01-9.51,3.76-4.1,1.74-9.05,4.04-14.98,6.43-5.92,2.35-12.96,4.8-21.15,5.62-2.04,.23-4.16,.27-6.32,.25-2.17-.09-4.39-.27-6.64-.7-2.24-.46-4.52-1.03-6.73-1.96-2.22-.9-4.38-2.08-6.43-3.48-4.1-2.83-7.64-6.69-10.41-11.13-2.8-4.44-4.8-9.45-6.23-14.69-1.42-5.25-2.31-10.75-2.66-16.38-.31-5.64-.27-11.35,.2-17.18,.98-11.62,3.63-23.59,8.64-34.99,2.5-5.69,5.54-11.08,9.07-16.02,.9-1.22,1.75-2.48,2.73-3.62,.97-1.15,1.86-2.37,2.91-3.44,1.02-1.09,2.03-2.18,3.05-3.26,1.04-1.06,2.15-2.03,3.21-3.03l1.61-1.49,1.69-1.38c1.13-.9,2.23-1.85,3.38-2.7,2.34-1.66,4.61-3.36,7.03-4.79,4.72-3.03,9.61-5.5,14.44-7.73,9.71-4.35,19.3-7.47,28.35-9.87,9.06-2.4,17.59-4.16,25.35-5.66,3.87-.75,7.51-1.51,10.88-2.43,3.36-.93,6.45-2.03,9.19-3.34,5.5-2.59,9.39-6.25,11.83-9.7,2.46-3.47,3.41-6.69,3.76-8.87,.15-1.1,.23-1.94,.21-2.51,0-.57,.01-.86,.01-.86Z"/>
      <path class="cls-6" d="M95.89,479.41s-.85-.36-2.47-1.03c-.81-.34-1.81-.77-3-1.27-1.15-.58-2.47-1.26-3.97-2.02-5.87-3.17-14.26-8.43-22.53-17.38-4.11-4.45-8.26-9.75-11.76-16.06-3.48-6.3-6.37-13.58-7.93-21.62-.26-.99-.32-2.03-.49-3.05-.14-1.03-.28-2.06-.42-3.11-.2-2.09-.22-4.22-.33-6.37,0-4.3,.41-8.68,1.18-13.07,1.54-8.78,4.54-17.51,8.28-26.02,3.77-8.52,7.96-16.5,12.28-24.09,4.34-7.58,8.91-14.69,13.6-21.22,4.74-6.5,9.65-12.38,14.51-17.62,2.54-2.53,4.88-5.07,7.39-7.25,1.24-1.11,2.41-2.23,3.62-3.26,1.23-1,2.44-1.98,3.62-2.94,9.5-7.6,18.28-12.15,24.49-14.72,3.05-1.42,5.58-2.13,7.24-2.73,1.67-.57,2.55-.86,2.55-.86,0,0-.85,.37-2.48,1.07-1.61,.73-4.07,1.63-7,3.26-5.98,3-14.33,8.06-23.25,16.02-1.11,1-2.24,2.02-3.4,3.07-1.13,1.08-2.24,2.23-3.39,3.38-.58,.58-1.16,1.16-1.74,1.74-.58,.59-1.13,1.23-1.7,1.85-1.14,1.25-2.29,2.53-3.47,3.83-4.55,5.35-9.13,11.29-13.59,17.81-4.41,6.56-8.71,13.65-12.86,21.18-4.12,7.54-8.21,15.5-11.86,23.79-3.63,8.29-6.53,16.62-8.08,24.87-1.59,8.25-1.7,16.38-.41,23.94,1.26,7.57,3.76,14.54,6.83,20.68,3.07,6.16,6.84,11.42,10.59,15.94,7.53,9.07,15.4,14.74,20.95,18.27,1.42,.86,2.67,1.62,3.76,2.27,1.13,.59,2.09,1.08,2.86,1.48,1.55,.8,2.36,1.22,2.36,1.22Z"/>
      <path class="cls-3" d="M493.95,354.88c0,1.91-1.55,3.46-3.46,3.46s-3.46-1.55-3.46-3.46,1.55-3.46,3.46-3.46,3.46,1.55,3.46,3.46Z"/>
      <path class="cls-3" d="M638.57,472.1c0,1.91-1.55,3.46-3.46,3.46s-3.46-1.55-3.46-3.46,1.55-3.46,3.46-3.46,3.46,1.55,3.46,3.46Z"/>
      <path class="cls-3" d="M492.86,517.09c0,1.91-1.55,3.46-3.46,3.46s-3.46-1.55-3.46-3.46,1.55-3.46,3.46-3.46,3.46,1.55,3.46,3.46Z"/>
      <path class="cls-3" d="M557.43,303.03c0,3.34-2.71,6.04-6.04,6.04s-6.04-2.71-6.04-6.04,2.71-6.04,6.04-6.04,6.04,2.71,6.04,6.04Z"/>
      <circle class="cls-3" cx="627.91" cy="424.04" r="7.2"/>
      <circle class="cls-3" cx="540.75" cy="345.54" r="4.59"/>
      <circle class="cls-3" cx="591.65" cy="447.18" r="4.59"/>
      <circle class="cls-3" cx="498.54" cy="442.59" r="4.59"/>
    </g>
  </g>
</svg>