<?xml version="1.0" encoding="UTF-8"?>
<svg xmlns="http://www.w3.org/2000/svg" xmlns:xlink="http://www.w3.org/1999/xlink" viewBox="0 0 97.41 143.95">
  <defs>
    <style>
      .cls-1 {
        fill: #fff;
      }

      .cls-2, .cls-3, .cls-4, .cls-5 {
        mix-blend-mode: screen;
      }

      .cls-2, .cls-6, .cls-7 {
        fill: #ef5900;
      }

      .cls-2, .cls-8 {
        opacity: .64;
      }

      .cls-9 {
        fill: #ddb25f;
      }

      .cls-10 {
        opacity: .41;
      }

      .cls-10, .cls-11, .cls-12, .cls-13, .cls-8, .cls-14, .cls-7 {
        mix-blend-mode: multiply;
      }

      .cls-15 {
        fill: #25dcff;
      }

      .cls-16 {
        fill: #09c0e8;
      }

      .cls-3, .cls-14 {
        opacity: .55;
      }

      .cls-17 {
        isolation: isolate;
      }

      .cls-18 {
        opacity: .33;
      }

      .cls-19, .cls-12, .cls-5 {
        fill: #ef7900;
      }

      .cls-20 {
        fill: #ef9000;
      }

      .cls-21 {
        fill: url(#radial-gradient);
      }

      .cls-22 {
        fill: #ef6500;
      }

      .cls-23 {
        fill: #7b2807;
      }

      .cls-24, .cls-11 {
        fill: #893c30;
      }

      .cls-25 {
        fill: #007ca7;
      }

      .cls-4 {
        opacity: .46;
      }

      .cls-4, .cls-26, .cls-8 {
        fill: #dcf1f4;
      }

      .cls-27 {
        fill: #f9e8c2;
      }

      .cls-11 {
        opacity: .47;
      }

      .cls-28 {
        fill: url(#radial-gradient-2);
      }

      .cls-12, .cls-13 {
        opacity: .36;
      }

      .cls-29, .cls-14 {
        fill: #d6af6c;
      }

      .cls-5 {
        opacity: .56;
      }

      .cls-30 {
        fill: #ececec;
      }

      .cls-7 {
        opacity: .5;
      }

      .cls-31 {
        fill: #e2bc73;
      }

      .cls-32 {
        fill: #510f00;
      }

      .cls-33 {
        fill: #f6dea8;
      }

      .cls-34 {
        opacity: .27;
      }
    </style>
    <radialGradient id="radial-gradient" cx="47.18" cy="68.44" fx="47.18" fy="68.44" r="2.68" gradientUnits="userSpaceOnUse">
      <stop offset="0" stop-color="#eed198"/>
      <stop offset=".83" stop-color="#c76d4a"/>
      <stop offset="1" stop-color="#c0593a"/>
    </radialGradient>
    <radialGradient id="radial-gradient-2" cx="39.64" fx="39.64" r="2.68" xlink:href="#radial-gradient"/>
  </defs>
  <g class="cls-17">
    <g id="Layer_2" data-name="Layer 2">
      <g id="Layer_1-2" data-name="Layer 1">
        <g>
          <g>
            <path class="cls-26" d="M23.66,110.8s14.22-14.8,43.5-16.77c0,0-17.18-63.71-10.89-94.03,0,0-46.43,35.28-32.61,110.8Z"/>
            <path class="cls-8" d="M56.51,89.51c-4.02,2.07-8.84,6.03-13.15,2.46-2.88-2.39-4.25-6.54-5.33-9.98-.74-2.35-.49-3.47-3.19-2.85-2.88,.65-4.22,.81-4.21-2.84,.04-10.53,1.85-20.88,4.08-31.14,1.11-5.12,2.53-9.95,4.21-14.92,2.02-6,4.38-11.68,7.79-17.03,2.6-4.06,5.47-7.94,8.09-11.99-.96,1.48-3.01,2.79-4.25,4.07-2.19,2.27-4.26,4.67-6.2,7.15-5.64,7.2-10.29,15.18-13.89,23.59-2.94,6.87-5.18,14.04-6.72,21.36-1.78,8.46-2.19,16.45-2.2,25.07,0,4.89,.28,9.69,.83,14.54,.49,4.33,1,8.99,1.97,13.13,1.82-.7,3.92-3.16,5.64-4.3,2.8-1.85,5.76-3.46,8.81-4.86,3.97-1.81,8.1-3.26,12.32-4.36,1.49-.39,15.76-3.56,16.03-2.57,0,0-.95-3.52-2.32-9.29-2.7,1.71-5.48,3.31-8.33,4.77Z"/>
            <path class="cls-8" d="M40.95,97.88c-4.99,.09-9.82-1.66-12.49-6.14-2.27-3.81-1.88-8.7-2.1-12.96-.43-8.32,.07-16.56,1.28-24.81,1.35-9.18,5.12-17.81,8.56-26.35,1.72-4.27,4.73-8.11,6.96-12.16,1.26-2.27,2.69-4.77,4.62-6.56-2.28,1.87-4.44,4.31-6.33,6.6-4.56,5.54-8.66,12.08-11.55,18.62-10.29,23.21-10.1,49.77-5.37,74.33,1.95-1.09,3.61-2.81,5.53-4.01,3.97-2.49,9.7-6.25,14.41-6.79-1.17,.14-2.34,.22-3.53,.24Z"/>
            <path class="cls-6" d="M6.15,129.44c-.83-1.02-.69-2,1.69-2.62,5.7-1.47,12.48-.64,18.32-.97,12.83-.72,25.19-3.47,37.62-6.59,6.29-1.58,12.58-3.16,18.84-4.86,1.69-.46,7.32-3.07,8.74-1.35,1.04,1.26-1.72,4.85-2.54,5.83-1.88,2.27-4.31,4.03-6.67,5.76-3.66,2.68-7.93,4.67-12.17,6.25-8.03,3.01-16.63,5.34-25.21,6.12-6.74,.61-13.47,.67-20.19-.23-4.24-.57-8.4-1.7-12.29-3.5-1.17-.54-4.85-2.24-6.15-3.84Z"/>
            <path class="cls-2" d="M19.24,127.44c6.51-.54,13-.73,19.45-1.79,6.42-1.05,12.72-2.66,18.96-4.48,3.63-1.06,7.29-2.06,10.95-3.11-1.61,.41-3.22,.81-4.82,1.21-12.43,3.11-24.78,5.87-37.62,6.59-5.84,.33-12.62-.51-18.32,.97-2.38,.62-2.52,1.6-1.69,2.62,.81,1,2.55,2.04,4.03,2.81,1.08-3.71,5.5-4.52,9.06-4.82Z"/>
            <path class="cls-7" d="M28.55,130.77s3.96,1.14,13.77,.31c9.81-.83,30.94-4.33,30.94-4.33,0,0,13.07-5.12,13.53-6.97,.46-1.85-58.24,10.99-58.24,10.99Z"/>
            <path class="cls-7" d="M71.51,123.08c.24,1.5-6.39,3.81-14.81,5.16-8.42,1.35-15.44,1.24-15.68-.26-.24-1.5,6.39-3.81,14.81-5.16,8.42-1.35,15.44-1.24,15.68,.26Z"/>
            <path class="cls-15" d="M75.36,134.94c-3.07,.9-6.27,1.12-9.4,1.69-2.91,.53-5.81,1.64-8.36,3.16-.83,.5-1.55,1.03-2.45,1.39-1.95,.77-3.95,.82-6.02,.83-2.5,.02-4.51,.49-6.91,1.14-2.24,.6-4.73,1.17-7.02,.46-1.11-.34-2-.77-3.23-.83-1.01-.05-3.91,1.04-4.43-.14,.57-.59,1.4-.73,1.93-1.33-1.21-.58-2.78-.31-4.05-.13-3.34,.48-6.45,.82-9.85,.61-4.01-.25-8.12-.73-11.51-2.9,.52-1.81,3.05-1.63,4.52-1.73,.93-.06,4.73-.58,2.77-2.14-1.2-.95-2.84-.87-4.26-1.24-1.11-.29-2.22-.62-3.28-1.05-1.26-.51-3.44-1.46-3.77-3-.14-.68,.17-1.4,.69-1.85,.12-.11,1.04-.48,1.06-.59,.09-.61-1.36-.82-1.15-1.62,.22-.84,1.49-.41,2.03-.34-.48-2.29-1.07-4.04,.85-5.77,1.41-1.28,2.56-.85,2.4,1.14-.19,2.32-.27,6.23,2.14,7.61,.41-.41,.09-2.63,1.53-2.15,.41,.14,.42,.84,.53,1.23,.23,.86,.54,1.63,1.09,2.34,.42,.53,1.6,2.17,2.41,2,.63-.13,.47-1.12,1.28-1.11,.48,0,1.05,.8,1.38,1.1,1.5,1.35,3.54,1.72,5.41,2.31,1.99,.64,4.28,1.42,6.39,.93,2.41-.56,9.18-.18,12.23,.46,2.46,.52,5.79-.38,8.08-1.3,1.39-.55,2.58-1.36,3.91-2.04,1.7-.87,3.8-2.02,5.71-2.24,1.22-.14,2.33,.44,3.54,.38,2.6-.12,4.37-2.26,6.85-2.49,1.52-.14,2-1.31,2.86-2.37,1.05-1.29,2.41-2.29,4.03-2.74,.5,1.24-1.54,2.78-1.51,4.28,1.6,.2,3.31-3.45,4.45-4.38,2.37-1.93,.77,.22,1,1.04,1.29-.55,1.44-2.94,2.96-2.94,.49,1.76,1.92-1.73,2.07-2.29,.26-.99,.47-1.98,1.12-2.85,.42-.56,2.22-2.45,3.08-2.28,1.43,.28-1.3,2.64,.62,2.57,.82-.03,1.8-1.48,2.35-1.96,.74-.65,5.61-4.13,5.98-1.77,.07,.47-.84,1.04-.7,1.76,.05,.24,.47,.34,.5,.56,.05,.33-.41,.85-.53,1.11-2.47,5.07-7.36,7.54-11.97,10.42-.52,.32-6.2,3.44-3.91,3.96,1.28,.29,3-1.38,4.24-.46-.33,1.24-2.01,2.12-3.01,2.68-2.11,1.17-4.36,2.17-6.68,2.85Z"/>
            <path class="cls-16" d="M30.99,130.6s-11.74-28.37-7.42-68.46C27.65,24.39,56.27,0,56.27,0c0,0-29.59,19.63-34.45,62.56-4.17,36.81,6.73,68.21,6.73,68.21,0,0,1.71,.8,2.45-.17Z"/>
            <path class="cls-25" d="M22.25,79.81s1.26,1.18,2.31,.67c.95-.47,31.27-11.88,36.37-13.8,.4-.15,.85,.05,1,.45h0c.15,.4-.05,.85-.45,1.01-5.15,1.99-35.95,13.89-36.7,14.28-1.41,.74-2.53,0-2.53,0,0,0-.97-.75,0-2.6Z"/>
            <path class="cls-32" d="M44.58,86.24c-.81-.02-1.77,.39-2.47,.69-1.14,.5-2.29,1.04-3.42,1.58-.49,.23-1.87,1.25-2.47,.89-.57-.36-.75-1.26-1.17-1.76-.5-.6-1.1-1.14-1.62-1.72-1.11-1.21-2.32-2.61-2.53-4.3-.18-1.45,.79-1.67,1.84-2.15,1.82-.83-.78-1.55-1.86-.89-.61-.52-.31-1.14-1.52-1.08-.81,.04-2.74,.86-2.12,1.99-.03-.06,.52,.19,.56,.22,.17,.13,.24,.38,.41,.49,.33,.22,.68,.11,.96,.43,.43,.49,.49,1.43,.75,2.04,.37,.89,.77,1.76,1.22,2.61,1.08,2.06,2.35,4.04,3.93,5.77,.77,.85,1.73,.31,2.75-.06,1.78-.66,3.61-1.25,5.35-2.03,.67-.3,1.48-.53,2.01-1.07,.59-.61,.56-1.5-.34-1.62-.08-.01-.16-.02-.24-.02Z"/>
            <path class="cls-4" d="M55.01,41.85c-2.15-11.69-4.17-25.55-.47-37.13-3.5,6.84-8.88,13.35-9.09,21.37-.13,5.03,2.65,9.26,5.55,13.13,1.36,1.81,3.22,3.32,4.42,5.24,.02-.86-.26-1.73-.42-2.61Z"/>
            <g class="cls-10">
              <path class="cls-15" d="M11.87,134.64c-1.61-.79-10.98-1.79-10.53-4.65,.23-1.45,1.68,.17,1.79-1.18,.06-.74-.7-1.34-.41-2.09,.48,.24,.92,.67,1.44,.84-.16-1.42-1.16-3.4,.14-4.59,.37,.41,.09,1.08,.13,1.72,.06,1.11,.5,2.32,.97,3.31,.95,2.01,2.99,4.16,5.19,4.75-.21-.59-.63-1.33-.12-1.86,.81,.66,1.4,1.77,2.26,2.52,1.2,1.03,2.86,1.99,4.51,1.93-.87-.95-.06-1.02,.64-.83,.61,.17,1.25,.83,1.85,1.09,.93,.4,1.99,.75,2.95,1.05,3.77,1.15,8.09,.56,11.99,.68,.66,.02,3.97-.12,4.28,.55,.41,.89-1.24,.88,.3,1.53,.89,.38,2.76-.15,3.64-.23,1.99-.18,3.99-.43,5.96-.6,1.72-.14,4.01-.33,5.48-1.29-.46-.73-1.58-.65-2.33-.98,.24-2.08,5.45-4.05,7.27-3.79-.08,.99-1.17,1.71,.5,1.97,1.75,.27,2.87-2.06,4.31-2.62,1.34-.52,1.68,.56,3.01-.34,1.51-1.02,3.05-3.77,5.15-3.58-.09,.95-1.43,1.93-1.17,2.95,.36,1.41,1.59,.29,2.32-.36,1.43-1.3,2.83-5.2,5.03-5.18-.32,.71-.05,.96,.56,.81,1.03-.25,1.21-2.19,2.42-2.38,.84-.13,.53,.48,1.12,.46,1.7-.04,2.11-1.91,3.17-2.83,1.24-1.06,3.13-1.37,4.47-2.35,1.78-1.31,3.06-3.51,4.92-4.6,1,1.32-1.44,3.71-2.25,4.56-2.2,2.29-5.02,3.69-7.63,5.43-.97,.65-8.05,4.31-6.48,6.3,.43,.54,2.88-.54,2.36,.76-.33,.85-2.56,1.47-3.33,1.73-1.94,.65-3.92,1.19-5.9,1.64-3.35,.76-7.05,.69-10.31,1.77-2.73,.91-4.68,3.22-7.35,4.08-2.67,.87-5.77,.7-8.54,1.21-2.98,.56-7.01,1.65-9.97,.57-.29-.11-.39-.48-.69-.57-1.54-.45-3.3,.41-4.88,.3,.23-.74,1.23-.87,1.59-1.57-1.91-1.06-5.08-.31-7.12-.06-1.71,.22-5.2,1.26-6.8,.62,.83-.45,1.71-.31,2.56-.61-1.74-1.45-6.35-.99-8.59-1.33-1.03-.16-2.97-.27-3.65-1.12,1.25-.34,7.56-1.68,3.73-3.55Z"/>
            </g>
            <g class="cls-3">
              <path class="cls-15" d="M22.52,135.42c4.2,.73,8.25-.61,12.49-.18,.71,.07,1.51-.04,1.91,.62-1.67,.8-4.53,.65-6.43,1.01-2.22,.42-4.35,.45-6.56-.06-1.89-.43-3.64-1.1-5.27-2.13-.68-.43-3.2-1.93-2.75,.05-.89-.09-1.91-1.48-1.45-2.39,.6-1.18,1.71,.33,2.45,.8,1.74,1.11,3.57,1.94,5.62,2.29Z"/>
            </g>
            <g class="cls-3">
              <path class="cls-15" d="M46.07,137.71c-1.73,.04-3.47,.15-5.15,.62,2.56-2.3,6.05-2.56,9.07-3.93,2.85-1.29,5.09-3.23,8.08-3.38-2.53,.99-4.96,2.05-7.14,3.72-1.65,1.27-1.62,1.61,.19,2.22,.07,.03-1.6,.74-1.86,.77-.86,.08-1.78-.03-2.65-.02-.18,0-.37,0-.55,0Z"/>
            </g>
            <g class="cls-3">
              <path class="cls-15" d="M71.85,127.21c-.99,.53-2.2,1.27-2.98,2.07-.72,.74-1.44,1.81-2.55,1.94-.5,.06-.88-.2-1.36-.27-1.26-.19-2.45,.89-3.27,1.73,.19-1.14,1.31-2.5,2.42-2.89,.54-.19,1.1-.14,1.66-.33,.68-.22,1.28-.64,1.96-.88,1.39-.48,2.36-.41,3.37-1.67,.63-.79,2.09-3.45,3.4-2.99-.08,.47-.68,1.02-.93,1.46-.22,.38-.27,1.12-.55,1.39-.21,.21-.89,.3-1.16,.44Z"/>
            </g>
            <g class="cls-3">
              <path class="cls-15" d="M77.2,125.32c-1.35,1.3-2.08,2.98-3.3,4.35-.25,.28-1.05,1.32-1.52,1.18-.64-.2,.19-2.17,.5-2.49,.8,1.24,4.73-5.26,5.62-5.37,.73-.09,.32,.52,.43,.93,.14,.52,.25,.42,.68,0,.64-.62,1.13-1.41,1.82-2,.62-.53,.38-.11,.95-.15,.68-.05,1.43-.93,1.69-1.5,.83-1.82,1.36-5.36,3.77-5.85,.16,.57-.1,1.21-.12,1.79-.05,1.63,.95,1,1.88,.37,.74-.51,5.75-5.22,6.45-3.57-.58,.72-1.8,1.11-2.54,1.66-.88,.64-1.64,1.41-2.29,2.27-1.08,1.43-1.99,2.44-3.75,2.86-1.68,.4-2.69,1.06-3.53,2.59-.42,.76-.83,1.63-1.8,1.31-.31-.1-.52-.38-.87-.37-.43,.02-.84,.58-1.09,.86-.29,.33-1.16,2.01-1.62,1.74-.58-.34,.31-1.18-.45-1.23-.31-.02-.75,.47-.93,.65Z"/>
            </g>
            <g class="cls-3">
              <path class="cls-15" d="M8.26,129.23c-1.43-.15-1.87-2.06-2.16-3.16-.43-1.64-.69-3.33-.69-5.03,0-.51,.16-1.35-.43-1.44-1.2-.17-1.9,1.74-2.03,2.57-.13,.89-.04,1.81,.25,2.66,.18-.49,1.04-3.73,1.69-2.09,.34,.86,.11,2.1,.27,3.01,.27,1.54,1.29,3.24,2.33,4.41,.72,.81,1.64,1.54,2.73,1.78-.39-.63-.8-1.97-.54-2.71,.41,.15,.7,.89,.99,1.24,.32,.38,.66,.78,1.1,.98-.25-.12-.64-1.1-.8-1.36-.3-.49-.6-.99-.84-1.52-.12-.27-.65-1.84-1-1.88-.6-.07-.77,2.11-.87,2.53Z"/>
            </g>
            <path class="cls-32" d="M56.43,70.46c.1,.21,.21,.41,.33,.61,1.13,.08,2.07-.29,3.21-.22-.52,.82-1.2,1.62-1.85,2.41,.01,.02,.02,.04,.03,.06,.56,1.04-.66,1.96,.02,2.82-.06-.08,.79-.2,1.42-.25,.4-.56,.72-1.23,.94-1.66,.51-1.02,.85-2.12,1.21-3.19,.14-.41,.56-1.32,.29-1.78-.02-.04-.04-.07-.08-.1-.57-.57-2.54-.04-3.25,.02-.8,.07-1.59,.17-2.38,.29-.05,0-.15,.02-.29,.03,.12,.32,.25,.64,.4,.95Z"/>
            <path class="cls-32" d="M67.72,104.49c-.7,.16-1.39,.34-2.09,.47,.03,.81,.08,1.4,.08,1.53,.03,3.93-.36,7.7-.7,11.6-.09,.99-.11,1.98-.16,2.98-.02,.4,.04,1.13-.12,1.49-.46,1.02-2.05,.63-2.9,.6-1.35-.05-.53,.8,.3,1.12,1.07,.41,2.86,.63,3.91,.13,.12-.83-.29-1.83-.28-2.74,0-.6,.07-1.18,.18-1.76,.31-1.74,1.4-4.02,.93-5.79-.14-.51-.45-.95-.6-1.45-.49-1.59,.57-3.58,.87-5.13,.2-1.03,.43-2.04,.59-3.06Z"/>
            <path class="cls-32" d="M55.48,103.87c-.85-.06-1.65-.24-2.37-.59-.5,1.94-.82,3.99-.88,4.25-.92,4.04-2.23,7.81-3.53,11.74-.33,1-.59,2.01-.88,3.02-.46,1.63-.78,2.49-2.46,3.14-.8,.31-2.03,.18-2.72,.65,.8,1.24,4.42,.47,5.62,.12,.06-.02,.27-2.83,.33-3.08,.15-.61,.36-1.19,.61-1.76,.74-1.71,2.41-3.78,2.35-5.71-.02-.56-.23-1.08-.26-1.63-.11-1.75,1.45-3.53,2.14-5.05,.77-1.69,1.6-3.3,2.06-5.09Z"/>
          </g>
          <g>
            <path class="cls-33" d="M83.37,88.42c.65,8.15-7.06,14.48-14.91,15.92-2.18,.4-4.31,1.35-6.5,.31-.84-.4-1.35-.78-2.32-.88-1.21-.12-2.43,.13-3.63,.11-1.8-.02-3.47-.54-4.58-1.99-.48-.63-.69-1.08-1.43-1.4-1.01-.42-2.02-.27-3.01-.88-1.78-1.1-3.36-3.03-4.44-4.82-.79-1.31-.83-2.88-2.2-3.67-2.09-1.21-2.88-3.84-3.47-6.04-.84-3.14-1.39-6.35-1.6-9.59-.41-6.35,.52-12.76,2.89-18.68,1.71-4.27,4.89-9.02,9.72-9.96,1.66-.32,3.66-.59,5.21,.29,1.62,.92,1.12,2.52,.96,4.08-.49,4.73-.45,9.78,.82,14.38,.45,1.62,.83,3.34,1.56,4.86,.48,1.01,1.2,1.89,1.72,2.86,.56,1.04-.66,1.96,.02,2.82-.09-.12,1.79-.32,2.04-.25,.61,.16,1.1,.66,1.65,.94,1.71,.88,3.36,.57,5.21,.55,1.99-.02,3.86-.22,5.82,.27,3.76,.94,8.18,3.25,9.63,7.09,.47,1.25,.74,2.48,.84,3.66Z"/>
            <g class="cls-18">
              <path class="cls-9" d="M80.34,82.34c-.22-.25-.45-.48-.69-.7,.97,.91,.44,4.78,.26,5.95-.26,1.71-.85,3.45-1.33,5.09-.85,2.93-4.28,4.93-7.26,4.98-1.84,.03-3.33,.11-5.09,.66-1.72,.54-3.1-.19-4.75-.91-.65-.29-1.61-.84-2.32-.68-.05,.8,.23,1.89-.6,2.33-4.14,2.16-9.17-4.75-11.14-7.52-2.93-4.12-4.97-8.95-5.68-13.97-.39-2.79-.39-5.52-.55-8.3-2.29,.88-.19,7.94,.05,9.66,.21,1.44,2.22,8.76-1.16,5.11-2.98-3.22-2.77-8.18-2.93-12.27-.15-3.61,.36-7.24,.95-10.79,.47-2.87,.92-6.5,2.64-8.94-1.07,1.51-1.92,3.19-2.57,4.8-2.37,5.91-3.3,12.33-2.89,18.68,.21,3.24,.76,6.46,1.6,9.59,.59,2.2,1.39,4.83,3.47,6.04,1.36,.79,1.41,2.36,2.2,3.67,1.08,1.79,2.66,3.71,4.44,4.82,.99,.61,2,.46,3.01,.88,.74,.31,.96,.77,1.43,1.4,1.1,1.45,2.78,1.97,4.58,1.99,1.2,.01,2.42-.23,3.63-.11,.97,.1,1.48,.48,2.32,.88,2.88,1.36,6.79-.44,9.47-1.62,5.43-2.4,10.1-6.31,11.01-12.58,.08-.52,.12-1.05,.12-1.59,.02-2.37-.68-4.8-2.22-6.54Z"/>
            </g>
            <g class="cls-34">
              <path class="cls-31" d="M82.53,88.18c-1.01,3.09-2.65,6.22-5.18,8.34-1.28,1.07-2.54,1.46-4.07,1.95-.97,.31-1.8,.7-2.84,.73-.22,0-2.42-.39-2.37-.46-2.44,3.15-4.31-.82-7.12-.2-.7,.15-1.08,.88-1.53,1.34-1.46,1.49-3.87,2.5-5.94,1.58-1.77-.79-2.87-3.11-3.68-4.76-.2-.4-.42-1.35-.86-1.6-.97-.55-.55,.59-1.28,1.04-1.54-.94-2.17-3.39-2.83-4.97-.51-1.23-.97-3.98-1.93-4.8-.35,.58-.14,1.88-.79,2.2-.75,.38-1.47-.54-1.88-1.02-1.24-1.41-1.68-3.26-2.2-5.02-1.97-6.64-2.21-13.13-1.42-20,.05-.46,.43-1.95,.76-3.5-1.77,5.29-2.45,10.91-2.09,16.48,.21,3.24,.76,6.46,1.6,9.59,.59,2.2,1.39,4.83,3.47,6.04,1.36,.79,1.41,2.36,2.2,3.67,1.08,1.79,2.66,3.71,4.44,4.82,.99,.61,2,.46,3.01,.88,.74,.31,.96,.77,1.43,1.4,1.1,1.45,2.78,1.97,4.58,1.99,1.2,.01,2.42-.23,3.63-.11,.97,.1,1.48,.48,2.32,.88,2.7,1.28,6.44-.08,9.09-.88,2.78-.83,5.34-2.45,7.42-4.45,2.67-2.56,5.87-7.27,4.05-11.14Z"/>
            </g>
            <g class="cls-34">
              <path class="cls-31" d="M50.8,69.44c.07-.99,.55-7.06,2.92-4.98,.31,.27,.38,.94,.5,1.31,.64,2.03,1.29,4.05,2.25,5.96,.59,1.18,1.37,1.72,.93,3-.48,1.39-2.53,2.41-2.49,3.83,1.62-.17,2.9-2.08,4.45-2.36,.73-.13,2.1,.69,2.5,1.38,1.48,2.54-9.64,4.26-9.53,7.23,1.31,.31,2.74-1.21,3.71-1.88,2.31-1.59,4.84-2.16,7.44-3.05,2.07-.71,4.42-.96,6.57-1.39-1.78-1.01-4.39,.38-6.38-.52-1.29-.58-2.73-2.66-4.23-2.14-.85,.3-1.59,1.01-1.37-.44,.16-1.07,.64-1.01,.09-2.04-.53-.98-1.25-1.85-1.73-2.87-.72-1.52-1.11-3.24-1.56-4.86-1.27-4.6-1.32-9.64-.82-14.38,.14-1.34,.43-3.09-.97-3.94,.54,1.23,.48,2.48,.42,3.79-.12,2.56-.41,5.18-.84,7.72-.15,.86-.38,4.94-1.92,4.2-1.57-.74-1.22-4.32-1.33-5.63-.68,2.75-.43,5.75,.12,8.49,.2,1,.43,2.96,1.27,3.58Z"/>
            </g>
            <path class="cls-27" d="M46.37,48.39c-.56,.36-1.07,.78-1.46,1.12-4.15,3.68-6.2,10.9-4.89,16.28,.56,2.3,1.71-.08,2.86-.59,.89,.58,.55,3.1,.56,4.01,.02,1.92,.16,3.78,.47,5.71,.68,4.14,1.84,8.17,3.75,11.91,1.24,2.43,4.85,9.27,8.51,6.59-.21-.84-1.38-3.06-1-3.78,.51-.97,4.05-.67,5.07-.96,2.12-.59,6.48-5.21,2.37-6-2.89-.55-7.52,4.44-10.16,2.95-2.9-1.64,4.79-4.49,4.84-6.06-1.31-.18-4.91,1.67-5.17,.05-.18-1.09,2.1-2.16,2.43-3.24,.65-2.1-1.16-7.85-2.62-9.42-.78,1.25-.11,2.91-.41,4.26-.2,.89,.02,.91-.82,.6-.64-.24-1.04-.95-1.37-1.49-1.48-2.45-1.76-5.4-1.79-8.21-.02-2.58-.22-6.35,1.29-8.56,.18,.31,.41,.78,.8,.97,.95-.79,.68-2.8,.82-3.91,.14-1.12-.27-3.07-1.73-3.11-.75-.02-1.59,.38-2.35,.86Z"/>
            <path class="cls-27" d="M61.58,82.2c.53,.9-1.01,2.47-1.62,3.01-.89,.79-2.13,1.03-3.29,1.1-.79,.04-1.35,0-2.1,.29-.51,.2-.97,.59-1.47,.69-.65-1.48,1.17-2.06,2.08-2.62,.88-.55,5.58-3.88,6.41-2.46Z"/>
            <path class="cls-33" d="M69.05,94.38c.27-.05,.51-.15,.69-.31,2.02-1.81-2.31-3.5-3.41-3.81-1.06-.3-3.39-.46-3.19,1.16,.11,.91,1.68,1.86,2.42,2.23,.73,.36,2.4,.93,3.5,.73Z"/>
            <path class="cls-29" d="M42.67,88.34c.54,.75,.03,1.98-.86,2.18-1.38,.32-2.43-1.11-3.26-1.95,.35,.92,1.15,1.92,1.97,2.54,1.02,.77,1.35,1.25,1.91,2.45,1.53,3.32,2.98,5.69,6.6,6.68-2.27-1-4.84-3.74-5.03-6.3-.29-3.86,3.78-.36,5.12,.53-1.49-1.63-2.94-3.37-3.94-5.35-.81-1.62-2.38-4.04-2.38-5.87,0,.8,.34,2.39-.65,2.76-.78,.29-1.59-.63-2.02-1.15-1.59-1.92-2.04-4.4-2.46-6.79-.46-2.6-.81-4.9-.72-7.57,0-.12-.17-.14-.19-.01-.38,2.91-.51,5.88-.25,8.81,.23,2.56,.95,5.15,2.78,7.04,.48,.5,1.07,1.09,1.72,1.37,.47,.2,1.07,.11,1.46,.44,.07,.06,.13,.13,.19,.2Z"/>
            <path class="cls-29" d="M62.47,98.57c-.92-.5-1.91-.85-2.36-.51-.31,.23-.34,1.18-.67,1.58-1.12,1.35-2.74,.95-4.12,.29-.78-.37-1.52-.84-2.2-1.37-.79-.61-1.55-1.3-2.17-2.09-.07-.09-.2,.02-.14,.11,.51,.75,1.04,1.46,1.69,2.09,.64,.62,1.33,1.19,2.08,1.67,.75,.49,1.58,.96,2.44,1.24,1.69,.55,2.45-.57,3.74-1.32,.77-.45,2.92-1.18,3.65-.35-.26-.3-1.07-.89-1.93-1.36Z"/>
            <path class="cls-27" d="M78.32,90.84c.53-1.41,.8-2.93,.9-4.4,.6-8.47-8.04-8.77-13.89-6.03-4.35,2.04,2.5,4.44,3.89,5.73,1.47,1.37,3.4,2.86,3.3,5.06-.05,1.03-1.21,3.77-.25,4.55,.97,.79,2.86-.58,3.58-1.21,1.15-1.01,1.94-2.3,2.46-3.7Z"/>
          </g>
          <g>
            <path class="cls-14" d="M39.28,54.47s1.36-.34,4.18,.66c2.82,1,9.5,3.45,10.41,5.08l.76-1.42-.59-2.09-8.58-4.11s-2.65-.69-4.07-.03l-1.42,.65-.67,1.25Z"/>
            <path class="cls-20" d="M60.22,56.96c1.16-1.25,2.07-2.47,3.58-3.33,1.2-.69,2.5-1.37,3.87-.84,.93,.35,1.46,1.27,2.46,1.38,1.63,.17,2.17-1.67,3.85-.87-1.91-.3-2.03,2.34-3.25,3.17-1.27,.86-2.49-.68-3.66-1.11-1.91-.71-3.47,.47-4.66,1.91-.67,.8-1.85,1.82-2.99,1.57-1.05-.23-1.55-1.48-2.75-1.38,.37-1.02,.94-1.03,1.77-.56,.93,.53,.93,1.01,1.78,.09Z"/>
            <path class="cls-20" d="M56.28,58.35c.14-.13,.28-.25,.41-.3,.53-.19,.9-.2,1.38,.1,.93,.58,1.01,2.15,2.34,2.19,.92,.02,1.79-1.12,2.83-1.2,1.5-.13,2.76,.5,4.19-.31,.91-.52,2.52-2.02,3.68-.87,.63,.62-.09,1.12-.12,2-.04,1.2,.59,2.16,1.76,1.92,.77-.16,1.76-1.12,2.45-.37-1.74-.69-2.03,2.53-3.66,1.5-1.24-.79-1.69-2.47-3.49-1.79-.95,.36-1.79,1.61-2.85,1.7-.76,.07-.95-.55-1.51-1-.62-.49-1.2-.65-1.97-.5-.74,.15-1.62,.99-2.37,.88-1.96-.29-1.02-3.97-3.75-3.27,.15-.04,.42-.4,.7-.67Z"/>
            <path class="cls-22" d="M56.16,54.48c.69-.12,1.2,.34,1.54,.89,1.16,1.88-1.43,5.64-3.07,3.43-1.06-1.43-.26-3.99,1.53-4.31Z"/>
            <path class="cls-19" d="M55.97,49.78c.62,1.76,.71,3.77,.45,5.6-.14,.98-.39,1.98-.85,2.87-.21,.4-.47,.67-.75,1-.13,.15-.93,.87-.95,.96,.31-1.37-1.49-2.26-2.46-2.76-2.47-1.3-5.29-2.11-7.96-2.88-.41-.12-4.32-.92-4.17-.1-.14-.75-.37-1.28-.04-2.06,.28-.66,.73-1.24,1.18-1.79,.8-.96,1.71-1.94,2.72-2.69,2.27-1.68,5.3-2.89,8.16-2.41,2.44,.41,3.92,2.12,4.67,4.25Z"/>
            <g class="cls-13">
              <path class="cls-19" d="M70.71,62.3c-.08-.29-.13-.6-.13-.86,0-.57,.18-1.17,.38-1.69,.01-.03,.03-.06,.04-.1,.15-.7,.64-1.15,.08-1.69-.01-.01-.03-.03-.04-.04-.54-.25-1.4-.14-1.83,.08-1.57,.8-1.72,2.38-2.6,3.65-.42,.61-1.32,1.17-1.84,.6-.61-.67-.34-2.25-1.1-2.77-1.29-.89-3.92,3.04-5.38,2.1,.23,.37,.54,.66,1.03,.73,.76,.11,1.63-.73,2.37-.88,.77-.15,1.35,0,1.97,.5,.56,.45,.76,1.06,1.51,1,1.06-.09,1.89-1.33,2.85-1.7,1.35-.51,1.94,.31,2.67,1.09Z"/>
              <path class="cls-19" d="M72.77,61.86c-.21,.27-.42,.57-.63,.9-.12,.17-.23,.3-.34,.38,1.41,.55,1.76-2.29,3.4-1.64-.68-.74-1.66,.19-2.42,.36Z"/>
            </g>
            <path class="cls-12" d="M70.13,54.16c-.92-.1-1.45-.88-2.25-1.28,.39,.41,.52,1.05,.24,1.68-.18,.39-.52,.65-.82,.88,1.11,.52,2.25,1.82,3.44,1.02,.24-.16,.43-.39,.61-.65-.11-.17-.26-.35-.3-.52-.12-.51,.09-.97,.36-1.41-.36,.19-.76,.33-1.27,.28Z"/>
            <path class="cls-12" d="M56.42,55.38c.26-1.83,.17-3.84-.45-5.6-.52-1.5-1.41-2.78-2.73-3.55,.42,.94,1.63,1.69,1.94,2.72,.28,.93-.21,1.25-.96,.56-.41-.38-.62-1-1.05-1.4-.53-.5-1.22-.92-1.93-1.11-.74-.19-1.43-.02-1.19,.86-.27-.08-1.16-.13-1.18,.32-.02,.46,1.48,.75,1.79,.85,1.89,.66,3.53,2.15,4.11,4.11,.43,1.45-.34,3.37-2.11,2.92-1.24-.31-2.1-1.44-2.64-2.53-.66-1.35-.82-2.31-2.51-2.55-.9-.13-4-.56-4.29,.75,2.17,.96,6.12,.29,6.9,3.35-.96,.64-2.81-.39-3.78-.66-1.24-.34-2.51-.49-3.76-.75-.94-.2-1.97-.23-2.88-.52-.38-.12-.53-.28-.56-.46-.18,.64,.01,1.13,.14,1.79-.15-.82,3.76-.02,4.17,.1,2.67,.77,5.49,1.58,7.96,2.88,.97,.51,2.77,1.39,2.46,2.76,.02-.1,.82-.81,.95-.96,.28-.34,.54-.6,.75-1,.46-.88,.71-1.88,.85-2.87Z"/>
            <path class="cls-12" d="M55.19,51.75c-.26-.46-.37-1.3-1.1-1.55,.07,.26,.14,.56,.05,.8-.73-.47-1.77-3.05-3.1-2.28,.38,.72,1.61,1.16,2.17,1.86,.76,.95,1.79,2.5,1.67,3.76-.14,1.43-1.63,2.24-2.89,1.55-.32-.17-2.17-2.05-2.12-2.34-.13,.77,.89,1.47,.82,2.23-.1,1.16-2.02,.11-2.7-.15-1.48-.58-2.98-1.04-4.54-1.35-1.21-.23-3.37-.16-4.37-1.07,0,.42,.12,.8,.21,1.27-.15-.82,3.76-.02,4.17,.1,2.67,.77,5.49,1.58,7.96,2.88,.97,.51,2.77,1.39,2.46,2.76,.02-.1,.82-.81,.95-.96,.28-.34,.54-.6,.75-1,.46-.88,.71-1.88,.85-2.87,.17-1.19,.24-2.51,0-3.69-.73,.53-1.03,.41-1.23,.06Z"/>
            <path class="cls-5" d="M46.55,46.54c-1.15,.45-2.21,.94-3.24,1.74-1.12,.87-2.62,1.86-3.06,3.29-.33,1.1,.6,.91,1.56,1.04,.86,.12,2.29,.59,3.12,.24-.27-1.15-4.29-.53-2.37-2.06,1.45-1.16,3.42-1.28,5.19-.98,1.16,.19,2.81,1.03,3.94,.6-.16-1.16-4.42-1.63-3.48-2.76,.25-.3,.84-.12,1.04-.28,.24-.19,.06-.3,.22-.47,.57-.6,1.35-.32,2.03-.74-1.04-1.05-2.88-.4-4.02,.02-.32,.11-.62,.23-.92,.34Z"/>
          </g>
          <g>
            <path class="cls-1" d="M47.69,59.73c2.7,.87,3.64,4,3.77,6.54,.13,2.62-.18,5.83-2.63,7.34-1.37,.84-3.45,1.45-4.66,0-1.42-1.7-1.12-4.93-1.03-6.94,.07-1.6,.24-3.28,.78-4.79,.62-1.71,1.82-2.78,3.76-2.15Z"/>
            <path class="cls-1" d="M42.94,64.76c0-1.6,.2-3.21-1.12-4.39-2.11-1.88-4.32,.85-5.1,2.71-1.28,3.04-1.11,7.39,1.06,10.01,.95,1.14,3.75,3.01,4.61,.8,.53-1.37,.3-3.01,.3-4.46,0-1.67,.14-3.3,.25-4.67Z"/>
            <path class="cls-24" d="M46.83,56.37c.56,.33,1.02,.88,1.4,1.38,.37,.49,1.08,1.59,0,1.69-.41,.04-.89-.13-1.31-.15-.72-.03-1.42,.04-2.14,.1-2.33,.18-.47-3.52,1.21-3.32,.3,.04,.58,.14,.84,.3Z"/>
            <path class="cls-24" d="M39.26,57.61c-.56,.33-1.02,.88-1.4,1.38-.37,.49-1.08,1.6,0,1.69,.41,.04,.89-.13,1.31-.15,.72-.03,1.42,.04,2.13,.1,2.32,.18,.47-3.52-1.21-3.32-.3,.04-.58,.15-.84,.3Z"/>
            <path class="cls-11" d="M48.23,57.75c-.19-.25-.41-.52-.64-.76,.05,.13,.07,.27,.07,.42,0,.86-.85,1.22-1.58,1.31-.59,.07-1.31,.04-1.81-.31-.21-.15-.36-.33-.45-.52-.3,.82-.13,1.59,.96,1.51,.71-.06,1.42-.13,2.14-.1,.42,.02,.9,.19,1.31,.15,1.09-.09,.38-1.2,0-1.69Z"/>
            <path class="cls-11" d="M41.61,58.04c.05,.19,.06,.39,0,.61-.12,.47-.47,.8-.94,.9-.36,.07-.77,.02-1,.07-.68,.15-1.66,.4-2.12-.18-.31,.52-.51,1.17,.31,1.24,.41,.04,.89-.13,1.31-.15,.72-.03,1.42,.04,2.13,.1,1.59,.12,1.23-1.57,.3-2.58Z"/>
            <path class="cls-23" d="M40.34,75.45s5.55,1.93,11.08-2.73c0,0-1.51,7.34-6.03,7.73-4.51,.4-5.06-5.01-5.06-5.01Z"/>
            <path class="cls-1" d="M41.65,75.73c.2,1.32,.47,2.63,.8,3.93,.72,.56,1.67,.9,2.94,.79,4.51-.4,6.03-7.73,6.03-7.73-3.9,3.29-7.8,3.29-9.77,3.01Z"/>
            <path class="cls-30" d="M47.78,73.31s-.08,0-.12,.01c-1.07,.42-2.32,.5-3.12-.46h0c-.31-.3-.56-.67-.75-1.08,.14,.65,.38,1.24,.77,1.7,1.05,1.25,2.86,.73,4.05,0,.88-.54,1.45-1.35,1.79-2.26-.59,1.03-1.45,1.84-2.62,2.08Z"/>
            <path class="cls-30" d="M42.15,70.95c.01,.74-.03,1.47-.28,2.14-.7,1.8-2.99,.27-3.76-.66,0-.01-.02-.03-.03-.04-.37-.33-.7-.73-.97-1.16,.24,.66,.58,1.26,1.01,1.79,.77,.93,3.06,2.46,3.76,.66,.33-.84,.3-1.8,.27-2.72Z"/>
            <g>
              <path class="cls-21" d="M49.85,68.44c0,1.48-1.2,2.68-2.68,2.68s-2.68-1.2-2.68-2.68,1.2-2.68,2.68-2.68,2.68,1.2,2.68,2.68Z"/>
              <path class="cls-32" d="M48.91,68.44c0,.96-.78,1.74-1.74,1.74s-1.74-.78-1.74-1.74,.78-1.73,1.74-1.73,1.74,.78,1.74,1.73Z"/>
              <path class="cls-1" d="M49.37,66.95c-.02-.12-.07-.23-.15-.33-.05-.04-.09-.08-.14-.13-.1-.07-.22-.11-.34-.12-.09-.01-.18,0-.26,.04-.09,.02-.17,.06-.24,.12-.08,.06-.13,.13-.17,.22-.05,.08-.08,.17-.08,.26,0,.06,0,.12,0,.18,.02,.12,.07,.23,.15,.32,.05,.04,.09,.08,.14,.13,.1,.07,.22,.11,.34,.12,.09,.01,.18,0,.26-.04,.09-.02,.17-.06,.24-.12,.08-.06,.13-.13,.17-.22,.05-.08,.08-.17,.08-.26,0-.06,0-.12,0-.18Z"/>
              <path class="cls-1" d="M49.23,68.16s0-.06-.01-.08c0-.04-.03-.08-.06-.11-.02-.02-.04-.04-.06-.06-.03-.01-.05-.03-.08-.04-.04-.02-.08-.02-.12-.02-.03,0-.06,0-.08,.01-.04,0-.08,.03-.11,.06-.02,.02-.04,.04-.06,.07-.01,.03-.03,.05-.04,.08-.02,.04-.02,.08-.02,.12,0,.03,0,.05,.01,.08,0,.04,.03,.08,.06,.11,.02,.02,.04,.04,.06,.06,.03,.01,.05,.03,.08,.04,.05,.02,.11,.02,.17,.01,0,0,0,0,0,0,.05,0,.1-.03,.15-.07,.04-.04,.08-.08,.1-.14,0,0,0,0,0,0,.02-.04,.02-.08,.01-.12Z"/>
              <path class="cls-1" d="M45.98,68.59c-.02-.1-.06-.18-.12-.25-.04-.03-.07-.07-.11-.1-.08-.06-.17-.09-.27-.1-.07,0-.14,0-.21,.03-.07,.02-.13,.05-.19,.1-.06,.05-.1,.1-.13,.17-.04,.06-.06,.13-.06,.2,0,.05,0,.09,0,.14,.02,.09,.06,.18,.12,.25,.04,.03,.07,.07,.11,.1,.08,.06,.17,.09,.27,.1,.07,0,.14,0,.21-.03,.07-.02,.13-.05,.19-.1,.06-.05,.1-.1,.13-.17,.04-.06,.06-.13,.06-.2,0-.05,0-.09,0-.14Z"/>
            </g>
            <g>
              <path class="cls-28" d="M42.32,68.44c0,1.48-1.2,2.68-2.68,2.68s-2.68-1.2-2.68-2.68,1.2-2.68,2.68-2.68,2.68,1.2,2.68,2.68Z"/>
              <path class="cls-32" d="M41.38,68.44c0,.96-.78,1.74-1.74,1.74s-1.74-.78-1.74-1.74,.78-1.73,1.74-1.73,1.74,.78,1.74,1.73Z"/>
              <path class="cls-1" d="M41.83,66.95c-.02-.12-.07-.23-.15-.33-.05-.04-.09-.08-.14-.13-.1-.07-.22-.11-.34-.12-.09-.01-.18,0-.26,.04-.09,.02-.17,.06-.24,.12-.08,.06-.13,.13-.17,.22-.05,.08-.08,.17-.08,.26,0,.06,0,.12,0,.18,.02,.12,.07,.23,.15,.32,.05,.04,.09,.08,.14,.13,.1,.07,.22,.11,.34,.12,.09,.01,.18,0,.26-.04,.09-.02,.17-.06,.24-.12,.08-.06,.13-.13,.17-.22,.05-.08,.08-.17,.08-.26,0-.06,0-.12,0-.18Z"/>
              <path class="cls-1" d="M41.69,68.16s0-.06-.01-.08c0-.04-.03-.08-.06-.11-.02-.02-.04-.04-.06-.06-.03-.01-.05-.03-.08-.04-.04-.02-.08-.02-.12-.02-.03,0-.05,0-.08,.01-.04,0-.08,.03-.11,.06-.02,.02-.04,.04-.06,.07-.01,.03-.03,.05-.04,.08-.02,.04-.02,.08-.02,.12,0,.03,0,.05,.01,.08,0,.04,.03,.08,.06,.11,.02,.02,.04,.04,.06,.06,.03,.01,.05,.03,.08,.04,.05,.02,.11,.02,.17,.01,0,0,0,0,0,0,.05,0,.1-.03,.15-.07,.04-.04,.08-.08,.1-.14,0,0,0,0,0,0,.02-.04,.02-.08,.02-.12Z"/>
              <path class="cls-1" d="M38.44,68.59c-.02-.1-.06-.18-.12-.25-.04-.03-.07-.07-.11-.1-.08-.06-.17-.09-.27-.1-.07,0-.14,0-.21,.03-.07,.02-.13,.05-.19,.1-.06,.05-.1,.1-.13,.17-.04,.06-.06,.13-.06,.2,0,.05,0,.09,0,.14,.02,.09,.05,.18,.12,.25,.04,.03,.07,.07,.11,.1,.08,.06,.17,.09,.27,.1,.07,0,.14,0,.21-.03,.07-.02,.13-.05,.19-.1,.06-.05,.1-.1,.13-.17,.04-.06,.06-.13,.06-.2,0-.05,0-.09,0-.14Z"/>
            </g>
          </g>
        </g>
      </g>
    </g>
  </g>
</svg>