<?xml version="1.0" encoding="UTF-8"?>
<svg xmlns="http://www.w3.org/2000/svg" xmlns:xlink="http://www.w3.org/1999/xlink" viewBox="0 0 132.43 140.54">
  <defs>
    <style>
      .cls-1 {
        fill: #fff;
      }

      .cls-2 {
        fill: url(#_Áåçûìÿííûé_ãðàäèåíò_49);
      }

      .cls-3 {
        fill: #a1c2ff;
      }

      .cls-4, .cls-5, .cls-6 {
        fill: #98e5ff;
      }

      .cls-7 {
        fill: #f44525;
      }

      .cls-8, .cls-9 {
        fill: #a4c4ff;
      }

      .cls-5, .cls-6, .cls-10 {
        mix-blend-mode: screen;
      }

      .cls-5, .cls-11 {
        opacity: .39;
      }

      .cls-12 {
        isolation: isolate;
      }

      .cls-13 {
        fill: #ffe572;
      }

      .cls-14 {
        fill: url(#_Áåçûìÿííûé_ãðàäèåíò_49-2);
      }

      .cls-15 {
        fill: #ffbd27;
      }

      .cls-16 {
        fill: #d7e5ff;
      }

      .cls-17 {
        fill: #712313;
      }

      .cls-18 {
        fill: #ffca52;
      }

      .cls-19 {
        fill: #fbcc40;
      }

      .cls-20, .cls-11, .cls-9, .cls-21 {
        mix-blend-mode: multiply;
      }

      .cls-20, .cls-10 {
        fill: #e2c989;
      }

      .cls-20, .cls-21 {
        opacity: .23;
      }

      .cls-22 {
        fill: #ffd26c;
      }

      .cls-23 {
        fill: #ff9f00;
      }

      .cls-24 {
        fill: #b8b8b8;
      }

      .cls-25 {
        fill: #661201;
      }

      .cls-26 {
        fill: #6b9fff;
      }

      .cls-27 {
        fill: #e5e5e5;
      }

      .cls-28 {
        fill: #ff7c8b;
      }

      .cls-29 {
        fill: #853408;
      }

      .cls-30 {
        fill: #ff4f40;
      }

      .cls-31, .cls-11 {
        fill: #68c2ff;
      }

      .cls-32 {
        fill: #ccc;
      }

      .cls-33 {
        fill: #761b0d;
      }

      .cls-34 {
        fill: #bbd3ff;
      }

      .cls-35 {
        fill: #ff573d;
      }

      .cls-36 {
        fill: #9cbfff;
      }

      .cls-10 {
        opacity: .46;
      }

      .cls-9 {
        opacity: .6;
      }

      .cls-37 {
        fill: #7c3425;
      }

      .cls-21 {
        fill: #edd253;
      }
    </style>
    <linearGradient id="_Áåçûìÿííûé_ãðàäèåíò_49" data-name="Áåçûìÿííûé ãðàäèåíò 49" x1="68.13" y1="-35.16" x2="69.25" y2="-30.55" gradientTransform="translate(4.79 79.37) rotate(19)" gradientUnits="userSpaceOnUse">
      <stop offset="0" stop-color="#ffca52"/>
      <stop offset="1" stop-color="#9c5e1b"/>
    </linearGradient>
    <linearGradient id="_Áåçûìÿííûé_ãðàäèåíò_49-2" data-name="Áåçûìÿííûé ãðàäèåíò 49" x1="59.87" y1="-73.43" x2="60.99" y2="-68.83" gradientTransform="translate(2.5 108.1) rotate(27.57)" xlink:href="#_Áåçûìÿííûé_ãðàäèåíò_49"/>
  </defs>
  <g class="cls-12">
    <g id="Layer_2" data-name="Layer 2">
      <g id="_Ñëîé_2" data-name="Ñëîé 2">
        <g>
          <g>
            <polygon class="cls-34" points="92.82 124.65 96.87 134.89 99.76 134.29 102.2 122.55 92.82 124.65"/>
            <g>
              <rect class="cls-32" x="55.93" y="16.48" width="2.46" height="114.18" transform="translate(-21.31 23.34) rotate(-19.53)"/>
              <path class="cls-24" d="M36.9,20.18l19.25,54.25c2.43,1.73,7.35,14.98,20.93,51.63L39.22,19.36l-2.31,.82Z"/>
              <path class="cls-19" d="M96.23,31.77c-3.21,4.31-11.33,12.77-14.13,18.41-8.22-.04-24.9,7.06-28.39,13.7-8.85-1.63-24.43-.2-29.85,7.18-5.36-6.51-17.62-6.73-23.39-5.3C-2.49,57.41,8.59,20.62,35.03,11.24c26.44-9.38,58.23,12.19,61.2,20.53Z"/>
              <path class="cls-7" d="M38.86,10.1c-1.29,.31-2.56,.69-3.83,1.14,0,0,8.15,20.13,18.68,52.63,3.49-6.64,20.17-13.74,28.39-13.7,0,0-25.07-42.01-43.24-40.08Z"/>
              <path class="cls-21" d="M62.06,10.55c.75,1.93,1.04,3.99,.59,6.15-.43,2.06-1.37,4.02-2.5,5.78-1.26,1.98-2.65,3.86-4.17,5.65-3.05,3.59-6.54,6.79-10.23,9.7-3.39,2.67-6.96,5.2-10.69,7.38-3.65,2.13-7.58,3.88-11.54,5.35-2.5,.92-5.04,1.71-7.65,2.25-2.31,.48-4.68,.77-7.04,.52-1.94-.21-3.93-.9-5.29-2.36-.46-.49-.83-1.04-1.12-1.62C.09,56.66-.55,62.89,.47,65.75c5.77-1.43,18.03-1.21,23.39,5.3,5.42-7.38,21.01-8.81,29.85-7.18,3.49-6.64,20.17-13.74,28.39-13.7,2.79-5.63,10.92-14.1,14.13-18.41-1.97-5.56-16.73-16.97-34.17-21.22Z"/>
              <path class="cls-7" d="M35.03,11.24C8.59,20.62-2.49,57.41,.47,65.75c5.77-1.43,18.03-1.21,23.39,5.3,0,0-5.45-43.21,11.18-59.81Z"/>
              <path class="cls-10" d="M27.56,15.28c1.81-1.06,3.75-1.88,5.82-2.36,1.49-.35,3.19-.47,4.43,.42,.92,.66,1.43,1.79,1.55,2.92,.16,1.59-.33,3.24-.94,4.7-2.22,5.23-6.34,9.44-10.79,12.97-2.77,2.2-5.73,4.2-9.01,5.51-.84,.33-1.7,.62-2.58,.79-.61,.12-1.23,.11-1.84,.2-.33,.05-.6,0-.92-.13-.64-.27-1.15-.8-1.46-1.41-.45-.88-.51-1.91-.43-2.9,.32-4.04,2.79-7.56,5.34-10.7,3.1-3.82,6.64-7.55,10.83-10Z"/>
              <path class="cls-10" d="M11.08,43.63c-.9-1.28-2.68-1.77-3.94-.71-.99,.84-1.52,2.35-1.74,3.6-.16,.9-.19,1.9,.12,2.74,.02,.15,.05,.3,.1,.45,.2,.61,.61,1.12,1.18,1.41,.98,.49,2.21,.34,3.12-.24,1.03-.66,1.58-1.89,1.75-3.06,.19-1.36,.22-3.02-.59-4.19Z"/>
              <path class="cls-10" d="M48.65,10.79c-.35-.43-.88-.76-1.39-.91-1.33-.38-3.15,.03-4.39,.54-.05,.02-.09,.04-.14,.06-.46,.2-.99,.58-1.36,.93-.18,.17-.26,.44-.21,.67,.07,.36,.34,.65,.62,.88,1.43,1.18,3.46,1.55,5.24,1.03,.87-.25,1.74-.79,1.99-1.65,.16-.57-.02-1.11-.37-1.54Z"/>
              <path class="cls-20" d="M64.26,49.71c1.88-.7,3.9-.92,5.89-.84,.87,.03,1.86,.02,2.66,.39,.3,.14,.57,.3,.9,.38,.38,.1,1.07,.35,1.45,.29-7.61,1.11-14.79,4.94-19.95,10.65,.38-1.57,1.01-3.07,1.86-4.44,.37-.61,.8-1.15,1.09-1.79,.29-.65,.87-1.14,1.37-1.61,1.36-1.3,2.95-2.36,4.72-3.02Z"/>
              <path class="cls-37" d="M34.13,12.47s2.45,.23,3.59-1.27L32.56,0l-1.21,.43,2.78,12.05Z"/>
              <path class="cls-17" d="M33.81,2.71c.31,.96,.55,1.95,.71,2.93,.23,1.4,.35,3.41-.96,4.35l.57,2.49s2.45,.23,3.59-1.27l-3.92-8.49Z"/>
              <path class="cls-25" d="M34.91,10.02c-.29,.37-.7,.68-1.16,.81l.38,1.64s2.45,.23,3.59-1.27l-1.88-4.08c-.02,1.06-.26,2.06-.93,2.9Z"/>
            </g>
            <path class="cls-16" d="M22.88,108.41l52.24-14.12,24.1-53.39s26.76,9.86,26.76,10.55-23.65,67.18-23.65,67.18c.9,.25-43.7,9.85-43.7,9.85l-35.74-20.07Z"/>
            <polygon class="cls-34" points="58.57 132.31 104.15 122.11 128.28 53.27 125.92 51.34 102.27 118.53 58.57 128.37 58.57 132.31"/>
            <path class="cls-8" d="M104.58,111.79c.08-.64,.18-1.28,.25-1.92,.04-.41-.09-.8-.05-1.21,.14-1.25,.32-2.5,.44-3.76,.07-.71,.12-1.43,.17-2.14,.06-.91,.17-1.8,.23-2.7,.14-2.23,.27-4.45,.36-6.68,.02-.41,.04-.82,.05-1.23,0-.24,.01-.48,.02-.71,0-.06,0-.13,0-.19,.01-.5,.03-.99,.04-1.49,0-.06,0-.13,0-.19,0-.06,0-.12,0-.18,0-.15,0-.31,0-.46,.02-1.39,.02-2.78,0-4.18v-.17s0-.02,0-.04c-.02-1-.05-2.01-.08-3.01-.01-.3-.03-.6-.04-.9-.02-.46-.04-.93-.06-1.4-.01-.25-.03-.5-.05-.75-.02-.35-.04-.7-.07-1.04-.05-.7-.1-1.4-.15-2.1-.03-.32-.05-.63-.08-.95-.08-.95-.17-1.9-.27-2.85,0-.05,0-.11-.02-.16-.09-.88-.2-1.76-.31-2.64-.01-.1-.03-.2-.04-.3-.4-3.15-.91-6.3-1.52-9.42-.01-.12-.02-.26-.07-.36-.02-.11-.04-.22-.06-.33-.05,.04-.11,.09-.16,.13-.52-.22-1.39,.51-1.64,.77-.57,.59-1.12,1.19-1.64,1.82-.73,.87-1.38,1.85-2.26,2.6-.71,.61-1.59,1.02-2.34,1.59-.69,.52-1.25,1.16-1.77,1.82-.48,.62-.91,1.28-1.4,1.9-.37,.48-.86,.74-1.31,1.14-.59,.53-1.06,1.16-1.69,1.68-.61,.5-1.28,.95-1.99,1.32-.49,.25-1.03,.5-1.3,.94-.16,.26-.21,.57-.34,.86-.4,.9-1.41,1.36-2.38,1.82l-7.94,17.59-21.83,5.9c-.17,.11-.35,.22-.52,.33-.81,.51-1.62,1.02-2.43,1.53-.39,.25-.78,.55-1.21,.76-.13,.06-.27,.09-.41,.15-.55,.24-1.01,.61-1.58,.82-.5,.19-1.08,.42-1.65,.71h0s0,0,0,0c0,0-.01,0-.02,0-.12,.06-.24,.12-.36,.19-.04,.02-.08,.04-.11,.07-.09,.05-.18,.11-.27,.16-.04,.02-.08,.04-.11,.07-.12,.08-.24,.16-.35,.24,0,0,0,0,0,0-.11,.08-.21,.16-.31,.25-.03,.03-.06,.05-.09,.08-.07,.07-.14,.14-.21,.21-.03,.03-.06,.06-.08,.09-.09,.1-.17,.19-.24,.3,0,0,0,0,0,0-.07,.1-.13,.21-.19,.31-.02,.03-.03,.07-.04,.1-.04,.08-.07,.17-.1,.25-.01,.03-.02,.07-.03,.1-.03,.12-.05,.24-.06,.36,0,0,0,0,0,0,0,.12,0,.25,.01,.38,0,.04,.01,.08,.02,.12,.02,.1,.04,.2,.07,.3,.01,.04,.02,.08,.04,.12,.05,.14,.11,.28,.19,.43,.1,.18,.21,.34,.34,.49,.27,.3,.6,.56,.94,.8,.17,.12,.35,.23,.53,.34,5.75,3.65,11.5,7.3,17.24,10.95,1.72,1.09,3.46,2.2,5.26,3.18,1,.55,2.02,1.04,3.07,1.49,13.14-2.86,32.3-7.08,31.71-7.25,0,0,.81-2.29,2.14-6.02,.04-.27,.08-.55,.11-.82Z"/>
            <path class="cls-3" d="M101.62,125.32l.58-2.77-9.37,2.1,3.05,7.71c1.03-2.91,3.39-5.86,5.75-7.04Z"/>
            <g>
              <polygon class="cls-9" points="100.05 46.09 122.25 54.84 120.74 59.2 98.13 50.6 100.05 46.09"/>
              <polygon class="cls-9" points="97.21 52.64 119.41 61.4 117.89 65.75 95.29 57.16 97.21 52.64"/>
              <polygon class="cls-9" points="94.99 59.78 117.19 68.53 115.67 72.89 93.07 64.29 94.99 59.78"/>
              <polygon class="cls-9" points="91.82 66.86 114.02 75.62 112.5 79.97 89.9 71.38 91.82 66.86"/>
              <polygon class="cls-9" points="89.64 74.71 111.84 83.46 110.32 87.81 87.72 79.22 89.64 74.71"/>
              <polygon class="cls-9" points="86.75 82.21 108.95 90.96 107.43 95.32 84.83 86.72 86.75 82.21"/>
              <polygon class="cls-9" points="84.63 89.37 106.83 98.12 105.32 102.47 82.72 93.88 84.63 89.37"/>
              <polygon class="cls-9" points="82.49 96.67 104.69 105.42 103.18 109.78 80.57 101.18 82.49 96.67"/>
              <polygon class="cls-9" points="80.84 102.88 103.04 111.63 101.53 115.99 78.92 107.39 80.84 102.88"/>
            </g>
            <polygon class="cls-26" points="22.83 108.3 22.83 111.89 58.57 132.31 58.57 128.37 22.83 108.3"/>
            <path class="cls-34" d="M132.43,128.55l-13.35-49.03-1.86,5.29,12.27,44.11c.98-.11,1.96-.24,2.94-.38Z"/>
            <polygon class="cls-3" points="30.84 116.47 33.56 126.07 36.9 126.07 38.73 120.97 30.84 116.47"/>
            <polygon class="cls-34" points="65.19 130.83 69.44 140.54 74.37 139.32 77.14 128.15 65.19 130.83"/>
            <path class="cls-3" d="M76.63,130.21l.51-2.06-11.95,2.67,2.94,6.72c1.77-3.39,5.07-6.46,8.5-7.33Z"/>
            <polygon class="cls-36" points="116.65 86.45 128.28 128.15 129.5 128.93 117.22 84.81 116.65 86.45"/>
            <polygon class="cls-26" points="33.56 126.07 32.56 125.3 29.71 115.83 30.84 116.47 33.56 126.07"/>
            <polygon class="cls-26" points="69.44 140.54 68.41 139.89 64.07 131.08 65.19 130.83 69.44 140.54"/>
            <polygon class="cls-26" points="96.87 134.89 96.09 134.34 93.08 126.98 93.64 125.62 96.87 134.89"/>
          </g>
          <g>
            <path class="cls-18" d="M70.3,117.69c2.29,.7,4.67,1.17,6.77,2.32,2.83,1.56,4.91,4.26,7.77,5.79,3.34,1.79,8.42,.77,9.75-3.05,1.93-5.54,3.02-11.58,4.06-17.35,.3-1.68,.58-3.36,.83-5.05,.55-3.67,.97-7.36,1.28-11.05,.3-3.7,.49-7.4,.55-11.11,.06-3.71,0-7.42-.18-11.13-.18-3.71-.49-7.4-.91-11.09-.09-.81-.2-1.62-.31-2.42-.26-1.87-.55-3.74-.85-5.61-.08-.47-.15-.93-.23-1.4-.04-.24-.08-.49-.12-.73-.03-.15-.01-.44-.11-.57-.45-.59-1.49,.36-1.78,.67-.56,.62-1.09,1.26-1.59,1.92-.71,.92-1.34,1.95-2.19,2.75-.69,.65-1.54,1.08-2.27,1.68-.67,.55-1.22,1.22-1.71,1.92-.47,.66-.89,1.35-1.36,2.01-.36,.51-.84,.78-1.27,1.2-.58,.56-1.03,1.23-1.64,1.77-.59,.53-1.24,1-1.94,1.39-.47,.27-1,.52-1.26,1-.16,.28-.21,.61-.33,.9-.47,1.17-1.84,1.63-2.94,2.25-2.83,1.61-4.33,4.93-7.08,6.68-1.16,.74-2.55,1.2-3.41,2.28-.53,.67-.83,1.54-1.51,2.07-.47,.36-1.16,.62-1.23,1.22-.03,.22,.05,.44,.07,.66,.06,.85-.74,1.53-1.54,1.84-.8,.31-1.69,.42-2.39,.92-.63,.45-1.01,1.17-1.49,1.77-.72,.89-1.67,1.55-2.62,2.2-.96,.66-1.92,1.32-2.88,1.98-1.58,1.08-3.15,2.16-4.72,3.24-.79,.54-1.57,1.08-2.36,1.62-.38,.26-.76,.58-1.17,.8-.13,.07-.27,.1-.4,.16-.53,.25-.98,.64-1.53,.87-1.95,.8-5.17,2.37-3.81,5.12,.37,.75,1.08,1.25,1.76,1.72,5.58,3.86,11.17,7.71,16.75,11.57,3.35,2.31,6.75,4.65,10.6,5.98,.31,.11,.63,.21,.94,.3Z"/>
            <path class="cls-15" d="M98.91,46.98c.05,2.42,.13,4.85,.2,7.27,.03,.95,.05,1.91,.07,2.86,.02,.81,.14,1.69-.06,2.48-.17,.69-.2,1.33-.25,2.04-.06,.91-.19,1.81-.4,2.69-.1,.44-.24,.9-.57,1.22-.12,.12-.27,.22-.38,.36-.3,.42-.07,1,.12,1.48,.41,.98,.64,2.04,.69,3.1,.02,.48-.09,1.02,0,1.49,.22,1.08,.3,2.15,.14,3.25-.41,2.81-1.59,5.5-3.41,7.67-1.95,2.33-4.62,4.12-5.96,6.84,1.66,.39,1.94,2.66,1.58,4.33-.46,2.12-1.38,4.13-2.68,5.87-.45,.6-.97,1.19-1.67,1.44-.7,.26-1.62,.07-1.96-.6-.25-.48-.15-1.05-.05-1.58,.26-1.34,.64-2.71,.79-4.06-3.56,.26-3.94,6.08-2.92,8.55,1.07,2.61,2.88,4.45,3.05,7.42,.17,2.96-1.06,5.88-4.51,4.77-2.88-.93-5.48-2.71-7.39-5.06-1.69-2.09-3.37-4.91-6.06-4.81-.97,.04-1.89,.48-2.86,.55-1.17,.08-2.3-.39-3.38-.86-4.69-2.02-9.39-4.04-14.08-6.06-1.42-.61-2.9-1.27-3.84-2.51-.83-1.1-.95-2.26-.7-3.39-1.66,.91-3.22,2.31-2.21,4.37,.37,.75,1.08,1.25,1.76,1.72,5.58,3.86,11.17,7.71,16.75,11.57,3.35,2.31,6.75,4.65,10.6,5.98,.31,.11,.63,.21,.94,.3,2.29,.7,4.67,1.17,6.77,2.32,2.83,1.56,4.91,4.26,7.77,5.79,3.34,1.79,8.42,.77,9.75-3.05,1.93-5.54,3.02-11.58,4.06-17.35,3.48-19.26,3.56-39.13,.27-58.42Z"/>
            <path class="cls-23" d="M99.31,105.5c.08-.57,.16-1.14,.23-1.72,.1-.77,.2-1.55,.29-2.32,.08-.67,.17-1.35,.24-2.03,.04-.43-.09-.84-.04-1.28,.13-1.32,.31-2.64,.43-3.97,.06-.75,.12-1.51,.16-2.26,.05-.96,.16-1.9,.22-2.86,.22-3.75,.41-7.51,.47-11.27,.02-1.7,0-3.39,0-5.09-.15-9.3-1.06-18.6-2.74-27.75-.1,.09-.21,.19-.31,.28,.72,3.42,1.28,6.79,1.51,10.31,.29,4.31,.3,8.63,.17,12.95-.15,4.93-.49,9.86-.83,14.78-.09,1.27-.19,2.59-.83,3.69-.58,1-1.56,1.71-2.17,2.7-1.33,2.13-.68,5.02-1.83,7.26-1.22,2.36-3.4,4.25-3.77,7.02-.31,2.31,.8,4.46,1.03,6.71,.15,1.42-.71,2.92-1.96,3.64-.38-.64-.6-1.46-.81-2.18-.07-.25-.32-2.14-.45-2.19-.65-.26-1.14,.63-1.24,1.33-.18,1.26-.21,2.55-.1,3.81,.18,1.97,1.08,3.91-.15,5.78-.73,1.11-2.28,1.29-3.48,.97-1.42-.37-2.69-1.61-3.75-2.52-2.31-1.99-4.54-4.46-7.66-5.1-.93-.19-2.02-.28-2.55-1.06-.35-.51-.35-1.17-.55-1.76-.87-2.47-4.37-2.13-6.98-2.41-4.82-.52-8.45-4.61-13.01-6.26-1.33-.48-2.72-.75-4.11-1,4.68,3.23,9.36,6.46,14.04,9.7,3.35,2.31,6.75,4.65,10.6,5.98,.31,.11,.63,.21,.94,.3,2.29,.7,4.67,1.17,6.77,2.32,1.31,.72,2.46,1.69,3.59,2.67,1.3,1.12,2.61,2.22,4.04,3.17,1.08,.72,2.15,1.32,3.39,1.72,.27,.09,.54,.19,.8,.3,1.67,.71,3.69,.54,4.41-1.32,.9-2.34,1.81-4.7,2.55-7.1,.22-.71,.39-1.44,.63-2.15,.24-.88,.45-1.77,.63-2.67,.08-.42,.12-.86,.26-1.26,.09-.24,.24-.44,.36-.67,.4-.72,.55-1.65,.74-2.45,.21-.9,.39-1.8,.54-2.71,.11-.67,.22-1.35,.31-2.03Z"/>
            <path class="cls-15" d="M95.68,72.05c-.03-.06-.07-.12-.11-.17-.1-.12-.28-.24-.43-.28-.06-.02-.54-.03-.49,.12,.29,.97,.58,2.02,.26,2.98-.22,.67-.71,1.23-1.27,1.65-.57,.42-1.21,.72-1.84,1.03-.24,.12-.48,.24-.65,.44-.16,.19-.25,.46-.14,.69,.2,.42,.38,.91,.76,1.2,.05,.04,.11,.07,.16,.1,.19,.22,.45,.39,.79,.46,.72,.16,1.46-.27,1.91-.8,.68-.8,1.08-1.91,1.25-2.97,.01-.05,.03-.1,.04-.15,.24-1.06,.27-2.17,.05-3.24-.06-.31-.12-.75-.28-1.06Z"/>
            <path class="cls-15" d="M89.6,81c0-.1-.05-.18-.09-.26-.02-.05-.05-.09-.07-.14-.08-.14-.24-.21-.39-.22-.17-.01-.31,.05-.42,.17-.52,.53-.58,1.46-.13,2.05,.08,.11,.19,.2,.33,.23,.14,.02,.28,0,.41-.08,.04-.02,.07-.06,.1-.09,.1-.12,.13-.26,.12-.4,.11-.1,.18-.22,.23-.36,.09-.29,.03-.61-.08-.89Z"/>
            <path class="cls-15" d="M65.16,98.74c-1.13-.88-2.58-.79-3.9-.49-.66,.15-1.31,.32-1.96,.49-.63,.17-1.22,.62-1.19,1.34,.02,.47,.23,.82,.55,1.1,.68,.73,1.62,1.15,2.63,1.23,.18,.01,.36,.01,.54,0,.3,.18,.61,.33,.94,.43,1.13,.35,2.47,.01,3.12-1.02,.66-1.04,.17-2.37-.74-3.08Z"/>
            <path class="cls-15" d="M78.04,107.81c.22-1.17-.18-2.42-1.04-3.27-.39-.38-.95-.63-1.49-.46-.45,.14-.78,.53-.87,.99-.12,.67,.16,1.31,.48,1.89,.06,.21,.15,.42,.26,.61,.2,.36,.49,.68,.82,.95,.13,.13,.28,.25,.46,.32,.06,.04,.12,.08,.18,.11,.32,.16,.74,.05,.92-.26,.1-.08,.19-.19,.24-.32,.07-.19,.09-.38,.05-.56Z"/>
            <path class="cls-23" d="M96.14,76.22c0-.09-.02-.18-.03-.27-.06-.44-.19-.91-.54-1.19-.31-.25-.75-.31-1.14-.21-.39,.1-.73,.34-1.01,.64-.59,.62-.89,1.46-.96,2.3-.08,1.01,.09,2.52,1.35,2.73,.92,.15,1.55-.78,1.88-1.51,.35-.77,.51-1.63,.44-2.48Z"/>
            <path class="cls-23" d="M93.75,86.47c.06-.45-.3-.75-.74-.66-.69,.15-1.28,.73-1.61,1.33-.2,.35-.31,.73-.35,1.12-.15,.41-.17,.87-.02,1.29,.1,.27,.39,.34,.63,.21,.05-.03,.09-.06,.13-.09,.04,0,.08-.01,.12-.03,.16-.06,.27-.17,.34-.29,.86-.71,1.35-1.77,1.49-2.89Z"/>
            <g>
              <path class="cls-23" d="M89.06,100.06c-.16-.72-.74-1.24-1.49-1.25-.73,0-1.27,.6-1.55,1.21-.31,.69-.46,1.41-.49,2.16-.03,.7,.06,1.55,.51,2.12,.24,.3,.65,.5,1.03,.35,.12-.05,.22-.12,.31-.21,.36-.18,.64-.53,.88-.88,.34-.5,.57-1.07,.71-1.66,.14-.6,.21-1.26,.08-1.86Z"/>
              <polygon class="cls-23" points="87.94 100.62 87.95 100.62 87.94 100.62 87.94 100.62"/>
            </g>
            <path class="cls-23" d="M83.49,104.06s0-.07,0-.11c0-.1-.04-.21-.07-.31-.03-.1-.1-.18-.16-.26-.02-.03-.04-.05-.05-.08-.03-.04-.06-.08-.11-.11-.05-.03-.09-.04-.14-.05,0,0-.01-.01-.02-.02-.07-.08-.2-.02-.22,.07,0,0,0,.01,0,.02-.07,.05-.12,.12-.13,.21,0,.03,0,.06-.01,.1,0,.03,0,.07,0,.1,0,.02,0,.03,0,.05-.01,.13-.01,.12,.02,.25,0,.04,.02,.07,.02,.11,.01,.07,.04,.13,.08,.19,.05,.08,.1,.16,.17,.23,.1,.09,.25,.12,.37,.08,.13-.04,.21-.15,.25-.28,.02-.06,.01-.13,.02-.19Z"/>
            <path class="cls-23" d="M95.76,60.64s0-.07,.01-.11c.37-.77,.52-1.63,.45-2.48-.02-.26-.21-.52-.48-.56-.26-.04-.55,.07-.67,.32-.14,.3-.29,.58-.37,.9-.07,.26-.12,.53-.16,.79-.04,.31-.03,.62,0,.93,.02,.2,.04,.4,.13,.58,.07,.13,.15,.27,.27,.36,.14,.13,.41,.14,.54-.03,.08-.11,.13-.22,.19-.34,.03-.06,.05-.12,.07-.19,0-.06,0-.1,0-.12,0,.01,0,0,0-.04Z"/>
            <path class="cls-22" d="M81.19,67.41c.24-.13,.32-.41,.45-.63,.14-.25,.39-.42,.59-.64,.47-.53,1.02-1,1.64-1.35,1.11-.63,2.41-.87,3.53-1.48,1.12-.61,2.1-1.83,1.79-3.08-1.01,.8-2.03,1.61-3.04,2.41-1.39,1.1-2.79,2.21-4.42,2.92-1.38,.6-2.89,.89-4.2,1.64-1.55,.89-2.69,2.34-3.76,3.78-2.49,3.32-4.69,6.86-7.41,9.98-1.78,2.04-3.93,3.61-6.27,4.95-3.32,1.91-6.76,3.79-10.36,5.06-1.27,.44-2.29,1.85-2.98,2.94-.29,.45-.54,1.04-.27,1.5,.16,.28,.48,.43,.77,.55,2,.82,4.18,1.19,6.34,1.06,.46-.03,.94-.08,1.36-.27,.53-.24,.94-.67,1.38-1.05,2.08-1.74,5.14-2.08,7.66-1.07,2.51,1.01,4.44,3.25,5.3,5.81,1.09-.61,1.77-1.88,1.67-3.12-.1-1.25-.99-2.39-2.16-2.81-.3-.11-.63-.17-.9-.34-.85-.53-.83-1.8-.41-2.71,1.11-2.41,3.76-3.53,5.56-5.32,.94-.94,1.4-1.85,1.52-3.15,.07-.78,.22-1.41,.03-2.19-.17-.72-.45-1.39-.43-2.14,.05-1.76,1.73-3.01,2.85-4.16,.28-.28,.55-.7,.43-1.11-.1-.37-.41-.65-.72-.89-.31-.24-.63-.47-.81-.82-.17-.34-.17-.74-.1-1.11,.19-1.02,.88-1.91,1.77-2.45,.89-.54,1.95-.74,2.99-.67,.2,.01,.41,.03,.59-.06Z"/>
            <path class="cls-22" d="M88.31,59.44c-.16-.1-.34-.17-.53-.21-.54-.12-1.09,0-1.61,.17-1.85,.62-3.42,2.19-3.75,4.11-.02,.09-.02,.21,.07,.25,.05,.03,.12,0,.17,0,.58-.19,1.17-.38,1.75-.57,1.12-.36,2.25-.73,3.3-1.28,.55-.29,1.22-.72,1.32-1.39,.04-.28-.2-.6-.38-.8-.1-.11-.21-.2-.34-.28Z"/>
            <path class="cls-13" d="M77.14,69.65c.29-1.15,.56-2.42,1.53-3.08-.02-.28-.34-.45-.61-.41-.27,.04-.5,.22-.71,.4-1.26,1.08-2.42,2.27-3.48,3.54-.5,.6-.98,1.22-1.62,1.66-.75,.52-1.65,.75-2.48,1.11-.83,.36-1.67,.92-1.96,1.78-.05,.14-.08,.3-.04,.44,.1,.37,.64,.46,.97,.25,.34-.22,.41-.62,.67-.9,.8-.84,1.91-.86,2.99-1,.64-.09,1.27-.27,1.86-.53,.25-.11,.47-.27,.71-.39,.2-.11,.43-.14,.63-.26,.84-.49,1.27-1.53,1.5-2.44,.01-.06,.03-.12,.04-.18Z"/>
            <path class="cls-13" d="M84.47,65.44c-1.14-.62-2.67-.11-3.26,1.02-.06,.11-.08,.24-.07,.38-.08,.14-.14,.28-.2,.44-.07,.19,.08,.46,.26,.54,.66,.29,1.43,.29,2.09,0,.35-.16,.67-.37,.94-.65,.28-.29,.46-.63,.58-1.02,.08-.27-.1-.58-.33-.7Z"/>
            <path class="cls-13" d="M50.91,93.92c-.18-.8-.87-1.42-1.71-1.37-.49,.03-.94,.26-1.38,.46-.46,.2-.91,.4-1.37,.61-.44,.19-.93,.35-1.3,.66-.45,.37-.72,.89-.53,1.48,.07,.23,.2,.4,.36,.53,.1,.22,.24,.42,.42,.59,.73,.68,1.79,.56,2.67,.31,.8-.23,1.6-.53,2.21-1.11,.6-.56,.82-1.36,.64-2.15Z"/>
            <path class="cls-13" d="M54.75,91.08c-.07-.14-.18-.23-.34-.27-.18-.05-.39-.04-.56,.04-.17,.08-.33,.18-.45,.34-.24,.3-.39,.72-.23,1.09,.07,.16,.18,.27,.33,.35,.07,.04,.15,.07,.23,.08,.11,.02,.21,0,.29-.08,.07-.06,.13-.17,.12-.27,0-.01,0-.03,0-.04,0-.02,0-.04,.01-.06,0,0,0,.01,0,.02,.01-.04,.02-.08,.03-.11h0s0,.03,0,.04c0-.01,0-.03,0-.04,.04-.03,.08-.04,.12-.07,.19-.16,.36-.35,.46-.58,.06-.15,.07-.29,0-.44Z"/>
            <path class="cls-15" d="M95.62,106.25c.01-.15,.03-.3,.04-.45,.02-.25-.04-.59-.29-.63-.13-.02-.26,.07-.39,.1-.32,.08-.64-.17-.76-.47-.12-.3-.09-.64-.05-.97,.1-.94,.2-1.89,.31-2.83,.03-.25,.05-.51-.04-.74-.1-.23-.35-.41-.59-.33-.13,.04-.22,.15-.31,.26-.35,.43-.82,.93-.98,1.47-.18,.58-.45,1.12-.61,1.7-.11,.4-.27,.94-.21,1.36,.03,.18,.1,.36,.13,.55,.08,.54,.17,1.07,.27,1.6,.2,1.04,.44,2.08,.72,3.11,.09,.35,.23,.73,.56,.87,.28,.11,.61,0,.82-.2,.22-.2,.35-.48,.46-.76,.48-1.16,.79-2.39,.92-3.63Z"/>
            <path class="cls-15" d="M98.08,92.08c-.03-.15-.09-.29-.15-.43-.1-.24-.39-.39-.64-.4-.27-.01-.53,.13-.68,.36-.11,.18-.2,.37-.29,.57-.09,.2-.15,.4-.15,.61-.01,.09-.03,.19-.04,.28,0,.05,0,.11,0,.16,0,.13,.02,.27,.08,.38,.01,.02,.03,.04,.04,.06,.03,.1,.06,.2,.1,.28,.05,.1,.14,.2,.24,.26,.16,.27,.61,.37,.83,.11,0,0,.12-.15,.19-.24,0,0,0,0,.01-.01,.04-.05,.08-.1,.12-.15,.03-.04,.05-.07,.07-.11,.1-.2,.19-.4,.24-.62,.05-.22,.08-.44,.07-.66,0-.14-.02-.29-.05-.43Z"/>
            <path class="cls-13" d="M93.26,52.51c-.33-.21-.71-.24-1.1-.18-.55,.08-1.04,.43-1.44,.8-.42,.38-.79,.86-1.03,1.37-.14,.3-.27,.6-.36,.92-.05,.19-.1,.38-.1,.57,0,.06,0,.13,0,.19,0,.02,0,.05,0,.07,.01,.2,.05,.33,.12,.51,.11,.28,.47,.46,.75,.47,.2,0,.39-.06,.55-.17,.19-.06,.38-.16,.56-.27,.2-.12,.4-.25,.59-.39,.43-.3,.85-.61,1.19-1.01,.41-.48,.81-1.06,.84-1.71,.02-.46-.21-.92-.61-1.17Z"/>
            <path class="cls-13" d="M95.69,51.52c-.01-.07-.03-.1-.07-.15-.02-.04-.06-.07-.1-.1,0,0,0,0,0,0,0,0-.01,0-.02,0,0-.01,0-.02,0-.03,0-.02-.02-.05-.03-.06-.02-.03-.04-.06-.08-.07-.06-.03-.14-.06-.21-.04-.04,.01-.08,.02-.11,.05-.03,.02-.07,.04-.09,.07-.03,.03-.05,.06-.07,.09-.02,.03-.04,.07-.05,.11-.01,.04-.02,.08-.02,.12,0,.03,0,.06,0,.09,0,.03,0,.06,.01,.09,0,.03,.02,.06,.04,.09,0,0,0,.01,0,.02,.02,.03,.04,.06,.06,.08,0,0,.01,.01,.02,.02,0,0,.01,.01,.02,.02h0s.03,.05,.06,.06c.03,.03,.07,.05,.11,.06,.07,.02,.15,.03,.22,0,.07-.02,.14-.05,.19-.11,.02-.02,.05-.06,.07-.09,.04-.07,.05-.11,.06-.19,0-.04,0-.08,0-.12Z"/>
          </g>
          <g>
            <path class="cls-23" d="M83.41,70.78c-1.51,3.32-3,3.92-5.26,3.71-2.26-.21-3.23-2.81-2.26-5.74,.93-2.79,3.9-4.17,6.16-3.96,2.26,.21,2.64,3.17,1.36,5.99Z"/>
            <path class="cls-23" d="M83.86,70.53c-.51,3.98,.52,5.41,2.76,6.53,2.24,1.12,4.66-.75,5.45-4.06,.76-3.15-1.22-6.17-3.46-7.29-2.24-1.12-4.31,1.43-4.75,4.81Z"/>
            <path class="cls-1" d="M83.46,71.43c-1.51,3.32-3,3.92-5.26,3.71-2.26-.21-3.23-2.81-2.26-5.74,.93-2.79,3.9-4.17,6.16-3.96,2.26,.21,2.64,3.17,1.36,5.98Z"/>
            <path class="cls-1" d="M84.26,71.17c-.52,3.98,.52,5.41,2.76,6.53,2.24,1.12,4.66-.75,5.45-4.06,.76-3.15-1.22-6.17-3.46-7.29-2.23-1.12-4.31,1.43-4.75,4.81Z"/>
            <path class="cls-27" d="M83.74,67.87c-.04,.8-.26,1.68-.65,2.55-1.38,3.02-2.73,3.57-4.79,3.38-1.29-.12-2.11-1.09-2.34-2.45-.08,1.87,.81,3.3,2.39,3.44,2.06,.19,3.41-.36,4.79-3.38,.57-1.25,.78-2.54,.6-3.54Z"/>
            <path class="cls-27" d="M91.49,71.85c-.01,.33-.06,.67-.14,1.01-.7,2.91-2.83,4.55-4.79,3.57-1.41-.71-2.27-1.56-2.48-3.27-.02,2.38,.88,3.4,2.54,4.23,1.96,.98,4.09-.66,4.79-3.57,.16-.67,.18-1.34,.09-1.97Z"/>
            <path class="cls-29" d="M84.13,61.82c-.03-.1-.08-.2-.14-.29-.13-.19-.32-.34-.52-.45-.33-.18-.7-.27-1.07-.27-.4,0-.79,.13-1.15,.29-.89,.4-1.64,1.1-2.12,1.95-.18,.33-.24,.67,.08,.92,.08,.06,.16,.09,.26,.1,.41,.04,.85,0,1.25-.05,.13-.01,.27-.03,.4-.05,.44-.06,.87-.16,1.3-.28,.4-.12,.88-.23,1.24-.45,.24-.15,.43-.49,.5-.76,.05-.22,.05-.45-.02-.66Z"/>
            <path class="cls-29" d="M91.65,64.49c-.06-.13-.12-.25-.19-.37-.2-.38-.42-.75-.68-1.1-.42-.58-.96-1.12-1.66-1.32-.48-.14-1.06-.06-1.46,.26-.22,.17-.32,.4-.47,.62-.14,.2-.18,.42-.17,.66,.01,.53,.28,1.04,.65,1.41,.54,.52,1.26,.8,1.97,1.03,.41,.14,.83,.26,1.27,.28,.33,.01,.74-.11,.81-.43,.04-.16,.08-.38,.08-.54,0-.17-.1-.35-.17-.5Z"/>
            <g>
              <path class="cls-2" d="M82.29,71.2c-.35,1.02-1.47,1.56-2.49,1.21-1.02-.35-1.56-1.46-1.21-2.49,.35-1.02,1.46-1.56,2.49-1.21,1.02,.35,1.56,1.46,1.21,2.49Z"/>
              <path class="cls-29" d="M81.68,70.99c-.24,.68-.98,1.05-1.67,.81-.68-.24-1.05-.98-.81-1.67,.24-.68,.98-1.05,1.66-.81,.68,.24,1.05,.98,.81,1.67Z"/>
              <path class="cls-1" d="M82.73,69.74c.02-.16,0-.3-.07-.45-.04-.06-.08-.12-.12-.19-.1-.12-.22-.21-.36-.26-.11-.05-.22-.06-.34-.05-.12,0-.23,.02-.33,.07-.11,.04-.19,.11-.26,.2-.08,.08-.15,.17-.19,.28-.02,.08-.04,.15-.05,.23-.02,.16,0,.3,.07,.45,.04,.06,.08,.13,.12,.19,.1,.12,.21,.2,.36,.26,.11,.05,.22,.06,.34,.05,.12,0,.23-.02,.33-.07,.11-.04,.19-.11,.26-.2,.08-.07,.15-.17,.18-.28,.02-.08,.04-.15,.05-.23Z"/>
              <path class="cls-1" d="M78.94,70.26c-.46-.16-.74,.54-.28,.7,.46,.16,.74-.55,.28-.7Z"/>
              <path class="cls-1" d="M80.22,72.06c.01-.14,0-.27-.06-.4-.06-.12-.14-.23-.25-.31-.11-.08-.24-.13-.38-.15,0,0-.02,0-.03,0,0,0-.02,0-.03,0-.15-.01-.28,0-.42,.07-.13,.06-.23,.14-.32,.26-.09,.12-.14,.25-.15,.39-.01,.15,0,.28,.07,.42,.06,.13,.14,.23,.26,.32,.12,.09,.25,.14,.39,.15,.15,.01,.28,0,.42-.07,.13-.06,.24-.15,.32-.26,0,0,.01-.01,.02-.02,0,0,.01-.01,.01-.02,.08-.11,.13-.24,.15-.38Z"/>
            </g>
            <g>
              <path class="cls-14" d="M90.76,73.82c-.5,.96-1.68,1.33-2.64,.83-.96-.5-1.33-1.68-.83-2.64,.5-.96,1.68-1.33,2.64-.83,.96,.5,1.33,1.68,.83,2.64Z"/>
              <path class="cls-29" d="M90.19,73.52c-.33,.64-1.13,.89-1.77,.56-.64-.34-.89-1.13-.56-1.77,.34-.64,1.13-.89,1.77-.56,.64,.33,.89,1.13,.55,1.77Z"/>
              <path class="cls-1" d="M91.4,72.44c.04-.15,.04-.3,0-.45-.03-.07-.06-.14-.09-.2-.08-.13-.18-.23-.31-.31-.1-.06-.21-.1-.33-.1-.11-.02-.22-.02-.34,.02-.11,.03-.21,.08-.29,.15-.09,.06-.17,.14-.22,.25-.03,.07-.06,.14-.09,.21-.04,.15-.04,.3,0,.45,.03,.07,.06,.14,.09,.2,.08,.13,.18,.23,.31,.31,.1,.06,.21,.1,.33,.1,.11,.02,.22,.02,.34-.02,.11-.03,.21-.08,.29-.15,.1-.06,.17-.14,.22-.25,.03-.07,.06-.14,.09-.21Z"/>
              <path class="cls-1" d="M87.58,72.39c-.43-.22-.81,.43-.38,.65,.43,.22,.81-.43,.38-.65Z"/>
              <path class="cls-1" d="M88.58,74.36c.04-.14,.03-.27,0-.41-.04-.13-.1-.24-.2-.34-.1-.1-.22-.17-.35-.2,0,0-.02,0-.03,0,0,0-.02,0-.02,0-.14-.04-.28-.04-.42,0-.14,.04-.25,.11-.35,.21-.1,.1-.17,.23-.21,.37s-.04,.28,0,.42c.04,.14,.11,.25,.21,.35,.1,.1,.23,.17,.37,.21,.14,.04,.28,.03,.42,0,.13-.04,.25-.11,.35-.21,0,0,.01-.01,.02-.02,0,0,.01-.01,.02-.02,.1-.1,.17-.22,.2-.35Z"/>
            </g>
            <path class="cls-33" d="M74.43,74.54c-.1,.28,8.21,9.33,17.8,4.33,0,0-5.7,10.71-10.66,10.11-4.95-.6-7.15-14.44-7.15-14.44Z"/>
            <path class="cls-30" d="M90.73,81.39c-4.77-1.72-9.68,5.44-9.68,5.44l1.84,2.06c3-.72,6.07-4.77,7.83-7.5Z"/>
            <path class="cls-1" d="M87.47,84.69c-.91,.07-2.02,1.85-3.33,1.92-1.31,.06-4.29-1.1-4.93-.99-.27,.05-.6,.4-.87,.79,.91,1.42,1.99,2.42,3.25,2.58,2.32,.28,4.79-1.91,6.78-4.32-.27,0-.57,0-.88,.03Z"/>
            <path class="cls-1" d="M90.51,79.62c-7.37,2.65-13.69-2.47-15.54-4.4h0s2.33,5.84,3.13,6.38c.8,.54,4.61,3.38,7.83,1.83,2.32-1.12,3.89-2.9,4.58-3.81Z"/>
          </g>
          <g>
            <g>
              <path class="cls-31" d="M79.65,97.41c-1.47-1.49-8.22-1.49-9.38,0-.19,.24,1.08,16.21,1.08,16.21,0,0,.7,1.33,3.54,1.38h0s.04,0,.07,0,.04,0,.07,0h0c2.84-.05,3.54-1.38,3.54-1.38,0,0,1.29-16,1.08-16.21Z"/>
              <path class="cls-4" d="M79.18,97.66c-1.32-1.39-7.41-1.39-8.45,0-.17,.23,.97,15.13,.97,15.13,0,0,.63,1.25,3.19,1.28h0s.04,0,.06,0,.04,0,.06,0h0c2.56-.04,3.19-1.29,3.19-1.29,0,0,1.17-14.93,.97-15.13Z"/>
              <path class="cls-35" d="M76.54,101.46c-1.77,.23-3.94,.23-5.66-.51,.28,4.48,.82,11.84,.82,11.84,0,0,.63,1.25,3.19,1.28h0s.04,0,.06,0,.04,0,.06,0h0c2.56-.04,3.19-1.29,3.19-1.29,0,0,.57-7.35,.85-11.8-.84,.25-1.74,.37-2.52,.48Z"/>
              <path class="cls-11" d="M78.27,103.8c-.82,2.42-2.1,5.28-4.22,6.86-1,.74-2.06,.85-2.9,.49,.12,1.49,.19,2.49,.19,2.49,0,0,.7,1.33,3.54,1.38h0s.04,0,.07,0,.04,0,.07,0h0c2.84-.05,3.54-1.38,3.54-1.38,0,0,.84-10.4,1.06-14.54-.27,1.74-.94,3.52-1.35,4.71Z"/>
              <path class="cls-28" d="M79.07,100.95c0,.54-1.83,.98-4.09,.98s-4.09-.44-4.09-.98,1.83-.98,4.09-.98,4.09,.44,4.09,.98Z"/>
              <path class="cls-35" d="M75.39,100.95s1.06-7.42,1.28-7.91c.22-.49,.7-2.24,.97-2.2,.27,.04,.36,.27,.36,.27,0,0-.79,2.04-.9,2.41-.11,.38-1.13,7.33-1.13,7.33,0,0-.23,.22-.57,.09Z"/>
              <path class="cls-5" d="M71.36,105.21c.04,.56,.09,1.13,.15,1.69,.07,.73,.16,1.46,.26,2.19,.02,.15,.08,.33,.23,.34,.34-.21,.45-.65,.52-1.05,.13-.74,.23-1.49,.33-2.23,.24-1.82,.48-3.64,.49-5.47,0-.36-.1-.84-.41-1.06-.18-.13-.41-.21-.62-.29-.27-.11-.54-.2-.81-.29-.04-.01-.08-.02-.12-.04-.06-.02-.13-.04-.2-.01-.1,.04-.11,.18-.11,.29,0,.33,.01,.65,.02,.98,0,.08,0,.16,.02,.24,.02,.08,.05,.15,.07,.22,.05,.27,.02,.57,.02,.85,.01,.59,.03,1.19,.06,1.78,.03,.62,.07,1.24,.11,1.86Z"/>
              <path class="cls-6" d="M76.64,96.37s-.02,.09-.03,.13c1.48,.14,2.51,.45,2.51,.81,0,.49-1.86,.88-4.15,.88s-4.15-.4-4.15-.88,1.86-.88,4.15-.88c.37,0,.73,.01,1.07,.03,0-.05,.01-.09,.02-.14-.35-.02-.71-.04-1.09-.04-2.59,0-4.7,.55-4.7,1.22s2.1,1.22,4.7,1.22,4.7-.55,4.7-1.22c0-.52-1.26-.97-3.03-1.14Z"/>
            </g>
            <path class="cls-29" d="M97.53,92.03c-.14-.39-.28-.78-.43-1.17-.54-1.43-1.15-2.88-2.19-4-.19-.2-.49-.41-.72-.25-.1,.07-.16,.19-.2,.3-.36,.98-.33,2.07-.17,3.1,.22,1.41,.66,2.77,1.1,4.12,.37,1.13,.76,2.25,1.15,3.38,.46,1.34,.94,2.67,1.42,4,.24,.66,.49,1.33,.74,1.99,.24,.65,.56,1.31,.74,1.98-.54,0-1.07,.03-1.62,.05-2.62,.1-5.09,1.12-7.58,1.86-1.67,.5-3.38,.89-5.1,1.16-.68,.1-1.36,.2-2.05,.26-.73,.06-1.59-.02-2.12-.61-.23-.26-.37-.6-.39-.95-.01-.14-.03-.27-.05-.41-.04-.22,.01-.46,.04-.69,.07-.47,.17-.94,.11-1.41-.02-.15-.08-.32-.22-.38-.1-.04-.21,0-.29,.04-.28,.15-.45,.45-.56,.75-.14,.34-.23,.7-.29,1.07-.03,.19-.05,.39-.13,.57-.1,.22-.3,.34-.52,.44-.65,.28-1.36,.43-2.02,.67-.65,.23-1.29,.52-1.85,.92-.15,.11-.3,.24-.33,.42-.03,.21,.12,.4,.27,.55,.45,.48,.96,.91,1.5,1.28,.22,.15,.45,.29,.7,.36,.47,.12,.96-.01,1.43-.15,.55-.16,1.1-.33,1.65-.49,.26-.08,.53-.19,.79-.23,.34-.05,.74,0,1.09,.02,.32,.01,.65,.03,.97,.05,.69,.04,1.39,.07,2.08,.06,1.18-.02,2.35-.17,3.52-.33,2.23-.29,4.45-.59,6.68-.88,1.31-.17,2.64-.35,3.9-.77,.96-.32,2.21-.94,2.59-1.96,.16-.42-.13-.84-.2-1.25-.12-.69-.23-1.38-.36-2.07-.31-1.6-.67-3.19-1.07-4.77-.56-2.25-1.24-4.46-2.02-6.65Z"/>
            <path class="cls-29" d="M57.54,82.89c-.43-.13-.9-.07-1.36,.1-.94,.35-2.15,1.08-2.78,1.86-.62,.77-1.06,1.68-1.28,2.64,1.59-.16,3.18-.33,4.76-.49,.8-.08,1.86-.25,2.2-1.1,.32-.81-.29-2.04-.88-2.62-.2-.2-.42-.32-.65-.39Z"/>
            <path class="cls-29" d="M64.47,115.11c-3.09,1.3-6.22,2.53-9.38,3.66-1.71,.62-3.43,1.2-5.16,1.77-.86,.28-1.73,.56-2.6,.83-.39,.12-.82,.32-1.23,.35-.53,.04-1.2,.02-1.71-.05-1.04-.15-1.8-.77-2.35-1.64-.62-1-.57-2.25-.66-3.42-.01-.15-.03-.31-.14-.41-.24-.22-.62,.07-.78,.36-.22,.4-.37,.84-.42,1.3-.09,.74,.04,1.48,.17,2.21,.19,1.05,.35,2.12,.58,3.16,.03,.16,.05,.33,.11,.48,.13,.36,.52,.61,.89,.65,.52,.05,1.01-.18,1.49-.38,5.74-2.4,12.72-1.08,18.04-4.31,.15,0,.47-.3,.6-.38,.2-.13,.4-.26,.59-.4,.41-.28,.81-.57,1.2-.87,.31-.23,.61-.44,.88-.72,.18-.19,.33-.34,.58-.44,.51-.21,1.06-.38,1.6-.54-.79-.37-1.56-.78-2.32-1.22Z"/>
            <path class="cls-29" d="M48.91,104.6c-.39,.14-.78,.28-1.16,.42-.47,.17-.94,.22-1.42,.39-4.51,1.59-9.02,3.19-13.52,4.78-.86,.3-1.71,.61-2.6,.83-.44,.11-.88,.21-1.33,.27-.2,.03-.39,.07-.58,.02-.68-.15-1.24-.83-1.59-1.39-.58-.93-.53-2.09-.61-3.18,0-.14-.03-.29-.13-.38-.23-.21-.58,.07-.72,.33-.21,.37-.34,.78-.39,1.2-.09,.68,.04,1.38,.16,2.06,.18,.98,.32,1.97,.54,2.94,.03,.14,.05,.31,.1,.45,.12,.33,.48,.57,.83,.6,1.05,.1,2.16-.82,3.12-1.19,.74-.28,1.5-.48,2.28-.64,1.59-.32,3.2-.43,4.81-.61,.62-.07,1.25-.15,1.87-.25,3.22-.53,6.32-1.76,9.03-3.57,.35-.24,.7-.48,1.04-.74,.29-.22,.59-.54,.94-.65,.31-.1,.65-.13,.97-.21,.13-.04,.26-.07,.4-.1-.68-.47-1.35-.93-2.03-1.4Z"/>
          </g>
        </g>
      </g>
    </g>
  </g>
</svg>