<?xml version="1.0" encoding="UTF-8"?>
<svg id="Layer_2" data-name="Layer 2" xmlns="http://www.w3.org/2000/svg" xmlns:xlink="http://www.w3.org/1999/xlink" viewBox="0 0 337.05 294.46">
  <defs>
    <style>
      .cls-1 {
        fill: #b7b7b7;
      }

      .cls-2 {
        fill: #ddd;
      }

      .cls-3 {
        fill: url(#linear-gradient-2);
      }

      .cls-4 {
        fill: #262626;
      }

      .cls-5 {
        fill: #fff;
      }

      .cls-6 {
        fill: url(#linear-gradient-17);
      }

      .cls-7 {
        fill: #3d3d3d;
      }

      .cls-8 {
        fill: #727272;
      }

      .cls-9 {
        fill: #d1d1d1;
      }

      .cls-10 {
        fill: #a5a5a5;
      }

      .cls-11 {
        fill: #c2f9ff;
      }

      .cls-12 {
        fill: #d8d8d8;
      }

      .cls-13 {
        fill: url(#linear-gradient-15);
      }

      .cls-14 {
        fill: url(#linear-gradient-18);
      }

      .cls-15 {
        fill: url(#linear-gradient-28);
      }

      .cls-16 {
        fill: url(#linear-gradient-14);
      }

      .cls-17 {
        fill: url(#linear-gradient-20);
      }

      .cls-18 {
        fill: url(#linear-gradient-6);
      }

      .cls-19 {
        fill: #57b2f7;
      }

      .cls-20 {
        fill: url(#linear-gradient-32);
      }

      .cls-21 {
        fill: #727373;
      }

      .cls-22 {
        fill: url(#linear-gradient-11);
      }

      .cls-23 {
        fill: #111;
      }

      .cls-24 {
        fill: url(#linear-gradient-10);
      }

      .cls-25 {
        fill: #282828;
      }

      .cls-26 {
        fill: url(#linear-gradient-16);
      }

      .cls-27 {
        fill: #8e8e8e;
      }

      .cls-28 {
        fill: url(#linear-gradient-31);
      }

      .cls-29 {
        fill: #b4ecef;
      }

      .cls-30 {
        fill: #3a3a3a;
      }

      .cls-31 {
        fill: #9cf1ff;
      }

      .cls-32 {
        fill: url(#linear-gradient-21);
      }

      .cls-33 {
        fill: url(#linear-gradient-25);
      }

      .cls-34 {
        fill: url(#linear-gradient-5);
      }

      .cls-35 {
        fill: #7a3100;
      }

      .cls-36 {
        fill: url(#linear-gradient-7);
      }

      .cls-37 {
        fill: #2d2d2d;
      }

      .cls-38 {
        fill: #757575;
      }

      .cls-39 {
        fill: url(#linear-gradient-24);
      }

      .cls-40 {
        fill: #efefef;
      }

      .cls-41 {
        fill: url(#linear-gradient-9);
      }

      .cls-42 {
        fill: url(#linear-gradient-22);
      }

      .cls-43 {
        fill: url(#linear-gradient-3);
      }

      .cls-44 {
        fill: #cecece;
      }

      .cls-45 {
        fill: url(#linear-gradient);
      }

      .cls-46 {
        fill: url(#linear-gradient-27);
      }

      .cls-47 {
        fill: #595959;
      }

      .cls-48 {
        fill: url(#linear-gradient-29);
      }

      .cls-49 {
        fill: url(#linear-gradient-30);
      }

      .cls-50 {
        fill: #686868;
      }

      .cls-51 {
        fill: #a4dcff;
      }

      .cls-52 {
        fill: #1e1e1e;
      }

      .cls-53 {
        fill: url(#linear-gradient-23);
      }

      .cls-54 {
        fill: url(#linear-gradient-19);
      }

      .cls-55 {
        fill: #ffb96c;
      }

      .cls-56 {
        fill: url(#linear-gradient-4);
      }

      .cls-57 {
        fill: #6b1010;
      }

      .cls-58 {
        fill: url(#linear-gradient-8);
      }

      .cls-59 {
        fill: url(#linear-gradient-12);
      }

      .cls-60 {
        fill: url(#linear-gradient-13);
      }

      .cls-61 {
        fill: url(#linear-gradient-26);
      }

      .cls-62 {
        fill: #993e00;
      }
    </style>
    <linearGradient id="linear-gradient" x1="4.36" y1="221.66" x2="103.68" y2="218.2" gradientTransform="translate(154.93 -116.14) rotate(-1.46)" gradientUnits="userSpaceOnUse">
      <stop offset="0" stop-color="#fff"/>
      <stop offset="1" stop-color="#e6e6e6"/>
    </linearGradient>
    <linearGradient id="linear-gradient-2" x1="-34.28" y1="217.82" x2="78.17" y2="227.76" xlink:href="#linear-gradient"/>
    <linearGradient id="linear-gradient-3" x1="25.41" y1="226.24" x2="116.9" y2="201.54" gradientTransform="translate(154.93 -116.14) rotate(-1.46)" gradientUnits="userSpaceOnUse">
      <stop offset="0" stop-color="#fff"/>
      <stop offset="1" stop-color="#ccc"/>
    </linearGradient>
    <linearGradient id="linear-gradient-4" x1="85.84" y1="141.45" x2="96.35" y2="141.45" xlink:href="#linear-gradient"/>
    <linearGradient id="linear-gradient-5" x1="-5169.72" y1="-536.06" x2="-5157.93" y2="-536.06" gradientTransform="translate(781.98 5171.34) rotate(77.19)" xlink:href="#linear-gradient"/>
    <linearGradient id="linear-gradient-6" x1="-6797.66" y1="3913.94" x2="-6786.99" y2="3913.94" gradientTransform="translate(-3315.91 7036.71) rotate(147.28)" xlink:href="#linear-gradient"/>
    <linearGradient id="linear-gradient-7" x1="-6289" y1="852.27" x2="-6280.82" y2="852.27" gradientTransform="translate(-265.05 6399.07) rotate(102.77)" xlink:href="#linear-gradient"/>
    <linearGradient id="linear-gradient-8" x1="-4572.93" y1="-687.1" x2="-4564.62" y2="-687.1" gradientTransform="translate(1156.02 4679.37) rotate(70.8)" xlink:href="#linear-gradient"/>
    <linearGradient id="linear-gradient-9" x1="-6715.7" y1="3618.62" x2="-6704.93" y2="3618.62" gradientTransform="translate(-2934.81 7066.22) rotate(141.92)" xlink:href="#linear-gradient"/>
    <linearGradient id="linear-gradient-10" x1="-6239.1" y1="1026.15" x2="-6230.92" y2="1026.15" gradientTransform="translate(-265.05 6399.07) rotate(102.77)" xlink:href="#linear-gradient"/>
    <linearGradient id="linear-gradient-11" x1="-4679.26" y1="6868.3" x2="-4671.68" y2="6868.3" gradientTransform="translate(-6277.94 5494.65) rotate(-164.13)" xlink:href="#linear-gradient"/>
    <linearGradient id="linear-gradient-12" x1="1912.9" y1="196.49" x2="1961.68" y2="196.49" gradientTransform="translate(2014.85) rotate(-180) scale(1 -1)" xlink:href="#linear-gradient-3"/>
    <linearGradient id="linear-gradient-13" x1="1894.16" y1="196.72" x2="1934.39" y2="196.72" gradientTransform="translate(2014.85) rotate(-180) scale(1 -1)" xlink:href="#linear-gradient-3"/>
    <linearGradient id="linear-gradient-14" x1="1929.68" y1="196.49" x2="1966.17" y2="196.49" gradientTransform="translate(2014.85) rotate(-180) scale(1 -1)" gradientUnits="userSpaceOnUse">
      <stop offset="0" stop-color="#e6e6e6"/>
      <stop offset="1" stop-color="#b3b3b3"/>
    </linearGradient>
    <linearGradient id="linear-gradient-15" x1="1929.68" y1="227.47" x2="1957.2" y2="227.47" xlink:href="#linear-gradient-14"/>
    <linearGradient id="linear-gradient-16" x1="1929.68" y1="163.74" x2="1957.98" y2="163.74" xlink:href="#linear-gradient-14"/>
    <linearGradient id="linear-gradient-17" x1="1655.38" y1="486.61" x2="1704.96" y2="486.61" gradientTransform="translate(1805.07 -232.93) rotate(-175.95) scale(1 -1)" gradientUnits="userSpaceOnUse">
      <stop offset="0" stop-color="#666"/>
      <stop offset="1" stop-color="#3f3f3f"/>
    </linearGradient>
    <linearGradient id="linear-gradient-18" x1="1661.41" y1="467.65" x2="1688.32" y2="467.65" xlink:href="#linear-gradient-17"/>
    <linearGradient id="linear-gradient-19" x1="1660.42" y1="467.8" x2="1681.69" y2="467.8" xlink:href="#linear-gradient-17"/>
    <linearGradient id="linear-gradient-20" x1="1671.97" y1="482.81" x2="1693.98" y2="483.11" gradientTransform="translate(1805.07 -232.93) rotate(-175.95) scale(1 -1)" gradientUnits="userSpaceOnUse">
      <stop offset="0" stop-color="#ff4931"/>
      <stop offset="1" stop-color="#ec2500"/>
    </linearGradient>
    <linearGradient id="linear-gradient-21" x1="1660.42" y1="487.42" x2="1681.69" y2="487.42" xlink:href="#linear-gradient-17"/>
    <linearGradient id="linear-gradient-22" x1="1660.42" y1="485.79" x2="1681.69" y2="485.79" xlink:href="#linear-gradient-17"/>
    <linearGradient id="linear-gradient-23" x1="1661.4" y1="483.17" x2="1688.32" y2="483.17" xlink:href="#linear-gradient-17"/>
    <linearGradient id="linear-gradient-24" x1="1663.02" y1="482.79" x2="1678.55" y2="483.62" xlink:href="#linear-gradient-20"/>
    <linearGradient id="linear-gradient-25" x1="1661.4" y1="484.78" x2="1688.32" y2="484.78" xlink:href="#linear-gradient-17"/>
    <linearGradient id="linear-gradient-26" x1="1660.42" y1="484.78" x2="1681.69" y2="484.78" xlink:href="#linear-gradient-17"/>
    <linearGradient id="linear-gradient-27" x1="1677.15" y1="482.61" x2="1693.95" y2="482.57" gradientTransform="translate(1805.07 -232.93) rotate(-175.95) scale(1 -1)" gradientUnits="userSpaceOnUse">
      <stop offset="0" stop-color="#ff3631"/>
      <stop offset="1" stop-color="#c31e00"/>
    </linearGradient>
    <linearGradient id="linear-gradient-28" x1="1914.68" y1="246.27" x2="1921.09" y2="246.27" gradientTransform="translate(2014.85) rotate(-180) scale(1 -1)" xlink:href="#linear-gradient-17"/>
    <linearGradient id="linear-gradient-29" x1="1913.57" y1="234.24" x2="1919.98" y2="234.24" gradientTransform="translate(2014.85) rotate(-180) scale(1 -1)" xlink:href="#linear-gradient-17"/>
    <linearGradient id="linear-gradient-30" x1="1898.69" y1="160.91" x2="1898.69" y2="170.45" gradientTransform="translate(2014.85) rotate(-180) scale(1 -1)" gradientUnits="userSpaceOnUse">
      <stop offset="0" stop-color="#ff8022"/>
      <stop offset="1" stop-color="#f2420a"/>
    </linearGradient>
    <linearGradient id="linear-gradient-31" x1="1898.7" y1="159.52" x2="1898.7" y2="172.79" gradientTransform="translate(2014.85) rotate(-180) scale(1 -1)" gradientUnits="userSpaceOnUse">
      <stop offset="0" stop-color="#ff7422"/>
      <stop offset="1" stop-color="#cc2b00"/>
    </linearGradient>
    <linearGradient id="linear-gradient-32" x1="1898.57" y1="158.78" x2="1898.57" y2="169.64" gradientTransform="translate(2014.85) rotate(-180) scale(1 -1)" gradientUnits="userSpaceOnUse">
      <stop offset="0" stop-color="#ffd766"/>
      <stop offset="1" stop-color="#f2420a"/>
    </linearGradient>
  </defs>
  <g id="object">
    <g>
      <ellipse class="cls-12" cx="173.34" cy="271.07" rx="85.31" ry="20.75"/>
      <ellipse class="cls-12" cx="85.22" cy="271.07" rx="52.14" ry="18.16"/>
      <path class="cls-12" d="M63.27,281.27c.53-1.72-.74-3.49-2.62-4.54-4.37-2.42-11.36-1.73-15.56,.51-.09,.05-.1,.12-.06,.17l-.23,.09c1-1.8-.59-3.99-2.95-4.83-1.97-.7-4.23-.51-6.01,.29-.1-1.39-1.45-2.67-3.37-3.12,.39-3.67-5.48-6.15-10.19-5.81-2.52,.18-4.95,1.11-6.13,2.76-.72,1-.96,2.18-.62,3.26-2.94-.39-6.23,.57-7.5,2.6-1.49,2.37,.4,5.37,3.82,6.17-.33,.12-.73,.24-.88,.19-.2-.07-1-.09-1.42-.1-.02-.09-.12-.19-.26-.2-5.71-.49-11.13,3.39-8.7,7.48,1.14,1.91,3.93,2.82,6.64,3.22,2.05,.31,4.34,.28,6.1-.52,.67,1.97,2.28,3.87,5.14,4.45,2.14,.44,4.67-.06,6.06-1.26,1.92,2.07,7.03,2.37,10.15,2.35,2.24-.01,4.51-.36,6.39-1.26,1.72-.82,2.48-1.87,2.67-3.3,.5,.37,2.73,1.78,6.69,.93,3.46-.74,4.53-2.34,4.85-3.05,1.18,1.75,4.96,1.54,6.4,.02,1.35-1.42,.78-3.16-.82-4.18,1.2-.49,2.12-1.34,2.42-2.34Z"/>
      <g>
        <path class="cls-1" d="M336.54,51.16c-5.4,7.91-14.2,13.85-23.81,14.95-5.22,.6-11.13-.6-14.08-5.38-2.99-4.84-.54-11.84,5.68-11.97,.43,0,.56-.71,.11-.78-4.85-.69-9.01,3.35-9.27,8.12-.33,6,5.07,10.7,10.51,11.9,12.5,2.76,25.63-5.89,31.34-16.57,.17-.32-.28-.57-.48-.28h0Z"/>
        <path class="cls-1" d="M302.34,73.21c-6.05,.55-12.84-.08-17.89-3.77-3.04-2.23-6.12-6.56-4.82-10.5,.61-1.86,2.25-3.51,4.27-3.65,3.71-.26,4.91,3.57,3.82,6.46-.08,.21,.24,.4,.39,.22,2.61-3.26,.57-8.12-3.64-8.57-4.79-.5-7.6,4.89-6.84,9.01,1.93,10.41,15.97,14.15,24.78,11.29,.26-.08,.23-.52-.07-.49h0Z"/>
      </g>
      <ellipse class="cls-51" cx="18.07" cy="76.72" rx="3.14" ry="3.15"/>
      <path class="cls-51" d="M149.66,35.07c-1.73,0-3.14,1.41-3.14,3.15s1.41,3.15,3.14,3.15,3.14-1.41,3.14-3.15-1.41-3.15-3.14-3.15Z"/>
      <path class="cls-51" d="M269.33,191.5c-2.94,0-5.32,2.39-5.32,5.34s2.38,5.34,5.32,5.34,5.32-2.39,5.32-5.34-2.38-5.34-5.32-5.34Z"/>
      <path class="cls-51" d="M18.07,189.84c-2.94,0-5.32,2.39-5.32,5.34s2.38,5.34,5.32,5.34,5.32-2.39,5.32-5.34-2.38-5.34-5.32-5.34Z"/>
      <ellipse class="cls-51" cx="37.85" cy="153.75" rx="5.32" ry="5.34"/>
      <path class="cls-51" d="M247.51,211.73c-1.69,0-3.05,1.37-3.05,3.06s1.37,3.06,3.05,3.06,3.05-1.37,3.05-3.06-1.37-3.06-3.05-3.06Z"/>
      <path class="cls-51" d="M286.92,203.71c-1.69,0-3.05,1.37-3.05,3.06s1.37,3.06,3.05,3.06,3.05-1.37,3.05-3.06-1.37-3.06-3.05-3.06Z"/>
      <path class="cls-51" d="M49.82,57.11c-3.05,0-5.53,2.48-5.53,5.54s2.48,5.54,5.53,5.54,5.53-2.48,5.53-5.54-2.48-5.54-5.53-5.54Z"/>
      <path class="cls-51" d="M126.11,30.02c-2.77,0-5.01,2.25-5.01,5.02s2.24,5.02,5.01,5.02,5.01-2.25,5.01-5.02-2.24-5.02-5.01-5.02Z"/>
      <ellipse class="cls-51" cx="96.27" cy="71.38" rx="5.01" ry="5.02"/>
      <path class="cls-51" d="M51.26,30.02c0-4.53-3.66-8.2-8.18-8.2s-8.18,3.67-8.18,8.2,3.66,8.2,8.18,8.2,8.18-3.67,8.18-8.2Z"/>
      <g>
        <path class="cls-45" d="M295.25,154.89c2.24-.06,4.48-2.28,4.31-4.92-.12-1.86-1.76-3.26-3.23-3.23,0-3.08-.89-7.17-.89-7.17-3.47-13.43-6.29-24.56-10.05-32.36,1.02,.57,2.11,1.13,3.25,1.12,1.14,0,3.57-.55,3.86-1.79,.36-1.52-.76-2.98-1.93-3.86-1.96-1.49-4.32-2.31-6.69-2.34,2.95-1.34,6.44-3.62,6.14-7.16-.2-2.44-2.41-4.27-4.61-4.31-2.19-.04-4.24,1.37-5.68,3.22,.72-1.71,1.46-3.49,1.5-5.38,.04-1.89-.83-3.94-2.43-4.56-2.4-.93-4.73,1.86-5.18,4.7l-2-5.35c-2.77-7.31-10.51-22.03-15.29-26.64,2.22,.48,3.27-3.55,1.71-5.37-1.56-1.82-4.11-1.86-6.37-1.77,2.34-1.5,2.85-5.61,.97-7.77-1.88-2.16-5.57-1.69-6.97,.88-7.32-9.31-15.19-17.79-24.53-23.26l-5.41-3.5c.7-.41,1.37-.89,2-1.44,.37-.33,.75-.7,.92-1.2,.45-1.29-.65-2.61-1.77-3.2-2.41-1.26-5.45-.86-7.53,.99-.04-1.47,1.71-2.16,2.18-3.53,.39-1.15-.28-2.5-1.26-3.06-.98-.57-2.15-.52-3.23-.28-2.92,.63-5.57,2.58-7.33,5.25-.32-1.05-.7-2.16-.82-3.02-.08-.55-.16-1.11-.42-1.58-.28-.5-.99-1.48-1.47-1.73-1.66-.87-3.73-.4-5.17,.87s-1.26,4.53-.89,6.54l-.07,.25c-.9-1.38-1.94-2.61-3.24-3.51-2.39-1.65-5.78-1.86-7.84,.28-2.06,2.14-1.68,6.73,.97,7.76-2.44-.79-5.12-1.58-7.47-.49-2.35,1.09-3.72,4.96-1.81,6.85,1.15,1.13,2.86,1.05,4.39,.9-7.63,5.69-14.37,12.87-19.82,21.11l-3.53,6.43c-.03-2.03-.7-4.09-2.04-5.46-1.33-1.37-3.37-1.95-5.05-1.19-1.68,.76-2.81,2.96-2.34,4.91,.46,1.88,2.08,3.04,3.58,4.03-1.31-.09-2.68-.17-3.89,.41s-2.18,2.05-1.85,3.48c.27,1.19,1.36,1.96,2.44,2.13,1.08,.17,2.18-.14,3.24-.44l-6.08,7.22c-10.06,13-17.9,28.14-22.95,44.38-.56-2.08-1.41-4.5-3.3-5-2.33-.62-4.34,2.46-4.04,5.11,.3,2.65,2.06,4.76,3.72,6.67-1.9-1.32-4.28-2.11-6.39-1.29-2.11,.82-3.62,3.72-2.61,5.95,1.18,2.62,4.4,2.56,7.06,1.96-2.86,5.2-4.18,12.58-4.18,12.58-5.87,12.44-5.25,28.39,1.56,40.22-1.71,.38-3.52,.83-4.75,2.2-1.24,1.37-1.51,3.99-.09,5.12,.5,.39,1.11,.54,1.71,.63,2.12,.3,4.31-.13,6.22-1.21-.79,1.91-1.61,3.98-1.23,6.04,.38,2.06,2.57,3.78,4.17,2.67,1.14-.78,1.37-2.44,1.39-3.97l4.54,3.14c8.75,5.22,16.13,8.07,24.35,8.02-.34,2.27-.66,4.71,.21,6.79s3.46,3.41,5.07,1.97c1.63-1.46,1.1-4.32,.43-6.52,1.68,2.97,4.78,4.86,7.92,4.85,1.25,0,2.65-.42,3.25-1.65,.71-1.47-.07-3.13-1.09-4.47l4.79,.9c5.45,2.16,17.98,2.11,24.56,1.72-1.44,.72-2.58,2.17-3.03,3.87-.12,.47-.19,1.02,.07,1.41,.22,.34,.61,.47,.97,.55,3.53,.81,7.43-1.09,9.3-4.54,1.23,1.35,2.5,2.72,4.06,3.54,1.56,.82,3.5,.99,4.96-.04,1.45-1.04,2.09-3.49,1.01-5,1.05,1.03,2.14,2.08,3.47,2.57,1.33,.49,2.96,.29,3.87-.9,.76-1,.64-2.7-.2-3.5,1.73-.11,4.13-.65,4.13-.65,12.97,2.46,26.51,1.14,38.9-3.79l3.81-1.62c-1.4,.91-1.17,3.7,.2,4.68,1.37,.98,3.25,.33,4.33-1.05,1.08-1.38,1.5-3.32,1.68-5.2,.72,1.99,1.85,3.95,3.57,4.69,1.72,.74,4.02-.32,4.31-2.45,.34-2.52-2-4.29-3.99-5.33,7.36-3.78,13.46-10.84,16.82-19.46-.25,1.33,.42,2.82,1.49,3.33,1.08,.5,2.42-.05,2.99-1.23,.38-.78,.43-1.72,.39-2.62-.07-1.55-.39-3.07-.91-4.5,.85,1.91,2.45,3.54,4.17,3.05,1.95-.55,2.72-3.6,2.01-5.83-.71-2.23-2.4-3.79-4.01-5.23Z"/>
        <path class="cls-3" d="M164.13,183.89c-3.93-8.8-5.61-18.66-6.35-28.46-1.85-24.51,1.94-49.23,8.42-72.74,6.3-22.87,15.12-44.76,23.98-66.56-2.49-2.56-4.85-5.44-5.4-9.11-.12-.79-.15-1.63,.08-2.39,.04-.12,.1-.24,.15-.36-1.87-.39-3.83-.02-5.21,1.41-2.06,2.14-1.68,6.73,.97,7.76-2.44-.79-5.12-1.58-7.47-.49-2.35,1.09-3.72,4.96-1.81,6.85,1.15,1.13,2.86,1.05,4.39,.9-7.63,5.69-14.37,12.87-19.82,21.11l-3.53,6.43c-.03-2.03-.7-4.09-2.04-5.46-1.33-1.37-3.37-1.95-5.05-1.19-1.68,.76-2.81,2.96-2.34,4.91,.46,1.88,2.08,3.04,3.58,4.03-1.31-.09-2.68-.17-3.89,.41-1.21,.58-2.18,2.05-1.85,3.48,.27,1.19,1.36,1.96,2.44,2.13,1.08,.17,2.18-.14,3.24-.44l-6.08,7.22c-10.06,13-17.9,28.14-22.95,44.38-.56-2.08-1.41-4.5-3.3-5-2.33-.62-4.34,2.46-4.04,5.11,.3,2.65,2.06,4.76,3.72,6.67-1.9-1.32-4.28-2.11-6.39-1.29-2.11,.82-3.62,3.72-2.61,5.95,1.18,2.62,4.4,2.56,7.06,1.96-2.86,5.2-4.18,12.58-4.18,12.58-5.87,12.44-5.25,28.39,1.56,40.22-1.71,.38-3.52,.83-4.75,2.2-1.24,1.37-1.51,3.99-.09,5.12,.5,.39,1.11,.54,1.71,.63,2.12,.3,4.31-.13,6.22-1.21-.79,1.91-1.61,3.98-1.23,6.04,.38,2.06,2.57,3.78,4.17,2.67,1.14-.78,1.37-2.44,1.39-3.97l4.54,3.14c8.75,5.22,16.13,8.07,24.35,8.02-.34,2.27-.66,4.71,.21,6.79s3.46,3.41,5.07,1.97c1.63-1.46,1.1-4.32,.43-6.52,1.68,2.97,4.78,4.86,7.92,4.85,1.25,0,2.65-.42,3.25-1.65,.71-1.47-.07-3.13-1.09-4.47l4.79,.9c2.35,.93,6.01,1.45,9.95,1.71-5.15-4.1-9.28-9.88-12.12-16.24Z"/>
        <path class="cls-43" d="M261.16,188.99l4.22-1.65,.4-.21,3.85-1.98,1.45-.74c6.7-3.44,13.94-12.42,16.73-20.64,0,0,3.06,3.77,3.87,3.03,1.28-1.16-1.91-7.97-1.91-7.97,0,0,6.39,3.97,7.35,2.14,1.01-1.91-5.46-6.47-5.46-6.47,0,0,5.88-2.36,5.66-4.25-.13-1.15-3.93-1.52-3.93-1.52l.02-2c0-2.16-.56-5.24-.79-6.34l-.3-1.18c-2.93-11.36-5.5-21.3-8.58-28.47-.3-.7-1.85-4.09-2.15-4.73,0,0,6.78,.36,6.73-1.64-.06-2.37-8.12-2.53-8.12-2.53,0,0,8.03-6.7,6.8-8.96-1.15-2.13-9.67,2.52-9.67,2.52,0,0,2.73-8.87,.75-9.73-1.79-.77-5.51,6.73-5.51,6.73l-3.62-9.67c-1.86-4.91-6.06-13.24-9.87-19.26-1.7-2.69-5.75-7.82-7.06-9.09,0,0,5.03-1.23,4.06-3.69-.81-2.06-8.06,.4-8.06,.4l-1.06-2.29c.31-.2,3.84-4.63,3.91-5.19,.07-.57-.05-1.12-.3-1.41-.25-.29-.75-.44-1.25-.37-.51,.06-.96,.33-1.15,.68l-2.06,3.77-2.61-3.32c-5.87-7.47-13.88-16.78-23.7-22.53l-.11-.07-6.06-3.92s-1.55-.36-1.79-1.48c-.48-2.18,5.75-3.08,3.41-5.17-1.05-1.95-5.95,2.55-7.9,.98-.4-.32-.46-1.01-.46-1.01-.02-.95,.64-2.06,1.36-3.01,.78-1.03-.23-2.51-1.46-2.09-.01,0-.03,0-.04,.01-2.08,.74-4.01,2.39-5.37,4.46l-3.45,4.23s1-6.74-2.35-9.27c-.52-.16-1.22,0-1.78,.42,.95,1.61,1.42,3.53,1.69,5.43,.34,2.41,.39,4.86,.17,7.28,6.37,3.98,11.55,10.16,15.36,17.14,4.09,7.5,6.68,15.9,8.58,24.42,.91-2.03,2.95-3.43,4.97-3.19,2.02,.24,3.81,2.28,3.78,4.55-.02,1.82-1.34,3.5-2.9,3.87,1.8,.07,3.68,.65,4.01,2.5,.24,1.37-.65,2.73-1.77,3.35-.68,.37-1.43,.53-2.2,.61,7.04,14.06,12.66,29,16.69,44.47-.15-2.37,.27-5.58,2.39-5.83,1.48-.18,2.71,1.52,2.8,3.19,.09,1.66-.6,3.23-1.28,4.72,1.22-.96,2.57-1.87,4.07-1.95,1.49-.08,3.13,.96,3.36,2.62,.2,1.46-.77,2.87-1.97,3.52-1.19,.64-2.57,.69-3.89,.72,2.68,.73,5,2.92,6.1,5.74,.33,.85,.51,1.98-.11,2.61-.33,.34-.8,.42-1.25,.46-.96,.07-1.92-.05-2.85-.34,4.58,9.49,8.76,19.55,8.3,30.22-.07,1.73-.33,3.6-1.44,4.81,1.96-.23,4.11-.23,5.68,1.1,1.57,1.32,2,4.42,.35,5.62-.56,.41-1.25,.53-1.92,.56-1.66,.08-3.34-.35-4.81-1.23,1.24,1.37,2.53,2.82,3,4.7,.47,1.88-.24,4.27-1.92,4.8-1.45,.46-2.74-.55-3.75-1.93-.66,5.29-2.97,10.32-6.48,13.95-.37,.39-.76,.75-1.15,1.1,4.07-.8,8.08-1.98,11.99-3.53l3.75-1.6Z"/>
        <path class="cls-56" d="M254.26,23.33c1.03,1.43,.86,3.44-.53,4.1s-2.98,.02-4.32-.75c-.86-.49-1.69-1.04-2.49-1.64-.93-.7-1.86-1.51-2.34-2.64-.48-1.13-.38-2.66,.49-3.44,.82-.73,2.29-1.05,3.24-.56,.95,.49,1.84,1.04,2.77,1.85,0,0,2.46,2.08,3.17,3.08Z"/>
        <path class="cls-50" d="M140.39,63.16c-10.89,12.05-18.45,28.36-23.56,44.34,.51-.01,1.01-.03,1.52-.04-1-3.49-3.94-8.08-7.33-4.37-3.58,3.92-.21,8.93,2.44,12.02,.29-.45,.59-.9,.88-1.35-3.43-2.12-9.98-2.74-10.4,3.41-.38,5.53,5.62,5.41,8.86,4.36,.55-.18,.42-1.33-.17-1.15-5.57,1.78-9.22-2.54-5.35-5.84,1.48-1.26,5.46,.15,6.33,.7,.77,.47,1.47-.67,.88-1.35-1.25-1.46-2.85-3.15-3.3-5.21-.2-1.11-.37-2.29-.02-3.19,.84-2.16,3.2-3.07,4.59-.4,.46,.91,.82,1.87,1.07,2.88,.25,.87,1.27,.75,1.52-.04,5.17-16.52,13.27-30.4,22.38-44.47,.15-.23-.18-.48-.35-.29h0Z"/>
        <path class="cls-50" d="M146.62,55.79c-.41,.07-2.05,.46-2.43,.23-2.97,.19-3.38-3.81-.46-4.67,.93-.15,1.85-.13,2.76,.07,.91,.15,1.42-1.12,.6-1.7-1.27-.89-3.11-2.04-3.23-3.99-.12-1.91,1.49-3.46,3.11-3.53,3.16-.13,4.49,3.37,5.09,6.2,.14,.65,.91,.39,.96-.17,.42-4.81-3.97-9.9-8.33-7.28-1.66,1-2.74,3.09-2.49,5.2,.3,2.52,2.26,4,4.09,5.18l.38-1.73c-2.41,.1-7.12,.76-6.33,4.82,.67,3.4,4.24,2.81,6.37,1.98,.29-.11,.24-.68-.09-.63h0Z"/>
        <path class="cls-50" d="M193.36,12.47c-1.84-5.19-6.64-11-12.17-8.62-3.02,1.3-4.15,5.23-2.83,8.06-3.39-.68-7.14-.32-8.34,3.95-.96,3.43,.99,5.12,3.42,5.63-6.81,5.5-13.24,12.15-17.52,20.24-.09,.16,.12,.33,.24,.2,6.32-7.48,12.45-14.66,20.16-20.43,.66-.49,.4-1.8-.46-1.73-.85,.11-1.71,.1-2.57-.02-2.69-.7-2.37-3.28-.79-5.07,2.11-2.46,5.65-1.08,8.09-.4,.81,.23,1.36-1.17,.55-1.57-1.63-.82-2.31-2.8-1.8-4.65,.99-3.55,4.63-3.59,7.08-2.41,2.93,1.41,4.32,4.5,6,7.31,.31,.52,1.16,.16,.94-.47Z"/>
        <path class="cls-50" d="M198.43,10.83c1.6-3.46,3.97-6.1,7.37-7.27,.76-.3,1.55-.48,2.37-.53,3.17-.08,2.79,2.09,1.87,3.85-.52,.99-1.4,1.84-1.46,2.13-.16,.74,.61,1.44,1.22,.99,1.47-1.11,4.21-2.44,5.98-1.27,4.11,2.73-1.13,5.06-2.33,5.76-.6,.35-.14,1.34,.47,1.17,2.51-.71,7.1-2.99,5.08-6.64-2.07-3.74-7.42-2.56-10.05-.56,.41,.33,.81,.66,1.22,.99,.48-2.31,3.07-3.01,2.04-5.76-.67-1.79-2.47-2.38-4.06-2.33-4.69,.14-8.72,4.58-10.19,9.26-.1,.32,.35,.5,.48,.21h0Z"/>
        <path class="cls-50" d="M221.1,17.68c9.1,6.59,16.84,14.8,23.98,23.86,.29,.37,.92,.32,1.23-.03,5.08-5.9,8.81,3.36,4.93,5.41-.73,.38-.42,1.78,.47,1.75,.38-.01,3.59-.33,4.94,.63,1.91,1.37,1.83,4.22-.32,4.82-.55,.15-.86,.85-.44,1.27,6.77,6.86,11.26,17.38,15.44,26.32,.19,.4,.78,.1,.65-.33-1.62-5.19-4.07-9.96-6.66-14.61-2.44-4.38-5.06-8.96-8.51-12.45-.15,.42-.29,.85-.44,1.27,2.26,0,3.5-2.47,2.99-4.85-.79-3.67-4.98-4.03-7.69-3.97,.16,.58,.31,1.17,.47,1.75,6.75-5.57-1.95-15.68-7.08-8.36,.41-.01,.82-.02,1.23-.04-7.16-9.02-15.06-17.76-25.08-22.66-.13-.06-.22,.13-.1,.21h0Z"/>
        <path class="cls-50" d="M295.71,139.44c-1.2-10.23-4.48-21.18-8.69-30.66,2.42,.67,5.57,.71,6.29-2.14,.97-3.81-3.46-5.9-6.83-6.75,2.88-1.87,5.6-4.79,3.83-8.64-1.91-4.15-5.87-3.69-8.88-1.7,.78-2.97,.9-6.33-1.91-7.85-3.34-1.8-5.84,2.26-6.33,5.48-.09,.57,.67,.79,.79,.22,.2-.69,.46-1.3,.91-1.95,2.52-4.62,6.03-2.13,5.68,.98,.15,1.88-.8,3.58-1.5,5.25-.36,.87,.6,1.74,1.24,1.01,.89-1.01,1.98-2.12,3.22-2.56,6.86-2.34,6.68,5.75,3.39,7.63-.97,.56-2.27,1.24-3.27,1.72-.84,.4-.69,1.7,.25,1.77,1.9,.13,5.9,.74,6.96,2.86,2.38,4.73-3.88,2.94-5.08,2.32-.75-.39-1.46,.46-1.08,1.27,4.77,10.16,7.83,20.75,10.51,31.93,.18,.74,.58,.56,.49-.18Z"/>
        <path class="cls-50" d="M295,147.94c4.77-1.29,4.89,5.55,.24,6.17-.54,.08-.98,.87-.46,1.34,.79,.73,1.64,1.47,2.33,2.33,.37,.56,.75,1.13,1.12,1.69,1.61,4.53-1.63,7.36-4.75,2.34-.38-.94-1.77-.5-1.39,.47,.36,.83,.65,1.7,.85,2.59,1.84,3.39-1.98,8.54-3.06,3.01,.02-.81-1.09-1.13-1.4-.38-3.44,8.42-9.08,15.11-16.57,19.14-.52,.28-.44,1.2,.03,1.47,1.04,.59,4.38,3.69,2.94,5.23-1.81,1.94-4.1,.07-4.43-.66-.59-.72-1.02-1.54-1.31-2.47-.26-.66-1.36-.9-1.47,.04-.06,.76-.18,1.5-.35,2.24-.17,1.23-1.11,3.11-2.23,3.49-1.7,.58-3.64-1.02-2.57-3.63,.3-.38-.13-1.07-.53-.73-2.06,1.78-1.62,5.36,1.05,6.18,3.85,1.2,5.72-3.88,6.12-7.14-.49,.01-.98,.03-1.47,.04,1.3,3.26,4.31,7.35,7.81,4.74,3.95-2.94-.13-7.3-2.82-8.83l.03,1.47c7.69-4.13,13.56-11.12,17.07-19.78l-1.4-.38c-.06,2.57,1.68,5.17,4.23,4.06,3.55-1.54,1.92-7.44,.87-10.18-.46,.16-.93,.32-1.39,.47,1.19,2.95,4.49,6.65,7.14,3.13,3.03-4.03-.74-8.66-3.48-11.09-.15,.45-.31,.9-.46,1.34,2.79-.47,5.96-3.23,4.68-6.82-.92-2.59-3.79-3.47-5.56-1.55-.4,.43,.2,1.01,.61,.64h0Z"/>
        <path class="cls-50" d="M107.64,133.56c-6.8,12.38-5.59,28.76,1.09,40.85,.15-.46,.31-.91,.46-1.37-2.88,.68-7.38,2.6-6.29,6.95,1.13,4.51,7.2,2.84,9.85,1.56-.32-.45-.65-.89-.97-1.34-1.3,3.22-2.7,8.82,1.57,10.22,3.19,1.05,4.13-2.44,3.84-5.32-.08-.76-.56-1.16-.63-.27-.58,6.78-6.92,4.57-3.32-3.73,.28-.64-.24-1.69-.97-1.34-.77,.43-1.57,.76-2.4,.98-5.66,2.34-7.33-4.03-2.26-5.39,.68-.22,1.36-.4,2.05-.55,.53-.13,.72-.9,.46-1.37-6.8-12.24-6.79-26.5-2.04-39.6,.12-.34-.27-.6-.45-.28h0Z"/>
        <path class="cls-50" d="M161.13,196.28c-.4-.33-1.02,.11-.72,.65,.4,.72,.81,1.43,1.23,2.14,1.51,2.87-1.93,4.41-4.16,3.49-2.28-.59-4.03-2.12-5.37-4.22-.49-.77-1.66-.27-1.39,.7,.29,1.04,1.97,6.65-2.06,6.21-1.81-.41-2.36-2.29-2.42-4.56-.03-1.31,.07-2.62,.32-3.91,.08-.6-.25-1.14-.82-1.15-8.92-.11-16.12-2.74-24.29-7.29-.15-.08-.3,.21-.16,.33,6.59,5.61,15.29,8.49,23.54,8.78-.36,3.85,.02,9.46,4.56,9.35,2.87-.07,3.51-2.63,3.34-5.2,2.27,2.21,5.31,3.6,8.27,2.61,3.91-1.31,2.72-5.76,.13-7.93Z"/>
        <path class="cls-50" d="M215.14,197.02c-.7-.38-1.15,.34-.45,.91,1.38,1.16,.85,3.09-.59,3.71-.79,.34-1.98,.11-2.96-.44-.84-.57-1.61-1.23-2.33-1.98-.76-.73-2.02,.45-1.32,1.2,.05,.06,.1,.12,.14,.19,0,0,0,0,0,0,0,0,0,0,.01,.01,1.12,1.76-1.15,6.3-5.87,2.91-1.1-.75-2.05-1.84-2.97-2.84-.45-.49-1.08-.27-1.4,.24-1.36,2.19-3.35,3.72-5.74,4.06-1.11,.16-2.36,.53-2.62-.76-.3-1.47,1.35-2.68,2.3-3.27,.76-.48,.37-1.88-.49-1.83-8.02,.47-16.57,.78-24.48-1-.27-.06-.45,.38-.18,.52,6.5,3.35,14.86,3.02,22.12,2.6-1.44,1.82-2.39,4.26-.18,5.49,3.45,1.93,7.81-.84,10.14-3.86,2.26,2.33,5.17,4.69,8.36,3.4,1.72-.7,2.76-2.3,2.89-4.06,1.82,1.33,3.97,2.2,5.91,.66,1.97-1.55,1.85-4.71-.3-5.88Z"/>
        <path class="cls-50" d="M219.39,197.85c6.56,2.02,13.69,2.11,20.44,1.43,6.26-.63,13.26-1.72,18.84-5.11,.58-.35,.36-.91-.18-.74-7.38,2.29-13.21,3.3-20.02,3.93-6.39,.6-12.62,.03-19-.33-.43-.02-.47,.69-.08,.81h0Z"/>
        <path class="cls-50" d="M191.4,9.8c.25-1.19-.12-3.43,.06-4.66,.24-1.67,.87-2.83,2.35-3.31,1.67-.54,3.35,.06,4.05,1.93,.35,.94,.7,3.16,1.05,5.09,.09,.49,.99-1.06,.99-1.11-.1-4.24-1.82-8.71-6.01-7.57-1.53,.42-2.96,1.42-3.41,3.18-.39,1.5-.51,4.07,.33,5.41,.08,.13,.61,1.03,.61,1.03Z"/>
        <path class="cls-50" d="M254.04,23.29c.78,1.29,.76,2.64-.49,3.49-.9,.61-2.33,.22-3.19-.21-1.39-.68-3.05-1.84-4.17-2.98-1.47-1.5-1.57-4.69,1.16-4.69,1.37,0,2.84,.93,4.06,1.8,.45,.33,.46,.03,.1-.42-1.64-2.1-4.26-3.69-6.59-1.95-2.23,1.66-1.3,4.68,.37,6.34,1.92,1.9,5.98,5.01,8.67,3.52,1.85-1.02,1.94-3.81,.36-5.17-.15-.13-.41,.05-.28,.26h0Z"/>
        <path class="cls-34" d="M160.46,22.42c-1.05,1.41-2.85,1.62-3.7,.23-.85-1.39-.6-3.26-.19-4.88,.26-1.04,.58-2.05,.95-3.05,.43-1.16,.96-2.33,1.86-3.08s2.26-.95,3.11-.13c.8,.76,1.37,2.3,1.13,3.44s-.55,2.22-1.08,3.39c0,0-1.34,3.1-2.08,4.08Z"/>
        <path class="cls-50" d="M160.44,22.18c-.98,1.11-2.16,1.35-3.16,.15-.72-.87-.65-2.5-.44-3.54,.33-1.65,1.01-3.71,1.79-5.15,1.03-1.91,3.8-2.64,4.34,.35,.27,1.5-.26,3.3-.78,4.81-.2,.56,.06,.51,.38,.03,1.52-2.21,2.4-5.39,.41-7.61-1.9-2.11-4.37-.51-5.49,1.66-1.29,2.48-3.22,7.54-1.38,10.19,1.26,1.82,3.73,1.37,4.61-.62,.09-.2-.12-.44-.28-.26h0Z"/>
        <path class="cls-18" d="M278.42,74.35c-1.54-.63-2.33-2.45-1.45-3.81,.88-1.37,2.54-1.74,4.04-1.86,.96-.07,1.93-.09,2.89-.04,1.12,.06,2.29,.21,3.22,.9,.94,.69,1.56,2.05,1.17,3.23-.36,1.1-1.47,2.22-2.51,2.35-1.04,.14-2.06,.17-3.22,.02,0,0-3.07-.35-4.14-.79Z"/>
        <path class="cls-50" d="M278.62,74.25c-1.27-.65-1.87-1.82-1.2-3.26,.49-1.05,1.89-1.53,2.83-1.67,1.5-.22,3.47-.2,4.95,.13,1.96,.43,3.52,3.1,1.19,4.68-1.17,.79-2.86,.85-4.31,.81-.54-.02-.41,.23,.1,.42,2.38,.85,5.36,.69,6.54-2.16,1.13-2.71-1.06-4.76-3.26-5.21-2.53-.51-7.44-.82-9.05,2.02-1.11,1.94,.12,4.38,2.09,4.63,.19,.02,.33-.28,.12-.39h0Z"/>
        <path class="cls-36" d="M291.65,84.54c-1.05,.54-2.26,.06-2.42-1.12-.16-1.17,.51-2.28,1.21-3.17,.45-.57,.93-1.11,1.44-1.62,.59-.59,1.25-1.16,2.02-1.33s1.7,.17,2.02,.97c.3,.75,.24,1.93-.22,2.57s-.96,1.23-1.61,1.79c0,0-1.7,1.52-2.43,1.89Z"/>
        <path class="cls-50" d="M291.7,84.38c-.92,.37-1.75,.12-2.05-.98-.22-.8,.27-1.81,.68-2.4,.66-.94,1.66-2.02,2.55-2.67,1.18-.86,3.14-.39,2.67,1.7-.24,1.05-1.06,2.01-1.81,2.79-.28,.29-.1,.34,.24,.15,1.57-.89,3-2.62,2.34-4.7-.63-1.99-2.64-1.81-3.95-.82-1.5,1.14-4.1,3.7-3.66,6.02,.3,1.59,2,2.14,3.1,1.18,.11-.09,.04-.32-.11-.26h0Z"/>
        <path class="cls-58" d="M303.48,142.28c-.64,1.08-1.89,1.38-2.58,.49-.7-.9-.65-2.23-.48-3.41,.11-.75,.26-1.49,.45-2.22,.22-.85,.51-1.72,1.09-2.32s1.52-.86,2.17-.37c.61,.46,1.12,1.49,1.03,2.31s-.23,1.61-.52,2.48c0,0-.72,2.29-1.17,3.04Z"/>
        <path class="cls-50" d="M303.45,142.11c-.61,.87-1.42,1.14-2.2,.38-.56-.54-.63-1.7-.56-2.44,.11-1.19,.45-2.69,.9-3.77,.59-1.43,2.48-2.19,3.07-.14,.29,1.03,.05,2.33-.21,3.44-.1,.41,.08,.35,.27-.01,.91-1.68,1.31-3.99-.24-5.37-1.48-1.32-3.1,.03-3.73,1.64-.73,1.85-1.73,5.57-.26,7.27,1.01,1.17,2.71,.64,3.19-.84,.05-.14-.12-.3-.22-.16h0Z"/>
        <path class="cls-41" d="M110.95,81.87c-1.59-.46-2.53-2.19-1.77-3.65,.76-1.45,2.38-2,3.87-2.27,.95-.17,1.91-.29,2.87-.34,1.12-.06,2.3-.03,3.29,.56s1.73,1.88,1.44,3.09c-.27,1.13-1.28,2.36-2.3,2.61-1.03,.24-2.03,.39-3.21,.36,0,0-3.08-.03-4.19-.35Z"/>
        <path class="cls-50" d="M111.14,81.75c-1.32-.51-2.02-1.61-1.47-3.13,.4-1.09,1.75-1.72,2.68-1.96,1.48-.38,3.43-.56,4.94-.39,1.98,.22,3.76,2.72,1.57,4.53-1.1,.91-2.78,1.15-4.22,1.26-.54,.04-.38,.28,.14,.4,2.44,.59,5.39,.12,6.33-2.83,.9-2.82-1.45-4.63-3.68-4.84-2.56-.25-7.47-.04-8.84,2.95-.94,2.05,.48,4.35,2.47,4.39,.2,0,.3-.31,.09-.4h0Z"/>
        <path class="cls-24" d="M111.03,94.78c-1.05,.54-2.26,.06-2.42-1.12-.16-1.17,.51-2.28,1.21-3.17,.45-.57,.93-1.11,1.44-1.62,.59-.59,1.25-1.16,2.02-1.33,.78-.17,1.7,.17,2.02,.97,.3,.75,.24,1.93-.22,2.57s-.96,1.23-1.61,1.79c0,0-1.7,1.52-2.43,1.89Z"/>
        <path class="cls-50" d="M111.09,94.62c-.92,.37-1.75,.12-2.05-.98-.22-.8,.27-1.81,.68-2.4,.66-.94,1.66-2.02,2.55-2.67,1.18-.86,3.14-.39,2.67,1.7-.24,1.05-1.06,2.01-1.81,2.79-.28,.29-.1,.34,.24,.15,1.57-.89,3-2.62,2.34-4.7-.63-1.99-2.64-1.81-3.95-.82-1.5,1.14-4.1,3.7-3.66,6.02,.3,1.59,2,2.14,3.1,1.18,.11-.1,.04-.32-.11-.26h0Z"/>
        <path class="cls-22" d="M94.82,165.43c-.42-1.21,.07-2.52,1.13-2.64,1.06-.12,2.01,.69,2.77,1.52,.48,.53,.94,1.1,1.37,1.69,.5,.69,.97,1.45,1.08,2.33,.11,.88-.24,1.88-.98,2.2-.69,.3-1.74,.17-2.29-.39s-1.04-1.14-1.51-1.9c0,0-1.26-1.98-1.56-2.82Z"/>
        <path class="cls-50" d="M94.96,165.5c-.28-1.05-.01-1.95,.99-2.23,.72-.2,1.61,.4,2.11,.89,.81,.79,1.71,1.96,2.25,2.99,.71,1.36,.18,3.53-1.66,2.89-.92-.32-1.74-1.29-2.4-2.17-.24-.33-.3-.13-.15,.26,.71,1.8,2.18,3.49,4.08,2.86,1.81-.6,1.76-2.85,.94-4.36-.94-1.73-3.09-4.78-5.18-4.41-1.44,.25-2.02,2.11-1.22,3.4,.08,.13,.29,.06,.24-.11h0Z"/>
        <path class="cls-10" d="M226.24,42.5c-.61-1.19-.51-2.38,.63-3.03,.83-.47,2.06-.02,2.8,.42,1.18,.7,2.58,1.84,3.5,2.92,1.21,1.43,1.11,4.24-1.29,4.04-1.2-.1-2.45-1.02-3.47-1.88-.38-.32-.4-.06-.12,.36,1.32,1.97,3.54,3.56,5.69,2.19,2.06-1.3,1.42-4.03,.04-5.61-1.58-1.81-4.97-4.84-7.43-3.73-1.69,.76-1.93,3.22-.62,4.52,.13,.13,.37-.01,.27-.21h0Z"/>
        <path class="cls-10" d="M250.46,94.7c.31-1.33,1.13-2.09,2.36-1.66,.89,.31,1.48,1.6,1.73,2.49,.4,1.43,.68,3.34,.65,4.83-.04,1.97-1.88,3.89-3.46,1.86-.79-1.02-1.1-2.65-1.28-4.06-.07-.53-.24-.36-.31,.16-.3,2.44,.28,5.31,2.67,6.03,2.28,.69,3.54-1.75,3.56-3.96,.02-2.53-.49-7.35-2.94-8.49-1.68-.78-3.39,.78-3.29,2.73,.01,.19,.27,.28,.32,.06h0Z"/>
        <path class="cls-10" d="M263.84,102.28c-.24-1.35,.19-2.44,1.46-2.65,.92-.16,1.96,.71,2.53,1.39,.92,1.09,1.92,2.66,2.48,4.02,.74,1.78-.15,4.41-2.37,3.37-1.11-.52-2.03-1.84-2.75-3.02-.27-.44-.36-.2-.21,.3,.69,2.34,2.34,4.63,4.77,4.1,2.32-.5,2.49-3.31,1.64-5.3-.98-2.28-3.33-6.36-5.98-6.18-1.82,.13-2.74,2.37-1.88,4.07,.09,.17,.35,.12,.31-.1h0Z"/>
        <path class="cls-10" d="M264.32,159.97c.46-1.27,1.36-1.91,2.53-1.31,.84,.44,1.28,1.8,1.43,2.72,.23,1.47,.29,3.41,.09,4.88-.27,1.94-2.31,3.59-3.65,1.35-.67-1.12-.78-2.79-.81-4.22,0-.53-.2-.39-.32,.12-.58,2.38-.34,5.3,1.95,6.36,2.18,1.01,3.71-1.23,3.98-3.41,.31-2.51,.36-7.36-1.94-8.84-1.58-1.02-3.45,.28-3.57,2.24-.01,.19,.23,.31,.31,.11h0Z"/>
        <path class="cls-10" d="M263.86,143.1c.08-1.37,.76-2.29,2.04-2.13,.92,.12,1.72,1.26,2.12,2.09,.63,1.32,1.23,3.14,1.45,4.6,.29,1.94-1.19,4.21-3.08,2.56-.95-.83-1.52-2.37-1.95-3.72-.16-.5-.3-.3-.27,.23,.12,2.46,1.17,5.15,3.64,5.36,2.36,.2,3.18-2.47,2.82-4.64-.41-2.49-1.72-7.12-4.32-7.72-1.78-.41-3.2,1.48-2.77,3.37,.04,.19,.31,.22,.32,0h0Z"/>
        <path class="cls-10" d="M277.64,153.04c.07-1.14,.63-1.9,1.69-1.76,.77,.1,1.43,1.04,1.75,1.73,.52,1.09,1.02,2.6,1.2,3.81,.24,1.61-.98,3.49-2.55,2.12-.79-.69-1.26-1.96-1.61-3.08-.13-.42-.25-.25-.23,.19,.1,2.04,.97,4.27,3.01,4.44,1.95,.16,2.64-2.04,2.34-3.84-.34-2.06-1.43-5.89-3.58-6.39-1.48-.34-2.65,1.22-2.29,2.79,.04,.15,.26,.18,.27,0h0Z"/>
        <path class="cls-1" d="M131.21,152.88c-.75-1.09-1.77-1.43-2.75-.49-.71,.68-.8,2.12-.71,3.05,.13,1.49,.55,3.37,1.1,4.72,.73,1.79,3.09,2.75,3.84,.19,.37-1.28,.08-2.92-.25-4.3-.12-.51,.1-.44,.34,.02,1.13,2.11,1.61,5-.33,6.72-1.86,1.64-3.87-.06-4.66-2.08-.9-2.32-2.13-6.98-.28-9.1,1.27-1.46,3.39-.78,3.98,1.07,.06,.18-.15,.37-.27,.2h0Z"/>
        <path class="cls-1" d="M158.69,71.29c.08-1.37-.47-2.39-1.76-2.41-.93-.02-1.86,.99-2.35,1.75-.79,1.21-1.59,2.92-1.99,4.34-.52,1.88,.67,4.35,2.75,3,1.04-.68,1.8-2.12,2.38-3.4,.22-.47,.33-.25,.25,.26-.41,2.42-1.78,4.93-4.25,4.77-2.36-.16-2.86-2.92-2.24-5.02,.71-2.41,2.56-6.79,5.21-7,1.82-.14,3,1.94,2.34,3.76-.06,.18-.33,.17-.32-.06h0Z"/>
        <path class="cls-1" d="M127.57,136.5c-.41-1.3-1.28-1.98-2.48-1.43-.86,.4-1.35,1.74-1.53,2.65-.29,1.46-.42,3.39-.28,4.87,.19,1.96,2.17,3.7,3.59,1.53,.71-1.09,.89-2.74,.97-4.17,.03-.53,.22-.38,.32,.13,.48,2.4,.13,5.32-2.2,6.26-2.22,.9-3.66-1.41-3.84-3.61-.21-2.52-.07-7.37,2.28-8.74,1.62-.94,3.44,.45,3.48,2.41,0,.19-.25,.3-.31,.09h0Z"/>
        <path class="cls-1" d="M151.73,76.57c-.08-1.14-.64-1.89-1.7-1.75-.76,.11-1.42,1.06-1.74,1.74-.52,1.1-1,2.61-1.17,3.82-.23,1.61,1.01,3.48,2.57,2.1,.78-.69,1.25-1.97,1.59-3.1,.13-.42,.25-.25,.23,.18-.08,2.04-.94,4.28-2.98,4.47-1.95,.18-2.65-2.02-2.37-3.82,.33-2.06,1.38-5.9,3.53-6.42,1.47-.35,2.66,1.2,2.31,2.77-.03,.15-.26,.18-.27,0h0Z"/>
        <path class="cls-10" d="M232.78,178.49c.73-.8,1.6-.95,2.31-.06,.51,.64,.44,1.84,.28,2.59-.26,1.2-.79,2.69-1.38,3.74-.78,1.38-2.81,1.87-3.17-.32-.18-1.1,.23-2.4,.63-3.5,.15-.41-.04-.37-.28-.03-1.14,1.59-1.82,3.9-.4,5.55,1.36,1.57,3.18,.44,4.03-1.12,.97-1.79,2.45-5.46,1.14-7.43-.9-1.35-2.71-1.06-3.37,.38-.07,.14,.09,.32,.2,.2h0Z"/>
        <path class="cls-2" d="M138.56,186.63c-8.13-2.6-15.35-10.14-19.02-18.51-4.65-10.6-3.37-21.67-1.77-32.84,.06-.4-.42-.65-.61-.27-5.24,10.14-4.71,23.92-.27,34.24,2.07,4.8,5.08,9.1,8.82,12.42,3.96,3.51,7.72,5.02,12.58,6.12,.68,.15,.93-.95,.26-1.17h0Z"/>
        <path class="cls-2" d="M123.35,123.4c3.9-11.49,8.3-22.59,13.87-33.2,5.39-10.28,11.49-20.07,16.96-30.29,.24-.45-.36-.96-.67-.55-7.03,9.49-13.35,19.38-18.89,30.06-5.44,10.48-10.27,21.73-12.11,33.75-.09,.62,.64,.8,.83,.23h0Z"/>
        <path class="cls-2" d="M160.82,52.44c4.14-5.15,7.99-10.54,12.36-15.46,4.36-4.9,9.32-9.13,13.66-13.99,.43-.48-.14-1.1-.62-.85-5.52,2.88-10.68,8.03-14.89,12.88-4.33,5-8.38,10.64-11.11,16.93-.18,.4,.3,.84,.59,.48h0Z"/>
        <path class="cls-2" d="M185.7,13.97c-1.22-1.18-1.87-2.84-1.84-4.64l-.7,.82c3.35,0,5.22,4.02,6.64,6.87,.07,.15,.26,.03,.23-.12-.41-2.16-.8-4.39-2.19-6.08-1.22-1.49-2.89-2.4-4.72-2.27-.36,.02-.74,.38-.7,.82,.23,2.22,1.25,3.95,3.04,4.96,.2,.11,.42-.19,.24-.37h0Z"/>
        <path class="cls-1" d="M120.21,151.34c-.34-1.07-1.06-1.64-2.05-1.18-.71,.33-1.12,1.44-1.27,2.19-.24,1.21-.35,2.81-.23,4.03,.16,1.62,1.79,3.06,2.97,1.27,.59-.9,.74-2.27,.8-3.45,.02-.44,.18-.31,.26,.11,.4,1.99,.11,4.4-1.82,5.18-1.84,.75-3.03-1.17-3.18-2.99-.17-2.09-.06-6.1,1.89-7.23,1.34-.78,2.85,.37,2.88,2,0,.16-.2,.25-.26,.08h0Z"/>
        <path class="cls-1" d="M175.51,40.09c.32-1.08,.07-2.02-.96-2.34-.74-.23-1.67,.36-2.21,.85-.86,.79-1.82,1.97-2.41,3.02-.77,1.38-.28,3.65,1.64,3.04,.96-.3,1.83-1.28,2.54-2.17,.26-.33,.31-.12,.15,.27-.78,1.84-2.34,3.54-4.29,2.83-1.86-.68-1.74-3.01-.86-4.54,1.02-1.76,3.32-4.85,5.48-4.39,1.48,.31,2.04,2.26,1.17,3.56-.09,.13-.3,.06-.25-.12h0Z"/>
      </g>
      <g>
        <path class="cls-25" d="M209.97,188.7c-1.22,5.07-1,10.77-1.23,15.96-.25,5.8-.01,11.65,.14,17.45,.31,11.46,1.02,22.9,2.02,34.32,.23,2.64,4.35,2.69,4.17,0-.79-11.43-1.45-22.88-2.03-34.32-.29-5.64-.42-11.29-.82-16.92-.38-5.38-.29-11.25-1.55-16.49-.08-.34-.62-.35-.7,0h0Z"/>
        <path class="cls-25" d="M223.94,256.68c-2.58-6.14-12.16-6.86-17.17-3.53-.2,.14-.4,.28-.58,.42-2.08,.82-3.74,2.42-4.47,5.15-1.98,7.42,6.17,11.56,12.32,10.85,6.09-.71,12.74-6.14,9.9-12.89Z"/>
      </g>
      <g>
        <path class="cls-25" d="M247.1,235.65c-4.47-2.74-10.14,.1-9.92,5.48,.08,1.97,1.02,4.9,2.55,6.81-3.98,0-7.91,1.45-8.57,6.1-.77,5.36,5.09,7.94,9.56,7.33,5.58-.76,9.85-5.38,10.99-10.76,1.04-4.92,.09-12.08-4.61-14.96Z"/>
        <path class="cls-25" d="M174.86,188.16c1.1,7.54,4.27,14.93,7.25,21.9,2.9,6.81,5.74,14.62,12.49,18.49,6.53,3.74,14.75,4.67,21.95,6.53,4.16,1.08,8.31,2.19,12.46,3.33,3.98,1.09,8.4,3.08,12.53,3.24,2.13,.08,2.79-2.87,1.06-3.91-3.26-1.96-7.69-2.6-11.33-3.62-3.81-1.06-7.63-2.08-11.47-3.04-3.84-.96-7.68-1.88-11.54-2.77-3.46-.79-7.07-1.47-10.29-3.01-6.7-3.21-9.45-10.9-12.55-17.18-3.32-6.72-5.81-13.88-9.33-20.48-.38-.72-1.32-.18-1.21,.51h0Z"/>
      </g>
      <g>
        <g>
          <path class="cls-59" d="M49.65,217.25c.27-.77,.6-1.53,.91-2.27,.41-.97,.84-1.97,1.14-2.99,.32-1.07,.46-2.2,.6-3.3,.1-.77,.2-1.56,.36-2.34,.24-1.19,.58-2.11,1.06-2.89,.36-.59,.81-1.11,1.24-1.62,.21-.25,.43-.51,.63-.76,.81-1.04,1.45-2.32,2.06-3.55,.97-1.94,1.96-3.96,3.73-5.28l.32-.24,.25,.3c.14,.17,.29,.34,.43,.5-.12-.16-.23-.31-.35-.47l-.29-.4h.02c-.06-.09-.12-.18-.17-.25h-.02s-.21-.3-.21-.3c-.4-.57-.79-1.16-1.16-1.73-.89-1.34-1.82-2.73-2.84-4-.5-.61-.86-1.31-1.22-1.99-.09-.18-.18-.35-.28-.52-.5-.92-1.02-1.87-1.41-2.88-.82-2.11-.75-4.23-.63-6.06,.14-2.05,.06-3.99-.23-5.95-.35-2.34-.61-4.29-.47-6.41,.14-2.19,.7-4.26,1.29-6.18,.55-1.79,1.15-3.71,1.85-5.56,.84-2.23,1.82-4.04,2.98-5.53,1.07-1.37,2.31-2.62,3.51-3.83,.22-.22,.44-.44,.65-.66,.23-.23,.45-.46,.68-.69,2.45-2.49,4.98-5.07,8.23-6.7,1.66-.84,3.45-1.4,5.19-1.94l.31-.1c1.87-.59,3.64-1.29,5.26-1.97,2.13-.88,4.06-1.29,5.92-1.25,1.13,.02,2.25,.18,3.33,.33,.93,.13,1.89,.26,2.83,.3,.64,.03,1.31,.03,1.95,.03,1.5,0,3.05,0,4.53,.37,1.42,.36,2.49,1.08,3.79,1.69,.45,.21,1.27,.7,1.73,.9l3.56,1.71c.56,.36,1.57,.63,2.14,.97,.64,.38,1.3,.77,1.94,1.19,1.21,.8,2.3,1.81,3.33,3.07,.28,.35,.56,.7,.82,1.05,.58,.74,1.17,1.51,1.83,2.2,.58,.61,1.24,1.18,1.87,1.73,.37,.33,.76,.66,1.14,1.01,1.81,1.67,3,3.74,3.87,6.7l.21,.71c.62,2.14,1.21,4.16,2.1,6.16l.02,.04c.56,1.25,1.14,2.55,1.37,3.95,.26,1.56,.05,3.14-.18,4.48-.08,.42-.16,.85-.24,1.27-.16,.85-.33,1.72-.44,2.59-.17,1.36-.15,2.76-.12,4v.1c.03,1.32,.05,2.68-.18,4.01-.26,1.48-.89,2.7-1.55,3.81-.64,1.09-1.2,2.07-1.52,3.17-.04,.14-.08,.28-.12,.42-.36,1.25-.7,2.42-1.63,3.51-.99,1.16-2.05,2.28-2.86,3.12-.02,.02-.06,.06-.13,.13-.36,.36-.6,.6-.72,.72v.02l-.66,.67c-.37,.37-.73,.75-1.09,1.12-.3,.31-.63,.64-.98,.97,.39-.34,.77-.68,1.13-1.02,.56-.54,1.11-1.09,1.51-1.5l.25-.26,.29,.22c1.16,.87,2.06,2.01,2.87,3.11,.73,.97,1.45,1.95,2.17,2.93l.83,1.12c.32,.43,.66,.87,.98,1.3,1.42,1.84,2.89,3.75,3.62,5.97,.72,2.18,.93,4.52,1.13,6.8,.06,.67,.12,1.36,.19,2.02,.06,.52,.12,1.04,.18,1.56,.28,2.38,.56,4.84,.54,7.28-.02,2.24-.42,4.42-.8,6.52-.1,.57-.49,1.11-.59,1.69l-2.14,6-3.07,6.14s-2.42,3.01-3.62,4.55c-.48,.61-.97,1.24-1.47,1.85-.76,.93-1.68,1.99-2.79,2.9-1.21,.99-2.64,1.66-3.74,2.13-2.2,.94-4.34,1.89-6.38,3.1-.35,.21-.7,.42-1.05,.63-1.55,.93-3.15,1.9-4.84,2.64-2.5,1.1-5.08,1.38-7.73,1.59-.76,.06-1.55,.14-2.31,.22-1.81,.18-3.68,.37-5.52,.37-.08,0-.16,0-.23,0-1.37-.01-2.66-.31-4.05-.95-.15-.07-.3-.14-.45-.21-.71-.33-1.44-.67-2.19-.86-.62-.16-1.25-.2-1.91-.25-.59-.04-1.19-.08-1.79-.21-1.15-.24-2.07-.86-3.09-1.7-.13-.11-.26-.22-.39-.33-.65-.55-1.33-1.12-2.07-1.53-.72-.39-1.49-.67-2.29-.94-.18-.06-.36-.12-.54-.18-.76-.25-1.55-.51-2.29-.89-.9-.46-1.69-1.09-2.44-1.71,0,0-4.78-4.22-6.46-6.4-.21-.28-.77-1.2-.77-1.2-.34-.62-.68-1.25-1.01-1.86-.79-1.48-1.6-3-2.52-4.43-1.32-2.06-2.54-4.1-3.01-6.45-.29-1.46-.31-2.96-.33-4.41,0-.64-.01-1.3-.05-1.95-.1-2.02-.66-3.83-1.25-5.75l-.02-.08c-.6-1.95-.53-3.85,.22-5.98Z"/>
          <path class="cls-60" d="M100.14,259c1.35-1.74,2.23-3.79,3.36-5.68,2.06-3.46,5.04-6.6,5.6-10.6,.29-2.08-.11-4.21,.21-6.28,.33-2.11,1.38-4.02,2.01-6.06,1.32-4.27,.63-9.12-1.81-12.87-.74-1.13-1.62-2.16-2.33-3.31-1.17-1.91-1.79-4.11-2.77-6.12-1.35-2.76-3.39-5.17-5.88-6.95,.13-.1,.26-.2,.4-.3,1.65-1.07,1.93-3.18,3.27-4.62,1.27-1.36,2.2-2.99,3.12-4.61,1.44-2.52,2.88-5.04,4.32-7.56,1.43-2.5,2.88-5.07,3.29-7.93,.26-1.79,.09-3.61,.18-5.41,.11-2.24,.62-4.43,.83-6.66,.54-5.7-.93-11.57-4.09-16.34-1.7-2.56-3.88-4.84-5.03-7.69-.66-1.64-.97-3.42-1.72-5.02-1.62-3.42-4.98-5.44-8.56-6.94,.21,.02,.41,.03,.62,.04,.64,.03,1.31,.03,1.95,.03,1.5,0,3.05,0,4.53,.37,1.42,.36,2.49,1.08,3.79,1.69,.45,.21,1.27,.7,1.73,.9l3.56,1.71c.56,.36,1.57,.63,2.14,.97,.64,.38,1.3,.77,1.94,1.19,1.21,.8,2.3,1.81,3.33,3.07,.28,.35,.56,.7,.82,1.05,.58,.74,1.17,1.51,1.83,2.2,.58,.61,1.24,1.18,1.87,1.73,.37,.33,.76,.66,1.14,1.01,1.81,1.67,3,3.74,3.87,6.7l.21,.71c.62,2.14,1.21,4.16,2.1,6.16l.02,.04c.56,1.25,1.14,2.55,1.37,3.95,.26,1.56,.05,3.14-.18,4.48-.08,.42-.16,.85-.24,1.27-.16,.85-.33,1.72-.44,2.59-.17,1.36-.15,2.76-.12,4v.1c.03,1.32,.05,2.68-.18,4.01-.26,1.48-.89,2.7-1.55,3.81-.64,1.09-1.2,2.07-1.52,3.17-.04,.14-.08,.28-.12,.42-.36,1.25-.7,2.42-1.63,3.51-.99,1.16-2.05,2.28-2.86,3.12-.02,.02-.06,.06-.13,.13-.36,.36-.6,.6-.72,.72v.02l-.66,.67c-.37,.37-.73,.75-1.09,1.12-.3,.31-.63,.64-.98,.97,.39-.34,.77-.68,1.13-1.02,.56-.54,1.11-1.09,1.51-1.5l.25-.26,.29,.22c1.16,.87,2.06,2.01,2.87,3.11,.73,.97,1.45,1.95,2.17,2.93l.83,1.12c.32,.43,.66,.87,.98,1.3,1.42,1.84,2.89,3.75,3.62,5.97,.72,2.18,.93,4.52,1.13,6.8,.06,.67,.12,1.36,.19,2.02,.06,.52,.12,1.04,.18,1.56,.28,2.38,.56,4.84,.54,7.28-.02,2.24-.42,4.42-.8,6.52-.1,.57-.49,1.11-.59,1.69l-2.14,6-3.07,6.14s-2.42,3.01-3.62,4.55c-.48,.61-.97,1.24-1.47,1.85-.76,.93-1.68,1.99-2.79,2.9-1.21,.99-2.64,1.66-3.74,2.13-2.2,.94-4.34,1.89-6.38,3.1-.35,.21-.7,.42-1.05,.63-1.55,.93-3.15,1.9-4.84,2.64-2.5,1.1-5.08,1.38-7.73,1.59-.76,.06-1.55,.14-2.31,.22-.83,.08-1.68,.17-2.53,.23,.87-.47,1.74-.96,2.59-1.48,2.22-1.34,4.4-2.86,5.99-4.91Z"/>
          <path class="cls-31" d="M113.44,198.8s2.53-2.12,4.8-4.48c2.22-2.3,4.18-4.83,4.67-5.41,.93-1.09,1.27-2.27,1.63-3.51,.04-.14,.08-.28,.12-.42,.32-1.1,.88-2.08,1.52-3.17,.65-1.11,1.29-2.33,1.55-3.81,.23-1.33,.21-2.69,.18-4.01v-.1c-.02-1.24-.05-2.64,.12-4,.11-.86,.28-1.74,.44-2.59,.08-.42,.16-.85,.24-1.27,.24-1.34,.44-2.92,.18-4.48-.23-1.4-.81-2.69-1.37-3.95l-.02-.04c-.89-2-1.48-4.02-2.1-6.16l-.21-.71c-.87-2.96-2.06-5.02-3.87-6.7-.37-.35-.76-.68-1.14-1.01-.63-.55-1.28-1.12-1.87-1.73-.66-.68-1.25-1.45-1.83-2.2-.27-.34-.54-.7-.82-1.05-1.03-1.26-2.11-2.27-3.32-3.07-.64-.42-1.3-.81-1.94-1.19-.57-.34-1.15-.68-1.71-1.05l-4.07-1.99c-.45-.2-.91-.42-1.36-.62-1.3-.61-2.64-1.24-4.07-1.6-1.48-.38-3.03-.38-4.53-.37-.65,0-1.31,0-1.95-.03-.94-.05-1.9-.18-2.83-.3-.76-.1-1.53-.21-2.32-.27,.48-.05,.95-.06,1.41-.05,1.13,.02,2.25,.18,3.33,.33,.93,.13,1.89,.26,2.83,.3,.64,.03,1.31,.03,1.95,.03,1.5,0,3.05,0,4.53,.37,1.42,.36,2.77,.99,4.07,1.6,.45,.21,.9,.42,1.36,.62l4.07,1.99c.56,.36,1.15,.71,1.71,1.05,.64,.38,1.3,.77,1.94,1.19,1.21,.8,2.3,1.81,3.33,3.07,.28,.35,.56,.7,.82,1.05,.58,.74,1.17,1.51,1.83,2.2,.58,.61,1.24,1.18,1.87,1.73,.37,.33,.76,.66,1.14,1.01,1.81,1.67,3,3.74,3.87,6.7l.21,.71c.62,2.14,1.21,4.16,2.1,6.16l.02,.04c.56,1.25,1.14,2.55,1.37,3.95,.26,1.56,.05,3.14-.18,4.48-.08,.42-.16,.85-.24,1.27-.16,.85-.33,1.72-.44,2.59-.17,1.36-.15,2.76-.12,4v.1c.03,1.32,.05,2.68-.18,4.01-.26,1.48-.89,2.7-1.55,3.81-.64,1.09-1.2,2.07-1.52,3.17-.04,.14-.08,.28-.12,.42-.36,1.25-.7,2.42-1.63,3.51-.99,1.16-2.05,2.28-2.86,3.12-.02,.02-.06,.06-.13,.13-.36,.36-.6,.6-.72,.72v.02l-.66,.67c-.37,.37-.73,.75-1.09,1.12-.3,.31-.63,.64-.98,.97,.32-.27,.62-.55,.92-.83-.66,.66-1.6,1.61-2.57,2.27-1.87,1.28-3.82,1.69-3.82,1.69Z"/>
          <path class="cls-31" d="M93.98,264.94c2.65-.21,5.23-.5,7.73-1.59,1.69-.74,3.29-1.71,4.84-2.64,.35-.21,.7-.42,1.05-.63,2.04-1.21,4.18-2.16,6.38-3.1,1.1-.47,2.53-1.14,3.74-2.13,1.1-.9,2.03-1.97,2.79-2.9,.5-.61,.99-1.24,1.47-1.85,1.2-1.53,2.44-3.12,3.84-4.45l.03-.03,.03-.04c.09-.14,.17-.27,.26-.41,3.01-4.29,4.94-11.7,4.94-11.7,.1-.59,.2-1.18,.31-1.75,.38-2.1,.77-4.28,.8-6.52,.02-2.45-.26-4.91-.54-7.28-.06-.52-.12-1.04-.18-1.56-.07-.66-.13-1.35-.19-2.02-.2-2.27-.41-4.62-1.13-6.8-.74-2.22-2.2-4.13-3.62-5.97-.33-.43-.67-.87-.98-1.3l-.83-1.12c-.72-.98-1.44-1.95-2.17-2.93-.54-.73-1.12-1.48-1.78-2.15-.03-.03-.1,.01-.21,.1,.38-.37,.72-.72,1.01-1.01l.25-.26,.29,.22c1.16,.87,2.06,2.01,2.87,3.11,.73,.97,1.45,1.95,2.17,2.93l.83,1.12c.32,.43,.66,.87,.98,1.3,1.42,1.84,2.89,3.75,3.62,5.97,.72,2.18,.93,4.52,1.13,6.8,.06,.67,.12,1.36,.19,2.02,.06,.52,.12,1.04,.18,1.56,.28,2.38,.56,4.84,.54,7.28-.02,2.24-.42,4.42-.8,6.52-.1,.57-.44,1.25-.54,1.84,0,0-.58,2.84-1.87,5.81-1.42,3.26-3.56,6.67-3.65,6.76-1.2,1.22-2.29,2.62-3.35,3.97-.48,.61-.97,1.24-1.47,1.85-.76,.93-1.68,1.99-2.79,2.9-1.21,.99-2.64,1.66-3.74,2.13-2.2,.94-4.34,1.89-6.38,3.1-.35,.21-.7,.42-1.05,.63-1.55,.93-3.15,1.9-4.84,2.64-2.5,1.1-5.08,1.38-7.73,1.59-.76,.06-1.55,.14-2.31,.22-1.81,.18-3.68,.37-5.52,.37-.08,0-.16,0-.23,0-.24,0-.48-.02-.71-.04,1.36-.06,2.72-.2,4.04-.33,.76-.08,1.54-.15,2.31-.22Z"/>
          <path class="cls-19" d="M63.58,198.45c-.71,.71-1.38,1.33-1.93,2.2-.53,.85-.91,1.72-1.16,2.68-.43,1.63-1.27,2.65-2.39,3.86-.56,.6-1.12,1.24-1.36,2.04-.32,1.06-.05,2.21-.17,3.3-.21,1.93-1.58,3.52-1.02,5.54,.02,.08-.09,.15-.14,.08-1.27-1.49,.1-3.41,.43-5.01,.24-1.2-.17-2.42,.02-3.62,.13-.8,.51-1.5,1-2.13,.54-.69,1.2-1.28,1.75-1.95,.71-.86,.94-1.8,1.29-2.83,.59-1.74,1.83-3.55,3.56-4.31,.1-.04,.2,.07,.12,.15h0Z"/>
          <path class="cls-19" d="M55.27,224.89c.74,1.8,.72,3.79,.38,5.68-.19,1.05-.41,2.07-.07,3.12,.26,.8,.75,1.52,1.22,2.21,.88,1.32,1.42,2.54,1.84,4.07,.23,.84,.54,1.6,1.22,2.17,.54,.46,1.21,.65,1.61,1.26,.03,.04-.03,.1-.07,.07-.69-.49-1.58-.58-2.26-1.07-.49-.36-.78-.92-.99-1.48-.3-.79-.42-1.63-.73-2.41-.32-.84-.86-1.58-1.36-2.33-.93-1.39-1.62-2.75-1.39-4.47,.16-1.14,.46-2.25,.54-3.41,.08-1.14,0-2.28-.03-3.41,0-.05,.06-.05,.08-.01h0Z"/>
          <path class="cls-19" d="M60.18,212.35c-.52,.95-.98,1.79-1,2.9-.02,1.04,.03,2.03-.13,3.06-.16,1.04-.39,2.07-.51,3.12-.11,.99-.07,1.91,.04,2.9,0,.07-.09,.08-.12,.03-1.24-1.82-.47-4.28-.13-6.25,.33-1.97-.08-4.52,1.73-5.89,.08-.06,.18,.06,.13,.13h0Z"/>
          <path class="cls-19" d="M72.04,253.42c-1.58,.24-3.22-.27-4.36-1.43-.67-.68-1.13-1.53-1.64-2.33-.58-.92-1.18-1.59-2.04-2.24-.07-.05-.06-.19,.05-.18,1.51,.07,2.42,1.66,3.09,2.81,1.1,1.89,2.65,3.12,4.89,3.27,.06,0,.08,.1,.01,.11h0Z"/>
          <path class="cls-19" d="M65.81,143.52c-1.64,.95-2.7,2.29-3.08,4.18-.35,1.77-.41,3.5-1.32,5.11-.9,1.59-2.11,2.93-2.65,4.72-.56,1.87-.66,3.89-.9,5.83-.01,.11-.19,.16-.21,.03-.37-1.96-.45-3.91,.08-5.85,.54-1.99,1.84-3.46,2.86-5.21,1.07-1.85,.8-3.99,1.61-5.91,.62-1.47,1.96-2.72,3.52-3.13,.14-.04,.23,.17,.1,.24h0Z"/>
          <path class="cls-19" d="M57.84,170.87c1,3.99,.28,8.44,2.81,11.94,.52,.72,1.07,1.42,1.51,2.19,.38,.68,.67,1.4,.99,2.11,.7,1.52,1.63,2.77,2.98,3.78,.06,.04,.02,.13-.05,.11-1.49-.31-2.36-1.61-3.1-2.86-.94-1.59-1.83-3.18-2.94-4.66-1.26-1.68-1.89-3.4-2.15-5.49-.28-2.29-.48-4.79-.31-7.09,.01-.14,.22-.19,.26-.04h0Z"/>
          <path class="cls-16" d="M84.98,263.06c-.14-.07-.29-.13-.43-.2-.74-.34-1.58-.73-2.47-.97-.77-.2-1.51-.25-2.22-.3-.55-.04-1.07-.07-1.56-.17-.72-.15-1.36-.52-2.38-1.36-.12-.1-.25-.21-.38-.32-.68-.58-1.46-1.23-2.35-1.72-.84-.46-1.68-.76-2.55-1.05-.18-.06-.35-.12-.53-.18h-.02c-.74-.25-1.43-.48-2.06-.8-.75-.38-3.95-2.78-3.95-2.78-1.64-1.56-3.11-3.19-4.39-4.86-.1-.13-.2-.26-.31-.41l-.32-.58c-.33-.6-.67-1.23-.99-1.83v-.02c-.81-1.5-1.64-3.06-2.6-4.55-1.23-1.92-2.36-3.81-2.78-5.88-.26-1.31-.28-2.73-.29-4.1,0-.66-.01-1.34-.05-2.01-.11-2.23-.7-4.14-1.32-6.16l-.03-.08c-.5-1.62-.44-3.14,.2-4.93,.26-.72,.57-1.46,.87-2.17,.43-1.01,.88-2.06,1.21-3.18,.35-1.2,.51-2.4,.65-3.56,.09-.74,.19-1.5,.34-2.22,.2-.99,.47-1.74,.85-2.34,.3-.48,.68-.94,1.09-1.42,.21-.25,.45-.53,.67-.81,.92-1.18,1.59-2.53,2.24-3.84,.92-1.85,1.79-3.6,3.24-4.68l.32-.24h0s3.61,3.43,3.61,3.43l5.49,3.41-6.08-5.48-2.2-3.18-.39-.56c-.06-.09-.13-.18-.19-.26l-.41-.57c-.32-.47-.64-.95-.94-1.41-.91-1.38-1.86-2.8-2.94-4.13-.39-.49-.71-1.08-1.04-1.71-.1-.19-.19-.37-.29-.54-.48-.87-.97-1.77-1.32-2.69-.69-1.79-.63-3.7-.52-5.34,.15-2.17,.07-4.23-.25-6.31-.33-2.23-.58-4.1-.46-6.05,.13-2.02,.66-3.98,1.22-5.8,.54-1.77,1.13-3.65,1.82-5.46,.78-2.07,1.68-3.74,2.73-5.1,1.01-1.29,2.21-2.5,3.38-3.67,.22-.22,.44-.44,.66-.66,.23-.23,.45-.46,.68-.69,2.35-2.39,4.79-4.87,7.79-6.38,1.54-.78,3.27-1.32,4.94-1.84l.31-.1c1.93-.6,3.74-1.33,5.4-2.02,1.91-.79,3.63-1.16,5.25-1.12,1.01,.02,2.06,.16,3.07,.3-3.81,1.29-7.34,3.13-9.71,6.31-.68,.92-1.25,1.93-2,2.79-.97,1.12-2.22,1.96-3.35,2.91-3.21,2.7-5.57,6.41-6.64,10.48-.52,1.98-.74,4.03-1.31,6-.38,1.33-.92,2.62-1.19,3.98-.3,1.53-.26,3.1-.22,4.66,.12,4.38,.23,8.76,.35,13.14,.02,.67,.04,1.35,.29,1.96,.23,.55,.62,1.01,.93,1.53,.81,1.38,.91,3.05,1.18,4.63,1.07,6.31,5.58,11.8,11.34,14.48-4.74,2.54-8.34,7.18-9.57,12.43-.48,2.05-.61,4.16-1.07,6.21-.73,3.28-2.3,6.49-1.95,9.83,.37,3.5,2.79,6.43,3.86,9.79,.95,3,.82,6.33,2.29,9.11,.97,1.84,2.57,3.28,3.58,5.09,.72,1.29,1.18,2.8,2.35,3.69,1.18,.91,2.8,.95,4.18,1.52,1.17,.48,2.14,1.33,3.17,2.07,.88,.64,1.81,1.2,2.78,1.68-.99,.08-1.99,.13-2.96,.12-1.13,0-2.2-.26-3.38-.8Z"/>
          <path class="cls-11" d="M114.1,138.92c1.66,2.95,4.85,4.73,6.9,7.38,1.14,1.47,1.71,3.15,2.22,4.92,.55,1.93,1.36,3.69,2.24,5.49,.83,1.7,1.65,3.46,1.94,5.35,.32,2.07-.09,4.12-.44,6.15-.19,1.08-.33,2.15-.34,3.24-.01,1.04,.07,2.08,.04,3.11-.06,2.01-.73,3.68-1.7,5.41-.53,.95-1.07,1.89-1.41,2.93-.27,.85-.44,1.72-.7,2.57-.51,1.67-1.1,3.37-2.6,4.39-.28,.19-.54-.21-.34-.45,1.09-1.31,1.46-2.88,1.78-4.51,.32-1.63,.81-3.18,1.6-4.64,.92-1.7,1.91-3.24,2.04-5.23,.13-1.99-.1-3.94,.18-5.93,.3-2.09,.88-4.19,.69-6.32-.17-1.92-1.01-3.71-1.84-5.42-.79-1.62-1.58-3.23-2.09-4.96-.53-1.79-.89-3.58-1.96-5.14-1.02-1.49-2.39-2.69-3.64-3.97-1.25-1.27-2.21-2.58-2.86-4.24-.07-.18,.22-.3,.31-.13h0Z"/>
          <path class="cls-11" d="M121.97,199.71c1.89,2.05,3.76,4.24,5.3,6.58,1.55,2.37,1.69,5.29,2.16,8.01,.5,2.89,1.1,5.77,1.37,8.7,.26,2.86-.06,5.72-.91,8.47-.95,3.07-2.15,6.03-3.81,8.78-.11,.19-.43,.07-.36-.15,.82-2.56,1.9-5.03,2.66-7.62,.78-2.64,1.24-5.45,1.14-8.21-.11-2.85-.69-5.7-1.08-8.53-.2-1.44-.42-2.87-.63-4.3-.19-1.28-.38-2.58-.97-3.75-.67-1.31-1.62-2.47-2.46-3.67-.94-1.34-1.8-2.72-2.62-4.14-.08-.13,.11-.28,.21-.17h0Z"/>
          <path class="cls-11" d="M124.29,242.94c-.64,3.05-3.01,5.55-5.11,7.68-1.05,1.06-1.59,2.39-3.01,3.01-.7,.31-1.41,.56-2.09,.92-.67,.36-1.5,.64-2.07,1.14-.09,.08-.22-.04-.14-.14,.42-.47,.71-1.02,1.2-1.44,.53-.46,1.17-.79,1.82-1.07,.64-.28,1.35-.5,1.84-1.03,.52-.56,.89-1.25,1.42-1.81,1.05-1.1,2.18-2.1,3.15-3.28,1.05-1.28,1.85-2.74,2.85-4.05,.05-.07,.16-.03,.14,.06h0Z"/>
          <path class="cls-11" d="M115.97,137.54c-2.29-1.57-6.62-1.12-5.96,2.49,.66,3.61,3.95,6.05,6.27,5.02,2.31-1.02,1.95-5.97-.3-7.51Z"/>
          <path class="cls-11" d="M117.29,146.04c.87-.88,3.84,.03,3.78,1.43-.07,1.4-2.55,3.1-3.78,2.2s-.77-2.84,0-3.62Z"/>
          <path class="cls-11" d="M125.22,204.78c-1.7-.67-5.48,2.29-4.23,4.6,1.25,2.31,4.72,3.15,6.45,2.65s.43-6.2-2.22-7.25Z"/>
          <path class="cls-11" d="M125.64,213.14c-1.2-.1-2.85,1.98-1.66,2.87,1.19,.89,2.82,.28,3.14-.61,.32-.89-.32-2.16-1.48-2.26Z"/>
          <path class="cls-11" d="M115.63,253.38c1.24-.73-1.05-3.74-2.77-3.62-1.72,.12-3.3,2.37-2.76,3.64,.54,1.27,2.16,1.97,5.53-.02Z"/>
          <path class="cls-11" d="M116.37,249.76c1.29,0,2.32-2.95,1.01-3.43-1.3-.48-2.34,.2-2.72,1-.37,.81,.21,2.42,1.7,2.43Z"/>
          <path class="cls-13" d="M51.22,217.81c.26-.72,.57-1.46,.87-2.17,.43-1.01,.88-2.06,1.21-3.18,.35-1.2,.51-2.4,.65-3.56,.09-.74,.19-1.5,.34-2.22,.2-.99,.47-1.74,.85-2.34,.3-.48,.68-.94,1.09-1.42,.21-.25,.45-.53,.67-.81,.92-1.18,1.59-2.53,2.24-3.84,.92-1.85,1.79-3.6,3.24-4.68l.32-.24h0s3.61,3.43,3.61,3.43l2.93,1.82c-.3,.18-.58,.41-.83,.63-3.67,3.39-5.4,8.35-7,13.09-.73,2.18-1.47,4.38-1.83,6.65-.58,3.66-.16,7.4,.26,11.08,.32,2.8,.65,5.64,1.72,8.24,.55,1.33,1.28,2.58,2.04,3.81,2.72,4.4,5.77,8.59,9.11,12.53,2.14,2.52,4.45,4.98,7.08,6.95-.53-.04-1.02-.07-1.49-.17-.72-.15-1.36-.52-2.38-1.36-.12-.1-.25-.21-.38-.32-.68-.58-1.46-1.23-2.35-1.72-.84-.46-1.68-.76-2.55-1.05-.18-.06-.35-.12-.53-.18h-.02c-.74-.25-1.43-.48-2.06-.8-.75-.38-3.95-2.78-3.95-2.78-1.64-1.56-3.11-3.19-4.39-4.86-.1-.13-.2-.26-.31-.41l-.32-.58c-.33-.6-.67-1.23-.99-1.83v-.02c-.81-1.5-1.64-3.06-2.6-4.55-1.23-1.92-2.36-3.81-2.78-5.88-.26-1.31-.28-2.73-.29-4.1,0-.66-.01-1.34-.05-2.01-.11-2.23-.7-4.14-1.32-6.16l-.03-.08c-.5-1.62-.44-3.14,.2-4.93Z"/>
          <path class="cls-26" d="M85.99,130.61c-2.5,1.03-4.73,2.63-6.86,4.31-1.15,.9-2.27,1.83-3.49,2.63-1.09,.71-2.25,1.32-3.37,2-3.27,2-6.23,4.82-7.43,8.46-.46,1.4-.65,2.88-.99,4.32-.65,2.79-1.87,5.42-2.55,8.2-1.91,7.76,.45,15.85,2.78,23.49,1.5,4.91,3.09,9.97,5.72,14.31-.02,0-.05,.02-.07,.03l-4.03-3.63-2.2-3.18-.39-.56c-.06-.09-.13-.18-.19-.26l-.41-.57c-.32-.47-.64-.95-.94-1.41-.91-1.38-1.86-2.8-2.94-4.13-.39-.49-.71-1.08-1.04-1.71-.1-.19-.19-.37-.29-.54-.48-.87-.97-1.77-1.32-2.69-.69-1.79-.63-3.7-.52-5.34,.15-2.17,.07-4.23-.25-6.31-.33-2.23-.58-4.1-.46-6.05,.13-2.02,.66-3.98,1.22-5.8,.54-1.77,1.13-3.65,1.82-5.46,.78-2.07,1.68-3.74,2.73-5.1,1.01-1.29,2.21-2.5,3.38-3.67,.22-.22,.44-.44,.66-.66,.23-.23,.45-.46,.68-.69,2.35-2.39,4.79-4.87,7.79-6.38,1.54-.78,3.27-1.32,4.94-1.84l.31-.1c1.93-.6,3.74-1.33,5.4-2.02,1.91-.79,3.63-1.16,5.25-1.12,1.01,.02,2.06,.16,3.07,.3-.09,.03-.17,.06-.26,.09-1.96-.1-3.95,.33-5.78,1.08Z"/>
          <path class="cls-21" d="M130.6,156.87c-.14-.33-.28-.66-.42-1-.51-1.24-.87-2.56-1.23-3.83-.34-1.22-.68-2.48-1.16-3.68-1.06-2.67-2.87-4.48-4.67-6.04-.87-.75-1.89-1.67-2.79-2.78-.28-.34-.56-.7-.83-1.05-.53-.68-1.08-1.38-1.68-2.02-1.85-1.97-4.27-3.51-6.83-4.34-.22-.07-.44,.02-.54,.23-.1,.21-.03,.47,.16,.6,.29,.19,.59,.38,.88,.58,2.26,1.48,4.39,2.87,6.06,4.93,.28,.34,.55,.69,.82,1.04,.59,.76,1.19,1.54,1.88,2.25,.61,.63,1.27,1.21,1.92,1.77,.38,.33,.75,.65,1.12,.99,1.73,1.6,2.86,3.56,3.69,6.36l.21,.73c.63,2.15,1.22,4.19,2.13,6.23l.03,.06c.54,1.21,1.09,2.45,1.31,3.76,.24,1.47,.04,2.97-.18,4.25-.08,.43-.16,.85-.24,1.28-.16,.85-.33,1.73-.45,2.61-.18,1.41-.15,2.84-.13,4.1v.12c.03,1.27,.05,2.59-.17,3.85-.24,1.36-.84,2.52-1.46,3.56-.67,1.13-1.25,2.16-1.59,3.33l-.12,.41c-.36,1.23-.66,2.28-1.49,3.26-1.31,1.53-2.76,3.01-4.16,4.44-.43,.43-.85,.87-1.27,1.3-1.43,1.48-3.41,3.3-6.05,4.25-.18,.06-.28,.26-.24,.45,.04,.17,.18,.28,.36,.28,.01,0,.03,0,.04,0,2.84-.3,5.16-2.19,7.06-4,.9-.86,1.77-1.77,2.62-2.65,.29-.3,.58-.6,.87-.9,.2-.21,.41-.41,.61-.62,.85-.85,1.73-1.73,2.32-2.8,.4-.72,.6-1.49,.8-2.24,.16-.58,.3-1.14,.53-1.67,.28-.65,.66-1.28,1.02-1.89,.31-.52,.63-1.06,.9-1.62,1.1-2.28,1.06-4.75,1.03-7.14,0-.37,0-.73-.01-1.1,0-1.63,.29-3.25,.56-4.81,.21-1.2,.44-2.44,.53-3.69,.2-2.67-.73-4.85-1.72-7.17Z"/>
          <path class="cls-21" d="M107.37,130.4l-.13-.07c-1.94-1.11-3.96-2.25-6.25-2.63-1.36-.23-2.75-.26-4.09-.29-.99-.03-2.02-.05-3.02-.16-.6-.06-1.2-.15-1.8-.23-1.72-.24-3.49-.49-5.3-.21-1.67,.25-3.19,.87-4.67,1.47-.57,.23-1.14,.46-1.72,.67-1.01,.37-2.05,.7-3.05,1.02-2.6,.83-5.28,1.69-7.7,3.27-1.74,1.13-3.19,2.56-4.41,3.8l-.52,.53c-1.33,1.35-2.65,2.69-3.96,4.06-1.15,1.19-2.61,2.81-3.69,4.72-1,1.77-1.7,3.7-2.31,5.51l-.26,.75c-1.29,3.81-2.63,7.75-2.41,11.78,.06,1.09,.22,2.17,.38,3.22,.15,.96,.3,1.95,.36,2.93,.07,1.1,0,2.23-.09,3.32-.08,1.05-.15,2.13-.1,3.21,.12,2.3,1.05,4.33,1.85,5.84l.27,.52c.39,.74,.79,1.51,1.25,2.21,.23,.35,.49,.67,.75,.98,.18,.22,.37,.45,.54,.68,.37,.51,.74,1.03,1.11,1.55,1.34,1.88,2.72,3.82,4.38,5.53,1.37,1.4,2.72,2.53,4.03,3.36,.45,.29,.91,.56,1.37,.82,1.03,.6,2.01,1.18,2.91,1.95,.11,.09,.24,.14,.37,.14,.16,0,.31-.07,.43-.2,.21-.23,.19-.55-.03-.76-1-.95-2.14-1.61-3.24-2.25-.36-.21-.73-.42-1.1-.65-1.48-.91-2.82-2.14-4.1-3.75-.95-1.2-1.81-2.49-2.65-3.75-.91-1.36-1.85-2.77-2.9-4.06-.45-.56-.81-1.23-1.15-1.88-.09-.18-.19-.35-.28-.53-.42-.77-.85-1.57-1.21-2.39-.84-1.95-.9-3.87-.75-6.16,.14-2.09,.07-4.09-.24-6.1-.28-1.86-.6-3.97-.48-6.11,.12-2.08,.67-4.12,1.24-6.02,.55-1.81,1.16-3.75,1.88-5.66,.79-2.08,1.68-3.77,2.73-5.16,1.04-1.37,2.28-2.62,3.48-3.83l.55-.55c.29-.3,.59-.6,.88-.9,2.38-2.43,4.84-4.94,7.93-6.52,1.81-.93,3.79-1.56,5.7-2.16,1.57-.5,3.19-1.02,4.73-1.69,2.11-.93,4.07-1.37,5.89-1.38,1.11,.01,2.22,.17,3.31,.32,.87,.12,1.77,.25,2.66,.3,.76,.04,1.54,.05,2.3,.05,1.38,0,2.81,.01,4.16,.27,1.78,.34,3.5,1.08,5.16,1.8l.56,.24c.22,.09,.47,0,.58-.21,.1-.21,.03-.45-.18-.56Z"/>
          <path class="cls-21" d="M134.95,216.42c-.07-.61-.14-1.22-.2-1.83-.05-.44-.09-.89-.13-1.34-.24-2.49-.48-5.07-1.56-7.39-.97-2.09-2.43-3.98-3.84-5.81-.46-.6-.92-1.19-1.36-1.79-.3-.4-.59-.82-.88-1.24-1.29-1.83-2.62-3.71-4.47-5l-.22-.15-.18,.2c-.25,.27-.5,.53-.75,.8l-.35,.34,.34,.24c1.23,.81,2.15,1.98,3.06,3.2,.64,.87,1.28,1.73,1.92,2.6l1.07,1.45c.32,.43,.65,.86,.99,1.3,1.38,1.8,2.82,3.66,3.51,5.77,.69,2.1,.9,4.4,1.1,6.63,.06,.69,.12,1.37,.2,2.04,.06,.5,.11,1.01,.17,1.51,.28,2.37,.56,4.83,.53,7.25-.02,2.16-.4,4.2-.79,6.36-.14,.79-.29,1.59-.42,2.39-.03,.21,.09,.41,.29,.48,.05,.02,.09,.02,.14,.02,.15,0,.28-.08,.36-.21,1.4-2.46,2.1-5.82,2.07-10-.02-2.61-.31-5.25-.6-7.8Z"/>
          <path class="cls-21" d="M127.8,245.05c-1.45,1.37-2.7,2.98-3.91,4.53-.5,.64-1,1.28-1.51,1.9-.74,.9-1.63,1.93-2.68,2.79-1.13,.93-2.44,1.55-3.57,2.03-2.22,.95-4.39,1.91-6.46,3.15-.36,.22-.73,.44-1.09,.66-1.63,.98-3.31,2-5.09,2.73-2.43,1-4.99,1.21-7.47,1.41-.75,.06-1.51,.14-2.26,.21-1.88,.19-3.83,.39-5.7,.33-1.17-.04-2.29-.33-3.72-.99l-.13-.06c-.93-.43-1.9-.87-2.95-1.06-.5-.09-1.02-.12-1.51-.15-.76-.05-1.48-.09-2.17-.32-.95-.32-1.76-.99-2.53-1.65l-.13-.11c-.73-.61-1.56-1.31-2.54-1.78-.75-.36-1.52-.61-2.38-.89l-.44-.14c-.77-.24-1.57-.49-2.29-.86-.9-.46-1.72-1.14-2.45-1.74-.2-.16-.46-.17-.65-.02-.19,.15-.25,.41-.15,.64,1.01,2.19,3.26,3.08,5.49,3.81,.96,.31,1.95,.64,2.82,1.2,.55,.36,1.06,.79,1.55,1.21,.48,.4,.97,.82,1.51,1.18,1.29,.87,2.7,1.03,4.07,1.19,.98,.11,1.99,.23,2.93,.61,.39,.16,.78,.34,1.16,.52,.7,.33,1.42,.66,2.2,.87,.93,.25,1.87,.32,2.72,.32,.4,0,.78-.02,1.12-.04,2.88-.16,5.82-.43,8.57-.69,2.75-.26,5.03-.86,7.18-1.89,1.47-.7,2.89-1.56,4.26-2.38,.72-.43,1.46-.88,2.19-1.3,1.15-.65,2.39-1.19,3.58-1.71,1.1-.48,2.24-.98,3.33-1.57,1.87-1.02,3.49-2.51,5.26-4.85,.42-.56,.82-1.13,1.23-1.7,.36-.51,.72-1.02,1.1-1.52,.15-.2,.3-.39,.45-.59,.65-.86,1.33-1.74,1.83-2.73h0c.11-.21,.05-.46-.14-.6-.19-.14-.44-.12-.61,.04Z"/>
          <path class="cls-21" d="M61.95,191.82c-.15-.19-.3-.38-.45-.56l-.18-.21-.23,.15c-1.34,.9-2.47,2.26-3.56,4.29-.24,.45-.47,.91-.7,1.37-.28,.57-.58,1.16-.89,1.72-.6,1.08-1.36,2.02-2.08,2.89-1.29,1.56-2.05,3.27-2.39,5.39-.07,.45-.13,.9-.2,1.35-.22,1.57-.43,3.05-.96,4.51-.24,.66-.52,1.32-.79,1.96-.51,1.2-1.03,2.43-1.33,3.74-.42,1.81-.27,3.59,.48,5.79,.37,1.08,.71,2.09,.88,3.18,.16,1.07,.19,2.2,.21,3.19v.3c.05,2.09,.1,4.25,.8,6.29,.69,2,1.82,3.74,3.11,5.64,.47,.7,.93,1.43,1.38,2.13,.74,1.17,1.5,2.38,2.36,3.5,.11,.14,.27,.22,.43,.22,.1,0,.2-.03,.3-.09,.23-.15,.29-.44,.16-.68-.36-.64-.7-1.29-1.04-1.93-.79-1.49-1.61-3.02-2.55-4.47-1.29-1.99-2.48-3.97-2.93-6.2-.28-1.4-.3-2.86-.31-4.28,0-.65-.01-1.32-.05-1.98-.1-2.11-.67-3.97-1.28-5.93l-.02-.08c-.56-1.83-.5-3.53,.21-5.53,.27-.75,.59-1.5,.9-2.23,.42-.99,.86-2.01,1.17-3.07,.33-1.13,.48-2.29,.62-3.42,.1-.75,.19-1.53,.35-2.29,.22-1.1,.53-1.95,.97-2.66,.33-.54,.76-1.04,1.17-1.53,.22-.26,.44-.52,.65-.79,.86-1.1,1.51-2.41,2.14-3.68,.99-2,2.02-4.08,3.89-5.27l.38-.25-.37-.27c-.09-.06-.17-.14-.23-.23Z"/>
        </g>
        <g>
          <g>
            <path class="cls-6" d="M70.13,129.72c.08-.33,.18-.69,.3-1.09,.05-.16,.1-.31,.15-.47l.02-.05c.15-.44,.3-.84,.45-1.2l.04-.07c.95-1.15,3.04-1.29,4.28-1.37,2.43-.16,4.9,.01,7.76,.54,2.13,.4,4.11,.73,6.03,1.02,2.08,.31,4.02,.56,5.91,.75,2.04,.09,4.26,.12,6.76,.1,2.36-.02,4.7-.08,7.1-.14,3.24-.09,7.46,.23,9.8,2.11,.47,.94,.64,1.98,.78,3.02,.01,.36,.02,.72,.01,1.08v.06s-.03,.05-.03,.05c-.55,1.14-1.66,2.23-3.42,3.33-1.69,1.06-3.61,1.8-6.24,2.39-4.63,1.05-9.77,1.39-15.29,1h-.1c-3.98-.3-9.88-.92-15.2-2.99-2.37-.92-8.01-3.54-9.12-7.94l-.02-.06v-.06Z"/>
            <path class="cls-27" d="M110.54,136.41c1.65-.57,3.85-1.68,5.31-2.97,1.07-.95,2-2.22,1.53-3.54-2.38-1.74-7.49-2.07-10.64-1.99-1.12,.03-2.15-.01-3.18-.06,1.78-.03,3.56-.07,5.37-.12,3.15-.08,7.21,.22,9.59,1.95,.47,1.32,.26,2.94-.8,3.89-1.46,1.29-3.66,2.4-5.31,2.97-7.85,2.73-16.2,2.68-24.23,1.26-.37-.07-.74-.13-1.11-.21,8.02,1.41,15.63,1.54,23.47-1.19Z"/>
            <path class="cls-30" d="M70.13,129.72c.08-.33,.18-.69,.3-1.09,.05-.16,.1-.31,.15-.47l.02-.05c.15-.44,.3-.84,.45-1.2l.04-.07c.1-.12,.22-.23,.34-.33-.23,.74-.25,1.58,.01,2.17,.97,2.18,3.55,4.27,5.74,5.52,3.42,1.96,7.21,2.94,11,3.61,8.02,1.41,16.37,1.47,24.23-1.26,1.65-.57,3.85-1.68,5.31-2.97,1.07-.95,1.28-2.57,.8-3.89,.27,.19,.52,.4,.74,.63l.06,.06v.09c.16,1.17,.22,2.34,.21,3.48v.06s-.03,.05-.03,.05c-.55,1.14-1.66,2.23-3.42,3.33-1.69,1.06-3.61,1.8-6.24,2.39-4.63,1.05-9.77,1.39-15.29,1-.03,0-.07,0-.1,0-3.98-.29-9.88-.91-15.2-2.98-2.37-.92-8.01-3.54-9.12-7.94l-.02-.06v-.06Z"/>
            <path class="cls-4" d="M70.04,127.62c.39-.94,1.13-1.9,1.22-1.97,2.34-1.51,6.9-1.11,8.93-.88,3.44,.39,6.81,1.25,10.24,1.72,1.69,.24,3.39,.43,5.1,.58,1.79,.1,3.57,.15,5.36,.15,3.7,0,7.43-.46,11.12-.21,2.26,.15,4.97,.71,6.87,2.07,.06,.04,.63,.95,.98,2.07,.33,1.05,.43,2.32,.43,2.6,0,.15,0,.3,0,.45-.26,.61-.65,1.19-1.12,1.71-1.26,1.41-3.1,2.46-4.61,3.17-3.74,1.74-8.18,2.28-12.25,2.52-4.63,.28-9.28-.04-13.86-.75-4.32-.67-8.72-1.64-12.57-3.79-2.25-1.26-4.61-3.1-5.84-5.46-.31-.59-.55-1.22-.69-1.87,.06-.27,.35-1.28,.69-2.1Zm9.3,9.92c4.77,1.86,10.04,2.59,15.13,2.96,5.12,.37,10.3,.16,15.32-.99,2.18-.5,4.25-1.17,6.16-2.36,1.17-.73,2.52-1.74,3.22-3.02,.03-.06-.37-3.91-.52-4.03-2.43-2.02-7.06-2.17-9.71-2.1-2.38,.06-4.74,.12-7.1,.14-2.26,.02-4.51,0-6.77-.1-1.99-.2-3.97-.45-5.94-.75-2.01-.3-4.02-.64-6.04-1.02-2.56-.47-5.09-.71-7.69-.54-1.31,.09-3.23,.23-4.1,1.28-.16,.39-.31,.79-.44,1.19-.06,.17-.11,.34-.17,.51-.11,.36-.21,.72-.3,1.08,.97,3.85,5.6,6.45,8.96,7.76Z"/>
            <path class="cls-4" d="M73.28,125.38c-3.31,1.73-.38,5.21,1.05,6.72,.09,.09-.04,.23-.15,.16-1.12-.73-2.91-2.31-3.18-4.13-.11-.74,.02-1.48,.35-2.1,.59-.37,1.26-.62,1.93-.65Z"/>
            <path class="cls-4" d="M113.48,136.04c1.05-.81,2.24-1.4,3.27-2.26,.77-.64,1.48-1.52,1.58-2.56,.11-1.14-.57-1.71-1.23-2.46-.03-.04-.05-.08-.06-.13,.78,.19,1.48,.54,1.96,1.25,.24,.92,.11,2.03-.27,2.76-.91,1.76-3.31,3.12-5.18,3.54-.07,.02-.13-.09-.07-.14Z"/>
            <path class="cls-4" d="M103.31,138.64c-2.55,.65-4.96,.66-7.57,.53-2.32-.11-5.78-.29-7.87-1.39-.04-.02-.02-.1,.02-.09,1.42,.26,2.53,.36,3.67,.5,1.32,.16,7.93,.63,11.75,.3,.09,0,.09,.13,0,.15h0Z"/>
          </g>
          <g>
            <path class="cls-14" d="M78.38,96.46l.13-.09c.92-.64,2.08-.97,3.12-1.25l.1-.03c1.53-.43,3.05-.59,4.48-.72,3.98-.37,8.07-.38,12.16-.04,3.54,.3,7.03,.88,10.39,1.73,2.49,.63,5.36,1.51,7.73,3.16l.15,.1-.04,.18c-2.72,10.78-4.63,21.85-5.67,32.91v.12s-.11,.07-.11,.07c-1.33,.97-2.94,1.47-4.49,1.96-.45,.14-.91,.28-1.37,.44h-.05c-.18,.04-.36,.06-.53,.08-2.93,.35-6.06,.42-9.56,.2-.23-.01-.47-.03-.7-.05-3.19-.23-6.08-.65-8.81-1.3h-.03c-.21-.06-.43-.11-.64-.16h-.04c-.36-.17-.73-.32-1.09-.47-1.73-.71-3.36-1.38-4.73-2.72l-.09-.09v-.13c1.19-11.18,1.09-22.54-.29-33.75l-.02-.16Z"/>
            <path class="cls-54" d="M105.84,95.4c.98,.2,1.96,.42,2.92,.66,2.49,.63,5.36,1.51,7.73,3.16l.15,.1-.04,.18c-2.72,10.78-4.63,21.85-5.67,32.91v.12s-.11,.07-.11,.07c-1.33,.97-2.24,1.47-3.8,1.95-.45,.14-1.61,.29-2.06,.44h-.05c-.18,.04-.36,.06-.53,.08-1.45,.18-2.95,.28-4.52,.31,1.27-21.68,4.82-35.83,5.98-39.99Z"/>
            <path class="cls-30" d="M87.46,133.27c-.65-.11-1.28-.23-1.91-.37,0,0-1.26-.43-1.6-.57-1.51-.62-2.9-1.15-4.02-2.1,1.05-10.38,1.14-21.15,.02-31.56,2.71,1.21,5.53,1.75,8.47,2.17,.76,10.01-.01,22.62-.97,32.43Z"/>
            <path class="cls-27" d="M109.46,133.27c1.04-11.06,2.94-22.13,5.67-32.91l.04-.18-.15-.1c-2.37-1.65-5.24-2.52-7.73-3.16-3.36-.85-6.93-1.22-10.47-1.39-12.93-.62-16.57,1.39-17.16,1.62l-1.28-.69,.13-.09c.92-.64,2.08-.97,3.12-1.25l.1-.03c1.53-.43,3.05-.59,4.48-.72,3.98-.37,8.07-.38,12.16-.04,3.54,.3,7.03,.88,10.39,1.73,2.49,.63,5.36,1.51,7.73,3.16l.15,.1-.04,.18c-2.72,10.78-4.63,21.85-5.67,32.91v.12s-.11,.07-.11,.07c-.45,.33-.93,.6-1.44,.84l.07-.05v-.12Z"/>
            <path class="cls-30" d="M81.55,96.23l.1-.03c1.53-.43,3.05-.59,4.48-.72,3.98-.37,8.07-.38,12.16-.04,3.54,.3,7.03,.88,10.39,1.73,2.18,.55,4.64,1.29,6.8,2.56-3.1,1.07-6.78,1.21-9.92,1.15-3.88-.08-8.01-.1-12.02-.69-5.05-.73-9.84-.98-14.14-3.25,.7-.31,1.45-.52,2.14-.71Z"/>
            <path class="cls-4" d="M78.44,95.84c2.44,1.41,5.07,2.44,9.25,3.49,.08,.02,.05,.14-.03,.14-3.4-.14-6.8-1.32-9.82-3.02,.2-.18,.31-.4,.6-.61Z"/>
            <path class="cls-4" d="M106.63,100.83c2.47-.05,4.42-.27,6.61-.74,1-.22,2.01-.46,2.95-.87,.13-.06,.25-.12,.38-.19,.15,.09,.29,.2,.4,.34-.08,.2-.16,.39-.26,.58-1.06,.44-1.96,.77-2.83,.95-2.24,.46-4.82,.46-7.25,.06-.07-.01-.06-.13,0-.13Z"/>
            <path class="cls-17" d="M79.93,130.23c1.12,.95,2.51,1.48,4.02,2.1,.34,.14,1.6,.57,1.6,.57,.62,.15,1.26,.27,1.91,.37,.19-1.97,.38-4.05,.54-6.2,2.19,.48,4.66,.84,7.34,.97,1.77,.09,3.46,.09,5.04,.02-.2,2.34-.39,4.77-.54,7.32,1.18-.03,2.31-.09,3.42-.2-2.61,.25-5.39,.28-8.46,.09-.23-.01-.47-.03-.7-.05-3.19-.23-6.08-.65-8.81-1.3h-.03c-.21-.06-.43-.11-.64-.16h-.04c-.36-.17-.73-.32-1.09-.47-1.73-.71-3.36-1.38-4.73-2.72l-.09-.09v-.13c.24-2.18,.42-4.37,.55-6.56,.35,.21,.75,.43,1.18,.65-.13,1.93-.29,3.86-.48,5.77Z"/>
            <path class="cls-32" d="M103.28,135.19c.37-.04,.74-.07,1.1-.12-.36,.04-.73,.08-1.1,.12Z"/>
            <path class="cls-42" d="M109.96,133.14c.08-.05,.17-.09,.25-.14,.06-.04,.12-.07,.18-.11,.15-.09,.3-.19,.44-.3-1.33,.97-2.24,1.47-3.8,1.95-.45,.14-1.61,.29-2.06,.44,.45-.15,.92-.3,1.37-.44,1.23-.38,2.5-.78,3.63-1.41Z"/>
            <path class="cls-53" d="M100.39,128.06c4.1-.17,7.48-.78,9.81-1.54-.28,2.25-.53,4.49-.74,6.74v.12s-.08,.05-.08,.05c.19-.09,.38-.19,.57-.3-1.13,.63-2.4,1.03-3.63,1.41-.45,.14-.91,.28-1.37,.44h-.05c-.18,.04-.36,.06-.53,.08-.36,.04-.73,.08-1.1,.12-1.11,.1-2.25,.17-3.42,.2,.15-2.55,.33-4.99,.54-7.32Z"/>
            <path class="cls-39" d="M100.39,128.06c4.1-.17,7.48-.78,9.81-1.54-.28,2.25-.53,4.49-.74,6.74v.12s-.08,.05-.08,.05c.19-.09,.38-.19,.57-.3-1.13,.63-2.4,1.03-3.63,1.41-.45,.14-.91,.28-1.37,.44h-.05c-.18,.04-.36,.06-.53,.08-.36,.04-.73,.08-1.1,.12-1.11,.1-2.25,.17-3.42,.2,.15-2.55,.33-4.99,.54-7.32Z"/>
            <path class="cls-33" d="M110.21,133c.06-.04,.12-.07,.18-.11-.06,.04-.12,.07-.18,.11Z"/>
            <path class="cls-61" d="M110.21,133c.06-.04,.12-.07,.18-.11-.06,.04-.12,.07-.18,.11Z"/>
            <path class="cls-46" d="M85.56,132.9s-1.26-.43-1.6-.57c-1.51-.62-2.9-1.15-4.02-2.1,.19-1.91,.35-3.84,.48-5.77,1.86,.95,4.44,1.91,7.59,2.61-.17,2.15-.35,4.23-.54,6.2-.65-.11-1.28-.23-1.91-.37Z"/>
            <path class="cls-27" d="M109.96,133.14c.08-.05,.17-.09,.25-.14-.08,.05-.16,.1-.25,.14Z"/>
            <path class="cls-27" d="M110.82,132.59c-.14,.1-.29,.2-.44,.3,.15-.09,.3-.19,.44-.3Z"/>
            <path class="cls-55" d="M110.21,133c-.08,.05-.17,.1-.25,.14-.19,.1-.38,.2-.57,.3l.07-.05v-.12c.22-2.25,.47-4.5,.75-6.74,.53-.17,1.01-.35,1.42-.54-.27,2.14-.5,4.28-.7,6.42v.12s-.11,.07-.11,.07c-.14,.1-.29,.2-.44,.3-.06,.04-.12,.07-.18,.11Z"/>
            <g>
              <path class="cls-57" d="M111.79,131.34c-.04,.41-.1,1.07-.14,1.48-.34,.3-.63,.48-1.03,.7-2,1.14-4.1,1.56-6.2,1.59-.04,0-.05-.07-.01-.07,2.03-.49,4.68-1.24,6.26-2.65,.2-2.09,.42-4.19,.68-6.27,.42-.17,.79-.35,1.1-.53-.24,1.92-.46,3.84-.65,5.76Z"/>
              <path class="cls-57" d="M78.96,130.4c1.75,1.7,4.01,2.45,6.24,3.46,.04,.02,.02,.11-.03,.11-2.18-.26-4.51-1.13-6.32-2.47-.33-.25-.65-.51-.94-.8,.04-.36,.07-.72,.11-1.08,.21-2.09,.37-4.19,.5-6.28,.29,.21,.62,.42,.99,.64-.13,2.15-.31,4.29-.54,6.44Z"/>
              <path class="cls-4" d="M77.34,95.92c.29-.26,.38-.31,.74-.49,1.89-.94,4.16-1.36,5.91-1.59,4.46-.57,9-.67,13.49-.35,3.9,.28,7.78,.73,11.56,1.7,2.64,.67,4.44,1.13,7.56,3,.31,.19,.8,.52,1.09,.74-.09,.36-.18,.72-.27,1.08-2.1,8.39-3.9,16.99-4.98,25.57-.31,.18-.68,.36-1.1,.53,1.11-8.99,2.78-17.9,4.99-26.68-2.26-1.57-5-2.44-7.65-3.12-3.4-.86-6.86-1.43-10.35-1.73-4.03-.34-8.09-.33-12.12,.04-1.51,.14-2.97,.31-4.43,.72-1.07,.3-2.23,.61-3.14,1.24,1.11,9.08,1.39,18.25,.83,27.37-.37-.22-.7-.43-.99-.64,.5-8.61,.01-17.53-1-26.1-.05-.43-.11-.87-.16-1.3Z"/>
            </g>
            <path class="cls-27" d="M113.25,104.94c-.66,2.68-1.29,5.4-1.76,8.12-.29,1.65-1.18,6.62-1.83,10.44-.02,.13-.25,.13-.27-.02-.22-1.77,.21-3.76,.42-5.52,.2-1.7,.54-3.38,.9-5.06,.59-2.76,1.22-5.58,2.28-8.06,.04-.09,.16-.23,.26-.11,.05,.05,0,.2,0,.2Z"/>
          </g>
        </g>
        <g>
          <path class="cls-15" d="M98.25,243.33s-1.7-.86-3.1,.15c-1.4,1.01-2.02,3.36-.58,4.95,1.44,1.59,3.11,1.25,4.36,.41,1.25-.84,2.25-3.75-.68-5.51Z"/>
          <path class="cls-38" d="M98.08,248.84c1.1-.73,1.98-3.3-.6-4.85,0,0-1.49-.76-2.72,.13-.26,.19-.48,.42-.67,.7,.25-.54,.62-1.02,1.07-1.34,1.4-1.01,3.1-.15,3.1-.15,2.94,1.76,1.93,4.68,.68,5.51-.8,.53-1.77,.87-2.74,.62,.67,.02,1.33-.25,1.89-.62Z"/>
          <path class="cls-37" d="M97.59,242.97c1.73,.05,3.03,1.83,3.02,3.48,0,1.81-1.55,3.3-3.3,3.52-1.84,.23-3.49-1.14-3.91-2.9-.38-1.64,.63-3.78,2.4-4.05,.11-.02,.18,.12,.08,.19-1.02,.7-1.83,2.09-1.68,3.35,.19,1.49,1.51,2.71,3.04,2.53,1.37-.16,2.59-1.37,2.57-2.8-.02-1.47-1.09-2.43-2.3-3.04-.13-.06-.07-.27,.07-.27h0Z"/>
        </g>
        <g>
          <path class="cls-48" d="M99.36,231.3s-1.7-.86-3.1,.15-2.02,3.36-.58,4.95c1.44,1.59,3.11,1.25,4.36,.41,1.25-.84,2.25-3.75-.68-5.51Z"/>
          <path class="cls-38" d="M99.19,236.81c1.1-.73,1.98-3.3-.6-4.85,0,0-1.49-.76-2.72,.13-.26,.19-.48,.42-.67,.7,.25-.54,.62-1.02,1.07-1.34,1.4-1.01,3.1-.15,3.1-.15,2.94,1.76,1.93,4.68,.68,5.51-.8,.53-1.77,.87-2.74,.62,.67,.02,1.33-.25,1.89-.62Z"/>
          <path class="cls-37" d="M98.7,230.94c1.73,.05,3.03,1.83,3.02,3.48,0,1.81-1.55,3.3-3.3,3.52-1.84,.23-3.49-1.14-3.91-2.9-.38-1.64,.63-3.78,2.4-4.05,.11-.02,.18,.12,.08,.19-1.02,.71-1.83,2.09-1.68,3.35,.19,1.49,1.51,2.71,3.04,2.53,1.37-.16,2.59-1.37,2.57-2.8-.02-1.47-1.09-2.43-2.3-3.04-.13-.06-.07-.27,.07-.27h0Z"/>
        </g>
        <g>
          <path class="cls-49" d="M104.77,163.94c.43-.95,1.81-1.28,1.81-1.28,4.74-1.65,9.94-1.49,14.88-.65,1.74,.3,3.49,.68,5.09,1.43,.55,.26,1.1,.58,1.4,1.1,.53,.91,.2,2.18-1.07,2.74l-1.3,.88c-5.8,2.66-12.52,3.46-18.71,1.9-1.23-.31-2.04-1.39-2.04-1.39-.51-.66-.72-1.51-.69-2.34s.29-1.63,.63-2.39Z"/>
          <path class="cls-28" d="M127.16,165.49c-.23,1.41-4.77,2.87-5.37,3.06-3.53,1.1-7.24,1.53-10.92,1.19-1.54-.14-3.71-.22-4.91-1.32-1.01-.93-.94-2.29-.52-3.49,.45,.34,1.24,.85,2.25,1.05,6.37,1.23,13.17,.99,19.47-.49Z"/>
          <path class="cls-20" d="M127.55,165.61c-.3-.52-.85-.84-1.4-1.1-1.6-.75-3.35-1.13-5.09-1.43-4.95-.84-10.14-.99-14.88,.65,0,0-1.38,.33-1.81,1.28,0,0,0,0,0,.01,.11-.37,.25-.72,.41-1.07,.43-.95,1.81-1.28,1.81-1.28,4.74-1.65,9.94-1.49,14.88-.65,1.74,.3,3.49,.68,5.09,1.43,.55,.26,1.1,.58,1.4,1.1,.36,.63,.32,1.43-.17,2.05,.02-.34-.06-.69-.24-.99Z"/>
          <path class="cls-35" d="M104.82,163.97c-.27,.86-.43,1.69-.4,2.5,.03,.71,.25,1.45,.48,2.19,.04,.12,0,.15-.08,.08-.6-.59-.9-1.56-.92-2.29-.04-1,.31-1.72,.81-2.56,.06-.11,.14-.05,.11,.08h0Z"/>
          <path class="cls-62" d="M109.93,166.2c-.24,1.52,.24,3.12,1.2,4.3,.26,.33-.2,.79-.46,.46-1.12-1.44-1.41-3.08-.92-4.82,.04-.13,.21-.07,.19,.05h0Z"/>
          <path class="cls-62" d="M108.64,168.55c.14,.32,.28,.66,.45,.96,.21,.37,.5,.56,.82,.82,.29,.23-.1,.74-.4,.52-.66-.49-1.15-1.49-.93-2.29,0-.02,.04-.03,.05,0h0Z"/>
          <path class="cls-62" d="M112.6,165.61c-.29-1.75,.3-4.09,2.26-4.54,.46-.11,.65,.57,.2,.71-1.77,.55-2,2.18-2.19,3.79-.02,.14-.24,.2-.26,.04h0Z"/>
          <path class="cls-62" d="M121.03,163.69c-.02,.26-.04,.32-.15,.56-.26,.56-.48,.94-.53,1.59-.04,.49-.05,1.01,.16,1.46,.15,.32,.36,.56,.46,.91,.02,.09-.08,.15-.15,.09-.77-.76-1.05-1.18-.97-2.31,.07-1.03,.46-1.57,1.15-2.3,0,0,.02,0,.02,0h0Z"/>
          <path class="cls-62" d="M119.18,166.53c0,.53,.14,1.17,.44,1.61,.36,.52,.93,.77,1.46,1.08,.05,.03,.03,.11-.03,.11-.74-.03-1.43-.31-1.84-.95-.38-.6-.44-1.25-.09-1.86,.01-.02,.05-.01,.05,.01h0Z"/>
          <g>
            <path class="cls-35" d="M125.52,167.96c-3,.94-6.1,1.9-9.41,2.19-1.65,.14-3.36,.29-5.05,.16l-.49-.04c-1.2-.09-2.23-.17-3.69-.45-.11-.02-.21,.05-.25,.17-.04,.12,0,.24,.12,.29,1.86,.86,4.04,1.11,6.07,1.11,1.29,0,2.52-.1,3.56-.21,3.69-.4,6.82-1.35,9.29-2.83h0c.09-.05,.12-.17,.08-.27-.04-.1-.14-.14-.24-.11Zm.11,.29h0s0,0,0,0Z"/>
            <path class="cls-35" d="M128.09,163.93c-1.28-1.51-3.93-1.98-5.86-2.32l-.37-.07c-3.31-.59-9.7-1.26-15.41,.86-.13,.05-.19,.17-.16,.3,.04,.14,.19,.27,.36,.24,3.51-.66,7.32-1.22,11.33-.85,2.28,.21,4.23,.52,5.95,.97,1,.26,1.97,.53,2.79,1.01,.52,.31,.82,.69,.89,1.14,.12,.79-.48,1.57-.84,1.97-.08,.09-.09,.21-.02,.3,.05,.07,.12,.1,.2,.1,.04,0,.07,0,.11-.02,.8-.37,1.37-1.03,1.54-1.78,.15-.65-.03-1.29-.5-1.85Z"/>
          </g>
        </g>
      </g>
      <g>
        <path class="cls-25" d="M131.94,130.93c-5.35,1.79-10.78,2.45-15.75,5.36-2.44,1.43-8.62,4.94-7.64,8.47,.79,2.82,4.26,4.3,6.52,5.78,2.7,1.77,5.45,3.45,8.35,4.89,2.4,1.19,6.46,1.68,7.28,4.53,.23,.8-.24,1.48-.85,1.92-1.61,1.16-3.14,.28-4.76-.42-1.81-.77-3.56-1.65-5.28-2.62-3.57-2.03-6.97-4.36-10.34-6.71-2.65-1.85-5.24-4.37-5.37-7.83-.18-5.04,5.22-8.65,9.17-10.72,5.44-2.84,12.58-4.71,18.67-3.25,.32,.08,.26,.5-.01,.59h0Z"/>
        <path class="cls-25" d="M125.84,157.85c.87-.43,1.77-.58,2.63-.52,2.29-.66,4.67,1.86,5.65,3.71,1.6,3.01,1.74,6.93,.09,9.96-3.86,7.07-14.28,4.13-13.63-3.98,.26-3.26,2.16-7.64,5.25-9.16Z"/>
        <path class="cls-25" d="M134.04,169.94c.06,0,.12,0,.17,0,.32,0,.67,.2,.82,.5,1.49,3.06,2.48,9.7-1.06,11.74-1.36,.78-2.71-.36-2.83-1.72-.11-1.26,.6-2.1,1.07-3.21,.47-1.12,.82-2.3,.94-3.51,.07-.72-.39-3.76,.9-3.79h0Z"/>
        <path class="cls-25" d="M132.39,171.95c-.12,4.22-3.78,10.17-7.89,11.46-2.14,.68-3.06-2.07-1.88-3.46,1.32-1.56,3.37-2.48,4.9-3.88,1.5-1.37,2.58-3.06,3.98-4.51,.32-.33,.9-.05,.89,.39h0Z"/>
        <path class="cls-25" d="M127.72,173.46c-.83,3.48-5.08,4.94-8.2,5.1-1.45,.07-2.51-1.42-2.32-2.75,.22-1.5,1.6-2.24,3.01-1.96,2.44,.48,4.6-.48,6.92-.99,.37-.08,.67,.25,.58,.61h0Z"/>
      </g>
      <g>
        <path class="cls-25" d="M269.64,151.7c2.38,8.71,3.09,18.48,10.42,24.78,3.42,2.94,8.59,4.89,12.07,1.01,3.29-3.67,2.87-9.09,2.64-13.66-.15-3.02,4.53-3,4.69,0,.31,5.83,.29,12.04-3.73,16.71-3.82,4.44-9.71,4.67-14.67,2.02-10.62-5.67-13.49-19.64-13.06-30.64,.04-.93,1.39-1.16,1.65-.22h0Z"/>
        <path class="cls-25" d="M296.18,141.77s.08,.02,.12,.03c.1,.01,.2,.03,.3,.08,1.46,.45,2.55,1.47,3.35,2.8,2.43,2.73,3.84,6.26,4.16,10.01,.4,4.79-2.38,11.06-8.21,9.76-5.35-1.19-7.4-7.59-7.45-12.43-.05-4.31,1.93-11.53,7.73-10.25Z"/>
        <path class="cls-25" d="M296.69,146.73c-4.48-4.57-3.51-12.64-.57-17.72,1.48-2.56,5.55-.18,3.97,2.32-3.08,4.88-2.78,9.48-2.37,14.97,.04,.53-.68,.78-1.03,.43h0Z"/>
      </g>
      <g>
        <path class="cls-5" d="M221.02,111.76c-.3-2.42-1.63-4.7-3.57-6.09-1.63-1.16-3.48-1.57-5.35-1.17-2.5,.53-4.59,1.9-6.61,3.24-2.81,1.85-5.47,3.6-9.01,3.11h-.06c-.92-.11-1.87-.3-2.88-.5-2.91-.58-5.92-1.18-8.54,.45-3.53,2.18-4.49,6.99-3.38,10.37,1.5,4.58,5.67,7.27,10.48,8.44,2.61,.63,5.41,.81,8.07,.61,6-.47,14.02-2.33,18.18-8.48,2.13-3.14,3.08-6.68,2.67-9.97Z"/>
        <path class="cls-9" d="M213.62,114.66c2.38-1.64,4.56-3.58,6.52-5.77-.63-1.27-1.55-2.4-2.69-3.21-1.63-1.16-3.48-1.57-5.35-1.17-2.5,.53-4.59,1.9-6.61,3.24-.44,.29-.87,.57-1.3,.85,2.81,0,8.01,.74,9.44,6.07Z"/>
        <path class="cls-9" d="M214.14,116.79c-.05,.03-.11,.06-.16,.09,.39,5.37-2.38,9.33-4.59,11.44,3.48-1.28,6.76-3.33,8.96-6.58,2.13-3.14,3.08-6.68,2.67-9.97,0-.07-.03-.13-.04-.2-2.08,2.13-4.36,3.9-6.84,5.23Z"/>
        <path class="cls-47" d="M221.01,109.8c-.04-.16-.09-.31-.14-.46,.03,.1-.03,0-.06-.08-2.31,2.62-4.89,4.88-7.74,6.96-.07,.05,0,.14,.06,.1,3.03-1.39,5.69-3.55,7.97-6-.03-.2-.06-.38-.09-.52Z"/>
        <path class="cls-47" d="M190.03,121.03c-3.14-.67-6.16-1.48-9.04-2.8-.03,.31-.01,.62,.03,.93,2.83,1.28,5.84,2.07,9,2.01,.07,0,.09-.11,.01-.13Z"/>
      </g>
      <g>
        <path class="cls-52" d="M177.95,83.61c-.45-2.25-1.54-4.11-2.87-5.21-1.01-.84-2.17-1.23-3.3-1-2.61,.53-4.08,4.16-3.28,8.12s3.56,6.74,6.17,6.21c.84-.17,1.56-.66,2.12-1.37,1.2-1.52,1.7-4.06,1.16-6.75Z"/>
        <path class="cls-23" d="M171.32,85.19c-.67-3.34,.5-6.4,2.61-6.83,.38-.08,.76-.06,1.14,.03-1.01-.84-2.17-1.23-3.3-1-2.61,.53-4.08,4.16-3.28,8.12s3.56,6.74,6.17,6.21c.84-.17,1.56-.66,2.12-1.37-.13,.05-.27,.09-.41,.12-2.12,.43-4.38-1.94-5.05-5.28Z"/>
        <path class="cls-7" d="M177.95,83.61c-.45-2.25-1.54-4.11-2.87-5.21-.38-.09-.76-.11-1.14-.03-2.12,.43-3.29,3.48-2.61,6.83,.67,3.34,2.94,5.71,5.05,5.28,.14-.03,.28-.07,.41-.12,1.2-1.52,1.7-4.06,1.16-6.75Z"/>
        <path class="cls-40" d="M176.09,81.32c.13,.87-.47,1.67-1.33,1.8-.87,.13-1.67-.47-1.8-1.33-.13-.87,.47-1.67,1.33-1.8,.87-.13,1.67,.47,1.8,1.33Z"/>
        <path class="cls-40" d="M177.09,84.35c.08,.52-.28,1.01-.81,1.09-.52,.08-1.01-.28-1.09-.81-.08-.52,.28-1.01,.81-1.09,.52-.08,1.01,.28,1.09,.81Z"/>
      </g>
      <path class="cls-25" d="M220.53,106.77c4.54,6.06,.87,15.17-4.44,19.44-5.98,4.81-15.55,6.44-22.95,5.02-6.9-1.32-14.32-6.36-13.32-14.3,.41-3.23,2.27-6.34,5.25-7.78,3.68-1.79,7.69-.02,11.48,.3,.04,0,.07,.02,.11,.02,.04,0,.09,0,.14,0,5.15,.72,8.98-4.25,13.46-5.9,3.91-1.44,7.79-.13,10.27,3.18Zm-2.58,14.7c1.89-2.79,3.01-6.26,2.6-9.65-.49-4.01-4.09-7.76-8.36-6.86-5.8,1.22-9.41,7.24-15.82,6.35t0,0c-3.62-.38-7.79-2.17-11.12-.11-3.19,1.98-4.31,6.39-3.18,9.83,2.34,7.15,11.44,9.24,18.07,8.72,6.53-.51,13.97-2.58,17.83-8.28Z"/>
      <path class="cls-25" d="M206.78,133.75c4.35,1.04,9.66-.63,11.29-5.18,.04-.12-.12-.17-.19-.1-3.35,2.8-6.87,4.15-11.1,5.09-.1,.02-.09,.17,0,.19h0Z"/>
      <path class="cls-25" d="M207.5,68.75c1.65-.79,3.31-1.59,5.04-2.14,1.72-.54,3.52-.83,5.31-.86,3.61-.07,7.16,.98,10.33,2.71,1.82,.99,3.43,2.28,5.09,3.54,.28,.21,.58-.14,.41-.43-.5-.9-1.07-1.63-1.79-2.34-.7-.7-1.45-1.34-2.25-1.92-1.59-1.15-3.38-1.96-5.25-2.51-3.74-1.09-7.85-1.11-11.55,.18-2.03,.71-3.9,1.99-5.46,3.55-.09,.09-.02,.28,.12,.22h0Z"/>
      <path class="cls-25" d="M183.15,67.35c-2.32-3.18-5.75-5.18-9.43-5.84-3.59-.65-8.03,.06-11.39,1.83-.91,.48-1.58,.96-2.41,1.59-.41,.31-.89,.81-1.27,1.16-.41,.37-.85,.86-1.19,1.31-.2,.26,0,.52,.31,.34,.75-.44,1.49-1.08,2.24-1.53,.73-.44,1.46-.85,2.24-1.19,1.57-.69,3.2-1.3,4.86-1.64,3.52-.73,7.22-.39,10.51,.92,1.93,.77,3.65,2.11,5.39,3.26,.12,.08,.22-.1,.15-.2h0Z"/>
      <path class="cls-25" d="M220.28,86.53c-3.71-.05-7.68,1.46-9.19,3.77-.06,.09-.11,.19-.16,.28-.03,.05-.06,.1-.09,.15,0,0,0,0,0,0h0c-.05,.11,.13,.29,.29,.22,1.89-.77,4.49-1.52,7.52-1.34,3.37,.2,5.99,1.43,8.31,3.11,.23,.17,.44,.13,.34-.12-.9-2.1-3.5-3.6-6.41-4.3,2.11-.04,4.48,.03,6.98,1.78,.06,.05,.16-.01,.14-.07-.99-2.65-4.81-3.47-7.73-3.51Z"/>
      <g>
        <path class="cls-5" d="M62.43,268.14c.38-1.9-.52-3.9-1.97-5.18s-3.37-1.91-5.28-2.16c-3.43-.44-7.01,.3-9.98,2.08l-.97,.57c.77-2.43-.47-5.33-2.74-6.46-2.28-1.13-5.33-.35-6.79,1.73,1.25-2.28-.63-5.59-3.23-5.66,.82-3.16-1.89-6.31-4.96-7.41-2.67-.96-5.88-.77-8.07,1.03s-2.92,5.38-1.15,7.6c-2.76-1.87-7.08-.7-8.51,2.33s.38,7.12,3.58,8.08c0,0-1.09,.67-1.37,.54-.28-.13-1.68-.14-1.68-.14-2.93-.04-5.95,1.32-7.48,3.82-1.54,2.5-1.25,6.11,.95,8.03,.9,.78,2.03,1.25,3.16,1.63,2.74,.91,6.28,1.12,8.01-1.2,.23,2.77,1.56,5.64,4.05,6.85,2.49,1.21,6.12-.04,6.65-2.77,.01,1.22,.83,2.31,1.86,2.96,1.03,.65,2.24,.92,3.43,1.15,2.65,.5,5.43,.79,8.03,.07,2.6-.72,5.02-2.64,5.66-5.26,0,0,2.27,2.79,6.8,1.42s4.98-4.79,4.98-4.79c.83,1.34,2.69,1.89,4.13,1.25,1.44-.63,2.29-2.34,1.99-3.88-.3-1.54-1.69-2.79-3.25-2.97,1.92,.24,3.77-1.36,4.15-3.25Z"/>
        <path class="cls-8" d="M12.57,264.33c-2.68-1.14-4.42-4.53-3.09-7.32,1.27-2.69,4.94-3.5,7.35-1.94,.74,.48,1.8-.51,1.26-1.26-1.11-1.53-1.11-3.48-.16-5.11,.99-1.69,2.85-2.55,4.75-2.69,3.62-.26,8.82,2.48,7.9,6.79-.13,.61,.27,1.13,.89,1.17,1.99,.12,3.4,2.55,2.6,4.37-.38,.87,.69,1.49,1.26,.74,1.38-1.8,4.09-2.45,6.07-1.27,1.96,1.18,2.47,3.49,2.44,5.63,0,.39,.53,.53,.73,.2,1.5-2.6-.16-6.06-2.69-7.32-2.73-1.36-6.02-.34-7.81,2.03,.42,.25,.84,.49,1.26,.74,1.61-2.99-.57-6.64-3.86-6.95,.3,.39,.59,.78,.89,1.17,1.25-5.67-5.06-9.6-10.06-9.1-2.52,.25-4.95,1.55-6.13,3.87-1.07,2.1-1.12,4.74,.33,6.67,.42-.42,.84-.84,1.26-1.26-3.26-2.01-8.09-.78-9.7,2.81-1.55,3.45,.54,7.86,4.2,8.78,.43,.11,.75-.56,.31-.75h0Z"/>
        <path class="cls-8" d="M45.29,263.03c3.8-1.63,8.44-2.39,12.38-.77,1.83,.75,3.51,2.16,3.89,4.2,.39,2.08-1.07,4.17-3.27,4.03-.99-.06-1.23,1.59-.24,1.75,2,.33,3.39,2.35,2.21,4.23-1.14,1.81-3.23,1.35-4.69,.23-.22-.17-.53,.11-.46,.35,.92,2.92,5.05,2.7,6.58,.45,1.89-2.79,.04-6.45-3.17-6.99-.08,.58-.16,1.17-.24,1.75,2.36,.16,4.5-1.61,5.01-3.91,.53-2.41-.74-4.9-2.62-6.36-4.37-3.4-11.36-2.43-15.56,.71-.19,.14-.03,.4,.18,.31h0Z"/>
        <path class="cls-8" d="M9.31,264.81c-5.71-.69-11.13,4.76-8.7,10.5,1.14,2.68,3.93,3.96,6.64,4.52,2.59,.54,5.56,.38,7.35-1.82-.52-.21-1.03-.43-1.55-.64,.34,3.29,1.98,7,5.44,7.98,2.83,.81,6.32-.65,6.99-3.68-.56-.08-1.12-.15-1.69-.23,.45,4.85,7.13,5.46,10.9,5.43,2.24-.02,4.51-.51,6.39-1.77,1.75-1.18,2.51-2.68,2.68-4.74,.01-.12-.18-.17-.23-.06-.66,1.33-2.07,2.55-3.28,3.38-1.51,1.02-3.28,1.47-5.08,1.54-1.94,.08-3.91-.19-5.8-.62-1.67-.38-3.74-1.14-3.85-3.16-.05-.94-1.43-1.21-1.69-.23-.56,2.17-3.22,3.07-5.19,2.29-2.41-.95-3.54-3.74-3.78-6.14-.07-.69-1-1.32-1.55-.64-1.41,1.73-3.73,1.8-5.77,1.37-2.2-.46-4.62-1.39-5.49-3.65-1.91-4.97,3.01-8.49,7.33-9.09,.33-.05,.2-.51-.07-.54h0Z"/>
        <path class="cls-44" d="M50.44,267.37c-.29,1.2-.9,2.35-1.9,3.07-1.95,1.41-4.71,.78-6.85-.32,.14,1.22-.89,2.37-2.09,2.63-1.2,.26-2.46-.2-3.43-.95,.33,1.28-.23,2.68-1.21,3.55-.98,.87-2.33,1.26-3.64,1.26-1.63,0-3.31-.6-4.39-1.83s-1.43-3.14-.64-4.57c-.8,1.09-2.48,1.39-3.61,.66-1.13-.74-1.53-2.4-.87-3.57-1.62,2.26-4.12,2.78-6.65,2.69-1.7-.06-3.86-.93-5.16-2.04-.17-.15-.34-.31-.49-.48-.45-.01-.91-.01-1.35,.05-2.15,.32-4.38,1.71-4.84,3.96-.49,2.4,.89,3.97,3.06,4.72,1.89,.65,4.45,1.24,5.89-.52,.6-.74,1.78-.82,2.6-.49,.95,.38,1.36,1.22,1.46,2.18,.18,1.78,1.06,4.1,2.88,4.78,1.23,.46,2.86-.11,3.15-1.34,.67-2.76,4.48-1.91,4.67,.63,.08,1.11,1.94,1.47,2.75,1.65,1.69,.38,3.42,.61,5.15,.57,2.63-.06,5.64-1.16,6.42-3.94,.45-1.61,2.79-2.47,3.97-1.05,.13,.15,.27,.28,.42,.41,.02,0,.03,.02,.06,.03,.22,.12,.42,.26,.64,.36,.01,0,.43,.14,.49,.16,.33,.09,.55,.12,.86,.14,.83,.04,1.63-.13,2.41-.41,1.12-.4,2.1-1.17,2.49-1.87,.09-.15,.17-.31,.25-.46,.03-.07,.07-.17,.08-.23,.04-.15,.08-.29,.1-.44,.32-2.23,3.33-2.02,4.34-.57,.47,.67,1.42,.3,1.67-.35,.39-1.03-.61-1.6-1.48-1.75-2.66-.44-2-4.85,.63-4.68,1.01,.07,1.61-.54,1.85-1.5,.2-1.3-.85-2.58-1.86-3.22-1.36-.86-3.01-1.17-4.6-1.21-1.29-.04-2.49,.12-3.65,.43,.64,1.14,.72,2.58,.41,3.87Z"/>
        <ellipse class="cls-44" cx="29.07" cy="271.7" rx="1.91" ry="1.91"/>
        <path class="cls-44" d="M20.41,265.58c0,1.1-.89,1.99-1.99,1.99s-1.99-.89-1.99-1.99,.89-1.99,1.99-1.99,1.99,.89,1.99,1.99Z"/>
        <path class="cls-29" d="M25.05,251.28c0,1.29-1.04,2.33-2.32,2.33s-2.32-1.04-2.32-2.33,1.04-2.33,2.32-2.33,2.32,1.04,2.32,2.33Z"/>
        <path class="cls-29" d="M22.73,256.43c0,.64-.52,1.16-1.16,1.16s-1.16-.52-1.16-1.16,.52-1.16,1.16-1.16,1.16,.52,1.16,1.16Z"/>
        <path class="cls-29" d="M39.16,262.46c0,.72-.59,1.31-1.31,1.31s-1.31-.59-1.31-1.31,.59-1.31,1.31-1.31,1.31,.59,1.31,1.31Z"/>
      </g>
    </g>
  </g>
</svg>