<?xml version="1.0" encoding="UTF-8"?>
<svg id="Layer_2" data-name="Layer 2" xmlns="http://www.w3.org/2000/svg" viewBox="0 0 367.69 444.06">
  <defs>
    <style>
      .cls-1 {
        fill: #946b12;
      }

      .cls-2 {
        fill: #5799f0;
      }

      .cls-3 {
        fill: #a80c07;
      }

      .cls-4 {
        fill: #381e14;
      }

      .cls-5, .cls-6, .cls-7, .cls-8 {
        fill: #fff;
      }

      .cls-9 {
        fill: #cc8b00;
      }

      .cls-10 {
        fill: #5e1b00;
      }

      .cls-11 {
        fill: #b06128;
      }

      .cls-12 {
        fill: #ffb81f;
      }

      .cls-6 {
        opacity: .21;
      }

      .cls-13 {
        opacity: .29;
      }

      .cls-7 {
        opacity: .42;
      }

      .cls-14, .cls-8 {
        opacity: .22;
      }

      .cls-15 {
        fill: #c96f2e;
      }

      .cls-16 {
        fill: #753f29;
      }

      .cls-17 {
        fill: #573014;
      }

      .cls-18 {
        fill: #52290c;
      }

      .cls-19 {
        fill: #286094;
      }

      .cls-20 {
        fill: #383838;
      }

      .cls-21 {
        fill: #292929;
      }

      .cls-22 {
        fill: #ff130a;
      }

      .cls-23 {
        fill: #875c00;
      }

      .cls-24 {
        fill: #7fb7ff;
      }

      .cls-25 {
        fill: #24130d;
      }
    </style>
  </defs>
  <g id="OBJECTS">
    <g>
      <path class="cls-2" d="M367.69,425.72c0,10.12-74.47,18.33-166.33,18.33s-166.33-8.21-166.33-18.33,74.47-18.33,166.33-18.33,166.33,8.21,166.33,18.33Z"/>
      <g>
        <polygon class="cls-20" points="115.85 97.55 169.17 203.21 171 194.92 115.7 73.42 115.85 97.55"/>
        <polygon points="115.52 97.96 116.19 97.13 168.97 201.74 170.47 194.94 115.35 73.8 116.05 73.04 171.52 194.91 169.36 204.67 115.52 97.96 115.52 97.96"/>
        <polygon class="cls-20" points="112.85 173.39 179.79 270.99 180.5 262.54 109.48 149.5 112.85 173.39"/>
        <path class="cls-13" d="M109.48,149.5l3.37,23.89,17.32,25.26-.16-.94c-4.77-2.96,.28-12.56,5.55-6.68l-26.08-41.51Z"/>
        <path class="cls-13" d="M133.89,113.39c-2.74,.39-5.43,1.98-7.93,4.18l13.64,27.03c-.41-2.19-.34-4.2,1.72-5.02,2.13-.85,4.6,.31,5.47,2.33,.02-.01,.04-.03,.06-.04l-12.96-28.48Z"/>
        <polygon points="112.57 173.84 113.13 172.93 179.4 269.57 179.98 262.62 109.18 149.92 109.78 149.08 181.01 262.45 180.18 272.42 112.57 173.84 112.57 173.84"/>
        <path class="cls-11" d="M188.72,227.01c-2.76,1.51-4.49,4.29-7.63,5.15-3.07,.85-5.75-.28-5.51-3.89,.11-1.65,1.03-2.7,2.39-3.54l10.75,2.28Z"/>
        <path class="cls-17" d="M176.1,232.08c-.83-.77-1.3-1.94-1.29-3.37h0c0-.16,0-.33,.02-.49h0c.12-1.94,1.28-3.25,2.75-4.14h0c.36-.22,.82-.11,1.05,.25h0c.22,.35,.11,.82-.25,1.05h0c-1.26,.8-1.92,1.58-2.03,2.97h0c-.01,.11-.02,.23-.02,.37h0c.08,2.19,1.1,2.88,2.92,2.96h0c.51,0,1.07-.08,1.65-.24h0c2.8-.73,4.49-3.41,7.47-5.09h0c.37-.2,.83-.07,1.03,.3h0c.2,.37,.07,.83-.3,1.03h0c-2.55,1.34-4.31,4.21-7.79,5.22h0c-.7,.19-1.39,.29-2.05,.29h-.02c-1.18,0-2.29-.34-3.12-1.11h0Z"/>
        <path class="cls-12" d="M168.22,195.01c-2.6,1.78-3.01,5.25-2.8,8.15,.25,3.44,.85,6.81,1.31,10.24,.97,7.25,2.5,14.42,3.52,21.69,1.09,7.82,2.22,15.63,3.47,23.42,.81,5.01-.81,11.61,2.14,16.05,2.45,3.69,8.74,3.56,9.71-1.18,.69-3.36-.76-6.65-1.17-9.94-.46-3.64-.54-7.42-.93-11.09-.88-8.18-1.92-16.34-2.62-24.54-.51-6.02-.75-12.06-1.12-18.09-.22-3.63,.42-10.9-2.14-13.89-2.07-2.41-6.84-2.56-9.37-.83Z"/>
        <path class="cls-9" d="M185.58,273.38c.69-3.36-.76-6.65-1.17-9.94-.46-3.64-.54-7.42-.93-11.09-.88-8.18-1.92-16.34-2.62-24.54-.51-6.02-.75-12.06-1.12-18.09-.22-3.63,.42-10.9-2.14-13.89-.44-.52-1.02-.9-1.66-1.22-.11,.23-.23,.45-.33,.71-1.31,3.15-2.46,5.51-2.13,9.13,.64,7.12,1.38,14.36,2.38,21.45,1.27,9.05,2.49,18.08,3.84,27.13,.6,4.01,2.48,9.34,1.22,13.33-1.35,4.29-4.77,3.62-6.55,.04l-.36-.04c.05,2.96,.34,5.88,1.88,8.2,2.45,3.69,8.74,3.56,9.71-1.18Z"/>
        <path class="cls-1" d="M180.8,277.92c-2.1,0-4.28-.99-5.57-2.93h0c-1.88-2.85-2.02-6.34-2.02-9.69h0c0-.78,.01-1.56,.01-2.31h0c0-1.55-.04-3.03-.25-4.36h0c-1.25-7.79-2.38-15.61-3.47-23.43h0c-1.01-7.23-2.54-14.4-3.52-21.69h0c-.45-3.4-1.06-6.79-1.32-10.28h0c-.04-.45-.05-.9-.05-1.35h0c0-2.68,.63-5.73,3.18-7.5h0c1.28-.88,2.96-1.29,4.65-1.3h0c2.14,0,4.34,.67,5.72,2.26h0c2.88,3.49,2.06,10.79,2.33,14.34h0c.36,6.04,.61,12.07,1.12,18.07h0c.7,8.17,1.73,16.33,2.62,24.52h0c.4,3.72,.47,7.49,.93,11.08h0c.31,2.54,1.35,5.25,1.36,8.15h0c0,.67-.05,1.35-.2,2.04h0c-.58,2.9-3.02,4.38-5.45,4.38h-.07Zm-14.67-76.04c0,.42,.01,.83,.05,1.23h0c.25,3.39,.84,6.75,1.31,10.19h0c.97,7.21,2.5,14.38,3.52,21.69h0c1.09,7.81,2.22,15.62,3.47,23.4h0c.23,1.47,.27,3.03,.27,4.6h0c0,.77-.01,1.54-.01,2.31h0c0,3.31,.19,6.49,1.77,8.85h0c.97,1.46,2.67,2.25,4.3,2.25h0c1.91-.03,3.56-.98,4.03-3.16h0c.12-.57,.16-1.15,.17-1.73h0c0-2.52-.99-5.17-1.35-7.96h0c-.46-3.69-.54-7.47-.93-11.1h0c-.88-8.17-1.92-16.34-2.62-24.56h0c-.52-6.04-.76-12.09-1.12-18.1h0c-.17-3.72,.29-10.97-1.96-13.44h0c-.93-1.11-2.74-1.73-4.57-1.73h0c-1.44,0-2.85,.38-3.79,1.03h0c-1.91,1.29-2.52,3.76-2.52,6.24h0Z"/>
        <path class="cls-15" d="M272.75,245.6c-6-4.66-53.14-26.93-60.15-30.1-5.29-2.39-10.58-4.81-15.98-6.94-5.25-2.07-12.47-4.2-17.8-5.72-.92,4.69-3.75,9.46-4.19,14.18l4.57,7.61c11.32,3.04,28.48,8.93,37.56,14.24,3.3,1.93,8.23,4.89,9.14,8.95,.35,1.55-2.95,9.58-2.01,11.36,1.1,2.08,30.9,27.86,30.45,29.56l18.4-43.14Z"/>
        <path class="cls-11" d="M205.94,228.36c-7.07-3.38-14.28-5.86-21.87-7.79-2.9-.74-5.51-1.16-7.96-1.09l3.09,5.15c11.32,3.04,28.48,8.93,37.56,14.24,2.65,1.55,6.36,3.77,8.18,6.69,.51-1.34,.3-3.11-1.01-5.38-3.47-6.03-12.07-9-17.99-11.82Z"/>
        <path class="cls-17" d="M223.45,258.77c-.41-.11-.65-.53-.54-.94h0c.76-2.83,2.41-5.89,2.39-8.55h0c0-.45-.04-.88-.14-1.3h0c-.73-3.56-5.48-6.55-8.78-8.46h0c-8.94-5.24-26.1-11.14-37.37-14.16h0c-.19-.05-.35-.18-.45-.35h0l-4.57-7.61-.1-.46c.48-4.97,3.33-9.75,4.2-14.26h0c.04-.21,.17-.39,.35-.5h0c.18-.11,.4-.14,.6-.09h0c5.34,1.53,12.57,3.65,17.87,5.75h0c5.43,2.14,10.73,4.57,16.02,6.95h0c6.91,3.14,17.31,5.6,23.53,10.41h0c.34,.26,.39,.73,.13,1.07h0c-.26,.33-.74,.39-1.07,.13h0c-5.78-4.51-16.1-7.03-23.22-10.22h0c-5.3-2.39-10.57-4.8-15.95-6.93h0c-4.95-1.96-11.72-3.98-16.95-5.47h0c-1.08,4.5-3.53,8.89-3.97,13.05h0l4.28,7.13c11.38,3.09,28.31,8.91,37.45,14.24h0c3.29,1.96,8.42,4.89,9.5,9.44h0c.13,.55,.18,1.09,.18,1.64h0c-.02,3.22-1.78,6.36-2.44,8.94h0c-.09,.35-.4,.57-.74,.57h0c-.06,0-.13,0-.19-.03h0Z"/>
        <path class="cls-15" d="M235.89,380.56c3.31-6.32,3.36-12.39,4.12-19.25,.45-4.1,.69-8.25,.69-12.38,0-2.39,.13-5.17-1.16-7.29-2.53-4.17-9.9-8.38-13.84-3.76-2.5,2.93-2.41,7.79-2.83,11.4-.45,3.84-.88,8.52-2.75,12-4.51,8.4-13.67,15.13-21.34,20.46-1.62,1.13-3.79,2.17-5.01,3.77-4.74,6.23,10.13,14.14,13.96,16.48,4,2.45,13.05,7.32,16.12,1.7,2.42-4.44,4.24-9.17,6.77-13.58,1.82-3.16,3.58-6.34,5.28-9.57Z"/>
        <path class="cls-11" d="M232.04,336.13c-.86,.14-1.73,.29-2.6,.49-1.1,.25-2.19,.52-3.28,.81-.16,.15-.32,.29-.46,.46-2.5,2.93-2.41,7.79-2.83,11.4-.06,.47-.11,.96-.17,1.45,4.71-4.91,13.77-6.32,15.19,2.41,1.07,6.6-1.93,15.78-5.12,21.49-4.17,7.45-10.91,12.37-16.94,18.19-2.7,2.61-6.96,6-6.7,10,4.42,2.52,11.96,5.91,14.72,.87,2.42-4.44,4.24-9.17,6.77-13.58,1.82-3.16,3.58-6.34,5.28-9.57,3.31-6.32,3.36-12.39,4.12-19.25,.45-4.1,.69-8.25,.69-12.38,0-2.39,.13-5.17-1.16-7.29-1.44-2.37-4.44-4.75-7.49-5.52Z"/>
        <path class="cls-17" d="M219.1,407.08c-4.21-.02-9.08-2.78-11.78-4.41h0c-1.63-1-5.39-3.07-8.75-5.62h0c-3.34-2.57-6.44-5.55-6.5-8.92h0c0-1.05,.35-2.1,1.08-3.06h0c1.4-1.81,3.64-2.85,5.18-3.94h0c7.67-5.31,16.73-12.02,21.11-20.2h0c1.77-3.27,2.22-7.88,2.66-11.73h0c.44-3.52,.26-8.52,3-11.8h0c1.36-1.61,3.17-2.3,4.98-2.29h0c4.04,.04,8.17,3.04,10.08,6.14h0c1.21,2.01,1.26,4.38,1.27,6.47h0v1.18h0v.16h0c0,4.12-.24,8.26-.69,12.34h0c-.76,6.8-.8,13.01-4.2,19.52h0c-1.69,3.24-3.47,6.43-5.29,9.59h0c-2.5,4.34-4.31,9.07-6.76,13.57h0c-1.15,2.15-3.22,3-5.33,3h-.08Zm11-70.44c-1.46,0-2.74,.49-3.82,1.75h0c-2.24,2.58-2.25,7.3-2.65,10.99h0c-.45,3.83-.86,8.59-2.83,12.28h0c-4.64,8.62-13.89,15.38-21.58,20.73h0c-1.7,1.17-3.8,2.21-4.84,3.61h0c-.55,.73-.76,1.42-.77,2.14h0c-.06,2.3,2.62,5.25,5.9,7.7h0c3.25,2.46,6.93,4.5,8.62,5.54h0c2.59,1.6,7.43,4.21,10.98,4.19h0c1.82-.03,3.16-.58,4.07-2.21h0c2.39-4.38,4.21-9.12,6.78-13.6h0c1.81-3.15,3.57-6.32,5.26-9.54h0c3.21-6.13,3.27-12.07,4.04-18.97h0c.45-4.03,.68-8.12,.68-12.18h0s0-.05,0-.12h0v-.04h0v-1.18h0c0-2.06-.11-4.14-1.05-5.68h0c-1.57-2.64-5.49-5.41-8.71-5.41h-.07Z"/>
        <path class="cls-15" d="M139.52,356.5c.27-1.85,.32-3.36,2.19-4.2,4.12-1.85,10.43,1.8,13.62-1.88,2.82-3.27,3.02-8.69,3.72-12.71,.73-4.19,1.45-8.55,3.97-12.1,2.55-3.59,6.64-6.2,10.29-8.55,2.83-1.82,5.9-3.1,9.09-4.16,2.66-.89,4.85-2.42,7.54-3.27,3.16,3.61,7.12,7.16,10.62,10.66-7.19,4.54-13.37,8.46-16.55,16.8-2.89,7.56-3.4,15.96-4.66,23.9-.64,4.05-.51,8.56-1.58,12.51-1.35,4.96-6.74,1.09-9.35-.43-5.18-3.02-11.9-4.44-17.73-5.68l-11.16-10.9Z"/>
        <path class="cls-11" d="M189.93,309.63c-2.68,.85-4.87,2.39-7.54,3.27-.78,.26-1.55,.53-2.32,.82,1.87,1.51,6.73,1.88,7.98,4.3,2.42,4.71-5.9,10.34-8.19,13.89-4.04,6.26-4.68,13.88-5.97,21.03-1.53,8.45-5.33,15.12-14.38,10.14l2.67,7.22c2.2,.75,4.32,1.64,6.23,2.75,2.61,1.52,8,5.4,9.35,.43,1.07-3.95,.94-8.46,1.58-12.51,1.26-7.94,1.77-16.35,4.66-23.9,3.18-8.34,9.36-12.26,16.55-16.8-3.5-3.5-7.47-7.05-10.62-10.66Z"/>
        <path class="cls-17" d="M175,376.71c-2.57-.04-5.34-2.06-6.97-2.99h0c-5.02-2.93-11.67-4.35-17.5-5.59h0c-.41-.09-.68-.49-.59-.9h0c.09-.41,.49-.67,.9-.59h0c5.83,1.25,12.62,2.66,17.95,5.77h0c1.67,1,4.46,2.81,6.21,2.78h0c.96-.06,1.54-.3,2.03-1.89h0c1.04-3.79,.92-8.28,1.57-12.43h0c1.25-7.89,1.76-16.35,4.7-24.06h0c3.16-8.28,9.2-12.33,16.04-16.66h0c-3.19-3.15-6.71-6.36-9.64-9.65h0c-2.35,.83-4.44,2.23-7.06,3.11h0c-3.15,1.04-6.16,2.3-8.92,4.07h0c-3.65,2.34-7.65,4.93-10.08,8.35h0c-2.39,3.35-3.11,7.59-3.84,11.79h0c-.71,3.94-.84,9.48-3.9,13.08h0c-1.39,1.6-3.3,2-5.16,1.99h0c-2.01,0-4.08-.41-5.91-.4h0c-1.05,0-2,.13-2.8,.5h0c-1.46,.67-1.45,1.64-1.75,3.61h0c-.06,.42-.45,.7-.87,.64h0c-.42-.06-.7-.45-.64-.87h0c.23-1.72,.36-3.77,2.63-4.78h0c1.09-.49,2.26-.63,3.42-.63h0c2.03,0,4.12,.41,5.91,.4h0c1.7,0,3.02-.32,4.02-1.46h0c2.59-2.94,2.85-8.24,3.54-12.34h0c.74-4.18,1.45-8.66,4.1-12.41h0c2.68-3.76,6.85-6.4,10.5-8.75h0c2.9-1.87,6.04-3.17,9.26-4.24h0c2.53-.83,4.73-2.37,7.55-3.28h0c.29-.09,.6,0,.8,.22h0c3.11,3.56,7.07,7.11,10.59,10.63h0c.16,.16,.25,.39,.22,.62h0c-.03,.23-.16,.44-.35,.56h0c-7.21,4.55-13.16,8.34-16.24,16.42h0c-2.84,7.41-3.36,15.76-4.62,23.75h0c-.63,3.95-.49,8.48-1.6,12.59h0c-.48,1.99-1.9,3.01-3.38,3.01h0s-.08,0-.11,0h0Z"/>
        <path class="cls-15" d="M215.15,277.44c-.89,5.84-4.06,14.72-7.49,20.3-3.05,4.96,15,16.12,20.56,17.89,3,.96,6.36,2.58,9.26,3.81,2.1,.89,7.48,2.29,7.99-.13,.89-4.19,3.04-9.05,4.19-11.42,1.9-3.93,3.16-6.21,4.57-9.77l-39.08-20.68Z"/>
        <path class="cls-11" d="M245.47,319.32c.89-4.19,3.04-9.05,4.19-11.42,1.9-3.93,3.16-6.21,4.57-9.77l-39.08-20.68c-.48,3.15-1.64,7.19-3.13,11.12l.21,.69c3.89-3.27,7.09-3.02,11.66-1.03,4.07,1.77,8.83,2.69,12.6,5.04,3.48,2.17,6.43,6.13,6.47,10.34,.05,4.59-1.99,9.02-7.13,9.21-2.45,.09-7.16-.12-6.67,3.17,2.75,.97,5.72,2.37,8.32,3.47,2.1,.89,7.48,2.29,7.99-.13Z"/>
        <path class="cls-17" d="M242.91,321.42c-2.03,0-4.41-.72-5.73-1.27h0c-2.92-1.24-6.28-2.86-9.2-3.79h0c-2.72-.88-7.93-3.7-12.58-7.03h0c-4.61-3.38-8.72-6.97-8.84-10.34h0c0-.57,.15-1.15,.46-1.65h0c3.36-5.46,6.53-14.32,7.38-20.02h0c.06-.41,.45-.7,.86-.63h0c.41,.06,.7,.45,.64,.86h0c-.92,5.98-4.1,14.88-7.59,20.59h0c-.16,.26-.24,.53-.24,.85h0c-.13,2.01,3.65,5.92,8.21,9.1h0c4.52,3.24,9.76,6.05,12.16,6.81h0c3.07,.99,6.45,2.62,9.33,3.83h0c1.13,.49,3.48,1.16,5.14,1.16h0c1.24-.02,1.76-.32,1.81-.74h0c.92-4.3,3.09-9.2,4.25-11.59h0c1.91-3.95,3.15-6.21,4.54-9.72h0c.15-.39,.6-.58,.99-.43h0c.39,.15,.58,.6,.42,.99h0c-1.42,3.6-2.69,5.91-4.59,9.82h0c-1.13,2.33-3.27,7.18-4.13,11.25h0c-.36,1.53-1.87,1.94-3.2,1.94h0s-.07,0-.1,0h0Z"/>
        <path class="cls-20" d="M182.92,423.36c-8.66,.03-50.33-16.64-57.03-21.56-14.8-10.86-29.29-22.6-43.62-34.08-12.19-9.76-24.54-19.38-35.67-30.37-8.31-8.21-26.23-25.2-20.13-38.22,5.82-12.4,42.31,9.36,50.25,13.32,24.36,12.18,37.73,20.32,58.44,33.64,22.67,14.58,45.13,29.47,69.14,41.86,17.32,8.94,38.38,25.09,58.29,26.18l-79.67,9.23Z"/>
        <path d="M182.89,424.12c-9.2-.09-50.42-16.63-57.46-21.71h0c-14.82-10.87-29.32-22.62-43.65-34.1h0c-12.19-9.75-24.56-19.39-35.73-30.42h0c-7.11-7.09-21.51-20.55-21.6-33.06h0c0-2.05,.4-4.09,1.32-6.03h0c1.43-3.05,4.55-4.24,8.23-4.22h0c13.23,.04,36.85,14.11,43.05,17.18h0c24.39,12.19,37.8,20.36,58.51,33.68h0c22.68,14.58,45.11,29.47,69.07,41.82h0c17.4,9,38.44,25.06,57.98,26.09h0c.4,.02,.71,.34,.73,.74h0c0,.39-.29,.73-.68,.78h0l-79.66,9.23-.09-.76v.76h-.02ZM34.01,296.12c-3.43,.02-5.74,1-6.85,3.35h0c-.81,1.72-1.17,3.52-1.17,5.38h0c-.09,11.36,13.97,24.96,21.14,31.97h0c11.08,10.94,23.42,20.55,35.61,30.31h0c14.34,11.48,28.82,23.21,43.6,34.05h0c6.35,4.75,48.25,21.47,56.53,21.41h0l73.43-8.5c-18.31-3.59-36.88-17.5-52.35-25.46h0c-24.06-12.41-46.54-27.32-69.2-41.89h0c-20.71-13.31-34.03-21.43-58.37-33.6h0c-6.21-3.14-29.91-17.03-42.31-17.03h-.06Z"/>
        <path class="cls-21" d="M188.5,419.05c7.13,0,50.28-1.09,56.84-.51-20.55-2.03-46.11-17.64-56.85-25.38-29.46-21.23-183.48-130.18-156.58-76.38,4.77,9.91,77.55,69.77,126.47,104.23,9.27-1.26,19.44-1.96,30.11-1.96Z"/>
        <path class="cls-2" d="M99.73,431.19c-15.88-8.33-23.79-57.38,2.53-50.03,12.95,3.62,17.7,20.58,31.23,24.55,15.5,4.54,21.21-11.61,37.31-2.7,15.96,8.83,28.28,14.39,47.01,14.25,10.3-.08,19.81-2.72,29.93-3.69,18.02-1.71,37.11,.92,55.23,.83l-203.24,16.79Z"/>
        <path d="M170.3,381.97c-35.59-28.25-76.23-50.95-116.72-72.41h0c-.37-.19-.51-.66-.32-1.03h0c.2-.37,.66-.51,1.03-.32h0c40.5,21.47,81.22,44.21,116.95,72.56h0c.33,.27,.38,.74,.12,1.07h0c-.15,.19-.38,.29-.6,.29h0c-.16,0-.33-.05-.46-.16h0Z"/>
        <path class="cls-15" d="M250.67,279.35c-7.85-6.89-15.52-14.1-24.49-19.55-7.08-4.3-14.62-8.49-22.4-11.36-5.53-2.04-17.54-8.1-23.44-5.54-4.14,1.8-3.45,8.96-3.23,12.92,.28,4.99,4.11,7.65,8.47,9.19,6.15,2.17,12,4.46,17.87,7.56,16.12,8.49,31.51,18.9,48,26.67,14.8,6.97,16.07-15.3,14.57-24.62-.57-3.56-2.86-6.71-3.44-10.17l-11.91,14.91Z"/>
        <path class="cls-11" d="M266.03,274.61c-.04-.27-.11-.52-.17-.78-.42,.29-.63,.93-.74,1.9-.33,2.98,.62,6.83-.39,9.66-1.08,3.02-2.68,6.39-5.71,7.88-2.5,1.23-7.95,.28-10.48-.52-4.18-1.32-8.02-3.74-11.71-6.02-6.52-4.03-13.39-7.45-20.22-10.93-6.35-3.23-12.54-6.71-18.86-9.99-4-2.07-8.78-5.27-13.35-5.71-1.83-.18-3.65,.11-5.41,.66,1.58,1.99,3.99,3.33,6.61,4.25,6.15,2.17,12,4.46,17.87,7.56,16.12,8.49,31.51,18.9,48,26.67,14.8,6.97,16.07-15.3,14.57-24.62Z"/>
        <path class="cls-17" d="M256.62,301.32c-1.65,0-3.47-.45-5.49-1.4h0c-16.56-7.8-31.97-18.21-48.03-26.68h0c-5.82-3.07-11.63-5.35-17.77-7.51h0c-4.45-1.55-8.67-4.43-8.98-9.86h0c-.07-1.22-.18-2.78-.18-4.41h0c.02-3.56,.48-7.7,3.87-9.25h0c1.13-.49,2.41-.69,3.77-.69h0c6.62,.02,15.69,4.54,20.23,6.2h0c7.86,2.9,15.44,7.12,22.53,11.43h0c9.05,5.51,16.76,12.74,24.59,19.62h0c.31,.28,.34,.75,.07,1.07h0c-.28,.31-.76,.35-1.07,.07h0c-7.87-6.9-15.51-14.07-24.38-19.47h0c-7.06-4.29-14.57-8.46-22.27-11.3h0c-4.64-1.73-13.7-6.13-19.71-6.11h0c-1.22,0-2.29,.18-3.17,.56h0c-2.32,.93-2.98,4.36-2.96,7.86h0c0,1.55,.11,3.08,.18,4.32h0c.25,4.55,3.7,6.99,7.96,8.51h0c6.17,2.18,12.06,4.49,17.97,7.61h0c16.16,8.52,31.55,18.91,47.97,26.65h0c1.87,.88,3.48,1.26,4.85,1.26h0c3.43,0,5.63-2.32,7.11-5.95h0c1.45-3.6,2.01-8.35,2.01-12.58h0c0-2.46-.18-4.76-.47-6.54h0c-.51-3.32-2.8-6.46-3.44-10.16h0c-.07-.41,.21-.81,.62-.88h0c.41-.07,.81,.21,.88,.62h0c.51,3.22,2.8,6.38,3.44,10.17h0c.3,1.88,.49,4.24,.49,6.78h0c0,4.37-.55,9.26-2.12,13.15h0c-1.53,3.87-4.27,6.9-8.51,6.9h-.02Z"/>
        <path class="cls-15" d="M183.49,251.37c-2.53-1.01-5.32-2.53-8.11-1.8-2.23,.59-3.79,2.65-5.74,.4-4.6-5.29,2.11-9.82,7.05-9.34,2.8,.27,7.66,1.41,10.9,2.08l-4.09,8.66Z"/>
        <path class="cls-11" d="M181.43,244.04c-.91-.59-2.77-.65-3.84-.71-3.35-.18-6.52,.46-9.39,2.22-.3,1.33,.05,2.85,1.43,4.43,1.96,2.25,3.51,.19,5.74-.4,1.73-.46,3.46-.04,5.13,.58,.18-.16,.38-.32,.54-.48,1.4-1.35,2.43-4.31,.38-5.64Z"/>
        <path class="cls-17" d="M183.2,252.08c-2.11-.85-4.28-1.95-6.29-1.94h0c-.46,0-.9,.05-1.34,.17h0c-1.28,.3-2.42,1.38-4.06,1.45h0c-.85,0-1.72-.42-2.46-1.29h0c-1.17-1.34-1.73-2.73-1.73-4.05h0c.11-4.06,4.7-6.55,8.61-6.58h0c.27,0,.54,.01,.81,.04h0c2.9,.28,7.75,1.43,10.98,2.1h0c.41,.08,.68,.49,.59,.9h0c-.09,.41-.49,.68-.9,.59h0c-3.25-.67-8.12-1.81-10.82-2.07h0c-.22-.02-.44-.03-.66-.03h0c-1.65,0-3.49,.57-4.86,1.52h0c-1.38,.95-2.23,2.21-2.23,3.55h0c0,.89,.36,1.91,1.35,3.06h0c.58,.65,.93,.75,1.31,.76h0c.76,.06,1.98-.91,3.66-1.4h0c.58-.16,1.16-.22,1.73-.22h0c2.53,.01,4.84,1.25,6.86,2.05h0c.39,.16,.58,.6,.42,.99h0c-.12,.3-.4,.48-.7,.48h0c-.1,0-.19-.02-.29-.06h0Z"/>
        <path class="cls-15" d="M183.3,254.58c-2.67-.54-5.7-1.52-8.3-.29-2.09,.99-3.24,3.29-5.58,1.44-5.48-4.36,.28-10.04,5.23-10.47,2.8-.24,6.26-.08,8.94,.78l-.29,8.54Z"/>
        <path class="cls-11" d="M183.32,253.99l.15-4.51c-1.31-1.12-3.49-1.75-5.02-1.66-4.49,.27-7.85,.74-10.95,4.5l-.22,.18c.2,1.09,.85,2.2,2.15,3.23,2.33,1.86,3.49-.45,5.58-1.44,2.47-1.17,5.33-.34,7.9,.2,.15-.16,.28-.34,.42-.5Z"/>
        <path class="cls-17" d="M168.95,256.33c-1.71-1.35-2.52-2.96-2.52-4.54h0c.1-3.89,4.31-6.91,8.15-7.29h0c.79-.07,1.62-.11,2.48-.11h0c2.28,0,4.69,.26,6.76,.92h0c.4,.13,.62,.56,.49,.96h0c-.13,.4-.56,.62-.96,.49h0c-1.83-.6-4.13-.85-6.29-.85h0c-.82,0-1.61,.04-2.35,.1h0c-3.21,.23-6.86,3.14-6.76,5.77h0c0,1.06,.49,2.18,1.94,3.35h0c.54,.43,.91,.53,1.21,.53h0c.78,.1,1.85-1.18,3.57-2.06h0c1.04-.49,2.13-.67,3.2-.67h0c1.96,0,3.88,.56,5.57,.89h0c.41,.08,.68,.49,.6,.9h0c-.08,.41-.48,.68-.89,.59h0c-1.77-.36-3.61-.87-5.27-.87h0c-.91,0-1.76,.14-2.56,.52h0c-1.32,.55-2.3,2.12-4.22,2.21h-.01c-.71,0-1.43-.29-2.14-.87h0Z"/>
        <path class="cls-11" d="M239.02,228.03l-11.76,8.69c1,9.87,4.06,22.48,11.96,29.45,4.68,4.13,19.05,10.23,23.51,3.33,3.31-5.12,5.06-12.42,7.56-18.06,.85-1.93,1.64-3.89,2.47-5.83-3.3-2.56-19.05-10.46-33.73-17.57Z"/>
        <path class="cls-15" d="M184.17,259.6c-2.67-.54-5.69-1.52-8.3-.29-2.09,.99-3.24,3.29-5.58,1.44-5.48-4.36,.28-10.04,5.23-10.47,2.8-.24,6.53,.14,9.21,1l-.56,8.32Z"/>
        <path class="cls-11" d="M183.51,259.45c.34-.57,.61-1.15,.79-1.73l.12-1.74c-.74-2.33-5.28-2.84-7.32-2.77-3.7,.15-6.3,1.94-8.63,4.72l-.16,.19c.31,.89,.94,1.78,1.99,2.62,2.34,1.86,3.49-.45,5.58-1.44,2.39-1.13,5.14-.4,7.64,.15Z"/>
        <path class="cls-17" d="M169.81,261.34c-1.71-1.35-2.52-2.96-2.52-4.54h0c.1-3.89,4.31-6.91,8.16-7.29h0c.58-.05,1.19-.08,1.83-.08h0c2.55,0,5.42,.39,7.68,1.12h0c.4,.13,.62,.55,.49,.96h0c-.13,.4-.56,.62-.96,.49h0c-2.05-.66-4.82-1.04-7.21-1.04h0c-.59,0-1.17,.02-1.7,.07h0c-3.2,.23-6.86,3.14-6.76,5.77h0c0,1.06,.49,2.18,1.94,3.34h0c.55,.43,.91,.53,1.21,.54h0c.78,.1,1.85-1.18,3.57-2.06h0c1.04-.5,2.13-.67,3.2-.67h0c1.96,0,3.88,.56,5.57,.9h0c.41,.08,.68,.49,.59,.9h0c-.08,.41-.49,.67-.89,.59h0c-1.77-.36-3.61-.87-5.27-.87h0c-.91,0-1.76,.14-2.55,.52h0c-1.33,.56-2.31,2.12-4.22,2.21h0c-.71,0-1.44-.29-2.16-.87h0Z"/>
        <path class="cls-15" d="M185.22,264.82c-2.67-.54-5.69-1.52-8.3-.29-2.09,.99-3.24,3.29-5.58,1.44-5.48-4.36,.28-10.04,5.23-10.47,2.8-.24,5.69,0,8.37,.85l.28,8.46Z"/>
        <path class="cls-11" d="M170.74,264.6l-.09,.72c.21,.22,.43,.43,.7,.64,2.33,1.86,3.49-.45,5.58-1.44,2.61-1.23,5.63-.25,8.3,.29l-.15-4.6c-.22-.03-.45-.09-.67-.11-4.84-.47-9.54,2.31-13.66,4.5Z"/>
        <path class="cls-17" d="M170.86,266.56c-1.71-1.35-2.52-2.96-2.52-4.54h0c.1-3.89,4.31-6.91,8.15-7.29h0c.7-.06,1.42-.09,2.13-.09h0c2.2,0,4.43,.3,6.54,.98h0c.4,.13,.62,.56,.49,.96h0c-.13,.4-.56,.62-.96,.49h0c-1.94-.62-4.01-.91-6.07-.91h0c-.67,0-1.33,.03-2,.09h0c-3.2,.23-6.86,3.14-6.76,5.77h0c0,1.06,.49,2.18,1.94,3.35h0c.55,.43,.91,.53,1.21,.53h0c.78,.1,1.85-1.18,3.57-2.06h0c1.05-.5,2.14-.67,3.21-.67h0c1.96,0,3.88,.56,5.57,.89h0c.41,.08,.67,.48,.6,.89h0c-.08,.41-.49,.68-.9,.6h0c-1.77-.36-3.6-.87-5.27-.87h0c-.91,0-1.77,.14-2.56,.52h0c-1.32,.55-2.31,2.12-4.22,2.21h0c-.71,0-1.44-.29-2.15-.87h0Z"/>
        <path class="cls-20" d="M242.52,315.78c3.8,.54,5.25,1.28,4.86,5.47-.49,5.21-2.27,10.25-3.05,15.42-.34,2.26-.62,4.51-.88,6.77-.4,3.5-2.76,1.69-5.18,.98-4-1.17-8.16-1.67-12.06-3.18-6.84-2.64-4.69-3.77-5.21-10.46-4.32-1.25-9.05-4.98-13.49-5.26-5.24-.32-6.97,4.36-11.55,.6-2.49-2.04-7.98-10.45-9.39-13.58-1.63-3.65,.01-5.43,3.38-6.69,4.38-1.63,8.83-3.49,12.93-5.78,1.39-.78,2.93-3.35,4.65-3.21,2.94,.23,4.86,4.55,6.92,6.28,3.3,2.78,7.61,6.26,11.48,8.19,5.18,2.58,10.9,3.65,16.59,4.46Z"/>
        <path class="cls-21" d="M243.45,343.44c.26-2.27,.54-4.52,.88-6.77,.78-5.17,2.56-10.2,3.05-15.42,.24-2.57-.22-3.83-1.48-4.56-.78,.02-1.48,.24-1.91,.88-1.26,1.84,.71,6.4,.25,8.62-.46,2.17-1.92,3.26-3.05,5.09-3.28,5.35-4.54,8.34-11.71,6.61-4.96-1.2-8.21-7.85-1.1-8.33-.8-2.81-6.57-3.84-9.02-4.71-1.63-.58-3.55-1.04-5.09-1.84-1.54-.81-2.99-3.04-4.49-3.27-.21,.93-.29,1.97-.25,2.99-4.37,.29-6.34-6.71-10.03-6.79,.66,2.43,4.58,4.15,3.03,6.67-1.42,2.32-6.56,1.48-8.58,.72l-.06,.59c.78,.97,1.5,1.77,2.06,2.23,4.57,3.76,6.31-.92,11.55-.6,4.43,.27,9.16,4,13.49,5.26,.53,6.69-1.62,7.82,5.21,10.46,3.91,1.51,8.06,2,12.06,3.18,2.42,.71,4.78,2.52,5.18-.98Z"/>
        <path d="M241.87,346.28c-1.32-.03-2.58-.79-3.82-1.13h0c-3.91-1.16-8.1-1.65-12.12-3.2h0c-2.37-.92-3.77-1.66-4.64-2.68h0c-.88-1.04-1.01-2.24-1-3.59h0c0-.69,.03-1.46,.03-2.36h0c0-.6-.01-1.25-.05-1.97h0c-4.37-1.46-8.89-4.87-12.81-5.07h0c-.16,0-.32-.02-.48-.02h0c-3.06-.05-4.79,1.99-7.62,2.09h0c-1.2,0-2.49-.48-3.89-1.64h0c-2.72-2.27-8.09-10.56-9.6-13.86h0c-.46-1.04-.7-1.98-.7-2.85h0c0-2.5,1.98-3.95,4.51-4.87h0c4.36-1.63,8.78-3.47,12.83-5.73h0c1.11-.49,2.52-3.17,4.89-3.32h0s.13,0,.2,0h0c3.63,.43,5.45,5,7.34,6.46h0c3.28,2.77,7.57,6.22,11.33,8.09h0c5.05,2.51,10.69,3.57,16.35,4.38h0l-.1,.76-.11,.75c-5.7-.81-11.51-1.89-16.82-4.53h0c-3.99-1.99-8.32-5.5-11.63-8.29h0c-2.22-2-4.24-6.06-6.51-6.11h-.05c-.96-.15-2.55,2.11-4.14,3.12h0c-4.16,2.32-8.64,4.19-13.04,5.83h0c-2.42,.93-3.53,1.9-3.53,3.44h0c0,.59,.17,1.32,.57,2.23h0c1.3,2.97,6.91,11.49,9.17,13.31h0c1.24,1.01,2.12,1.29,2.92,1.29h0c1.86,.1,3.9-2.03,7.62-2.08h0c.19,0,.38,0,.57,.02h0c4.79,.34,9.53,4.13,13.65,5.28h0c.3,.09,.52,.36,.55,.68h0c.07,.97,.09,1.84,.09,2.6h0c0,.92-.03,1.7-.03,2.36h0c0,1.31,.12,1.98,.64,2.61h0c.54,.64,1.71,1.36,4.02,2.24h0c3.78,1.46,7.92,1.96,12,3.15h0c1.41,.43,2.75,1.11,3.39,1.07h0c.4-.07,.56,.06,.82-1.41h0c.26-2.28,.54-4.53,.89-6.8h0c.8-5.26,2.57-10.29,3.04-15.37h0c.04-.43,.06-.8,.06-1.14h0c-.02-1.47-.32-2.07-.89-2.52h0c-.58-.46-1.7-.76-3.38-.99h0l.11-.75,.1-.76c1.73,.26,3.06,.53,4.09,1.29h0c1.05,.78,1.5,2.07,1.49,3.73h0c0,.4-.03,.82-.07,1.28h0c-.5,5.34-2.29,10.38-3.05,15.46h0c-.34,2.25-.62,4.48-.88,6.75h0c-.1,1.65-1.06,2.76-2.23,2.76h0s-.07,0-.1,0h0Z"/>
        <path class="cls-15" d="M178.06,211.88c-2.53-.97-5.32-2.42-8.11-1.72-2.24,.56-3.79,2.53-5.75,.38-4.6-5.06,2.11-9.39,7.05-8.93,2.79,.26,7.66,1.04,10.99,2.27l-4.19,8Z"/>
        <path class="cls-11" d="M170.93,204.1c-2.49-.36-6.01,1.05-8.18,2.42-.21,1.22,.16,2.59,1.46,4.02,1.96,2.15,3.51,.18,5.75-.38,1.72-.44,3.45-.04,5.12,.55,.67-.72,1.15-1.5,1.29-2.34,.46-2.87-3.27-3.95-5.43-4.27Z"/>
        <path class="cls-17" d="M177.79,212.59c-2.11-.82-4.28-1.87-6.3-1.86h0c-.46,0-.9,.05-1.35,.17h0c-1.28,.28-2.43,1.33-4.05,1.38h0c-.84,.01-1.71-.4-2.45-1.23h0c-1.17-1.28-1.74-2.62-1.73-3.91h0c.12-3.94,4.71-6.29,8.61-6.33h0c.27,0,.54,0,.81,.04h0c2.85,.27,7.73,1.04,11.19,2.32h0c.39,.15,.59,.59,.45,.98h0c-.15,.39-.59,.59-.98,.44h0c-3.21-1.19-8.06-1.98-10.8-2.23h0c-.21-.02-.43-.03-.66-.03h0c-1.66,0-3.51,.55-4.87,1.45h0c-1.39,.91-2.23,2.11-2.22,3.35h0c0,.83,.35,1.79,1.34,2.89h0c.58,.62,.94,.73,1.32,.73h0c.78,.06,2-.87,3.67-1.33h0c.58-.15,1.16-.21,1.72-.21h0c2.52,.01,4.83,1.19,6.85,1.96h0c.39,.15,.58,.59,.44,.99h0c-.12,.3-.41,.49-.71,.49h0c-.09,0-.18-.01-.27-.05h0Z"/>
        <path class="cls-15" d="M177.87,214.95c-2.67-.51-5.7-1.46-8.3-.28-2.09,.95-3.24,3.15-5.58,1.38-5.48-4.17,.28-9.6,5.23-10.01,2.8-.23,5.7,0,8.37,.82l.28,8.1Z"/>
        <path class="cls-11" d="M177.42,214.86c.21-.4,.35-.82,.4-1.26l-.04-1.32c-.63-3.03-5.04-3.19-7.63-2.94-3.35,.33-6.22,1.39-8.16,4.14,.3,.88,.93,1.75,2.01,2.57,2.33,1.77,3.49-.43,5.58-1.38,2.46-1.11,5.29-.34,7.85,.18Z"/>
        <path class="cls-17" d="M163.53,216.66c-1.71-1.29-2.54-2.84-2.53-4.38h0c.11-3.78,4.33-6.63,8.15-7h0c.7-.06,1.41-.09,2.13-.09h0c2.2,0,4.42,.29,6.53,.94h0c.4,.12,.63,.55,.5,.95h0c-.13,.4-.55,.63-.95,.5h0c-1.94-.6-4.01-.87-6.08-.87h0c-.67,0-1.34,.03-2,.08h0c-3.22,.22-6.86,3.03-6.76,5.48h0c0,.98,.48,2.05,1.93,3.16h0c.54,.41,.92,.51,1.22,.52h0c.8,.09,1.86-1.13,3.58-1.98h0c1.03-.47,2.12-.64,3.19-.64h0c1.96,0,3.88,.54,5.57,.86h0c.41,.08,.68,.48,.6,.89h0c-.08,.42-.48,.69-.89,.6h0c-1.77-.34-3.61-.83-5.28-.83h0c-.92,0-1.77,.14-2.56,.5h0c-1.33,.53-2.32,2.03-4.21,2.11h-.02c-.7,0-1.42-.28-2.13-.82h0Z"/>
        <path class="cls-15" d="M178.74,219.75c-2.67-.51-5.69-1.45-8.3-.28-2.09,.95-3.24,3.15-5.58,1.37-5.48-4.17,.28-9.6,5.23-10.01,2.8-.23,6.24,.22,8.92,1.04l-.27,7.87Z"/>
        <path class="cls-11" d="M172.19,213.96c-3.43,.04-7.05,.82-9.07,3.82l-.29,.43c.29,.9,.92,1.79,2.03,2.63,2.33,1.78,3.49-.43,5.58-1.37,2.26-1.02,4.83-.45,7.21,.05,2.44-3.44-2.66-5.59-5.46-5.56Z"/>
        <path class="cls-17" d="M164.4,221.45c-1.71-1.29-2.54-2.84-2.53-4.38h0c.1-3.78,4.33-6.64,8.15-7h0c.52-.05,1.05-.07,1.6-.07h0c2.54,0,5.32,.44,7.62,1.14h0c.4,.13,.62,.55,.5,.95h0c-.12,.4-.55,.63-.95,.5h0c-2.13-.66-4.79-1.07-7.17-1.07h0c-.5,0-1,.02-1.47,.06h0c-3.23,.22-6.87,3.03-6.76,5.48h0c0,.99,.48,2.05,1.93,3.17h0c.54,.41,.91,.51,1.22,.51h0c.8,.09,1.86-1.13,3.58-1.98h0c1.04-.47,2.13-.64,3.2-.64h0c1.95,0,3.88,.54,5.56,.86h0c.41,.08,.68,.48,.6,.89h0c-.08,.41-.48,.68-.89,.6h0c-1.77-.34-3.61-.84-5.28-.83h0c-.92,0-1.77,.14-2.57,.5h0c-1.32,.53-2.32,2.02-4.21,2.11h-.01c-.7,0-1.42-.28-2.13-.82h0Z"/>
        <path class="cls-15" d="M179.79,224.74c-2.67-.51-5.69-1.45-8.3-.27-2.09,.95-3.24,3.15-5.58,1.37-5.48-4.17,.28-9.6,5.23-10.01,2.8-.23,5.69,0,8.37,.82l.28,8.09Z"/>
        <path class="cls-11" d="M179.79,224.74l-.17-5.05c-5.42-.72-9.89,.29-14.59,4.66l-.11,.58c.28,.31,.6,.62,1,.92,2.33,1.78,3.49-.43,5.58-1.37,2.61-1.18,5.63-.24,8.3,.27Z"/>
        <path class="cls-17" d="M165.45,226.44c-1.71-1.29-2.53-2.84-2.53-4.38h0c.11-3.77,4.33-6.63,8.16-6.99h0c.7-.06,1.41-.09,2.13-.09h0c2.2,0,4.41,.29,6.52,.94h0c.4,.12,.63,.55,.5,.95h0c-.12,.4-.55,.63-.95,.5h0c-1.94-.6-4.01-.87-6.08-.87h0c-.67,0-1.34,.03-2,.09h0c-3.22,.22-6.87,3.03-6.76,5.48h0c0,.99,.48,2.05,1.93,3.17h0c.54,.41,.92,.51,1.22,.51h0c.8,.09,1.86-1.13,3.58-1.97h0c1.04-.47,2.12-.64,3.19-.64h0c1.96,0,3.88,.54,5.57,.86h0c.41,.08,.68,.48,.6,.89h0c-.08,.42-.48,.68-.89,.6h0c-1.77-.34-3.6-.83-5.28-.83h0c-.91,0-1.77,.14-2.57,.5h0c-1.32,.53-2.32,2.03-4.21,2.11h-.02c-.69,0-1.42-.28-2.13-.82h0Z"/>
        <path class="cls-11" d="M181.35,223.25c.02,.74,.12,3.01,.24,3.57,.17,.85,1.96,1.15,2.71,1.33,1.98,.49,2.51-1.36,4.14-2,1.9-.73,.83-1.53-.67-2.57l-6.42-.33Z"/>
        <g>
          <path class="cls-9" d="M316.91,225.26c6.44-16.36,10.19-39.46-3.65-53.26-4.87-4.86-11.71-6.08-18.18-7.65l21.83,60.9Z"/>
          <path class="cls-23" d="M316.62,225.97c-.39-.16-.58-.6-.43-.99h0c3.2-8.13,5.73-17.95,5.72-27.38h0c0-9.4-2.49-18.36-9.2-25.06h0c-4.65-4.65-11.31-5.88-17.82-7.45h0c-.41-.1-.66-.51-.56-.92h0c.09-.41,.51-.66,.91-.56h0c6.43,1.57,13.44,2.77,18.54,7.85h0c7.08,7.06,9.65,16.49,9.65,26.13h0c0,9.7-2.58,19.67-5.83,27.94h0c-.12,.3-.41,.48-.71,.48h0c-.09,0-.19-.02-.28-.05h0Z"/>
          <path class="cls-11" d="M231.76,189.3c-3.88,16.98-9.47,36.59-1.99,53.42,10.53,23.68,35.13,34.41,58.24,26.28,32.87-11.56,34.62-30.71,30.28-57.12-1.4-8.53-3.72-18.09-7.83-25.77-4.1-7.66-13.04-17.27-21.56-20.05-11.51-3.75-23.73,6.28-33.91,11.44-5.38,2.73-10.76,5.47-16.14,8.21-.88,.45-6.87,2.6-7.1,3.59Z"/>
          <path class="cls-15" d="M234.17,239.08c-7.25-16.31-2.23-35.22,1.62-51.83,1.85-.95,3.72-1.89,5.58-2.84,12.92-6.56,25.85-13.11,38.76-19.7,8.12,8.38,19.46,7,26.69,17.03,7.04,9.75,9.74,22.34,11.85,33.97,2.4,13.23,2.07,33.12-10.35,41.99-4.32,3.09-9.58,5.66-15.91,7.65-23.37,7.33-47.71-2.61-58.24-26.28Z"/>
          <path class="cls-11" d="M312.38,191.92c-1.37-3.31-3.03-6.48-5.05-9.42-2.44-.49-4.9-1.03-7.36-1.65-11.34-2.88-22.2-6.97-33.28-9.3-8.44,4.29-16.88,8.58-25.32,12.87-1.86,.95-3.72,1.89-5.58,2.84-2.5,10.78-5.47,22.54-5.28,33.92,.95,3.21,5.97,13.64,8.49,6.72,.95-2.61,.74-6.04,1.34-8.81,.66-3.07,1.29-6.16,2.18-9.18,1.73-5.87,3.64-14.05,9.26-17.36,5.25-3.08,10.78-4.65,16.72-3.53,5.55,1.05,12.67,4.62,16.39,8.99,2.25-3.64,1.46-7.77,.3-11.6,7.04,5.29,18.34,7.33,27.19,5.51Z"/>
          <path class="cls-17" d="M229.29,242.93c-2.13-4.78-3.21-9.78-3.59-14.87h0c-.95-13.05,2.75-26.67,5.54-38.88h0c.21-.64,.7-.86,1.34-1.26h0c.63-.37,1.44-.75,2.28-1.11h0c1.64-.72,3.4-1.39,3.76-1.58h0c5.38-2.74,10.76-5.48,16.14-8.21h0c8.17-4.12,17.75-11.53,27.42-12.26h0c2.3-.17,4.61,.05,6.89,.79h0c8.74,2.87,17.69,12.54,21.86,20.3h0c4.16,7.77,6.48,17.37,7.88,25.94h0c.69,4.21,1.23,8.25,1.51,12.11h0c1.55,20.36-4.34,35.89-32.14,45.6h0c-4.1,1.44-8.25,2.3-12.35,2.6h0c-19.32,1.41-37.79-9.45-46.54-29.16h0Zm-2.53-14.95c.37,4.99,1.42,9.86,3.49,14.52h0c8.6,19.33,26.64,29.91,45.5,28.54h0c4.01-.29,8.07-1.13,12.08-2.54h0c27.47-9.73,32.85-24.38,31.44-44.53h0c-.28-3.81-.82-7.82-1.5-12.01h0c-1.39-8.51-3.71-18.02-7.77-25.61h0c-4.02-7.55-12.96-17.11-21.25-19.79h0c-2.14-.7-4.31-.9-6.49-.74h0c-9.2,.65-18.74,7.93-27.02,12.15h0c-5.38,2.73-10.76,5.47-16.14,8.21h0c-.48,.24-1.98,.81-3.51,1.47h0c-1.51,.63-3.09,1.46-3.31,1.78h0c-2.8,12.23-6.45,25.76-5.51,38.56h0Z"/>
          <path class="cls-10" d="M297.28,241.45s-4.5,21.57-25.62,20.84c-22.55-.78-33.86-16.38-27.65-37.11,1.62,5.63,21.66,30.1,53.26,16.27Z"/>
          <path class="cls-22" d="M277.17,261.09c-2.07-5.27-5.23-8.75-10.94-10.58-4.67-1.49-9.17-4.09-14.19-3.27-2.5,.41-4.39,1.4-5.71,3.35,1.01,2.51,13.76,13.43,30.57,10.81l.27-.31Z"/>
          <path class="cls-12" d="M261.51,192.03c1,1.16,2.67,3.67,3.61,5.41-5.61-1.48-12.24,1.59-14.63,6.88-1.68-6.45,4.02-13.15,10.76-12.25l.25-.04Z"/>
          <path class="cls-12" d="M271.99,174.25c6.35,7.15,13.07,8.69,22.09,10.37,10.02,1.87,21.38,.1,28.99,8.47,3.11,3.42,6.27,9.71,4.53,14.38,18.85-10.95,7.79-35.78-8.36-43.56-9.64-4.64-21.16-3.66-31.52-3.11l-15.73,13.45Z"/>
          <path class="cls-9" d="M317.84,168.54c2.83-1.83,5.91-.79,8.71,.5l.08-.1c-2.26-2.04-4.75-3.77-7.39-5.04-4.47-2.15-9.35-3.09-14.33-3.42-1.98,.65-3.95,1.31-5.9,1.98-7.87,2.72-15.86,5.62-23.59,8.84l-3.44,2.94c6.35,7.15,13.07,8.69,22.09,10.37,10.02,1.87,21.38,.1,28.99,8.47,1.64,1.81,3.29,4.41,4.23,7.16,.16-2.44-.09-4.82-1.08-7.25-1.2-2.98-3.12-5.49-5.37-7.75-2.37-2.38-5.59-4.64-6.42-8.08-.76-3.14,.69-6.86,3.41-8.62Z"/>
          <path class="cls-23" d="M327.11,208.05c-.24-.21-.34-.54-.23-.84h0c.3-.83,.44-1.72,.44-2.65h0c.02-3.82-2.42-8.34-4.83-10.96h0c-7.23-8.03-18.32-6.37-28.56-8.23h0c-9.01-1.67-16.03-3.27-22.52-10.61h0c-.28-.31-.25-.79,.06-1.07h0c.31-.28,.79-.25,1.07,.06h0c6.2,6.97,12.63,8.44,21.66,10.13h0c9.8,1.87,21.44,0,29.41,8.71h0c2.6,2.87,5.2,7.55,5.22,11.98h0c0,.43-.03,.85-.08,1.27h0c5.67-3.9,7.95-9.17,7.96-14.79h0c.04-10.28-7.95-21.71-17.83-26.44h0c-5.8-2.8-12.36-3.52-18.99-3.52h0c-4.09,0-8.2,.27-12.15,.48h0c-.42,.03-.78-.3-.8-.71h0c-.02-.42,.3-.78,.72-.8h0c3.94-.21,8.07-.48,12.23-.48h0c6.73,0,13.53,.72,19.66,3.66h0c10.39,5.03,18.66,16.77,18.69,27.81h0c.01,6.57-3.04,12.9-10.27,17.09h0c-.12,.07-.25,.1-.38,.1h0c-.17,0-.35-.06-.49-.18h0Z"/>
          <path class="cls-12" d="M295.94,194.04c-.63,1.39-1.53,4.27-1.95,6.21,4.97-3,12.19-1.91,15.97,2.49-.2-6.67-7.55-11.49-13.77-8.74l-.25,.03Z"/>
          <path class="cls-5" d="M287.61,257.52s-10.38,8.28-22.45,5.03c-12.07-3.25-15.12-6.55-18.61-11.45,4.03,2.49,20.06,17.03,41.06,6.42Z"/>
          <path class="cls-5" d="M245.27,236.3c-2.47-2.04-1.83-6.1-1.38-8.85,.21-1.27,.67-2.36,1.1-3.58,3.25,5.09,6.45,9.68,11.82,12.81,5.27,3.07,11.36,4.46,17.25,5.76,3.83,.84,7.83,.9,11.7,.59,1.98-.16,3.96-.43,5.91-.81,1.47-.28,3.55-1.31,5.01-1.09,.88,.13-.79,3.56-.92,3.89-.61,1.54-1.02,2.39-2.61,3.15-2.25,1.37-24.34,7.49-47.87-11.88Z"/>
          <path class="cls-17" d="M278.92,262.68c-5.7,1.48-11.89,1.37-17.57-.32h0c-5.17-1.55-9.92-4.42-13.48-8.62h0c-8.13-9.59-6.66-20.5-3.92-30.87h0c.05-.21,.23-.37,.45-.39h0c.21-.02,.43,.08,.53,.28h0c4.84,9.11,13.19,14.94,22.71,17.79h0c14.03,4.21,30.54,1.86,41.67-6.01h0c.24-.17,.57-.11,.73,.13h0c.17,.24,.12,.57-.12,.74h0c-3.74,2.63-8.04,4.66-12.64,6.05h0c-.2,1.44-.51,2.85-.92,4.21h0c-2.42,8.12-8.44,14.67-17.44,17.01h0Zm16.43-17.31c.35-1.16,.62-2.36,.81-3.59h0c-9.22,2.55-19.53,2.56-28.82-.22h0c-9.32-2.79-17.62-8.41-22.7-17.14h0c-2.48,9.91-3.43,19.82,4.03,28.64h0c3.41,4.02,7.98,6.79,12.98,8.29h0c5.48,1.64,11.49,1.75,17,.31h0c8.64-2.25,14.35-8.48,16.7-16.29h0Z"/>
          <path class="cls-5" d="M302.13,239.69s-2.79,8.39-11.23,9.45c-8.44,1.05-.27-6-.27-6,0,0,8-1.88,11.5-3.45Z"/>
          <path class="cls-3" d="M260.72,248.5c.98,.35,1.96,.73,2.93,1.1,1.08,1.99,1.12,5.04,.31,6.53,.21-4.35-1.92-6.63-3.24-7.63Z"/>
          <g>
            <path class="cls-17" d="M273.29,223.69c-2.4,12.4,18.26,12.58,18.59,.3,1.29,4.16-2.61,10.34-9.23,10.14-13.5-.41-9.36-10.44-9.36-10.44Z"/>
            <path class="cls-8" d="M289.24,226.7c-1.37,.69-4.11-3.14-4.1-4.27,.02-2.18,2.49-2.91,3.94-1.39,1.24,1.29,2.23,4.62,.16,5.66Z"/>
          </g>
          <path class="cls-12" d="M225.68,232.95c-6.8-12.43-7.12-26.93-7.37-40.75-.19-10.68,2.31-23.72-4.52-32.98,3.9,.32,7.31,2.33,11,3.42,.05-3.69,.44-6.26,2.75-9.32,2.09-2.77,4.84-5.4,7.69-7.37-.25,2.65-.42,5.11,1.14,7.38,1.58,2.31,3.42,4.17,4.71,6.72,3.34,6.58,5.2,13.73,4.84,21.13-.2,4.11-1.34,8.19-3.34,11.8-7.35,13.26-12.92,25.55-16.61,40.43l-.29-.46Z"/>
          <path class="cls-9" d="M225.68,232.95l.29,.46c2.23-9.01,5.12-18.11,8.87-26.72-.88-1.08-2.3-1.55-4.54-1.01-3.12,.76-3.63,4.98-4.25,7.61-1.41,5.92-3.57,13.86-.04,19.43l-.43,.04c.03,.06,.06,.12,.09,.18Z"/>
          <path class="cls-23" d="M225.78,234.15c-.29-.07-.51-.31-.56-.59h0c-.08-.06-.16-.14-.21-.24h0c-6.91-12.64-7.21-27.28-7.46-41.09h0c0-.41-.02-.82-.02-1.24h0c0-4.06,.31-8.37,.3-12.63h0c0-6.8-.78-13.41-4.66-18.67h0c-.18-.24-.2-.56-.05-.83h0c.14-.26,.43-.41,.72-.39h0c3.75,.32,6.96,2.06,10.2,3.15h0c.12-3.24,.67-5.86,2.88-8.75h0c2.15-2.83,4.95-5.52,7.86-7.53h0c.24-.17,.56-.18,.82-.03h0c.26,.15,.4,.43,.37,.73h0c-.09,.91-.16,1.77-.16,2.59h0c0,1.58,.25,2.95,1.17,4.29h0c1.52,2.24,3.39,4.13,4.76,6.8h0c3.11,6.12,4.97,12.75,4.96,19.64h0c0,.62-.01,1.25-.04,1.87h0c-.2,4.22-1.37,8.41-3.43,12.13h0c-7.33,13.23-12.86,25.44-16.53,40.24h0c-.09,.35-.4,.58-.74,.58h0c-.06,0-.12,0-.18-.02h0Zm-6.42-55.8c0,4.33-.31,8.65-.31,12.63h0c0,.4,0,.81,.01,1.21h0c.23,13.37,.57,27.24,6.63,39.18h0c3.71-14.14,9.15-26.02,16.21-38.76h0c1.94-3.5,3.05-7.47,3.24-11.46h0c.03-.6,.04-1.2,.04-1.8h0c0-6.61-1.78-13.01-4.8-18.95h0c-1.22-2.42-3.03-4.25-4.66-6.64h0c-1.14-1.65-1.44-3.42-1.44-5.15h0c0-.35,.01-.71,.03-1.06h0c-2.3,1.78-4.48,3.96-6.19,6.23h0c-2.2,2.93-2.53,5.21-2.6,8.87h0c0,.24-.11,.46-.31,.6h0c-.19,.15-.44,.19-.66,.12h0c-3.23-.96-6.15-2.52-9.2-3.15h0c3.34,5.41,3.99,11.8,3.99,18.13h0Z"/>
          <path class="cls-12" d="M227.95,194.15c-2.63,11.23,.93,24.5,8.72,32.76,2.03-14.89-1.3-30.96,13.36-40.78l-22.08,8.02Z"/>
          <path class="cls-9" d="M249.86,186.21c-2.72,.65-8.7,2.86-11.14,1.51-3.64,5.61-3.33,13.44-3.76,19.85-.32,4.8-1.04,13.62,1.31,17.92l.61-.33c1.01-.54,.66-9.4,.74-10.73,.21-3.57,.45-7.15,1.15-10.66,1.43-7.2,5.22-13.18,11.09-17.57Z"/>
          <path class="cls-23" d="M236.28,227.27c-5.58-5.92-9-14.32-9.62-22.76h0c-.26-3.55-.02-7.1,.77-10.48h0c.07-.28,.35-.46,.63-.39h0c.28,.06,.46,.35,.4,.63h0c-.77,3.27-1,6.72-.75,10.17h0c.57,7.81,3.64,15.62,8.58,21.27h0c1.72-14.41-1.13-30.21,13.44-40.01h0c.24-.16,.57-.1,.73,.14h0c.16,.24,.1,.57-.14,.73h0c-14.35,9.59-11.11,25.35-13.14,40.41h0c-.02,.2-.17,.37-.36,.43h0s-.08,.02-.13,.02h0c-.16,.01-.31-.05-.42-.16h0Z"/>
          <path class="cls-12" d="M229.44,168.92c1.56-21.73,24.95-24.83,41.66-22.53,12.14,1.67,39.36,10.93,47.51-4.44,.18-.34,3.46,7.77,3.64,8.59,.72,3.29,.99,5.75-.46,8.93-2.6,5.72-8.47,10.2-13.64,13.29-8.65,5.18-17.09,5.93-26.67,5.28-10.37-.71-21.56-2.28-29.79,6.77l-22.25-15.9Z"/>
          <path class="cls-9" d="M322.25,150.54c-.15-.67-2.32-6.09-3.24-7.97-.56,.59-.55,1.65-.23,2.94,.85,3.49,.85,6.18-.37,9.67-4.2,12-20.54,18.34-32.26,15.15-6.9-1.88-12.96-7.29-20.25-7.38l-15.86,18.02,1.65,3.84c8.23-9.05,19.42-7.48,29.79-6.77,9.59,.65,18.02-.1,26.67-5.28,5.16-3.09,11.04-7.58,13.64-13.29,1.45-3.18,1.18-5.65,.46-8.93Z"/>
          <path class="cls-23" d="M251.39,184.83c-.31-.28-.33-.77-.04-1.08h0c5.59-6.12,12.6-7.48,19.6-7.47h0c3.61,0,7.25,.35,10.75,.6h0c1.9,.13,3.75,.21,5.57,.21h0c7.25,0,13.84-1.26,20.62-5.26h0c5.09-3.01,10.83-7.4,13.27-12.81h0c.7-1.55,.96-2.86,.96-4.22h0c0-1.27-.23-2.6-.58-4.15h0c-.08-.41-1.95-5.04-2.93-7.19h0c-3.9,6.04-10.98,7.85-18.53,7.84h0c-10.47,0-22.23-3.42-29-4.35h0c-2.96-.41-6.12-.66-9.33-.66h0c-14.82,.05-30.17,5.06-31.35,22.18h0c-.03,.42-.39,.74-.81,.71h0c-.42-.03-.74-.39-.71-.81h0c1.27-18.28,17.85-23.65,32.87-23.6h0c3.29,0,6.52,.25,9.54,.67h0c6.97,.98,18.61,4.34,28.79,4.34h0c7.83-.01,14.55-1.95,17.84-8.12h0c.05-.15,.25-.47,.72-.49h0c.75,.16,.57,.34,.71,.41h0c.07,.1,.13,.2,.19,.32h0c.13,.24,.28,.56,.46,.93h0c.34,.75,.77,1.75,1.21,2.77h0c.86,2.08,1.68,4.12,1.82,4.71h0c.36,1.59,.61,3.03,.61,4.49h0c0,1.56-.31,3.14-1.09,4.85h0c-2.71,5.91-8.68,10.39-13.89,13.49h0c-7.03,4.17-13.97,5.47-21.39,5.47h0c-1.86,0-3.74-.08-5.68-.22h0c-3.53-.25-7.13-.6-10.64-.6h0c-6.84,0-13.26,1.28-18.48,6.98h0c-.15,.16-.36,.25-.56,.25h0c-.18,0-.37-.07-.52-.2h0Z"/>
          <path class="cls-12" d="M265.54,163.03c7.54,5.44,13.11,20.45,16.72,29.11-2.59-1.2-5.33-2.6-8.06-3.43-3.69-1.13-7.8-2.39-11.61-3.32-4.8-1.17-4.84-.13-8.43,2.23-5.14,3.39-11.85,2.78-16.54-1.12l27.92-23.48Z"/>
          <path class="cls-9" d="M282.07,192.05c-.87-2.49-2.67-5.03-3.95-6.51-3.09-3.56-8.63-6.16-13.32-5.69-5.42,.54-9.35,3.68-14.07,5.9-4.09,1.93-8.07,1.47-12.29,.22,.28,.43,.37,.91,.37,1.41,4.6,3.09,10.63,3.36,15.36,.24,3.58-2.36,3.63-3.41,8.43-2.23,3.8,.93,7.92,2.19,11.61,3.32,2.66,.81,5.33,2.16,7.87,3.34Z"/>
          <path class="cls-23" d="M281.94,192.83c-2.6-1.21-5.33-2.59-7.96-3.39h0c-3.69-1.13-7.79-2.39-11.56-3.31h0c-1.32-.32-2.24-.46-2.92-.46h0c-1.65-.02-2.22,.79-4.91,2.59h0c-2.4,1.58-5.12,2.34-7.83,2.34h0c-3.44,0-6.86-1.22-9.62-3.51h0c-.32-.27-.37-.75-.1-1.07h0c.26-.33,.75-.37,1.07-.1h0c2.49,2.06,5.57,3.16,8.65,3.16h0c2.43,0,4.85-.68,6.99-2.09h0c2.46-1.61,3.39-2.83,5.75-2.84h0c.88,0,1.91,.17,3.28,.5h0c3.83,.94,7.95,2.2,11.65,3.33h0c2.18,.67,4.34,1.67,6.39,2.63h0c-3.6-8.81-8.99-22.16-15.72-26.98h0c-.34-.24-.42-.72-.17-1.06h0c.24-.34,.72-.42,1.06-.17h0c7.86,5.73,13.35,20.79,16.98,29.43h0c.12,.29,.05,.63-.17,.84h0c-.14,.14-.34,.21-.53,.21h0c-.11,0-.22-.02-.32-.07h0Z"/>
          <path class="cls-7" d="M234.99,194.87c1.01-3.12-1.56-5.09-3.96-2.38-2.5,2.83-2.77,10.32-.91,12.82,1.31-3.51,3.72-6.88,4.87-10.45Z"/>
          <path class="cls-7" d="M271.29,174.86c.13,.45,.24,.91,.33,1.37-3.39-2.24-6.23-3.85-10.24-4.62-3.2-.61-6.92-.91-9.1-3.67-2.17-2.74-3.29-6.9,1.41-7.42,4.09-.46,7.97,1.56,10.83,4.3,2.94,2.81,5.61,6.13,6.76,10.05Z"/>
          <path class="cls-7" d="M238.4,168.52c-4.87,3.06-5.28-3.37-4.66-6.4,.72-3.52,2.61-5.95,5.42-8.11,5.24-4.04,12.86-6.32,19.47-5.88,2.66,.18,5.14,.71,7.68,1.52-5.78,.21-12.32,1.03-17.23,4.37-5.11,3.47-5.94,11.52-10.69,14.5Z"/>
          <path class="cls-7" d="M304.08,152.92c3.23-2.93,8.67-1.14,12.04-3.89-.93,4.02-4.05,8-8.38,8.49-.44,.05-.89,.05-1.34,.01-2.7-.24-5.2-2.01-2.33-4.61Z"/>
          <path class="cls-7" d="M331.5,183.41c5.14-.99,3.5,10.07,2.72,12.31-.81,2.31-2.23,4.38-3.99,6.07,2.82-2.7-2.23-17.7,1.26-18.38Z"/>
          <g>
            <path class="cls-18" d="M253.79,214.75s-2.2-14.27,7.84-15.9c9.75-1.58,12.82,7.2,13.17,11.91,.35,4.72-.06,7.85-7.62,8.91-8.17,1.14-12.69-.26-13.4-4.92Z"/>
            <path d="M253.67,213.98s-3.7-14.04,7.08-15.58c11.92-1.72,13.6,6.87,13.95,11.6,.35,4.72-.06,7.85-7.62,8.91-8.17,1.14-12.69-.25-13.4-4.92Z"/>
            <path class="cls-5" d="M253.72,214.26s-2.49-13.23,7.55-14.85c9.74-1.58,13.16,6.37,13.48,10.89,.32,4.52-.1,7.54-7.67,8.6-8.17,1.15-12.68-.16-13.36-4.64Z"/>
            <g>
              <path class="cls-4" d="M260.51,211.35c-.49-3.22,1.73-6.23,4.95-6.71,3.22-.49,6.22,1.72,6.71,4.94,.49,3.22-1.72,6.22-4.94,6.72-3.22,.49-6.23-1.72-6.72-4.94Z"/>
              <path class="cls-16" d="M261.09,211.26c-.44-2.9,1.55-5.6,4.45-6.04s5.6,1.55,6.04,4.45c.44,2.9-1.55,5.6-4.45,6.04-2.9,.44-5.6-1.55-6.04-4.45Z"/>
              <path class="cls-25" d="M263.72,210.86c-.22-1.45,.78-2.8,2.22-3.02,1.44-.22,2.8,.78,3.02,2.23,.22,1.45-.78,2.8-2.22,3.02-1.45,.22-2.8-.77-3.02-2.23Z"/>
              <path class="cls-5" d="M261.17,208.86c-.2-1.29,.69-2.49,1.98-2.69,1.29-.2,2.49,.69,2.68,1.98,.2,1.29-.69,2.49-1.97,2.68-1.29,.2-2.49-.69-2.69-1.97Z"/>
            </g>
          </g>
          <g>
            <path class="cls-18" d="M309,217.73s2.77-14.17-7.2-16.2c-9.68-1.97-13.1,6.68-13.64,11.37-.54,4.7-.26,7.85,7.26,9.21,8.11,1.47,12.69,.25,13.58-4.38Z"/>
            <path d="M309.15,216.96s4.26-13.88-6.44-15.86c-11.85-2.19-13.86,6.32-14.4,11.03-.54,4.7-.26,7.85,7.26,9.2,8.12,1.47,12.69,.26,13.59-4.37Z"/>
            <path class="cls-5" d="M309.09,217.23s3.02-13.11-6.94-15.14c-9.67-1.97-13.4,5.84-13.9,10.34-.5,4.51-.2,7.54,7.32,8.9,8.12,1.48,12.67,.35,13.53-4.1Z"/>
            <g>
              <path class="cls-4" d="M302.43,214.05c.62-3.2-1.48-6.29-4.67-6.91-3.2-.62-6.29,1.47-6.91,4.67-.62,3.2,1.47,6.29,4.67,6.91,3.2,.62,6.29-1.47,6.91-4.67Z"/>
              <path class="cls-16" d="M301.84,213.94c.56-2.88-1.32-5.66-4.2-6.22-2.88-.56-5.66,1.32-6.21,4.2-.56,2.88,1.32,5.66,4.2,6.22,2.88,.56,5.66-1.33,6.21-4.2Z"/>
              <path class="cls-25" d="M299.24,213.44c.28-1.44-.66-2.83-2.1-3.11-1.44-.28-2.83,.67-3.11,2.1-.28,1.44,.67,2.83,2.1,3.11,1.44,.28,2.83-.66,3.11-2.1Z"/>
              <path class="cls-5" d="M301.86,211.55c.25-1.28-.59-2.52-1.87-2.76-1.28-.25-2.51,.59-2.76,1.87-.25,1.28,.59,2.51,1.87,2.76,1.28,.25,2.52-.59,2.76-1.87Z"/>
            </g>
          </g>
        </g>
        <path class="cls-20" d="M225.54,33.68s28.05,41.61,8.2,51.52c-19.85,9.91-68.15-32.41-109.12-19.92l100.92-31.6Z"/>
        <path class="cls-14" d="M225.54,33.68l-81.43,25.49c-.13,1.27-.18,2.55-.16,3.85,16.33,.72,32.92,7.11,47.74,13.08l.37-.4c-5.7-15.77,22.75-27.96,34.87-21.2,4.76,2.66,8,7.17,10.55,11.57,1.11,1.92,2.14,2.63,3.12,2.51-1.96-15.47-15.05-34.9-15.05-34.9Z"/>
        <path class="cls-19" d="M124.17,66.11c-.22-.12-.39-.32-.46-.56h0s0-.03-.01-.05h0s0,0,0-.02h0s0-.02,0-.03h0s0,0,0-.02h0s0-.02,0-.03h0s0,0,0-.01h0s0-.02,0-.04h0s0,0,0,0h0c-.02-.18,.02-.36,.1-.53h0c.03-.05,.06-.1,.1-.14h0s0,0,0-.01h0s0,0,0,0h0c.11-.14,.27-.25,.45-.31h0l100.93-31.59c.39-.13,.83,.03,1.07,.38h0c-.02,.13,19.43,28.43,14.7,44.77h0c-1.02,3.42-3.22,6.33-6.87,8.13h0c-5.41,2.68-12.41,1.75-20.52-.67h0c-13.02-3.93-29.05-11.92-45.83-16.97h0c-14.3-4.3-29.09-6.45-42.92-2.23h0c-.07,.02-.13,.03-.19,.04h-.01s0,0,0,0h0c-.12,0-.23,0-.34-.04h0c-.05-.02-.11-.04-.17-.07h0Zm13.89-4.05c10.11-.46,20.37,1.54,30.3,4.53h0c16.97,5.11,33.07,13.13,45.84,16.96h0c7.95,2.41,14.54,3.11,19.11,.8h0c3.19-1.61,4.98-3.99,5.9-6.99h0c2.22-7.22-1.28-18.12-5.5-27.1h0c-3.48-7.46-7.35-13.6-8.57-15.47h0l-87.08,27.26h0Z"/>
        <path class="cls-20" d="M100.81,5.56c21.63-6.55,44.41-5.72,66.12-.07,17.38,4.52,47.16,13.64,58.61,28.18-14.98,10.37-31.69,18.13-45.48,30.2-46.15,40.41-64.51,103.07-62.11,162.9,.68,16.81,8.52,106.69-51.68,64.99C4.7,249.12-5.3,166.95,3.92,123.89,13.65,78.42,38.07,24.54,100.81,5.56Z"/>
        <path class="cls-12" d="M1.24,164.52c1.42,26.57,8.61,56.98,24.68,83.75,20.69-9.16,57.41-20.81,92.59-9.03-.17-5.42-.45-9.84-.56-12.47-.81-20.13,.75-40.58,4.91-60.4-17.78-17.9-53.86-34.69-121.62-1.86Z"/>
        <path class="cls-12" d="M72.42,17.85C42.79,35.11,24.94,61.85,14.15,89.39c28.81-10.98,89.77-26.51,131.32,16.86,9.1-15.71,20.55-30.08,34.59-42.37,3.31-2.9,6.78-5.54,10.36-8.03-9.77-22.16-38.14-56.95-118-38Z"/>
        <path class="cls-14" d="M180.06,63.88c13.79-12.08,30.5-19.83,45.48-30.2-4.53-5.76-11.94-10.66-20.31-14.77,7.34,17.51-17.15,25.75-29.09,15.76,2.94,5.32,2.17,12.67,.52,18.34-3.17,10.92-13.51,17.09-21.55,24.38-8.8,7.99-14.95,15.66-27.59,15.02,4.66,4.44,6.09,9.1,6.06,15.39-.09,19.51-13.76,39.43-32.85,43.23,2.83,5,6.18,9.48,8.17,15.1,3.74,10.56,4.11,25.79,1.99,36.72-2.17,11.16-3.9,27.35-15.74,32.01,7.2,3.88,11.42,9.18,12.85,17.36,2.69,15.38-4.41,32.26-20.49,36.45-14.84,3.87-28.52-3.81-40.05-12.69,5.66,5.68,11.89,10.99,18.81,15.78,60.2,41.7,52.35-48.19,51.68-64.99-2.4-59.82,15.97-122.49,62.11-162.9Z"/>
        <path d="M84.51,302.25c-5.44-1.64-11.66-4.77-18.78-9.7h0C3.72,249.53-6.28,167.06,2.99,123.68h0c1.32-6.15,2.9-12.46,4.81-18.81h0C20.05,64.1,45.86,21.18,100.53,4.65h0c21.84-6.6,44.79-5.76,66.63-.08h0c3.35,.87,7.16,1.91,11.22,3.13h0c17.03,5.14,38.33,13.29,47.9,25.39h0c.16,.2,.23,.47,.19,.73h0c-.04,.26-.19,.49-.4,.64h0c-15.07,10.43-31.74,18.18-45.4,30.14h0c-25.64,22.45-42.67,51.83-52.29,83.8h0c-7.59,25.22-10.56,52.05-9.5,78.34h0c.33,8.52,2.57,36.05-3.34,55.75h0c-2.18,7.24-5.47,13.49-10.53,17.32h0c-5.04,3.82-11.82,5.07-20.42,2.48h0s-.06-.02-.09-.03h0ZM9.62,105.42c-1.9,6.3-3.47,12.56-4.78,18.66h0c-9.18,42.75,.82,124.62,61.96,166.91h0c7.01,4.86,13.06,7.89,18.25,9.45h0c16.39,4.84,24.29-4.4,28.67-18.5h0c5.78-19.16,3.62-46.56,3.27-55.12h0c-1.07-26.48,1.92-53.52,9.57-78.97h0c9.7-32.25,26.91-61.96,52.86-84.69h0c13.67-11.96,30.05-19.66,44.72-29.69h0c-9.27-11.01-29.79-19.01-46.31-23.95h0c-4.03-1.21-7.82-2.25-11.15-3.11h0C145.1,.8,122.52-.01,101.09,6.47h0C47.19,22.78,21.81,64.96,9.62,105.42h0Z"/>
        <path class="cls-6" d="M14.81,212.75c6.42,17.26,17.61,25.04,36,22.11,18.07-2.88,34.1-12.11,39.84-30.33,6.18-19.62,.24-44.27-20.81-51.56-13.81-4.78-46.07-2.33-56.9,9.34-10.53,11.36-2.76,37.96,1.87,50.43Z"/>
        <path class="cls-6" d="M131.54,15.88c-30.61-9.11-57.36,4-80.77,22.71-8.78,7.02-21.24,17.71-19.06,30.41,2.8,16.29,39.58,.63,51.45,2.99,22.61,4.5,37.58,3.86,55.62-13.26,15.01-14.25,14.94-36.25-7.23-42.85Z"/>
        <path class="cls-6" d="M70.99,81.22c-19.29,.76-42.28,.03-55.05,17.05-9.1,12.12-13.4,31.5-5.9,45.45,7.04,13.09,31.32,1.57,42.6,.19,18.58-2.27,31.91-6.74,40.16-25.27,8.96-20.1,1.42-38.34-21.81-37.43Z"/>
        <path class="cls-6" d="M70.45,278.34c13.15-13.11-3.99-37.11-19.27-36.62-38.46,1.26,7.27,48.58,19.27,36.62Z"/>
        <path class="cls-6" d="M154.95,11.61C160.34,.47,114.46-.02,122.38,9.95c2.35,2.96,12.98,3.16,16.42,3.38,3.04,.19,14.55,1.6,16.16-1.72Z"/>
        <path class="cls-6" d="M47.61,97.74c8.31-17.05-14.56-6.48-20.15-1.04-9.07,8.84-13.81,22.73-5.06,33.48,7.76,9.53,8.86-5.17,10.61-11.08,2.88-9.74,10.59-13.14,14.6-21.37Z"/>
        <path class="cls-6" d="M26.96,211.51c4.2-1.31,.96-21.64,1.82-25.66,1.3-6.09,7.62-13.13,6.17-19.6-1.09-4.84-5.4-7.62-10.24-6.5-14.82,3.43-7.46,54.79,2.25,51.76Z"/>
        <path class="cls-6" d="M105.42,26.23c-3.26-13.29-26.88-2.8-33.16,1.88-7.18,5.34-14.36,11.54-17.52,20.19-4.08,11.17,1.17,15.76,11.05,9.98,9.36-5.47,18.01-12.47,27.36-18.11,4.39-2.65,13.88-7.42,12.28-13.94Z"/>
        <path class="cls-24" d="M108.52,397.05c5.57,5.71,9.46,11.96,16.29,16.57,9.06,6.12,16.96,5.53,27.23,3.94,7.47-1.16,16.22-3.9,23.63-1.51,3.69,1.19,6.98,3.55,10.86,4.2,3.2,.54,5.77-.63,8.87-.76,7.7-.32,11.93,4.47,19.84,.89,4.39-1.99,7.66-3,12.55-2.87,5.15,.13,9.7,.5,13.43-3.11-7.77,1.17-15.35,2.8-23.41,2.86-18.73,.14-31.05-5.41-47.01-14.25-16.1-8.91-21.8,7.23-37.31,2.7-13.54-3.96-18.28-20.93-31.23-24.55-12.4-3.46-17.2,5.6-17.15,17.03,2.03,3.11,4.89,4.44,9.08,.9,5.36-4.54,8.21-8.31,14.33-2.04Z"/>
        <path class="cls-5" d="M95.13,387.24c-4.64,1.59-8.29,6.52-13.46,6.41-5.73-.12-8.48-5.59-7.42-10.73,1.09-5.29,4.7-7.51,9.86-7.49-4.99-8.96,13.26-13.51,17.55-3.6,1.29-4.76,7.52-2.35,10.12-.24,4.33,3.53,3.69,8.32,3.96,13.38,4.01-6.59,7.46,5.87,8.41,7.81,1.97,4,5.67,8.79,9.92,10.45,11.11,4.36,18.97-7.05,29.42-6.03,7.03,.69,12.49,6.65,17.06,11.47-5.23-.85-9.21-5.23-14.41-6.23-5.9-1.13-8.93,1.7-13.77,4.38-3.26,1.81-9.79,2.28-13.56,2.54-5.69,.4-10.2-1.49-14.63-5.02-9.39-7.48-14.7-22.04-29.05-17.12Z"/>
        <path class="cls-5" d="M197.14,411.61c-1.03-5.84,5.12-6.76,8.49-3.26,3.2,3.32,3.65,5.4,8.68,6.64,3.23,.8,8.5,1.7,11.66,.18,3.97-1.9,4.57-5.4,9.88-4.14,4.23,1,8.46,2.55,12.76,3.52-2.56,2.48-9.15,2.84-12.62,3.66-4.37,1.04-8.71,1.89-13.2,2.27-4.57,.38-8.95,.98-13.54,.8-4.26-.17-7.15-1.88-11.19-2.82-2.44-.57-4.66-.04-7.06-.18-2.25-.13-5.42-.3-6.48-2.74-.95-2.19,.22-4.77,2.86-4.09-1.28-2.89,.31-5,3.15-5.12,2.97-.12,5.34,2.85,6.6,5.27Z"/>
      </g>
    </g>
  </g>
</svg>