<?xml version="1.0" encoding="UTF-8"?>
<svg xmlns="http://www.w3.org/2000/svg" xmlns:xlink="http://www.w3.org/1999/xlink" viewBox="0 0 86.73 134.64">
  <defs>
    <style>
      .cls-1 {
        fill: #9be6ff;
      }

      .cls-2 {
        fill: #89b6ff;
        opacity: .15;
      }

      .cls-2, .cls-3 {
        mix-blend-mode: multiply;
      }

      .cls-4 {
        fill: #ffb5ae;
      }

      .cls-5 {
        fill: #fff;
      }

      .cls-6 {
        fill: #ff4866;
      }

      .cls-7 {
        fill: url(#_Áåçûìÿííûé_ãðàäèåíò_49);
      }

      .cls-8 {
        fill: #d62d00;
      }

      .cls-9 {
        fill: #77c7ff;
      }

      .cls-10 {
        fill: #de1b40;
      }

      .cls-11 {
        isolation: isolate;
      }

      .cls-12 {
        fill: #ffe572;
      }

      .cls-13 {
        fill: url(#_Áåçûìÿííûé_ãðàäèåíò_49-2);
      }

      .cls-14 {
        fill: #1d8aff;
      }

      .cls-15 {
        fill: #ffbd27;
      }

      .cls-16 {
        fill: #ffca52;
      }

      .cls-17 {
        fill: #b1cfff;
        mix-blend-mode: screen;
        opacity: .46;
      }

      .cls-18 {
        fill: #ffd26c;
      }

      .cls-19 {
        fill: #ff9f00;
      }

      .cls-20 {
        fill: #ff6432;
      }

      .cls-21 {
        fill: #5fb8ff;
      }

      .cls-22 {
        fill: #e5e5e5;
      }

      .cls-23 {
        fill: #853408;
      }

      .cls-24 {
        fill: #ff3e00;
      }

      .cls-25 {
        fill: #ff5c66;
      }

      .cls-26 {
        fill: #761b0d;
      }

      .cls-27 {
        fill: #3da5ff;
      }

      .cls-28 {
        fill: #d9d9d9;
      }

      .cls-29 {
        fill: #8fefff;
      }

      .cls-3 {
        fill: #4e91ff;
        opacity: .27;
      }

      .cls-30 {
        fill: #bd2100;
      }

      .cls-31 {
        fill: #8dd7ff;
      }
    </style>
    <linearGradient id="_Áåçûìÿííûé_ãðàäèåíò_49" data-name="Áåçûìÿííûé ãðàäèåíò 49" x1="21.42" y1="43.27" x2="27.25" y2="43.27" gradientUnits="userSpaceOnUse">
      <stop offset="0" stop-color="#ffca52"/>
      <stop offset="1" stop-color="#9c5e1b"/>
    </linearGradient>
    <linearGradient id="_Áåçûìÿííûé_ãðàäèåíò_49-2" data-name="Áåçûìÿííûé ãðàäèåíò 49" x1="32.17" y1="38.32" x2="37.61" y2="38.32" xlink:href="#_Áåçûìÿííûé_ãðàäèåíò_49"/>
  </defs>
  <g class="cls-11">
    <g id="Layer_2" data-name="Layer 2">
      <g id="_Ñëîé_2" data-name="Ñëîé 2">
        <g>
          <g>
            <path class="cls-16" d="M2.77,77.16c-.43,3.43-.82,6.87-1.17,10.32-.7,6.92-1.22,13.85-1.58,20.79-.04,.86-.07,1.77,.37,2.5,1.08,1.81,3.81,1.22,5.76,.41,4.14-1.72,8.32-3.36,12.53-4.91,13.59-5.02,27.43-8.88,41.47-12.24,2.71-.65,5.45-1.24,8.19-1.76,2.17-.42,5.97-.13,6.18-3.15,.08-1.12-.36-2.2-.79-3.23-.88-2.09-1.56-4.54-2.72-6.49-4.04-6.75-8.78-13.32-13.3-19.79-1.67-2.39-3.36-4.77-5.06-7.15-4.12-5.75-8.33-11.43-12.57-17.09-2.12-2.83-4.25-5.65-6.38-8.47-2.91-3.85-6.93-6.86-10.93-9.55-2.18-1.47-4.01,1.03-5.44,2.54-1.62,1.7-3.02,3.56-4.31,5.52-1.66,2.52-3.18,5.12-3.89,8.08-.8,3.35-1.13,6.83-1.76,10.21-.5,2.65-1.45,5.42-1.2,8.14,.11,1.17,.17,2.21-.02,3.38-.57,3.57-1.24,7.13-1.79,10.71-.57,3.73-1.1,7.48-1.57,11.23Z"/>
            <path class="cls-15" d="M73.98,86.54c-.11,.85-.63,1.68-1.33,2.2-1.03,.78-2.34,1.05-3.61,1.31-4.88,.98-9.76,1.97-14.64,2.95-3.63,.73-7.27,1.47-10.92,2.11-4.08,.71-8.25,1.31-12.33,.65-1.69-.28-3.34-.76-5.04-1-3.23-.44-6.53,.05-9.62,1.1-2.21,.75-5.28,1.49-6.37-.58-.51-.97-.26-2.15-.42-3.24-.16-1.09-1.19-2.26-2.18-1.79-.33,.16-.56,.46-.89,.63-.88,.44-1.95-.45-2.07-1.43-.12-1,.51-1.72,.65-2.65,.4-2.56,1.65-4.88,2.22-7.42,.69-3.1,.39-6.32,.26-9.5-.25-5.81,.08-11.64,.95-17.39,.13,.17,.3,.32,.5,.44,1.44,.86,2.72-.61,3.4-1.72,.66-1.08,1.05-2.28,1.22-3.53,.17-1.22,.05-2.57-.42-3.72-.27-.66-.79-1.24-1.47-1.49-.35-.13-.73-.13-1.09-.05,.5-1.77,1.23-3.65,2.87-4.44-.71-.12-1.11-.94-1.02-1.65,.09-.71,.55-1.31,1.01-1.86,4.03-4.81,9.74-8.17,15.9-9.36-.33-.86,.44-1.44,1.2-1.52-2.42-2.35-5.2-4.37-7.98-6.24-2.18-1.47-4.01,1.03-5.44,2.54-1.62,1.7-3.02,3.56-4.31,5.52-1.66,2.52-3.18,5.12-3.89,8.08-.8,3.35-1.13,6.83-1.76,10.21-.5,2.65-1.45,5.42-1.2,8.14,.11,1.17,.17,2.21-.02,3.38-.57,3.57-1.24,7.13-1.79,10.71-.57,3.73-1.1,7.48-1.57,11.23-.43,3.43-.82,6.87-1.17,10.32-.7,6.91-1.22,13.85-1.58,20.79-.04,.86-.07,1.77,.37,2.5,1.08,1.81,3.81,1.22,5.76,.41,4.14-1.72,8.32-3.36,12.53-4.91,13.59-5.02,27.43-8.88,41.47-12.24,2.71-.65,5.45-1.24,8.19-1.76,2.17-.42,5.97-.13,6.18-3.15,.06-.88-.2-1.74-.53-2.57Z"/>
            <path class="cls-19" d="M70.17,91.34c-7.49,1.65-14.97,3.3-22.46,4.95-5.67,1.25-11.34,2.5-17.07,3.45-2.58,.43-5.16,.8-7.7,1.41-4.4,1.05-8.63,2.8-12.47,5.18-.39,.24-.79,.49-1.25,.54-1.66,.15-2.18-2.24-1.78-3.86,.4-1.62,.9-3.71-.49-4.63-.53,.38-1.06,.77-1.59,1.15-1.37-1.45-2.31-3.3-2.66-5.26-.3-1.66-.18-3.36,.1-5.02,.46-2.7,1.14-5.53,2.11-8.08,.41-1.07,.89-2.16,.85-3.31-.03-.85-.34-1.66-.53-2.5-.38-1.73-.19-3.52,0-5.28,.44-4.07,.88-8.14,1.32-12.21,.09-.83,.18-1.67,.27-2.5,.38-3.49,.76-6.98,1.3-10.45,.39-2.48,1-5.18,2.97-6.73-.78-.34-.89-1.45-.54-2.23,.35-.78,1-1.38,1.42-2.12,.26-.46,.42-.97,.7-1.42,.47-.75,1.21-1.26,1.95-1.74,2.67-1.74,5.49-3.26,8.41-4.54,1.37-.6,2.75-1.15,4.16-1.64,.44-.15,.59-.21,.87-.57,.2-.25,.39-.47,.63-.68,.29-.24,.6-.46,.89-.71-2.14-1.91-4.5-3.6-6.85-5.19-2.18-1.47-4.01,1.03-5.44,2.54-1.62,1.7-3.02,3.56-4.31,5.52-1.66,2.52-3.18,5.12-3.89,8.08-.8,3.35-1.13,6.83-1.76,10.21-.5,2.65-1.45,5.42-1.2,8.14,.11,1.17,.17,2.21-.02,3.38-.57,3.57-1.24,7.13-1.79,10.71-.57,3.73-1.1,7.48-1.57,11.23-.43,3.43-.82,6.87-1.17,10.32-.7,6.91-1.22,13.85-1.58,20.79-.04,.86-.07,1.77,.37,2.5,1.08,1.81,3.81,1.22,5.76,.41,4.14-1.72,8.32-3.36,12.53-4.91,13.59-5.02,27.43-8.88,41.47-12.24,2.71-.65,5.45-1.24,8.19-1.76,2.17-.42,5.97-.13,6.18-3.15,.02-.23,0-.47-.02-.7-.09-.02-.17-.03-.27-.03-.17,1.79-2.3,2.57-4.05,2.96Z"/>
            <path class="cls-15" d="M13.44,78.25c-.93-.53-2.05-.33-2.76,.47-1.01,1.15-1.44,2.63-1.47,4.14,0,.31,0,.63,.01,.95-.14,.48-.19,1-.09,1.46,.28,1.18,1.51,1.59,2.53,1.03,.68-.37,1.22-.96,1.69-1.56,.86-1.11,1.4-2.62,1.35-4.03-.03-.97-.39-1.96-1.27-2.47Zm-1.36,3.36c0,.22-.09,.48-.18,.72,0-.02,0-.04,0-.06,0-.06,.01-.12,.02-.19,0-.03,0-.06,.01-.09,.02-.14,.02-.12-.01,.06-.03-.13,.08-.37,.12-.49,.01-.05,.03-.09,.05-.13,0,.05,0,.09-.01,.14,0,.06-.02,.12-.03,.19,0-.05,.02-.09,.02-.14Z"/>
            <path class="cls-15" d="M13.76,73.61c0-.33-.06-.64-.21-.94-.11-.22-.27-.43-.45-.59-.27-.24-.55-.37-.91-.34-.34,.03-.66,.21-.84,.51-.27,.45-.4,.92-.48,1.43-.04,.25,0,.51,.04,.76,.01,.08,.03,.15,.04,.23,.05,.21,.14,.37,.27,.53,.06,.07,.12,.12,.19,.16,.23,.25,.56,.4,.9,.3,.14-.04,.26-.12,.36-.22,.12,0,.23-.03,.33-.09,.19-.12,.37-.25,.48-.46,.05-.1,.1-.2,.14-.3,.17-.29,.18-.65,.15-.98Z"/>
            <path class="cls-15" d="M24.32,90.33c-.09-.55-.62-.93-1.14-1.03-.39-.08-.74-.11-1.14-.07-.43,.04-.81,.14-1.21,.31-.21,.09-.39,.22-.56,.36-.06,.05-.12,.1-.18,.16-.21,.2-.31,.42-.33,.71,0,.11,.01,.23,.06,.35-.11,.09-.21,.2-.29,.32-.2,.31-.11,.79,.22,.98,1.05,.58,2.42,.54,3.41-.15,.63-.44,1.32-1.11,1.17-1.95Z"/>
            <path class="cls-16" d="M22.47,97.7c-.31-1.08-1.36-1.65-2.42-1.74-.97-.09-1.92,.31-2.81,.66-.7,.27-1.38,.63-1.94,1.15-.28,.26-.54,.57-.72,.91-.11,.21-.21,.43-.28,.66-.17,.62,.1,1.22,.63,1.55,.29,.18,.66,.23,1,.15,.16,.05,.32,.08,.47,.1,.48,.04,.99-.06,1.46-.15,.54-.11,1.06-.3,1.57-.5,.98-.38,1.87-.98,2.69-1.64,.31-.25,.45-.76,.34-1.14Z"/>
            <path class="cls-16" d="M26.99,97.74c-.01-.09-.05-.18-.09-.26,0-.02-.02-.04-.03-.06-.08-.14-.18-.26-.32-.36-.1-.07-.22-.12-.33-.15-.17-.04-.35-.06-.52,0-.06,.02-.16,.06-.24,.09-.14,.06-.25,.2-.33,.31-.05,.08-.09,.17-.1,.26-.03,0-.05,0-.07,.02-.14,.05-.28,.21-.27,.37,0,.23,.08,.43,.25,.59,.14,.13,.3,.23,.49,.28,.21,.06,.4,.06,.61,.03,.05,0,.1-.02,.16-.04,.07-.02,.14-.05,.21-.08,.17-.05,.3-.18,.42-.32,.08-.08,.14-.18,.17-.28,.04-.15,.03-.25,.01-.4Z"/>
            <path class="cls-15" d="M67.84,83.26c-1.08-1.11-2.77-.99-4.01-.22-1.24,.77-2.39,1.97-3.07,3.27-.04,.07-.07,.14-.09,.21-.12,.21-.14,.46-.07,.68,.02,.12,.06,.24,.12,.36,.2,.37,.62,.66,1.04,.65,.09,0,.18-.01,.27-.02,1.05,.37,2.14,.64,3.27,.52,1.19-.12,2.44-.81,2.98-1.92,.55-1.13,.47-2.61-.45-3.55Z"/>
            <path class="cls-15" d="M72.03,85.86c-.01-.12-.03-.24-.06-.37-.07-.3-.2-.62-.38-.87-.05-.06-.09-.13-.14-.19l-.18-.15c-.07-.03-.14-.06-.21-.1-.12-.04-.23-.05-.35-.03-.08,0-.16,.01-.23,.05-.08,.02-.15,.06-.21,.11-.07,.04-.13,.09-.17,.16-.08,.08-.14,.18-.17,.3-.06,.13-.08,.28-.08,.42,0,.1,0,.22,.04,.32,.06,.22,.21,.42,.4,.54,.03,.12,.08,.24,.13,.35,.02,.03,.04,.06,.05,.09,.03,.07,.06,.13,.1,.19,0,0,0,0,0,0,0-.01-.02-.02-.02-.03,0,.01,.02,.02,.02,.04,0,0,.01,.01,.02,.02,.02,.03,.05,.07,.08,.11-.02-.03-.05-.07-.07-.1,.14,.21,.36,.36,.62,.37,.14,0,.27-.03,.4-.09,.12-.06,.21-.15,.29-.27,.08-.17,.16-.32,.16-.51,0-.13-.02-.26-.03-.38Z"/>
            <path class="cls-15" d="M12.51,56.26c-.04-.29-.14-.59-.29-.85-.19-.35-.44-.6-.75-.84-.25-.19-.61-.18-.89-.08-.13,.04-.24,.1-.34,.2-.13,.12-.22,.27-.27,.43-.16,.35-.24,.74-.28,1.12-.02,.23,0,.46,.04,.69,0,.08,.02,.15,.04,.22,.04,.2,.13,.35,.25,.48,.09,.17,.19,.33,.31,.47,.04,.04,.08,.07,.12,.1,.03,.04,.07,.08,.1,.11,.18,.17,.42,.31,.67,.31,.26,0,.52-.08,.71-.26,.26-.26,.44-.61,.53-.96,.1-.39,.11-.74,.05-1.14Z"/>
            <path class="cls-15" d="M29.69,28.54c-.04-.16-.11-.3-.22-.42-.07-.09-.14-.16-.22-.23-.13-.12-.27-.23-.42-.31-.33-.17-.7-.27-1.06-.25-.38,.02-.76,.09-1.08,.31-.31,.2-.61,.46-.77,.8-.1,.15-.15,.32-.16,.5,0,.19,.03,.37,.12,.53,.17,.32,.5,.51,.86,.54,.59,.04,1.18,0,1.76-.09,.15-.02,.3-.11,.43-.22,.11-.05,.22-.11,.33-.17,.25-.15,.4-.36,.45-.64,.03-.12,.03-.24,0-.36Z"/>
            <path class="cls-19" d="M7.73,90.65c-.35-.4-1.04-.41-1.41-.04-.5,.49-.87,1.06-1.09,1.71-.11,.31-.18,.65-.21,.98-.02,.21,.03,.4,.09,.6,.05,.2,.12,.38,.26,.54,0,0,0,0,.02,.01,.04,.09,.09,.18,.16,.25,.04,.04,.08,.06,.13,.09,0,.07-.01,.13,0,.2,.01,.31,.12,.58,.39,.74,.25,.16,.58,.17,.84,.03,.87-.48,1.41-1.35,1.58-2.32,.18-1.01-.08-2.02-.75-2.8Z"/>
            <path class="cls-19" d="M11.19,92.45s-.03-.05-.04-.07c-.06-.11-.13-.22-.24-.28-.04-.02-.07-.03-.11-.05-.06-.02-.12-.03-.17-.01-.04,0-.08,0-.12,.03-.01,0-.03,.02-.04,.02-.02,0-.04-.02-.06-.02-.07-.01-.14,0-.2,.03-.07,.04-.12,.1-.15,.18-.07,.16-.07,.34-.04,.51,.02,.12,.07,.22,.12,.32,0,0,0,.01,0,.02,.02,.08,.06,.15,.12,.21,.06,.07,.14,.13,.22,.18,.15,.09,.34,.1,.5,.02,.15-.08,.25-.24,.26-.41,0-.11,.01-.23,.02-.34,0-.12-.01-.24-.07-.34Z"/>
            <path class="cls-19" d="M12.83,82.42c-.25-.45-.79-.69-1.29-.57-.42,.1-.82,.48-.93,.9-.05,.19-.07,.4-.05,.59,0,.04,.02,.07,.03,.11-.33,.9,.03,1.91,.82,2.45,.28,.19,.62,.05,.81-.19,.48-.62,.74-1.37,.8-2.14,.03-.39,0-.8-.18-1.15Z"/>
            <path class="cls-19" d="M12.92,43.59c-.27-.35-.81-.29-1.11-.03-1.3,1.1-1.12,2.99-.7,4.46,.12,.43,.24,.87,.55,1.2,.48,.5,1.34,.47,1.73-.13,.26-.4,.28-.93,.31-1.39,0-.09,0-.17,0-.26,.36-1.32,.1-2.73-.77-3.85Z"/>
            <path class="cls-19" d="M12.75,40.9c.01-.11-.02-.25-.08-.34-.04-.07-.09-.13-.16-.17-.05-.03-.11-.05-.17-.06-.06-.02-.12-.02-.18,0-.07,.02-.14,.05-.2,.1-.04,0-.09,.01-.13,.04-.16,.09-.28,.26-.27,.46,0,.05,0,.1,.02,.15,.01,.05,.03,.1,.06,.14,.05,.08,.11,.13,.18,.18,0,0,.01,.02,.02,.03,.03,.04,.08,.07,.13,.09,.08,.08,.19,.15,.3,.15,.09,0,.16-.03,.22-.1,.02-.02,.04-.05,.05-.09,.01-.05,.02-.09,0-.14,0,0,0,0,0,0,.04-.03,.07-.08,.11-.12,.07-.09,.1-.2,.11-.31Z"/>
            <path class="cls-19" d="M67.04,85.97c-.37-.21-.8-.21-1.22-.18-.4,.03-.8,.09-1.18,.2-.43,.12-.86,.29-1.25,.5-.23,.12-.45,.27-.65,.42-.08,.06-.15,.13-.22,.21-.19,.16-.35,.36-.46,.58-.2,.39-.05,.77,.35,.94,1.37,.59,3.11,.48,4.37-.34,.37-.24,.7-.57,.82-1.01,.13-.52-.08-1.07-.55-1.33Z"/>
            <path class="cls-19" d="M61.65,89.53c-.05-.12-.14-.22-.27-.26-.08-.02-.16-.04-.23-.05-.08,0-.17,0-.25,.02-.13,.02-.26,.06-.38,.11-.09,.03-.17,.08-.25,.13-.05,.03-.1,.06-.14,.11-.04,.04-.08,.09-.11,.14-.07,.09-.13,.19-.12,.31,0,.11,.03,.23,.12,.31,.07,.07,.18,.14,.29,.13,.09,0,.18-.02,.26-.07,.02-.01,.04-.03,.06-.04,.02-.01,.04-.02,.06-.03,.01,0,.02-.02,.04-.03,.1,.02,.21,.02,.31,0,.1-.03,.19-.08,.28-.13,.06-.02,.11-.04,.16-.08,.06-.05,.1-.11,.15-.17,.08-.11,.08-.26,.03-.38Z"/>
            <g>
              <path class="cls-19" d="M37.73,97.48c-.72-.19-1.48-.21-2.21-.03-.29,.07-.58,.18-.84,.33-.19,.04-.37,.1-.52,.21,0,0,0,0-.04,0-.03,.01-.06,.03-.08,.05-.11,.06-.21,.14-.31,.22-.21,.16-.35,.4-.37,.66-.01,.04-.03,.08-.04,.12-.05,.27,0,.57,.27,.72,.24,.14,.5,.11,.72-.05,.04,0,.08,0,.13-.02,.09-.03,.15-.08,.24-.12,.02-.01,.05-.02,.08-.04,.06,0,.11-.01,.16-.03,.12-.03,.24-.06,.37-.08-.01,0,0,0,.04,0,0,0,0,0,0,0,.03,0,.07,0,.1-.01-.02,0-.04,0-.05,0,.08,0,.15,0,.22,0,.78,0,1.6,0,2.26-.47,.27-.19,.44-.43,.41-.77-.03-.3-.24-.61-.55-.69Z"/>
              <path class="cls-19" d="M35.33,99.42s-.02,0-.04,0c0,0,.04,0,.09-.01h0s-.03,0-.05,0Z"/>
            </g>
            <path class="cls-18" d="M53.38,60.03c.1-.32,.09-.67-.11-.96-1.23-1.8-2.43-3.62-3.58-5.47-1.07-2.37-1.87-4.86-2.96-7.22-.94-2.04-2.17-3.93-3.53-5.71-.83-1.09-1.71-2.1-2.45-3.25-.69-1.08-1.49-2.1-2.37-3.04-1.74-1.86-3.82-3.4-6.11-4.51-.14-.07-.28-.13-.44-.14-.34,0-.6,.29-.82,.55-1.68,1.92-4.46,2.81-6.94,2.24-.8-.19-1.7-.5-2.39-.05-.4,.26-.62,.72-.68,1.19-.11,.99,.46,1.95,1.2,2.62,.74,.67,1.64,1.14,2.44,1.73,1.05,.77,1.91,1.76,2.66,2.82,.73,1.06,1.24,2.25,1.95,3.31,.25,.37,.55,.63,.9,.91,.61,.5,1.06,1.08,1.54,1.71,3.96,5.15,7.66,10.69,12.97,14.58,1.3,.95,2.68,1.8,4.14,2.5,.78,.38,1.57,.74,2.45,.63,.72-.09,1.34-.5,1.76-1.08,.71-1,.75-2.24,.36-3.35Z"/>
            <path class="cls-18" d="M60.45,82.46c-.59,.48-1.21,1-1.54,1.7-.37,.78-.17,1.16,.01,1.9,.34,1.36-.67,2.79-1.83,3.4-1.38,.73-3.01,.74-4.57,.86-6.58,.51-12.89,3.24-19.49,3.26-2.17,0-4.85-.72-5.26-2.86-.1-.53-.04-1.08-.21-1.59-.62-1.86-3.31-1.53-5.14-2.21-.35-.13-.72-.35-.82-.71-.35-1.24,2.2-2.5,2.89-3.27,2.14-2.4,5.4-3.57,8.47-4.25,1.48-.33,3.17-.46,4.38,.46,1.06,.81,1.47,2.24,2.41,3.19,1.74,1.75,4.61,1.37,7.02,.86,2.15-.45,4.1-.68,6-1.92,.53-.35,1.05-.77,1.28-1.36,.25-.66,.1-1.39,.06-2.1-.03-.71,.14-1.53,.77-1.85,.52-.26,1.15-.08,1.71-.23,.85-.23,1.31-1.11,1.75-1.88,.46-.82,1.01-1.6,1.62-2.33,.43-.5,.98-1.02,1.64-.97,1.11,.09,1.41,1.53,1.84,2.55,.77,1.84,2.73,2.93,3.65,4.7,.14,.28,.26,.62,.13,.9-.13,.29-.46,.42-.76,.52-.99,.33-2.25,.55-3.12,1.12-.99,.64-1.94,1.37-2.86,2.11Z"/>
            <path class="cls-12" d="M35.06,31.17c-.57-1.03-1.36-1.93-2.31-2.63-.46-.34-.96-.62-1.49-.85-.37-.16-.64-.23-.99,.04-.21,.16-.38,.38-.51,.61-.07,.13-.13,.28-.18,.42-.12,.14-.22,.29-.3,.45-.4,.86-.14,1.8,.39,2.54,.58,.8,1.39,1.31,2.3,1.67,1.03,.41,2.33,.62,3.17,1.4,.3,.28,.86,.13,.87-.32,.02-1.14-.4-2.35-.95-3.34Z"/>
            <path class="cls-18" d="M14.83,55.52c.33,1.3,.75,2.79,0,3.9-.59,.87-1.7,1.2-2.47,1.91-1.45,1.34-1.35,3.67-.79,5.56,.08,.28,.19,.57,.43,.73,.59,.38,1.26-.35,1.94-.51,1.23-.28,1.99,1.24,2.44,2.41,.49,1.26,1.21,2.52,2.39,3.19,1.18,.67,2.9,.52,3.64-.61,.88-1.34,.01-3.13-1.04-4.33-1.06-1.2-2.39-2.38-2.54-3.97-.18-1.88,1.36-3.43,2.76-4.68,.65-.58,1.46-1.2,2.3-1,.49,.12,.86,.49,1.24,.81,.89,.76,1.94,1.35,3.05,1.71,.29,.09,.65,.16,.88-.05,.24-.22,.19-.6,.12-.91-.35-1.55-.7-3.1-1.05-4.65-.12-.55-.26-1.14-.65-1.55-.66-.7-1.79-.66-2.73-.41-.93,.25-1.88,.65-2.83,.49-1.36-.22-2.28-1.51-2.8-2.79-.53-1.27-.84-2.67-1.7-3.75-.17-.21-.41-.43-.68-.39-.26,.04-.43,.29-.56,.52-.75,1.38-1,2.81-1.21,4.34-.2,1.41-.5,2.61-.13,4.03Z"/>
          </g>
          <g>
            <circle class="cls-19" cx="71.62" cy="15.18" r="15.02"/>
            <path class="cls-9" d="M66.88,9.26c-.8,.46-1.69,8.42,3.32,14.46,0,0,9.35,0,15.36-2.94,0,0,3.82-8.09-2.3-15.09,0,0-6.1-2.36-16.38,3.56Z"/>
            <path class="cls-29" d="M66.88,9.26s-2.94-2.06-7.4-2.91c0,0,5.38-9.32,17.02-5.37,0,0,3.33,.43,6.77,4.72,0,0-8.29-1.07-16.38,3.56Z"/>
            <path class="cls-29" d="M79.4,10.04c2.05-.37,4.11-.64,6.17-.74-.53-1.2-1.28-2.42-2.31-3.6,0,0-6.1-2.36-16.38,3.56-.36,.21-.73,1.91-.59,4.28,4.09-1.89,8.73-2.72,13.12-3.5Z"/>
            <path class="cls-29" d="M67.59,19.32c.6,1.49,1.44,3,2.61,4.4,0,0,9.35,0,15.36-2.94,0,0,.81-1.73,1.08-4.28-6.17,1.73-12.63,2.23-19.05,2.81Z"/>
            <path class="cls-9" d="M79.52,2.26c-5.79-.06-12.07,1.18-16.31,5.15,2.29,.88,3.66,1.84,3.66,1.84,8.1-4.63,16.38-3.56,16.38-3.56-1.32-1.65-2.63-2.73-3.73-3.43Z"/>
            <path class="cls-31" d="M66.88,9.26c-3.04-3.33-7.4-2.91-7.4-2.91h0c-1.81,2.48-2.88,5.53-2.88,8.84,0,7.16,5.02,13.15,11.73,14.65l1.87-6.12c-5.5-7.23-3.32-14.46-3.32-14.46Z"/>
            <path class="cls-1" d="M66.46,13.09c-.03-2.33,.42-3.84,.42-3.84-3.04-3.33-7.4-2.91-7.4-2.91h0c-1.53,2.09-2.52,4.6-2.79,7.31,3.12-1.01,6.48-1.03,9.77-.57Z"/>
            <path class="cls-21" d="M58.32,22.15c2.02,3.85,5.65,6.71,10.01,7.69l1.87-6.12c-1.4-1.84-2.29-3.68-2.86-5.4-2.75,1.77-5.86,2.76-9.02,3.83Z"/>
            <path class="cls-27" d="M70.2,23.72l-1.87,6.12s11.9,3.91,17.23-9.06c0,0-6.1,2.94-15.36,2.94Z"/>
            <path class="cls-14" d="M69.33,26.72s-.03,0-.05,0l-.96,3.12s8.24,2.7,14.08-3.87c-4.23,1.05-8.73,1.05-13.07,.75Z"/>
            <path class="cls-2" d="M81.33,22.27c-3.54,1.58-9.05,2.73-12.13-.3-.13-.13-.22-.26-.28-.4-1.82,1.44-4.59,1.03-6.81-.68-.3-.23-.58-.48-.84-.74-.02-.01-.03-.02-.05-.04-2.36-1.85-3.29-4.38-3.61-7.1-.16-.81-.25-1.63-.29-2.43-.1,.32-.2,.64-.28,.97-.01,.04-.02,.08-.03,.13-.08,.33-.14,.65-.2,.99,0,.05-.02,.09-.02,.14-.06,.35-.1,.7-.13,1.06,0,.08-.01,.15-.02,.23-.03,.36-.04,.73-.04,1.1,0,.24,0,.48,.02,.72,0,.08,.01,.16,.02,.24,0,.16,.02,.32,.04,.48,0,.09,.02,.18,.03,.27,.02,.15,.03,.29,.06,.44,.01,.09,.03,.19,.04,.28,.02,.14,.05,.28,.08,.42,.02,.09,.04,.19,.06,.28,.03,.14,.06,.28,.1,.43,.02,.09,.04,.17,.06,.26,.04,.16,.09,.32,.14,.48,.02,.06,.04,.13,.05,.19,.07,.21,.14,.43,.21,.64,.03,.09,.07,.17,.1,.25,.05,.13,.1,.26,.15,.38,.04,.1,.08,.19,.13,.29,.05,.11,.1,.22,.15,.33,.05,.1,.1,.2,.15,.3,.05,.1,.1,.2,.15,.3,.05,.1,.11,.21,.17,.31,.05,.09,.1,.18,.16,.27,.06,.11,.12,.21,.19,.32,.05,.08,.1,.15,.15,.23,.27,.43,.57,.84,.88,1.23,.03,.04,.06,.08,.09,.12,.1,.12,.2,.24,.3,.36,.04,.05,.08,.1,.13,.15,.1,.12,.21,.23,.31,.34,.04,.04,.09,.09,.13,.14,.11,.11,.22,.23,.34,.34,.04,.04,.08,.07,.12,.11,.12,.12,.25,.23,.37,.34,.02,.02,.04,.03,.06,.05,.76,.67,1.58,1.26,2.47,1.76,.01,0,.03,.02,.04,.02,.17,.1,.34,.19,.52,.28,.01,0,.03,.01,.04,.02,.87,.45,1.78,.81,2.74,1.08,0,0,.01,0,.02,0,.26,.07,.53,.14,.8,.2,0,0,0,0,.03,0,0,0,.02,0,.03,0,.01,0,.03,0,.05,.01,.02,0,.05,.01,.08,.02,.01,0,.03,0,.05,.01,.04,.01,.08,.02,.12,.03,.01,0,.03,0,.04,0,2.02,.52,11.47,2.3,16.39-8.15,.16-.33,.31-.67,.45-1.02,0,0,.41-.88,.74-2.31-1.22,1.6-2.93,2.89-4.97,3.8Z"/>
            <path class="cls-3" d="M80.01,25.52c-2.98,1.51-7.94,2.48-10.52-.22-.03-.04-.06-.07-.09-.11-2.03,.75-4.47,.39-6.57-.97-3.54-2.3-5.29-6.38-5.95-10.44-.04-.2-.08-.41-.09-.6,0-.06-.02-.12-.03-.18-.04,.29-.08,.58-.11,.87,0,.08-.01,.15-.02,.23-.03,.36-.04,.73-.04,1.1,0,.24,0,.48,.02,.72,0,.08,.01,.16,.02,.24,0,.16,.02,.32,.04,.48,0,.09,.02,.18,.03,.27,.02,.15,.03,.29,.06,.44,.01,.09,.03,.19,.04,.28,.02,.14,.05,.28,.08,.42,.02,.09,.04,.19,.06,.28,.03,.14,.06,.28,.1,.43,.02,.09,.04,.17,.06,.26,.04,.16,.09,.32,.14,.48,.02,.06,.04,.13,.05,.19,.07,.21,.14,.43,.21,.64,.03,.09,.07,.17,.1,.25,.05,.13,.1,.26,.15,.38,.04,.1,.08,.19,.13,.29,.05,.11,.1,.22,.15,.33,.05,.1,.1,.2,.15,.3,.05,.1,.1,.2,.15,.3,.05,.1,.11,.21,.17,.31,.05,.09,.1,.18,.16,.27,.06,.11,.12,.21,.19,.32,.05,.08,.1,.15,.15,.23,.27,.43,.57,.84,.88,1.23,.03,.04,.06,.08,.09,.12,.1,.12,.2,.24,.3,.36,.04,.05,.08,.1,.13,.15,.1,.12,.21,.23,.31,.34,.04,.04,.09,.09,.13,.14,.11,.11,.22,.23,.34,.34,.04,.04,.08,.07,.12,.11,.12,.12,.25,.23,.37,.34,.02,.02,.04,.03,.06,.05,.76,.67,1.58,1.26,2.47,1.76,.01,0,.03,.02,.04,.02,.17,.1,.34,.19,.52,.28,.01,0,.03,.01,.04,.02,.87,.45,1.78,.81,2.74,1.08,0,0,.01,0,.02,0,.26,.07,.53,.14,.8,.2,0,0,0,0,.03,0,0,0,.02,0,.03,0,.01,0,.03,0,.05,.01,.02,0,.05,.01,.08,.02,.01,0,.03,0,.05,.01,.04,.01,.08,.02,.12,.03,.01,0,.03,0,.04,0,2.02,.52,11.47,2.3,16.39-8.15,.16-.33,.31-.67,.45-1.02,0,0,.11-.24,.26-.67-1.47,2.28-3.48,4.22-5.81,5.41Z"/>
            <path class="cls-17" d="M62.61,4.09c.1,.1,.23,.16,.36,.21,.94,.37,1.85,.76,2.8,1.11,.92,.33,1.39,1.3,2.31,1.64,.75,.28,1.34-.19,2.02-.44,1.04-.37,2.1-.74,3.15-1.05,2.17-.64,4.42-.98,6.68-1-.43-1.37-1.85-2.19-3.22-2.64-2.18-.71-4.5-.86-6.79-.76-2.5,.11-5.11,.56-7.07,2.12-.21,.17-.43,.41-.35,.66,.02,.06,.05,.11,.1,.15Z"/>
            <path class="cls-17" d="M71.15,8.15c-.09,.03-.17,.06-.25,.1-.85,.33-1.71,.73-2.4,1.34-.33,.29-.62,.63-.81,1.02-.09,.19-.18,.4-.25,.6-.14,.39-.01,.71,.01,1.13,.09,1.45,.32,2.85,.81,4.22,.13,.36,.28,.72,.54,.99,.47,.48,1.21,.58,1.88,.54,1.85-.09,3.05-.79,4.31-1.97,.82-.77,1.34-1.8,1.76-2.83,.6-1.47,1.1-3.06,2.24-4.17,.4-.39,.86-.7,1.33-.99,.43-.27,.87-.62,1.33-.82,.29-.12,.71-.06,.73-.47,.02-.52-.62-.57-1-.57-3.49,.03-6.97,.67-10.24,1.89Z"/>
            <path class="cls-17" d="M61.22,7.99c-.26-.04-.54-.07-.76,.08-.4,.27-.27,.89-.07,1.34,.73,1.67,1.68,3.24,2.81,4.66,.52,.66,1.16,1.33,2,1.43-.37-1.44-.47-2.95-.28-4.43,.08-.58,.19-1.21-.07-1.74-.28-.57-.95-.97-1.57-1.02-.71-.06-1.36-.21-2.06-.33Z"/>
            <path class="cls-17" d="M67.74,12.31s0,.07,0,.11c-.08,.92-.07,1.84,.05,2.75,.23,1.85,.85,3.64,1.83,5.23,.29,.46,.75,.97,1.28,.84-.51-1.67-1.03-3.33-1.54-5-.09-.29-.18-.58-.14-.88,.04-.29,.2-.54,.36-.78,1.02-1.57,2.22-3.06,2.86-4.84,.09-.24,.43-.98,.3-1.22-.12-.24-.64-.09-.84-.04-.6,.15-1.17,.43-1.72,.7-.84,.41-1.8,1.04-2.22,1.93-.16,.34-.17,.82-.2,1.21Z"/>
            <path class="cls-17" d="M68.61,2.71c.41-.28,.83-.56,1.27-.8,.89-.49,1.92-.83,2.92-.66,.48,.08,.94,.28,1.42,.37,.56,.1,1.12,.1,1.51-.37-.97-.56-2.09-.84-3.2-.83-.58,0-1.11,.17-1.68,.24-1.62,.2-3.22,.37-4.78,.92-1.65,.59-3.21,1.57-4.23,2.99,.67,.18,1.37,.19,2.05,.05,.26-.05,.49-.09,.75-.11,.92-.07,1.87-.53,2.66-.98,.45-.26,.88-.55,1.31-.84Z"/>
            <path class="cls-17" d="M65.42,13.88c-.04-.61-.09-1.23-.13-1.84-.05-.64,.01-1.41-.16-2.02-.25-.91-.89-1.12-1.64-1.52-.84-.45-1.76-.76-2.7-.92-.23-.04-.5-.05-.64,.13-.07,.09-.08,.22-.09,.33-.06,1.04,.35,2.1,1.1,2.82,.65,.63,1.54,1.01,2.05,1.76,.29,.42,.44,.91,.58,1.39,.45,1.51,1.04,3.03,1.89,4.37,.17,.28,.62,.54,.76,.25,.07-.15-.02-.31-.1-.45-.7-1.21-.82-2.66-.92-4.05,0-.08-.01-.16-.02-.24Z"/>
          </g>
          <g>
            <path class="cls-19" d="M28.74,39.78c1.91,5.07,1.88,8.1-1.03,9.19-2.9,1.09-6.49,1.68-8.4-3.39-1.91-5.07-1.01-11.32,1.89-12.41,2.9-1.09,5.63,1.54,7.54,6.61Z"/>
            <path class="cls-19" d="M29.25,38.4c1.79,4.67,3.67,6.75,6.35,5.72,2.67-1.03,5.52-2.82,3.73-7.5-1.79-4.67-6.24-8.44-8.92-7.41-2.67,1.03-2.95,4.51-1.16,9.19Z"/>
            <path class="cls-5" d="M29.56,41.39c1.91,5.07,1.88,8.1-1.03,9.19-2.9,1.09-6.5,1.68-8.4-3.39-1.91-5.07-1.01-11.32,1.89-12.41,2.9-1.09,5.63,1.54,7.54,6.61Z"/>
            <path class="cls-5" d="M30.07,40.01c1.79,4.67,3.67,6.75,6.35,5.72,2.67-1.03,5.52-2.82,3.73-7.49-1.79-4.67-6.24-8.44-8.92-7.41-2.67,1.03-2.95,4.51-1.16,9.19Z"/>
            <path class="cls-22" d="M28.75,48.5c-2.56,.96-5.73,1.48-7.41-2.99-1.1-2.92-1.14-6.28-.33-8.53-1.42,2.07-1.64,6.26-.31,9.8,1.68,4.47,4.85,3.95,7.41,2.99,1.08-.41,1.71-1.12,1.95-2.15-.32,.37-.75,.66-1.31,.87Z"/>
            <path class="cls-22" d="M36.86,43.66c-2.37,.91-4.03-.93-5.62-5.06-.94-2.44-1.23-4.51-.83-5.98-1.17,1.4-1.06,4.01,.19,7.26,1.59,4.13,3.25,5.97,5.62,5.06,1.57-.6,3.2-1.5,3.66-3.24-.74,.94-1.9,1.53-3.02,1.96Z"/>
            <path class="cls-23" d="M22.58,31.05c-.09-.07-.19-.13-.3-.18-.97-.44-2.16-.21-3,.44-.84,.65-1.35,1.66-1.54,2.7-.06,.35-.07,.78,.21,1,.15,.12,.36,.15,.55,.14,.83-.04,1.46-.8,2.1-1.22,.39-.25,.82-.45,1.22-.68,.4-.23,1.07-.58,1.17-1.08,.1-.46-.08-.86-.42-1.12Z"/>
            <path class="cls-23" d="M27.56,28.32c0-.11,0-.23,.03-.35,.21-1.04,1.08-1.88,2.09-2.19,1.01-.31,2.13-.14,3.09,.31,.33,.15,.67,.4,.69,.75,0,.19-.09,.38-.21,.53-.52,.65-1.49,.72-2.21,1-.43,.17-.84,.41-1.26,.6-.42,.19-1.09,.54-1.56,.33-.43-.19-.65-.57-.67-.99Z"/>
            <path class="cls-26" d="M28.93,53.02c.12,.1,10.98-4.04,11.77-6.55,0,0,2.17,12.16,.81,13.21-1.99,1.53-4.91,2.99-6.13,2.22-1.22-.77-6.45-8.87-6.45-8.87Z"/>
            <path class="cls-25" d="M32.4,58.17c1.25,1.77,2.47,3.4,2.99,3.72,1.12,.7,3.65-.46,5.6-1.83-3.07-3.61-6.87-2.62-8.59-1.89Z"/>
            <path class="cls-5" d="M41.79,59.15c-.35-.54-.78-1.14-1.09-1.27-.59-.24-4.42,1.5-5.26,2.24-.38,.34-.59,.78-.69,1.16,.26,.3,.48,.51,.63,.61,1.22,.77,4.14-.69,6.13-2.22,.12-.09,.21-.27,.28-.52Z"/>
            <path class="cls-5" d="M40.33,51.62s-.34-2.38-.47-4.05c-2.32,2.09-8.53,4.62-10.39,5.28,1.09,.99,3.59,3.06,5.35,2.76,2.29-.39,5.52-4,5.52-4Z"/>
            <g>
              <path class="cls-7" d="M27.25,43.27c0,1.61-1.3,2.91-2.91,2.91s-2.91-1.3-2.91-2.91,1.3-2.91,2.91-2.91,2.91,1.3,2.91,2.91Z"/>
              <path class="cls-23" d="M26.07,43.27c0,.96-.77,1.73-1.73,1.73s-1.73-.77-1.73-1.73,.78-1.73,1.73-1.73,1.73,.77,1.73,1.73Z"/>
              <path class="cls-5" d="M27.23,41.51l-.12-.33c-.11-.2-.26-.36-.46-.49-.1-.05-.2-.09-.3-.14-.22-.07-.45-.08-.68-.03-.11,.04-.23,.08-.34,.13,0,0,0,0,0,0-.1,.06-.19,.13-.28,.2h0c-.17,.16-.28,.35-.35,.57-.02,.11-.04,.22-.06,.33-.01,.18,.02,.35,.1,.51,.05,.17,.13,.31,.26,.44l.26,.21c.2,.12,.41,.19,.64,.2,0,0,.35-.03,.35-.03l.13-.05c.06-.02,.12-.04,.17-.07,0,0,.02,0,.03,0,0,0,0,0,0,0,0,0,.01,0,.02,0h0s.06-.04,.09-.06c.02-.01,.04-.02,.06-.04,.02-.01,.04-.03,.06-.05,.02-.01,.03-.02,.05-.04,0,0,0,0,0,0l-.05,.04c.11-.08,.21-.18,.28-.3,.1-.14,.15-.3,.17-.47,.04-.17,.04-.34,0-.52Z"/>
              <path class="cls-5" d="M22.9,43.88h0c-.08-.14-.18-.25-.31-.33-.13-.08-.28-.13-.44-.14-.16,0-.32,.03-.46,.11-.14,.08-.25,.18-.33,.31,0,0,0,0,0,0-.08,.13-.13,.28-.13,.44,0,.16,.03,.32,.11,.46,.08,.14,.18,.25,.31,.33,.13,.08,.28,.13,.44,.14,.16,0,.32-.03,.46-.11,.14-.08,.25-.18,.33-.31,.08-.13,.13-.28,.14-.44,0-.16-.03-.32-.11-.46Z"/>
            </g>
            <g>
              <path class="cls-13" d="M37.61,38.32c0,1.5-1.22,2.72-2.72,2.72s-2.72-1.22-2.72-2.72,1.22-2.72,2.72-2.72,2.72,1.22,2.72,2.72Z"/>
              <path class="cls-23" d="M36.51,38.32c0,.89-.72,1.62-1.62,1.62s-1.62-.72-1.62-1.62,.72-1.62,1.62-1.62,1.62,.72,1.62,1.62Z"/>
              <path class="cls-5" d="M37.59,36.67l-.12-.31c-.1-.19-.25-.34-.43-.46-.09-.04-.19-.09-.28-.13-.21-.06-.42-.07-.64-.02-.11,.04-.21,.07-.31,.12,0,0,0,0,0,0-.09,.06-.18,.12-.26,.19,0,0,0,0,0,0-.15,.15-.26,.32-.33,.53-.02,.1-.04,.21-.05,.31-.01,.17,.02,.33,.09,.48,.04,.16,.12,.29,.24,.41l.24,.2c.18,.11,.38,.17,.6,.18,0,0,.33-.03,.33-.03l.12-.05c.06-.02,.11-.04,.16-.06,0,0,.02,0,.02,0,0,0,0,0,0,0,0,0,0,0,.02,0h0s.06-.04,.08-.06c.02-.01,.04-.02,.06-.04,.02-.01,.04-.03,.06-.05,.01-.01,.03-.02,.05-.03,0,0,0,0,0,0l-.04,.03c.1-.08,.2-.17,.26-.28,.09-.13,.14-.28,.16-.44,.04-.16,.04-.32,0-.48Z"/>
              <path class="cls-5" d="M33.54,38.88h0c-.07-.13-.17-.23-.29-.31-.12-.08-.26-.12-.41-.13-.15,0-.3,.03-.43,.1-.13,.07-.23,.17-.31,.29,0,0,0,0,0,0-.08,.12-.12,.26-.13,.41,0,.15,.03,.3,.1,.43,.07,.13,.17,.23,.29,.31,.12,.08,.26,.12,.41,.13,.15,0,.3-.03,.43-.1,.13-.07,.23-.17,.31-.29,.08-.12,.12-.26,.13-.41,0-.15-.03-.3-.1-.43Z"/>
            </g>
            <path class="cls-22" d="M35.2,61.75c.07,.06,.13,.11,.18,.14,1.22,.77,4.14-.69,6.13-2.22,.11-.08,.19-.24,.25-.44-1.95,1.3-4.36,2.06-6.56,2.52Z"/>
            <path class="cls-22" d="M31.41,53.07c3-1.11,5.97-2.39,8.58-4.2-.05-.44-.09-.89-.13-1.29-2.32,2.09-8.53,4.62-10.39,5.28,.16,.14,.35,.31,.56,.49,.46-.08,.92-.18,1.38-.28Z"/>
          </g>
          <g>
            <path class="cls-19" d="M58.42,58.61c-1.37,1-2.73,2-4.1,3-2.58,1.89-5.16,3.78-7.73,5.67-.48,.35-.78,.69-1.13,1.14-.44,.55-1.07,.95-1.62,1.39-1.25,1-2.49,2-3.74,2.99-.55,.44-1.11,.88-1.78,1.09-1.04,.32-2.19,.01-3.17-.48-2-1-3.56-2.69-5.21-4.2-1.65-1.51-3.56-2.94-5.79-3.19-.01,1.54,.78,3.05,2,3.98,.52,.4,.88,.75,1.33,1.22,2.62,2.81,6.17,5.07,9.57,6.81,.89,.45,1.83,.89,2.83,.88,1.72,0,3.15-1.27,4.39-2.47,2.68-2.59,5.33-5.22,7.93-7.89,2.78-2.85,5.64-6,6.22-9.94Z"/>
            <path class="cls-23" d="M60.27,55.43c-.81,.72-1.54,1.52-2.35,2.24-2.96,2.66-6.75,4.14-10.3,5.92-3.55,1.78-7.11,4.08-8.87,7.65-.06,.13-4.64-2.19-5.05-2.42-1.9-1.02-3.75-2.13-5.53-3.34-1.11-.75-2.24-1.5-3.26-2.37-.74-.63-1.5-1.82-2.62-1.48-1.06,.32-1.43,1.66-1.02,2.59,.46,1.04,1.37,1.84,2.15,2.65,1.84,1.92,4.05,3.46,6.38,4.73,1.81,.98,3.7,1.81,5.62,2.55,.94,.37,1.92,.82,2.9,1.06,1.75,.43,3.43-1.03,4.59-2.14,4.82-4.61,9.86-8.98,15.11-13.09,1.04-.81,2.13-1.64,3.41-2.04,1.19-.37,2.45-.35,3.64-.69,.08-.02,.17-.05,.25-.08,1.04-.38,1.85-1.25,2.27-2.26,.35-.84,.63-2.56-.26-3.18-.7-.48-1.54,.7-2.1,1.01-1.31,.72-2.75,1.02-3.99,1.91-.34,.24-.66,.5-.97,.78Z"/>
            <path class="cls-23" d="M60.57,63.71c.52-.51,1.05-1.02,1.59-1.51,1.25-1.13,2.75-2.04,3.53-3.59,.21-.41,.37-.85,.49-1.31,.21-.82,.26-1.69,.13-2.53-.05-.29-.09-.87-.41-1.01-.26-.11-.35,.07-.56,.19-.6,.33-1.16,.51-1.64,1.04-.44,.49-.76,1.08-1,1.69-.5,1.29-.79,2.73-1.78,3.7-.53,.52-1.19,.84-1.87,1.15,.51,.72,1.02,1.45,1.52,2.18Z"/>
            <path class="cls-23" d="M62.14,121.2c-.1-.23-.16-.49-.15-.75,.02-.3,0-.49-.03-.79-.03-.52,.13-1.1,.15-1.63,.06-2.16,.25-4.31,.55-6.45,.16-1.1,.34-2.19,.56-3.28,.18-.92,.55-1.9,.56-2.84,0-.73,.12-1.72-.22-2.38-.3-.59-.89-.93-1.42-1.3-.11-.08-.21-.16-.31-.24-.27-.22-.52-.38-.82-.56-.67-.39-1.29-.91-1.92-1.35-1.01-.71-2.04-1.41-3.08-2.07-.98-.63-1.98-1.23-2.99-1.8-2,.51-4,1.03-5.99,1.56,.29,.11,.59,.22,.89,.32,.54,.19,1.07,.39,1.6,.59,2.12,.82,4.2,1.76,6.22,2.82,1.78,.93,3.6,2.02,5.07,3.42-.28,.61-.29,1.38-.43,2.04-.72,3.27,.06,6.63,.24,9.9,.14,2.45-.34,4.8-.86,7.17-.02,.08-.03,.16,0,.24,.05,.11,.18,.14,.3,.16,1.33,.23,2.68,.3,4.03,.22,.74-.04,1.63-.25,1.87-.95-.89-.35-1.87-.46-2.72-.92-.47-.25-.88-.67-1.1-1.16Z"/>
            <path class="cls-23" d="M35.49,114.08c-.21-2.01-.52-3.94-.89-5.94-.43-2.27-.97-4.52-1.7-6.71-1.26,.39-2.52,.79-3.78,1.2,.18,.42,.36,.83,.53,1.25,.86,2.11,1.59,4.27,2.21,6.46,.15,.55,.3,1.09,.43,1.64,.12,.48,.29,.99,.29,1.49,0,.9,.41,1.79,.17,2.69-.04,.13-.08,.18-.19,.25-.3,.19-.66,.32-.97,.5-1.58,.92-2.9,2.22-4.11,3.57-1.17,1.3-2.26,2.68-3.46,3.95-1.41,1.48-3.21,2.64-4.83,3.89-.14,.11-.28,.22-.34,.39-.05,.14-.02,.29,0,.43,.4,2.12,1.33,4.27,3.11,5.5,.35-.28,.24-.82,.13-1.25-.33-1.32-.35-2.71-.09-4.04,.1-.51,.21-1.33,.58-1.72,.36-.38,.89-.66,1.29-1.01,1.61-1.43,3.31-2.77,5.07-4.02,1.71-1.21,3.49-2.32,5.32-3.34,.14-.08,1.67-.91,1.67-.89-.1-.95-.2-1.9-.3-2.85-.05-.48-.1-.96-.15-1.44Z"/>
            <path class="cls-24" d="M8.82,34.84s-6.45-11.73,0-18.66c6.45-6.93,17.92-4.04,19.17,3.75l-19.17,14.92Z"/>
            <path class="cls-8" d="M23.39,13.66c-.2,1.09-.53,2.16-.92,3.14-.99,2.5-2.49,4.92-4.61,6.61-1.93,1.54-4.62,2.59-7.06,1.67-2.3-.86-3.64-3.15-4.1-5.47-2.52,6.79,2.11,15.23,2.11,15.23l19.17-14.92c-.45-2.79-2.22-4.95-4.6-6.26Z"/>
            <path class="cls-30" d="M13.74,28.14c-2.36,.24-4.88-.15-6.74-1.71-.39-.33-.72-.69-1-1.09,.37,5.04,2.81,9.49,2.81,9.49l10.62-8.26c-1.8,.82-3.73,1.37-5.69,1.57Z"/>
            <path class="cls-6" d="M8.82,34.84S24.93,11.5,31.09,12.25c6.16,.75-.34,10.66-.34,10.66,0,0-7.84,.78-21.93,11.92Z"/>
            <path class="cls-10" d="M28.99,21.29c-1.98,.77-3.92,1.7-5.96,2.29-1.46,.42-3.69,.99-4.96-.18-.11-.1-.2-.21-.28-.31-4.86,5.8-8.98,11.76-8.98,11.76,14.09-11.14,21.93-11.92,21.93-11.92,0,0,.92-1.41,1.75-3.2-1.09,.66-2.33,1.13-3.5,1.58Z"/>
            <path class="cls-20" d="M9.64,16.69s-.04,.07-.06,.1c-.2,.34-.4,.72-.5,1.1-.42,1.64,.8,2.93,2.34,3.24,2.93,.59,6.11-.24,8.37-2.19,.95-.82,1.76-1.87,1.96-3.11,.13-.78,.22-1.52-.36-2.11-.59-.59-1.4-.96-2.23-1.1-1.13-.2-2.29-.02-3.4,.25-1.63,.4-3.25,1.05-4.56,2.11-.6,.48-1.14,1.05-1.55,1.71Z"/>
            <path class="cls-5" d="M14.52,18.81c.23,.27,.49,.52,.75,.77,.17,.17,.36,.33,.59,.38,.34,.07,.67-.14,.96-.34,.05-.03,.1-.07,.15-.1,1-.68,1.99-1.36,2.99-2.03,.44-.3,.89-.6,1.3-.94,.18-.15,.41-.24,.59-.39,.18-.15,.35-.32,.49-.51,.08-.11,.16-.24,.14-.38-.01-.11-.09-.21-.17-.29-.23-.27-.46-.54-.69-.81-.3-.35-.61-.71-1.04-.87-.57-.22-1.22-.04-1.8,.17-1.36,.49-2.66,1.16-3.86,1.97-.32,.22-.64,.46-.85,.79-.31,.49-.31,1.14-.11,1.68,.13,.35,.32,.64,.54,.91Z"/>
            <path class="cls-28" d="M22.32,14.98c-.23-.27-.46-.54-.69-.81-.09-.1-.17-.2-.27-.3-.48,1.78-2.26,3.14-3.77,4.02-.78,.45-1.65,.84-2.56,.88-.21,0-.4-.02-.59-.06,.03,.04,.05,.07,.08,.11,.23,.27,.49,.52,.75,.77,.17,.17,.36,.33,.59,.38,.34,.07,.67-.14,.96-.34,.05-.03,.1-.07,.15-.1,1-.68,1.99-1.36,2.99-2.03,.44-.3,.89-.6,1.3-.94,.18-.15,.41-.24,.59-.39,.18-.15,.35-.32,.49-.51,.08-.11,.16-.24,.14-.38-.01-.11-.09-.21-.17-.29Z"/>
            <path class="cls-4" d="M32.04,12.74c.29,.03,.53,.09,.77,.17-.41-.33-.97-.56-1.72-.65-6.16-.75-22.27,22.59-22.27,22.59,.98-.78,1.93-1.5,2.85-2.18,4.44-6.09,15.51-20.52,20.37-19.93Z"/>
          </g>
        </g>
      </g>
    </g>
  </g>
</svg>