<?xml version="1.0" encoding="UTF-8"?>
<svg xmlns="http://www.w3.org/2000/svg" xmlns:xlink="http://www.w3.org/1999/xlink" viewBox="0 0 521.84 602.7">
  <defs>
    <style>
      .cls-1 {
        fill: #ffae3b;
      }

      .cls-2 {
        fill: #262626;
      }

      .cls-3 {
        fill: #5b7482;
      }

      .cls-4 {
        fill: #b4bde1;
      }

      .cls-5 {
        fill: #ec1d24;
      }

      .cls-6, .cls-7, .cls-8 {
        fill: #fff;
      }

      .cls-9 {
        fill: #1e8ace;
      }

      .cls-10 {
        fill: #cbd0ff;
      }

      .cls-11, .cls-12 {
        fill: #ced8e4;
      }

      .cls-13 {
        fill: #cc121e;
      }

      .cls-14 {
        fill: #d8d8d8;
      }

      .cls-15 {
        fill: #f6f5ff;
      }

      .cls-16 {
        fill: #fdee22;
      }

      .cls-17 {
        fill: #f0f7ff;
      }

      .cls-18 {
        fill: #f4ab04;
      }

      .cls-19 {
        fill: #feb03c;
      }

      .cls-20, .cls-21 {
        fill: #bfcbd7;
      }

      .cls-7 {
        opacity: .3;
      }

      .cls-7, .cls-22, .cls-23, .cls-8 {
        mix-blend-mode: screen;
      }

      .cls-24 {
        fill: #d3d3d3;
      }

      .cls-24, .cls-25, .cls-26, .cls-27, .cls-12, .cls-28, .cls-29, .cls-21 {
        mix-blend-mode: multiply;
      }

      .cls-30 {
        fill: #a7afb5;
      }

      .cls-31 {
        fill: #d36716;
      }

      .cls-32 {
        fill: #756d9d;
      }

      .cls-25, .cls-33 {
        fill: #c45800;
      }

      .cls-25, .cls-8 {
        opacity: .5;
      }

      .cls-34 {
        fill: #dee8f3;
      }

      .cls-35 {
        isolation: isolate;
      }

      .cls-36 {
        fill: #4d4d4d;
      }

      .cls-37 {
        fill: #80888e;
      }

      .cls-38 {
        fill: #81888c;
      }

      .cls-26, .cls-27, .cls-28, .cls-21 {
        opacity: .6;
      }

      .cls-26, .cls-29 {
        fill: #eb9502;
      }

      .cls-27 {
        fill: #ddd;
      }

      .cls-39 {
        fill: #5a557f;
      }

      .cls-40 {
        fill: #33b1ec;
      }

      .cls-41 {
        fill: #3a170c;
      }

      .cls-42 {
        fill: #a60a18;
      }

      .cls-43 {
        fill: #43a7af;
      }

      .cls-44 {
        fill: #fd3;
      }

      .cls-45 {
        fill: #c3c7c9;
      }

      .cls-46 {
        fill: #144683;
      }

      .cls-47 {
        fill: #837daf;
      }

      .cls-48 {
        fill: #52bbe8;
      }

      .cls-49 {
        fill: #333;
      }

      .cls-50 {
        fill: #ab4d05;
      }

      .cls-51 {
        fill: #1697c4;
      }

      .cls-52 {
        fill: #565f63;
      }

      .cls-22 {
        fill: url(#_Áåçûìÿííûé_ãðàäèåíò_9-2);
      }

      .cls-22, .cls-23, .cls-29 {
        opacity: .4;
      }

      .cls-53 {
        fill: #d4d4d4;
      }

      .cls-54 {
        fill: #f00c15;
      }

      .cls-55 {
        fill: #f1eeec;
      }

      .cls-56 {
        fill: #9db5c6;
      }

      .cls-57, .cls-28 {
        fill: #9db2c7;
      }

      .cls-58 {
        fill: #f55a25;
      }

      .cls-59 {
        fill: #d36411;
      }

      .cls-60 {
        fill: #fcc930;
      }

      .cls-61 {
        fill: #fbd52c;
      }

      .cls-62 {
        fill: #5b6975;
      }

      .cls-63 {
        fill: #0f6cb2;
      }

      .cls-64 {
        fill: #8f979e;
      }

      .cls-65 {
        fill: #b80611;
      }

      .cls-66 {
        fill: #161616;
      }

      .cls-67 {
        fill: #bcbcbc;
      }

      .cls-23 {
        fill: url(#_Áåçûìÿííûé_ãðàäèåíò_9);
      }

      .cls-68 {
        fill: #289bda;
      }

      .cls-69 {
        fill: #9f1320;
      }

      .cls-70 {
        fill: #bf5c0a;
      }

      .cls-71 {
        fill: #ffc813;
      }

      .cls-72 {
        fill: #ffe43f;
      }

      .cls-73 {
        fill: #f99223;
      }

      .cls-74 {
        fill: #e67e15;
      }

      .cls-75 {
        fill: #fcc432;
      }

      .cls-76 {
        fill: #46446b;
      }

      .cls-77 {
        fill: #f99123;
      }

      .cls-78 {
        fill: #dfe9f3;
      }

      .cls-79 {
        fill: #540000;
      }

      .cls-80 {
        fill: #e07911;
      }

      .cls-81 {
        fill: #737a7f;
      }

      .cls-82 {
        fill: #d31926;
      }
    </style>
    <linearGradient id="_Áåçûìÿííûé_ãðàäèåíò_9" data-name="Áåçûìÿííûé ãðàäèåíò 9" x1="303.97" y1="199.77" x2="304.76" y2="216.23" gradientUnits="userSpaceOnUse">
      <stop offset="0" stop-color="#fff"/>
      <stop offset="1" stop-color="#000"/>
    </linearGradient>
    <linearGradient id="_Áåçûìÿííûé_ãðàäèåíò_9-2" data-name="Áåçûìÿííûé ãðàäèåíò 9" x1="-2315.69" y1="199.77" x2="-2314.9" y2="216.23" gradientTransform="translate(-2098.04) rotate(-180) scale(1 -1)" xlink:href="#_Áåçûìÿííûé_ãðàäèåíò_9"/>
  </defs>
  <g class="cls-35">
    <g id="Layer_2" data-name="Layer 2">
      <g id="_Ñëîé_1" data-name="Ñëîé 1">
        <g>
          <g>
            <path class="cls-49" d="M375.86,302.22s18.76,13,43.31,7.29c24.71-5.75,60.59-32.27,71.09-24.73,10.5,7.54-17.89,80.39-60.32,97.33-42.43,16.94-79.85-16.37-87.28-38.83-8.44-25.52,24.52-49.11,33.2-41.07Z"/>
            <path class="cls-66" d="M433.07,307.68c20.97-12.72,44.48-22.62,45.96-23.25-15.62,4.2-41,20.69-59.87,25.08-24.55,5.71-43.31-7.29-43.31-7.29-2.14-1.99-5.77-2.04-9.89-.61,.58,.69,1.33,1.41,2.25,2.16,28.6,23.08,43.18,17.06,64.84,3.92Z"/>
            <path class="cls-20" d="M456.47,359.52c17.24-18.7,39.25-67.13,29.12-68.96-10.13-1.83-50.23,30.72-78.2,35.04-27.97,4.32-50.11-19.22-50.11-19.22-10.28,7.65-19.57,21.94-14.62,36.91,1.05,3.16,2.7,6.54,4.87,9.96,43.88,53.5,91.49,25.2,108.94,6.27Z"/>
            <path class="cls-21" d="M461.87,352.94c2.47-10.63,5.43-22.51,6.94-25.19,2.85-5.06-10.41-8.55-10.41-8.55,0,0-10.99,37.14-14.75,51.39,5.19-3.62,9.54-7.51,12.82-11.07,1.76-1.91,3.57-4.14,5.4-6.59Z"/>
            <g>
              <path class="cls-56" d="M456.47,359.52c6.57-7.13,13.84-18.58,19.76-30.13-10.97,19.07-34.67,45.35-62.2,49.15-33.61,4.64-70.25-38.34-31.91-39.99,48.49-2.08,79.68-37.73,79.68-37.73h0c-16.43,9.4-37.6,22.17-54.41,24.77-27.97,4.32-50.11-19.22-50.11-19.22-10.28,7.65-19.57,21.94-14.62,36.91,1.05,3.16,2.7,6.54,4.87,9.96,43.88,53.5,91.49,25.2,108.94,6.27Z"/>
              <path class="cls-3" d="M453.63,362.42c-9.43,8.74-24.33,17.29-44.61,19.59-27.73,3.15-61.2-33.1-57.25-47.24,3.95-14.14,27.33-3.31,48.93-4.79,29.27-2.02,61.1-29.15,61.1-29.15-16.43,9.4-37.6,22.17-54.41,24.77-27.97,4.32-50.11-19.22-50.11-19.22-10.28,7.65-19.57,21.94-14.62,36.91,1.05,3.16,2.7,6.54,4.87,9.96,41.69,50.83,86.74,27.82,106.1,9.17Z"/>
              <path class="cls-56" d="M481.54,318.14s-.01,.03-.01,.04c.27-.62,.53-1.24,.79-1.86-.27,.5-.53,1.09-.77,1.82Z"/>
            </g>
          </g>
          <g>
            <path class="cls-49" d="M157.11,315.15s-16.55,17.52-43.17,16.96c-26.79-.56-69.64-20.16-78.85-10.08-9.21,10.07,35.99,79.19,83.52,87.46,47.53,8.27,78.96-34.3,81.75-59.13,3.16-28.21-36.03-45.42-43.25-35.21Z"/>
            <path class="cls-66" d="M99.18,333.25c-24.44-8.58-50.89-13.7-52.56-14.02,17.06,.94,46.87,12.46,67.33,12.88,26.61,.56,43.17-16.96,43.17-16.96,1.78-2.52,5.52-3.36,10.09-2.78-.45,.84-1.06,1.75-1.86,2.72-24.53,30.08-40.91,27.03-66.16,18.16Z"/>
            <path class="cls-20" d="M86.28,391.92c-21.89-15.57-55.18-60.83-45.11-64.93,10.07-4.1,58.59,20.81,88.44,19.19,29.85-1.62,47.6-30.77,47.6-30.77,12.29,5.67,25,18.42,23.14,34.96-.39,3.49-1.37,7.35-2.86,11.35-33.7,64.85-89.07,45.96-111.22,30.2Z"/>
            <g>
              <path class="cls-56" d="M86.28,391.92c-8.35-5.94-18.35-16.19-26.98-26.83,15.49,17.32,45.7,39.32,74.99,37.26,35.74-2.52,64.26-54.92,24.27-48.27-50.57,8.41-90.56-21.64-90.56-21.64h0c19.02,6.13,43.69,14.73,61.62,13.76,29.85-1.62,47.6-30.77,47.6-30.77,12.29,5.67,25,18.42,23.14,34.96-.39,3.49-1.37,7.35-2.86,11.35-33.7,64.85-89.07,45.96-111.22,30.2Z"/>
              <path class="cls-3" d="M89.84,394.29c11.65,6.98,28.9,12.57,50.37,10.54,29.35-2.78,56.04-47.53,48.88-61.28-7.16-13.76-28.97,2.53-51.61,5.7-30.69,4.29-69.49-16.82-69.49-16.82,19.02,6.13,43.69,14.73,61.62,13.76,29.85-1.62,47.6-30.77,47.6-30.77,12.29,5.67,25,18.42,23.14,34.96-.39,3.49-1.37,7.35-2.86,11.35-32.02,61.61-83.59,47.63-107.65,32.57Z"/>
              <path class="cls-21" d="M107.67,384.86l-4.71-41.96c-26.25-6.28-54.39-18.91-61.79-15.9-1.47,.6-2.01,2.07-1.81,4.2l34.42,49.96c4.32,4.27,8.59,7.99,12.5,10.77,3.46,2.46,7.74,5.01,12.62,7.29,5.39-2.04,9.57-7.29,8.77-14.35Z"/>
              <path class="cls-56" d="M51.36,354.62s.02,.03,.02,.04c-.41-.59-.82-1.17-1.22-1.75,.38,.46,.78,1.02,1.2,1.71Z"/>
            </g>
          </g>
          <g>
            <g>
              <path class="cls-34" d="M290.25,22.43c1.87,.44,5.16,1.55,6.47,4.05,1.05,2,.02,5.43-2.57,8.12,.37-.09,.61-.15,.61-.15,0,0,3.74,6.27-8.27,8.99-6.39,1.45-10.35,6.72-13.84,11.75,1.27,2.52,3.02,7.56-.62,11.39-3.23,3.39-5.58,1.29-5.61-3.46-.99,.88-2.02,1.59-3.15,1.98-7.74,2.68-10.59-4.51-10.59-4.51,0,0-15.37,.46-22.73-14.61-9.1-18.64,10.23-52.24,31.77-44.96,.11,.04,.22,.06,.33,.08,3.96-1.31,11.21-2.33,19.65,3.17,7.49,4.88,9.62,11.9,8.53,18.16Z"/>
              <path class="cls-56" d="M292.76,34.77s4.76-3.13,2.76-7.15c-2.01-4.03-10.3-1.04-10.3-1.04,0,0,6.82-8.64,1.73-16.15-5.1-7.51-14.92-8.89-21.09-6.47,0,0-3.46-4.2-14.42-3.45,3.3-.76,6.77-.68,10.3,.51,.11,.04,.22,.06,.33,.08,3.96-1.31,11.21-2.33,19.65,3.17,7.49,4.88,9.62,11.9,8.53,18.16,1.87,.44,5.16,1.55,6.47,4.05,1.05,2,.02,5.43-2.57,8.12,.37-.09,.61-.15,.61-.15,0,0,3.74,6.27-8.27,8.99,0,0,11.37-3.51,6.26-8.68Z"/>
              <path class="cls-11" d="M243.26,42.17c15.25,11.76,27.82,2.53,27.82,2.53l2.9,8.64c-.45,.62-.88,1.24-1.31,1.86,.73,1.45,1.61,3.73,1.55,6.14l-4.85,6.9c-1.77,.2-2.91-1.81-2.93-5.11-.99,.88-2.02,1.59-3.15,1.98-7.74,2.68-10.59-4.51-10.59-4.51,0,0-15.37,.46-22.73-14.61-6.58-13.47,1.7-34.75,14.92-42.77-11.01,7.71-16.86,27.22-1.63,38.97Z"/>
              <path class="cls-56" d="M230.63,20.93c-2.07,5.54-1.22,21.18,13.03,28.32,14.25,7.14,25.05,2.08,25.05,2.08l-1.2,16.04c-.67-.87-1.07-2.33-1.08-4.25-.99,.88-2.02,1.59-3.15,1.98-7.74,2.68-10.59-4.51-10.59-4.51,0,0-15.37,.46-22.73-14.61-3.52-7.2-2.79-16.63,.67-25.07,0,.01,0,.01,0,.02Z"/>
              <path class="cls-17" d="M286.44,13.62c2.55,10.05-8.49,16.06-8.44,17.27,.05,1.21,15.02-7,14.54-1.82-.47,5.18-10.16,4.56-10.16,4.56,0,0,11.15,2.12,8.77,4.55-3.18,3.25-14.23-2.8-14.23-2.8,0,0-.04,.15-.11,.39-.4,1.63-1.1,2.67-1.95,3.15-2.03,1.89-7.4,8.57-21.62,3.05-14.91-5.79-17.79-29.47-1.81-36.68,7.71-3.48,20.87,7.09,17.83,11.16,4.81-11.48,14.89-11.88,17.18-2.85Z"/>
              <path class="cls-12" d="M229.5,44.87c.15,.37,.3,.74,.47,1.1,7.36,15.07,22.73,14.61,22.73,14.61,0,0,2.85,7.19,10.59,4.51,1.13-.39,2.16-1.09,3.15-1.98,.03,4.75,2.38,6.85,5.61,3.46,3.65-3.83,1.89-8.87,.62-11.39,3.48-5.03,7.45-10.3,13.84-11.75,2.39-.54,4.15-1.23,5.45-1.97-6.8-3.34-14.34-5.89-22.63-6.98-13.54-1.79-27.37,3.07-39.83,10.38Z"/>
              <circle class="cls-6" cx="280.05" cy="22.06" r="3.67"/>
              <path class="cls-6" d="M282.32,14.1c-.26-.19-.63-.13-.82,.13-.19,.26-.13,.63,.13,.82s.63,.13,.82-.13c.19-.26,.13-.63-.13-.82Z"/>
              <path class="cls-6" d="M278.85,13.2c-.63-.46-1.51-.31-1.97,.32-.46,.63-.31,1.51,.32,1.97s1.51,.31,1.97-.32c.46-.63,.31-1.51-.32-1.97Z"/>
            </g>
            <g>
              <path class="cls-75" d="M353.97,568.68s24.71,13.39,16.26,21.68c-8.45,8.29-26.31-1.59-31.73,1.12-5.42,2.71-10.68,9.09-22.16,7.81s-11.8-11.32-21.52-10.04-43.05,3.03-8.29-20.57c34.76-23.6,67.44,0,67.44,0Z"/>
              <path class="cls-19" d="M286.52,568.68c.94-.64,1.87-1.22,2.81-1.79l59.38-1.32c3.35,1.74,5.26,3.11,5.26,3.11,0,0,9.89,5.36,15.01,11.4h0s-4.88-5.37-21.76,0c-17.96,5.71-22.11,8.8-47.94,2.74-20.63-4.84-25.69,3.3-17.58,4.36,3.93,.51,1.14,1.5-2.84,2.36-9.15-1.23-14.14-6.05,7.67-20.86Z"/>
              <path class="cls-73" d="M286.52,568.68c34.76-23.6,67.44,0,67.44,0,0,0,2.71,1.47,6.02,3.73-7.92,5.08-17.81,9.45-29.67,11.15-35.71,5.1-42.17-11.33-51.84-4.74-9.67,6.59,2.33,10.91,14,8.03,11.68-2.88,13.72,7.62,23.28,10.52,9.56,2.9,16.37-6.48,21.15-8.61,4.78-2.13,12.76,4.25,25.72,2.76,12.97-1.49,6.35-11.45,6.35-11.45,2.98,3.51,4.35,7.24,1.25,10.28-8.45,8.29-26.31-1.59-31.73,1.12-5.42,2.71-10.68,9.09-22.16,7.81-11.48-1.28-11.8-11.32-21.52-10.04-9.73,1.28-43.05,3.03-8.29-20.57Z"/>
              <path class="cls-31" d="M286.52,568.68c2.06-1.4,4.11-2.62,6.15-3.7,11.64,.09,47.52,.6,60.91,3.44,.25,.17,.38,.26,.38,.26,0,0,1.94,1.05,4.54,2.74,0,0,0,0,0,0,0,0-22.23,15.11-47.96,10.33-25.72-4.78-27.62-9.63-33.67-4.54-3.57,3-6.39,7.05-4.83,9.78-2.75-2.86-.26-8.31,14.48-18.31Z"/>
              <path class="cls-61" d="M368.98,587.89c-2.14,2.68-9.13,3.04-12.78,2.79-10.46-.73-15.75-6.43-20.73-2.79-6.09,4.45-10.52,10.04-18.89,8.69-7.14-1.16,4.54,.21,10.68-4.46,8.27-6.29,7.65-7.57,13.47-6.86,5.82,.72,14.75,5.02,24.87,1.99,4.27-1.28,5.18-1.62,3.37,.64Z"/>
              <g>
                <path class="cls-50" d="M338.98,589.53c2.7-.92,7.59,2.36,17.5,3.96-7.33-.87-14.79-3.61-17.98-2.02-4.9,2.45-9.68,7.87-19.02,7.96,9.08-.72,17.87-9.35,19.5-9.9Z"/>
                <path class="cls-50" d="M279.7,589.64c2.51,.18,7.34,.28,12.3-.97,7.17-1.81,8.13-.96,13.82,4.73,5.13,5.13,11.97,5.94,13.26,6.05-.88,0-1.78-.04-2.74-.15-11.48-1.28-11.8-11.32-21.52-10.04-3.44,.45-9.83,.96-15.12,.39Z"/>
              </g>
              <path class="cls-75" d="M183.54,568.68s-24.71,13.39-16.26,21.68c8.45,8.29,26.31-1.59,31.73,1.12,5.42,2.71,10.68,9.09,22.16,7.81s11.8-11.32,21.52-10.04c9.73,1.28,43.05,3.03,8.29-20.57-34.76-23.6-67.44,0-67.44,0Z"/>
              <path class="cls-19" d="M250.99,568.68c-.94-.64-1.87-1.22-2.81-1.79l-59.38-1.32c-3.35,1.74-5.26,3.11-5.26,3.11,0,0-9.89,5.36-15.01,11.4h0s4.88-5.37,21.76,0c17.96,5.71,22.11,8.8,47.94,2.74,20.63-4.84,25.69,3.3,17.58,4.36-3.93,.51-1.14,1.5,2.84,2.36,9.15-1.23,14.14-6.05-7.67-20.86Z"/>
              <path class="cls-73" d="M250.99,568.68c-34.76-23.6-67.44,0-67.44,0,0,0-2.71,1.47-6.02,3.73,7.92,5.08,17.81,9.45,29.67,11.15,35.71,5.1,42.17-11.33,51.84-4.74,9.67,6.59-2.33,10.91-14,8.03-11.68-2.88-13.72,7.62-23.28,10.52-9.56,2.9-16.37-6.48-21.15-8.61-4.78-2.13-12.76,4.25-25.72,2.76-12.97-1.49-6.35-11.45-6.35-11.45-2.98,3.51-4.35,7.24-1.25,10.28,8.45,8.29,26.31-1.59,31.73,1.12,5.42,2.71,10.68,9.09,22.16,7.81s11.8-11.32,21.52-10.04c9.73,1.28,43.05,3.03,8.29-20.57Z"/>
              <path class="cls-31" d="M250.99,568.68c-2.06-1.4-4.11-2.62-6.15-3.7-11.64,.09-47.52,.6-60.91,3.44-.25,.17-.38,.26-.38,.26,0,0-1.94,1.05-4.54,2.74,0,0,0,0,0,0,0,0,22.24,15.11,47.96,10.33,25.72-4.78,27.62-9.63,33.67-4.54,3.57,3,6.39,7.05,4.83,9.78,2.75-2.86,.26-8.31-14.48-18.31Z"/>
              <path class="cls-61" d="M168.53,587.89c2.14,2.68,9.13,3.04,12.78,2.79,10.46-.73,15.75-6.43,20.73-2.79,6.09,4.45,10.52,10.04,18.89,8.69,7.14-1.16-4.54,.21-10.68-4.46-8.27-6.29-7.65-7.57-13.47-6.86-5.82,.72-14.75,5.02-24.87,1.99-4.27-1.28-5.18-1.62-3.37,.64Z"/>
              <g>
                <path class="cls-50" d="M198.53,589.53c-2.7-.92-7.59,2.36-17.5,3.96,7.33-.87,14.79-3.61,17.97-2.02,4.9,2.45,9.68,7.87,19.02,7.96-9.08-.72-17.87-9.35-19.5-9.9Z"/>
                <path class="cls-50" d="M257.81,589.64c-2.51,.18-7.34,.28-12.3-.97-7.17-1.81-8.13-.96-13.82,4.73-5.13,5.13-11.97,5.94-13.26,6.05,.88,0,1.78-.04,2.74-.15,11.48-1.28,11.8-11.32,21.52-10.04,3.44,.45,9.83,.96,15.12,.39Z"/>
              </g>
              <path class="cls-78" d="M377.15,308.61c-7.99-18.81-36.69-32.77-70.18-40.54,.03-2.16,.05-4.32,.05-6.47-12.02-.85-25.07-.67-38.27,.47-13.2-1.14-26.24-1.32-38.27-.47,0,2.16,.01,4.32,.05,6.47-33.49,7.77-62.19,21.73-70.18,40.54,0,0-57.33,98.08-26.72,189.28,30.61,91.2,79.4,91.84,120.06,74.62,1.91-.81,3.78-1.66,5.61-2.55,5.98-2.91,12.92-2.91,18.9,0,1.83,.89,3.7,1.75,5.61,2.55,40.65,17.22,89.45,16.58,120.06-74.62,30.61-91.2-26.72-189.28-26.72-189.28Z"/>
              <path class="cls-17" d="M367.2,322.41c-7.26-16.5-33.32-28.75-63.73-35.57,.03-1.89,.05-3.79,.04-5.68-10.92-.75-22.77-.59-34.75,.41-11.99-1-23.83-1.16-34.75-.41,0,1.89,.01,3.79,.04,5.68-30.41,6.82-56.47,19.07-63.73,35.57,0,0-52.94,92.77-25.14,172.79,27.8,80.01,72.99,73.86,109.91,58.75,1.73-.71,3.43-1.46,5.09-2.24,5.43-2.55,11.73-2.55,17.16,0,1.66,.78,3.36,1.53,5.09,2.24,36.92,15.11,84.19,16.87,111.99-63.15,27.8-80.01-27.22-168.39-27.22-168.39Z"/>
              <path class="cls-49" d="M372.95,301.43c.34,.66,3.92,6.5,4.21,7.18,0,0,57.33,98.08,26.72,189.28-2.25,6.7-4.6,12.91-7.04,18.66h0c34.1-126.75-39.4-201.93-39.4-201.93,3.59-7.57,9.83-10.17,15.52-13.19Z"/>
              <path class="cls-36" d="M404.73,495.19c1.5-7.5,3.6-15.51,4.45-24.3,6.8-70.58-22.79-143.85-22.79-143.85,14.62,32.23,39.35,101.73,18.33,168.16Z"/>
              <path class="cls-49" d="M161.3,306.6c-.34,.66-.66,1.33-.95,2.01,0,0-57.33,98.08-26.72,189.28,2.25,6.7,4.6,12.91,7.04,18.66,0,0,0,0,0,0-34.1-126.75,34.74-194.36,34.74-194.36-3.59-7.57-8.43-12.57-14.11-15.59Z"/>
              <path class="cls-28" d="M371.14,296.6c-.93-1.99-5.98-4.56-6.28-6.53-65.79,.92-180.84,4.86-205.91,21.05-1.04,1.92-2.62,4.92-4.52,8.83,0,0,9.89,11.02,30.94,20.94-8.58,4.19-14.95,9.05-16.66,14.14,0,0-59.63,83.23,18.76,150.51,0,0-7.52-59.1,22.81-64.09,24.98-4.12,12,28.7,12,28.7,0,0,16.76-6.99,15.21-17.86-1.42-9.94-27.21-60.27,1.74-96.97,15.54,1.58,33.34,1.5,53.52-1.25,33.68-4.59,74.58-19.65,92.39-29.76-3.93-10.1-9.97-19.11-14.01-27.71Z"/>
              <g>
                <path class="cls-46" d="M227.07,466s9.03-11.27-10.52-30.4c0,0,46.77,8.08,10.52,30.4Z"/>
                <path class="cls-68" d="M191.52,334.61s-29.04,11.49-39.95,66.98c-10.91,55.48,33.55,92.47,33.55,92.47,0,0-4.3-29.97,25.36-46.24,29.67-16.26,39.55,4.78,16.59,18.18,0,0,16.58-7.97,13.39-19.13-3.19-11.16-33.68-49.05-2.97-101.59l-45.98-10.67Z"/>
                <path class="cls-9" d="M232.65,354.51c-1.23-4.17-2.38-7.94-3.36-11.14l-37.77-8.77s-29.04,11.49-39.95,66.98c-3.95,20.11-.63,37.78,5.2,52.15-.12-.33-10.2-28.42,0-59.8,11.56-35.56,30.15-40.18,38.58-30.93,8.44,9.25,7.92,43.88,42.14,77.1h0c-7.41-14.93-23.62-45.46-4.85-85.6Z"/>
                <path class="cls-63" d="M237.5,345.28l-45.98-10.67s-18.13,7.2-31.12,37.6c.76-1.27,16.59-27.74,36.94-27.46,20.82,.28,15.72,59.79,34.68,83.82-7.92-18.37-15.49-47.41,5.48-83.29Z"/>
                <path class="cls-46" d="M187.47,336.84s16,7.99,47.42,13.17c.82-1.57,1.68-3.14,2.61-4.73l-45.98-10.67s-1.54,.62-4.04,2.23Z"/>
                <path class="cls-17" d="M368.19,209.38c.5-3.76,.78-7.57,.78-11.45,0-52.83-47.45-95.66-105.99-95.66s-105.99,42.83-105.99,95.66c0,1.93,.08,3.85,.21,5.75-11.56,11.66-18.24,25.42-18.24,40.17,0,42.03,54.25,76.11,121.17,76.11s121.17-34.07,121.17-76.11c0-12.41-4.73-24.12-13.11-34.47Z"/>
                <path class="cls-6" d="M319.99,117.31l-16.21-7.68c-12.56-4.73-26.34-7.36-40.8-7.36-45.82,0-84.85,26.25-99.64,62.99l6.26,17.25s2.14,15.41,6.79,16.16c4.65,.75-4.7-20.49,3.91-41.31,11-26.6,44.12-28.12,60.05-3,15.93,25.12,17.24,51.27,22.65,44.34,5.41-6.93,9.32-53.69,40.82-60.92,26.54-6.1,41.12,13.28,40.91,36.36-.13,13.6,1.36,40.99,8.97,8.37,5.25-22.5-8.09-42.75-16.87-53.16-5.14-4.51-10.78-8.54-16.84-12.04Z"/>
                <path class="cls-78" d="M178.07,212.85s8.4-4.83,4.2-6.26c-4.2-1.43-7.57,.88-7.73,0-.16-.88,1.99-3.19,7.97-2.87s-5.25-10.39-2.2-34.92c3.93-31.68,45.65-42.44,62.82-1.45,12.12,28.94,0,66.13,0,66.13,0,0,1.01-35.66-65.05-20.63Z"/>
                <path class="cls-78" d="M342.08,208.74s-7.7-3.12-3.4-4.22c4.69-1.2,7.52-.48,7.68-1.36s-.66-1.75-6.75-1.99c-5.98-.23,4.6-7.84,1.55-32.37-3.93-31.68-45.65-42.44-62.82-1.45-12.12,28.94,0,66.13,0,66.13,0,0,20.48-22.82,63.74-24.74Z"/>
                <path class="cls-78" d="M350.39,211.11c22.54,7.11,38.22,70.24-45.36,91.94-77.34,20.09-137.67-14.73-148.19-42.27-12.68-33.19,15.69-49.67,15.69-49.67,0,0-10.52,1.64-24.69,4.07-5.74,8.85-8.9,18.53-8.9,28.67,0,42.03,54.25,76.11,121.17,76.11s121.17-34.07,121.17-76.11c0-12.41-4.73-24.12-13.11-34.47,.17-1.28,.3-2.57,.42-3.86-14.71,1.72-28.85,2.23-18.21,5.58Z"/>
                <g>
                  <path class="cls-57" d="M373.18,228.27c13.14,35.22-24.27,55.65-24.27,55.65-14.57,11.05-71.87,27.92-100.8,35.67,3.95,.24,7.96,.37,12.02,.37,66.92,0,121.17-34.07,121.17-76.11,0-9.95-3.05-19.44-8.57-28.15-2.37,.48-2.73,4.03,.45,12.57Z"/>
                  <path class="cls-57" d="M185.12,292.94c-59.17-21.27-35.74-67.38-35.74-67.38-3,.97-5.69,2.14-8.1,3.46-1.51,4.8-2.32,9.75-2.32,14.82,0,35.32,38.3,65.01,90.24,73.6-2.94-5.07-12.66-13.21-44.08-24.5Z"/>
                </g>
                <path class="cls-78" d="M303.28,221.56c16.26-13.04,42.84-10.03,39.86-12.26-2.98-2.23-12.26-.94-12.26-.94,5.95-7.22,12.66-4.24,11.15-5.67-1.51-1.43-7.17,.48-7.49,.32-.32-.16,1.19-4.34,1.19-4.34l-1.19,.06-3.18,8.5s-26.32,6.11-39.06,13.37c-1.22,.7-6.24-.41-7.34-.34l-7.69,4.66s-24.69,5.23-39.51-6.42c-14.83-11.66-44.48-9.02-44.48-9.02l-2.28-3.74c-8.65-3.05-17.18,.4-11.86,0,5.31-.4,11.48,3.02,11.48,3.02-10.75,1.79-23.08,9.02-5.08,4.15,22.4-6.06,45.17,7.22,45.61,9.9,1.16,7-5.9,6.41-16.19,4.05-8.45-1.94-10.93,6.38-4.67,10.63,31.46,21.37,35.77,48.26,52.91,46.34,17.14-1.91,47.42-43.02,47.42-43.02,6.78,.16,11.24-6.82,7.73-10.54-3.51-3.73-10.12-.3-15.86-1.98-5.74-1.67,.8-6.71,.8-6.71Z"/>
                <path class="cls-20" d="M223.06,242.65s20.27,20.09,29.52,32.34c4.18,5.53,13.31,7.73,26.66-3.81,13.28-11.47,27.76-33.95,27.76-33.95l-83.94,5.42Z"/>
                <ellipse class="cls-20" cx="310.62" cy="186.19" rx="38.01" ry="27.68" transform="translate(59.01 446.65) rotate(-76.93)"/>
                <ellipse class="cls-20" cx="210.28" cy="186.19" rx="27.68" ry="38.01" transform="translate(-36.65 52.37) rotate(-13.07)"/>
                <path class="cls-77" d="M215.87,236.74s16.01,12.41,28.42,26.46c14.46,16.37,21.96,15.77,38.25,1.51,12.76-11.16,25.76-25.54,26.7-31.91,.75-5.08-93.36,3.94-93.36,3.94Z"/>
                <path class="cls-1" d="M277.27,249.19l-37.14,.57s-9.23-5.2-8.7-3.29c.53,1.91,4.48,4.82,19.98,20.87,6.36,6.58,14.49,13.04,34.3-8.18,19.81-21.23-8.45-9.96-8.45-9.96Z"/>
                <path class="cls-80" d="M299.34,231.25c-.1,.14-19.72,26.85-5.97,15.22,8.84-7.47,4.08,2.61-2.45,9.07-6.54,6.46-19.77,18.97-28.37,18.81-8.6-.16-15.56-9.81-21.77-16.58s-17.81-15.2-13.95-15.12c3.86,.08,13.3,7.11,13.3,7.11-1.97-3.58-9.14-9.07-16.02-13.78-5.1,.46-8.23,.76-8.23,.76,0,0,16.01,12.41,28.42,26.46,14.46,16.37,21.96,15.77,38.25,1.51,12.76-11.16,25.76-25.54,26.7-31.91,.15-1.04-3.69-1.49-9.89-1.55Z"/>
                <path class="cls-50" d="M308.54,235.04l-6.45-2.62-7.43,12.66s5.36-5.97,7.59-5.05c2.17,.89-10.18,15.62-10.93,16.51,8.1-8,15.02-16.25,17.22-21.5Z"/>
                <path class="cls-50" d="M227.94,246.93s0,0,0,0c-2.16-2.35-5.44-5.94-4.16-6.89,1.28-.95,10.81,4.64,10.81,4.64l11.19-8.56-26.8,.33c-1.99,.18-3.11,.29-3.11,.29,0,0,5.25,4.07,12.07,10.19Z"/>
                <path class="cls-79" d="M220.03,235.97c7.85,4.3,13.34,5.57,28.3,21.91,11.24,12.28,14.84,10.97,21.15,8.08,10.2-4.68,24.91-19.49,31.91-29.07,5.04-6.91-85.71-3.31-81.37-.93Z"/>
                <g>
                  <ellipse class="cls-55" cx="309.94" cy="187.65" rx="36.11" ry="25.95" transform="translate(57.07 447.13) rotate(-76.93)"/>
                  <circle class="cls-51" cx="303.82" cy="196.29" r="19.6" transform="translate(-56.8 168.19) rotate(-28.41)"/>
                  <circle class="cls-48" cx="303.82" cy="196.29" r="18.11" transform="translate(-37.1 317.16) rotate(-52.39)"/>
                  <circle class="cls-41" cx="303.82" cy="196.29" r="9.43" transform="translate(-49.81 272.33) rotate(-45)"/>
                  <path class="cls-6" d="M301.67,190.23c0,2.8-2.27,5.07-5.07,5.07s-5.07-2.27-5.07-5.07,2.27-5.07,5.07-5.07,5.07,2.27,5.07,5.07Z"/>
                  <path class="cls-6" d="M307.72,200.83c0,.95-.77,1.73-1.73,1.73s-1.73-.77-1.73-1.73,.77-1.73,1.73-1.73,1.73,.77,1.73,1.73Z"/>
                  <path class="cls-23" d="M320.26,206.95c-3.27-4.12-8.94-6.85-15.41-6.85-7.2,0-13.41,3.39-16.42,8.31,3.59,4.55,9.14,7.49,15.39,7.49,6.89,0,12.94-3.56,16.44-8.94Z"/>
                  <path class="cls-27" d="M290.72,185.5c4.51-19.43,19.48-32.55,33.44-29.31,.87,.2,1.72,.46,2.55,.78-2.48-2.19-5.37-3.76-8.59-4.51-13.96-3.24-28.93,9.88-33.44,29.31-4.23,18.21,2.24,35.5,14.56,40.26-8.25-7.29-11.98-21.6-8.52-36.54Z"/>
                  <path class="cls-24" d="M284.67,188.62c4.51-19.43,19.48-32.55,33.44-29.31,10.38,2.41,17.27,13.18,18.27,26.53,1.19-16.38-6.17-30.57-18.27-33.38-13.96-3.24-28.93,9.88-33.44,29.31-1.16,4.99-1.51,9.9-1.16,14.51,.18-2.52,.56-5.08,1.16-7.67Z"/>
                </g>
                <path class="cls-17" d="M340.01,210.37s-25.59-2.74-50.07,13.32c-27.26,17.88,16.63,5.17,16.63,5.17l33.44-18.49Z"/>
                <path class="cls-78" d="M339.6,210.41s-21.71,1.13-32.07,11.31c-7.04,6.92,3.68,7.05,3.68,7.05,0,0-15.14,3.96-16.82-3.86-1.68-7.82,26.32-15.12,45.21-14.49Z"/>
                <g>
                  <ellipse class="cls-55" cx="211.68" cy="187.65" rx="25.95" ry="36.11" transform="translate(-36.95 52.73) rotate(-13.07)"/>
                  <circle class="cls-51" cx="217.8" cy="196.29" r="19.6" transform="translate(-58.48 294.47) rotate(-61.59)"/>
                  <circle class="cls-48" cx="217.8" cy="196.29" r="18.11" transform="translate(-37.92 52.85) rotate(-12.74)"/>
                  <circle class="cls-41" cx="217.8" cy="196.29" r="9.43" transform="translate(-47.2 321.76) rotate(-67.36)"/>
                  <circle class="cls-6" cx="211.47" cy="190.23" r="5.07"/>
                  <path class="cls-6" d="M222.59,200.83c0,.95-.77,1.73-1.73,1.73s-1.73-.77-1.73-1.73,.77-1.73,1.73-1.73,1.73,.77,1.73,1.73Z"/>
                  <path class="cls-22" d="M201.36,206.95c3.27-4.12,8.94-6.85,15.41-6.85,7.2,0,13.41,3.39,16.42,8.31-3.59,4.55-9.14,7.49-15.39,7.49-6.89,0-12.94-3.56-16.44-8.94Z"/>
                  <path class="cls-27" d="M230.91,185.5c-4.51-19.43-19.48-32.55-33.44-29.31-.87,.2-1.72,.46-2.54,.78,2.48-2.19,5.37-3.76,8.59-4.51,13.96-3.24,28.93,9.88,33.44,29.31,4.23,18.21-2.24,35.5-14.56,40.26,8.25-7.29,11.98-21.6,8.52-36.54Z"/>
                  <path class="cls-24" d="M236.95,188.62c-4.51-19.43-19.48-32.55-33.44-29.31-10.38,2.41-17.27,13.18-18.27,26.53-1.19-16.38,6.17-30.57,18.27-33.38,13.96-3.24,28.93,9.88,33.44,29.31,1.16,4.99,1.51,9.9,1.16,14.51-.18-2.52-.56-5.08-1.16-7.67Z"/>
                </g>
                <path class="cls-17" d="M180.3,214.15s32.58-13.07,59.2,5.74c26.63,18.81-18.64,7.18-18.64,7.18l-40.56-12.92Z"/>
                <path class="cls-78" d="M185.12,212.7s28.98-3.2,37.36,7.64c5.65,7.3-4.68,7.93-4.68,7.93,0,0,20.82,.69,22.5-7.13,1.68-7.82-34.07-15.54-55.18-8.44Z"/>
                <path class="cls-57" d="M339.6,210.41s-19.21-3.67-50.35,11.63l.96,3.53s23.92-15.83,49.39-15.16Z"/>
                <path class="cls-57" d="M180.3,214.15s29.44-15.82,62.82,4.07l-2.22,3.82s-24.44-20.05-60.6-7.89Z"/>
                <path class="cls-49" d="M368.19,209.38c.5-3.76,.78-7.57,.78-11.45,0-52.83-47.45-95.66-105.99-95.66s-105.99,42.83-105.99,95.66c0,1.93,.08,3.85,.21,5.75-11.56,11.66-18.24,25.42-18.24,40.17,0,6.52,1.31,12.85,3.77,18.89-11.62-40.7,29.82-51.63,29.82-51.63-9.78-39.12,4.06-82.15,41.64-84.18,31.44-1.7,48.45,39.97,48.45,39.97l.09-.98,.09,.98s17.01-41.67,48.45-39.97c37.58,2.03,48.92,45.07,39.14,84.18,0,0,27.21,10.97,30.84,35.1,.04-.78,.06-1.57,.06-2.36,0-12.41-4.73-24.12-13.11-34.47Z"/>
                <path class="cls-66" d="M288.38,131.09c-16.34,8.62-35.84,7.88-52.39-.32-14.48-7.17-26.56-3.35-26.56-3.35l.02,.02c1.54-.24,3.1-.43,4.72-.52,31.44-1.7,48.45,39.97,48.45,39.97l.09-.98,.09,.98s17.01-41.67,48.45-39.97c.76,.04,1.5,.13,2.24,.2-.08-.02-.15-.03-.24-.05-9.6-1.66-17.91,.34-24.87,4.01Z"/>
                <path class="cls-1" d="M209.84,230.54s.24-3.14,9.48-2.55c9.99,.64,23.4-19.81,43.7-19.81,18.16,0,35.59,18.81,42.03,20.12,5.74,1.17,11.51-.89,11.51,3.9,0,.06-.11,.57-.11,.57,0,0-2.22,3.66-9.44,4.45-10.5,1.16-21.18,1.12-37.52,12.2,0,0-6.22,5.5-14.91,1.83-8.69-3.67-14.35-9.01-26.31-11.8s-18.37-4.54-18.43-8.93Z"/>
                <path class="cls-1" d="M209.84,230.54s.24-3.14,9.48-2.55c9.99,.64,23.4-19.81,43.7-19.81,18.16,0,35.59,18.81,42.03,20.12,5.74,1.17,11.55-.95,11.55,3.84,0,.14-.3,.97-.3,.97,0,0,.26,3.1-9.29,4.12-10.51,1.12-21.18,1.12-37.52,12.2,0,0-6.22,5.5-14.91,1.83-8.69-3.67-14.35-9.01-26.31-11.8s-18.37-4.54-18.43-8.93Z"/>
                <path class="cls-60" d="M280.18,215.89c-6.62-7.19-15.32-7.22-17.17-7.14-1.84-.08-10.55-.05-17.17,7.14-7.14,7.76-12.14,20.4-29.26,20.46,2.96,1.03,6.86,1.98,11.68,3.11,11.96,2.79,17.62,8.13,26.31,11.8,8.69,3.67,14.91-1.83,14.91-1.83,16.34-11.08,27-11.24,37.52-12.2,2.35-.21,4.1-.56,5.44-.96-.25,0-.52,.02-.8,.03-18.92,1.06-24.02-12.33-31.46-20.41Z"/>
                <path class="cls-61" d="M255.46,250.88c8.69,3.67,14.91-1.83,14.91-1.83,5.65-3.83,10.61-6.34,15.13-8.04-7.82-1.36-9.26-15.08-12.58-23.16-3.25-7.9-7.12-9.48-8.63-9.48-.12,0-.22,0-.31,0-.03,0-.06,0-.08,0-.02,0-.06,0-.08,0-.09,0-.19,0-.31,0-1.51,0-5.68,.79-8.92,8.69-4.01,9.74-6.77,25.81-16.83,24.82,6.68,2.81,11.4,6.35,17.71,9.01Z"/>
                <path class="cls-44" d="M257.68,225.78s-.31-15.84,5.53-13.71c5.84,2.13-.75,35.4-2.77,32.42s-2.76-18.71-2.76-18.71Z"/>
                <path class="cls-77" d="M212.3,231.41c.32-3.14,8.82-1.81,10.2-2.39s9.61-6.98,9.61-6.98l.05-.04c-4.88,3.49-9.11,6.21-12.85,5.98-9.24-.59-9.48,2.55-9.48,2.55,.06,4.39,6.47,6.14,18.43,8.93,.16,.04,.31,.08,.48,.12,2.75,.27,4.63,.45,4.63,.45,0,0-21.39-5.48-21.07-8.62Z"/>
                <path class="cls-77" d="M305.04,228.3c-2.79-.57-7.66-4.44-13.76-8.63,.02,.02,8.98,8.21,12.08,9.81,3.11,1.59,9.02,.48,9.89,3.43s-19.87,5.03-19.87,5.03c0,0,1.17,.19,3,.48,3.69-.56,7.17-.81,10.62-1.18,9.55-1.02,9.29-4.12,9.29-4.12,0,0,.3-.83,.3-.97,0-4.79-5.81-2.67-11.55-3.84Z"/>
                <path class="cls-16" d="M274.52,221.44c1.58,2.44,4.09,3.62,5.6,2.64,1.52-.98,1.47-3.75-.1-6.19-1.58-2.44-4.08-3.62-5.6-2.64-1.52,.98-1.47,3.75,.1,6.19Z"/>
                <path class="cls-16" d="M251.08,221.44c-1.58,2.44-4.09,3.62-5.6,2.64-1.52-.98-1.47-3.75,.1-6.19,1.58-2.44,4.08-3.62,5.6-2.64,1.52,.98,1.47,3.75-.1,6.19Z"/>
                <path class="cls-74" d="M251.08,221.92c-1.58,2.44-4.09,3.62-5.6,2.64-1.52-.98-1.47-3.75,.1-6.19,1.58-2.44,4.08-3.62,5.6-2.64,1.52,.98,1.47,3.75-.1,6.19Z"/>
                <path class="cls-70" d="M246.52,221.2c-.7,1.08-1.08,2.22-1.17,3.24,.04,.03,.08,.08,.13,.11,1.52,.98,4.03-.2,5.6-2.64,.7-1.08,1.08-2.22,1.17-3.24-.04-.03-.08-.08-.13-.11-1.52-.98-4.03,.2-5.6,2.64Z"/>
                <path class="cls-74" d="M274.52,221.92c1.58,2.44,4.09,3.62,5.6,2.64,1.52-.98,1.47-3.75-.1-6.19-1.58-2.44-4.08-3.62-5.6-2.64-1.52,.98-1.47,3.75,.1,6.19Z"/>
                <path class="cls-70" d="M279.07,221.2c.7,1.08,1.08,2.22,1.17,3.24-.04,.03-.08,.08-.13,.11-1.52,.98-4.03-.2-5.6-2.64-.7-1.08-1.08-2.22-1.17-3.24,.04-.03,.08-.08,.13-.11,1.52-.98,4.03,.2,5.6,2.64Z"/>
                <path class="cls-80" d="M212.45,235.46c4.81,3.29,9.46,2.1,19.87,5.71,6.89,2.39,15.26,6.11,20.51,9.65,13.18,8.89,19.84-8.26,39.49-11.27,19.66-3.01,23.34-.76,24.26-7.43,0,0-1.45,3.81-11.25,4.47-12.1,.81-21.27,2.45-30.4,8.48-9.13,6.02-13.01,8.15-17.97,6.38-4.96-1.77-14.45-8.38-23.61-11.41-5.79-1.91-20.6-4.31-22.24-8.16-1.64-3.85-3.31,.42,1.32,3.59Z"/>
                <g>
                  <path class="cls-50" d="M270.87,249.19c5.6-3.52,12.03-8.2,21.45-9.64,11.22-1.72,17.23-1.72,20.5-2.65,.89-.39,1.5-.66,1.77-.78-2.76,1.23-12.76,1.7-23.32,2.97-10.57,1.27-20.33,10.05-20.41,10.11Z"/>
                  <path class="cls-50" d="M314.65,236.09s-.03,.01-.05,.02c.01,0,.03-.01,.04-.02,0,0,0,0,0,0Z"/>
                </g>
                <path class="cls-50" d="M210.28,233.36c.48,.69,1.17,1.42,2.16,2.1,4.81,3.29,9.46,2.1,19.87,5.71,4.06,1.41,8.63,3.28,12.78,5.3h0s-9.58-6.37-21.33-8.07c-10.16-1.47-12.93-4.3-13.49-5.04Z"/>
                <path class="cls-60" d="M278.62,261.28s-7.39,6.27-12.28,7.49c-4.89,1.22,2.07,3.19,8.13-1.81,6.06-5,11.48-11.69,4.15-5.69Z"/>
                <path class="cls-60" d="M255.5,267.5s1.7,2.07,3.99,2.29c2.29,.21-5.69-4.36-3.99-2.29Z"/>
                <path class="cls-65" d="M269.48,265.96c1.74-.8,3.62-1.91,5.57-3.22-4.91-9.48-10.97-7.43-13.32-6.13-5.93-4.33-16.01-3.51-14.64-.06,0,0,0,0,0,0,.41,.44,.82,.88,1.24,1.34,11.24,12.28,14.84,10.97,21.15,8.08Z"/>
                <path class="cls-82" d="M262.56,259.63s-5.25-6.29-10.83-4.36c-3.49,1.21,4.63,10.28,12.33,10.63s3-14.24-1.5-6.27Z"/>
                <path class="cls-69" d="M263.51,255.85c.61-.16,4.98-1.2,6.51,1.77,1.65,3.19-1.01,8.93-6.01,9.62-5,.69-13.88-7.44-15.04-10.1-1.12-2.56,2.64-3.42,2.95-3.48-3.21,.05-5.52,1.12-4.82,2.89,0,0,0,0,0,0,.41,.44,.82,.88,1.24,1.34,11.24,12.28,14.84,10.97,21.15,8.08,1.74-.8,3.62-1.91,5.57-3.22-3.95-7.62-8.64-7.79-11.54-6.89Z"/>
                <path class="cls-5" d="M256.67,258.17s-1.51-2.29-2.79-1.69,4.82,4.25,2.79,1.69Z"/>
                <path class="cls-5" d="M258.7,259.07s-.62-.52-.5,0c.12,.52,1.43,1.25,.5,0Z"/>
                <g>
                  <path class="cls-36" d="M163.4,205.72c-8.93-30.11,7.74-55.27,9.63-58.37-10.15,14.68-16.04,32-16.04,50.58,0,1.93,.08,3.85,.21,5.75-8.14,8.21-13.85,17.46-16.52,27.37,4.99-16.85,22.72-25.33,22.72-25.33Z"/>
                  <path class="cls-36" d="M139.26,238.4s0-.04,0-.06c0,.02,0,.04,0,.06Z"/>
                </g>
                <path class="cls-36" d="M378.75,228.27c-2.21-6.65-5.79-12.99-10.56-18.88,.5-3.76,.78-7.57,.78-11.45,0-18.52-5.85-35.8-15.94-50.44,1.16,2.14,18.74,31.45,8.61,60.87,0,0,9.68,3.48,17.11,19.9Z"/>
                <path class="cls-2" d="M262.98,102.27c-27.54,0-52.62,9.48-71.47,25.02,16.23-11.67,42.34-25,97.68-15.64,29.81,5.05,56.32,25.32,71.62,49.42-15.99-34.53-53.76-58.8-97.83-58.8Z"/>
                <path class="cls-40" d="M379.34,282.11c4.26-5.97,9.02-16.82,1.25-29.97,0,0-19.78,52.19-125.2,52.83-79,.48-110.74-38.01-110.74-38.01,0,0-3.36,22.7,7.8,31.63,2.03,1.62,4.19,3.03,6.37,4.26-2.05,3.65-3.88,13.01,17.57,26.67,28.04,17.86,82.7,24.87,125.2,14.99,38.42-8.93,58.52-25.94,58.5-31.72,7.22-4.04,14.73-10.05,18.66-18.66,3.49-7.63,2.77-10.88,.58-12.01Z"/>
                <path class="cls-68" d="M379.34,282.11c2.41-3.38,4.99-8.33,5.35-14.37l-14.66-.38c-14.47,15.46-46.84,37.19-114.64,37.6-1.95,.01-3.84-.02-5.73-.05,7.43,.64,17.55,.86,31.36,.28,53.21-2.21,48.84,6.04,32.25,10.23-16.58,4.19-61.01,8.78-47.7,13.46,13.31,4.68,24.64,17.83-13.33,15.99-37.96-1.84-41.23-14.07-30.65-13.01s21.52,2.98,26.73-4c5.21-6.98-7.76-12.58-31.75-20.5-15.4-5.08-11.02-6.44-5.92-6.76-12.65-2.72-23.3-6.45-32.11-10.44-13.38-2.65-25.46-4.22-33.39-5.08,1.07,5.15,3.21,10.25,7.28,13.51,2.03,1.62,4.19,3.03,6.37,4.26-2.05,3.65-3.88,13.01,17.57,26.67,28.04,17.86,82.7,24.87,125.2,14.99,38.42-8.93,58.52-25.94,58.5-31.72,7.22-4.04,14.73-10.05,18.66-18.66,3.49-7.63,2.77-10.88,.58-12.01Z"/>
                <g>
                  <path class="cls-9" d="M360.09,312.79c7.22-4.04,14.73-10.05,18.66-18.66,3.49-7.63,2.77-10.88,.58-12.01,2.68-3.75,5.56-9.44,5.39-16.41l-35.81,18.2s-.02,.01-.07,.03c-2.27,1.32-4.68,2.63-7.26,3.9-7.04,4.09-10.25,8.48-7.9,12.73,4.46,8.11,33.38-1.35,21.21,6.36-12.16,7.7-66.6,17.17-66.46,23.23s33.5,4.45-5.06,12.44c-21.16,4.38-63.5,3.72-90.1-11.8-16.57-9.66-21.77-18.39,5.66-9.78,27.42,8.61,48.32,9.09,38.57,.21-17.62-16.03-72.18-18.24-71.33-27.42,.34-3.63,18.81,.42,32.08,3.63-25.71-7.58-41.33-19.04-48.62-25.54-1.67,.41-3.52,.86-5.43,1.34-.16,7.39,.84,19.41,8.26,25.35,2.03,1.62,4.19,3.03,6.37,4.26-2.05,3.65-3.88,13.01,17.57,26.67,28.04,17.86,82.7,24.87,125.2,14.99,38.42-8.93,58.52-25.94,58.5-31.72Z"/>
                  <path class="cls-9" d="M210.54,300.58s0,0-.01,0c-.01,0-.03,0-.05,0,.02,0,.06,.02,.06,.02Z"/>
                </g>
                <path class="cls-63" d="M360.09,312.79c7.22-4.04,14.73-10.05,18.66-18.66,3.49-7.63,2.77-10.88,.58-12.01,4.26-5.97,9.02-16.82,1.25-29.97,0,0-6.47,17.03-31.66,31.76h0s31.53-15.39,30.68-8.46c-.85,6.93-16.16,8.8-27.64,12.84-11.48,4.04-14.88,8.29-11.95,12.3,2.93,4.01,32.57-11.45,28.53,0-4.04,11.45-71,26.82-68.62,31.92,2.38,5.1,19.2-7.22,23.55-4.64,4.35,2.58,.35,9.96-32.16,15.69-32.51,5.74-81.36,2.55-107.24-12.76-25.88-15.31-17.84-29.34,6.95-18.07,24.79,11.27,47.84,15.52,39.8,8.93-8.04-6.59-20.87-10.2-37.45-13.82-16.58-3.61-36.75-6.3-41.24-16.16-4.49-9.86,9.13-8.83,9.13-8.83-5.88-4.9-11.52-9.06-16.93-12.59-.45,6.62-.41,21.5,8.13,28.33,2.03,1.62,4.19,3.03,6.37,4.26-2.05,3.65-3.88,13.01,17.57,26.67,28.04,17.86,82.7,24.87,125.2,14.99,38.42-8.93,58.52-25.94,58.5-31.72Z"/>
                <path class="cls-6" d="M190.19,215.12s-24.02,4.09-29.34,24.92c-5.31,20.82,33.25,43.64,66.38,39.47,32.3-4.06-21.52-37.98-25.86-45.33-2.51-4.24-4.17-9.56,8.47-11.7,12.64-2.14-2.96-9.68-19.65-7.36Z"/>
                <path class="cls-6" d="M335.44,216.97c9.51,1.47,27.07,4.6,29.34,24.92,2.39,21.36-31.72,44.14-64.85,39.97-32.3-4.06,20-38.48,24.34-45.82,2.51-4.24,4.17-9.56-8.47-11.7-12.64-2.14,3-9.94,19.65-7.36Z"/>
                <path class="cls-46" d="M168.29,305.92c18.92,.43,41.67,14.03,41.99,11.52,.32-2.51-17.97-7.91-38.8-11.95-20.74-4.02-24.93-15.56-24.97-15.66,1.25,3.4,3.14,6.51,5.94,8.75,2.03,1.62,4.19,3.03,6.37,4.26-1.76,3.14-3.34,10.5,9.86,21.18,0,0-19.31-18.53-.4-18.1Z"/>
                <g>
                  <path class="cls-46" d="M365.89,287.64c-16.9,5.53-18.17,8.5-12.86,7.65s22.32-12.56,25.72-11.38c3.05,1.06-.66,12.25-4.59,17.51,1.8-2.19,3.37-4.62,4.59-7.3,3.49-7.63,2.77-10.88,.58-12.01,2.52-3.53,5.21-8.75,5.39-15.15,0,.01-1.93,15.16-18.83,20.68Z"/>
                  <path class="cls-46" d="M372.8,302.99c-4.36,4.13-14.22,11.32-29.42,14.46-15.22,3.14-32.9,11.01-26.82,10.37,6.08-.64,37.09-17.55,41.15-10.37,1.59-1.9,2.4-3.5,2.4-4.66,4.42-2.48,8.95-5.7,12.7-9.8Z"/>
                </g>
                <g>
                  <path class="cls-46" d="M278.38,303.94s0,0,0,0c-7.17,.62-14.82,.98-22.99,1.03-79,.48-110.74-38.01-110.74-38.01,0,0-.18,1.24-.32,3.24h0s40.07,42.8,134.05,33.73Z"/>
                  <path class="cls-46" d="M381.9,254.57c-.39-.8-.82-1.61-1.31-2.43,0,0-12.47,32.86-70.29,46.75,49.13-11.26,66.21-33.96,71.6-44.32Z"/>
                </g>
                <g>
                  <path class="cls-40" d="M210.48,447.82c11.95-6.55,20.69-7.04,25.36-4.42-.02-.01-.04-.03-.06-.04-32.1-21.68-38.37-51.02-44.11-66.01-5.74-14.99-31.28-3.51-35.4,35.08-4.88,45.79,28.84,81.63,28.84,81.63,0,0-4.3-29.97,25.36-46.24Z"/>
                  <path class="cls-40" d="M240.66,447.71c-.85-1.06-1.92-2.11-3.24-3.15,4.91,4.56,2.18,14.13-10.35,21.44,0,0,15.74-7.58,13.59-18.29Z"/>
                </g>
              </g>
              <path class="cls-36" d="M132.78,495.19c-1.5-7.5-3.6-15.51-4.45-24.3-6.8-70.58,22.79-143.85,22.79-143.85-14.62,32.23-39.35,101.73-18.33,168.16Z"/>
            </g>
            <g>
              <path class="cls-57" d="M291.32,567.11c-11.9-10.42-22.75-15.52-39.54-.64-16.61,14.72-43.89,14.23-44.48,14.22,15.7,1.98,31.59-1.91,46.4-8.19,1.91-.81,3.78-1.66,5.61-2.55,5.98-2.91,12.92-2.91,18.9,0,1.83,.89,3.7,1.75,5.61,2.55,18.69,7.92,39.1,12.05,58.68,5.35-14.58,4.69-39.75-.75-51.17-10.74Z"/>
              <path class="cls-57" d="M345.84,576.6c-.27,.1-.73,.27-1.38,.54,.46-.18,.92-.35,1.38-.54Z"/>
              <path class="cls-57" d="M344,577.32c-.17,.07-.35,.13-.52,.19,.17-.06,.35-.13,.52-.19Z"/>
            </g>
            <g>
              <path class="cls-54" d="M187.58,87.52s43.76-55.83,84.9-50.4c41.14,5.43,64.49,46.28,64.49,46.28l-149.39,4.12Z"/>
              <path class="cls-13" d="M274.11,37.29c-12.4-1.64-24.55,1.68-35.52,7.18,.77-.06,2.05-.44,3.95-1.21,22.05-9.03,50.12-.37,56.9,7.24,6.78,7.6,11.42,11.36-17.04,10.6-28.46-.76-58.45,5.98-64.91,5.31-4.3-.44-2.72-4.45-1.19-7.08-14.31,11.86-23.53,23.99-23.53,23.99l18.87,.22c14.21-1.6,31.17-3.52,33.67-3.62,1.84-.08,23.08,2.06,47.05,4.55l47.72,.55s-23.85-42.17-65.96-47.74Z"/>
              <path class="cls-42" d="M335.75,78.73c-3.37-4.8-9.47-12.64-18.09-20.28,1.14,4.45-8.86,8.48-37.25,8.03-52.71-.84-72.69,11.12-74.52,8.93-1.82-2.18,10.14-16,10.22-16.09-.07,.05-.13,.11-.2,.16-3.74,3-7.6,6.42-11.22,9.79-7.58,7.14-13.13,13.47-15.64,16.44l146.7-6.99Z"/>
              <g>
                <path class="cls-54" d="M162.56,116.23c-4.02,2.53-9.73,6.91-5.91,13.47,3.82,6.56,1.81,9.15,5.03,10.36,3.23,1.21,3.69,.86,.95,2.55-2.75,1.69-3.46,4.04-1.87,11.54,1.59,7.5,2.34,11.65,2.34,11.65,0,0,41.04-44.44,104.12-39.08,63.09,5.36,93.11,38.69,95.6,39,2.49,.31,7.67-14.07,5.58-17.57-2.09-3.51-4.17-3.76,.35-2.8,4.52,.96-.68-11.45,3.03-17.48,3.71-6.03-7.3-12.48-27.42-20.43-20.92-8.27-101.59-41.77-181.82,8.78Z"/>
                <path class="cls-13" d="M371.8,127.88c3.71-6.03-7.3-12.48-27.42-20.43-13.44-5.31-51.54-21.03-98.34-18.2,75.81,1.36,118.56,31.15,116.05,33.58-2.52,2.43,1.5,3.23,3.39,8.33,1.89,5.1,1.89,6.02-36.17-8.73-38.05-14.75-82.65-12.65-44.9-8.08s62.91,18.53,73.5,25.01c10.59,6.48,5.18,14.23-.77,12.89-5.27-1.19-9.88-8.73-57.59-22.23-47.71-13.5-84.78-.74-106.82,8.41-22.05,9.15-25.28,16.46-24.12,7.16,1.16-9.29,17.86-12.81,24.1-19.65,6.24-6.84-22.97,11.47-28.38,11.71-5.41,.24,.99-5.36,1.29-7.75,.3-2.4-7.33-2.12-6.92-5.42,.36-2.84,17.51-15.08,22.22-18.39-6.1,2.93-12.22,6.29-18.34,10.14-4.02,2.53-9.73,6.91-5.91,13.47,3.82,6.56,1.81,9.15,5.03,10.36,3.23,1.21,3.69,.86,.95,2.55-2.75,1.69-3.46,4.04-1.87,11.54,1.59,7.5,2.34,11.65,2.34,11.65,0,0,43-33.27,106.09-27.91,63.09,5.36,91.14,27.53,93.64,27.84,2.49,.31,7.67-14.07,5.58-17.57-2.09-3.51-4.17-3.76,.35-2.8,4.52,.96-.68-11.45,3.03-17.48Z"/>
                <path class="cls-42" d="M267.38,137.86c2.97,.25-47.45-12.45-99.51,18.59-2.89,1.72-5.79-5.99-4.96-10.96,.83-4.97,17.34-12.06,18.84-13.9,1.5-1.84-10.01,4.04-14.8,6.9-4.79,2.86-6.6,.4-6.6,.4l-.13,.17c.07,.1,.16,.19,.25,.28,.02,.01,.03,.03,.05,.04,.08,.08,.17,.15,.26,.22,.05,.03,.1,.06,.15,.1,.08,.05,.16,.1,.24,.15,.15,.08,.32,.15,.5,.22,3.23,1.21,3.69,.86,.95,2.55-2.75,1.69-3.46,4.04-1.87,11.54,1.59,7.5,2.34,11.65,2.34,11.65,0,0,41.19-33.31,104.27-27.95Z"/>
                <path class="cls-42" d="M368.41,148.16c-2.09-3.51-4.17-3.76,.35-2.8,4.52,.96-.68-11.45,3.03-17.48,3.71-6.03-7.3-12.48-27.42-20.43-1.29-.51-2.8-1.11-4.53-1.79h-.1s25.64,12.7,27.49,18.21c1.84,5.5-1.23,3.09-.05,5.47,1.18,2.38,2.67,9.05,.72,9.42-1.95,.37-27.58-10.71-24.82-9.15,2.76,1.56,24.43,8.9,23.73,21.19-.7,12.29-15.71,1.37-21.07-.37-18.78-6.12-32.55-9.43-47.96-11.13-.87-.1-.25-.24-.63-.06,45.99,10.39,63.53,26.23,65.66,26.49,2.49,.31,7.67-14.07,5.58-17.57Z"/>
              </g>
              <g>
                <path class="cls-10" d="M269.54,78.65c-22.46-.3-60,3.5-86.87,19.36-28.68,16.93,11.92,49.29,21.27,50.92,9.35,1.62,17.85,2.68,20.69-.51,7.86-8.83,27.11-29.62,29.62-32.19,9.17-9.38,26.52-4.98,30.56,1.81,1.37,2.3,16.44,21.93,22.48,27.2,6.05,5.27,18.7,5.56,24.51,1.29,4.09-3,25.23-25.35,22.48-44.91s-62.74-22.68-84.73-22.97Z"/>
                <path class="cls-4" d="M354.28,101.62c-.12-.83-.35-1.63-.66-2.4,1.34,19.12-18.69,40.27-22.66,43.18-5.81,4.26-18.46,3.98-24.5-1.29-6.05-5.27-21.11-24.9-22.48-27.2-4.04-6.79-21.39-11.2-30.56-1.81-2.51,2.57-21.76,23.36-29.62,32.19-2.84,3.19-11.34,2.13-20.69,.51-6.17-1.07-25.95-15.53-30.44-30.11,1.46,15.85,24.53,33.07,31.28,34.25,9.35,1.62,17.85,2.68,20.69-.51,7.86-8.83,27.11-29.62,29.62-32.19,9.17-9.38,26.52-4.98,30.56,1.81,1.37,2.3,16.44,21.93,22.48,27.2,6.05,5.27,18.7,5.56,24.51,1.29,4.09-3,25.23-25.35,22.48-44.91Z"/>
                <path class="cls-1" d="M367.34,97.64c-3.04-23.79-72.11-27.18-97.43-27.38-25.87-.21-69.13,4.66-100.18,24.16-33.15,20.8,24.66,67.7,35.41,69.61,10.75,1.91,25.53-2.05,28.83-5.96,9.11-10.81,18.79-26.68,21.58-29.77,7.84-8.71,17.83-5.46,21.63-1.43,2.15,2.28,20.25,24.34,27.18,30.72,6.93,6.38,26.05,4.69,31.38,2,5.33-2.69,34.65-38.15,31.61-61.94Zm-35.54,48.89c-5.81,4.26-18.46,3.98-24.51-1.29-6.05-5.27-20.95-24.99-22.48-27.2-6.42-9.26-25.16-11.38-33.39-.89-2.21,2.82-18.16,21.09-26.02,29.93-2.84,3.19-12.11,3.47-21.46,1.85-9.35-1.62-49.95-33.99-21.27-50.92,26.87-15.86,64.41-19.65,86.87-19.36,21.99,.29,81.98,3.41,84.73,22.97,2.75,19.56-18.39,41.91-22.48,44.91Z"/>
                <path class="cls-61" d="M170.23,97.7c31.06-19.49,74.31-24.36,100.18-24.16,24.66,.2,90.81,3.42,97.05,25.57-.04-.49-.06-.99-.12-1.48-3.04-23.79-72.11-27.18-97.43-27.38-25.87-.21-69.13,4.66-100.18,24.16-9.15,5.75-11.36,13.48-9.55,21.71-.58-6.98,2.13-13.45,10.06-18.42Z"/>
                <path class="cls-7" d="M196.79,91.09l-16.36,39.89c7.77,9.59,19.11,17.18,23.51,17.94,.15,.03,.3,.05,.46,.08l27.67-67.48c-11.75,1.92-23.98,4.97-35.29,9.57Z"/>
                <path class="cls-7" d="M240.5,80.31l-28.62,69.8c5.94,.68,10.76,.55,12.76-1.7,1.75-1.97,4.07-4.53,6.64-7.35l25.49-62.15c-5.1,.25-10.57,.71-16.26,1.41Z"/>
                <path class="cls-7" d="M312.97,81.9l-19.51,47.57c4.89,6.14,10.62,12.96,13.83,15.76,.24,.21,.51,.4,.78,.6l24.54-59.84c-5.98-1.73-12.73-3.07-19.63-4.09Z"/>
                <path class="cls-7" d="M337.37,87.52l-24.85,60.61c3.14,1.1,6.74,1.51,10.13,1.27l23.69-57.77c-2.53-1.55-5.57-2.91-8.97-4.12Z"/>
                <path class="cls-7" d="M229.38,115.05c24.72-7.97,43.49-22.2,49.9-36.13-3.71-.15-7.02-.23-9.74-.26-22.46-.3-60,3.5-86.87,19.36-9.37,5.53-11.34,12.71-9.43,19.93,14.28,4.59,34.93,3.95,56.13-2.89Z"/>
                <path class="cls-8" d="M221.28,109.69c.44,3.63-6.18,7.3-14.8,8.21-8.61,.91-15.96-1.3-16.4-4.92-.44-3.63,6.18-7.3,14.8-8.21,8.61-.91,15.96,1.3,16.4,4.92Z"/>
                <path class="cls-8" d="M237.55,107.48c.43,1.86-1.98,3.94-5.39,4.65-3.41,.71-6.52-.23-6.96-2.09-.43-1.86,1.98-3.94,5.39-4.65,3.41-.71,6.52,.23,6.96,2.09Z"/>
                <path class="cls-80" d="M204.45,152.21c9.35,1.62,18.62,1.34,21.46-1.85,7.86-8.83,23.81-27.11,26.02-29.93,8.23-10.49,26.97-8.37,33.39,.89,1.53,2.21,16.44,21.93,22.48,27.2,6.05,5.27,18.7,5.56,24.5,1.29,4.09-3,25.23-25.35,22.48-44.91-.07-.48-.18-.95-.31-1.41,1.23,19.08-18.71,40.12-22.67,43.03-5.81,4.26-18.46,3.98-24.51-1.29-6.05-5.27-20.95-24.99-22.48-27.2-6.42-9.26-25.16-11.38-33.39-.89-2.21,2.82-18.16,21.09-26.02,29.93-2.84,3.19-12.11,3.47-21.46,1.85-6.36-1.1-27.2-16.46-30.82-31.49,.99,16,24.49,33.59,31.32,34.78Z"/>
              </g>
              <path class="cls-58" d="M253.28,42.89s-21.99,5.04-31.5,15.6c-9.5,10.56,46.54-16.49,31.5-15.6Z"/>
            </g>
          </g>
          <g>
            <g>
              <g>
                <path class="cls-33" d="M110.28,56.17c-.33-9.15-1.03-29.91-12.38-35.5-11.35-5.58-39.59-9.25-54.32,4.4-14.73,13.65,5.57,115.46,7.99,136.13,2.41,20.67,35,429.09,43.09,434.9,8.09,5.81,52.03,5.87,54.6,1.33,2.57-4.53-30.56-263.16-31.75-320.62-1.19-57.46-5.26-165.49-7.23-220.65Z"/>
                <path class="cls-18" d="M115.25,54.85c-.33-9.15-1.03-29.91-12.38-35.5-11.35-5.58-39.59-9.25-54.32,4.4-14.73,13.65,5.57,115.46,7.99,136.13,2.41,20.67,35,429.09,43.09,434.9,8.09,5.81,47.89,6.93,50.46,2.4,2.57-4.53-26.41-264.23-27.61-321.69-1.19-57.46-5.27-165.49-7.23-220.65Z"/>
                <path class="cls-25" d="M48.55,23.76c6.88-6.37,16.69-8.97,26.36-9.36l4.55,.93s33.87,257,34.96,265.65c1.01,7.99,6.68-4.82,7.53-27.27,.21,7.83,.38,15.15,.52,21.8,.96,46.47,20.11,225.2,26.03,294.27l-3.5,2.78-50.45-45.67c-2.64-24.62-10.32-54.05-13.27-85.63-5.37-118.66-15.11-325.37-18.22-333.19-1.75-4.4-9.97-22.28-19.21-42.13-1.4-20.34-.71-37.18,4.68-42.18Z"/>
                <path class="cls-43" d="M131.21,430.94s-4.61,26.67-22.99,15.46c-18.38-11.22-16.26-42.14-16.26-42.14l10.94-1.71-5.79-54.41s-9.93-1.51-10.26-5.66c-.34-4.15,1.53-33.04,1.53-33.04l26.52,25.06,6.85,89.79,9.45,6.66Z"/>
                <polygon class="cls-76" points="116.45 338.25 123.99 408.81 110.14 406.99 99.74 338.23 116.45 338.25"/>
                <polygon class="cls-62" points="118.53 336.21 126.06 406.77 112.21 404.95 101.81 336.19 118.53 336.21"/>
                <path class="cls-39" d="M96.11,404.14c6.41-1.45,6.8-1.6,6.8-1.6,0,0,30.19,30.33,24.63,35.14-6.93,6-24.11,1.24-27.97-6.66-3.86-7.9-6.21-26.26-3.46-26.88Z"/>
                <path class="cls-32" d="M101.35,402.88c6.42-1.5,22.55-.73,26.98-.27,3.47,.36,5.64,29.55,.06,34.52-6.95,6.19-19.83,1.58-23.66-6.55-3.84-8.13-6.14-27.05-3.39-27.7Z"/>
                <path class="cls-39" d="M89.66,342.24c8.03,1.08,8.53,1.22,8.53,1.22,0,0,30.31-39.77,22.61-45-9.58-6.51-29.35,1.03-32.41,10.97-3.06,9.94-2.18,32.35,1.27,32.81Z"/>
                <path class="cls-64" d="M96.23,343.2c8.05,1.14,27.37-1.49,32.63-2.5,4.12-.8,.83-36.26-6.91-41.68-9.64-6.74-24.25,.17-27.23,10.39-2.98,10.22-1.93,33.3,1.52,33.79Z"/>
              </g>
              <path class="cls-29" d="M99.63,594.79c-1.2-.87-2.95-10.64-5.06-26.73,2.26,7,4.63,12.69,7.09,16.35,15.22,22.69,32.72-125.94,34.64-142.66,7.57,78.13,15.17,153.02,13.79,155.43-2.57,4.53-42.37,3.42-50.46-2.4Z"/>
              <path class="cls-29" d="M139.68,476.54c6.27,64.22,11.57,118.6,10.41,120.65-2.57,4.53-42.37,3.42-50.46-2.4-.55-.39-1.2-2.62-1.95-6.43,3.83,4.19,13.94,13.34,23.61,5.52,13.07-10.57,17.79-103.89,18.4-117.34Z"/>
              <path class="cls-47" d="M106.57,433.45c-.73-.89-1.35-1.85-1.83-2.87-3.84-8.13-6.14-27.05-3.39-27.7,6.42-1.5,22.55-.73,26.98-.27,0,0-10.52,25.01-21.76,30.84Z"/>
              <path class="cls-15" d="M103.76,298.81s-9.53,4.01-10.01,15.04c0,0,2.28-9.39,10.01-15.04Z"/>
            </g>
            <g>
              <g>
                <path class="cls-59" d="M74,49.51c-1.18-9.25-3.82-30.26-15.84-35.37C46.14,9.04,17.19,6.68,3.53,21.22c-13.66,14.54,16.39,116.71,20.76,137.54,4.37,20.83,75.39,433.06,84.13,438.56,8.74,5.5,53.26,3.44,55.45-1.28s-55.45-265.16-62-323.32c-6.56-58.16-20.73-167.42-27.86-223.21Z"/>
                <path class="cls-71" d="M78.92,47.94c-1.18-9.25-3.82-30.26-15.84-35.37-12.02-5.11-40.97-7.47-54.63,7.07-13.66,14.54,16.39,116.71,20.76,137.54,4.37,20.83,75.39,433.06,84.13,438.56,8.74,5.5,49.17,4.72,51.35,0,2.18-4.72-51.35-266.44-57.91-324.6-6.56-58.16-20.73-167.42-27.86-223.21Z"/>
                <path class="cls-26" d="M63.59,311.74c-2.69-1.63-5.08-2.53-7.22-2.9,4.29,23.9,8.81,48.97,13.36,73.93,0,0,0,0,0,0,17.69-13.29,13.98-58.85-6.15-71.03Z"/>
                <path class="cls-29" d="M113.33,595.75c-1.3-.82-3.98-10.64-7.61-26.84,2.94,6.98,5.87,12.63,8.7,16.23,17.53,22.26,21.44-129.17,21.82-146.21,14.94,78.79,29.6,154.3,28.44,156.82-2.18,4.72-42.61,5.5-51.35,0Z"/>
                <path class="cls-26" d="M139.29,470.38s-4.63,16.97-19.65,14.85c-21.96-3.09-22.6-40-22.6-40l10.93-2.26-10.93-54.85s-10-1.07-10.93-5.24c-5.5-24.85-1.52-33.55-1.52-33.55l29.2,24.11,15.3,90.65,10.2,6.29Z"/>
                <polygon class="cls-52" points="115.7 377.18 129.91 448.31 115.7 447.13 98.77 377.97 115.7 377.18"/>
                <polygon class="cls-37" points="117.62 375.02 131.82 446.15 117.62 444.97 100.68 375.81 117.62 375.02"/>
                <path class="cls-81" d="M101.23,444.92c6.36-1.78,6.74-1.95,6.74-1.95,0,0,33.41,29.27,28.22,34.42-6.46,6.41-24.31,2.42-28.95-5.4-4.64-7.82-8.74-26.31-6.01-27.07Z"/>
                <path class="cls-30" d="M106.42,443.4c6.36-1.83,22.78-1.82,27.31-1.57,3.55,.2,8.47,29.67,3.28,34.97-6.46,6.61-19.94,2.55-24.58-5.5-4.64-8.06-8.74-27.12-6.01-27.9Z"/>
                <path class="cls-81" d="M88.93,382.52c8.24,.7,8.75,.82,8.75,.82,0,0,27-41.75,18.72-46.68-10.31-6.14-29.64,2.46-31.81,12.67-2.17,10.22,.8,32.88,4.34,33.18Z"/>
                <path class="cls-30" d="M95.68,383.18c8.26,.77,27.59-2.82,32.82-4.11,4.1-1.01-2.54-36.78-10.88-41.9-10.39-6.37-24.55,1.34-26.63,11.84-2.07,10.5,1.14,33.83,4.69,34.16Z"/>
              </g>
              <path class="cls-72" d="M102.41,282.55S82.47,38.31,65.26,21.61C53.27,9.97,17.19,12.18,15,39.69c-2.19,27.51,36.65,237.75,47.34,246.03,14.52,11.24,36.79,3.9,40.06-3.17Z"/>
              <path class="cls-6" d="M15,44.41c-.02,.24-.03,.49-.04,.74-.09-2.1-.08-3.94,.04-5.45,1.72-21.71,24.55-27.65,40-23.48-15.9-2.55-38.33,5.59-40,28.19Z"/>
              <path class="cls-29" d="M142.91,474.01c12.33,64.77,22.76,119.6,21.77,121.74-2.18,4.72-42.61,5.5-51.35,0-.59-.37-1.46-2.6-2.58-6.42,4.27,4.06,15.37,12.84,24.43,4.46,12.26-11.34,8.36-106.11,7.73-119.77Z"/>
              <path class="cls-45" d="M117.62,337.18c1.89,1.16,3.68,3.88,5.29,7.41-1.81,2.37-18.29,23.62-30.72,30.84-1.69-7.84-2.51-19.73-1.19-26.42,2.07-10.5,16.23-18.21,26.63-11.84Z"/>
              <path class="cls-45" d="M114.55,474.12c-.83-.87-1.54-1.81-2.12-2.82-4.64-8.06-8.74-27.12-6.01-27.9,6.36-1.83,22.78-1.82,27.31-1.57,0,0-8.33,25.84-19.18,32.29Z"/>
              <path class="cls-15" d="M99.18,337.84s-9.29,4.52-8.74,15.72c0,0,1.43-9.63,8.74-15.72Z"/>
            </g>
            <path class="cls-71" d="M103.77,22.6c5.74,5.89,7.65,12.58,9.01,30.65,1.31,17.34,5.65,105.12,2,101.45-3.64-3.67-23.52-132.96-21.12-134.46,2.15-1.34,7.02-.82,10.11,2.36Z"/>
          </g>
          <g>
            <g>
              <polygon class="cls-53" points="426.44 574.91 417.74 573.75 488.34 189.03 497.04 190.19 426.44 574.91"/>
              <polygon class="cls-67" points="426.44 574.91 417.74 573.75 488.34 189.03 497.04 190.19 426.44 574.91"/>
              <polygon class="cls-14" points="424.57 574.66 419.61 574 490.21 189.28 495.17 189.94 424.57 574.66"/>
              <path class="cls-54" d="M485.22,229.34h0c-4.78-.65-8.06-4.53-7.3-8.62l9.4-50.13c.77-4.08,5.3-6.89,10.08-6.24h0c4.78,.65,8.06,4.53,7.3,8.62l-9.4,50.13c-.77,4.08-5.3,6.89-10.08,6.24Z"/>
              <path class="cls-13" d="M479.03,225.71s8.4,5.35,10.41-6.97c2-12.31,8.51-49.8,8.51-49.8l4.77-.93s-7.29,55.56-11.09,57.48c-3.8,1.92-7.21,4.61-12.59,.21Z"/>
              <g>
                <path class="cls-38" d="M420.58,594.96c-.57,4.4-3.4,7.74-3.4,7.74,0,0-1.9-3.79-1.33-8.19,.57-4.4,3.4-7.74,3.4-7.74,0,0,1.9,3.79,1.33,8.19Z"/>
                <path class="cls-54" d="M406.07,564.33s7.86,22.97,10.3,25.05c2.44,2.08,5.34,1.3,6.13,.81,5.45-3.42,19.17-22.5,19.17-22.5l-35.6-3.37Z"/>
                <path class="cls-13" d="M434.67,568.51l-13.27-2.71-6.21-.59-6.45,.89s-.61,1.27-1.19,2.58c1.03,2.9,2.47,6.84,3.92,10.52-.44-2.19,1.66-9.82,10.82-9.3,12.62,.71,2.12,21.35-5.26,19.99,2.27,1.43,4.72,.77,5.43,.32,3.72-2.34,11.3-11.97,15.73-17.85l-3.52-3.86Z"/>
                <path class="cls-42" d="M440.72,567.63l-30.49-2.88-3.58,1.4c1.03,2.93,3.16,8.93,5.23,14.13-.96-3.58-2.93-8.5,3.32-11.02,9.12-3.68,19.04,1.45,18.89,5.51-.14,3.9-10.79,15.74-16.37,15.49,2.05,.92,4.09,.35,4.73-.05,4.83-3.03,16.12-18.32,18.65-21.79l-.39-.8Z"/>
                <path class="cls-13" d="M446.98,574.37c-17.98-7.89-28.22-8.85-47.79-4.52-1.69,.37-3.27-.84-3.51-2.77h0c-.24-1.93,1.03-3.91,2.84-4.31,20.85-4.62,31.76-3.59,50.93,4.82,1.66,.73,2.39,2.89,1.67,4.73h0c-.73,1.84-2.58,2.73-4.13,2.05Z"/>
              </g>
              <path class="cls-58" d="M501.22,169.22s-6.4,.32-9.49-1.19c-3.09-1.51-13.81,58.07-10.83,56.5,2.98-1.58,9.87-52.79,11.7-54.24,1.83-1.45,10.71,1.78,8.63-1.07Z"/>
              <path class="cls-42" d="M499.16,164.76c-2.45-.27-4.88-.33-6.57,.11-.5,.18-.98,.41-1.44,.66-.13,.11-.28,.2-.38,.33-2.51,3.24,9.07,3.56,10.98,4.05,1.91,.49-6.53,52.34-12.66,56.38-4.75,3.13-8.57,.67-10.07-.6,1.29,1.87,3.5,3.27,6.2,3.64,4.78,.65,9.32-2.15,10.08-6.24l9.4-50.13c.67-3.56-1.75-6.97-5.55-8.21Z"/>
              <path class="cls-25" d="M446.98,574.37c1.55,.68,3.4-.21,4.13-2.05,.73-1.84,0-4.01-1.67-4.73-.6-.26-1.17-.5-1.76-.75,5.59,10.01-10.67,.97-21.1-1.32-10.46-2.3-26.23,4.74-27.82,1.21-1.32-2.95,3.23-4.55,4.76-4.99-1.61,.31-3.27,.64-5.01,1.02-1.8,.4-3.07,2.37-2.84,4.31,.24,1.93,1.82,3.15,3.51,2.77,19.57-4.33,29.81-3.37,47.79,4.52Z"/>
              <path class="cls-54" d="M419.39,560.68c-4.43-.17-17.18,.78-17.82,3.14-.7,2.55,7.55-1.86,21.33-1.62,8.91,.15,1.46-1.32-3.5-1.51Z"/>
              <path class="cls-54" d="M436.52,563.79c-1.31-.56-6.08-2.1-5.68-1.22,.4,.88,8.82,2.56,5.68,1.22Z"/>
            </g>
            <g>
              <polygon class="cls-67" points="394.55 575.46 386.05 573.53 503.3 197.22 511.8 199.15 394.55 575.46"/>
              <polygon class="cls-14" points="392.73 575.05 387.88 573.94 505.13 197.63 509.98 198.74 392.73 575.05"/>
              <path class="cls-54" d="M495.27,237.03h0c-4.67-1.08-7.46-5.23-6.2-9.22l15.48-49.01c1.26-3.99,6.12-6.38,10.79-5.3h0c4.67,1.08,7.46,5.23,6.2,9.22l-15.48,49.01c-1.26,3.99-6.12,6.38-10.79,5.3Z"/>
              <path class="cls-13" d="M489.55,232.86s7.7,6.07,11.2-6c3.5-12.06,14.55-48.76,14.55-48.76l4.86-.49s-14.04,54.6-18.06,56.17c-4.02,1.57-7.74,3.94-12.55-.91Z"/>
              <g>
                <path class="cls-38" d="M386.28,594.87c-1.1,4.33-4.32,7.4-4.32,7.4,0,0-1.43-3.94-.32-8.27,1.1-4.33,4.32-7.4,4.32-7.4,0,0,1.43,3.94,.32,8.27Z"/>
                <path class="cls-54" d="M375.6,563.09s5.01,23.55,7.18,25.84c2.17,2.29,5.16,1.77,5.99,1.35,5.84-2.91,21.81-20.66,21.81-20.66l-34.99-6.53Z"/>
                <path class="cls-13" d="M403.55,569.78l-12.86-3.88-6.11-1.14-6.52,.31s-.76,1.21-1.5,2.46c.67,2.98,1.62,7.03,2.61,10.82-.17-2.21,2.85-9.62,11.9-8.29,12.46,1.83-.5,21.42-7.67,19.41,2.08,1.62,4.6,1.18,5.36,.8,3.99-1.99,12.7-10.89,17.82-16.34l-3.03-4.15Z"/>
                <path class="cls-42" d="M409.68,569.44l-29.97-5.59-3.73,1.08c.66,3.01,2.05,9.17,3.48,14.52-.52-3.65-1.88-8.71,4.65-10.66,9.52-2.84,18.76,3.14,18.12,7.17-.62,3.86-12.65,14.69-18.18,13.94,1.93,1.09,4.03,.71,4.71,.37,5.17-2.58,18.27-16.78,21.21-20l-.29-.83Z"/>
                <path class="cls-13" d="M414.67,576.73c-16.92-9.45-26.99-11.33-46.98-8.76-1.73,.22-3.15-1.13-3.15-3.07h0c0-1.94,1.51-3.79,3.35-4.03,21.3-2.73,32.03-.73,50.06,9.34,1.56,.87,2.03,3.09,1.08,4.86h0c-.95,1.77-2.9,2.49-4.36,1.67Z"/>
              </g>
              <path class="cls-58" d="M518.53,178.66s-6.41-.25-9.3-2.03c-2.89-1.78-20.83,56.52-17.68,55.22,3.15-1.3,16.27-51.62,18.27-52.9s10.44,2.73,8.71-.29Z"/>
              <path class="cls-42" d="M517.02,174.05c-2.41-.49-4.82-.76-6.54-.48-.52,.14-1.03,.32-1.51,.53-.15,.09-.3,.18-.42,.29-2.89,3,8.59,4.35,10.42,5.01,1.84,.66-12.89,51.47-19.49,54.94-5.1,2.68-8.61-.1-9.94-1.49,1.05,1.98,3.09,3.56,5.72,4.17,4.67,1.08,9.53-1.31,10.79-5.3l15.48-49.01c1.1-3.48-.88-7.09-4.51-8.66Z"/>
              <path class="cls-25" d="M414.67,576.73c1.46,.82,3.41,.1,4.36-1.67,.95-1.77,.48-3.99-1.08-4.86-.57-.32-1.1-.6-1.66-.9,4.34,10.46-10.73,.01-20.82-3.19-10.12-3.22-26.67,2.37-27.81-1.28-.96-3.05,3.77-4.23,5.34-4.54-1.64,.16-3.33,.34-5.11,.57-1.84,.24-3.35,2.09-3.35,4.03,0,1.94,1.42,3.29,3.15,3.07,19.99-2.56,30.05-.69,46.98,8.76Z"/>
              <path class="cls-54" d="M389.29,560.68c-4.38-.57-17.18-.76-18.11,1.53-1,2.47,7.74-1.17,21.41,.29,8.85,.95,1.62-1.18-3.3-1.82Z"/>
              <path class="cls-54" d="M405.94,565.3c-1.24-.67-5.78-2.63-5.5-1.72,.29,.91,8.46,3.33,5.5,1.72Z"/>
            </g>
          </g>
          <path class="cls-49" d="M33.9,325.8s4.15-27.43,24.27-15.25c20.12,12.19,23.84,57.74,6.15,71.03,0,0-26.17-29.96-30.42-55.78Z"/>
          <path class="cls-36" d="M58.17,310.56c-13.57-8.22-19.87,1.58-22.54,8.84,3.33-6.25,9.58-11.85,20.85-5.03,16.08,9.74,21.09,40.86,14.44,59.15,9.39-17.67,4.51-52.51-12.75-62.96Z"/>
          <path class="cls-49" d="M492.1,288.04s-9.2-24.61-25.46-9.39c-16.27,15.22-14.05,56.65,4.94,65.51,0,0,21.63-31.36,20.53-56.12Z"/>
          <path class="cls-36" d="M466.64,278.65c10.97-10.26,18.72-2.41,22.61,3.79-4.3-5.14-11.19-9.11-20.3-.59-13,12.16-14.18,41.04-4.45,56.69-12.15-14.54-11.81-46.84,2.14-59.89Z"/>
        </g>
      </g>
    </g>
  </g>
</svg>