<svg width="154" height="129" viewBox="0 0 154 129" fill="none" xmlns="http://www.w3.org/2000/svg">
<path fill-rule="evenodd" clip-rule="evenodd" d="M118.935 104.505C119.799 107.323 119.248 110.612 117.269 112.931C115.991 114.428 112.952 115.767 111.246 114.208C110.483 113.511 110.16 111.124 109.834 110.011C109.534 108.986 109.033 107.09 109.256 106.23C109.58 104.978 112.171 105.268 113.382 105.158C115.24 104.99 117.085 104.734 118.935 104.505ZM143.381 105.936C143.788 106.799 144.437 107.371 144.714 108.328C144.895 108.953 145.004 109.58 145.075 110.221C145.162 110.998 145.221 110.969 144.665 111.332C143.815 111.887 141.643 111.844 140.609 112.005C139.26 112.214 137.918 112.461 136.569 112.67C136.896 111.461 136.724 110.158 137.062 108.924C137.391 107.725 137.963 106.541 138.771 105.556C139.371 104.823 140.245 103.945 141.325 103.941C142.718 103.935 142.938 104.997 143.381 105.936ZM57.7429 80.0118C57.9495 82.6058 57.5658 85.3682 56.0344 87.5974C55.3858 88.5414 54.4413 89.0492 53.6745 89.862C52.7873 90.8027 52.3061 91.9655 50.9045 92.3679C50.0001 92.6279 48.9387 92.4484 47.9984 92.5654C46.4375 92.7598 45.9767 92.5491 44.6605 91.7708C43.7152 91.2114 42.6255 91.3163 41.6286 90.7033C40.4332 89.9682 39.3924 88.92 38.2601 88.0875C44.6143 85.0889 51.1651 82.5354 57.7429 80.0118ZM74.8235 81.5501C77.2553 82.6524 78.5411 84.5326 79.2361 86.9596C72.5282 88.4367 65.9997 90.2436 59.4108 92.2812C61.2506 87.7728 63.3168 83.6446 68.3499 81.5476C69.354 81.1293 70.3858 80.4632 71.5286 80.4791C72.6669 80.4947 73.8253 81.0978 74.8235 81.5501ZM136.006 88.2335C139.463 89.9862 137.705 95.588 136.497 98.0749C134.96 96.9855 133.348 95.9245 131.847 94.8637C130.206 93.7041 128.731 92.2117 127.234 90.8908C128.026 90.4926 128.541 89.8593 129.278 89.4043C130.008 88.9541 130.731 88.9219 131.548 88.7459C133.113 88.4088 134.379 87.4086 136.006 88.2335ZM109.028 75.6112C109.304 75.9522 109.634 76.2737 109.894 76.6241C110.526 77.4749 111.072 78.3402 111.804 79.1296C113.101 80.5283 114.989 82.3719 117.114 82.4995L117.176 83.0967C116.549 83.0814 116.178 82.5615 115.635 82.5087C115.208 82.4673 114.61 82.7815 114.087 82.737C112.469 82.5997 110.879 82.5213 109.236 82.5633C105.993 82.6461 102.806 83.1441 99.6182 83.5411C100.227 81.4503 101.364 79.3087 103.175 77.9101C103.801 77.4264 104.401 76.7617 105.107 76.3763C105.533 76.1443 105.983 76.1266 106.421 75.9454C106.928 75.7356 107.579 75.0357 108.102 74.9686C108.649 74.8984 108.651 75.1449 109.028 75.6112ZM135.013 75.8018C136.714 77.1172 138.021 78.7862 139.42 80.366C140.686 81.796 142.402 83.836 142.852 85.6769C140.607 86.6945 136.756 85.7631 135.308 83.8808C133.522 81.5596 134.397 78.3288 135.013 75.8018ZM96.0756 68.3013C95.7406 70.4826 94.6521 72.9131 93.0187 74.5418C92.3143 75.2442 91.6972 76.16 90.897 76.7741C89.852 77.5762 89.0109 77.1652 87.7981 77.2897C86.4955 77.4231 85.6513 78.2419 84.2631 78.0197C83.2742 77.8612 82.3633 77.3338 81.4341 77.1737C80.4189 76.9988 79.5327 77.1025 78.5235 76.6183C77.2752 76.0198 76.2793 74.8418 75.3086 73.9473C75.8196 73.5576 76.8513 73.5295 77.505 73.3189C78.3684 73.0405 79.2308 72.7647 80.0991 72.498C81.8924 71.9472 83.6807 71.3848 85.4775 70.8433C88.8998 69.8121 92.5133 68.8326 96.0756 68.3013Z" fill="#00CFFF"/>
<path fill-rule="evenodd" clip-rule="evenodd" d="M149.766 14.4452L149.654 15.1684C150.747 15.3498 150.779 14.7142 149.766 14.4452ZM145.011 13.1983C144.425 13.0015 143.467 13.29 143.928 13.964C144.578 14.9157 144.874 13.6733 145.011 13.1983ZM97.768 39.5535C97.8562 39.4688 96.8178 37.5576 96.6839 37.237C96.0137 37.6054 95.9682 37.5163 96.2412 38.1323C96.477 38.6636 97.2976 39.2031 97.768 39.5535ZM36.5457 40.0778C36.2255 40.0508 35.5882 39.8671 35.3165 39.9743C34.9368 40.1242 35.0389 40.4713 34.9929 40.9777C36.1034 40.928 36.2588 41.0696 36.5457 40.0778ZM35.1056 39.0285C35.6486 39.1224 36.1912 39.2163 36.734 39.3101C36.8499 38.7112 37.1568 37.7208 36.0123 38.0824C35.9047 38.1164 35.2432 38.8336 35.1056 39.0285ZM99.0513 40.2599C98.474 40.8126 101.154 41.9823 101.43 41.6076C102.033 40.7901 99.4411 40.3823 99.0513 40.2599ZM112.307 33.7283C112.631 33.6977 112.955 33.6668 113.279 33.6362C113.167 33.1807 112.826 31.502 112.117 31.5921C111.412 31.6814 112.207 33.3732 112.307 33.7283ZM113.489 36.469C113.498 36.0907 113.659 35.2518 113.506 34.8875C113.401 34.6399 112.971 33.8878 112.354 34.3766C112.222 34.4806 112.162 35.9953 112.202 36.0443C112.371 36.2504 113.249 36.3898 113.489 36.469ZM110.139 41.327C109.473 40.8371 108.027 40.1142 107.386 41.2221C106.493 42.7663 109.561 41.7342 110.139 41.327ZM106.336 41.4557C105.462 41.6135 104.58 41.5929 103.695 41.5333C102.704 41.4664 102.469 41.175 102.181 42.0891C103.244 42.4602 105.507 42.7176 106.582 42.3646C106.5 42.0616 106.418 41.7585 106.336 41.4557ZM111.846 37.2603C111.54 37.8641 110.877 38.6549 110.699 39.2847C110.567 39.7491 110.516 39.5171 110.626 39.8775C110.665 40.006 111.203 40.5443 111.297 40.6744C111.95 40.1981 112.738 39.7115 113.072 38.9778C113.608 37.8029 112.919 37.7087 111.846 37.2603ZM96.9849 34.7879C94.7636 35.4537 92.0353 36.1056 89.684 35.9074C89.6531 36.1012 93.6719 37.2295 94.1523 37.148C94.6433 37.0649 94.6823 36.4057 95.2706 36.0539C95.9191 35.6661 96.4548 35.8969 97.1718 35.8365C97.1094 35.4869 97.0472 35.1374 96.9849 34.7879ZM104.297 43.7553C102.252 43.6292 100.426 43.1587 98.6171 42.2625C97.5784 41.7478 96.8322 41.0013 96.1378 40.1401C95.6001 39.473 95.7101 39.5278 94.8658 39.3015C94.2419 39.1347 93.4746 39.2022 92.834 39.1248C90.6895 38.865 88.552 38.2388 86.5121 37.587C84.223 36.8558 82.251 35.8244 79.7365 35.8846C75.419 35.9881 71.9171 39.1359 67.4132 37.8138C65.6262 37.2893 63.7753 36.5931 62.33 35.4687C60.4507 34.0062 59.3093 33.1398 56.6608 33.6579C54.5284 34.0749 52.8924 35.1633 51.0654 36.1665C48.9833 37.31 46.7111 37.995 44.3895 38.599C43.48 38.8354 42.6377 38.973 41.6846 39.0191C41.1177 39.0466 38.431 38.6528 38.0991 38.9308C37.7781 39.1998 37.6321 41.0558 37.6663 41.3943C37.7234 41.9595 37.4644 42.0178 38.0913 42.256C38.5267 42.4213 39.8709 42.2541 40.4104 42.3133C44.7514 42.791 49.1987 42.934 53.4703 43.6546C57.4848 44.3317 61.5137 44.8797 65.4831 45.6738C70.6466 46.7071 75.9054 47.1785 81.0717 48.1791C83.5689 48.6626 86.0874 49.3437 88.5554 49.8589C90.8027 50.3277 93.0607 50.7628 95.3209 51.1876C95.238 50.8886 94.7683 49.7987 95.5181 49.8992C95.9933 49.9628 96.7908 51.5435 97.0414 51.8991C98.195 53.5364 99.4236 54.7793 100.993 56.0823C102.575 57.3957 104.167 58.6953 105.773 59.9843C107.084 61.0372 109.902 62.6078 109.829 64.4466C109.03 64.593 107.444 63.2298 106.846 62.8605C105.636 62.1128 104.475 61.2982 103.347 60.4478C102.285 61.9441 104.802 63.6786 105.087 65.0938C104.44 65.0965 103.36 63.3809 102.967 62.9263C101.924 63.863 100.753 64.689 100.002 65.8656C108.419 65.5195 109.799 75.5766 115.876 78.9858C117.222 79.7409 118.909 80.0531 120.448 79.7213C122.051 79.376 123.592 78.8883 125.002 78.0157C128.153 76.0671 130.461 72.3206 131.694 69.1033C132.375 67.3265 133.017 65.6055 133.325 63.7359C133.666 61.6655 133.346 59.5612 133.068 57.4983C132.573 53.8224 130.545 50.1114 127.673 47.4821C126.385 46.3038 124.979 45.2724 123.8 43.9861C123.389 43.5371 122.45 41.8179 121.933 41.7102C120.982 41.5116 120.491 42.7976 119.833 41.745C119.188 40.7147 120.418 40.3126 121.167 39.8326C121.974 39.3145 122.757 38.7695 123.547 38.2286C125.107 37.1589 126.652 36.107 128.151 34.9681C135.46 29.415 141.921 23.224 148.466 16.9139C147.241 16.6346 145.498 15.8315 144.252 16.0457C143.006 16.2602 141.899 17.1097 140.585 17.2505C139.305 17.3876 138.062 17.1214 136.875 16.7337C135.475 16.2767 134.528 15.6886 133.354 16.829C131.468 18.6613 130.43 21.2072 128.45 22.941C126.449 24.6932 123.649 25.7165 121.043 26.245C118.631 26.7342 115.285 26.5031 113.518 28.3325C113.12 28.744 112.765 29.0369 112.742 29.6521C112.703 30.746 112.96 29.962 113.325 30.6395C113.92 31.7424 114.152 33.1184 114.286 34.3372C114.558 36.8041 114.215 39.5062 112.163 41.2066C109.953 43.0377 107.22 43.8087 104.297 43.7553ZM104.18 39.7598C105.677 40.4953 108.702 39.5367 109.898 38.64C111.526 37.4196 111.654 35.2955 111.393 33.5199C110.637 33.6964 109.88 33.8728 109.123 34.0493C108.8 34.1244 108.478 34.1997 108.155 34.275C108.184 34.5322 108.14 34.7723 108.023 34.9952C107.31 35.8753 106.965 35.4381 106.191 34.6748C104.534 33.0408 103.063 31.1988 102.388 29.0268C101.631 29.8787 100.776 30.428 99.5625 30.3096C99.031 30.258 96.9927 29.6467 97.519 28.7506C97.6862 28.4657 99.3436 28.8245 99.8989 28.7976C101.058 28.741 101.604 28.7625 102.028 27.7121C102.382 26.8374 102.257 26.4779 101.167 26.3177C99.7828 26.114 99.7432 26.9057 98.757 27.2769C96.2531 28.2199 97.9628 24.4653 97.6055 23.4078C98.8363 23.0569 100.136 22.8132 101.224 22.1444C100.018 22.2777 98.8714 22.6657 97.7035 22.9482C97.8029 21.5636 100.655 21.2689 101.721 20.8339C100.569 20.6863 99.4736 21.417 98.3169 21.371C97.2363 21.3281 95.7208 20.8906 94.6782 20.5576C93.606 20.2152 92.7652 19.2611 91.7307 20.0916C91.0526 20.636 90.1427 22.1194 89.9254 22.9088C90.6002 22.8151 92.1896 22.6887 92.3771 23.4264C92.6179 24.3739 90.6322 23.8225 90.0201 23.9777C89.0911 24.2134 89.3759 24.4734 89.0389 25.3577C88.707 26.2285 88.1111 26.9253 87.1686 27.2864C88.2164 27.8294 88.5049 27.8196 88.2936 28.8242C88.0861 29.812 88.2231 30.9216 88.3246 32.021C88.948 31.7751 89.6197 31.6958 90.289 31.6314C90.4193 32.4288 89.1185 32.7663 88.4485 32.8128C88.8003 33.8624 88.8133 33.8293 90.0167 33.8262C90.6907 33.8243 91.3669 33.787 92.0393 33.7556C93.4083 33.6915 94.7369 33.4562 96.0871 33.2473C96.6024 33.1673 97.3324 32.8962 97.8454 32.9506C98.7859 33.0501 98.6031 33.148 98.4476 33.9199C98.2371 34.9663 98.4744 35.7584 98.7472 36.8941C97.1376 36.3656 98.4304 37.9828 99.1898 38.3157C100.686 38.9709 102.517 39.6724 104.18 39.7598ZM16.1557 103.004C17.295 103.552 18.3713 104.068 19.4093 104.768C20.4421 105.465 21.5437 106.637 22.851 106.863C24.4148 107.132 24.7913 106.35 25.1783 105.196C25.6131 103.898 26.0112 103.308 27.2473 102.596C29.4348 101.336 31.9971 100.506 34.3876 99.5988C35.3021 99.252 35.3708 99.3184 35.1004 98.4259C34.9369 97.8871 34.7375 97.3577 34.5234 96.8343C34.1277 95.8686 33.6941 94.8457 33.0319 94.0031C29.2412 96.4005 24.72 99.1795 20.0535 99.756C18.1586 99.9903 16.2913 100.401 14.4328 100.557C13.5126 100.634 12.7586 100.858 11.9481 101.239C11.0405 101.666 9.53919 101.816 8.88553 102.518C11.3393 102.502 13.7295 102.803 16.1557 103.004ZM109.124 106.146C108.364 106.448 109.39 108.177 109.609 108.897C109.938 109.979 110.25 111.065 110.582 112.146C111.285 114.434 111.948 116.732 112.615 119.03C117.012 116.731 121.716 115.416 126.599 114.316C131.464 113.221 136.433 112.441 141.404 111.691C144.12 111.281 146.969 110.721 149.485 109.655C151.049 108.992 150.743 108.38 150.717 106.913C150.693 105.535 150.468 104.131 150.249 102.766C149.835 100.189 149.397 97.3787 148.317 94.9569C147.264 92.5973 145.855 90.3284 144.5 88.1059C142.893 85.4686 141.523 82.6287 139.426 80.2873C137.24 77.8473 134.894 75.6341 132.523 73.3625C131.104 75.9554 129.078 79.1 126.461 80.7322C123.581 82.5274 119.05 83.4505 115.775 81.9478C112.476 80.4344 110.526 77.3298 108.472 74.6247C106.493 72.0175 104.773 69.1972 101.264 68.267C97.554 67.2831 93.6473 68.6223 90.0298 69.4614C85.9051 70.4181 81.8693 71.7906 77.8603 73.0871C70.9002 75.3385 63.9953 77.3988 57.211 80.0817C48.861 83.3837 40.4998 86.6599 32.4293 90.5256C34.1753 92.9306 35.5288 95.1221 36.5149 97.8883C37.2829 100.042 37.7521 102.323 37.9317 104.652C38.8711 103.751 39.5888 102.681 40.5369 101.769C41.6094 100.738 42.8686 99.9448 44.1303 99.1366C46.4143 97.6734 48.7552 96.3487 51.2744 95.2361C56.9927 92.7101 63.0691 90.9704 69.115 89.1701C70.4847 88.7622 72.0969 88.2884 73.5165 88.0625C74.7228 87.8708 75.7944 87.5338 77.0223 87.2542C79.8069 86.6205 82.6226 86.0389 85.4314 85.5798C90.828 84.6978 96.3347 83.7578 101.806 83.148C105.516 82.7346 109.388 82.0641 113.2 82.4222C113.844 82.4828 114.475 82.6052 115.124 82.5859C115.305 82.5805 115.52 82.3227 115.707 82.3404C116.067 82.3748 116.453 82.7626 116.82 82.8784C117.649 83.1395 118.854 82.9773 119.306 83.6352C119.668 84.1621 119.535 84.5794 118.996 84.9266C119.645 85.7201 120.914 86.4511 121.784 87.0751C122.565 87.6359 123.302 88.2394 124.09 88.7801C124.936 89.3609 125.962 89.9092 126.848 90.502C128.005 91.2751 128.993 92.2655 130.085 93.1328C132.045 94.6896 134.013 96.0454 136.079 97.5046C137.191 98.2905 138.252 99.0305 139.46 99.6735C140.121 100.025 141.619 100.988 140.837 101.863C140.057 102.735 138.493 101.445 137.64 101.352C136.66 101.245 135.337 101.835 134.358 101.974C131.77 102.34 129.173 102.662 126.583 103.058C123.627 103.51 120.702 104.12 117.732 104.496C116.198 104.689 114.664 104.877 113.122 105.01C112.327 105.079 111.203 104.976 110.455 105.22C109.89 105.062 109.644 105.216 109.717 105.684C109.579 105.903 109.381 106.057 109.124 106.146ZM27.2102 40.9833C28.8276 40.9733 30.432 41.0631 32.0512 41.0497C32.6746 41.0444 33.2112 41.1658 33.4635 40.7511C33.7718 40.2443 33.6296 38.9207 33.6823 38.3405C31.7915 38.4864 30.0564 38.5316 28.1689 38.3724C26.1472 38.202 24.1849 37.6464 22.1555 37.5261C22.588 37.684 23.083 38.5442 22.801 38.9627C22.5202 39.3793 22.0616 39.0031 21.6169 38.8146C19.9002 38.0863 18.4704 37.0102 16.5419 37.4807C18.3173 38.3628 20.0022 39.7773 21.8563 40.304C23.6048 40.8007 25.3686 40.97 27.2102 40.9833ZM147.334 12.3048C148.122 12.4464 149.657 13.2032 150.364 12.8219C151.226 12.3562 151.045 10.4678 151.076 9.73282C151.173 7.47384 151.351 4.36548 149.507 2.53436C149.172 4.70497 149.895 6.97473 149.844 9.16952C149.804 10.8165 149.159 9.91709 148.93 8.7514C148.721 7.68496 148.744 6.63298 148.459 5.57201C147.936 6.43117 147.814 7.59716 147.445 8.54573C146.979 9.74189 146.321 10.8269 145.658 11.9357C146.218 12.0531 146.776 12.1771 147.334 12.3048ZM34.89 41.9874C34.8804 42.6199 34.7868 43.2144 35.6088 43.2725C36.6971 43.3492 36.3401 42.2812 36.271 41.6072C35.8798 41.6582 34.9829 41.5531 34.89 41.9874ZM146.879 13.337C146.197 13.2557 146.094 13.1072 145.661 13.5666C145.386 13.8581 145.359 14.3871 145.598 14.5706C146.632 15.3673 146.795 13.7842 146.879 13.337ZM147.517 14.8036C148.049 14.9042 148.568 15.1764 148.867 14.6693C149.304 13.9257 148.258 13.8634 147.685 13.6426C147.629 14.0295 147.574 14.4166 147.517 14.8036ZM114.148 84.7776C108.276 84.644 102.491 85.5302 96.728 86.5058C91.6301 87.3685 86.5697 88.0875 81.5838 89.1702C71.5357 91.3525 61.4708 93.7944 52.1442 97.9947C49.8784 99.0151 47.6156 100.035 45.527 101.276C44.4046 101.943 43.2612 102.603 42.1983 103.355C41.6138 103.768 41.0088 104.177 40.4607 104.63C39.9587 105.045 39.6738 105.618 39.2228 106.025C39.0105 106.216 38.0958 106.923 37.8246 107.002C37.2419 107.173 37.4727 107.187 36.8836 106.799C35.6522 105.988 35.4054 104.907 35.0342 103.607C34.773 102.692 34.9735 102.389 34.1153 102.42C33.6787 102.436 33.0214 102.863 32.6167 103.025C31.3096 103.548 29.8972 103.964 28.6428 104.588C27.6286 105.092 26.8172 105.74 26.3827 106.738C25.8698 107.917 25.5717 108.879 24.0153 109.011C21.2392 109.247 19.6441 106.581 17.2703 105.684C14.7314 104.724 11.4913 104.913 8.81063 104.882C7.83432 104.871 6.77111 104.961 5.83991 105.088C4.52405 105.267 2.9673 105.956 1.60158 105.518C0.029818 105.014 0.0534671 102.864 1.0949 101.927C2.18383 100.949 3.79956 100.815 5.19233 100.49C8.00791 99.8334 10.5688 98.3369 13.4428 97.8773C16.3016 97.42 19.3307 97.3206 22.1177 96.4874C23.5379 96.0626 24.9178 95.7313 26.2673 95.1338C27.9486 94.3892 29.7594 93.9049 31.4201 93.1731C30.8486 92.2061 30.6939 91.3087 30.659 90.2253C30.6359 89.5023 30.5138 89.5017 31.0349 89.1988C31.1382 89.2503 31.2412 89.3018 31.3447 89.3536C31.6721 89.5776 31.9053 89.4753 32.0449 89.0465C34.3498 87.6997 36.4802 86.2529 38.9396 85.0832C43.0647 83.1211 47.4315 81.5361 51.5553 79.6672C59.39 76.1167 68.1161 74.0681 76.3584 71.467C81.3443 69.8934 86.4497 68.6044 91.5585 67.444C92.454 67.2405 93.3467 67.0721 94.257 66.937C95.799 66.7084 95.4343 66.6947 96.2122 65.5521C97.2101 64.0859 98.7943 62.5217 100.402 61.6132C101.394 61.0528 101.817 61.1369 101.786 59.9111C101.762 58.9744 101.495 58.9837 100.7 58.3567C99.8006 57.6471 98.9652 56.86 98.2057 56.0233C97.3386 55.0686 96.9504 53.9864 96.2251 53.0051C95.3482 51.8189 92.6363 52.0203 91.1183 51.8137C88.7406 51.4904 86.3236 51.2591 83.9816 50.7597C79.2519 49.7514 74.4976 49.3987 69.7091 48.6937C64.8954 47.9851 60.0833 47.3389 55.2693 46.697C53.5412 46.4665 51.7908 46.2685 50.0721 45.9829C47.6662 45.5827 45.1342 45.5423 42.6931 45.1681C41.4363 44.9754 39.8971 44.2916 38.6328 44.35C37.2758 44.4128 38.4892 44.3979 37.5967 44.8474C37.196 45.0493 36.7327 45.2299 36.271 45.2532C35.5439 45.2899 34.811 44.99 34.3662 44.4552C33.6245 43.5639 33.9821 42.881 32.471 42.7685C31.4761 42.6946 30.3151 43.0643 29.3042 43.113C28.3137 43.1608 27.2838 43.2991 26.2929 43.2711C24.3114 43.2147 21.9498 43.047 20.1504 42.2311C18.2434 41.3666 16.5416 40.2133 14.5355 39.4782C13.5288 39.1091 12.0966 38.9525 11.4218 38.0604C10.8583 37.3156 10.6842 35.8007 11.548 35.1899C12.8731 34.2531 15.4424 35.6708 16.9086 35.3167C17.6582 35.1357 17.0395 34.9177 17.6064 34.6653C17.9576 34.5089 17.9049 34.4855 18.3217 34.4289C19.3493 34.2887 21.0323 34.9819 22.077 35.1467C24.1385 35.4712 26.1821 35.9666 28.2418 36.27C29.4179 36.4434 30.6136 36.4868 31.7922 36.671C32.8187 36.8316 33.6623 37.219 34.4072 36.4248C34.7214 36.0898 34.6254 35.7445 35.1289 35.5698C35.5804 35.4134 36.8774 35.6379 37.3137 35.799C37.7901 35.975 37.8966 36.2287 38.28 36.4292C38.2896 36.8088 38.4552 36.9225 38.7771 36.7698C39.0767 36.7481 39.3754 36.7635 39.6726 36.8158C42.289 36.8264 44.8932 36.0443 47.2728 35.1208C51.2162 33.5907 56.1126 29.2588 60.6357 31.6151C61.7485 32.1947 62.4789 33.1615 63.5625 33.7896C64.525 34.3471 65.756 34.8467 66.8383 35.1612C69.001 35.7897 71.1509 35.7111 73.2933 35.0604C75.9056 34.2666 78.0095 33.4353 80.8248 33.5266C83.4333 33.611 85.515 35.3456 88.0701 35.4148C87.4458 34.4491 87.3302 33.3397 87.2643 32.2442C87.2212 31.5277 87.6365 29.6523 87.1864 29.0723C86.6897 28.4318 82.8098 28.1728 84.9737 26.2924C85.6819 25.6766 86.9892 25.8997 87.7216 25.2197C88.4609 24.5336 88.4754 23.4606 88.8697 22.6039C89.3158 21.6347 90.0512 20.8341 90.8052 20.0606C91.1244 19.7332 91.34 19.5253 91.5218 19.1317C91.7329 18.6748 91.5923 18.2889 91.9294 17.8075C93.0676 16.1828 95.0532 16.7484 96.7811 16.9648C97.8287 17.0962 99.0975 16.971 100.114 17.2464C100.931 17.4678 101.994 18.1388 102.659 18.6314C104.123 19.7162 104.464 21.7182 104.576 23.3586C104.643 24.3189 104.448 25.2239 104.432 26.1809C104.416 27.1825 103.964 27.6364 103.152 28.3008C103.137 28.1159 103.043 27.9919 102.871 27.9287C102.517 28.3477 102.608 28.5113 103.143 28.4195C103.163 28.6701 103.256 28.8951 103.421 29.0951C103.863 29.5682 104.244 30.0911 104.675 30.5735C105.617 31.6284 106.716 32.5439 107.442 33.7411C108.202 32.889 109.169 32.7493 110.076 32.1616C110.958 31.5899 110.3 31.4197 110.627 30.5933C110.758 30.2622 111.103 30.2037 111.224 29.9473C111.339 29.7043 111.199 29.5509 111.27 29.2838C111.623 27.9579 111.476 27.1365 112.575 26.097C114.046 24.7068 115.858 24.3393 117.879 24.0754C119.896 23.8118 121.328 23.718 123.121 22.9505C123.743 22.6841 124.331 22.5626 124.922 22.2605C125.721 21.8518 126.465 21.4209 127.158 20.8694C128.771 19.588 129.774 17.8026 131.078 16.2627C132.123 15.0304 133.381 13.4527 135.266 13.7781C137.409 14.1484 139.297 15.403 141.579 14.7266C142.425 14.4757 142.334 14.6299 142.67 13.8395C142.781 13.5762 142.853 13.311 142.962 13.0522C143.369 12.0836 144.148 11.9623 144.631 11.1737C145.771 9.31199 146.396 6.99028 147.046 4.94706C147.347 3.99823 147.932 3.17526 148.288 2.26544C148.437 1.885 148.37 0.19058 148.832 0.0419637C150.324 -0.436945 151.531 3.32659 151.803 4.03841C152.514 5.89855 153.14 7.99777 152.86 9.98939C152.744 10.81 152.652 11.7608 152.424 12.5643C152.217 13.2939 152.172 13.2459 152.291 13.9071C152.411 14.5795 152.555 14.9828 152.451 15.6876C152.422 15.8844 152.329 16.6118 152.241 16.7125C151.833 17.1809 151.777 16.8535 151.268 17.0407C150.446 17.3436 150.242 17.6038 149.66 18.3141C148.203 20.0895 146.683 21.8704 145.109 23.556C142.347 26.5129 139.444 29.1635 136.344 31.7933C133.302 34.3745 130.122 36.9931 126.669 39.1014C125.83 39.6139 124.451 40.0634 123.775 40.7357C123.036 41.472 124.157 41.7914 124.915 42.3138C126.422 43.3511 127.971 44.4133 129.285 45.623C132.086 48.2015 133.686 52.0007 134.667 55.4509C135.178 57.2463 135.283 59.3045 135.476 61.164C135.703 63.3452 135.422 65.7321 134.708 67.807C134.437 68.5939 134.118 69.3648 133.855 70.155C133.734 70.5189 133.14 71.6489 133.301 72.0688C133.568 72.7626 135.318 73.6054 135.93 74.0877C136.765 74.7473 137.62 75.4288 138.32 76.2147C141.299 79.5581 143.735 83.0668 145.923 86.9131C148.148 90.8252 150.248 94.3551 151.126 98.7519C151.356 99.901 151.56 101.051 151.801 102.198C152.06 103.433 151.81 105.213 152.328 106.341C152.649 107.039 153.249 107.258 153.005 108.223C152.793 109.057 151.719 110.537 151.135 111.194C149.805 112.689 147.378 113.278 145.461 113.82C143.135 114.478 140.647 114.781 138.252 115.156C129.623 116.503 121.167 117.976 113.18 121.43C113.449 121.808 113.666 122.623 113.12 122.883C112.396 123.228 112.04 122.203 111.791 121.75C111.066 120.432 110.85 118.727 110.416 117.283C109.359 113.759 108.557 110.199 107.696 106.636C104.759 107.232 101.785 107.548 98.8634 108.101C97.5157 108.355 96.15 108.379 94.7929 108.54C93.3356 108.713 93.2423 109.154 93.3574 110.494C93.611 113.448 94.8352 116.282 95.5336 119.155C95.8726 120.548 96.4656 121.874 96.788 123.261C96.8929 123.712 96.7791 124.928 97.1096 125.265C97.0954 125.25 98.2224 125.466 98.4002 125.509C98.3046 123.764 98.5165 122.052 98.426 120.31C98.333 118.511 98.0776 116.151 98.4951 114.408C98.8748 112.824 100.324 111.148 101.923 110.48C103.316 109.897 106.08 108.962 107.584 109.826C107.849 109.978 108.485 110.449 108.337 110.814C108.136 111.307 105.91 111.684 105.458 111.837C103.688 112.434 101.817 113.481 100.825 114.999C99.9333 116.364 100.29 118.475 100.32 120.041C100.336 120.931 100.456 121.758 100.344 122.645C100.186 123.9 100.103 124.354 100.636 125.437C101.26 126.707 100.875 128.562 99.0046 128.105C97.8861 127.832 97.8414 127.245 97.1679 126.605C96.9133 126.363 96.6268 126.47 96.3772 126.165C96.0428 125.756 96.0444 124.85 95.8752 124.334C95.3335 122.68 94.5665 121.073 93.9936 119.41C93.2232 117.173 92.5926 114.909 92.0404 112.62C91.6112 110.84 91.1459 109.037 92.038 107.305C92.8299 105.767 94.7694 105.881 96.3776 105.826C100.102 105.698 103.951 104.92 107.751 104.732C108.025 104.719 108.595 104.809 108.84 104.699C109.179 104.548 109.307 104.107 109.745 103.825C110.582 103.287 112.239 103.1 113.207 102.934C115.402 102.559 117.585 102.254 119.767 101.863C122.276 101.413 124.761 100.875 127.272 100.465C129.676 100.073 132.105 99.9998 134.538 99.7334C130.678 97.3353 127.279 94.412 123.565 91.8139C121.843 90.6091 120.248 89.424 118.702 88.031C118.058 87.451 117.422 86.887 116.837 86.2548C116.528 85.9197 116.254 85.2793 115.86 85.0455C115.365 84.7513 114.8 84.83 114.148 84.7776Z" fill="#1F1E29"/>
<path fill-rule="evenodd" clip-rule="evenodd" d="M99.9804 17.2642C98.7036 17.157 97.2405 17.1493 96.0013 16.8756C97.096 16.9667 98.9783 16.9075 99.9804 17.2642Z" fill="#1F1E29"/>
<path fill-rule="evenodd" clip-rule="evenodd" d="M29.8087 36.4819C29.2654 36.4359 28.722 36.3897 28.1791 36.3436C28.7337 36.2659 29.2757 36.3245 29.8087 36.4819Z" fill="#1F1E29"/>
<path fill-rule="evenodd" clip-rule="evenodd" d="M63.2614 47.8707C63.6244 47.9008 63.9872 47.9308 64.3479 47.9613C63.9841 47.9313 63.6228 47.901 63.2614 47.8707Z" fill="#1F1E29"/>
<path fill-rule="evenodd" clip-rule="evenodd" d="M100.248 120.156C100.263 119.747 100.278 119.338 100.294 118.929C100.279 119.339 100.263 119.747 100.248 120.156Z" fill="#1F1E29"/>
<path fill-rule="evenodd" clip-rule="evenodd" d="M98.2544 123.328C98.2483 123.621 98.2423 123.914 98.2361 124.205C98.2422 123.912 98.2483 123.62 98.2544 123.328Z" fill="#1F1E29"/>
<path fill-rule="evenodd" clip-rule="evenodd" d="M106.371 109.639C106.006 109.64 105.641 109.64 105.277 109.64C105.642 109.64 106.007 109.64 106.371 109.639Z" fill="#1F1E29"/>
<path fill-rule="evenodd" clip-rule="evenodd" d="M54.4374 46.5852C54.6786 46.6146 54.9199 46.644 55.1593 46.6736C54.9171 46.644 54.6774 46.6146 54.4374 46.5852Z" fill="#1F1E29"/>
<path fill-rule="evenodd" clip-rule="evenodd" d="M95.2773 16.8166C94.9752 16.7923 94.6732 16.7679 94.3715 16.7438C94.6734 16.7679 94.9753 16.7923 95.2773 16.8166Z" fill="#1F1E29"/>
<path fill-rule="evenodd" clip-rule="evenodd" d="M98.307 118.762C98.2988 119.054 98.2903 119.347 98.2821 119.638C98.2903 119.346 98.2988 119.054 98.307 118.762Z" fill="#1F1E29"/>
<path fill-rule="evenodd" clip-rule="evenodd" d="M52.9877 46.4722C53.2296 46.4956 53.4716 46.5193 53.7113 46.5422C53.4685 46.5186 53.2282 46.4953 52.9877 46.4722Z" fill="#1F1E29"/>
<path fill-rule="evenodd" clip-rule="evenodd" d="M56.7746 46.9695C57.0169 46.9912 57.2588 47.0129 57.4986 47.0343C57.2555 47.0126 57.0151 46.991 56.7746 46.9695Z" fill="#1F1E29"/>
<path fill-rule="evenodd" clip-rule="evenodd" d="M96.3184 105.809C96.0141 105.811 95.7098 105.813 95.4055 105.815C95.71 105.813 96.0143 105.811 96.3184 105.809Z" fill="#1F1E29"/>
<path fill-rule="evenodd" clip-rule="evenodd" d="M85.7701 51.1744C85.9519 51.1888 86.1337 51.203 86.3137 51.2177C86.1311 51.2035 85.9506 51.189 85.7701 51.1744Z" fill="#1F1E29"/>
<path fill-rule="evenodd" clip-rule="evenodd" d="M98.4274 121.76C98.4065 121.993 98.3852 122.226 98.3645 122.458C98.3856 122.225 98.4065 121.993 98.4274 121.76Z" fill="#1F1E29"/>
<path fill-rule="evenodd" clip-rule="evenodd" d="M114.097 84.8499C114.279 84.8646 114.46 84.8789 114.64 84.894C114.458 84.8796 114.277 84.8647 114.097 84.8499Z" fill="#1F1E29"/>
<path fill-rule="evenodd" clip-rule="evenodd" d="M58.0387 31.0402C57.7342 31.0426 57.4299 31.0449 57.1256 31.0472C57.4301 31.0449 57.7344 31.0426 58.0387 31.0402Z" fill="#1F1E29"/>
<path fill-rule="evenodd" clip-rule="evenodd" d="M22.4489 35.1487C22.2095 35.1052 21.9703 35.062 21.7309 35.0186C21.9701 35.062 22.2095 35.1052 22.4489 35.1487Z" fill="#1F1E29"/>
<path fill-rule="evenodd" clip-rule="evenodd" d="M26.5808 35.8621L25.8654 35.704L26.5808 35.8621Z" fill="#1F1E29"/>
<path fill-rule="evenodd" clip-rule="evenodd" d="M16.9526 35.3903C16.7134 35.3457 16.474 35.3014 16.2347 35.2567C16.4738 35.3014 16.7134 35.3457 16.9526 35.3903Z" fill="#1F1E29"/>
<path fill-rule="evenodd" clip-rule="evenodd" d="M111.546 84.8027C111.667 84.8178 111.788 84.8332 111.907 84.8477C111.786 84.8327 111.666 84.8176 111.546 84.8027Z" fill="#1F1E29"/>
<path fill-rule="evenodd" clip-rule="evenodd" d="M86.5161 28.9005C86.6366 28.9184 86.7573 28.9362 86.8762 28.9543C86.7551 28.9361 86.6357 28.9184 86.5161 28.9005Z" fill="#1F1E29"/>
<path fill-rule="evenodd" clip-rule="evenodd" d="M127.274 100.497C127.029 100.511 126.784 100.525 126.54 100.539C126.785 100.525 127.029 100.511 127.274 100.497Z" fill="#1F1E29"/>
<path fill-rule="evenodd" clip-rule="evenodd" d="M135.291 65.4542C135.307 65.2796 135.322 65.105 135.337 64.9308C135.322 65.1055 135.307 65.28 135.291 65.4542Z" fill="#1F1E29"/>
<path fill-rule="evenodd" clip-rule="evenodd" d="M92.0925 51.8821C92.2139 51.8921 92.3352 51.9019 92.4548 51.9118C92.3328 51.9017 92.2128 51.8919 92.0925 51.8821Z" fill="#1F1E29"/>
<path fill-rule="evenodd" clip-rule="evenodd" d="M42.697 45.2614C42.8186 45.2692 42.9399 45.2769 43.0597 45.285C42.9379 45.2773 42.8176 45.2692 42.697 45.2614Z" fill="#1F1E29"/>
<path fill-rule="evenodd" clip-rule="evenodd" d="M23.7773 40.6112C24.3381 40.6588 24.8607 40.6776 25.3986 40.8425C24.8716 40.8038 24.2481 40.8625 23.7773 40.6112Z" fill="#1F1E29"/>
<path fill-rule="evenodd" clip-rule="evenodd" d="M29.5928 40.87C29.9845 40.7607 30.6389 40.8069 31.0432 40.972C30.5599 40.9379 30.0762 40.9039 29.5928 40.87Z" fill="#1F1E29"/>
<path fill-rule="evenodd" clip-rule="evenodd" d="M104.135 39.8342C104.558 39.8684 104.98 39.9029 105.403 39.937C104.969 40.0367 104.543 40.0395 104.135 39.8342Z" fill="#1F1E29"/>
<path fill-rule="evenodd" clip-rule="evenodd" d="M146.873 13.2741C146.571 13.2373 146.27 13.2005 145.97 13.1635C146.273 13.2003 146.573 13.2372 146.873 13.2741Z" fill="#1F1E29"/>
<path fill-rule="evenodd" clip-rule="evenodd" d="M15.0154 102.926C15.3959 102.755 15.75 102.874 16.1021 103.016C15.7396 102.986 15.3777 102.956 15.0154 102.926Z" fill="#1F1E29"/>
<path fill-rule="evenodd" clip-rule="evenodd" d="M37.6805 40.8799C37.6749 41.1727 37.6697 41.4656 37.6639 41.7574C37.6695 41.4642 37.6751 41.172 37.6805 40.8799Z" fill="#1F1E29"/>
<path fill-rule="evenodd" clip-rule="evenodd" d="M26.3032 40.9276C26.6073 40.9267 26.9118 40.9258 27.2159 40.9249C26.9116 40.9258 26.6073 40.9267 26.3032 40.9276Z" fill="#1F1E29"/>
<path fill-rule="evenodd" clip-rule="evenodd" d="M104.325 43.7639C104.082 43.7489 103.84 43.7342 103.599 43.7188C103.843 43.7336 104.084 43.7487 104.325 43.7639Z" fill="#1F1E29"/>
<path fill-rule="evenodd" clip-rule="evenodd" d="M37.1055 99.3655C37.1052 99.6586 37.1045 99.9516 37.1041 100.244C37.1045 99.9509 37.105 99.6583 37.1055 99.3655Z" fill="#1F1E29"/>
<path fill-rule="evenodd" clip-rule="evenodd" d="M89.5223 50.0408C89.8215 50.0942 90.1211 50.1472 90.4201 50.2006C90.1206 50.1472 89.8213 50.094 89.5223 50.0408Z" fill="#1F1E29"/>
<path fill-rule="evenodd" clip-rule="evenodd" d="M27.6325 38.3511C27.3896 38.3384 27.1466 38.3258 26.9059 38.3138C27.1495 38.3268 27.3911 38.3389 27.6325 38.3511Z" fill="#1F1E29"/>
<path fill-rule="evenodd" clip-rule="evenodd" d="M87.5484 49.6774C87.8478 49.7303 88.1468 49.7831 88.4464 49.8358C88.1401 49.8222 87.8152 49.915 87.5484 49.6774Z" fill="#1F1E29"/>
<path fill-rule="evenodd" clip-rule="evenodd" d="M30.529 38.5981C30.3467 38.5887 30.1645 38.5792 29.9842 38.5696C30.1669 38.579 30.3481 38.5885 30.529 38.5981Z" fill="#1F1E29"/>
<path fill-rule="evenodd" clip-rule="evenodd" d="M82.7209 48.5875C83.0199 48.6416 83.3191 48.6961 83.6185 48.7502C83.319 48.6959 83.0199 48.6416 82.7209 48.5875Z" fill="#1F1E29"/>
<path fill-rule="evenodd" clip-rule="evenodd" d="M147.46 14.8441C147.759 14.8993 148.059 14.9544 148.358 15.0096C148.058 14.9544 147.759 14.8993 147.46 14.8441Z" fill="#1F1E29"/>
<path fill-rule="evenodd" clip-rule="evenodd" d="M71.7503 46.8221C72.0517 46.8509 72.3535 46.8798 72.6548 46.9083C72.3533 46.8796 72.0517 46.8509 71.7503 46.8221Z" fill="#1F1E29"/>
<path fill-rule="evenodd" clip-rule="evenodd" d="M147.32 12.3733C147.619 12.4268 147.918 12.4802 148.217 12.5337C147.918 12.4802 147.619 12.4268 147.32 12.3733Z" fill="#1F1E29"/>
<path fill-rule="evenodd" clip-rule="evenodd" d="M37.6882 42.1495C37.9907 42.1693 38.2932 42.1889 38.5953 42.2085C38.2817 42.3623 37.9803 42.3262 37.6882 42.1495Z" fill="#1F1E29"/>
<path fill-rule="evenodd" clip-rule="evenodd" d="M97.5891 24.4838C97.6118 24.2511 97.6343 24.0182 97.6567 23.7864C97.6341 24.0196 97.6116 24.2518 97.5891 24.4838Z" fill="#1F1E29"/>
<path fill-rule="evenodd" clip-rule="evenodd" d="M97.511 25.3559C97.5333 25.123 97.5555 24.8903 97.578 24.6584C97.5557 24.8917 97.5333 25.1237 97.511 25.3559Z" fill="#1F1E29"/>
<path fill-rule="evenodd" clip-rule="evenodd" d="M98.4857 67.8833C98.3035 67.872 98.1214 67.8606 97.9414 67.8494C98.1243 67.8607 98.305 67.872 98.4857 67.8833Z" fill="#1F1E29"/>
<path fill-rule="evenodd" clip-rule="evenodd" d="M114.312 35.3853C114.284 35.6176 114.256 35.8498 114.228 36.0813C114.256 35.8488 114.284 35.6169 114.312 35.3853Z" fill="#1F1E29"/>
<path fill-rule="evenodd" clip-rule="evenodd" d="M118.205 79.7895C118.51 79.7864 118.814 79.7831 119.119 79.7799C118.814 79.7831 118.51 79.7864 118.205 79.7895Z" fill="#1F1E29"/>
<path fill-rule="evenodd" clip-rule="evenodd" d="M97.8299 32.9105C98.0846 32.7839 98.3265 32.797 98.5543 32.9707C98.3125 32.9508 98.0713 32.9306 97.8299 32.9105Z" fill="#1F1E29"/>
<path fill-rule="evenodd" clip-rule="evenodd" d="M99.8821 30.4022C99.7616 30.384 99.6411 30.3656 99.5222 30.3475C99.6433 30.3659 99.7627 30.384 99.8821 30.4022Z" fill="#1F1E29"/>
<path fill-rule="evenodd" clip-rule="evenodd" d="M101.049 65.7799C101.288 65.827 101.527 65.8741 101.766 65.921C101.527 65.8739 101.288 65.827 101.049 65.7799Z" fill="#1F1E29"/>
<path fill-rule="evenodd" clip-rule="evenodd" d="M92.7955 84.323C93.039 84.3176 93.2828 84.3123 93.5268 84.3069C93.2828 84.3121 93.0392 84.3177 92.7955 84.323Z" fill="#1F1E29"/>
<path fill-rule="evenodd" clip-rule="evenodd" d="M87.5983 85.2934C87.8422 85.2867 88.0858 85.2799 88.3299 85.2734C88.086 85.2799 87.8424 85.2867 87.5983 85.2934Z" fill="#1F1E29"/>
<path fill-rule="evenodd" clip-rule="evenodd" d="M85.377 85.641C85.6213 85.6292 85.866 85.6177 86.1101 85.606L85.377 85.641Z" fill="#1F1E29"/>
<path fill-rule="evenodd" clip-rule="evenodd" d="M83.157 85.9788L83.8896 85.9485C83.6453 85.9586 83.401 85.9686 83.157 85.9788Z" fill="#1F1E29"/>
<path fill-rule="evenodd" clip-rule="evenodd" d="M129.993 102.701C129.81 102.693 129.628 102.685 129.448 102.677C129.631 102.685 129.812 102.693 129.993 102.701Z" fill="#1F1E29"/>
<path fill-rule="evenodd" clip-rule="evenodd" d="M92.7503 50.6666C92.9895 50.713 93.2286 50.7598 93.4674 50.8064C93.2286 50.7598 92.9894 50.713 92.7503 50.6666Z" fill="#1F1E29"/>
<path fill-rule="evenodd" clip-rule="evenodd" d="M137.771 17.0546C137.65 17.048 137.528 17.0415 137.408 17.035C137.53 17.0419 137.651 17.0482 137.771 17.0546Z" fill="#1F1E29"/>
<path fill-rule="evenodd" clip-rule="evenodd" d="M29.6225 38.5355C29.5016 38.522 29.3805 38.5089 29.2613 38.4957C29.3827 38.5089 29.5025 38.5222 29.6225 38.5355Z" fill="#1F1E29"/>
<path fill-rule="evenodd" clip-rule="evenodd" d="M80.7604 48.0731C80.9995 48.1206 81.2385 48.1679 81.4774 48.2153C81.2383 48.1679 80.9995 48.1206 80.7604 48.0731Z" fill="#1F1E29"/>
<path fill-rule="evenodd" clip-rule="evenodd" d="M53.4255 43.6675C53.6649 43.7102 53.9043 43.7529 54.1437 43.7957C53.9043 43.7529 53.6647 43.71 53.4255 43.6675Z" fill="#1F1E29"/>
<path fill-rule="evenodd" clip-rule="evenodd" d="M34.8461 42.0469C34.8454 42.2229 34.8447 42.3988 34.8438 42.574C34.8447 42.3978 34.8454 42.2223 34.8461 42.0469Z" fill="#1F1E29"/>
<path fill-rule="evenodd" clip-rule="evenodd" d="M32.3105 41.0838C32.5545 41.0768 32.7982 41.0698 33.0423 41.0626C32.7984 41.07 32.5545 41.0768 32.3105 41.0838Z" fill="#1F1E29"/>
<path fill-rule="evenodd" clip-rule="evenodd" d="M38.9618 42.1885C39.213 42.0896 39.4597 42.0474 39.6865 42.244C39.4449 42.2254 39.2032 42.2071 38.9618 42.1885Z" fill="#1F1E29"/>
<path fill-rule="evenodd" clip-rule="evenodd" d="M122.684 56.3282C123.559 56.4583 123.973 56.6485 124.21 57.4659C124.32 57.845 124.003 58.5581 124.11 58.7973C124.252 59.1148 124.464 58.9467 124.711 59.2477C125.616 60.3482 126.088 62.5396 124.322 63.2992C123.66 62.5233 123.89 61.6223 124.344 60.8205C123.39 60.6086 122.896 60.5766 122.601 59.6569C122.566 59.5468 122.494 58.196 122.465 58.1667C122.268 57.9685 121.47 58.1687 121.196 58.0209C120.592 57.6938 120.306 56.5993 120.459 55.9836C120.668 55.1345 121.6 54.7008 122.308 54.2245C120.036 54.2782 117.947 55.9311 115.674 56.0418C115.043 56.0724 114.884 56.3433 114.665 55.6567C114.47 55.0468 114.681 55.1259 115.109 54.8228C115.959 54.2222 117.262 53.8264 118.265 53.4839C119.723 52.9863 122.235 51.8207 123.813 52.4725C124.6 52.7975 125.159 53.7948 124.918 54.5738C124.682 55.3338 123.323 55.871 122.684 56.3282Z" fill="#1F1E29"/>
<path fill-rule="evenodd" clip-rule="evenodd" d="M123.594 45.0118C124.244 45.9881 124.53 47.0193 123.826 48.0498C124.826 47.971 125.94 47.795 126.591 48.6669C127.533 49.927 126.56 50.3399 125.462 50.4117C124.58 50.4695 122.83 51.0178 122.058 50.4451C120.787 49.5039 122.051 47.7224 122.541 46.8209C121.734 46.8454 119.697 47.075 120.048 45.62C120.302 44.5712 122.801 44.8367 123.594 45.0118Z" fill="#1F1E29"/>
<path fill-rule="evenodd" clip-rule="evenodd" d="M113.184 51.3354L112.396 52.2283C112.795 52.3141 113.336 51.9884 113.688 51.8513C113.52 51.6794 113.352 51.5074 113.184 51.3354ZM111.988 50.1328C111.052 50.0064 110.042 51.1838 109.827 49.868C109.701 49.097 110.451 48.1094 111.332 47.9908C112.869 47.784 115.018 51.1416 115.402 52.2989C115.756 53.3655 115.379 53.2182 114.566 53.6133C113.862 53.9553 112.947 54.7492 112.033 54.5088C111.197 54.2888 110.939 52.9997 110.943 52.3278C110.949 51.2922 111.595 50.9588 111.988 50.1328Z" fill="#1F1E29"/>
<path fill-rule="evenodd" clip-rule="evenodd" d="M116.75 50.1289C116.891 50.5452 117.912 52.4915 117.006 52.4868C116.503 52.4843 115.553 49.6756 115.417 49.3544C115.231 48.9135 114.839 48.3055 114.908 47.8059C115.027 46.9421 114.977 47.2148 115.585 47.3088C116.769 47.4923 117.748 49.2289 118.868 49.6693C118.404 48.0112 117.709 46.1937 118.185 44.5007C119.518 45.6878 119.576 48.133 119.941 49.7574C120.052 50.2517 120.317 51.2644 119.756 51.5995C119.12 51.9786 117.179 50.392 116.75 50.1289Z" fill="#1F1E29"/>
<path fill-rule="evenodd" clip-rule="evenodd" d="M108.24 53.7038C108.682 52.8102 109.157 51.7646 107.525 52.0954C107.764 52.6316 108.002 53.1676 108.24 53.7038ZM107.712 49.9657C109.112 49.8585 109.908 51.6284 110.053 52.6572C110.169 53.4775 109.283 56.3409 108.087 55.4766C107.642 55.1546 107.392 54.2743 107.1 53.8292C106.701 53.2196 106.143 52.6386 105.84 51.9832C105.198 50.5949 106.348 49.9694 107.712 49.9657Z" fill="#1F1E29"/>
<path fill-rule="evenodd" clip-rule="evenodd" d="M107.774 49.9949C107.469 49.9987 107.165 50.0028 106.86 50.0066C107.165 50.0028 107.47 49.9987 107.774 49.9949Z" fill="#1F1E29"/>
<path fill-rule="evenodd" clip-rule="evenodd" d="M123.728 45.1049C123.49 45.0524 123.251 44.9997 123.013 44.9471C123.251 44.9997 123.49 45.0522 123.728 45.1049Z" fill="#1F1E29"/>
<path fill-rule="evenodd" clip-rule="evenodd" d="M125.647 48.0861C125.406 48.0651 125.165 48.0442 124.923 48.023C125.179 47.8961 125.42 47.9192 125.647 48.0861Z" fill="#1F1E29"/>
<path fill-rule="evenodd" clip-rule="evenodd" d="M92.1446 25.2554C93.3241 26.0709 90.7135 29.1254 89.6792 26.649C89.3905 25.9578 89.4805 25.0994 90.2419 25.2787C90.5848 25.3593 90.6318 25.8573 91.1077 25.876C91.5798 25.8946 91.8116 25.5039 92.1446 25.2554Z" fill="#1F1E29"/>
<path fill-rule="evenodd" clip-rule="evenodd" d="M98.9959 28.1181C99.0144 27.5073 100.232 26.2942 100.926 27.096C101.623 27.9004 99.5227 28.0992 98.9959 28.1181Z" fill="#1F1E29"/>
</svg>
